P2
128 128
88
0 0 0 0 0 0 0 0 0 0 0 0 0 0 0 0 0 0 0 0 0 0 0 0 0 0 0 0 0 0 0 0 0 0 0 0 0 0 0 0 0 0 0 0 0 0 0 0 0 0 0 0 0 0 0 0 0 0 0 0 0 0 0 0 0 0 0 0 0 0 0 0 0 0 0 0 0 0 0 0 0 0 0 0 0 0 0 0 0 0 0 0 0 0 0 0 0 0 0 0 0 0 0 0 0 0 0 0 0 0 0 0 0 0 0 0 0 0 0 0 0 0 0 0 0 0 0 0 
0 0 0 0 0 0 0 0 0 0 0 0 0 0 0 0 0 0 0 0 0 0 0 0 0 0 0 0 0 0 0 0 0 0 0 0 0 0 0 0 0 0 0 0 0 0 0 0 0 0 0 0 0 0 0 0 0 0 0 0 0 0 0 0 0 0 0 0 0 0 0 0 0 0 0 0 0 0 0 0 0 0 0 0 0 0 0 0 0 0 0 0 0 0 0 0 0 0 0 0 0 0 0 0 0 0 0 0 0 0 0 0 0 0 0 0 0 0 0 0 0 0 0 0 0 0 0 0 
0 0 0 0 0 0 0 0 0 0 0 0 0 0 0 0 0 0 0 0 0 0 0 0 0 0 0 0 0 0 0 0 0 0 0 0 0 0 0 0 0 0 0 0 0 0 0 0 0 0 0 0 0 0 0 0 0 0 0 0 0 0 0 0 0 0 0 0 0 0 0 0 0 0 0 0 0 0 0 0 0 0 0 0 0 0 0 0 0 0 0 0 0 0 0 0 0 0 0 0 0 0 0 0 0 0 0 0 0 0 0 0 0 0 0 0 0 0 0 0 0 0 0 0 0 0 0 0 
0 0 0 0 0 0 0 0 0 0 0 0 0 0 0 0 0 0 0 0 0 0 0 0 0 0 0 0 0 0 0 0 0 0 0 0 0 0 0 0 0 0 0 0 0 0 0 0 0 0 0 0 0 0 0 0 0 0 0 0 0 0 0 0 0 0 0 0 0 0 0 0 0 0 0 0 0 0 0 0 0 0 0 0 0 0 0 0 0 0 0 0 0 0 0 0 0 0 0 0 0 0 0 0 0 0 0 0 0 0 0 0 0 0 0 0 0 0 0 0 0 0 0 0 0 0 0 0 
0 0 0 0 0 0 0 0 0 0 0 0 0 0 0 0 0 0 0 0 0 0 0 0 0 0 0 0 0 0 0 0 0 0 0 0 0 0 0 0 0 0 0 0 0 0 0 0 0 0 0 0 0 0 0 0 0 0 0 0 0 0 0 0 0 0 0 0 0 0 0 0 0 0 0 0 0 0 0 0 0 0 0 0 0 0 0 0 0 0 0 0 0 0 0 0 0 0 0 0 0 0 0 0 0 0 0 0 0 0 0 0 0 0 0 0 0 0 0 0 0 0 0 0 0 0 0 0 
0 0 0 0 0 0 0 0 0 0 0 0 0 0 0 0 0 0 0 0 0 0 0 0 0 0 0 0 0 0 0 0 0 0 0 0 0 0 0 0 0 0 0 0 0 0 0 0 0 0 0 0 0 0 0 0 0 0 0 0 0 0 0 0 0 0 0 0 0 0 0 0 0 0 0 0 0 0 0 0 0 0 0 0 0 0 0 0 0 0 0 0 0 0 0 0 0 0 0 0 0 0 0 0 0 0 0 0 0 0 0 0 0 0 0 0 0 0 0 0 0 0 0 0 0 0 0 0 
0 0 0 0 0 0 0 0 0 0 0 0 0 0 0 0 0 0 0 0 0 0 0 0 0 0 0 0 0 0 0 0 0 0 0 0 0 0 0 0 0 0 0 0 0 0 0 0 0 0 0 0 0 0 0 0 0 0 0 0 0 0 0 0 0 0 0 0 0 0 0 0 0 0 0 0 0 0 0 0 0 0 0 0 0 0 0 0 0 0 0 0 0 0 0 0 0 0 0 0 0 0 0 0 0 0 0 0 0 0 0 0 0 0 0 0 0 0 0 0 0 0 0 0 0 0 0 0 
0 0 0 0 0 0 0 0 0 0 0 0 0 0 0 0 0 0 0 0 0 0 0 0 0 0 0 0 0 0 0 0 0 0 0 0 0 0 0 0 0 0 0 0 0 0 0 0 0 0 0 0 0 0 0 0 0 0 0 0 0 0 0 0 0 0 0 0 0 0 0 0 0 0 0 0 0 0 0 0 0 0 0 0 0 0 0 0 0 0 0 0 0 0 0 0 0 0 0 0 0 0 0 0 0 0 0 0 0 0 0 0 0 0 0 0 0 0 0 0 0 0 0 0 0 0 0 0 
0 0 0 0 0 0 0 0 0 0 0 0 0 0 0 0 0 0 0 0 0 0 0 0 0 0 0 0 0 0 0 0 0 0 0 0 0 0 0 0 0 0 0 0 0 0 0 0 0 0 0 0 0 0 0 0 0 0 0 0 0 0 0 0 0 0 0 0 0 0 0 0 0 0 0 0 0 0 0 0 0 0 0 0 0 0 0 0 0 0 0 0 0 0 0 0 0 0 0 0 0 0 0 0 0 0 0 0 0 0 0 0 0 0 0 0 0 0 0 0 0 0 0 0 0 0 0 0 
0 0 0 0 0 0 0 0 0 0 0 0 0 0 0 0 0 0 0 0 0 0 0 0 0 0 0 0 0 0 0 0 0 0 0 0 0 0 0 0 0 0 0 0 0 0 0 0 0 0 0 0 0 0 0 0 0 0 0 0 0 0 0 0 0 0 0 0 0 0 0 0 0 0 0 0 0 0 0 0 0 0 0 0 0 0 0 0 0 0 0 0 0 0 0 0 0 0 0 0 0 0 0 0 0 0 0 0 0 0 0 0 0 0 0 0 0 0 0 0 0 0 0 0 0 0 0 0 
0 0 0 0 0 0 0 0 0 0 0 0 0 0 0 0 0 0 0 0 0 0 0 0 0 0 0 0 0 0 0 0 0 0 0 0 0 0 0 0 0 0 0 0 0 0 0 0 0 0 0 0 0 0 0 0 0 0 0 0 0 0 0 0 0 0 0 0 0 0 0 0 0 0 0 0 0 0 0 0 0 0 0 0 0 0 0 0 0 0 0 0 0 0 0 0 0 0 0 0 0 0 0 0 0 0 0 0 0 0 0 0 0 0 0 0 0 0 0 0 0 0 0 0 0 0 0 0 
0 0 0 0 0 0 0 0 0 0 0 0 0 0 0 0 0 0 0 0 0 0 0 0 0 0 0 0 0 0 0 0 0 0 0 0 0 0 0 0 0 0 0 0 0 0 0 0 0 0 0 0 0 0 0 0 0 0 0 0 0 0 0 0 0 0 0 0 0 0 0 0 0 0 0 0 0 0 0 0 0 0 0 0 0 0 0 0 0 0 0 0 0 0 0 0 0 0 0 0 0 0 0 0 0 0 0 0 0 0 0 0 0 0 0 0 0 0 0 0 0 0 0 0 0 0 0 0 
0 0 0 0 0 0 0 0 0 0 0 0 0 0 0 0 0 0 0 0 0 0 0 0 0 0 0 0 0 0 0 0 0 0 0 0 0 0 0 0 0 0 0 0 0 0 0 0 0 0 0 0 0 0 0 0 0 0 0 0 0 0 0 0 0 0 0 0 0 0 0 0 0 0 0 0 0 0 0 0 0 0 0 0 0 0 0 0 0 0 0 0 0 0 0 0 0 0 0 0 0 0 0 0 0 0 0 0 0 0 0 0 0 0 0 0 0 0 0 0 0 0 0 0 0 0 0 0 
0 0 0 0 0 0 0 0 0 0 0 0 0 0 0 0 0 0 0 0 0 0 0 0 0 0 0 0 0 0 0 0 0 0 0 0 0 0 0 0 0 0 0 0 0 0 0 0 0 0 0 0 0 0 0 0 0 0 0 0 0 0 0 0 0 0 0 0 0 0 0 0 0 0 0 0 0 0 0 0 0 0 0 0 0 0 0 0 0 0 0 0 0 0 0 0 0 0 0 0 0 0 0 0 0 0 0 0 0 0 0 0 0 0 0 0 0 0 0 0 0 0 0 0 0 0 0 0 
0 0 0 0 0 0 0 0 0 0 0 0 0 0 0 0 0 0 0 0 0 0 0 0 0 0 0 0 0 0 0 0 0 0 0 0 0 0 0 0 0 0 0 0 0 0 0 0 0 0 0 0 0 0 0 0 0 0 0 0 0 0 0 0 0 0 0 0 0 0 0 0 0 0 0 0 0 0 0 0 0 0 0 0 0 0 0 0 0 0 0 0 0 0 0 0 0 0 0 0 0 0 0 0 0 0 0 0 0 0 0 0 0 0 0 0 0 0 0 0 0 0 0 0 0 0 0 0 
0 0 0 0 0 0 0 0 0 0 0 0 0 0 0 0 0 0 0 0 0 0 0 0 0 0 0 0 0 0 0 0 0 0 0 0 0 0 0 0 0 0 0 0 0 0 0 0 0 0 0 0 0 0 0 0 0 0 0 0 0 0 0 0 0 0 0 0 0 0 0 0 0 0 0 0 0 0 0 0 0 0 0 0 0 0 0 0 0 0 0 0 0 0 0 0 0 0 0 0 0 0 0 0 0 0 0 0 0 0 0 0 0 0 0 0 0 0 0 0 0 0 0 0 0 0 0 0 
0 0 0 0 0 0 0 0 0 0 0 0 0 0 0 0 0 0 0 0 0 0 0 0 0 0 0 0 0 0 0 0 0 0 0 0 0 0 0 0 0 0 0 0 0 0 0 0 0 0 0 0 0 0 0 0 0 0 0 0 0 0 0 0 0 0 0 0 0 0 0 0 0 0 0 0 0 0 0 0 0 0 0 0 0 0 0 0 0 0 0 0 0 0 0 0 0 0 0 0 0 0 0 0 0 0 0 0 0 0 0 0 0 0 0 0 0 0 0 0 0 0 0 0 0 0 0 0 
0 0 0 0 0 0 0 0 0 0 0 0 0 0 0 0 0 0 0 0 0 0 0 0 0 0 0 0 0 0 0 0 0 0 0 0 0 0 0 0 0 0 0 0 0 0 0 0 0 0 0 0 0 0 0 0 0 0 0 0 0 0 0 0 0 0 0 0 0 0 0 0 0 0 0 0 0 0 0 0 0 0 0 0 0 0 0 0 0 0 0 0 0 0 0 0 0 0 0 0 0 0 0 0 0 0 0 0 0 0 0 0 0 0 0 0 0 0 0 0 0 0 0 0 0 0 0 0 
0 0 0 0 0 0 0 0 0 0 0 0 0 0 0 0 0 0 0 0 0 0 0 0 0 0 0 0 0 0 0 0 0 0 0 0 0 0 0 0 0 0 0 0 0 0 0 0 0 0 0 0 0 0 0 0 0 0 0 0 0 0 0 0 0 0 0 0 0 0 0 0 0 0 0 0 0 0 0 0 0 0 0 0 0 0 0 0 0 0 0 0 0 0 0 0 0 0 0 0 0 0 0 0 0 0 0 0 0 0 0 0 0 0 0 0 0 0 0 0 0 0 0 0 0 0 0 0 
0 0 0 0 0 0 0 0 0 0 0 0 0 0 0 0 0 0 0 0 0 0 0 0 0 0 0 0 0 0 0 0 0 0 0 0 0 0 0 0 0 0 0 0 0 0 0 0 0 0 0 0 0 0 0 0 0 0 0 0 0 0 0 0 0 0 0 0 0 0 0 0 0 0 0 0 0 0 0 0 0 0 0 0 0 0 0 0 0 0 0 0 0 0 0 0 0 0 0 0 0 0 0 0 0 0 0 0 0 0 0 0 0 0 0 0 0 0 0 0 0 0 0 0 0 0 0 0 
0 0 0 0 0 0 0 0 0 0 0 0 0 0 0 0 0 0 0 0 0 0 0 0 0 0 0 0 0 0 0 0 0 0 0 0 0 0 0 0 0 0 0 0 0 0 0 0 0 0 0 0 0 0 0 0 0 0 0 0 0 0 35 73 68 50 0 0 0 0 0 0 0 0 0 0 0 0 0 0 0 0 0 0 0 0 0 0 0 0 0 0 0 0 0 0 0 0 0 0 0 0 0 0 0 0 0 0 0 0 0 0 0 0 0 0 0 0 0 0 0 0 0 0 0 0 0 0 
0 0 0 0 0 0 0 0 0 0 0 0 0 0 0 0 0 0 0 0 0 0 0 0 0 0 0 0 0 0 0 0 0 0 0 0 0 0 0 0 0 0 0 0 0 0 0 0 0 0 0 0 0 0 0 0 0 0 0 0 18 79 63 44 39 59 88 22 0 0 0 0 0 0 0 0 0 0 0 0 0 0 0 0 0 0 0 0 0 0 0 0 0 0 0 0 0 0 0 0 0 0 0 0 0 0 0 0 0 0 0 0 0 0 0 0 0 0 0 0 0 0 0 0 0 0 0 0 
0 0 0 0 0 0 0 0 0 0 0 0 0 0 0 0 0 0 0 0 0 0 0 0 0 0 0 0 0 0 0 0 0 0 0 0 0 0 0 0 0 0 0 0 0 0 0 0 0 0 0 0 0 0 0 0 0 0 0 18 88 88 70 64 55 73 70 88 14 0 0 0 0 0 0 0 0 0 0 0 0 0 0 0 0 0 0 0 0 0 0 0 0 0 0 0 0 0 0 0 0 0 0 0 0 0 0 0 0 0 0 0 0 0 0 0 0 0 0 0 0 0 0 0 0 0 0 0 
0 0 0 0 0 0 0 0 0 0 0 0 0 0 0 0 0 0 0 0 0 0 0 0 0 0 0 0 0 0 0 0 0 0 0 0 0 0 0 0 0 0 0 0 0 0 0 0 0 0 0 0 0 0 0 0 0 0 12 80 88 48 84 77 88 68 64 85 88 0 0 0 0 0 0 0 0 0 0 0 0 0 0 0 0 0 0 0 0 0 0 0 0 0 0 0 0 0 0 0 0 0 0 0 0 0 0 0 0 0 0 0 0 0 0 0 0 0 0 0 0 0 0 0 0 0 0 0 
0 0 0 0 0 0 0 0 0 0 0 0 0 0 0 0 0 0 0 0 0 0 0 0 0 0 0 0 0 0 0 0 0 0 0 0 0 0 0 0 0 0 0 0 0 0 0 0 0 0 0 0 0 0 0 0 0 0 36 88 52 40 88 65 88 54 79 43 88 55 0 0 0 0 0 0 0 0 0 0 0 0 0 0 0 0 0 0 0 0 0 0 0 0 0 0 0 0 0 0 0 0 0 0 0 0 0 0 0 0 0 0 0 0 0 0 0 0 0 0 0 0 0 0 0 0 0 0 
0 0 0 0 0 0 0 0 0 0 0 0 0 0 0 0 0 0 0 0 0 0 0 0 0 0 0 0 0 0 0 0 0 0 0 0 0 0 0 0 0 0 0 0 0 0 0 0 0 0 0 0 0 0 0 0 0 19 88 56 88 21 88 66 88 88 58 84 74 88 11 0 0 0 0 0 0 0 0 0 0 0 0 0 0 0 0 0 0 0 0 0 0 0 0 0 0 0 0 0 0 0 0 0 0 0 0 0 0 0 0 0 0 0 0 0 0 0 0 0 0 0 0 0 0 0 0 0 
0 0 0 0 0 0 0 0 0 0 0 0 0 0 0 0 0 0 0 0 0 0 0 0 0 0 0 0 0 0 0 0 0 0 0 0 0 0 0 0 0 0 0 0 0 0 0 0 0 0 0 0 0 0 0 0 13 74 75 13 88 33 88 62 88 88 50 88 29 88 88 0 0 0 0 0 0 0 0 0 0 0 0 0 0 0 0 0 0 0 0 0 0 0 0 0 0 0 0 0 0 0 0 0 0 0 0 0 0 0 0 0 0 0 0 0 0 0 0 0 0 0 0 0 0 0 0 0 
0 0 0 0 0 0 0 0 0 0 0 0 0 0 0 0 0 0 0 0 0 0 0 0 0 0 0 0 0 0 0 0 0 0 0 0 0 0 0 0 0 0 0 0 0 0 0 0 0 0 0 0 0 0 0 0 57 73 75 22 88 71 88 68 88 88 35 88 23 53 66 67 0 0 0 0 0 0 0 0 0 0 0 0 0 0 0 0 0 0 0 0 0 0 0 0 0 0 0 0 0 0 0 0 0 0 0 0 0 0 0 0 0 0 0 0 0 0 0 0 0 0 0 0 0 0 0 0 
0 0 0 0 0 0 0 0 0 0 0 0 0 0 0 0 0 0 0 0 0 0 0 0 0 0 0 0 0 0 0 0 0 0 0 0 0 0 0 0 0 0 0 0 0 0 0 0 0 0 0 0 0 0 0 55 81 81 49 58 62 88 67 76 88 88 23 88 56 35 88 88 64 0 0 0 0 0 0 0 0 0 0 0 0 0 0 0 0 0 0 0 0 0 0 0 0 0 0 0 0 0 0 0 0 0 0 0 0 0 0 0 0 0 0 0 0 0 0 0 0 0 0 0 0 0 0 0 
0 0 0 0 0 0 0 0 0 0 0 0 0 0 0 0 0 0 0 0 0 0 0 0 0 0 0 0 0 0 0 0 0 0 0 0 0 0 0 0 0 0 0 0 0 0 0 0 0 0 0 0 0 13 63 87 88 88 12 88 32 88 60 73 88 88 34 88 88 19 88 62 88 71 0 0 0 0 0 0 0 0 0 0 0 0 0 0 0 0 0 0 0 0 0 0 0 0 0 0 0 0 0 0 0 0 0 0 0 0 0 0 0 0 0 0 0 0 0 0 0 0 0 0 0 0 0 0 
0 0 0 0 0 0 0 0 0 0 0 0 0 0 0 0 0 0 0 0 0 0 0 0 0 0 0 0 0 0 0 0 0 0 0 0 0 0 0 0 0 0 0 0 0 0 0 12 31 41 49 60 77 88 61 88 88 9 37 88 58 88 65 78 88 88 88 45 88 34 56 88 88 88 88 28 0 0 0 0 0 0 0 0 0 0 0 0 0 0 0 0 0 0 0 0 0 0 0 0 0 0 0 0 0 0 0 0 0 0 0 0 0 0 0 0 0 0 0 0 0 0 0 0 0 0 0 0 
0 0 0 0 0 0 0 0 0 0 0 0 0 0 0 0 0 0 0 0 0 0 0 0 0 0 0 0 0 0 0 0 0 0 0 0 0 0 0 0 0 0 0 0 13 35 57 61 58 61 68 74 88 88 88 77 13 41 30 75 88 88 60 88 88 88 88 4 88 64 8 41 88 88 88 88 88 67 49 35 25 14 0 0 0 0 0 0 0 0 0 0 0 0 0 0 0 0 0 0 0 0 0 0 0 0 0 0 0 0 0 0 0 0 0 0 0 0 0 0 0 0 0 0 0 0 0 0 
0 0 0 0 0 0 0 0 0 0 0 0 0 0 0 0 0 0 0 0 0 0 0 0 0 0 0 0 0 0 0 0 0 0 0 0 0 0 0 0 0 0 0 41 66 57 49 56 69 82 88 88 88 88 57 48 82 88 22 72 88 88 65 88 88 88 88 7 88 57 42 47 24 88 88 88 88 88 86 73 62 62 55 28 0 0 0 0 0 0 0 0 0 0 0 0 0 0 0 0 0 0 0 0 0 0 0 0 0 0 0 0 0 0 0 0 0 0 0 0 0 0 0 0 0 0 0 0 
0 0 0 0 0 0 0 0 0 0 0 0 0 0 0 0 0 0 0 0 0 0 0 0 0 0 0 0 0 0 0 0 0 0 0 0 0 0 0 0 0 35 74 56 59 78 69 56 60 71 67 70 70 82 87 58 88 88 31 88 88 88 65 88 88 88 62 12 86 63 84 88 63 75 79 88 88 88 88 88 88 88 68 66 88 34 0 0 0 0 0 0 0 0 0 0 0 0 0 0 0 0 0 0 0 0 0 0 0 0 0 0 0 0 0 0 0 0 0 0 0 0 0 0 0 0 0 0 
0 0 0 0 0 0 0 0 0 0 0 0 0 0 0 0 0 0 0 0 0 0 0 0 0 0 0 0 0 0 0 0 0 0 0 0 0 0 0 19 88 61 72 87 82 71 82 74 55 55 66 78 88 88 83 88 88 88 88 47 82 88 65 88 88 88 88 88 39 88 88 88 88 61 75 69 85 76 81 88 88 88 88 88 84 80 88 33 0 0 0 0 0 0 0 0 0 0 0 0 0 0 0 0 0 0 0 0 0 0 0 0 0 0 0 0 0 0 0 0 0 0 0 0 0 0 0 0 
0 0 0 0 0 0 0 0 0 0 0 0 0 0 0 0 0 0 0 0 0 0 0 0 0 0 0 0 0 0 0 0 0 0 0 0 0 0 71 88 58 88 88 86 86 74 56 69 88 77 79 88 88 79 82 65 48 88 88 57 88 71 78 88 88 63 88 88 88 88 88 88 88 54 63 88 88 79 88 80 72 88 88 88 88 88 62 88 88 14 0 0 0 0 0 0 0 0 0 0 0 0 0 0 0 0 0 0 0 0 0 0 0 0 0 0 0 0 0 0 0 0 0 0 0 0 0 0 
0 0 0 0 0 0 0 0 0 0 0 0 0 0 0 0 0 0 0 0 0 0 0 0 0 0 0 0 0 0 0 0 0 0 0 0 15 88 88 82 88 78 88 88 88 84 74 63 51 73 85 88 87 88 88 53 24 69 88 76 88 68 88 88 88 77 88 88 88 88 82 31 17 52 65 81 85 88 83 75 77 67 70 88 88 88 88 88 88 88 46 0 0 0 0 0 0 0 0 0 0 0 0 0 0 0 0 0 0 0 0 0 0 0 0 0 0 0 0 0 0 0 0 0 0 0 0 0 
0 0 0 0 0 0 0 0 0 0 0 0 0 0 0 0 0 0 0 0 0 0 0 0 0 0 0 0 0 0 0 0 0 0 0 30 88 88 77 88 58 81 88 88 88 67 55 63 75 75 86 88 88 88 88 38 11 83 76 88 88 88 56 88 88 85 88 88 88 88 82 13 9 39 51 83 75 87 87 86 70 70 84 68 70 50 74 88 78 88 88 86 0 0 0 0 0 0 0 0 0 0 0 0 0 0 0 0 0 0 0 0 0 0 0 0 0 0 0 0 0 0 0 0 0 0 0 0 
0 0 0 0 0 0 0 0 0 0 0 0 0 0 0 0 0 0 0 0 0 0 0 0 0 0 0 0 0 0 0 0 0 0 24 88 88 73 88 56 32 40 67 88 88 85 88 87 88 78 88 88 87 88 81 27 45 75 72 88 88 88 41 88 88 52 88 88 88 88 88 73 13 19 39 56 66 88 75 76 71 79 88 80 78 48 34 52 88 59 88 88 88 0 0 0 0 0 0 0 0 0 0 0 0 0 0 0 0 0 0 0 0 0 0 0 0 0 0 0 0 0 0 0 0 0 0 0 
0 0 0 0 0 0 0 0 0 0 0 0 0 0 0 0 0 0 0 0 0 0 0 0 0 0 0 0 0 0 0 0 0 17 88 88 76 88 88 30 83 88 59 84 88 88 88 88 88 88 88 79 64 74 39 31 31 59 68 88 83 88 75 88 88 69 88 88 88 83 88 19 45 43 54 38 48 58 71 68 74 87 88 86 83 88 88 36 85 88 60 88 88 88 0 0 0 0 0 0 0 0 0 0 0 0 0 0 0 0 0 0 0 0 0 0 0 0 0 0 0 0 0 0 0 0 0 0 
0 0 0 0 0 0 0 0 0 0 0 0 0 0 0 0 0 0 0 0 0 0 0 0 0 0 0 0 0 0 0 0 13 88 88 88 72 88 55 34 88 88 78 62 88 88 88 88 88 79 77 52 57 59 46 63 88 88 60 88 60 65 88 73 88 88 88 88 88 88 86 88 42 39 48 44 42 35 47 48 61 64 76 70 88 88 88 70 29 88 88 88 88 88 66 0 0 0 0 0 0 0 0 0 0 0 0 0 0 0 0 0 0 0 0 0 0 0 0 0 0 0 0 0 0 0 0 0 
0 0 0 0 0 0 0 0 0 0 0 0 0 0 0 0 0 0 0 0 0 0 0 0 0 0 0 0 0 0 0 0 84 88 88 78 88 88 32 34 59 84 88 20 71 88 88 88 79 56 42 42 27 12 14 32 53 88 74 88 40 23 88 66 88 88 60 66 88 88 88 83 32 13 15 27 17 13 22 25 36 51 45 31 86 88 88 79 14 84 88 81 88 88 88 25 0 0 0 0 0 0 0 0 0 0 0 0 0 0 0 0 0 0 0 0 0 0 0 0 0 0 0 0 0 0 0 0 
0 0 0 0 0 0 0 0 0 0 0 0 0 0 0 0 0 0 0 0 0 0 0 0 0 0 0 0 0 0 0 30 88 88 88 88 88 74 33 70 63 75 61 15 45 63 88 80 53 34 20 6 0 1 0 4 32 88 65 88 69 12 88 69 88 88 26 50 88 88 88 72 13 3 1 1 4 5 4 8 8 13 12 11 57 65 81 88 46 28 88 88 83 88 88 88 13 0 0 0 0 0 0 0 0 0 0 0 0 0 0 0 0 0 0 0 0 0 0 0 0 0 0 0 0 0 0 0 
0 0 0 0 0 0 0 0 0 0 0 0 0 0 0 0 0 0 0 0 0 0 0 0 0 0 0 0 0 0 0 88 88 88 81 88 88 35 38 60 88 88 88 88 24 22 55 77 46 13 5 1 0 2 0 3 1 88 38 88 88 8 88 61 88 88 30 88 88 88 88 22 6 2 2 1 0 3 1 4 3 5 3 13 44 88 87 58 63 13 88 88 88 88 88 88 55 0 0 0 0 0 0 0 0 0 0 0 0 0 0 0 0 0 0 0 0 0 0 0 0 0 0 0 0 0 0 0 
0 0 0 0 0 0 0 0 0 0 0 0 0 0 0 0 0 0 0 0 0 0 0 0 0 0 0 0 0 0 53 88 88 87 88 88 88 18 35 86 88 88 88 88 88 50 17 15 19 9 1 1 0 1 1 4 0 74 42 88 88 40 88 59 85 88 83 88 88 88 88 16 1 2 0 3 1 1 1 0 2 1 1 15 88 88 88 88 75 26 50 88 88 88 88 88 88 12 0 0 0 0 0 0 0 0 0 0 0 0 0 0 0 0 0 0 0 0 0 0 0 0 0 0 0 0 0 0 
0 0 0 0 0 0 0 0 0 0 0 0 0 0 0 0 0 0 0 0 0 0 0 0 0 0 0 0 0 14 88 88 88 88 88 88 34 6 72 69 57 50 51 85 88 88 49 54 21 3 0 0 1 1 1 2 1 44 55 88 88 71 88 63 88 88 88 88 88 88 88 17 5 0 0 4 2 1 1 2 3 15 12 88 88 88 88 88 88 39 13 88 88 88 88 88 88 48 0 0 0 0 0 0 0 0 0 0 0 0 0 0 0 0 0 0 0 0 0 0 0 0 0 0 0 0 0 0 
0 0 0 0 0 0 0 0 0 0 0 0 0 0 0 0 0 0 0 0 0 0 0 0 0 0 0 0 0 70 88 88 88 88 88 88 4 55 88 53 59 54 46 37 66 88 88 54 31 0 2 0 0 0 0 2 2 39 63 88 88 81 88 63 88 88 88 88 88 88 88 14 1 2 2 1 1 1 0 0 31 14 79 88 88 87 58 65 88 88 4 49 88 88 88 88 88 88 0 0 0 0 0 0 0 0 0 0 0 0 0 0 0 0 0 0 0 0 0 0 0 0 0 0 0 0 0 0 
0 0 0 0 0 0 0 0 0 0 0 0 0 0 0 0 0 0 0 0 0 0 0 0 0 0 0 0 0 88 88 88 80 88 88 38 12 88 70 57 62 63 59 56 40 88 88 88 61 0 2 0 1 1 1 4 0 49 66 88 88 86 88 58 86 88 88 88 88 88 88 13 1 2 2 1 2 1 0 1 51 73 88 88 65 46 49 48 57 88 52 2 88 88 88 88 88 88 26 0 0 0 0 0 0 0 0 0 0 0 0 0 0 0 0 0 0 0 0 0 0 0 0 0 0 0 0 0 
0 0 0 0 0 0 0 0 0 0 0 0 0 0 0 0 0 0 0 0 0 0 0 0 0 0 0 0 22 88 88 88 88 88 88 13 12 88 74 65 62 61 68 57 50 88 88 88 67 1 1 2 2 2 0 6 0 59 52 88 88 88 88 60 88 88 88 88 88 88 78 12 2 2 0 0 1 0 2 13 88 88 88 88 41 54 62 58 51 88 88 3 62 88 88 88 88 88 69 0 0 0 0 0 0 0 0 0 0 0 0 0 0 0 0 0 0 0 0 0 0 0 0 0 0 0 0 0 
0 0 0 0 0 0 0 0 0 0 0 0 0 0 0 0 0 0 0 0 0 0 0 0 0 0 0 0 50 88 88 88 88 88 33 27 37 88 88 63 68 64 67 66 58 60 88 88 88 15 0 0 1 1 3 5 0 86 46 88 88 88 88 69 88 88 88 88 88 88 80 16 4 3 1 2 3 1 4 11 88 88 88 78 51 58 66 63 56 88 77 14 23 88 88 88 88 88 88 0 0 0 0 0 0 0 0 0 0 0 0 0 0 0 0 0 0 0 0 0 0 0 0 0 0 0 0 0 
0 0 0 0 0 0 0 0 0 0 0 0 0 0 0 0 0 0 0 0 0 0 0 0 0 0 0 0 71 88 88 88 88 88 29 31 48 58 77 63 25 80 41 43 49 47 69 56 85 66 7 1 0 2 5 4 8 79 61 88 88 88 54 88 88 88 88 88 88 88 78 41 5 3 1 2 0 2 3 60 88 88 79 42 57 62 66 66 61 88 64 30 22 66 88 88 88 88 88 21 0 0 0 0 0 0 0 0 0 0 0 0 0 0 0 0 0 0 0 0 0 0 0 0 0 0 0 0 
0 0 0 0 0 0 0 0 0 0 0 0 0 0 0 0 0 0 0 0 0 0 0 0 0 0 0 0 87 88 88 88 88 57 35 28 59 55 64 82 71 0 13 22 53 57 62 72 88 53 18 5 1 1 4 3 23 73 67 88 88 88 33 88 88 80 88 88 88 88 69 58 4 4 2 3 1 2 6 66 65 54 40 52 54 58 70 39 71 75 58 39 29 38 80 88 88 88 88 42 0 0 0 0 0 0 0 0 0 0 0 0 0 0 0 0 0 0 0 0 0 0 0 0 0 0 0 0 
0 0 0 0 0 0 0 0 0 0 0 0 0 0 0 0 0 0 0 0 0 0 0 0 0 0 0 14 88 88 88 88 88 22 34 32 59 54 59 51 9 7 2 42 59 61 60 63 37 88 88 58 19 0 4 3 26 60 76 88 88 88 38 88 88 88 88 88 88 88 60 67 3 3 3 1 2 9 84 88 64 63 62 52 47 21 61 45 40 57 58 60 20 32 88 88 88 88 88 61 0 0 0 0 0 0 0 0 0 0 0 0 0 0 0 0 0 0 0 0 0 0 0 0 0 0 0 0 
0 0 0 0 0 0 0 0 0 0 0 0 0 0 0 0 0 0 0 0 0 0 0 0 0 0 0 26 88 88 88 88 54 26 24 53 50 57 53 64 15 15 54 21 58 57 63 62 58 73 86 76 88 26 11 36 75 56 64 88 88 57 55 88 88 88 88 88 88 88 43 80 0 0 5 6 19 30 88 40 48 57 54 54 49 8 9 11 88 59 59 54 31 28 50 88 88 88 88 73 0 0 0 0 0 0 0 0 0 0 0 0 0 0 0 0 0 0 0 0 0 0 0 0 0 0 0 0 
0 0 0 0 0 0 0 0 0 0 0 0 0 0 0 0 0 0 0 0 0 0 0 0 0 0 0 43 88 88 88 88 47 26 32 61 50 54 59 71 52 25 62 51 52 58 65 82 88 82 88 75 88 88 72 88 66 70 49 88 88 16 88 88 88 88 82 88 88 88 50 88 57 24 9 40 57 55 88 80 74 57 64 60 41 28 25 8 35 63 54 47 52 19 43 88 88 88 88 88 0 0 0 0 0 0 0 0 0 0 0 0 0 0 0 0 0 0 0 0 0 0 0 0 0 0 0 0 
0 0 0 0 0 0 0 0 0 0 0 0 0 0 0 0 0 0 0 0 0 0 0 0 0 0 0 58 88 88 88 88 43 35 50 49 53 50 56 59 46 32 69 47 46 60 87 88 71 88 88 88 88 88 85 88 88 72 32 79 53 23 88 88 88 88 51 87 88 88 60 88 88 81 84 88 88 88 88 88 88 88 63 55 41 83 34 12 45 61 56 54 58 48 44 86 88 88 88 88 12 0 0 0 0 0 0 0 0 0 0 0 0 0 0 0 0 0 0 0 0 0 0 0 0 0 0 0 
0 0 0 0 0 0 0 0 0 0 0 0 0 0 0 0 0 0 0 0 0 0 0 0 0 0 0 74 88 88 88 88 36 46 50 50 51 48 52 75 61 46 61 47 56 68 88 88 88 88 74 88 87 35 65 86 58 74 23 48 13 55 88 88 88 88 28 61 73 88 64 88 77 64 47 52 55 88 88 88 65 67 85 62 48 81 71 7 51 64 56 57 52 44 43 62 88 88 88 88 28 0 0 0 0 0 0 0 0 0 0 0 0 0 0 0 0 0 0 0 0 0 0 0 0 0 0 0 
0 0 0 0 0 0 0 0 0 0 0 0 0 0 0 0 0 0 0 0 0 0 0 0 0 0 13 82 88 88 88 86 55 50 41 55 49 47 54 87 37 42 53 59 66 88 88 87 88 88 48 88 88 67 88 88 88 69 50 21 1 56 88 88 88 88 4 45 63 81 82 56 88 66 22 77 78 76 88 88 68 88 88 83 53 64 80 27 69 69 55 53 49 44 57 55 88 88 88 88 38 0 0 0 0 0 0 0 0 0 0 0 0 0 0 0 0 0 0 0 0 0 0 0 0 0 0 0 
0 0 0 0 0 0 0 0 0 0 0 0 0 0 0 0 0 0 0 0 0 0 0 0 0 0 15 88 88 88 88 61 53 57 43 53 50 46 63 60 48 47 58 87 88 88 88 88 88 88 78 88 88 55 88 88 88 80 38 0 2 36 88 88 88 88 20 22 50 61 85 87 88 88 71 88 88 88 88 88 88 88 75 88 54 52 60 34 83 81 47 55 45 48 54 52 88 88 88 88 47 0 0 0 0 0 0 0 0 0 0 0 0 0 0 0 0 0 0 0 0 0 0 0 0 0 0 0 
0 0 0 0 0 0 0 0 0 0 0 0 0 0 0 0 0 0 0 0 0 0 0 0 0 0 25 88 88 88 88 66 57 49 47 47 49 50 42 54 51 65 83 88 88 88 84 83 88 88 88 88 88 64 88 88 88 64 12 5 2 5 88 88 88 88 21 3 25 40 62 86 88 88 59 88 88 88 76 78 65 88 88 70 88 54 56 45 69 72 56 51 54 47 54 73 88 88 88 88 59 0 0 0 0 0 0 0 0 0 0 0 0 0 0 0 0 0 0 0 0 0 0 0 0 0 0 0 
0 0 0 0 0 0 0 0 0 0 0 0 0 0 0 0 0 0 0 0 0 0 0 0 0 0 36 88 88 88 88 64 56 46 45 53 49 50 47 49 56 75 88 73 63 69 88 88 88 88 88 88 85 88 88 88 88 60 47 6 1 0 37 88 88 85 7 0 1 1 17 72 88 88 88 88 88 88 88 88 88 88 88 88 85 80 63 52 65 56 46 51 52 50 49 57 86 88 88 88 73 0 0 0 0 0 0 0 0 0 0 0 0 0 0 0 0 0 0 0 0 0 0 0 0 0 0 0 
0 0 0 0 0 0 0 0 0 0 0 0 0 0 0 0 0 0 0 0 0 0 0 0 0 0 50 88 88 88 88 63 53 49 45 54 50 55 47 67 68 88 64 57 59 71 88 88 88 88 88 88 50 83 88 61 88 54 88 0 1 3 32 64 71 63 11 0 3 2 45 59 88 88 88 84 88 88 88 88 88 73 56 88 87 75 71 57 51 50 49 51 56 49 50 48 83 88 88 88 83 13 0 0 0 0 0 0 0 0 0 0 0 0 0 0 0 0 0 0 0 0 0 0 0 0 0 0 
0 0 0 0 0 0 0 0 0 0 0 0 0 0 0 0 0 0 0 0 0 0 0 0 0 0 61 88 88 88 88 75 52 50 49 53 60 49 55 63 88 67 60 51 60 71 88 88 88 88 88 69 46 88 60 88 74 47 88 0 2 2 29 43 45 38 13 0 4 0 87 51 73 62 73 49 88 88 88 88 88 78 69 57 88 73 88 70 59 49 48 49 53 46 50 50 77 88 88 88 88 20 0 0 0 0 0 0 0 0 0 0 0 0 0 0 0 0 0 0 0 0 0 0 0 0 0 0 
0 0 0 0 0 0 0 0 0 0 0 0 0 0 0 0 0 0 0 0 0 0 0 0 0 0 70 88 88 88 88 88 51 51 54 58 64 83 62 88 85 55 58 54 63 71 88 88 88 88 88 54 83 88 88 73 45 66 88 0 4 3 6 19 17 18 8 3 2 3 88 61 54 88 77 73 44 88 88 88 88 71 69 58 48 87 74 88 56 46 59 54 56 49 47 50 84 88 88 88 88 39 0 0 0 0 0 0 0 0 0 0 0 0 0 0 0 0 0 0 0 0 0 0 0 0 0 0 
0 0 0 0 0 0 0 0 0 0 0 0 0 0 0 0 0 0 0 0 0 0 0 0 0 0 83 88 88 88 88 88 54 54 48 58 54 82 88 88 46 52 52 64 55 72 72 88 88 88 88 81 88 88 68 58 74 88 88 0 4 3 0 6 8 6 1 1 1 0 88 82 47 67 88 88 25 88 88 88 88 73 66 53 49 58 67 88 88 51 56 63 61 50 50 51 88 88 88 88 88 55 0 0 0 0 0 0 0 0 0 0 0 0 0 0 0 0 0 0 0 0 0 0 0 0 0 0 
0 0 0 0 0 0 0 0 0 0 0 0 0 0 0 0 0 0 0 0 0 0 0 0 0 13 88 88 88 88 88 88 71 53 49 52 51 88 88 60 45 48 54 59 59 71 73 88 88 88 88 88 88 76 71 81 67 81 88 16 1 2 1 13 5 6 1 2 3 1 88 88 73 61 72 88 88 88 88 88 78 73 61 58 52 49 67 72 88 86 84 67 53 54 50 60 88 88 88 88 88 70 0 0 0 0 0 0 0 0 0 0 0 0 0 0 0 0 0 0 0 0 0 0 0 0 0 0 
0 0 0 0 0 0 0 0 0 0 0 0 0 0 0 0 0 0 0 0 0 0 0 0 0 13 88 88 88 88 88 88 88 84 50 63 61 88 69 54 47 48 61 57 65 61 81 88 88 88 39 88 76 88 74 80 62 73 88 32 4 2 4 3 2 2 1 2 1 13 88 88 86 70 81 88 88 88 88 88 85 71 81 51 59 55 49 81 88 88 88 64 53 55 51 88 88 88 88 88 88 88 0 0 0 0 0 0 0 0 0 0 0 0 0 0 0 0 0 0 0 0 0 0 0 0 0 0 
0 0 0 0 0 0 0 0 0 0 0 0 0 0 0 0 0 0 0 0 0 0 0 0 0 20 88 88 88 88 88 88 78 88 88 45 88 78 64 49 53 62 52 60 60 64 79 88 88 88 88 88 88 53 88 58 61 86 88 42 0 5 2 1 2 1 3 1 1 55 88 81 73 81 73 88 88 88 88 88 83 78 69 68 52 57 53 44 88 88 88 58 59 63 65 88 88 88 88 88 88 88 0 0 0 0 0 0 0 0 0 0 0 0 0 0 0 0 0 0 0 0 0 0 0 0 0 0 
0 0 0 0 0 0 0 0 0 0 0 0 0 0 0 0 0 0 0 0 0 0 0 0 0 25 88 88 88 88 88 88 88 74 87 88 88 11 87 45 55 54 53 60 54 60 71 88 88 63 88 88 55 88 77 71 65 88 88 88 31 1 8 0 0 0 0 11 17 84 88 86 58 58 81 59 88 88 88 88 88 78 57 65 55 52 56 51 84 88 88 57 76 67 88 88 88 88 88 88 88 88 24 0 0 0 0 0 0 0 0 0 0 0 0 0 0 0 0 0 0 0 0 0 0 0 0 0 
0 0 0 0 0 0 0 0 0 0 0 0 0 0 0 0 0 0 0 0 0 0 0 0 0 30 88 88 88 88 88 88 88 82 77 68 31 9 67 62 58 47 53 53 53 53 88 88 40 88 88 68 66 77 74 60 79 88 88 88 88 41 16 14 8 13 1 44 77 88 88 88 63 64 78 77 66 88 88 88 88 66 59 55 55 52 57 51 73 47 88 88 65 88 88 88 88 88 88 88 88 88 34 0 0 0 0 0 0 0 0 0 0 0 0 0 0 0 0 0 0 0 0 0 0 0 0 0 
0 0 0 0 0 0 0 0 0 0 0 0 0 0 0 0 0 0 0 0 0 0 0 0 0 38 88 88 88 88 88 67 63 88 77 42 76 35 62 88 47 49 47 50 45 88 88 88 88 88 60 40 67 76 60 87 88 88 88 88 88 88 65 56 35 44 61 88 88 84 88 88 79 53 81 73 71 88 88 49 88 84 61 55 53 50 58 53 69 41 23 88 88 88 87 88 88 88 88 88 88 88 53 0 0 0 0 0 0 0 0 0 0 0 0 0 0 0 0 0 0 0 0 0 0 0 0 0 
0 0 0 0 0 0 0 0 0 0 0 0 0 0 0 0 0 0 0 0 0 0 0 0 0 47 88 88 88 88 85 88 88 88 87 32 71 79 16 65 64 51 50 46 88 53 60 88 88 88 44 60 70 60 88 88 88 68 58 56 72 88 88 82 87 73 86 79 56 58 73 88 88 88 62 76 67 55 82 88 88 88 58 60 56 58 59 60 55 39 27 66 88 82 88 60 88 88 88 88 88 88 57 0 0 0 0 0 0 0 0 0 0 0 0 0 0 0 0 0 0 0 0 0 0 0 0 0 
0 0 0 0 0 0 0 0 0 0 0 0 0 0 0 0 0 0 0 0 0 0 0 0 0 46 88 88 88 88 88 88 57 61 88 37 37 81 50 11 79 63 61 72 88 88 88 88 88 56 68 83 88 55 88 88 47 50 50 62 58 63 63 88 88 88 85 51 52 45 49 62 88 88 77 64 70 62 83 88 88 88 88 62 54 54 51 76 70 15 82 59 32 88 64 88 88 88 83 88 88 88 55 0 0 0 0 0 0 0 0 0 0 0 0 0 0 0 0 0 0 0 0 0 0 0 0 0 
0 0 0 0 0 0 0 0 0 0 0 0 0 0 0 0 0 0 0 0 0 0 0 0 0 28 88 88 73 88 88 88 83 47 88 75 31 25 28 57 88 81 88 88 88 88 88 88 56 58 63 63 70 79 57 42 52 63 69 63 58 61 62 67 69 80 70 47 58 60 60 49 49 77 88 67 88 71 54 88 88 88 88 88 43 58 59 72 32 53 88 54 44 88 88 88 88 88 88 88 88 88 51 0 0 0 0 0 0 0 0 0 0 0 0 0 0 0 0 0 0 0 0 0 0 0 0 0 
0 0 0 0 0 0 0 0 0 0 0 0 0 0 0 0 0 0 0 0 0 0 0 0 0 26 79 88 78 29 84 73 88 77 58 62 79 70 43 83 88 88 88 88 88 88 53 38 40 67 88 71 88 75 54 67 61 81 72 58 62 60 76 66 80 74 56 57 44 57 53 55 58 45 44 67 69 88 80 27 88 88 88 88 88 78 78 66 27 84 65 28 62 78 72 66 88 88 71 52 88 88 49 0 0 0 0 0 0 0 0 0 0 0 0 0 0 0 0 0 0 0 0 0 0 0 0 0 
0 0 0 0 0 0 0 0 0 0 0 0 0 0 0 0 0 0 0 0 0 0 0 0 0 29 37 20 31 54 70 88 88 88 88 36 30 74 88 84 84 88 88 88 88 71 34 50 65 56 61 71 88 48 42 57 80 80 49 73 88 71 44 42 24 50 79 79 78 54 71 76 52 51 50 53 88 68 71 55 56 88 88 88 88 88 88 88 48 30 28 36 67 69 63 88 69 52 50 46 49 43 40 0 0 0 0 0 0 0 0 0 0 0 0 0 0 0 0 0 0 0 0 0 0 0 0 0 
0 0 0 0 0 0 0 0 0 0 0 0 0 0 0 0 0 0 0 0 0 0 0 0 0 28 50 51 45 40 57 69 83 88 82 88 88 88 77 88 88 88 88 88 56 34 34 31 28 13 28 60 60 66 79 86 76 72 88 78 54 44 31 17 21 30 44 59 54 84 82 88 72 65 63 55 88 50 43 88 81 29 88 88 88 88 88 88 65 35 88 88 56 83 88 88 88 88 57 35 42 39 48 0 0 0 0 0 0 0 0 0 0 0 0 0 0 0 0 0 0 0 0 0 0 0 0 0 
0 0 0 0 0 0 0 0 0 0 0 0 0 0 0 0 0 0 0 0 0 0 0 0 0 0 18 23 36 54 52 49 78 81 88 88 88 74 87 87 81 47 78 64 53 35 38 88 25 4 22 46 39 46 51 47 38 50 32 68 67 59 27 21 34 43 44 48 55 36 42 35 38 55 57 60 34 23 0 16 46 27 41 81 88 88 88 70 83 88 50 73 88 88 88 75 79 57 57 53 45 36 30 0 0 0 0 0 0 0 0 0 0 0 0 0 0 0 0 0 0 0 0 0 0 0 0 0 
0 0 0 0 0 0 0 0 0 0 0 0 0 0 0 0 0 0 0 0 0 0 0 0 0 0 16 16 25 49 47 43 78 82 84 85 80 88 88 88 75 32 42 51 35 22 53 81 76 33 35 50 53 64 55 48 49 37 82 86 64 58 42 40 49 55 62 63 58 65 47 34 51 57 46 39 32 11 3 20 49 35 23 55 70 79 88 88 88 75 84 88 88 88 84 80 77 55 47 49 31 20 23 0 0 0 0 0 0 0 0 0 0 0 0 0 0 0 0 0 0 0 0 0 0 0 0 0 
0 0 0 0 0 0 0 0 0 0 0 0 0 0 0 0 0 0 0 0 0 0 0 0 0 0 11 19 29 60 31 46 77 82 86 88 88 88 88 86 34 34 6 22 18 30 32 63 78 71 58 63 74 83 70 75 88 88 88 78 70 66 53 44 65 51 77 88 88 88 88 84 62 58 64 68 51 38 48 52 87 65 16 39 65 68 31 64 81 88 88 85 84 79 87 82 76 38 46 35 33 24 34 0 0 0 0 0 0 0 0 0 0 0 0 0 0 0 0 0 0 0 0 0 0 0 0 0 
0 0 0 0 0 0 0 0 0 0 0 0 0 0 0 0 0 0 0 0 0 0 0 0 0 16 20 17 48 55 35 38 88 82 84 81 88 88 87 66 37 31 19 16 15 15 16 48 58 54 53 46 55 60 73 63 51 38 35 39 59 55 39 56 66 78 66 71 55 64 60 50 53 56 48 62 75 73 88 88 67 88 70 61 71 35 15 31 78 88 88 79 88 88 81 86 81 73 47 45 27 19 31 47 0 0 0 0 0 0 0 0 0 0 0 0 0 0 0 0 0 0 0 0 0 0 0 0 
0 0 0 0 0 0 0 0 0 0 0 0 0 0 0 0 0 0 0 0 0 0 0 18 39 37 31 32 45 39 39 47 63 88 81 88 80 88 85 59 72 27 4 7 16 16 3 16 88 71 24 33 45 46 44 40 52 48 54 40 47 60 66 40 35 51 55 33 32 34 47 74 78 64 51 57 54 57 46 71 62 74 61 46 26 13 13 9 49 88 88 88 88 87 86 83 88 54 35 39 34 38 50 62 76 27 0 0 0 0 0 0 0 0 0 0 0 0 0 0 0 0 0 0 0 0 0 0 
0 0 0 0 0 0 0 0 0 0 0 0 0 0 0 0 0 0 0 0 0 0 19 88 62 37 26 39 47 38 42 64 52 70 88 88 88 88 88 87 64 18 13 16 21 6 16 34 50 40 32 23 47 46 55 81 88 88 84 65 54 35 37 59 67 72 88 88 88 60 69 88 88 88 78 49 44 37 45 38 59 60 58 56 30 15 16 51 59 88 88 88 88 88 88 66 62 33 39 44 45 34 44 52 60 88 18 0 0 0 0 0 0 0 0 0 0 0 0 0 0 0 0 0 0 0 0 0 
0 0 0 0 0 0 0 0 0 0 0 0 0 0 0 0 0 0 0 0 0 0 51 64 58 36 41 49 51 45 42 55 60 88 88 88 88 88 77 57 57 58 63 75 53 41 40 45 56 34 28 50 61 75 88 88 88 88 78 44 63 55 65 45 59 74 88 88 88 88 56 88 88 88 87 88 60 51 31 31 35 47 36 45 24 23 12 69 86 88 88 88 88 88 86 79 51 58 31 35 41 37 34 61 71 85 30 0 0 0 0 0 0 0 0 0 0 0 0 0 0 0 0 0 0 0 0 0 
0 0 0 0 0 0 0 0 0 0 0 0 0 0 0 0 0 0 0 0 0 0 45 76 62 47 52 37 41 44 39 61 40 46 38 52 83 88 88 59 52 48 72 62 81 69 48 68 73 60 42 62 81 88 88 88 88 86 38 53 88 50 44 56 58 51 57 67 88 88 42 88 88 88 88 88 84 63 46 49 81 57 64 59 35 24 9 88 88 88 88 66 80 80 83 80 71 52 18 34 27 29 50 67 55 88 12 0 0 0 0 0 0 0 0 0 0 0 0 0 0 0 0 0 0 0 0 0 
0 0 0 0 0 0 0 0 0 0 0 0 0 0 0 0 0 0 0 0 0 0 24 88 51 54 49 24 27 39 25 44 41 23 11 15 30 66 51 37 48 65 83 76 71 66 56 88 88 42 51 84 88 83 81 72 69 42 48 82 56 34 32 31 31 28 25 25 61 88 53 64 77 83 88 88 88 88 68 49 72 35 85 66 70 63 42 31 85 88 79 88 70 82 82 65 34 55 0 26 20 14 35 76 44 88 0 0 0 0 0 0 0 0 0 0 0 0 0 0 0 0 0 0 0 0 0 0 
0 0 0 0 0 0 0 0 0 0 0 0 0 0 0 0 0 0 0 0 0 0 25 55 41 62 29 22 17 23 33 52 18 11 19 18 20 39 50 34 42 49 72 65 77 65 88 88 63 47 88 85 79 84 76 63 54 24 71 29 22 22 24 28 31 32 26 25 29 46 57 37 78 75 84 80 86 85 77 31 88 88 88 75 57 63 60 63 55 83 63 56 29 14 8 14 31 51 13 15 21 14 23 63 76 74 28 0 0 0 0 0 0 0 0 0 0 0 0 0 0 0 0 0 0 0 0 0 
0 0 0 0 0 0 0 0 0 0 0 0 0 0 0 0 0 0 0 0 0 0 36 49 88 39 15 11 16 0 48 22 13 14 50 49 33 17 55 54 53 53 63 77 78 88 55 35 45 63 80 73 71 76 71 46 51 13 83 23 35 32 35 33 32 29 38 36 38 56 39 19 45 72 82 80 71 75 77 36 61 80 80 88 81 46 67 88 46 51 56 31 2 5 5 21 17 39 21 0 0 0 0 34 88 60 71 0 0 11 0 0 0 0 0 0 0 0 0 0 0 0 0 0 0 0 0 0 
0 0 0 0 0 0 0 0 0 0 0 0 0 0 0 0 0 0 0 0 0 0 57 88 64 17 0 14 0 0 56 37 34 30 64 82 45 30 50 61 64 88 63 88 88 88 88 81 30 45 63 57 66 78 68 44 34 47 72 36 38 43 63 48 58 38 32 41 43 63 57 77 21 62 84 71 70 49 45 49 58 88 88 88 88 61 81 88 65 53 55 15 13 2 14 19 24 38 21 0 0 0 0 21 68 88 88 23 13 0 0 0 0 0 0 0 0 0 0 0 0 0 0 0 0 0 0 0 
0 0 0 0 0 0 0 0 0 0 0 0 0 0 0 0 0 0 0 0 0 46 70 77 32 0 0 0 0 0 54 39 39 22 59 81 15 47 55 69 85 88 80 88 88 88 88 88 53 79 64 63 60 64 67 18 50 70 28 56 26 58 53 54 55 58 44 35 48 21 88 65 44 54 74 63 53 37 33 37 83 88 88 88 88 88 81 88 65 50 55 22 6 12 12 21 20 48 22 0 0 0 0 0 52 88 88 88 0 0 0 0 0 0 0 0 0 0 0 0 0 0 0 0 0 0 0 0 
0 0 0 0 0 0 0 0 0 0 0 0 0 0 0 0 0 0 0 19 88 88 88 42 13 0 0 0 0 0 50 44 21 26 30 44 26 50 60 68 88 79 83 88 88 88 88 88 64 70 66 63 62 56 44 35 88 19 31 35 31 53 56 53 57 57 53 32 34 40 26 83 88 19 79 59 48 35 88 66 88 88 88 88 72 57 79 88 86 49 52 38 15 27 36 35 36 42 13 0 0 0 0 0 26 46 88 88 61 0 0 0 0 0 0 0 0 0 0 0 0 0 0 0 0 0 0 0 
0 0 0 0 0 0 0 0 0 0 0 0 0 0 0 0 0 0 0 63 88 88 63 34 0 0 0 0 0 0 33 79 61 39 47 58 46 42 88 76 88 50 57 59 88 88 67 66 8 41 45 52 56 50 50 80 76 31 24 28 32 60 53 54 56 55 52 31 27 33 37 39 88 73 57 57 44 40 88 81 59 88 88 82 63 55 46 88 88 65 44 52 44 49 49 50 50 39 0 0 0 0 0 0 0 30 56 60 54 0 0 0 0 0 0 0 0 0 0 0 0 0 0 0 0 0 0 0 
0 0 0 0 0 0 0 0 0 0 0 0 0 0 0 0 0 0 0 23 48 37 35 0 0 0 0 0 0 0 21 66 52 34 43 39 46 56 65 67 64 51 53 55 88 88 67 88 38 25 48 88 69 58 61 85 88 19 26 26 22 49 47 50 53 51 39 23 29 30 31 54 88 88 58 51 51 35 66 71 36 63 88 74 53 48 52 68 88 65 48 51 61 63 45 42 65 25 0 0 0 0 0 0 0 0 14 16 11 0 0 0 0 0 0 0 0 0 0 0 0 0 0 0 0 0 0 0 
0 0 0 0 0 0 0 0 0 0 0 0 0 0 0 0 0 0 0 0 17 24 0 0 0 0 0 0 0 0 0 64 88 47 43 42 47 53 46 65 46 58 54 60 58 88 88 88 88 54 61 76 62 72 84 88 88 30 23 25 25 28 42 49 56 32 25 21 24 27 20 88 88 88 65 66 58 64 53 88 88 88 88 53 54 53 49 58 71 68 60 68 61 42 59 65 50 12 0 0 0 0 0 0 0 0 0 0 0 0 0 0 0 0 0 0 0 0 0 0 0 0 0 0 0 0 0 0 
0 0 0 0 0 0 0 0 0 0 0 0 0 0 0 0 0 0 0 0 0 0 0 0 0 0 0 0 0 0 0 50 88 62 38 44 45 47 47 58 50 53 51 65 59 74 88 88 88 88 88 88 88 60 63 88 88 63 17 26 23 25 20 22 27 24 24 23 26 24 47 88 88 73 68 50 73 77 68 42 45 50 88 52 52 54 43 55 53 67 34 62 41 40 63 72 26 0 0 0 0 0 0 0 0 0 0 0 0 0 0 0 0 0 0 0 0 0 0 0 0 0 0 0 0 0 0 0 
0 0 0 0 0 0 0 0 0 0 0 0 0 0 0 0 0 0 0 0 0 0 0 0 0 0 0 0 0 0 0 22 88 84 50 43 47 43 48 55 47 53 52 65 62 58 88 82 88 88 88 88 87 77 72 83 88 88 72 19 20 23 26 24 24 26 23 22 23 40 81 88 80 88 41 13 45 88 71 88 88 68 62 52 56 60 63 62 54 78 57 35 49 53 76 44 0 0 0 0 0 0 0 0 0 0 0 0 0 0 0 0 0 0 0 0 0 0 0 0 0 0 0 0 0 0 0 0 
0 0 0 0 0 0 0 0 0 0 0 0 0 0 0 0 0 0 0 0 0 0 0 0 0 0 0 0 0 0 0 13 67 88 51 43 43 45 49 50 48 48 50 58 62 42 88 88 88 88 88 88 88 74 61 57 75 88 88 82 53 26 22 22 23 24 19 28 56 82 79 49 66 47 87 60 26 88 88 88 88 88 66 36 72 83 88 88 72 41 53 50 44 81 84 32 0 0 0 0 0 0 0 0 0 0 0 0 0 0 0 0 0 0 0 0 0 0 0 0 0 0 0 0 0 0 0 0 
0 0 0 0 0 0 0 0 0 0 0 0 0 0 0 0 0 0 0 0 0 0 0 0 0 0 0 0 0 0 0 0 44 88 80 45 48 46 54 51 68 63 59 58 52 53 42 86 66 41 65 88 88 88 88 88 72 60 88 88 58 88 62 36 47 57 77 80 88 88 60 88 88 88 88 88 84 88 88 65 88 70 74 53 67 74 73 53 38 46 48 51 81 88 48 0 0 0 0 0 0 0 0 0 0 0 0 0 0 0 0 0 0 0 0 0 0 0 0 0 0 0 0 0 0 0 0 0 
0 0 0 0 0 0 0 0 0 0 0 0 0 0 0 0 0 0 0 0 0 0 0 0 0 0 0 0 0 0 0 0 19 84 88 83 48 44 43 35 32 38 46 64 54 56 54 74 54 47 37 47 88 88 88 88 88 88 88 87 88 80 57 48 66 87 53 54 88 88 84 77 88 88 88 88 85 60 35 63 81 82 88 88 79 52 56 47 43 50 63 87 88 67 19 0 0 0 0 0 0 0 0 0 0 0 0 0 0 0 0 0 0 0 0 0 0 0 0 0 0 0 0 0 0 0 0 0 
0 0 0 0 0 0 0 0 0 0 0 0 0 0 0 0 0 0 0 0 0 0 0 0 0 0 0 0 0 0 0 0 17 42 88 88 65 51 43 50 39 73 69 50 53 53 45 75 63 47 51 48 54 64 88 88 88 88 56 57 88 82 88 88 71 67 88 83 49 88 88 88 88 88 68 69 66 54 54 66 62 88 71 37 44 72 50 51 53 55 45 88 88 42 0 0 0 0 0 0 0 0 0 0 0 0 0 0 0 0 0 0 0 0 0 0 0 0 0 0 0 0 0 0 0 0 0 0 
0 0 0 0 0 0 0 0 0 0 0 0 0 0 0 0 0 0 0 0 0 0 0 0 0 0 0 0 0 0 0 0 0 22 56 88 88 51 53 39 32 44 23 16 46 53 42 69 73 58 49 44 48 51 65 64 76 63 66 76 66 88 88 78 88 86 66 61 79 74 84 88 87 55 44 53 50 46 54 69 52 41 43 74 88 67 42 50 48 78 88 88 57 18 0 0 0 0 0 0 0 0 0 0 0 0 0 0 0 0 0 0 0 0 0 0 0 0 0 0 0 0 0 0 0 0 0 0 
0 0 0 0 0 0 0 0 0 0 0 0 0 0 0 0 0 0 0 0 0 0 0 0 0 0 0 0 0 0 0 0 0 18 51 80 88 88 53 41 43 47 23 77 44 51 50 53 60 71 53 46 52 52 52 68 79 50 68 63 54 55 88 65 88 88 64 63 60 52 61 47 62 51 53 52 52 53 63 54 53 40 66 88 45 36 47 34 48 84 88 78 29 0 0 0 0 0 0 0 0 0 0 0 0 0 0 0 0 0 0 0 0 0 0 0 0 0 0 0 0 0 0 0 0 0 0 0 
0 0 0 0 0 0 0 0 0 0 0 0 0 0 0 0 0 0 0 0 0 0 0 0 0 0 0 0 0 0 0 0 0 0 20 71 88 88 88 68 45 42 41 37 49 52 49 51 42 74 61 55 49 49 60 66 45 52 55 66 54 64 79 88 88 81 84 63 69 57 47 51 47 47 45 46 48 36 41 50 41 42 46 39 45 40 57 69 88 88 88 44 19 0 0 0 0 0 0 0 0 0 0 0 0 0 0 0 0 0 0 0 0 0 0 0 0 0 0 0 0 0 0 0 0 0 0 0 
0 0 0 0 0 0 0 0 0 0 0 0 0 0 0 0 0 0 0 0 0 0 0 0 0 0 0 0 0 0 0 0 0 0 13 44 82 88 85 83 60 39 41 47 35 49 53 51 48 53 49 61 57 46 48 54 54 52 43 60 69 45 75 88 88 88 86 84 53 51 49 44 45 45 56 45 41 41 45 46 45 45 45 41 45 33 88 88 88 88 62 28 0 0 0 0 0 0 0 0 0 0 0 0 0 0 0 0 0 0 0 0 0 0 0 0 0 0 0 0 0 0 0 0 0 0 0 0 
0 0 0 0 0 0 0 0 0 0 0 0 0 0 0 0 0 0 0 0 0 0 0 0 0 0 0 0 0 0 0 0 0 0 0 21 46 88 88 88 88 42 42 45 38 43 49 49 48 50 54 44 44 60 56 52 53 45 53 50 62 88 88 88 88 88 84 88 58 51 43 46 55 55 51 41 48 47 45 42 45 36 39 42 37 44 88 88 88 74 33 11 0 0 0 0 0 0 0 0 0 0 0 0 0 0 0 0 0 0 0 0 0 0 0 0 0 0 0 0 0 0 0 0 0 0 0 0 
0 0 0 0 0 0 0 0 0 0 0 0 0 0 0 0 0 0 0 0 0 0 0 0 0 0 0 0 0 0 0 0 0 0 0 0 28 58 88 88 88 87 60 40 46 38 46 49 48 46 51 47 44 34 64 57 54 52 43 86 88 88 88 84 67 58 60 81 80 82 88 79 57 35 42 41 47 41 42 48 41 41 38 34 62 88 88 88 75 50 22 0 0 0 0 0 0 0 0 0 0 0 0 0 0 0 0 0 0 0 0 0 0 0 0 0 0 0 0 0 0 0 0 0 0 0 0 0 
0 0 0 0 0 0 0 0 0 0 0 0 0 0 0 0 0 0 0 0 0 0 0 0 0 0 0 0 0 0 0 0 0 0 0 0 0 37 77 88 88 88 88 88 63 43 43 51 46 48 52 46 44 39 34 60 73 73 88 88 45 69 78 65 88 88 88 88 88 71 35 36 36 43 40 52 49 52 45 39 42 41 46 83 88 88 88 83 64 27 0 0 0 0 0 0 0 0 0 0 0 0 0 0 0 0 0 0 0 0 0 0 0 0 0 0 0 0 0 0 0 0 0 0 0 0 0 0 
0 0 0 0 0 0 0 0 0 0 0 0 0 0 0 0 0 0 0 0 0 0 0 0 0 0 0 0 0 0 0 0 0 0 0 0 0 16 40 78 88 88 88 88 88 55 38 43 42 49 51 57 48 48 47 40 35 31 37 80 84 88 67 88 87 88 88 63 26 36 46 41 43 43 48 38 38 46 41 34 50 88 88 88 88 88 88 50 34 0 0 0 0 0 0 0 0 0 0 0 0 0 0 0 0 0 0 0 0 0 0 0 0 0 0 0 0 0 0 0 0 0 0 0 0 0 0 0 
0 0 0 0 0 0 0 0 0 0 0 0 0 0 0 0 0 0 0 0 0 0 0 0 0 0 0 0 0 0 0 0 0 0 0 0 0 0 22 45 83 88 88 88 88 88 71 33 42 45 42 36 36 40 42 43 41 46 40 64 88 88 88 76 87 88 66 33 44 42 44 46 44 45 38 38 44 41 38 55 88 88 88 88 88 88 59 31 0 0 0 0 0 0 0 0 0 0 0 0 0 0 0 0 0 0 0 0 0 0 0 0 0 0 0 0 0 0 0 0 0 0 0 0 0 0 0 0 
0 0 0 0 0 0 0 0 0 0 0 0 0 0 0 0 0 0 0 0 0 0 0 0 0 0 0 0 0 0 0 0 0 0 0 0 0 0 0 26 47 74 88 88 88 88 88 72 40 40 44 41 41 42 43 42 43 45 40 42 26 49 72 61 32 29 48 44 39 47 46 43 43 42 41 45 43 44 64 88 88 88 88 88 88 55 27 13 0 0 0 0 0 0 0 0 0 0 0 0 0 0 0 0 0 0 0 0 0 0 0 0 0 0 0 0 0 0 0 0 0 0 0 0 0 0 0 0 
0 0 0 0 0 0 0 0 0 0 0 0 0 0 0 0 0 0 0 0 0 0 0 0 0 0 0 0 0 0 0 0 0 0 0 0 0 0 0 0 28 47 82 81 88 88 88 88 88 53 42 44 44 45 41 43 44 42 41 36 38 50 53 49 38 42 44 46 41 42 43 43 44 46 43 41 55 76 88 88 88 88 88 77 47 33 13 0 0 0 0 0 0 0 0 0 0 0 0 0 0 0 0 0 0 0 0 0 0 0 0 0 0 0 0 0 0 0 0 0 0 0 0 0 0 0 0 0 
0 0 0 0 0 0 0 0 0 0 0 0 0 0 0 0 0 0 0 0 0 0 0 0 0 0 0 0 0 0 0 0 0 0 0 0 0 0 0 0 0 27 40 88 88 88 88 88 88 88 76 52 49 46 49 46 42 47 43 39 39 44 28 51 50 48 47 44 49 46 48 46 43 39 53 71 88 88 88 88 88 88 66 46 31 14 0 0 0 0 0 0 0 0 0 0 0 0 0 0 0 0 0 0 0 0 0 0 0 0 0 0 0 0 0 0 0 0 0 0 0 0 0 0 0 0 0 0 
0 0 0 0 0 0 0 0 0 0 0 0 0 0 0 0 0 0 0 0 0 0 0 0 0 0 0 0 0 0 0 0 0 0 0 0 0 0 0 0 0 0 30 42 55 84 88 88 88 88 88 88 82 64 64 80 55 41 53 53 35 66 40 33 56 65 66 60 33 26 28 38 63 88 88 88 88 88 88 88 88 72 50 30 11 0 0 0 0 0 0 0 0 0 0 0 0 0 0 0 0 0 0 0 0 0 0 0 0 0 0 0 0 0 0 0 0 0 0 0 0 0 0 0 0 0 0 0 
0 0 0 0 0 0 0 0 0 0 0 0 0 0 0 0 0 0 0 0 0 0 0 0 0 0 0 0 0 0 0 0 0 0 0 0 0 0 0 0 0 0 0 25 43 43 66 88 88 88 88 88 88 88 88 88 88 88 73 88 39 88 88 72 88 88 88 88 88 88 85 88 88 88 88 88 88 88 88 79 45 39 28 0 0 0 0 0 0 0 0 0 0 0 0 0 0 0 0 0 0 0 0 0 0 0 0 0 0 0 0 0 0 0 0 0 0 0 0 0 0 0 0 0 0 0 0 0 
0 0 0 0 0 0 0 0 0 0 0 0 0 0 0 0 0 0 0 0 0 0 0 0 0 0 0 0 0 0 0 0 0 0 0 0 0 0 0 0 0 0 0 0 17 35 35 43 79 88 88 88 88 88 88 88 88 88 88 88 88 88 88 88 88 88 88 88 88 88 88 88 88 88 88 88 88 84 51 38 38 20 0 0 0 0 0 0 0 0 0 0 0 0 0 0 0 0 0 0 0 0 0 0 0 0 0 0 0 0 0 0 0 0 0 0 0 0 0 0 0 0 0 0 0 0 0 0 
0 0 0 0 0 0 0 0 0 0 0 0 0 0 0 0 0 0 0 0 0 0 0 0 0 0 0 0 0 0 0 0 0 0 0 0 0 0 0 0 0 0 0 0 0 0 25 36 31 41 72 88 88 88 88 88 88 88 88 88 88 88 88 88 88 88 88 88 88 88 88 88 88 88 88 62 51 37 37 29 13 0 0 0 0 0 0 0 0 0 0 0 0 0 0 0 0 0 0 0 0 0 0 0 0 0 0 0 0 0 0 0 0 0 0 0 0 0 0 0 0 0 0 0 0 0 0 0 
0 0 0 0 0 0 0 0 0 0 0 0 0 0 0 0 0 0 0 0 0 0 0 0 0 0 0 0 0 0 0 0 0 0 0 0 0 0 0 0 0 0 0 0 0 0 0 15 29 30 32 36 46 67 88 88 88 88 88 88 88 88 88 88 88 88 88 88 88 88 88 74 55 41 40 39 29 29 19 0 0 0 0 0 0 0 0 0 0 0 0 0 0 0 0 0 0 0 0 0 0 0 0 0 0 0 0 0 0 0 0 0 0 0 0 0 0 0 0 0 0 0 0 0 0 0 0 0 
0 0 0 0 0 0 0 0 0 0 0 0 0 0 0 0 0 0 0 0 0 0 0 0 0 0 0 0 0 0 0 0 0 0 0 0 0 0 0 0 0 0 0 0 0 0 0 0 0 12 23 29 31 30 29 33 43 46 58 64 69 59 62 59 54 49 47 39 34 31 33 31 33 30 30 23 16 0 0 0 0 0 0 0 0 0 0 0 0 0 0 0 0 0 0 0 0 0 0 0 0 0 0 0 0 0 0 0 0 0 0 0 0 0 0 0 0 0 0 0 0 0 0 0 0 0 0 0 
0 0 0 0 0 0 0 0 0 0 0 0 0 0 0 0 0 0 0 0 0 0 0 0 0 0 0 0 0 0 0 0 0 0 0 0 0 0 0 0 0 0 0 0 0 0 0 0 0 0 0 0 19 26 30 32 31 33 33 36 31 35 33 31 35 35 33 35 34 37 31 30 23 15 0 0 0 0 0 0 0 0 0 0 0 0 0 0 0 0 0 0 0 0 0 0 0 0 0 0 0 0 0 0 0 0 0 0 0 0 0 0 0 0 0 0 0 0 0 0 0 0 0 0 0 0 0 0 
0 0 0 0 0 0 0 0 0 0 0 0 0 0 0 0 0 0 0 0 0 0 0 0 0 0 0 0 0 0 0 0 0 0 0 0 0 0 0 0 0 0 0 0 0 0 0 0 0 0 0 0 0 0 0 0 15 21 28 28 31 28 29 30 30 28 24 19 14 0 0 0 0 0 0 0 0 0 0 0 0 0 0 0 0 0 0 0 0 0 0 0 0 0 0 0 0 0 0 0 0 0 0 0 0 0 0 0 0 0 0 0 0 0 0 0 0 0 0 0 0 0 0 0 0 0 0 0 
0 0 0 0 0 0 0 0 0 0 0 0 0 0 0 0 0 0 0 0 0 0 0 0 0 0 0 0 0 0 0 0 0 0 0 0 0 0 0 0 0 0 0 0 0 0 0 0 0 0 0 0 0 0 0 0 0 0 0 0 0 0 0 0 0 0 0 0 0 0 0 0 0 0 0 0 0 0 0 0 0 0 0 0 0 0 0 0 0 0 0 0 0 0 0 0 0 0 0 0 0 0 0 0 0 0 0 0 0 0 0 0 0 0 0 0 0 0 0 0 0 0 0 0 0 0 0 0 
0 0 0 0 0 0 0 0 0 0 0 0 0 0 0 0 0 0 0 0 0 0 0 0 0 0 0 0 0 0 0 0 0 0 0 0 0 0 0 0 0 0 0 0 0 0 0 0 0 0 0 0 0 0 0 0 0 0 0 0 0 0 0 0 0 0 0 0 0 0 0 0 0 0 0 0 0 0 0 0 0 0 0 0 0 0 0 0 0 0 0 0 0 0 0 0 0 0 0 0 0 0 0 0 0 0 0 0 0 0 0 0 0 0 0 0 0 0 0 0 0 0 0 0 0 0 0 0 
0 0 0 0 0 0 0 0 0 0 0 0 0 0 0 0 0 0 0 0 0 0 0 0 0 0 0 0 0 0 0 0 0 0 0 0 0 0 0 0 0 0 0 0 0 0 0 0 0 0 0 0 0 0 0 0 0 0 0 0 0 0 0 0 0 0 0 0 0 0 0 0 0 0 0 0 0 0 0 0 0 0 0 0 0 0 0 0 0 0 0 0 0 0 0 0 0 0 0 0 0 0 0 0 0 0 0 0 0 0 0 0 0 0 0 0 0 0 0 0 0 0 0 0 0 0 0 0 
0 0 0 0 0 0 0 0 0 0 0 0 0 0 0 0 0 0 0 0 0 0 0 0 0 0 0 0 0 0 0 0 0 0 0 0 0 0 0 0 0 0 0 0 0 0 0 0 0 0 0 0 0 0 0 0 0 0 0 0 0 0 0 0 0 0 0 0 0 0 0 0 0 0 0 0 0 0 0 0 0 0 0 0 0 0 0 0 0 0 0 0 0 0 0 0 0 0 0 0 0 0 0 0 0 0 0 0 0 0 0 0 0 0 0 0 0 0 0 0 0 0 0 0 0 0 0 0 
0 0 0 0 0 0 0 0 0 0 0 0 0 0 0 0 0 0 0 0 0 0 0 0 0 0 0 0 0 0 0 0 0 0 0 0 0 0 0 0 0 0 0 0 0 0 0 0 0 0 0 0 0 0 0 0 0 0 0 0 0 0 0 0 0 0 0 0 0 0 0 0 0 0 0 0 0 0 0 0 0 0 0 0 0 0 0 0 0 0 0 0 0 0 0 0 0 0 0 0 0 0 0 0 0 0 0 0 0 0 0 0 0 0 0 0 0 0 0 0 0 0 0 0 0 0 0 0 
0 0 0 0 0 0 0 0 0 0 0 0 0 0 0 0 0 0 0 0 0 0 0 0 0 0 0 0 0 0 0 0 0 0 0 0 0 0 0 0 0 0 0 0 0 0 0 0 0 0 0 0 0 0 0 0 0 0 0 0 0 0 0 0 0 0 0 0 0 0 0 0 0 0 0 0 0 0 0 0 0 0 0 0 0 0 0 0 0 0 0 0 0 0 0 0 0 0 0 0 0 0 0 0 0 0 0 0 0 0 0 0 0 0 0 0 0 0 0 0 0 0 0 0 0 0 0 0 
0 0 0 0 0 0 0 0 0 0 0 0 0 0 0 0 0 0 0 0 0 0 0 0 0 0 0 0 0 0 0 0 0 0 0 0 0 0 0 0 0 0 0 0 0 0 0 0 0 0 0 0 0 0 0 0 0 0 0 0 0 0 0 0 0 0 0 0 0 0 0 0 0 0 0 0 0 0 0 0 0 0 0 0 0 0 0 0 0 0 0 0 0 0 0 0 0 0 0 0 0 0 0 0 0 0 0 0 0 0 0 0 0 0 0 0 0 0 0 0 0 0 0 0 0 0 0 0 
0 0 0 0 0 0 0 0 0 0 0 0 0 0 0 0 0 0 0 0 0 0 0 0 0 0 0 0 0 0 0 0 0 0 0 0 0 0 0 0 0 0 0 0 0 0 0 0 0 0 0 0 0 0 0 0 0 0 0 0 0 0 0 0 0 0 0 0 0 0 0 0 0 0 0 0 0 0 0 0 0 0 0 0 0 0 0 0 0 0 0 0 0 0 0 0 0 0 0 0 0 0 0 0 0 0 0 0 0 0 0 0 0 0 0 0 0 0 0 0 0 0 0 0 0 0 0 0 
