P2
128 128
88
0 0 0 0 0 0 0 0 0 0 0 0 0 0 0 0 0 0 0 0 0 0 0 0 0 0 0 0 0 0 0 0 0 0 0 0 0 0 0 0 0 0 0 0 0 0 0 0 0 0 0 0 0 0 0 0 0 0 0 0 0 0 0 0 0 0 0 0 0 0 0 0 0 0 0 0 0 0 0 0 0 0 0 0 0 0 0 0 0 0 0 0 0 0 0 0 0 0 0 0 0 0 0 0 0 0 0 0 0 0 0 0 0 0 0 0 0 0 0 0 0 0 0 0 0 0 0 0 
0 0 0 0 0 0 0 0 0 0 0 0 0 0 0 0 0 0 0 0 0 0 0 0 0 0 0 0 0 0 0 0 0 0 0 0 0 0 0 0 0 0 0 0 0 0 0 0 0 0 0 0 0 0 0 0 0 0 0 0 0 0 0 0 0 0 0 0 0 0 0 0 0 0 0 0 0 0 0 0 0 0 0 0 0 0 0 0 0 0 0 0 0 0 0 0 0 0 0 0 0 0 0 0 0 0 0 0 0 0 0 0 0 0 0 0 0 0 0 0 0 0 0 0 0 0 0 0 
0 0 0 0 0 0 0 0 0 0 0 0 0 0 0 0 0 0 0 0 0 0 0 0 0 0 0 0 0 0 0 0 0 0 0 0 0 0 0 0 0 0 0 0 0 0 0 0 0 0 0 0 0 0 0 0 0 0 0 0 0 0 0 0 0 0 0 0 0 0 0 0 0 0 0 0 0 0 0 0 0 0 0 0 0 0 0 0 0 0 0 0 0 0 0 0 0 0 0 0 0 0 0 0 0 0 0 0 0 0 0 0 0 0 0 0 0 0 0 0 0 0 0 0 0 0 0 0 
0 0 0 0 0 0 0 0 0 0 0 0 0 0 0 0 0 0 0 0 0 0 0 0 0 0 0 0 0 0 0 0 0 0 0 0 0 0 0 0 0 0 0 0 0 0 0 0 0 0 0 0 0 0 0 0 0 0 0 0 0 0 0 0 0 0 0 0 0 0 0 0 0 0 0 0 0 0 0 0 0 0 0 0 0 0 0 0 0 0 0 0 0 0 0 0 0 0 0 0 0 0 0 0 0 0 0 0 0 0 0 0 0 0 0 0 0 0 0 0 0 0 0 0 0 0 0 0 
0 0 0 0 0 0 0 0 0 0 0 0 0 0 0 0 0 0 0 0 0 0 0 0 0 0 0 0 0 0 0 0 0 0 0 0 0 0 0 0 0 0 0 0 0 0 0 0 0 0 0 0 0 0 0 0 0 0 0 0 0 0 0 0 0 0 0 0 0 0 0 0 0 0 0 0 0 0 0 0 0 0 0 0 0 0 0 0 0 0 0 0 0 0 0 0 0 0 0 0 0 0 0 0 0 0 0 0 0 0 0 0 0 0 0 0 0 0 0 0 0 0 0 0 0 0 0 0 
0 0 0 0 0 0 0 0 0 0 0 0 0 0 0 0 0 0 0 0 0 0 0 0 0 0 0 0 0 0 0 0 0 0 0 0 0 0 0 0 0 0 0 0 0 0 0 0 0 0 0 0 0 0 0 0 0 0 0 0 0 0 0 0 0 0 0 0 0 0 0 0 0 0 0 0 0 0 0 0 0 0 0 0 0 0 0 0 0 0 0 0 0 0 0 0 0 0 0 0 0 0 0 0 0 0 0 0 0 0 0 0 0 0 0 0 0 0 0 0 0 0 0 0 0 0 0 0 
0 0 0 0 0 0 0 0 0 0 0 0 0 0 0 0 0 0 0 0 0 0 0 0 0 0 0 0 0 0 0 0 0 0 0 0 0 0 0 0 0 0 0 0 0 0 0 0 0 0 0 0 0 0 0 0 0 0 0 0 0 0 0 0 0 0 0 0 0 0 0 0 0 0 0 0 0 0 0 0 0 0 0 0 0 0 0 0 0 0 0 0 0 0 0 0 0 0 0 0 0 0 0 0 0 0 0 0 0 0 0 0 0 0 0 0 0 0 0 0 0 0 0 0 0 0 0 0 
0 0 0 0 0 0 0 0 0 0 0 0 0 0 0 0 0 0 0 0 0 0 0 0 0 0 0 0 0 0 0 0 0 0 0 0 0 0 0 0 0 0 0 0 0 0 0 0 0 0 0 0 0 0 0 0 0 0 0 0 0 0 0 0 0 0 0 0 0 0 0 0 0 0 0 0 0 0 0 0 0 0 0 0 0 0 0 0 0 0 0 0 0 0 0 0 0 0 0 0 0 0 0 0 0 0 0 0 0 0 0 0 0 0 0 0 0 0 0 0 0 0 0 0 0 0 0 0 
0 0 0 0 0 0 0 0 0 0 0 0 0 0 0 0 0 0 0 0 0 0 0 0 0 0 0 0 0 0 0 0 0 0 0 0 0 0 0 0 0 0 0 0 0 0 0 0 0 0 0 0 0 0 0 0 0 0 0 0 0 0 0 0 0 0 0 0 0 0 0 0 0 0 0 0 0 0 0 0 0 0 0 0 0 0 0 0 0 0 0 0 0 0 0 0 0 0 0 0 0 0 0 0 0 0 0 0 0 0 0 0 0 0 0 0 0 0 0 0 0 0 0 0 0 0 0 0 
0 0 0 0 0 0 0 0 0 0 0 0 0 0 0 0 0 0 0 0 0 0 0 0 0 0 0 0 0 0 0 0 0 0 0 0 0 0 0 0 0 0 0 0 0 0 0 0 0 0 0 0 0 0 0 0 0 0 0 0 0 0 0 0 0 0 0 0 0 0 0 0 0 0 0 0 0 0 0 0 0 0 0 0 0 0 0 0 0 0 0 0 0 0 0 0 0 0 0 0 0 0 0 0 0 0 0 0 0 0 0 0 0 0 0 0 0 0 0 0 0 0 0 0 0 0 0 0 
0 0 0 0 0 0 0 0 0 0 0 0 0 0 0 0 0 0 0 0 0 0 0 0 0 0 0 0 0 0 0 0 0 0 0 0 0 0 0 0 0 0 0 0 0 0 0 0 0 0 0 0 0 0 0 0 0 0 0 0 0 0 0 0 0 0 0 0 0 0 0 0 0 0 0 0 0 0 0 0 0 0 0 0 0 0 0 0 0 0 0 0 0 0 0 0 0 0 0 0 0 0 0 0 0 0 0 0 0 0 0 0 0 0 0 0 0 0 0 0 0 0 0 0 0 0 0 0 
0 0 0 0 0 0 0 0 0 0 0 0 0 0 0 0 0 0 0 0 0 0 0 0 0 0 0 0 0 0 0 0 0 0 0 0 0 0 0 0 0 0 0 0 0 0 0 0 0 0 0 0 0 0 0 0 0 0 0 0 0 0 0 0 0 0 0 0 0 0 0 0 0 0 0 0 0 0 0 0 0 0 0 0 0 0 0 0 0 0 0 0 0 0 0 0 0 0 0 0 0 0 0 0 0 0 0 0 0 0 0 0 0 0 0 0 0 0 0 0 0 0 0 0 0 0 0 0 
0 0 0 0 0 0 0 0 0 0 0 0 0 0 0 0 0 0 0 0 0 0 0 0 0 0 0 0 0 0 0 0 0 0 0 0 0 0 0 0 0 0 0 0 0 0 0 0 0 0 0 0 0 0 0 0 0 0 0 0 0 0 0 0 0 0 0 0 0 0 0 0 0 0 0 0 0 0 0 0 0 0 0 0 0 0 0 0 0 0 0 0 0 0 0 0 0 0 0 0 0 0 0 0 0 0 0 0 0 0 0 0 0 0 0 0 0 0 0 0 0 0 0 0 0 0 0 0 
0 0 0 0 0 0 0 0 0 0 0 0 0 0 0 0 0 0 0 0 0 0 0 0 0 0 0 0 0 0 0 0 0 0 0 0 0 0 0 0 0 0 0 0 0 0 0 0 0 0 0 0 0 0 0 0 0 0 0 0 0 0 0 0 0 0 0 0 0 0 0 0 0 0 0 0 0 0 0 0 0 0 0 0 0 0 0 0 0 0 0 0 0 0 0 0 0 0 0 0 0 0 0 0 0 0 0 0 0 0 0 0 0 0 0 0 0 0 0 0 0 0 0 0 0 0 0 0 
0 0 0 0 0 0 0 0 0 0 0 0 0 0 0 0 0 0 0 0 0 0 0 0 0 0 0 0 0 0 0 0 0 0 0 0 0 0 0 0 0 0 0 0 0 0 0 0 0 0 0 0 0 0 0 0 0 0 0 0 0 0 0 0 0 0 0 0 0 0 0 0 0 0 0 0 0 0 0 0 0 0 0 0 0 0 0 0 0 0 0 0 0 0 0 0 0 0 0 0 0 0 0 0 0 0 0 0 0 0 0 0 0 0 0 0 0 0 0 0 0 0 0 0 0 0 0 0 
0 0 0 0 0 0 0 0 0 0 0 0 0 0 0 0 0 0 0 0 0 0 0 0 0 0 0 0 0 0 0 0 0 0 0 0 0 0 0 0 0 0 0 0 0 0 0 0 0 0 0 0 0 0 0 0 0 0 0 0 0 0 0 0 0 0 0 0 0 0 0 0 0 0 0 0 0 0 0 0 0 0 0 0 0 0 0 0 0 0 0 0 0 0 0 0 0 0 0 0 0 0 0 0 0 0 0 0 0 0 0 0 0 0 0 0 0 0 0 0 0 0 0 0 0 0 0 0 
0 0 0 0 0 0 0 0 0 0 0 0 0 0 0 0 0 0 0 0 0 0 0 0 0 0 0 0 0 0 0 0 0 0 0 0 0 0 0 0 0 0 0 0 0 0 0 0 0 0 0 0 0 0 0 0 0 0 0 0 0 0 0 0 0 0 0 0 0 0 0 0 0 0 0 0 0 0 0 0 0 0 0 0 0 0 0 0 0 0 0 0 0 0 0 0 0 0 0 0 0 0 0 0 0 0 0 0 0 0 0 0 0 0 0 0 0 0 0 0 0 0 0 0 0 0 0 0 
0 0 0 0 0 0 0 0 0 0 0 0 0 0 0 0 0 0 0 0 0 0 0 0 0 0 0 0 0 0 0 0 0 0 0 0 0 0 0 0 0 0 0 0 0 0 0 0 0 0 0 0 0 0 0 0 0 0 0 0 0 0 0 0 0 0 0 0 0 0 0 0 0 0 0 0 0 0 0 0 0 0 0 0 0 0 0 0 0 0 0 0 0 0 0 0 0 0 0 0 0 0 0 0 0 0 0 0 0 0 0 0 0 0 0 0 0 0 0 0 0 0 0 0 0 0 0 0 
0 0 0 0 0 0 0 0 0 0 0 0 0 0 0 0 0 0 0 0 0 0 0 0 0 0 0 0 0 0 0 0 0 0 0 0 0 0 0 0 0 0 0 0 0 0 0 0 0 0 0 0 0 0 0 0 0 0 0 0 0 0 0 0 0 0 0 0 0 0 0 0 0 0 0 0 0 0 0 0 0 0 0 0 0 0 0 0 0 0 0 0 0 0 0 0 0 0 0 0 0 0 0 0 0 0 0 0 0 0 0 0 0 0 0 0 0 0 0 0 0 0 0 0 0 0 0 0 
0 0 0 0 0 0 0 0 0 0 0 0 0 0 0 0 0 0 0 0 0 0 0 0 0 0 0 0 0 0 0 0 0 0 0 0 0 0 0 0 0 0 0 0 0 0 0 0 0 0 0 0 0 0 0 0 0 0 0 0 0 0 0 0 0 0 0 0 0 0 0 0 0 0 0 0 0 0 0 0 0 0 0 0 0 0 0 0 0 0 0 0 0 0 0 0 0 0 0 0 0 0 0 0 0 0 0 0 0 0 0 0 0 0 0 0 0 0 0 0 0 0 0 0 0 0 0 0 
0 0 0 0 0 0 0 0 0 0 0 0 0 0 0 0 0 0 0 0 0 0 0 0 0 0 0 0 0 0 0 0 0 0 0 0 0 0 0 0 0 0 0 0 0 0 0 0 0 0 0 0 0 0 0 0 0 0 0 0 0 0 0 0 0 0 0 0 0 0 0 0 0 0 0 0 0 0 0 0 0 0 0 0 0 0 0 0 0 0 0 0 0 0 0 0 0 0 0 0 0 0 0 0 0 0 0 0 0 0 0 0 0 0 0 0 0 0 0 0 0 0 0 0 0 0 0 0 
0 0 0 0 0 0 0 0 0 0 0 0 0 0 0 0 0 0 0 0 0 0 0 0 0 0 0 0 0 0 0 0 0 0 0 0 0 0 0 0 0 0 0 0 0 0 0 0 0 0 0 0 0 0 0 0 0 0 0 0 0 27 88 88 88 88 30 0 0 0 0 0 0 0 0 0 0 0 0 0 0 0 0 0 0 0 0 0 0 0 0 0 0 0 0 0 0 0 0 0 0 0 0 0 0 0 0 0 0 0 0 0 0 0 0 0 0 0 0 0 0 0 0 0 0 0 0 0 
0 0 0 0 0 0 0 0 0 0 0 0 0 0 0 0 0 0 0 0 0 0 0 0 0 0 0 0 0 0 0 0 0 0 0 0 0 0 0 0 0 0 0 0 0 0 0 0 0 0 0 0 0 0 0 0 0 0 0 0 47 88 88 49 58 88 88 44 0 0 0 0 0 0 0 0 0 0 0 0 0 0 0 0 0 0 0 0 0 0 0 0 0 0 0 0 0 0 0 0 0 0 0 0 0 0 0 0 0 0 0 0 0 0 0 0 0 0 0 0 0 0 0 0 0 0 0 0 
0 0 0 0 0 0 0 0 0 0 0 0 0 0 0 0 0 0 0 0 0 0 0 0 0 0 0 0 0 0 0 0 0 0 0 0 0 0 0 0 0 0 0 0 0 0 0 0 0 0 0 0 0 0 0 0 0 0 0 21 88 88 42 62 31 44 88 88 23 0 0 0 0 0 0 0 0 0 0 0 0 0 0 0 0 0 0 0 0 0 0 0 0 0 0 0 0 0 0 0 0 0 0 0 0 0 0 0 0 0 0 0 0 0 0 0 0 0 0 0 0 0 0 0 0 0 0 0 
0 0 0 0 0 0 0 0 0 0 0 0 0 0 0 0 0 0 0 0 0 0 0 0 0 0 0 0 0 0 0 0 0 0 0 0 0 0 0 0 0 0 0 0 0 0 0 0 0 0 0 0 0 0 0 0 0 0 0 88 88 42 85 59 88 70 52 88 88 15 0 0 0 0 0 0 0 0 0 0 0 0 0 0 0 0 0 0 0 0 0 0 0 0 0 0 0 0 0 0 0 0 0 0 0 0 0 0 0 0 0 0 0 0 0 0 0 0 0 0 0 0 0 0 0 0 0 0 
0 0 0 0 0 0 0 0 0 0 0 0 0 0 0 0 0 0 0 0 0 0 0 0 0 0 0 0 0 0 0 0 0 0 0 0 0 0 0 0 0 0 0 0 0 0 0 0 0 0 0 0 0 0 0 0 0 0 30 87 39 78 51 55 88 75 88 52 88 37 0 0 0 0 0 0 0 0 0 0 0 0 0 0 0 0 0 0 0 0 0 0 0 0 0 0 0 0 0 0 0 0 0 0 0 0 0 0 0 0 0 0 0 0 0 0 0 0 0 0 0 0 0 0 0 0 0 0 
0 0 0 0 0 0 0 0 0 0 0 0 0 0 0 0 0 0 0 0 0 0 0 0 0 0 0 0 0 0 0 0 0 0 0 0 0 0 0 0 0 0 0 0 0 0 0 0 0 0 0 0 0 0 0 0 0 13 78 67 49 57 64 49 88 66 88 39 53 70 14 0 0 0 0 0 0 0 0 0 0 0 0 0 0 0 0 0 0 0 0 0 0 0 0 0 0 0 0 0 0 0 0 0 0 0 0 0 0 0 0 0 0 0 0 0 0 0 0 0 0 0 0 0 0 0 0 0 
0 0 0 0 0 0 0 0 0 0 0 0 0 0 0 0 0 0 0 0 0 0 0 0 0 0 0 0 0 0 0 0 0 0 0 0 0 0 0 0 0 0 0 0 0 0 0 0 0 0 0 0 0 0 0 0 0 51 88 74 52 53 78 71 88 73 88 35 64 88 57 0 0 0 0 0 0 0 0 0 0 0 0 0 0 0 0 0 0 0 0 0 0 0 0 0 0 0 0 0 0 0 0 0 0 0 0 0 0 0 0 0 0 0 0 0 0 0 0 0 0 0 0 0 0 0 0 0 
0 0 0 0 0 0 0 0 0 0 0 0 0 0 0 0 0 0 0 0 0 0 0 0 0 0 0 0 0 0 0 0 0 0 0 0 0 0 0 0 0 0 0 0 0 0 0 13 11 14 0 0 0 0 0 0 48 76 88 28 88 40 78 80 88 84 88 88 30 88 88 47 0 0 0 0 0 0 0 0 0 0 0 0 0 0 0 0 0 0 0 0 0 0 0 0 0 0 0 0 0 0 0 0 0 0 0 0 0 0 0 0 0 0 0 0 0 0 0 0 0 0 0 0 0 0 0 0 
0 0 0 0 0 0 0 0 0 0 0 0 0 0 0 0 0 0 0 0 0 0 0 0 0 0 0 0 0 0 0 0 0 0 0 0 0 0 0 0 0 0 0 0 0 14 40 58 61 61 63 56 37 15 29 58 65 82 40 14 88 59 70 88 88 88 88 88 21 80 88 76 53 0 0 0 13 16 13 15 0 0 0 0 0 0 0 0 0 0 0 0 0 0 0 0 0 0 0 0 0 0 0 0 0 0 0 0 0 0 0 0 0 0 0 0 0 0 0 0 0 0 0 0 0 0 0 0 
0 0 0 0 0 0 0 0 0 0 0 0 0 0 0 0 0 0 0 0 0 0 0 0 0 0 0 0 0 0 0 0 0 0 0 0 0 0 0 0 0 0 0 0 43 64 63 70 68 69 71 76 74 65 68 83 88 59 45 23 88 59 64 88 88 88 88 88 53 11 88 88 74 78 70 72 68 62 54 52 45 40 24 0 0 0 0 0 0 0 0 0 0 0 0 0 0 0 0 0 0 0 0 0 0 0 0 0 0 0 0 0 0 0 0 0 0 0 0 0 0 0 0 0 0 0 0 0 
0 0 0 0 0 0 0 0 0 0 0 0 0 0 0 0 0 0 0 0 0 0 0 0 0 0 0 0 0 0 0 0 0 0 0 0 0 0 0 0 0 0 17 56 69 75 72 59 51 53 62 67 82 88 88 88 73 88 52 17 86 56 67 88 88 88 79 88 48 29 56 82 88 88 81 74 72 73 76 80 76 67 58 38 13 0 0 0 0 0 0 0 0 0 0 0 0 0 0 0 0 0 0 0 0 0 0 0 0 0 0 0 0 0 0 0 0 0 0 0 0 0 0 0 0 0 0 0 
0 0 0 0 0 0 0 0 0 0 0 0 0 0 0 0 0 0 0 0 0 0 0 0 0 0 0 0 0 0 0 0 0 0 0 0 0 0 0 0 0 17 62 71 63 49 42 42 46 48 52 54 58 66 83 88 88 81 88 18 80 82 66 88 88 88 70 88 39 45 48 88 88 88 66 63 62 62 56 57 56 60 73 69 42 0 0 0 0 0 0 0 0 0 0 0 0 0 0 0 0 0 0 0 0 0 0 0 0 0 0 0 0 0 0 0 0 0 0 0 0 0 0 0 0 0 0 0 
0 0 0 0 0 0 0 0 0 0 0 0 0 0 0 0 0 0 0 0 0 0 0 0 0 0 0 0 0 0 0 0 0 0 0 0 0 0 0 0 15 66 66 61 46 45 37 35 35 39 46 53 63 77 88 88 88 83 84 36 75 88 60 88 88 88 88 84 64 57 88 88 88 88 88 76 66 55 51 51 54 57 58 59 71 51 0 0 0 0 0 0 0 0 0 0 0 0 0 0 0 0 0 0 0 0 0 0 0 0 0 0 0 0 0 0 0 0 0 0 0 0 0 0 0 0 0 0 
0 0 0 0 0 0 0 0 0 0 0 0 0 0 0 0 0 0 0 0 0 0 0 0 0 0 0 0 0 0 0 0 0 0 0 0 0 0 0 21 70 60 67 59 49 40 32 31 32 33 39 46 52 75 88 88 88 88 64 66 88 87 76 88 88 69 88 81 72 88 88 88 88 88 88 75 65 60 57 48 45 50 56 64 58 68 77 0 0 0 0 0 0 0 0 0 0 0 0 0 0 0 0 0 0 0 0 0 0 0 0 0 0 0 0 0 0 0 0 0 0 0 0 0 0 0 0 0 
0 0 0 0 0 0 0 0 0 0 0 0 0 0 0 0 0 0 0 0 0 0 0 0 0 0 0 0 0 0 0 0 0 0 0 0 0 0 33 78 66 80 71 59 49 35 26 30 25 29 31 43 60 67 88 77 88 88 61 81 88 80 77 88 88 73 88 88 79 88 64 88 88 88 88 88 59 63 44 52 49 53 56 63 73 88 57 88 30 0 0 0 0 0 0 0 0 0 0 0 0 0 0 0 0 0 0 0 0 0 0 0 0 0 0 0 0 0 0 0 0 0 0 0 0 0 0 0 
0 0 0 0 0 0 0 0 0 0 0 0 0 0 0 0 0 0 0 0 0 0 0 0 0 0 0 0 0 0 0 0 0 0 0 0 0 56 87 66 88 88 84 65 47 32 31 27 26 29 38 48 65 88 88 88 88 88 73 88 88 87 51 88 88 84 88 88 88 88 25 88 88 88 88 88 88 69 49 45 44 52 64 81 87 81 88 88 88 88 12 0 0 0 0 0 0 0 0 0 0 0 0 0 0 0 0 0 0 0 0 0 0 0 0 0 0 0 0 0 0 0 0 0 0 0 0 0 
0 0 0 0 0 0 0 0 0 0 0 0 0 0 0 0 0 0 0 0 0 0 0 0 0 0 0 0 0 0 0 0 0 0 0 0 83 88 86 79 88 88 88 88 44 31 34 35 29 35 47 66 88 88 88 88 88 88 43 85 79 88 45 88 88 81 88 88 88 62 33 88 88 88 88 88 88 87 64 50 50 43 61 88 88 88 88 88 88 67 88 4 0 0 0 0 0 0 0 0 0 0 0 0 0 0 0 0 0 0 0 0 0 0 0 0 0 0 0 0 0 0 0 0 0 0 0 0 
0 0 0 0 0 0 0 0 0 0 0 0 0 0 0 0 0 0 0 0 0 0 0 0 0 0 0 0 0 0 0 0 0 0 0 80 88 83 88 46 51 88 88 87 72 52 43 41 47 53 62 88 88 88 88 88 81 64 37 81 74 81 45 88 88 75 88 88 88 88 88 84 88 88 88 88 88 88 86 65 66 64 49 88 88 88 88 45 87 88 82 88 30 0 0 0 0 0 0 0 0 0 0 0 0 0 0 0 0 0 0 0 0 0 0 0 0 0 0 0 0 0 0 0 0 0 0 0 
0 0 0 0 0 0 0 0 0 0 0 0 0 0 0 0 0 0 0 0 0 0 0 0 0 0 0 0 0 0 0 0 0 0 71 88 61 88 28 54 33 52 88 88 88 88 71 61 80 83 88 85 88 88 88 88 63 56 33 77 61 88 45 88 88 61 88 88 88 75 34 42 75 88 88 88 88 88 88 88 77 88 88 88 88 88 45 27 42 88 88 88 88 36 0 0 0 0 0 0 0 0 0 0 0 0 0 0 0 0 0 0 0 0 0 0 0 0 0 0 0 0 0 0 0 0 0 0 
0 0 0 0 0 0 0 0 0 0 0 0 0 0 0 0 0 0 0 0 0 0 0 0 0 0 0 0 0 0 0 0 0 52 88 88 88 78 29 87 79 35 82 88 88 88 88 88 88 88 88 88 88 88 84 55 69 83 34 73 57 88 50 88 88 88 88 79 71 63 47 54 17 83 88 88 88 88 88 88 88 88 88 88 88 88 48 88 59 57 88 78 88 88 20 0 0 0 0 0 0 0 0 0 0 0 0 0 0 0 0 0 0 0 0 0 0 0 0 0 0 0 0 0 0 0 0 0 
0 0 0 0 0 0 0 0 0 0 0 0 0 0 0 0 0 0 0 0 0 0 0 0 0 0 0 0 0 0 0 0 23 88 88 87 88 53 38 88 79 56 16 88 88 88 88 88 88 88 88 88 84 85 37 14 4 76 56 55 88 88 70 88 88 88 88 88 53 65 49 51 8 24 74 88 88 88 88 88 88 88 88 88 88 54 68 88 58 25 88 88 88 88 88 0 0 0 0 0 0 0 0 0 0 0 0 0 0 0 0 0 0 0 0 0 0 0 0 0 0 0 0 0 0 0 0 0 
0 0 0 0 0 0 0 0 0 0 0 0 0 0 0 0 0 0 0 0 0 0 0 0 0 0 0 0 0 0 0 0 88 88 76 88 85 13 40 63 71 88 50 27 88 88 88 88 88 88 88 88 65 31 8 0 7 60 88 79 69 42 77 88 88 88 88 88 88 60 83 59 6 11 13 58 83 84 88 88 88 88 88 88 80 49 59 47 57 36 54 88 77 88 88 88 0 0 0 0 0 0 0 0 0 0 0 0 0 0 0 0 0 0 0 0 0 0 0 0 0 0 0 0 0 0 0 0 
0 0 0 0 0 0 0 0 0 0 0 0 0 0 0 0 0 0 0 0 0 0 0 0 0 0 0 0 0 0 0 83 88 88 88 88 51 6 25 49 63 87 88 56 14 88 88 88 88 88 76 63 22 8 2 2 5 18 77 62 88 15 73 88 88 88 86 88 88 84 88 23 2 2 3 2 48 58 80 88 88 88 88 88 38 88 88 88 58 26 30 88 88 88 88 88 38 0 0 0 0 0 0 0 0 0 0 0 0 0 0 0 0 0 0 0 0 0 0 0 0 0 0 0 0 0 0 0 
0 0 0 0 0 0 0 0 0 0 0 0 0 0 0 0 0 0 0 0 0 0 0 0 0 0 0 0 0 0 31 88 88 73 88 88 13 12 44 49 44 46 35 88 86 16 82 88 88 87 60 22 7 1 1 2 5 13 88 53 88 27 88 67 88 88 88 88 88 71 88 3 2 2 2 2 11 41 46 85 88 88 79 25 88 88 88 79 80 30 13 72 88 88 88 88 88 0 0 0 0 0 0 0 0 0 0 0 0 0 0 0 0 0 0 0 0 0 0 0 0 0 0 0 0 0 0 0 
0 0 0 0 0 0 0 0 0 0 0 0 0 0 0 0 0 0 0 0 0 0 0 0 0 0 0 0 0 0 88 88 88 88 88 88 20 37 56 60 66 55 55 54 56 88 22 73 66 65 37 7 3 0 1 3 2 4 88 88 88 47 88 64 88 88 88 88 88 88 58 1 1 1 2 1 0 25 39 50 76 71 33 50 88 64 39 50 54 60 22 33 88 88 88 88 88 56 0 0 0 0 0 0 0 0 0 0 0 0 0 0 0 0 0 0 0 0 0 0 0 0 0 0 0 0 0 0 
0 0 0 0 0 0 0 0 0 0 0 0 0 0 0 0 0 0 0 0 0 0 0 0 0 0 0 0 0 50 88 88 80 88 88 76 75 63 64 67 63 63 60 53 53 88 88 69 61 33 17 2 1 1 0 2 2 5 88 83 88 61 88 58 88 88 88 88 88 88 29 2 1 2 1 1 1 6 27 34 63 88 45 88 42 45 59 63 65 65 58 25 88 88 88 88 88 88 13 0 0 0 0 0 0 0 0 0 0 0 0 0 0 0 0 0 0 0 0 0 0 0 0 0 0 0 0 0 
0 0 0 0 0 0 0 0 0 0 0 0 0 0 0 0 0 0 0 0 0 0 0 0 0 0 0 0 0 88 88 88 88 88 88 48 88 88 54 60 63 69 75 57 54 88 88 88 88 31 7 3 1 0 1 2 2 8 80 74 76 79 88 58 88 88 88 88 88 88 34 2 3 0 1 2 1 2 20 56 76 88 81 60 53 53 61 66 64 69 85 68 47 88 88 73 88 88 47 0 0 0 0 0 0 0 0 0 0 0 0 0 0 0 0 0 0 0 0 0 0 0 0 0 0 0 0 0 
0 0 0 0 0 0 0 0 0 0 0 0 0 0 0 0 0 0 0 0 0 0 0 0 0 0 0 0 37 88 88 88 88 88 85 56 88 88 53 63 60 63 69 68 75 81 88 88 88 69 19 0 0 3 0 0 4 23 79 63 80 82 88 62 88 88 88 88 88 88 56 1 1 1 2 1 1 1 13 88 88 88 88 88 52 58 65 67 64 62 88 88 25 88 88 88 88 88 88 0 0 0 0 0 0 0 0 0 0 0 0 0 0 0 0 0 0 0 0 0 0 0 0 0 0 0 0 0 
0 0 0 0 0 0 0 0 0 0 0 0 0 0 0 0 0 0 0 0 0 0 0 0 0 0 0 0 67 88 88 88 88 88 37 81 88 88 71 70 66 52 29 52 51 53 88 75 88 88 33 18 0 2 1 1 0 42 73 58 74 88 84 65 87 88 88 88 88 78 79 2 1 0 4 1 1 5 21 88 88 88 81 34 68 72 66 58 68 59 88 88 25 72 88 88 88 88 88 21 0 0 0 0 0 0 0 0 0 0 0 0 0 0 0 0 0 0 0 0 0 0 0 0 0 0 0 0 
0 0 0 0 0 0 0 0 0 0 0 0 0 0 0 0 0 0 0 0 0 0 0 0 0 0 0 0 88 88 88 88 88 70 28 62 88 88 85 52 54 34 23 43 54 62 53 73 88 88 88 32 17 2 2 3 0 61 60 64 70 88 63 85 84 88 88 88 88 80 87 8 0 1 1 3 0 25 67 88 80 88 40 56 50 53 59 71 63 86 88 88 38 20 88 88 88 88 88 56 0 0 0 0 0 0 0 0 0 0 0 0 0 0 0 0 0 0 0 0 0 0 0 0 0 0 0 0 
0 0 0 0 0 0 0 0 0 0 0 0 0 0 0 0 0 0 0 0 0 0 0 0 0 0 0 27 88 88 88 88 88 32 51 88 88 88 73 77 0 13 33 56 51 58 61 71 70 60 88 38 57 31 2 2 9 76 53 59 88 88 47 88 88 88 88 88 88 87 88 20 3 1 2 3 21 52 84 47 62 61 54 55 51 31 21 63 44 88 88 88 48 22 64 88 88 88 88 88 0 0 0 0 0 0 0 0 0 0 0 0 0 0 0 0 0 0 0 0 0 0 0 0 0 0 0 0 
0 0 0 0 0 0 0 0 0 0 0 0 0 0 0 0 0 0 0 0 0 0 0 0 0 0 0 61 88 88 88 88 65 21 47 75 88 88 72 43 14 63 60 39 55 71 77 75 71 74 88 59 84 85 59 16 31 86 42 69 88 88 67 88 88 88 88 88 88 88 85 34 1 5 13 27 53 57 58 61 69 64 56 63 57 25 3 44 53 52 88 88 71 25 31 88 88 88 88 88 13 0 0 0 0 0 0 0 0 0 0 0 0 0 0 0 0 0 0 0 0 0 0 0 0 0 0 0 
0 0 0 0 0 0 0 0 0 0 0 0 0 0 0 0 0 0 0 0 0 0 0 0 0 0 0 86 88 88 88 88 21 21 60 72 88 88 63 16 8 64 58 51 54 61 82 64 88 88 88 88 87 46 88 88 88 61 71 88 88 43 88 72 82 88 88 88 88 88 86 46 13 27 67 78 79 70 88 52 69 76 60 58 57 18 79 13 38 88 49 88 84 38 11 67 88 88 88 88 22 0 0 0 0 0 0 0 0 0 0 0 0 0 0 0 0 0 0 0 0 0 0 0 0 0 0 0 
0 0 0 0 0 0 0 0 0 0 0 0 0 0 0 0 0 0 0 0 0 0 0 0 0 0 0 88 88 88 88 53 16 29 56 67 84 78 86 31 17 66 51 48 61 60 48 86 88 88 88 88 88 88 72 88 70 88 88 72 88 20 88 74 83 88 78 88 88 85 81 88 88 88 88 33 55 88 88 55 81 63 83 56 53 63 88 34 2 85 75 57 75 43 22 39 88 88 88 88 44 0 0 0 0 0 0 0 0 0 0 0 0 0 0 0 0 0 0 0 0 0 0 0 0 0 0 0 
0 0 0 0 0 0 0 0 0 0 0 0 0 0 0 0 0 0 0 0 0 0 0 0 0 0 20 88 88 88 88 28 32 26 55 63 82 63 88 56 37 55 53 52 56 55 65 79 87 88 88 88 88 88 88 88 88 88 88 88 59 51 88 63 74 88 76 88 88 84 88 60 83 84 69 88 88 88 87 88 85 84 78 67 49 55 60 20 0 68 67 72 64 47 20 30 85 88 88 88 62 0 0 0 0 0 0 0 0 0 0 0 0 0 0 0 0 0 0 0 0 0 0 0 0 0 0 0 
0 0 0 0 0 0 0 0 0 0 0 0 0 0 0 0 0 0 0 0 0 0 0 0 0 0 43 88 88 88 88 24 17 32 53 57 66 72 88 59 43 53 54 62 74 71 88 83 88 88 82 88 67 66 86 88 88 88 88 88 21 74 88 61 68 88 85 62 88 88 70 88 62 70 88 79 58 88 88 88 75 88 88 82 59 52 69 32 1 88 77 68 58 52 25 28 57 88 88 88 84 0 0 0 0 0 0 0 0 0 0 0 0 0 0 0 0 0 0 0 0 0 0 0 0 0 0 0 
0 0 0 0 0 0 0 0 0 0 0 0 0 0 0 0 0 0 0 0 0 0 0 0 0 0 55 88 88 88 88 22 15 43 51 53 65 65 58 50 51 60 61 75 79 88 86 88 88 88 82 71 88 88 88 88 65 88 88 88 0 88 88 49 62 88 88 55 88 88 69 88 86 42 26 84 88 88 88 78 88 78 88 88 67 52 61 51 26 82 84 62 68 51 24 26 56 88 88 88 88 0 0 0 0 0 0 0 0 0 0 0 0 0 0 0 0 0 0 0 0 0 0 0 0 0 0 0 
0 0 0 0 0 0 0 0 0 0 0 0 0 0 0 0 0 0 0 0 0 0 0 0 0 0 63 88 88 88 88 24 31 53 57 56 59 72 70 47 53 81 88 88 88 80 86 82 76 80 83 81 87 88 88 88 88 82 79 70 5 88 88 56 53 88 88 49 88 88 66 66 74 88 79 88 88 85 88 88 88 88 75 88 88 58 70 55 47 61 78 72 57 63 34 21 58 88 88 88 88 15 0 0 0 0 0 0 0 0 0 0 0 0 0 0 0 0 0 0 0 0 0 0 0 0 0 0 
0 0 0 0 0 0 0 0 0 0 0 0 0 0 0 0 0 0 0 0 0 0 0 0 0 0 74 88 88 88 87 30 39 53 53 53 51 52 35 46 65 88 88 88 71 85 88 77 77 88 88 79 73 88 88 88 88 88 44 19 7 55 88 66 60 88 88 20 88 88 62 88 88 88 88 88 88 88 88 88 88 88 85 77 88 83 88 47 50 58 70 63 62 59 56 27 56 88 88 88 88 26 0 0 0 0 0 0 0 0 0 0 0 0 0 0 0 0 0 0 0 0 0 0 0 0 0 0 
0 0 0 0 0 0 0 0 0 0 0 0 0 0 0 0 0 0 0 0 0 0 0 0 0 0 72 88 88 88 86 34 43 55 54 50 52 39 44 52 87 88 88 72 67 81 82 88 88 88 74 74 88 88 88 88 88 88 52 17 21 46 85 65 65 88 88 7 9 51 63 88 88 88 83 87 88 88 83 88 79 88 80 88 80 88 88 57 53 40 53 62 53 55 55 36 60 88 88 88 88 35 0 0 0 0 0 0 0 0 0 0 0 0 0 0 0 0 0 0 0 0 0 0 0 0 0 0 
0 0 0 0 0 0 0 0 0 0 0 0 0 0 0 0 0 0 0 0 0 0 0 0 0 13 79 88 88 88 88 41 47 48 49 52 49 43 51 70 88 88 69 63 70 84 83 77 83 75 75 88 88 88 88 88 88 76 70 59 22 63 64 66 71 72 78 29 8 28 72 88 88 88 88 83 75 86 86 78 84 70 88 63 79 88 88 82 49 52 46 58 60 54 58 44 61 88 88 88 88 49 0 0 0 0 0 0 0 0 0 0 0 0 0 0 0 0 0 0 0 0 0 0 0 0 0 0 
0 0 0 0 0 0 0 0 0 0 0 0 0 0 0 0 0 0 0 0 0 0 0 0 0 15 88 88 88 88 88 42 53 50 56 56 55 41 66 88 88 73 65 57 68 82 79 78 77 76 84 88 80 88 88 88 88 88 78 80 72 74 53 62 77 66 82 60 42 79 77 79 88 88 88 88 88 72 85 81 85 83 78 70 64 76 88 88 54 49 47 50 56 56 48 47 64 88 88 88 88 50 0 0 0 0 0 0 0 0 0 0 0 0 0 0 0 0 0 0 0 0 0 0 0 0 0 0 
0 0 0 0 0 0 0 0 0 0 0 0 0 0 0 0 0 0 0 0 0 0 0 0 0 23 88 88 88 88 88 45 43 62 62 66 58 69 76 88 88 50 55 60 61 67 75 72 76 77 88 55 62 57 63 88 88 77 85 84 61 61 42 54 64 60 70 65 69 87 87 79 88 88 88 68 88 72 79 83 83 88 71 77 51 68 88 88 61 52 47 56 66 57 52 49 66 88 88 88 88 62 0 0 0 0 0 0 0 0 0 0 0 0 0 0 0 0 0 0 0 0 0 0 0 0 0 0 
0 0 0 0 0 0 0 0 0 0 0 0 0 0 0 0 0 0 0 0 0 0 0 0 0 34 88 88 88 88 88 53 38 53 67 60 70 64 88 88 60 51 52 54 58 65 73 79 78 88 54 19 69 63 88 85 63 78 88 68 60 63 44 36 46 47 61 56 65 88 88 73 81 88 70 68 60 88 65 76 87 79 80 66 59 52 65 88 88 73 50 63 72 64 50 46 88 88 88 88 88 72 0 0 0 0 0 0 0 0 0 0 0 0 0 0 0 0 0 0 0 0 0 0 0 0 0 0 
0 0 0 0 0 0 0 0 0 0 0 0 0 0 0 0 0 0 0 0 0 0 0 0 0 34 88 88 88 88 88 81 36 43 62 55 70 72 88 66 48 49 49 49 57 66 70 80 88 88 88 70 85 85 68 54 44 81 88 52 46 56 56 49 55 60 60 57 53 77 88 73 59 83 88 65 50 82 88 71 80 75 74 67 67 52 52 88 88 79 56 71 69 63 43 46 88 88 88 88 88 85 13 0 0 0 0 0 0 0 0 0 0 0 0 0 0 0 0 0 0 0 0 0 0 0 0 0 
0 0 0 0 0 0 0 0 0 0 0 0 0 0 0 0 0 0 0 0 0 0 0 0 0 36 88 88 88 88 88 65 63 79 62 70 60 88 80 34 47 50 48 49 53 66 72 88 88 88 59 88 74 58 70 38 47 88 88 67 75 69 62 55 68 66 61 52 58 84 88 79 57 50 79 84 88 88 88 88 75 69 61 80 56 55 55 58 88 88 75 63 68 56 44 47 88 88 88 88 88 88 12 0 0 0 0 0 0 0 0 0 0 0 0 0 0 0 0 0 0 0 0 0 0 0 0 0 
0 0 0 0 0 0 0 0 0 0 0 0 0 0 0 0 0 0 0 0 0 0 0 0 0 45 88 88 88 88 88 64 64 42 69 53 86 56 37 45 44 48 46 47 54 58 74 88 88 52 80 77 68 74 58 45 63 88 88 88 73 86 88 67 63 74 65 88 71 88 88 86 48 42 72 67 88 88 88 88 77 63 56 71 59 53 50 56 73 88 83 71 59 40 41 62 88 88 88 88 88 88 24 0 0 0 0 0 0 0 0 0 0 0 0 0 0 0 0 0 0 0 0 0 0 0 0 0 
0 0 0 0 0 0 0 0 0 0 0 0 0 0 0 0 0 0 0 0 0 0 0 0 0 54 88 88 88 88 88 63 63 45 80 77 71 51 53 52 48 42 48 47 47 55 80 88 63 64 88 80 68 74 38 60 83 88 77 88 88 88 88 88 88 88 59 81 88 88 83 88 67 51 55 73 67 88 84 88 88 71 52 55 67 50 48 54 58 88 88 69 76 74 50 60 88 88 88 88 88 88 33 0 0 0 0 0 0 0 0 0 0 0 0 0 0 0 0 0 0 0 0 0 0 0 0 0 
0 0 0 0 0 0 0 0 0 0 0 0 0 0 0 0 0 0 0 0 0 0 0 0 0 58 88 88 88 88 88 63 60 64 60 47 22 68 72 60 44 44 48 46 43 44 88 88 88 85 61 69 80 53 47 79 88 85 86 81 88 88 88 88 88 88 87 88 78 74 84 83 86 61 43 77 66 86 64 48 88 74 50 44 63 52 46 44 42 73 62 82 45 65 46 63 88 88 88 88 88 88 49 0 0 0 0 0 0 0 0 0 0 0 0 0 0 0 0 0 0 0 0 0 0 0 0 0 
0 0 0 0 0 0 0 0 0 0 0 0 0 0 0 0 0 0 0 0 0 0 0 0 0 68 88 88 88 88 88 88 63 57 84 88 86 22 84 71 50 42 48 41 34 63 73 88 88 58 61 58 71 56 75 88 83 80 60 57 65 85 88 88 88 88 85 82 49 63 59 80 85 83 46 49 73 75 88 88 88 88 54 46 48 57 54 47 42 63 65 75 87 49 62 69 88 88 88 88 88 88 67 0 0 0 0 0 0 0 0 0 0 0 0 0 0 0 0 0 0 0 0 0 0 0 0 0 
0 0 0 0 0 0 0 0 0 0 0 0 0 0 0 0 0 0 0 0 0 0 0 0 0 74 88 88 86 88 65 67 75 44 59 88 88 46 55 85 62 52 42 50 39 71 72 88 58 49 51 66 64 51 79 79 76 58 62 56 58 60 72 83 88 70 62 63 52 52 55 63 74 82 59 51 70 64 68 85 88 88 61 46 39 55 54 51 59 66 37 19 54 65 76 55 88 88 88 88 88 88 70 0 0 0 0 0 0 0 0 0 0 0 0 0 0 0 0 0 0 0 0 0 0 0 0 0 
0 0 0 0 0 0 0 0 0 0 0 0 0 0 0 0 0 0 0 0 0 0 0 0 0 74 88 72 38 59 53 57 47 65 38 52 84 88 50 57 84 70 49 36 88 88 88 88 53 46 70 67 75 52 76 66 50 51 43 58 53 68 52 69 88 55 59 49 62 48 49 50 65 71 80 46 86 64 50 46 88 88 76 44 54 44 71 66 78 56 37 88 75 74 59 80 41 83 88 88 88 88 79 0 0 0 0 0 0 0 0 0 0 0 0 0 0 0 0 0 0 0 0 0 0 0 0 0 
0 0 0 0 0 0 0 0 0 0 0 0 0 0 0 0 0 0 0 0 0 0 0 0 0 79 88 88 66 53 60 83 75 77 85 25 41 88 88 71 34 49 55 77 88 79 35 30 60 65 58 88 44 73 56 53 59 31 48 53 52 55 58 36 58 36 58 48 50 52 37 49 47 49 73 59 80 67 54 49 67 88 88 53 63 59 67 87 74 33 86 84 75 61 62 54 72 48 51 77 88 88 81 0 0 0 0 0 0 0 0 0 0 0 0 0 0 0 0 0 0 0 0 0 0 0 0 0 
0 0 0 0 0 0 0 0 0 0 0 0 0 0 0 0 0 0 0 0 0 0 0 0 0 83 72 63 61 74 62 59 72 88 77 82 51 27 33 29 37 58 88 88 88 50 14 30 33 71 82 50 78 42 50 57 28 31 52 43 58 52 47 44 37 41 52 53 43 51 35 31 49 46 38 66 78 86 69 51 63 88 88 76 54 70 76 51 46 88 86 88 51 52 75 88 81 83 58 50 88 88 81 13 0 0 0 0 0 0 0 0 0 0 0 0 0 0 0 0 0 0 0 0 0 0 0 0 
0 0 0 0 0 0 0 0 0 0 0 0 0 0 0 0 0 0 0 0 0 0 0 0 13 85 28 39 51 63 60 55 50 82 87 65 69 54 57 45 85 88 88 88 47 31 22 42 59 42 56 61 38 43 36 39 28 38 38 44 52 49 48 37 31 38 53 54 56 38 36 26 42 53 53 55 88 79 83 54 36 28 77 88 71 55 47 60 86 81 74 47 35 72 67 88 71 62 70 52 39 28 77 13 0 0 0 0 0 0 0 0 0 0 0 0 0 0 0 0 0 0 0 0 0 0 0 0 
0 0 0 0 0 0 0 0 0 0 0 0 0 0 0 0 0 0 0 0 0 0 0 0 22 36 41 41 54 41 36 49 50 55 84 85 88 88 67 88 88 88 46 34 30 22 31 62 55 62 55 38 37 45 50 59 45 37 40 53 49 58 48 41 39 37 59 85 44 48 35 48 46 45 36 22 27 54 43 65 43 25 38 88 88 88 66 38 53 59 34 38 76 76 88 57 44 50 43 61 56 53 33 32 0 0 0 0 0 0 0 0 0 0 0 0 0 0 0 0 0 0 0 0 0 0 0 0 
0 0 0 0 0 0 0 0 0 0 0 0 0 0 0 0 0 0 0 0 0 0 0 0 22 33 29 22 13 39 48 38 52 50 79 79 78 83 88 88 43 31 39 23 13 38 47 11 13 36 43 38 39 54 63 75 62 58 47 58 44 37 33 34 33 37 36 44 82 73 55 41 49 58 46 48 39 47 46 26 32 26 20 40 88 88 88 59 41 42 58 72 88 74 71 52 53 53 45 26 11 25 28 19 0 0 0 0 0 0 0 0 0 0 0 0 0 0 0 0 0 0 0 0 0 0 0 0 
0 0 0 0 0 0 0 0 0 0 0 0 0 0 0 0 0 0 0 0 0 0 0 0 16 30 32 35 36 37 66 39 50 48 68 82 74 84 83 57 26 8 27 11 13 56 40 21 30 37 31 23 50 54 45 47 57 63 82 62 47 31 35 34 43 40 39 32 49 72 57 52 59 62 62 64 59 41 28 12 6 20 20 22 38 62 80 88 84 63 88 83 88 70 67 50 43 64 54 27 21 0 0 0 0 0 0 0 0 0 0 0 0 0 0 0 0 0 0 0 0 0 0 0 0 0 0 0 
0 0 0 0 0 0 0 0 0 0 0 0 0 0 0 0 0 0 0 0 0 0 0 13 50 56 58 55 40 52 57 56 45 35 61 78 60 71 63 40 25 24 12 24 35 35 55 37 55 52 61 39 48 52 84 88 83 78 59 52 45 40 30 36 39 35 32 40 42 50 88 88 75 57 40 50 53 27 44 13 16 18 49 13 18 37 41 43 87 88 82 88 84 65 59 52 44 62 71 25 24 19 17 0 0 0 0 0 0 0 0 0 0 0 0 0 0 0 0 0 0 0 0 0 0 0 0 0 
0 0 0 0 0 0 0 0 0 0 0 0 0 0 0 0 0 0 0 0 0 0 23 60 84 80 67 38 22 46 41 56 51 40 53 64 65 60 79 8 18 24 21 20 17 8 13 33 46 61 48 31 52 75 83 48 62 68 69 69 62 41 33 8 20 23 27 35 55 53 57 56 71 88 88 52 42 52 86 63 49 52 72 35 15 15 9 22 61 82 88 67 77 62 60 47 42 43 51 54 17 17 24 18 20 0 0 0 0 0 0 0 0 0 0 0 0 0 0 0 0 0 0 0 0 0 0 0 
0 0 0 0 0 0 0 0 0 0 0 0 0 0 0 0 0 0 0 0 0 0 56 88 88 77 45 3 5 52 46 54 44 50 63 66 54 56 32 18 36 29 6 4 15 4 23 26 62 78 40 43 32 88 64 26 88 88 88 88 56 22 15 12 11 6 9 13 38 78 70 58 60 44 87 83 47 51 88 64 74 71 55 34 26 28 6 18 24 80 84 55 75 66 62 43 54 49 42 54 24 13 11 19 24 13 0 0 0 0 0 0 0 0 0 0 0 0 0 0 0 0 0 0 0 0 0 0 
0 0 0 0 0 0 0 0 0 0 0 0 0 0 0 0 0 0 0 0 0 17 28 65 59 31 2 5 3 53 54 88 67 36 55 55 49 59 61 41 63 13 23 2 8 23 8 5 38 40 45 60 45 88 60 49 88 88 88 65 19 7 40 46 55 49 28 13 25 76 88 88 88 38 57 73 47 31 80 88 69 62 88 88 24 14 11 7 12 45 64 46 59 76 57 42 44 53 58 51 34 16 13 13 27 44 0 0 0 0 0 0 0 0 0 0 0 0 0 0 0 0 0 0 0 0 0 0 
0 0 0 0 0 0 0 0 0 0 0 0 0 0 0 0 0 0 0 0 0 9 19 22 9 7 5 13 12 55 52 57 72 72 53 44 46 27 69 41 49 36 43 15 19 9 23 5 19 32 28 82 71 72 57 58 75 85 65 20 7 26 32 23 20 19 30 19 32 29 75 88 88 73 37 83 47 29 50 31 32 49 63 33 49 0 23 48 51 42 51 50 52 63 76 72 88 43 63 60 31 24 19 21 50 56 35 0 0 0 0 0 0 0 0 0 0 0 0 0 0 0 0 0 0 0 0 0 
0 0 0 0 0 0 0 0 0 0 0 0 0 0 0 0 0 0 0 0 0 12 28 28 31 23 16 3 27 56 68 51 37 27 22 21 20 28 87 82 31 68 82 58 7 13 11 30 34 70 81 65 47 65 73 54 54 41 23 29 30 21 27 29 32 26 31 27 26 37 37 60 63 67 61 79 88 88 60 88 59 38 33 15 25 51 26 70 73 76 31 46 49 53 50 36 37 72 61 58 29 24 20 33 49 70 47 0 0 0 0 0 0 0 0 0 0 0 0 0 0 0 0 0 0 0 0 0 
0 0 0 0 0 0 0 0 0 0 0 0 0 0 0 0 0 0 0 0 0 0 25 44 37 23 19 8 43 59 60 34 24 6 6 13 19 16 66 87 38 68 77 84 83 67 40 41 52 57 43 77 88 68 54 53 55 31 29 51 25 28 26 29 30 31 26 18 34 19 31 36 41 51 69 77 55 67 88 88 83 56 31 37 53 46 51 22 88 76 59 22 30 31 34 48 47 43 85 66 45 23 40 53 54 83 44 0 0 0 0 0 0 0 0 0 0 0 0 0 0 0 0 0 0 0 0 0 
0 0 0 0 0 0 0 0 0 0 0 0 0 0 0 0 0 0 0 0 0 0 47 44 40 23 20 18 63 60 65 28 9 12 4 2 2 0 67 58 49 53 81 88 84 81 77 55 59 66 84 87 79 56 63 71 52 14 64 44 30 30 45 47 42 35 27 19 70 43 24 22 57 55 60 78 71 51 40 22 41 63 64 64 70 88 64 54 73 88 26 8 2 6 2 8 16 41 72 72 60 27 35 51 53 53 54 0 0 0 0 0 0 0 0 0 0 0 0 0 0 0 0 0 0 0 0 0 
0 0 0 0 0 0 0 0 0 0 0 0 0 0 0 0 0 0 0 0 0 0 52 42 31 22 14 46 77 75 53 23 6 23 13 3 1 13 66 51 81 37 77 71 79 68 54 53 63 70 86 88 66 51 59 54 64 19 50 32 37 43 56 53 51 52 39 30 49 56 30 30 63 75 64 72 59 55 74 74 67 62 59 60 60 60 49 88 88 61 42 1 0 8 14 41 9 23 63 70 52 32 38 45 56 43 56 0 0 0 0 0 0 0 0 0 0 0 0 0 0 0 0 0 0 0 0 0 
0 0 0 0 0 0 0 0 0 0 0 0 0 0 0 0 0 0 0 0 0 38 52 47 35 18 57 84 46 72 60 22 19 36 16 8 3 31 65 58 85 39 76 79 71 65 52 43 51 60 70 55 51 63 27 58 37 26 26 40 44 59 55 57 57 53 45 34 30 31 41 37 83 88 46 68 48 54 84 66 63 58 61 61 67 58 43 88 88 88 36 1 3 7 13 63 16 17 62 67 39 50 45 40 69 80 55 18 0 0 0 0 0 0 0 0 0 0 0 0 0 0 0 0 0 0 0 0 
0 0 0 0 0 0 0 0 0 0 0 0 0 0 0 0 0 0 0 0 28 58 81 66 59 88 65 29 21 68 57 28 22 72 49 21 16 36 66 77 88 49 58 77 71 64 50 50 55 35 60 54 50 67 23 47 35 22 30 32 49 58 59 53 54 59 55 35 31 34 32 24 88 31 69 55 54 60 82 55 39 38 59 68 71 76 72 71 74 86 42 5 3 0 6 51 9 24 61 45 0 27 50 34 43 88 80 44 0 0 0 0 0 0 0 0 0 0 0 0 0 0 0 0 0 0 0 0 
0 0 0 0 0 0 0 0 0 0 0 0 0 0 0 0 0 0 0 0 32 63 88 47 45 31 0 0 0 63 75 19 20 27 72 34 32 39 67 63 79 58 62 69 68 61 68 70 75 28 52 79 88 78 30 54 37 26 30 31 46 57 59 56 56 60 55 45 24 30 31 28 64 15 82 57 44 54 68 65 66 51 65 81 79 72 64 71 78 65 33 20 4 6 24 40 15 31 62 23 0 0 0 11 14 64 88 76 0 0 0 0 0 0 0 0 0 0 0 0 0 0 0 0 0 0 0 0 
0 0 0 0 0 0 0 0 0 0 0 0 0 0 0 0 0 0 0 88 65 64 59 11 0 0 0 0 0 57 68 53 40 25 16 39 51 31 72 64 79 51 63 60 60 63 65 74 65 52 32 12 72 78 36 52 40 22 26 23 48 55 59 57 56 57 62 31 25 26 27 22 55 18 88 63 52 45 45 45 41 70 88 77 74 55 46 76 68 73 26 28 14 22 45 29 36 53 60 13 0 0 0 0 0 40 88 88 83 0 0 0 0 0 0 0 0 0 0 0 0 0 0 0 0 0 0 0 
0 0 0 0 0 0 0 0 0 0 0 0 0 0 0 0 0 0 12 88 88 66 40 0 0 0 0 0 0 37 77 50 43 40 48 50 42 50 81 86 46 51 51 59 65 70 72 80 63 75 31 59 75 63 41 31 51 22 23 22 29 50 52 55 55 48 47 23 19 24 24 28 49 31 73 60 45 26 55 57 69 51 88 83 73 57 47 47 59 71 41 31 50 45 39 30 45 58 48 0 0 0 0 0 0 20 46 83 88 20 0 0 0 0 0 0 0 0 0 0 0 0 0 0 0 0 0 0 
0 0 0 0 0 0 0 0 0 0 0 0 0 0 0 0 0 0 0 34 50 50 12 0 0 0 0 0 0 16 75 73 53 45 45 47 72 60 82 87 37 50 54 65 62 60 63 64 87 32 23 49 47 39 34 21 35 33 22 17 18 32 45 52 43 34 19 20 24 22 19 41 36 26 48 42 26 81 88 84 62 32 88 70 60 54 60 46 68 66 52 43 53 62 38 48 61 77 26 0 0 0 0 0 0 0 19 31 32 0 0 0 0 0 0 0 0 0 0 0 0 0 0 0 0 0 0 0 
0 0 0 0 0 0 0 0 0 0 0 0 0 0 0 0 0 0 0 0 18 0 0 0 0 0 0 0 0 13 57 88 57 45 46 51 58 77 40 64 48 54 57 65 70 63 67 63 57 55 88 59 37 23 27 25 30 39 27 40 33 32 22 26 25 23 23 24 24 25 25 54 17 29 42 32 63 59 88 88 75 53 88 72 57 62 60 48 63 85 75 63 62 45 45 53 79 56 13 0 0 0 0 0 0 0 0 0 0 0 0 0 0 0 0 0 0 0 0 0 0 0 0 0 0 0 0 0 
0 0 0 0 0 0 0 0 0 0 0 0 0 0 0 0 0 0 0 0 0 0 0 0 0 0 0 0 0 0 34 88 66 43 62 58 57 59 36 83 48 57 52 67 70 88 79 64 39 25 40 58 50 27 30 27 32 65 29 18 22 25 26 28 26 27 24 24 23 26 50 47 23 24 29 32 52 42 88 88 88 88 79 49 59 70 51 57 66 48 48 61 56 49 51 72 69 28 0 0 0 0 0 0 0 0 0 0 0 0 0 0 0 0 0 0 0 0 0 0 0 0 0 0 0 0 0 0 
0 0 0 0 0 0 0 0 0 0 0 0 0 0 0 0 0 0 0 0 0 0 0 0 0 0 0 0 0 0 20 70 88 81 46 50 58 60 51 57 52 60 56 60 62 54 56 61 67 44 27 36 62 25 13 26 33 61 80 40 26 24 31 28 30 27 26 20 31 50 69 49 41 28 33 26 12 58 88 88 88 85 62 76 69 62 49 71 84 84 55 51 41 52 83 88 51 0 0 0 0 0 0 0 0 0 0 0 0 0 0 0 0 0 0 0 0 0 0 0 0 0 0 0 0 0 0 0 
0 0 0 0 0 0 0 0 0 0 0 0 0 0 0 0 0 0 0 0 0 0 0 0 0 0 0 0 0 0 11 52 88 88 45 50 60 71 57 75 50 57 54 65 59 53 60 54 43 37 25 21 29 29 22 24 35 50 88 88 62 45 31 25 24 21 30 48 69 80 88 56 38 31 73 68 31 88 88 34 45 42 43 51 51 52 54 61 53 46 51 54 48 72 88 65 19 0 0 0 0 0 0 0 0 0 0 0 0 0 0 0 0 0 0 0 0 0 0 0 0 0 0 0 0 0 0 0 
0 0 0 0 0 0 0 0 0 0 0 0 0 0 0 0 0 0 0 0 0 0 0 0 0 0 0 0 0 0 0 25 78 88 72 53 50 41 51 51 49 57 52 66 55 62 51 56 55 43 35 24 36 25 31 50 67 58 50 63 87 88 73 43 56 58 69 86 74 88 82 55 34 40 78 87 88 43 48 50 39 58 63 64 63 64 77 72 67 46 46 48 66 88 88 33 0 0 0 0 0 0 0 0 0 0 0 0 0 0 0 0 0 0 0 0 0 0 0 0 0 0 0 0 0 0 0 0 
0 0 0 0 0 0 0 0 0 0 0 0 0 0 0 0 0 0 0 0 0 0 0 0 0 0 0 0 0 0 0 18 52 88 88 66 42 45 55 64 60 56 53 58 56 62 54 54 50 49 33 41 50 36 49 38 45 72 76 47 75 65 83 60 70 67 88 71 66 62 83 52 40 26 44 71 67 53 35 61 57 76 88 87 65 63 64 82 61 51 60 63 88 88 58 15 0 0 0 0 0 0 0 0 0 0 0 0 0 0 0 0 0 0 0 0 0 0 0 0 0 0 0 0 0 0 0 0 
0 0 0 0 0 0 0 0 0 0 0 0 0 0 0 0 0 0 0 0 0 0 0 0 0 0 0 0 0 0 0 0 37 88 88 88 80 51 48 77 68 40 40 56 53 60 55 58 49 59 60 51 47 52 45 63 39 71 76 88 74 66 77 82 53 71 88 73 86 88 69 55 52 33 64 88 68 43 57 48 54 54 53 56 88 88 88 82 70 64 60 88 88 81 30 0 0 0 0 0 0 0 0 0 0 0 0 0 0 0 0 0 0 0 0 0 0 0 0 0 0 0 0 0 0 0 0 0 
0 0 0 0 0 0 0 0 0 0 0 0 0 0 0 0 0 0 0 0 0 0 0 0 0 0 0 0 0 0 0 0 18 61 88 88 88 55 52 39 63 70 28 47 51 58 54 61 55 55 54 45 54 48 40 76 38 39 42 73 79 88 74 79 73 83 77 88 73 53 57 41 41 57 88 87 69 59 41 50 52 48 53 48 46 40 31 48 51 73 83 88 88 49 13 0 0 0 0 0 0 0 0 0 0 0 0 0 0 0 0 0 0 0 0 0 0 0 0 0 0 0 0 0 0 0 0 0 
0 0 0 0 0 0 0 0 0 0 0 0 0 0 0 0 0 0 0 0 0 0 0 0 0 0 0 0 0 0 0 0 0 31 86 71 88 49 45 55 47 45 30 44 51 51 56 55 58 62 51 61 72 88 72 74 45 48 44 58 67 60 51 87 64 79 53 61 63 52 30 38 54 75 68 60 55 53 52 54 48 50 52 48 39 45 46 56 63 88 88 88 71 28 0 0 0 0 0 0 0 0 0 0 0 0 0 0 0 0 0 0 0 0 0 0 0 0 0 0 0 0 0 0 0 0 0 0 
0 0 0 0 0 0 0 0 0 0 0 0 0 0 0 0 0 0 0 0 0 0 0 0 0 0 0 0 0 0 0 0 0 23 44 88 88 67 46 26 50 49 26 46 51 57 56 58 55 58 54 55 58 53 70 74 53 62 49 58 63 54 58 88 87 87 45 65 50 63 66 42 56 69 70 47 49 45 43 49 50 51 52 44 42 48 63 88 88 88 88 88 38 13 0 0 0 0 0 0 0 0 0 0 0 0 0 0 0 0 0 0 0 0 0 0 0 0 0 0 0 0 0 0 0 0 0 0 
0 0 0 0 0 0 0 0 0 0 0 0 0 0 0 0 0 0 0 0 0 0 0 0 0 0 0 0 0 0 0 0 0 0 34 66 88 88 88 88 63 48 43 41 50 53 57 52 53 62 52 55 53 53 61 67 57 58 57 60 52 65 78 87 88 81 73 69 65 49 53 66 58 62 54 51 46 45 51 47 52 51 47 47 46 41 64 88 88 88 88 48 25 0 0 0 0 0 0 0 0 0 0 0 0 0 0 0 0 0 0 0 0 0 0 0 0 0 0 0 0 0 0 0 0 0 0 0 
0 0 0 0 0 0 0 0 0 0 0 0 0 0 0 0 0 0 0 0 0 0 0 0 0 0 0 0 0 0 0 0 0 0 16 41 88 88 88 88 53 44 52 46 44 52 51 53 54 59 53 47 49 53 53 55 62 58 59 79 82 88 88 88 88 66 79 82 82 61 63 57 51 56 50 45 48 49 49 50 52 51 43 44 42 68 88 88 88 88 78 37 0 0 0 0 0 0 0 0 0 0 0 0 0 0 0 0 0 0 0 0 0 0 0 0 0 0 0 0 0 0 0 0 0 0 0 0 
0 0 0 0 0 0 0 0 0 0 0 0 0 0 0 0 0 0 0 0 0 0 0 0 0 0 0 0 0 0 0 0 0 0 0 26 49 88 88 88 84 53 77 58 50 46 53 51 53 51 53 49 47 48 51 67 50 62 82 88 88 88 88 88 77 88 61 88 88 88 71 79 66 51 50 48 51 53 53 49 48 47 43 43 77 88 88 60 84 81 41 19 0 0 0 0 0 0 0 0 0 0 0 0 0 0 0 0 0 0 0 0 0 0 0 0 0 0 0 0 0 0 0 0 0 0 0 0 
0 0 0 0 0 0 0 0 0 0 0 0 0 0 0 0 0 0 0 0 0 0 0 0 0 0 0 0 0 0 0 0 0 0 0 0 34 53 74 88 88 88 88 88 61 45 53 52 52 58 54 53 49 51 41 46 65 71 73 74 47 71 88 88 88 84 88 75 43 53 48 39 44 54 55 54 50 49 51 50 47 49 61 83 88 88 88 88 88 43 26 0 0 0 0 0 0 0 0 0 0 0 0 0 0 0 0 0 0 0 0 0 0 0 0 0 0 0 0 0 0 0 0 0 0 0 0 0 
0 0 0 0 0 0 0 0 0 0 0 0 0 0 0 0 0 0 0 0 0 0 0 0 0 0 0 0 0 0 0 0 0 0 0 0 11 39 71 88 88 88 88 88 88 57 60 46 46 46 48 53 50 55 52 55 42 39 36 54 71 88 68 87 88 88 88 36 50 44 43 48 48 48 43 44 36 42 45 46 46 67 88 88 88 88 88 77 44 27 0 0 0 0 0 0 0 0 0 0 0 0 0 0 0 0 0 0 0 0 0 0 0 0 0 0 0 0 0 0 0 0 0 0 0 0 0 0 
0 0 0 0 0 0 0 0 0 0 0 0 0 0 0 0 0 0 0 0 0 0 0 0 0 0 0 0 0 0 0 0 0 0 0 0 0 15 38 58 88 88 88 88 88 88 63 45 47 48 44 44 45 44 42 49 46 48 49 47 70 69 66 72 75 79 72 55 46 48 51 54 45 45 46 43 46 45 45 48 76 88 88 88 88 88 84 51 27 0 0 0 0 0 0 0 0 0 0 0 0 0 0 0 0 0 0 0 0 0 0 0 0 0 0 0 0 0 0 0 0 0 0 0 0 0 0 0 
0 0 0 0 0 0 0 0 0 0 0 0 0 0 0 0 0 0 0 0 0 0 0 0 0 0 0 0 0 0 0 0 0 0 0 0 0 0 18 40 56 88 88 88 88 88 88 74 50 45 48 45 44 48 46 48 53 49 51 51 50 42 82 77 35 41 63 55 49 47 44 45 48 47 45 47 44 47 56 83 88 88 88 88 88 77 48 30 0 0 0 0 0 0 0 0 0 0 0 0 0 0 0 0 0 0 0 0 0 0 0 0 0 0 0 0 0 0 0 0 0 0 0 0 0 0 0 0 
0 0 0 0 0 0 0 0 0 0 0 0 0 0 0 0 0 0 0 0 0 0 0 0 0 0 0 0 0 0 0 0 0 0 0 0 0 0 0 13 39 57 68 88 88 88 88 88 88 71 47 47 45 44 46 47 46 47 44 49 45 40 78 39 51 45 49 51 55 47 50 52 45 49 47 47 58 74 88 88 88 88 88 88 79 47 29 0 0 0 0 0 0 0 0 0 0 0 0 0 0 0 0 0 0 0 0 0 0 0 0 0 0 0 0 0 0 0 0 0 0 0 0 0 0 0 0 0 
0 0 0 0 0 0 0 0 0 0 0 0 0 0 0 0 0 0 0 0 0 0 0 0 0 0 0 0 0 0 0 0 0 0 0 0 0 0 0 0 12 36 54 68 88 88 88 88 88 88 83 68 53 49 55 51 58 56 45 48 51 42 35 46 54 66 59 54 39 46 49 46 49 55 65 79 84 88 88 88 88 88 88 60 43 26 0 0 0 0 0 0 0 0 0 0 0 0 0 0 0 0 0 0 0 0 0 0 0 0 0 0 0 0 0 0 0 0 0 0 0 0 0 0 0 0 0 0 
0 0 0 0 0 0 0 0 0 0 0 0 0 0 0 0 0 0 0 0 0 0 0 0 0 0 0 0 0 0 0 0 0 0 0 0 0 0 0 0 0 0 34 45 62 88 88 88 88 88 88 87 88 88 86 68 69 66 69 71 38 85 78 51 60 65 80 82 82 58 61 75 88 88 88 88 88 88 88 88 88 82 54 39 18 0 0 0 0 0 0 0 0 0 0 0 0 0 0 0 0 0 0 0 0 0 0 0 0 0 0 0 0 0 0 0 0 0 0 0 0 0 0 0 0 0 0 0 
0 0 0 0 0 0 0 0 0 0 0 0 0 0 0 0 0 0 0 0 0 0 0 0 0 0 0 0 0 0 0 0 0 0 0 0 0 0 0 0 0 0 0 28 41 50 68 88 88 88 88 88 88 88 88 88 77 86 88 80 88 88 88 88 88 88 88 88 88 71 62 70 88 88 88 88 88 88 88 88 64 47 38 17 0 0 0 0 0 0 0 0 0 0 0 0 0 0 0 0 0 0 0 0 0 0 0 0 0 0 0 0 0 0 0 0 0 0 0 0 0 0 0 0 0 0 0 0 
0 0 0 0 0 0 0 0 0 0 0 0 0 0 0 0 0 0 0 0 0 0 0 0 0 0 0 0 0 0 0 0 0 0 0 0 0 0 0 0 0 0 0 0 16 38 40 54 72 88 88 88 88 88 88 88 88 88 88 88 88 88 88 88 88 88 88 88 88 88 88 88 88 88 88 88 88 88 60 51 40 29 12 0 0 0 0 0 0 0 0 0 0 0 0 0 0 0 0 0 0 0 0 0 0 0 0 0 0 0 0 0 0 0 0 0 0 0 0 0 0 0 0 0 0 0 0 0 
0 0 0 0 0 0 0 0 0 0 0 0 0 0 0 0 0 0 0 0 0 0 0 0 0 0 0 0 0 0 0 0 0 0 0 0 0 0 0 0 0 0 0 0 0 0 29 38 44 42 58 87 88 88 88 88 88 88 88 88 88 88 88 88 88 88 88 88 88 88 88 88 88 88 88 71 61 48 41 38 22 0 0 0 0 0 0 0 0 0 0 0 0 0 0 0 0 0 0 0 0 0 0 0 0 0 0 0 0 0 0 0 0 0 0 0 0 0 0 0 0 0 0 0 0 0 0 0 
0 0 0 0 0 0 0 0 0 0 0 0 0 0 0 0 0 0 0 0 0 0 0 0 0 0 0 0 0 0 0 0 0 0 0 0 0 0 0 0 0 0 0 0 0 0 0 11 31 38 34 40 42 47 65 81 88 88 88 88 88 88 88 88 88 88 88 88 88 82 70 63 55 51 43 42 38 34 26 0 0 0 0 0 0 0 0 0 0 0 0 0 0 0 0 0 0 0 0 0 0 0 0 0 0 0 0 0 0 0 0 0 0 0 0 0 0 0 0 0 0 0 0 0 0 0 0 0 
0 0 0 0 0 0 0 0 0 0 0 0 0 0 0 0 0 0 0 0 0 0 0 0 0 0 0 0 0 0 0 0 0 0 0 0 0 0 0 0 0 0 0 0 0 0 0 0 0 0 25 35 36 37 40 41 39 40 40 41 40 40 43 43 37 43 39 38 36 42 40 42 38 40 34 29 20 0 0 0 0 0 0 0 0 0 0 0 0 0 0 0 0 0 0 0 0 0 0 0 0 0 0 0 0 0 0 0 0 0 0 0 0 0 0 0 0 0 0 0 0 0 0 0 0 0 0 0 
0 0 0 0 0 0 0 0 0 0 0 0 0 0 0 0 0 0 0 0 0 0 0 0 0 0 0 0 0 0 0 0 0 0 0 0 0 0 0 0 0 0 0 0 0 0 0 0 0 0 0 0 0 16 23 31 35 36 36 38 35 38 40 38 42 40 41 36 36 34 32 26 18 13 0 0 0 0 0 0 0 0 0 0 0 0 0 0 0 0 0 0 0 0 0 0 0 0 0 0 0 0 0 0 0 0 0 0 0 0 0 0 0 0 0 0 0 0 0 0 0 0 0 0 0 0 0 0 
0 0 0 0 0 0 0 0 0 0 0 0 0 0 0 0 0 0 0 0 0 0 0 0 0 0 0 0 0 0 0 0 0 0 0 0 0 0 0 0 0 0 0 0 0 0 0 0 0 0 0 0 0 0 0 0 0 0 0 0 13 13 11 13 0 0 0 0 0 0 0 0 0 0 0 0 0 0 0 0 0 0 0 0 0 0 0 0 0 0 0 0 0 0 0 0 0 0 0 0 0 0 0 0 0 0 0 0 0 0 0 0 0 0 0 0 0 0 0 0 0 0 0 0 0 0 0 0 
0 0 0 0 0 0 0 0 0 0 0 0 0 0 0 0 0 0 0 0 0 0 0 0 0 0 0 0 0 0 0 0 0 0 0 0 0 0 0 0 0 0 0 0 0 0 0 0 0 0 0 0 0 0 0 0 0 0 0 0 0 0 0 0 0 0 0 0 0 0 0 0 0 0 0 0 0 0 0 0 0 0 0 0 0 0 0 0 0 0 0 0 0 0 0 0 0 0 0 0 0 0 0 0 0 0 0 0 0 0 0 0 0 0 0 0 0 0 0 0 0 0 0 0 0 0 0 0 
0 0 0 0 0 0 0 0 0 0 0 0 0 0 0 0 0 0 0 0 0 0 0 0 0 0 0 0 0 0 0 0 0 0 0 0 0 0 0 0 0 0 0 0 0 0 0 0 0 0 0 0 0 0 0 0 0 0 0 0 0 0 0 0 0 0 0 0 0 0 0 0 0 0 0 0 0 0 0 0 0 0 0 0 0 0 0 0 0 0 0 0 0 0 0 0 0 0 0 0 0 0 0 0 0 0 0 0 0 0 0 0 0 0 0 0 0 0 0 0 0 0 0 0 0 0 0 0 
0 0 0 0 0 0 0 0 0 0 0 0 0 0 0 0 0 0 0 0 0 0 0 0 0 0 0 0 0 0 0 0 0 0 0 0 0 0 0 0 0 0 0 0 0 0 0 0 0 0 0 0 0 0 0 0 0 0 0 0 0 0 0 0 0 0 0 0 0 0 0 0 0 0 0 0 0 0 0 0 0 0 0 0 0 0 0 0 0 0 0 0 0 0 0 0 0 0 0 0 0 0 0 0 0 0 0 0 0 0 0 0 0 0 0 0 0 0 0 0 0 0 0 0 0 0 0 0 
0 0 0 0 0 0 0 0 0 0 0 0 0 0 0 0 0 0 0 0 0 0 0 0 0 0 0 0 0 0 0 0 0 0 0 0 0 0 0 0 0 0 0 0 0 0 0 0 0 0 0 0 0 0 0 0 0 0 0 0 0 0 0 0 0 0 0 0 0 0 0 0 0 0 0 0 0 0 0 0 0 0 0 0 0 0 0 0 0 0 0 0 0 0 0 0 0 0 0 0 0 0 0 0 0 0 0 0 0 0 0 0 0 0 0 0 0 0 0 0 0 0 0 0 0 0 0 0 
0 0 0 0 0 0 0 0 0 0 0 0 0 0 0 0 0 0 0 0 0 0 0 0 0 0 0 0 0 0 0 0 0 0 0 0 0 0 0 0 0 0 0 0 0 0 0 0 0 0 0 0 0 0 0 0 0 0 0 0 0 0 0 0 0 0 0 0 0 0 0 0 0 0 0 0 0 0 0 0 0 0 0 0 0 0 0 0 0 0 0 0 0 0 0 0 0 0 0 0 0 0 0 0 0 0 0 0 0 0 0 0 0 0 0 0 0 0 0 0 0 0 0 0 0 0 0 0 
0 0 0 0 0 0 0 0 0 0 0 0 0 0 0 0 0 0 0 0 0 0 0 0 0 0 0 0 0 0 0 0 0 0 0 0 0 0 0 0 0 0 0 0 0 0 0 0 0 0 0 0 0 0 0 0 0 0 0 0 0 0 0 0 0 0 0 0 0 0 0 0 0 0 0 0 0 0 0 0 0 0 0 0 0 0 0 0 0 0 0 0 0 0 0 0 0 0 0 0 0 0 0 0 0 0 0 0 0 0 0 0 0 0 0 0 0 0 0 0 0 0 0 0 0 0 0 0 
0 0 0 0 0 0 0 0 0 0 0 0 0 0 0 0 0 0 0 0 0 0 0 0 0 0 0 0 0 0 0 0 0 0 0 0 0 0 0 0 0 0 0 0 0 0 0 0 0 0 0 0 0 0 0 0 0 0 0 0 0 0 0 0 0 0 0 0 0 0 0 0 0 0 0 0 0 0 0 0 0 0 0 0 0 0 0 0 0 0 0 0 0 0 0 0 0 0 0 0 0 0 0 0 0 0 0 0 0 0 0 0 0 0 0 0 0 0 0 0 0 0 0 0 0 0 0 0 
