P2
128 128
88
0 0 0 0 0 0 0 0 0 0 0 0 0 0 0 0 0 0 0 0 0 0 0 0 0 0 0 0 0 0 0 0 0 0 0 0 0 0 0 0 0 0 0 0 0 0 0 0 0 0 0 0 0 0 0 0 0 0 0 0 0 0 0 0 0 0 0 0 0 0 0 0 0 0 0 0 0 0 0 0 0 0 0 0 0 0 0 0 0 0 0 0 0 0 0 0 0 0 0 0 0 0 0 0 0 0 0 0 0 0 0 0 0 0 0 0 0 0 0 0 0 0 0 0 0 0 0 0 
0 0 0 0 0 0 0 0 0 0 0 0 0 0 0 0 0 0 0 0 0 0 0 0 0 0 0 0 0 0 0 0 0 0 0 0 0 0 0 0 0 0 0 0 0 0 0 0 0 0 0 0 0 0 0 0 0 0 0 0 0 0 0 0 0 0 0 0 0 0 0 0 0 0 0 0 0 0 0 0 0 0 0 0 0 0 0 0 0 0 0 0 0 0 0 0 0 0 0 0 0 0 0 0 0 0 0 0 0 0 0 0 0 0 0 0 0 0 0 0 0 0 0 0 0 0 0 0 
0 0 0 0 0 0 0 0 0 0 0 0 0 0 0 0 0 0 0 0 0 0 0 0 0 0 0 0 0 0 0 0 0 0 0 0 0 0 0 0 0 0 0 0 0 0 0 0 0 0 0 0 0 0 0 0 0 0 0 0 0 0 0 0 0 0 0 0 0 0 0 0 0 0 0 0 0 0 0 0 0 0 0 0 0 0 0 0 0 0 0 0 0 0 0 0 0 0 0 0 0 0 0 0 0 0 0 0 0 0 0 0 0 0 0 0 0 0 0 0 0 0 0 0 0 0 0 0 
0 0 0 0 0 0 0 0 0 0 0 0 0 0 0 0 0 0 0 0 0 0 0 0 0 0 0 0 0 0 0 0 0 0 0 0 0 0 0 0 0 0 0 0 0 0 0 0 0 0 0 0 0 0 0 0 0 0 0 0 0 0 0 0 0 0 0 0 0 0 0 0 0 0 0 0 0 0 0 0 0 0 0 0 0 0 0 0 0 0 0 0 0 0 0 0 0 0 0 0 0 0 0 0 0 0 0 0 0 0 0 0 0 0 0 0 0 0 0 0 0 0 0 0 0 0 0 0 
0 0 0 0 0 0 0 0 0 0 0 0 0 0 0 0 0 0 0 0 0 0 0 0 0 0 0 0 0 0 0 0 0 0 0 0 0 0 0 0 0 0 0 0 0 0 0 0 0 0 0 0 0 0 0 0 0 0 0 0 0 0 0 0 0 0 0 0 0 0 0 0 0 0 0 0 0 0 0 0 0 0 0 0 0 0 0 0 0 0 0 0 0 0 0 0 0 0 0 0 0 0 0 0 0 0 0 0 0 0 0 0 0 0 0 0 0 0 0 0 0 0 0 0 0 0 0 0 
0 0 0 0 0 0 0 0 0 0 0 0 0 0 0 0 0 0 0 0 0 0 0 0 0 0 0 0 0 0 0 0 0 0 0 0 0 0 0 0 0 0 0 0 0 0 0 0 0 0 0 0 0 0 0 0 0 0 0 0 0 0 0 0 0 0 0 0 0 0 0 0 0 0 0 0 0 0 0 0 0 0 0 0 0 0 0 0 0 0 0 0 0 0 0 0 0 0 0 0 0 0 0 0 0 0 0 0 0 0 0 0 0 0 0 0 0 0 0 0 0 0 0 0 0 0 0 0 
0 0 0 0 0 0 0 0 0 0 0 0 0 0 0 0 0 0 0 0 0 0 0 0 0 0 0 0 0 0 0 0 0 0 0 0 0 0 0 0 0 0 0 0 0 0 0 0 0 0 0 0 0 0 0 0 0 0 0 0 0 0 0 0 0 0 0 0 0 0 0 0 0 0 0 0 0 0 0 0 0 0 0 0 0 0 0 0 0 0 0 0 0 0 0 0 0 0 0 0 0 0 0 0 0 0 0 0 0 0 0 0 0 0 0 0 0 0 0 0 0 0 0 0 0 0 0 0 
0 0 0 0 0 0 0 0 0 0 0 0 0 0 0 0 0 0 0 0 0 0 0 0 0 0 0 0 0 0 0 0 0 0 0 0 0 0 0 0 0 0 0 0 0 0 0 0 0 0 0 0 0 0 0 0 0 0 0 0 0 0 0 0 0 0 0 0 0 0 0 0 0 0 0 0 0 0 0 0 0 0 0 0 0 0 0 0 0 0 0 0 0 0 0 0 0 0 0 0 0 0 0 0 0 0 0 0 0 0 0 0 0 0 0 0 0 0 0 0 0 0 0 0 0 0 0 0 
0 0 0 0 0 0 0 0 0 0 0 0 0 0 0 0 0 0 0 0 0 0 0 0 0 0 0 0 0 0 0 0 0 0 0 0 0 0 0 0 0 0 0 0 0 0 0 0 0 0 0 0 0 0 0 0 0 0 0 0 0 0 0 0 0 0 0 0 0 0 0 0 0 0 0 0 0 0 0 0 0 0 0 0 0 0 0 0 0 0 0 0 0 0 0 0 0 0 0 0 0 0 0 0 0 0 0 0 0 0 0 0 0 0 0 0 0 0 0 0 0 0 0 0 0 0 0 0 
0 0 0 0 0 0 0 0 0 0 0 0 0 0 0 0 0 0 0 0 0 0 0 0 0 0 0 0 0 0 0 0 0 0 0 0 0 0 0 0 0 0 0 0 0 0 0 0 0 0 0 0 0 0 0 0 0 0 0 0 0 0 0 0 0 0 0 0 0 0 0 0 0 0 0 0 0 0 0 0 0 0 0 0 0 0 0 0 0 0 0 0 0 0 0 0 0 0 0 0 0 0 0 0 0 0 0 0 0 0 0 0 0 0 0 0 0 0 0 0 0 0 0 0 0 0 0 0 
0 0 0 0 0 0 0 0 0 0 0 0 0 0 0 0 0 0 0 0 0 0 0 0 0 0 0 0 0 0 0 0 0 0 0 0 0 0 0 0 0 0 0 0 0 0 0 0 0 0 0 0 0 0 0 0 0 0 0 0 0 0 0 0 0 0 0 0 0 0 0 0 0 0 0 0 0 0 0 0 0 0 0 0 0 0 0 0 0 0 0 0 0 0 0 0 0 0 0 0 0 0 0 0 0 0 0 0 0 0 0 0 0 0 0 0 0 0 0 0 0 0 0 0 0 0 0 0 
0 0 0 0 0 0 0 0 0 0 0 0 0 0 0 0 0 0 0 0 0 0 0 0 0 0 0 0 0 0 0 0 0 0 0 0 0 0 0 0 0 0 0 0 0 0 0 0 0 0 0 0 0 0 0 0 0 0 0 0 0 0 0 0 0 0 0 0 0 0 0 0 0 0 0 0 0 0 0 0 0 0 0 0 0 0 0 0 0 0 0 0 0 0 0 0 0 0 0 0 0 0 0 0 0 0 0 0 0 0 0 0 0 0 0 0 0 0 0 0 0 0 0 0 0 0 0 0 
0 0 0 0 0 0 0 0 0 0 0 0 0 0 0 0 0 0 0 0 0 0 0 0 0 0 0 0 0 0 0 0 0 0 0 0 0 0 0 0 0 0 0 0 0 0 0 0 0 0 0 0 0 0 0 0 0 0 0 0 0 0 0 0 0 0 0 0 0 0 0 0 0 0 0 0 0 0 0 0 0 0 0 0 0 0 0 0 0 0 0 0 0 0 0 0 0 0 0 0 0 0 0 0 0 0 0 0 0 0 0 0 0 0 0 0 0 0 0 0 0 0 0 0 0 0 0 0 
0 0 0 0 0 0 0 0 0 0 0 0 0 0 0 0 0 0 0 0 0 0 0 0 0 0 0 0 0 0 0 0 0 0 0 0 0 0 0 0 0 0 0 0 0 0 0 0 0 0 0 0 0 0 0 0 0 0 0 0 0 0 0 0 0 0 0 0 0 0 0 0 0 0 0 0 0 0 0 0 0 0 0 0 0 0 0 0 0 0 0 0 0 0 0 0 0 0 0 0 0 0 0 0 0 0 0 0 0 0 0 0 0 0 0 0 0 0 0 0 0 0 0 0 0 0 0 0 
0 0 0 0 0 0 0 0 0 0 0 0 0 0 0 0 0 0 0 0 0 0 0 0 0 0 0 0 0 0 0 0 0 0 0 0 0 0 0 0 0 0 0 0 0 0 0 0 0 0 0 0 0 0 0 0 0 0 0 0 0 0 0 0 0 0 0 0 0 0 0 0 0 0 0 0 0 0 0 0 0 0 0 0 0 0 0 0 0 0 0 0 0 0 0 0 0 0 0 0 0 0 0 0 0 0 0 0 0 0 0 0 0 0 0 0 0 0 0 0 0 0 0 0 0 0 0 0 
0 0 0 0 0 0 0 0 0 0 0 0 0 0 0 0 0 0 0 0 0 0 0 0 0 0 0 0 0 0 0 0 0 0 0 0 0 0 0 0 0 0 0 0 0 0 0 0 0 0 0 0 0 0 0 0 0 0 0 0 0 0 0 0 0 0 0 0 0 0 0 0 0 0 0 0 0 0 0 0 0 0 0 0 0 0 0 0 0 0 0 0 0 0 0 0 0 0 0 0 0 0 0 0 0 0 0 0 0 0 0 0 0 0 0 0 0 0 0 0 0 0 0 0 0 0 0 0 
0 0 0 0 0 0 0 0 0 0 0 0 0 0 0 0 0 0 0 0 0 0 0 0 0 0 0 0 0 0 0 0 0 0 0 0 0 0 0 0 0 0 0 0 0 0 0 0 0 0 0 0 0 0 0 0 0 0 0 0 0 0 0 0 0 0 0 0 0 0 0 0 0 0 0 0 0 0 0 0 0 0 0 0 0 0 0 0 0 0 0 0 0 0 0 0 0 0 0 0 0 0 0 0 0 0 0 0 0 0 0 0 0 0 0 0 0 0 0 0 0 0 0 0 0 0 0 0 
0 0 0 0 0 0 0 0 0 0 0 0 0 0 0 0 0 0 0 0 0 0 0 0 0 0 0 0 0 0 0 0 0 0 0 0 0 0 0 0 0 0 0 0 0 0 0 0 0 0 0 0 0 0 0 0 0 0 0 0 0 0 0 0 0 0 0 0 0 0 0 0 0 0 0 0 0 0 0 0 0 0 0 0 0 0 0 0 0 0 0 0 0 0 0 0 0 0 0 0 0 0 0 0 0 0 0 0 0 0 0 0 0 0 0 0 0 0 0 0 0 0 0 0 0 0 0 0 
0 0 0 0 0 0 0 0 0 0 0 0 0 0 0 0 0 0 0 0 0 0 0 0 0 0 0 0 0 0 0 0 0 0 0 0 0 0 0 0 0 0 0 0 0 0 0 0 0 0 0 0 0 0 0 0 0 0 0 0 0 0 0 0 0 0 0 0 0 0 0 0 0 0 0 0 0 0 0 0 0 0 0 0 0 0 0 0 0 0 0 0 0 0 0 0 0 0 0 0 0 0 0 0 0 0 0 0 0 0 0 0 0 0 0 0 0 0 0 0 0 0 0 0 0 0 0 0 
0 0 0 0 0 0 0 0 0 0 0 0 0 0 0 0 0 0 0 0 0 0 0 0 0 0 0 0 0 0 0 0 0 0 0 0 0 0 0 0 0 0 0 0 0 0 0 0 0 0 0 0 0 0 0 0 0 0 0 0 0 0 0 0 0 0 0 0 0 0 0 0 0 0 0 0 0 0 0 0 0 0 0 0 0 0 0 0 0 0 0 0 0 0 0 0 0 0 0 0 0 0 0 0 0 0 0 0 0 0 0 0 0 0 0 0 0 0 0 0 0 0 0 0 0 0 0 0 
0 0 0 0 0 0 0 0 0 0 0 0 0 0 0 0 0 0 0 0 0 0 0 0 0 0 0 0 0 0 0 0 0 0 0 0 0 0 0 0 0 0 0 0 0 0 0 0 0 0 0 0 0 0 0 0 0 0 0 0 0 0 0 0 0 0 0 0 0 0 0 0 0 0 0 0 0 0 0 0 0 0 0 0 0 0 0 0 0 0 0 0 0 0 0 0 0 0 0 0 0 0 0 0 0 0 0 0 0 0 0 0 0 0 0 0 0 0 0 0 0 0 0 0 0 0 0 0 
0 0 0 0 0 0 0 0 0 0 0 0 0 0 0 0 0 0 0 0 0 0 0 0 0 0 0 0 0 0 0 0 0 0 0 0 0 0 0 0 0 0 0 0 0 0 0 0 0 0 0 0 0 0 0 0 0 0 0 0 0 59 88 88 88 87 18 0 0 0 0 0 0 0 0 0 0 0 0 0 0 0 0 0 0 0 0 0 0 0 0 0 0 0 0 0 0 0 0 0 0 0 0 0 0 0 0 0 0 0 0 0 0 0 0 0 0 0 0 0 0 0 0 0 0 0 0 0 
0 0 0 0 0 0 0 0 0 0 0 0 0 0 0 0 0 0 0 0 0 0 0 0 0 0 0 0 0 0 0 0 0 0 0 0 0 0 0 0 0 0 0 0 0 0 0 0 0 0 0 0 0 0 0 0 0 0 0 0 88 88 57 65 66 88 88 36 0 0 0 0 0 0 0 0 0 0 0 0 0 0 0 0 0 0 0 0 0 0 0 0 0 0 0 0 0 0 0 0 0 0 0 0 0 0 0 0 0 0 0 0 0 0 0 0 0 0 0 0 0 0 0 0 0 0 0 0 
0 0 0 0 0 0 0 0 0 0 0 0 0 0 0 0 0 0 0 0 0 0 0 0 0 0 0 0 0 0 0 0 0 0 0 0 0 0 0 0 0 0 0 0 0 0 0 0 0 0 0 0 0 0 0 0 0 0 0 81 88 88 57 52 45 61 88 88 16 0 0 0 0 0 0 0 0 0 0 0 0 0 0 0 0 0 0 0 0 0 0 0 0 0 0 0 0 0 0 0 0 0 0 0 0 0 0 0 0 0 0 0 0 0 0 0 0 0 0 0 0 0 0 0 0 0 0 0 
0 0 0 0 0 0 0 0 0 0 0 0 0 0 0 0 0 0 0 0 0 0 0 0 0 0 0 0 0 0 0 0 0 0 0 0 0 0 0 0 0 0 0 0 0 0 0 0 0 0 0 0 0 0 0 0 0 0 28 88 88 63 27 28 33 28 88 88 88 0 0 0 0 0 0 0 0 0 0 0 0 0 0 0 0 0 0 0 0 0 0 0 0 0 0 0 0 0 0 0 0 0 0 0 0 0 0 0 0 0 0 0 0 0 0 0 0 0 0 0 0 0 0 0 0 0 0 0 
0 0 0 0 0 0 0 0 0 0 0 0 0 0 0 0 0 0 0 0 0 0 0 0 0 0 0 0 0 0 0 0 0 0 0 0 0 0 0 0 0 0 0 0 0 0 0 0 0 0 0 0 0 0 0 0 0 0 48 88 88 41 62 61 83 63 39 88 88 26 0 0 0 0 0 0 0 0 0 0 0 0 0 0 0 0 0 0 0 0 0 0 0 0 0 0 0 0 0 0 0 0 0 0 0 0 0 0 0 0 0 0 0 0 0 0 0 0 0 0 0 0 0 0 0 0 0 0 
0 0 0 0 0 0 0 0 0 0 0 0 0 0 0 0 0 0 0 0 0 0 0 0 0 0 0 0 0 0 0 0 0 0 0 0 0 0 0 0 0 0 0 0 0 0 0 0 0 0 0 0 0 0 0 0 0 0 62 70 18 75 13 88 79 88 23 58 68 59 0 0 0 0 0 0 0 0 0 0 0 0 0 0 0 0 0 0 0 0 0 0 0 0 0 0 0 0 0 0 0 0 0 0 0 0 0 0 0 0 0 0 0 0 0 0 0 0 0 0 0 0 0 0 0 0 0 0 
0 0 0 0 0 0 0 0 0 0 0 0 0 0 0 0 0 0 0 0 0 0 0 0 0 0 0 0 0 0 0 0 0 0 0 0 0 0 0 0 0 0 0 0 0 0 44 63 64 53 49 18 0 0 0 0 0 24 88 63 23 88 12 88 63 88 54 26 88 84 29 0 0 0 0 0 12 0 0 14 22 16 0 0 0 0 0 0 0 0 0 0 0 0 0 0 0 0 0 0 0 0 0 0 0 0 0 0 0 0 0 0 0 0 0 0 0 0 0 0 0 0 0 0 0 0 0 0 
0 0 0 0 0 0 0 0 0 0 0 0 0 0 0 0 0 0 0 0 0 0 0 0 0 0 0 0 0 0 0 0 0 0 0 0 0 0 0 0 0 0 0 0 45 76 75 67 65 72 83 74 36 0 0 0 32 43 40 13 69 88 9 88 75 88 88 50 44 45 59 22 0 0 0 15 21 31 40 50 53 57 53 31 0 0 0 0 0 0 0 0 0 0 0 0 0 0 0 0 0 0 0 0 0 0 0 0 0 0 0 0 0 0 0 0 0 0 0 0 0 0 0 0 0 0 0 0 
0 0 0 0 0 0 0 0 0 0 0 0 0 0 0 0 0 0 0 0 0 0 0 0 0 0 0 0 0 0 0 0 0 0 0 0 0 0 0 0 0 0 20 74 83 75 63 46 37 33 36 66 88 71 53 73 57 32 44 8 53 88 24 88 76 88 88 88 0 55 56 62 71 74 88 88 88 86 76 74 74 59 50 62 42 0 0 0 0 0 0 0 0 0 0 0 0 0 0 0 0 0 0 0 0 0 0 0 0 0 0 0 0 0 0 0 0 0 0 0 0 0 0 0 0 0 0 0 
0 0 0 0 0 0 0 0 0 0 0 0 0 0 0 0 0 0 0 0 0 0 0 0 0 0 0 0 0 0 0 0 0 0 0 0 0 0 0 0 0 28 70 82 88 71 36 40 31 33 37 49 77 69 74 73 54 66 62 3 45 88 55 88 88 88 88 68 5 39 70 71 68 81 80 81 68 75 76 52 46 55 72 64 55 39 0 0 0 0 0 0 0 0 0 0 0 0 0 0 0 0 0 0 0 0 0 0 0 0 0 0 0 0 0 0 0 0 0 0 0 0 0 0 0 0 0 0 
0 0 0 0 0 0 0 0 0 0 0 0 0 0 0 0 0 0 0 0 0 0 0 0 0 0 0 0 0 0 0 0 0 0 0 0 0 0 0 0 13 54 88 77 50 43 43 41 35 37 42 52 59 88 88 71 82 51 77 21 25 42 70 72 88 88 88 40 32 11 54 76 80 75 80 57 45 43 54 61 47 45 46 68 86 44 19 0 0 0 0 0 0 0 0 0 0 0 0 0 0 0 0 0 0 0 0 0 0 0 0 0 0 0 0 0 0 0 0 0 0 0 0 0 0 0 0 0 
0 0 0 0 0 0 0 0 0 0 0 0 0 0 0 0 0 0 0 0 0 0 0 0 0 0 0 0 0 0 0 0 0 0 0 0 0 0 0 0 35 84 71 38 30 27 23 22 26 26 23 29 37 51 53 56 88 54 70 6 15 36 69 76 88 88 88 50 41 68 63 88 88 51 45 37 35 31 32 33 46 55 56 74 80 81 19 0 0 0 0 0 0 0 0 0 0 0 0 0 0 0 0 0 0 0 0 0 0 0 0 0 0 0 0 0 0 0 0 0 0 0 0 0 0 0 0 0 
0 0 0 0 0 0 0 0 0 0 0 0 0 0 0 0 0 0 0 0 0 0 0 0 0 0 0 0 0 0 0 0 0 0 0 0 0 0 0 12 70 75 51 31 26 24 20 22 23 23 22 23 27 33 36 61 88 73 49 1 25 39 65 82 84 88 68 34 14 75 64 88 71 58 44 33 30 29 24 25 25 27 34 48 65 83 58 0 0 0 0 0 0 0 0 0 0 0 0 0 0 0 0 0 0 0 0 0 0 0 0 0 0 0 0 0 0 0 0 0 0 0 0 0 0 0 0 0 
0 0 0 0 0 0 0 0 0 0 0 0 0 0 0 0 0 0 0 0 0 0 0 0 0 0 0 0 0 0 0 0 0 0 0 0 0 0 0 58 65 71 43 28 24 23 24 24 23 21 24 24 26 32 40 68 88 88 45 5 82 88 63 88 79 88 38 13 44 15 88 88 88 69 35 33 28 24 23 23 24 24 26 34 48 72 82 39 0 0 0 0 0 0 0 0 0 0 0 0 0 0 0 0 0 0 0 0 0 0 0 0 0 0 0 0 0 0 0 0 0 0 0 0 0 0 0 0 
0 0 0 0 0 0 0 0 0 0 0 0 0 0 0 0 0 0 0 0 0 0 0 0 0 0 0 0 0 0 0 0 0 0 0 0 0 0 45 65 73 69 35 25 24 23 24 24 23 21 23 25 27 34 58 88 88 87 88 88 88 88 59 84 77 88 53 51 88 86 88 88 88 88 40 32 30 23 23 22 25 24 27 29 46 60 83 75 51 0 0 0 0 0 0 0 0 0 0 0 0 0 0 0 0 0 0 0 0 0 0 0 0 0 0 0 0 0 0 0 0 0 0 0 0 0 0 0 
0 0 0 0 0 0 0 0 0 0 0 0 0 0 0 0 0 0 0 0 0 0 0 0 0 0 0 0 0 0 0 0 0 0 0 0 0 55 61 73 70 65 34 25 27 23 23 26 24 24 23 20 29 38 75 88 88 69 23 39 42 36 72 52 88 88 77 81 88 29 40 88 88 88 62 38 30 26 25 21 22 25 24 32 45 66 80 88 59 88 0 0 0 0 0 0 0 0 0 0 0 0 0 0 0 0 0 0 0 0 0 0 0 0 0 0 0 0 0 0 0 0 0 0 0 0 0 0 
0 0 0 0 0 0 0 0 0 0 0 0 0 0 0 0 0 0 0 0 0 0 0 0 0 0 0 0 0 0 0 0 0 0 0 0 60 67 63 40 46 67 50 29 25 25 22 26 24 26 24 23 31 67 88 88 88 38 13 12 23 25 77 59 88 88 88 88 38 21 22 88 88 88 88 52 35 28 27 26 22 24 26 32 54 66 74 59 88 64 88 0 0 0 0 0 0 0 0 0 0 0 0 0 0 0 0 0 0 0 0 0 0 0 0 0 0 0 0 0 0 0 0 0 0 0 0 0 
0 0 0 0 0 0 0 0 0 0 0 0 0 0 0 0 0 0 0 0 0 0 0 0 0 0 0 0 0 0 0 0 0 0 0 55 69 83 24 30 54 84 59 55 22 24 26 25 22 24 24 29 55 88 88 88 88 13 7 8 11 34 69 86 88 88 87 57 38 47 0 88 88 88 88 88 51 39 30 27 28 26 26 42 79 84 88 40 24 88 57 88 14 0 0 0 0 0 0 0 0 0 0 0 0 0 0 0 0 0 0 0 0 0 0 0 0 0 0 0 0 0 0 0 0 0 0 0 
0 0 0 0 0 0 0 0 0 0 0 0 0 0 0 0 0 0 0 0 0 0 0 0 0 0 0 0 0 0 0 0 0 0 46 88 84 44 27 73 3 80 88 88 59 26 30 25 24 29 36 67 88 88 88 88 88 4 4 8 7 69 54 88 88 88 88 49 14 0 13 45 88 88 88 88 88 63 53 43 31 35 51 73 86 88 87 11 43 34 88 70 88 12 0 0 0 0 0 0 0 0 0 0 0 0 0 0 0 0 0 0 0 0 0 0 0 0 0 0 0 0 0 0 0 0 0 0 
0 0 0 0 0 0 0 0 0 0 0 0 0 0 0 0 0 0 0 0 0 0 0 0 0 0 0 0 0 65 79 20 0 20 88 64 81 16 67 88 28 42 88 88 88 88 88 66 68 88 88 88 88 88 88 88 46 2 17 21 9 62 5 88 88 88 83 63 13 1 0 9 88 88 88 88 88 88 88 88 88 88 88 88 88 88 46 64 88 17 88 88 88 88 0 0 0 0 0 0 0 0 0 0 0 0 0 0 0 0 0 0 0 0 0 0 0 0 0 0 0 0 0 0 0 0 0 0 
0 0 0 0 0 0 0 0 0 0 0 0 0 0 0 0 0 0 0 0 0 0 0 0 0 0 0 0 64 88 88 46 0 88 87 85 57 14 65 71 84 8 45 88 88 88 88 88 88 88 88 88 88 88 88 88 8 9 11 17 19 36 35 88 88 88 88 50 51 6 2 2 56 88 88 88 88 88 88 88 88 88 88 88 88 87 28 84 80 34 41 88 88 88 88 0 0 0 0 0 0 0 0 0 0 0 0 0 0 0 0 0 0 0 0 0 0 0 0 0 0 0 0 0 0 0 0 0 
0 0 0 0 0 0 0 0 0 0 0 0 0 0 0 0 0 0 0 0 0 0 0 0 0 0 0 21 88 88 88 30 74 88 77 74 26 13 32 27 50 53 17 57 88 88 88 88 88 88 88 88 88 88 88 76 15 15 8 7 19 29 42 88 88 88 88 82 51 34 14 1 23 83 88 87 88 88 88 88 88 88 88 88 88 20 65 88 52 24 5 88 88 88 88 69 13 0 0 0 0 0 0 0 0 0 0 0 0 0 0 0 0 0 0 0 0 0 0 0 0 0 0 0 0 0 0 0 
0 0 0 0 0 0 0 0 0 0 0 0 0 0 0 0 0 0 0 0 0 0 0 0 0 0 0 67 88 88 88 28 88 88 88 88 6 6 26 52 51 31 39 20 31 88 88 88 88 88 88 88 88 81 88 26 7 9 5 5 36 53 39 88 88 88 88 88 14 13 32 36 14 41 59 81 88 88 88 88 88 88 88 88 31 88 88 36 50 8 3 38 88 82 88 88 22 0 0 0 0 0 0 0 0 0 0 0 0 0 0 0 0 0 0 0 0 0 0 0 0 0 0 0 0 0 0 0 
0 0 0 0 0 0 0 0 0 0 0 0 0 0 0 0 0 0 0 0 0 0 0 0 0 0 14 88 88 88 60 88 88 88 88 88 5 31 52 59 58 58 42 21 30 29 57 88 88 88 88 88 88 59 54 9 5 18 21 8 37 31 51 88 88 88 88 88 50 23 40 3 4 9 31 56 88 88 88 88 88 88 69 17 71 65 34 55 57 41 13 36 88 88 85 88 88 0 0 0 0 0 0 0 0 0 0 0 0 0 0 0 0 0 0 0 0 0 0 0 0 0 0 0 0 0 0 0 
0 0 0 0 0 0 0 0 0 0 0 0 0 0 0 0 0 0 0 0 0 0 0 0 0 0 62 88 88 88 38 88 72 88 88 88 49 55 68 65 71 63 58 51 81 66 28 49 88 88 88 88 72 43 19 2 5 5 21 11 49 46 40 88 88 88 88 88 48 83 26 1 3 1 6 35 66 88 88 88 88 43 29 39 46 43 56 65 75 59 39 49 88 88 86 88 88 52 0 0 0 0 0 0 0 0 0 0 0 0 0 0 0 0 0 0 0 0 0 0 0 0 0 0 0 0 0 0 
0 0 0 0 0 0 0 0 0 0 0 0 0 0 0 0 0 0 0 0 0 0 0 0 0 12 88 88 88 67 84 88 78 88 88 88 88 61 60 58 75 74 64 56 67 88 88 43 63 70 88 88 46 23 3 4 4 11 12 25 46 55 40 88 88 88 88 88 88 67 5 5 1 1 1 15 41 88 88 47 69 31 63 71 48 55 64 71 68 62 74 84 88 88 88 76 88 88 0 0 0 0 0 0 0 0 0 0 0 0 0 0 0 0 0 0 0 0 0 0 0 0 0 0 0 0 0 0 
0 0 0 0 0 0 0 0 0 0 0 0 0 0 0 0 0 0 0 0 0 0 0 0 0 55 88 88 88 36 88 88 88 88 88 88 88 55 58 62 65 58 62 64 59 56 88 88 73 88 76 73 17 8 0 7 6 9 6 25 47 47 32 88 88 88 86 81 74 46 6 1 2 1 2 0 49 77 64 88 25 88 62 61 64 72 64 60 59 68 55 88 88 88 88 87 88 88 55 0 0 0 0 0 0 0 0 0 0 0 0 0 0 0 0 0 0 0 0 0 0 0 0 0 0 0 0 0 
0 0 0 0 0 0 0 0 0 0 0 0 0 0 0 0 0 0 0 0 0 0 0 0 11 78 88 88 70 74 88 88 88 88 88 88 88 60 59 64 67 25 51 53 63 88 83 61 81 88 88 30 19 1 4 8 1 14 13 31 41 88 23 88 85 88 88 83 76 44 14 3 3 1 0 0 21 64 82 78 87 88 69 88 76 54 63 69 60 58 77 88 88 88 88 88 88 88 88 0 0 0 0 0 0 0 0 0 0 0 0 0 0 0 0 0 0 0 0 0 0 0 0 0 0 0 0 0 
0 0 0 0 0 0 0 0 0 0 0 0 0 0 0 0 0 0 0 0 0 0 0 0 0 85 88 88 39 88 88 88 88 88 88 88 88 64 73 73 50 27 45 49 64 57 78 63 66 82 88 88 15 1 8 16 26 29 31 34 63 88 19 88 88 88 88 88 88 45 20 7 2 1 0 0 26 88 81 84 57 46 57 51 56 54 46 74 64 58 88 88 88 88 88 88 88 88 88 30 0 0 0 0 0 0 0 0 0 0 0 0 0 0 0 0 0 0 0 0 0 0 0 0 0 0 0 0 
0 0 0 0 0 0 0 0 0 0 0 0 0 0 0 0 0 0 0 0 0 0 0 0 0 32 63 19 88 88 88 88 88 88 88 88 88 68 80 22 1 25 54 48 61 88 64 88 84 72 83 88 88 39 16 6 5 13 28 55 88 44 59 88 88 88 88 88 86 63 40 15 1 13 2 31 88 88 78 60 67 88 64 56 50 47 16 61 80 69 88 88 88 88 88 88 88 88 88 84 0 0 0 0 0 0 0 0 0 0 0 0 0 0 0 0 0 0 0 0 0 0 0 0 0 0 0 0 
0 0 0 0 0 0 0 0 0 0 0 0 0 0 0 0 0 0 0 0 0 0 0 0 0 0 0 47 88 88 88 88 88 88 88 88 88 63 79 4 19 83 35 51 61 85 85 87 88 80 73 88 88 88 88 12 13 7 38 83 88 11 88 80 88 88 88 88 88 74 48 25 17 13 62 88 88 84 69 78 81 69 72 59 51 38 24 13 41 83 65 88 88 78 88 88 88 88 88 88 0 0 0 0 0 0 0 0 0 0 0 0 0 0 0 0 0 0 0 0 0 0 0 0 0 0 0 0 
0 0 0 0 0 0 0 0 0 0 0 0 0 0 0 0 0 0 0 0 0 0 0 0 0 0 0 88 88 88 88 88 88 88 88 88 88 62 45 28 84 55 50 48 61 88 87 70 78 88 88 76 88 88 88 88 33 14 26 75 86 15 88 39 75 88 67 88 88 86 37 15 47 88 88 88 88 57 70 84 70 80 88 60 58 35 80 39 29 88 59 88 88 88 87 88 88 88 88 88 31 0 0 0 0 0 0 0 0 0 0 0 0 0 0 0 0 0 0 0 0 0 0 0 0 0 0 0 
0 0 0 0 0 0 0 0 0 0 0 0 0 0 0 0 0 0 0 0 0 0 0 0 0 0 17 88 88 88 88 88 88 82 88 88 88 83 57 13 44 51 54 56 67 86 69 65 83 86 85 88 73 88 88 88 88 31 46 71 58 21 88 34 28 88 61 88 80 55 44 27 88 88 88 88 74 86 76 62 70 76 88 65 59 46 88 39 6 88 80 88 88 88 62 88 88 88 88 88 68 0 0 0 0 0 0 0 0 0 0 0 0 0 0 0 0 0 0 0 0 0 0 0 0 0 0 0 
0 0 0 0 0 0 0 0 0 0 0 0 0 0 0 0 0 0 0 0 0 0 0 0 0 0 45 88 88 88 88 88 83 79 88 88 88 80 38 27 49 60 55 60 88 65 59 88 74 68 75 75 72 69 88 88 88 73 76 58 41 36 76 31 19 86 59 67 79 85 78 70 88 88 87 60 71 64 70 83 86 88 86 76 56 52 56 55 7 71 63 73 88 88 77 62 88 88 88 88 80 0 0 0 0 0 0 0 0 0 0 0 0 0 0 0 0 0 0 0 0 0 0 0 0 0 0 0 
0 0 0 0 0 0 0 0 0 0 0 0 0 0 0 0 0 0 0 0 0 0 0 0 0 0 70 88 88 88 88 88 66 87 88 88 88 60 43 50 51 72 67 68 82 77 88 88 88 85 71 78 70 71 73 88 88 88 49 43 22 50 50 13 15 54 56 49 53 67 47 83 88 88 48 49 67 60 78 88 88 88 88 88 55 60 63 49 19 25 77 84 75 88 88 40 87 88 88 88 88 13 0 0 0 0 0 0 0 0 0 0 0 0 0 0 0 0 0 0 0 0 0 0 0 0 0 0 
0 0 0 0 0 0 0 0 0 0 0 0 0 0 0 0 0 0 0 0 0 0 0 0 0 0 83 88 88 88 88 67 68 88 79 88 59 63 34 53 53 88 66 83 88 77 87 88 88 88 88 88 85 45 63 76 51 88 58 45 20 43 26 13 17 36 49 38 39 43 64 88 63 70 50 34 50 66 87 88 88 88 88 88 45 78 56 54 37 21 81 68 88 75 84 38 56 88 88 88 88 26 0 0 0 0 0 0 0 0 0 0 0 0 0 0 0 0 0 0 0 0 0 0 0 0 0 0 
0 0 0 0 0 0 0 0 0 0 0 0 0 0 0 0 0 0 0 0 0 0 0 0 0 13 88 88 88 88 88 41 68 63 88 88 88 44 45 53 66 88 88 88 80 79 84 88 88 88 88 88 78 88 74 86 61 88 61 42 27 46 17 8 11 26 41 34 29 38 84 88 33 49 37 61 52 60 60 88 88 79 88 88 80 88 61 58 57 22 39 88 88 68 79 45 23 88 88 88 88 40 0 0 0 0 0 0 0 0 0 0 0 0 0 0 0 0 0 0 0 0 0 0 0 0 0 0 
0 0 0 0 0 0 0 0 0 0 0 0 0 0 0 0 0 0 0 0 0 0 0 0 0 19 88 88 88 88 88 25 66 67 84 88 80 43 46 56 85 88 88 84 69 72 76 75 88 88 88 67 78 88 75 80 67 81 55 42 39 36 8 7 5 30 34 29 43 61 88 75 62 57 49 54 56 52 56 79 88 84 79 78 81 88 88 62 54 41 27 88 84 59 71 46 11 88 88 88 88 56 0 0 0 0 0 0 0 0 0 0 0 0 0 0 0 0 0 0 0 0 0 0 0 0 0 0 
0 0 0 0 0 0 0 0 0 0 0 0 0 0 0 0 0 0 0 0 0 0 0 0 0 24 88 88 88 88 65 26 56 59 76 68 54 41 55 68 80 88 88 63 60 67 69 75 76 88 67 58 60 76 72 75 72 76 39 49 27 23 11 7 13 23 33 32 28 88 88 71 73 56 53 51 44 46 62 74 84 73 70 79 74 88 88 78 56 49 35 72 88 74 67 45 8 82 88 88 88 57 0 0 0 0 0 0 0 0 0 0 0 0 0 0 0 0 0 0 0 0 0 0 0 0 0 0 
0 0 0 0 0 0 0 0 0 0 0 0 0 0 0 0 0 0 0 0 0 0 0 0 0 32 88 88 88 88 48 20 50 56 67 78 42 43 55 55 81 77 67 66 63 55 54 64 75 68 56 54 56 63 83 74 74 70 15 41 21 13 7 9 11 16 26 41 36 80 87 66 84 60 60 48 44 52 59 71 66 75 77 77 80 88 88 88 74 58 44 49 88 85 63 39 9 63 88 88 88 65 0 0 0 0 0 0 0 0 0 0 0 0 0 0 0 0 0 0 0 0 0 0 0 0 0 0 
0 0 0 0 0 0 0 0 0 0 0 0 0 0 0 0 0 0 0 0 0 0 0 0 0 40 88 88 88 88 37 20 47 54 61 43 40 47 60 50 78 59 57 50 57 49 54 46 53 49 44 52 48 46 63 79 62 62 55 54 43 13 11 12 11 11 14 28 66 68 88 63 63 61 73 53 45 48 55 61 51 72 70 73 88 70 88 88 64 54 46 42 88 88 58 38 13 56 88 88 88 82 0 0 0 0 0 0 0 0 0 0 0 0 0 0 0 0 0 0 0 0 0 0 0 0 0 0 
0 0 0 0 0 0 0 0 0 0 0 0 0 0 0 0 0 0 0 0 0 0 0 0 0 44 88 88 88 88 28 21 45 54 50 41 42 59 57 36 59 49 41 30 37 38 45 37 40 33 40 48 44 51 59 66 66 67 51 38 49 22 9 11 14 11 18 44 88 88 88 81 63 70 66 63 54 49 56 49 55 55 67 66 63 56 85 88 69 55 51 43 42 70 73 33 12 56 88 88 88 69 0 0 0 0 0 0 0 0 0 0 0 0 0 0 0 0 0 0 0 0 0 0 0 0 0 0 
0 0 0 0 0 0 0 0 0 0 0 0 0 0 0 0 0 0 0 0 0 0 0 0 0 47 88 88 88 88 28 17 41 84 59 41 53 68 32 44 43 33 42 27 21 30 43 40 41 36 42 46 44 40 65 88 68 88 59 35 26 24 4 6 14 9 23 48 78 88 88 87 73 84 71 61 66 59 51 43 55 51 62 64 38 55 47 66 47 61 50 46 53 45 82 40 13 63 88 88 88 75 0 0 0 0 0 0 0 0 0 0 0 0 0 0 0 0 0 0 0 0 0 0 0 0 0 0 
0 0 0 0 0 0 0 0 0 0 0 0 0 0 0 0 0 0 0 0 0 0 0 0 0 46 88 88 88 88 29 25 47 39 47 52 63 55 35 41 37 38 45 28 22 18 31 39 42 39 42 42 37 26 63 73 71 88 65 31 22 18 3 5 12 12 12 47 88 88 88 88 58 86 63 86 78 58 48 42 46 43 43 31 39 48 38 69 35 66 63 40 55 86 46 23 14 64 88 88 88 82 12 0 0 0 0 0 0 0 0 0 0 0 0 0 0 0 0 0 0 0 0 0 0 0 0 0 
0 0 0 0 0 0 0 0 0 0 0 0 0 0 0 0 0 0 0 0 0 0 0 0 0 48 88 88 88 88 37 26 54 38 49 55 23 24 49 31 25 34 45 28 16 28 24 36 35 32 30 30 20 24 57 65 60 88 88 56 33 13 6 6 5 23 16 65 88 88 88 88 58 71 48 24 57 61 43 45 42 41 30 40 43 33 35 51 44 38 88 48 54 31 37 51 13 81 88 88 88 88 11 0 0 0 0 0 0 0 0 0 0 0 0 0 0 0 0 0 0 0 0 0 0 0 0 0 
0 0 0 0 0 0 0 0 0 0 0 0 0 0 0 0 0 0 0 0 0 0 0 0 0 40 88 88 88 88 65 22 58 49 22 24 37 33 38 27 21 29 44 24 18 19 27 34 31 35 36 43 50 27 39 44 56 85 88 88 88 72 52 26 51 69 88 88 88 88 88 88 54 48 59 35 30 51 46 48 46 36 30 28 33 24 39 28 24 46 36 64 61 34 59 62 11 88 88 88 88 88 15 0 0 0 0 0 0 0 0 0 0 0 0 0 0 0 0 0 0 0 0 0 0 0 0 0 
0 0 0 0 0 0 0 0 0 0 0 0 0 0 0 0 0 0 0 0 0 0 0 0 0 47 88 88 88 88 88 6 60 41 20 24 20 22 23 28 16 20 40 31 13 30 29 37 30 36 45 58 60 29 34 43 47 48 65 88 88 88 88 88 88 88 88 88 88 77 59 66 37 40 43 40 46 47 35 45 34 37 19 18 29 24 38 28 25 43 35 17 22 57 79 60 20 88 88 88 88 88 13 0 0 0 0 0 0 0 0 0 0 0 0 0 0 0 0 0 0 0 0 0 0 0 0 0 
0 0 0 0 0 0 0 0 0 0 0 0 0 0 0 0 0 0 0 0 0 0 0 0 0 51 88 88 88 88 88 12 33 20 31 35 29 21 17 22 22 15 37 25 18 28 41 34 51 44 50 43 33 26 43 31 40 51 73 84 88 88 88 88 88 88 88 88 84 80 64 45 36 44 30 31 59 61 48 41 29 40 22 16 23 30 27 24 22 37 31 30 33 49 70 38 40 88 88 88 88 88 23 0 0 0 0 0 0 0 0 0 0 0 0 0 0 0 0 0 0 0 0 0 0 0 0 0 
0 0 0 0 0 0 0 0 0 0 0 0 0 0 0 0 0 0 0 0 0 0 0 0 0 49 88 88 73 88 88 64 14 30 49 49 33 64 40 15 18 13 25 31 20 34 26 40 62 67 46 45 33 41 41 31 50 35 85 81 88 88 88 88 88 88 88 88 88 88 55 41 42 37 38 30 39 52 51 48 49 40 21 17 18 37 17 23 28 24 19 18 14 21 46 21 66 88 88 88 88 88 36 0 0 0 0 0 0 0 0 0 0 0 0 0 0 0 0 0 0 0 0 0 0 0 0 0 
0 0 0 0 0 0 0 0 0 0 0 0 0 0 0 0 0 0 0 0 0 0 0 0 0 56 88 88 79 83 55 66 26 27 64 85 66 37 66 37 17 13 17 24 21 34 51 88 88 49 51 44 34 43 31 39 48 59 87 88 88 88 88 88 88 88 88 88 88 88 68 38 38 29 40 27 29 47 45 81 72 26 27 11 26 18 25 13 8 19 33 47 42 24 13 13 84 88 88 88 88 88 44 0 0 0 0 0 0 0 0 0 0 0 0 0 0 0 0 0 0 0 0 0 0 0 0 0 
0 0 0 0 0 0 0 0 0 0 0 0 0 0 0 0 0 0 0 0 0 0 0 0 0 50 88 88 43 42 68 71 39 33 38 75 88 64 45 69 49 16 12 31 13 34 73 88 26 57 40 42 37 31 37 39 53 42 84 88 88 88 88 88 88 88 88 88 88 88 84 53 28 26 30 34 38 49 63 50 88 79 30 20 18 26 14 16 18 63 68 34 53 42 32 22 70 63 61 88 88 88 54 0 0 0 0 0 0 0 0 0 0 0 0 0 0 0 0 0 0 0 0 0 0 0 0 0 
0 0 0 0 0 0 0 0 0 0 0 0 0 0 0 0 0 0 0 0 0 0 0 0 0 54 88 86 28 53 64 58 41 43 30 31 62 88 61 53 63 62 28 9 19 56 51 26 24 31 29 43 32 41 50 53 35 52 81 88 88 88 88 88 88 88 88 88 88 87 73 41 38 13 28 28 40 48 63 62 68 69 35 20 14 17 19 26 65 35 46 88 79 69 21 43 75 77 56 48 85 88 71 0 0 0 0 0 0 0 0 0 0 0 0 0 0 0 0 0 0 0 0 0 0 0 0 0 
0 0 0 0 0 0 0 0 0 0 0 0 0 0 0 0 0 0 0 0 0 0 0 0 0 72 88 88 80 63 66 59 67 59 34 27 26 48 83 79 61 36 37 26 57 21 12 13 35 35 39 40 47 60 69 49 49 66 85 88 88 88 88 88 88 88 88 88 88 88 69 34 36 40 41 34 39 31 38 59 38 55 30 27 16 19 48 78 53 64 88 79 74 38 37 51 88 27 63 56 88 88 88 0 0 0 0 0 0 0 0 0 0 0 0 0 0 0 0 0 0 0 0 0 0 0 0 0 
0 0 0 0 0 0 0 0 0 0 0 0 0 0 0 0 0 0 0 0 0 0 0 0 0 88 88 67 32 67 36 23 31 86 80 31 32 29 34 52 44 49 31 44 43 15 9 24 29 35 36 32 57 70 59 43 60 56 88 83 88 88 88 88 88 88 88 88 88 86 88 38 36 44 56 49 34 40 49 58 39 29 41 46 29 48 40 56 83 88 79 79 49 38 50 84 25 56 88 78 59 88 88 0 0 0 0 0 0 0 0 0 0 0 0 0 0 0 0 0 0 0 0 0 0 0 0 0 
0 0 0 0 0 0 0 0 0 0 0 0 0 0 0 0 0 0 0 0 0 0 0 0 23 80 28 32 48 51 70 68 62 37 82 59 29 37 36 28 33 40 41 38 11 54 24 31 41 40 34 43 64 58 61 70 82 74 88 88 88 88 88 88 88 88 88 88 88 85 88 54 46 33 45 57 45 31 38 46 52 27 16 39 26 60 73 79 84 81 60 43 41 51 52 38 45 49 32 30 34 24 53 54 0 0 0 0 0 0 0 0 0 0 0 0 0 0 0 0 0 0 0 0 0 0 0 0 
0 0 0 0 0 0 0 0 0 0 0 0 0 0 0 0 0 0 0 0 0 0 0 0 52 38 53 41 81 88 88 88 43 41 48 51 39 37 30 54 53 25 23 15 20 31 25 88 47 47 34 43 57 44 59 74 86 81 88 88 88 88 78 69 74 81 88 88 88 88 82 74 74 46 43 47 44 30 32 46 52 38 28 25 34 37 45 57 62 48 35 37 31 68 48 64 72 88 88 82 43 45 36 40 13 0 0 0 0 0 0 0 0 0 0 0 0 0 0 0 0 0 0 0 0 0 0 0 
0 0 0 0 0 0 0 0 0 0 0 0 0 0 0 0 0 0 0 0 0 0 0 17 58 61 54 88 88 88 88 88 41 30 34 61 43 28 45 40 18 15 3 9 28 24 9 33 65 55 52 40 37 80 75 83 87 85 87 88 88 73 60 53 55 59 60 75 88 88 87 87 88 51 46 31 36 35 23 32 34 31 12 15 29 57 62 46 38 42 28 19 56 59 60 35 88 88 88 88 88 64 38 38 41 0 0 0 0 0 0 0 0 0 0 0 0 0 0 0 0 0 0 0 0 0 0 0 
0 0 0 0 0 0 0 0 0 0 0 0 0 0 0 0 0 0 0 0 0 0 0 25 37 43 86 88 88 88 88 74 9 24 32 32 24 20 30 15 4 11 13 13 8 40 26 30 47 25 35 55 85 41 80 87 87 88 88 88 87 49 44 41 43 45 51 51 88 88 88 85 84 74 68 52 27 34 40 48 64 28 22 24 13 31 45 58 58 40 38 25 41 46 38 21 56 88 88 88 88 88 88 44 30 0 0 0 0 0 0 0 0 0 0 0 0 0 0 0 0 0 0 0 0 0 0 0 
0 0 0 0 0 0 0 0 0 0 0 0 0 0 0 0 0 0 0 0 0 0 0 0 68 88 88 88 88 88 67 6 8 20 31 26 34 20 8 12 13 40 24 25 38 31 31 73 81 88 52 69 81 53 88 88 88 88 88 86 69 40 40 30 33 32 33 41 60 88 88 88 88 85 88 34 73 22 29 64 38 18 11 23 7 1 18 28 36 44 41 27 31 32 31 19 9 44 88 88 88 88 88 88 70 20 0 0 0 0 0 0 0 0 0 0 0 0 0 0 0 0 0 0 0 0 0 0 
0 0 0 0 0 0 0 0 0 0 0 0 0 0 0 0 0 0 0 0 0 0 12 53 83 88 88 88 88 33 33 51 45 23 24 24 32 23 35 20 34 28 22 9 17 29 21 22 53 25 39 65 70 79 76 88 88 88 88 74 28 13 26 22 22 23 17 40 28 82 87 88 88 88 79 49 87 78 32 83 75 32 28 38 6 3 15 13 0 17 43 24 34 24 24 18 75 35 23 59 88 88 88 88 88 88 31 13 0 0 0 0 0 0 0 0 0 0 0 0 0 0 0 0 0 0 0 0 
0 0 0 0 0 0 0 0 0 0 0 0 0 0 0 0 0 0 0 0 0 0 18 72 81 88 88 39 13 31 42 62 82 56 33 26 41 35 30 31 34 26 11 6 13 13 22 7 66 65 53 62 42 87 73 87 88 88 88 37 19 18 30 22 28 32 8 23 37 43 88 88 88 82 70 88 74 88 64 88 57 88 71 20 17 19 31 16 12 12 33 21 29 19 24 51 52 51 40 12 15 60 88 88 88 88 85 0 0 0 0 0 0 0 0 0 0 0 0 0 0 0 0 0 0 0 0 0 
0 0 0 0 0 0 0 0 0 0 0 0 0 0 0 0 0 0 0 0 0 0 14 47 46 59 25 0 0 42 55 88 49 53 38 21 20 45 25 11 19 44 31 27 5 14 34 8 15 68 17 44 34 65 88 62 88 83 55 18 11 28 22 26 17 31 31 15 48 33 74 88 88 64 88 77 83 61 88 77 88 88 76 39 35 50 27 37 7 16 28 14 26 39 39 72 64 43 46 6 0 0 15 46 72 81 42 0 0 0 0 0 0 0 0 0 0 0 0 0 0 0 0 0 0 0 0 0 
0 0 0 0 0 0 0 0 0 0 0 0 0 0 0 0 0 0 0 0 0 0 0 0 17 15 13 0 0 51 40 23 32 26 17 16 11 12 18 44 61 54 46 7 5 23 21 21 14 9 54 47 83 38 88 67 56 55 13 7 8 35 24 23 46 33 37 21 31 38 36 88 78 57 88 88 88 20 58 61 52 23 11 14 23 45 9 31 15 26 25 31 45 40 52 44 51 80 49 38 0 11 0 13 0 0 0 0 0 0 0 0 0 0 0 0 0 0 0 0 0 0 0 0 0 0 0 0 
0 0 0 0 0 0 0 0 0 0 0 0 0 0 0 0 0 0 0 0 0 0 0 0 13 0 0 0 25 60 48 28 19 5 2 8 6 13 35 46 26 28 62 39 36 27 17 25 23 35 45 44 77 65 57 66 49 14 19 6 17 30 44 45 41 39 36 8 19 40 28 25 53 88 88 88 88 63 56 13 42 62 30 39 45 33 42 44 22 25 13 28 25 8 9 18 35 43 54 48 23 0 0 0 0 15 0 0 0 0 0 0 0 0 0 0 0 0 0 0 0 0 0 0 0 0 0 0 
0 0 0 0 0 0 0 0 0 0 0 0 0 0 0 0 0 0 0 0 0 0 0 0 0 0 0 16 43 41 31 12 7 4 4 13 3 13 20 13 21 29 67 64 45 35 12 42 17 50 7 55 12 58 78 54 11 24 29 25 47 46 59 43 52 56 39 31 13 30 31 23 41 68 88 88 35 34 47 24 34 53 74 22 52 72 62 29 77 32 19 22 5 14 1 7 11 19 56 56 13 0 0 0 15 19 19 0 0 0 0 0 0 0 0 0 0 0 0 0 0 0 0 0 0 0 0 0 
0 0 0 0 0 0 0 0 0 0 0 0 0 0 0 0 0 0 0 0 0 0 0 0 0 0 13 23 59 55 31 9 12 13 5 6 3 8 17 26 14 40 71 73 47 26 27 19 50 35 9 40 37 34 78 51 37 24 32 35 47 55 56 59 62 59 46 39 25 24 36 30 44 56 88 52 23 18 18 5 17 11 43 57 88 88 62 31 17 43 11 12 12 4 3 8 2 16 30 59 51 16 0 0 17 29 23 0 0 0 0 0 0 0 0 0 0 0 0 0 0 0 0 0 0 0 0 0 
0 0 0 0 0 0 0 0 0 0 0 0 0 0 0 0 0 0 0 0 0 0 0 0 0 0 31 88 69 55 22 2 14 3 1 2 3 16 3 41 38 57 65 62 42 35 21 37 45 42 37 31 16 22 29 44 27 27 29 37 54 60 54 61 61 56 57 56 28 31 32 29 49 54 61 9 13 32 12 37 32 42 73 73 77 88 42 58 22 34 28 11 8 4 18 12 6 0 30 58 76 46 0 0 0 31 40 0 0 0 0 0 0 0 0 0 0 0 0 0 0 0 0 0 0 0 0 0 
0 0 0 0 0 0 0 0 0 0 0 0 0 0 0 0 0 0 0 0 0 14 21 0 0 27 62 47 49 53 23 14 33 5 3 6 12 11 0 41 55 33 55 46 25 16 25 50 49 37 44 28 22 24 18 51 24 33 29 31 60 59 60 58 56 51 56 50 25 33 38 43 47 35 17 17 25 76 31 30 34 23 49 61 71 67 27 61 36 22 8 6 7 9 2 27 18 0 31 73 60 62 59 0 19 28 48 58 0 0 0 0 0 0 0 0 0 0 0 0 0 0 0 0 0 0 0 0 
0 0 0 0 0 0 0 0 0 0 0 0 0 0 0 0 0 0 0 0 66 69 45 17 27 62 30 38 82 55 36 6 31 40 8 11 9 1 3 53 58 34 25 30 36 33 47 60 30 34 32 31 52 34 25 37 22 21 22 47 61 62 63 55 56 66 63 54 34 39 34 40 35 22 20 24 32 43 53 41 42 55 13 36 31 55 43 58 44 13 17 18 13 2 1 24 31 2 34 78 71 38 68 88 74 88 88 57 49 0 0 0 0 0 0 0 0 0 0 0 0 0 0 0 0 0 0 0 
0 0 0 0 0 0 0 0 0 0 0 0 0 0 0 0 0 0 0 12 59 85 88 88 71 33 14 0 77 59 51 11 20 13 20 1 0 4 9 57 44 26 8 20 34 47 61 37 30 37 26 43 58 26 35 29 31 34 31 30 65 58 59 61 66 65 62 56 30 46 44 40 40 21 24 27 19 23 64 50 40 48 71 57 14 22 28 45 41 25 17 11 5 2 0 21 13 12 44 70 32 0 18 30 57 39 79 68 28 0 0 0 0 0 0 0 0 0 0 0 0 0 0 0 0 0 0 0 
0 0 0 0 0 0 0 0 0 0 0 0 0 0 0 0 0 0 12 27 33 57 40 29 28 0 0 0 50 78 45 31 16 23 20 11 12 12 22 40 23 33 28 8 34 36 35 42 50 46 19 37 41 28 33 38 53 51 49 41 45 59 60 58 54 56 55 45 40 51 53 51 36 36 39 29 34 12 29 55 38 51 65 67 49 17 18 49 48 22 16 8 6 8 11 18 13 38 35 68 11 0 11 0 0 13 76 57 15 0 0 0 0 0 0 0 0 0 0 0 0 0 0 0 0 0 0 0 
0 0 0 0 0 0 0 0 0 0 0 0 0 0 0 0 0 0 22 88 62 61 22 0 0 0 0 0 27 75 52 34 29 47 50 57 51 30 45 19 37 46 55 35 33 39 54 61 44 51 35 29 42 33 38 51 52 52 54 50 38 49 58 54 55 58 35 23 42 53 55 50 48 46 43 36 41 18 22 41 60 67 65 60 56 43 39 50 43 18 15 4 6 17 39 27 31 44 66 48 0 0 0 0 0 0 66 88 88 45 0 0 0 0 0 0 0 0 0 0 0 0 0 0 0 0 0 0 
0 0 0 0 0 0 0 0 0 0 0 0 0 0 0 0 0 0 21 63 82 50 12 0 0 0 0 0 13 70 74 45 32 35 61 56 61 47 37 24 28 43 48 69 52 61 51 41 33 39 35 46 45 44 44 44 49 49 53 53 41 36 26 38 42 31 19 27 27 44 53 43 49 38 40 29 39 56 53 47 32 40 41 56 65 69 58 38 33 14 19 7 13 21 15 20 34 74 79 32 0 0 0 0 0 0 36 48 48 26 0 0 0 0 0 0 0 0 0 0 0 0 0 0 0 0 0 0 
0 0 0 0 0 0 0 0 0 0 0 0 0 0 0 0 0 0 0 41 48 41 0 0 0 0 0 0 0 49 88 33 42 33 44 52 51 63 49 31 25 35 44 49 49 43 39 35 38 43 43 46 46 50 49 46 45 46 50 52 43 45 33 23 24 26 27 38 45 27 38 48 51 43 39 44 40 52 45 49 54 45 39 45 42 56 53 31 25 27 21 15 13 30 16 32 50 64 44 13 0 0 0 0 0 0 0 26 19 0 0 0 0 0 0 0 0 0 0 0 0 0 0 0 0 0 0 0 
0 0 0 0 0 0 0 0 0 0 0 0 0 0 0 0 0 0 0 0 0 0 0 0 0 0 0 0 0 29 73 88 47 45 41 56 78 77 66 47 18 44 29 45 46 41 38 44 45 49 49 44 47 54 55 50 45 45 44 49 41 46 35 28 26 27 35 42 47 48 33 52 49 40 49 47 51 43 56 77 67 51 43 32 53 46 43 42 29 20 43 46 50 28 38 50 81 88 40 0 0 0 0 0 0 0 0 0 0 0 0 0 0 0 0 0 0 0 0 0 0 0 0 0 0 0 0 0 
0 0 0 0 0 0 0 0 0 0 0 0 0 0 0 0 0 0 0 0 0 0 0 0 0 0 0 0 0 17 81 88 86 52 46 37 74 71 36 57 34 47 37 28 40 34 37 37 48 50 53 50 47 57 53 51 53 38 39 39 37 41 38 27 26 30 37 44 45 46 45 31 37 42 48 49 55 58 66 54 56 49 35 45 38 30 32 33 35 37 73 87 37 51 52 77 88 50 13 0 0 0 0 0 0 0 0 0 0 0 0 0 0 0 0 0 0 0 0 0 0 0 0 0 0 0 0 0 
0 0 0 0 0 0 0 0 0 0 0 0 0 0 0 0 0 0 0 0 0 0 0 0 0 0 0 0 0 0 34 88 88 55 43 49 59 63 31 60 42 36 35 24 28 42 31 34 40 51 51 47 50 50 50 49 51 41 31 32 32 36 38 26 22 31 35 42 42 51 45 17 31 38 50 52 61 59 48 47 45 45 29 26 30 27 37 42 43 45 56 43 48 51 73 88 76 24 0 0 0 0 0 0 0 0 0 0 0 0 0 0 0 0 0 0 0 0 0 0 0 0 0 0 0 0 0 0 
0 0 0 0 0 0 0 0 0 0 0 0 0 0 0 0 0 0 0 0 0 0 0 0 0 0 0 0 0 0 26 71 88 88 40 52 48 30 30 59 43 37 39 29 34 46 48 35 40 47 50 54 55 51 52 49 50 41 25 16 28 47 33 27 25 24 36 49 45 49 19 25 42 47 49 55 55 43 47 41 40 34 32 36 28 28 38 53 42 73 58 49 44 59 88 88 40 0 0 0 0 0 0 0 0 0 0 0 0 0 0 0 0 0 0 0 0 0 0 0 0 0 0 0 0 0 0 0 
0 0 0 0 0 0 0 0 0 0 0 0 0 0 0 0 0 0 0 0 0 0 0 0 0 0 0 0 0 0 12 43 88 88 75 49 48 56 68 88 52 43 38 31 37 43 52 45 37 39 47 49 48 50 48 46 42 37 24 15 32 29 36 42 44 39 40 31 39 24 13 31 39 45 44 50 45 42 45 35 30 34 36 35 40 33 40 62 88 88 78 45 56 88 88 67 21 0 0 0 0 0 0 0 0 0 0 0 0 0 0 0 0 0 0 0 0 0 0 0 0 0 0 0 0 0 0 0 
0 0 0 0 0 0 0 0 0 0 0 0 0 0 0 0 0 0 0 0 0 0 0 0 0 0 0 0 0 0 0 29 77 88 88 70 55 57 36 73 64 48 42 44 40 47 43 27 39 41 41 43 44 45 43 41 44 43 38 39 49 50 40 43 36 32 32 39 56 47 35 35 43 42 44 41 36 32 29 27 30 31 39 41 45 48 45 88 88 63 47 62 88 88 88 37 0 0 0 0 0 0 0 0 0 0 0 0 0 0 0 0 0 0 0 0 0 0 0 0 0 0 0 0 0 0 0 0 
0 0 0 0 0 0 0 0 0 0 0 0 0 0 0 0 0 0 0 0 0 0 0 0 0 0 0 0 0 0 0 17 49 88 88 88 68 45 44 60 88 56 52 48 37 40 43 43 42 36 32 37 37 41 35 36 35 27 24 30 49 52 39 32 29 34 38 58 58 49 32 34 40 38 38 35 29 33 26 35 38 35 41 43 41 52 64 53 45 55 59 74 88 88 60 23 0 0 0 0 0 0 0 0 0 0 0 0 0 0 0 0 0 0 0 0 0 0 0 0 0 0 0 0 0 0 0 0 
0 0 0 0 0 0 0 0 0 0 0 0 0 0 0 0 0 0 0 0 0 0 0 0 0 0 0 0 0 0 0 0 34 74 88 75 84 45 49 44 45 51 58 53 46 45 52 57 43 31 28 41 44 37 24 16 18 23 19 19 34 41 35 43 37 57 44 47 49 46 34 30 32 28 31 30 25 33 36 36 43 44 39 58 46 49 68 44 48 88 62 88 88 88 40 0 0 0 0 0 0 0 0 0 0 0 0 0 0 0 0 0 0 0 0 0 0 0 0 0 0 0 0 0 0 0 0 0 
0 0 0 0 0 0 0 0 0 0 0 0 0 0 0 0 0 0 0 0 0 0 0 0 0 0 0 0 0 0 0 0 18 55 88 88 88 66 46 43 45 58 50 43 49 51 60 72 63 51 40 46 39 30 26 18 17 18 20 26 45 31 47 39 40 52 26 44 41 34 32 28 26 23 29 21 22 25 32 38 36 41 41 67 44 57 50 53 80 88 88 88 88 63 18 0 0 0 0 0 0 0 0 0 0 0 0 0 0 0 0 0 0 0 0 0 0 0 0 0 0 0 0 0 0 0 0 0 
0 0 0 0 0 0 0 0 0 0 0 0 0 0 0 0 0 0 0 0 0 0 0 0 0 0 0 0 0 0 0 0 0 36 88 88 88 88 88 74 43 47 22 40 53 53 54 59 45 49 38 41 29 31 57 37 42 36 32 58 54 40 42 36 50 32 53 55 50 29 42 36 27 39 31 42 25 31 32 38 45 45 48 54 45 56 51 71 86 88 88 88 80 32 0 0 0 0 0 0 0 0 0 0 0 0 0 0 0 0 0 0 0 0 0 0 0 0 0 0 0 0 0 0 0 0 0 0 
0 0 0 0 0 0 0 0 0 0 0 0 0 0 0 0 0 0 0 0 0 0 0 0 0 0 0 0 0 0 0 0 0 13 44 83 88 88 88 88 31 43 35 67 46 58 55 57 47 57 51 48 54 52 60 65 67 62 60 60 53 50 46 63 58 44 46 72 52 36 39 75 56 47 70 39 53 36 41 47 49 53 54 48 52 50 63 88 88 88 88 88 48 16 0 0 0 0 0 0 0 0 0 0 0 0 0 0 0 0 0 0 0 0 0 0 0 0 0 0 0 0 0 0 0 0 0 0 
0 0 0 0 0 0 0 0 0 0 0 0 0 0 0 0 0 0 0 0 0 0 0 0 0 0 0 0 0 0 0 0 0 0 28 58 88 88 88 86 88 28 44 39 55 54 52 60 54 57 49 48 56 51 49 79 88 74 70 62 63 69 88 88 79 83 60 55 63 63 49 49 77 58 48 62 49 45 48 51 56 52 49 51 45 67 88 88 69 88 88 57 28 0 0 0 0 0 0 0 0 0 0 0 0 0 0 0 0 0 0 0 0 0 0 0 0 0 0 0 0 0 0 0 0 0 0 0 
0 0 0 0 0 0 0 0 0 0 0 0 0 0 0 0 0 0 0 0 0 0 0 0 0 0 0 0 0 0 0 0 0 0 0 37 63 88 74 88 88 88 87 59 44 57 50 53 56 53 48 51 47 53 64 60 64 82 84 82 88 88 83 88 88 88 67 82 65 83 68 72 63 64 65 51 46 52 59 59 53 47 57 40 71 88 88 88 88 88 61 35 0 0 0 0 0 0 0 0 0 0 0 0 0 0 0 0 0 0 0 0 0 0 0 0 0 0 0 0 0 0 0 0 0 0 0 0 
0 0 0 0 0 0 0 0 0 0 0 0 0 0 0 0 0 0 0 0 0 0 0 0 0 0 0 0 0 0 0 0 0 0 0 15 43 75 88 88 88 88 88 88 60 44 73 63 61 54 56 50 51 62 54 71 83 84 77 67 56 88 88 88 88 77 85 71 55 65 63 72 74 64 72 59 52 49 48 46 48 46 46 78 88 88 88 88 88 66 35 11 0 0 0 0 0 0 0 0 0 0 0 0 0 0 0 0 0 0 0 0 0 0 0 0 0 0 0 0 0 0 0 0 0 0 0 0 
0 0 0 0 0 0 0 0 0 0 0 0 0 0 0 0 0 0 0 0 0 0 0 0 0 0 0 0 0 0 0 0 0 0 0 0 24 44 72 88 88 88 88 88 88 55 31 41 40 47 49 48 45 43 62 80 52 44 49 46 45 61 75 88 68 86 88 32 46 47 45 44 57 49 38 41 39 41 40 42 43 52 86 88 88 88 88 88 67 40 16 0 0 0 0 0 0 0 0 0 0 0 0 0 0 0 0 0 0 0 0 0 0 0 0 0 0 0 0 0 0 0 0 0 0 0 0 0 
0 0 0 0 0 0 0 0 0 0 0 0 0 0 0 0 0 0 0 0 0 0 0 0 0 0 0 0 0 0 0 0 0 0 0 0 0 25 46 76 88 88 88 88 88 88 73 43 47 47 45 41 44 42 37 40 47 48 48 49 46 67 54 67 57 88 66 67 46 47 50 45 42 41 46 39 41 44 44 48 60 86 88 88 88 88 88 73 43 20 0 0 0 0 0 0 0 0 0 0 0 0 0 0 0 0 0 0 0 0 0 0 0 0 0 0 0 0 0 0 0 0 0 0 0 0 0 0 
0 0 0 0 0 0 0 0 0 0 0 0 0 0 0 0 0 0 0 0 0 0 0 0 0 0 0 0 0 0 0 0 0 0 0 0 0 0 23 44 64 88 88 88 88 88 88 77 61 48 50 50 46 49 47 48 46 44 46 56 39 42 40 53 63 42 43 71 68 44 42 47 44 43 48 45 47 46 56 63 86 88 88 88 88 88 63 40 20 0 0 0 0 0 0 0 0 0 0 0 0 0 0 0 0 0 0 0 0 0 0 0 0 0 0 0 0 0 0 0 0 0 0 0 0 0 0 0 
0 0 0 0 0 0 0 0 0 0 0 0 0 0 0 0 0 0 0 0 0 0 0 0 0 0 0 0 0 0 0 0 0 0 0 0 0 0 0 22 42 53 83 88 88 88 88 88 88 68 51 50 47 46 45 45 48 41 51 47 44 43 44 46 49 48 49 43 72 50 48 47 49 48 48 51 55 66 87 88 88 88 88 88 88 60 35 18 0 0 0 0 0 0 0 0 0 0 0 0 0 0 0 0 0 0 0 0 0 0 0 0 0 0 0 0 0 0 0 0 0 0 0 0 0 0 0 0 
0 0 0 0 0 0 0 0 0 0 0 0 0 0 0 0 0 0 0 0 0 0 0 0 0 0 0 0 0 0 0 0 0 0 0 0 0 0 0 0 15 35 61 74 88 88 88 88 88 88 88 77 82 66 56 47 45 55 52 43 40 34 21 41 41 47 55 59 58 61 48 42 50 65 80 75 85 88 88 88 88 88 88 74 49 37 15 0 0 0 0 0 0 0 0 0 0 0 0 0 0 0 0 0 0 0 0 0 0 0 0 0 0 0 0 0 0 0 0 0 0 0 0 0 0 0 0 0 
0 0 0 0 0 0 0 0 0 0 0 0 0 0 0 0 0 0 0 0 0 0 0 0 0 0 0 0 0 0 0 0 0 0 0 0 0 0 0 0 0 0 28 46 53 78 88 88 88 88 88 88 88 79 79 66 88 87 70 66 52 88 82 78 75 80 77 88 88 85 71 83 88 88 88 88 88 88 88 88 88 88 64 48 31 11 0 0 0 0 0 0 0 0 0 0 0 0 0 0 0 0 0 0 0 0 0 0 0 0 0 0 0 0 0 0 0 0 0 0 0 0 0 0 0 0 0 0 
0 0 0 0 0 0 0 0 0 0 0 0 0 0 0 0 0 0 0 0 0 0 0 0 0 0 0 0 0 0 0 0 0 0 0 0 0 0 0 0 0 0 0 26 38 41 57 83 88 88 88 88 88 88 88 88 88 88 88 88 88 88 88 88 88 88 88 88 88 88 88 88 88 88 88 88 88 88 88 88 71 48 39 29 0 0 0 0 0 0 0 0 0 0 0 0 0 0 0 0 0 0 0 0 0 0 0 0 0 0 0 0 0 0 0 0 0 0 0 0 0 0 0 0 0 0 0 0 
0 0 0 0 0 0 0 0 0 0 0 0 0 0 0 0 0 0 0 0 0 0 0 0 0 0 0 0 0 0 0 0 0 0 0 0 0 0 0 0 0 0 0 0 0 29 37 42 54 70 88 88 88 88 88 88 88 88 88 88 88 88 88 88 88 88 88 88 88 88 88 88 88 88 88 88 88 85 68 45 38 33 15 0 0 0 0 0 0 0 0 0 0 0 0 0 0 0 0 0 0 0 0 0 0 0 0 0 0 0 0 0 0 0 0 0 0 0 0 0 0 0 0 0 0 0 0 0 
0 0 0 0 0 0 0 0 0 0 0 0 0 0 0 0 0 0 0 0 0 0 0 0 0 0 0 0 0 0 0 0 0 0 0 0 0 0 0 0 0 0 0 0 0 0 16 32 37 41 45 54 67 88 88 88 88 88 88 88 88 88 88 88 88 88 88 88 88 88 88 88 88 88 77 61 48 45 39 33 23 0 0 0 0 0 0 0 0 0 0 0 0 0 0 0 0 0 0 0 0 0 0 0 0 0 0 0 0 0 0 0 0 0 0 0 0 0 0 0 0 0 0 0 0 0 0 0 
0 0 0 0 0 0 0 0 0 0 0 0 0 0 0 0 0 0 0 0 0 0 0 0 0 0 0 0 0 0 0 0 0 0 0 0 0 0 0 0 0 0 0 0 0 0 0 0 15 31 34 37 41 41 43 44 51 53 54 54 62 52 57 60 49 50 47 46 50 43 53 43 46 46 41 40 39 32 24 0 0 0 0 0 0 0 0 0 0 0 0 0 0 0 0 0 0 0 0 0 0 0 0 0 0 0 0 0 0 0 0 0 0 0 0 0 0 0 0 0 0 0 0 0 0 0 0 0 
0 0 0 0 0 0 0 0 0 0 0 0 0 0 0 0 0 0 0 0 0 0 0 0 0 0 0 0 0 0 0 0 0 0 0 0 0 0 0 0 0 0 0 0 0 0 0 0 0 0 0 16 27 35 36 37 37 38 39 37 39 41 42 40 42 40 38 42 39 40 41 40 37 35 28 23 11 0 0 0 0 0 0 0 0 0 0 0 0 0 0 0 0 0 0 0 0 0 0 0 0 0 0 0 0 0 0 0 0 0 0 0 0 0 0 0 0 0 0 0 0 0 0 0 0 0 0 0 
0 0 0 0 0 0 0 0 0 0 0 0 0 0 0 0 0 0 0 0 0 0 0 0 0 0 0 0 0 0 0 0 0 0 0 0 0 0 0 0 0 0 0 0 0 0 0 0 0 0 0 0 0 0 0 0 13 18 20 23 24 25 24 24 23 18 16 13 13 11 0 0 0 0 0 0 0 0 0 0 0 0 0 0 0 0 0 0 0 0 0 0 0 0 0 0 0 0 0 0 0 0 0 0 0 0 0 0 0 0 0 0 0 0 0 0 0 0 0 0 0 0 0 0 0 0 0 0 
0 0 0 0 0 0 0 0 0 0 0 0 0 0 0 0 0 0 0 0 0 0 0 0 0 0 0 0 0 0 0 0 0 0 0 0 0 0 0 0 0 0 0 0 0 0 0 0 0 0 0 0 0 0 0 0 0 0 0 0 0 0 0 0 0 0 0 0 0 0 0 0 0 0 0 0 0 0 0 0 0 0 0 0 0 0 0 0 0 0 0 0 0 0 0 0 0 0 0 0 0 0 0 0 0 0 0 0 0 0 0 0 0 0 0 0 0 0 0 0 0 0 0 0 0 0 0 0 
0 0 0 0 0 0 0 0 0 0 0 0 0 0 0 0 0 0 0 0 0 0 0 0 0 0 0 0 0 0 0 0 0 0 0 0 0 0 0 0 0 0 0 0 0 0 0 0 0 0 0 0 0 0 0 0 0 0 0 0 0 0 0 0 0 0 0 0 0 0 0 0 0 0 0 0 0 0 0 0 0 0 0 0 0 0 0 0 0 0 0 0 0 0 0 0 0 0 0 0 0 0 0 0 0 0 0 0 0 0 0 0 0 0 0 0 0 0 0 0 0 0 0 0 0 0 0 0 
0 0 0 0 0 0 0 0 0 0 0 0 0 0 0 0 0 0 0 0 0 0 0 0 0 0 0 0 0 0 0 0 0 0 0 0 0 0 0 0 0 0 0 0 0 0 0 0 0 0 0 0 0 0 0 0 0 0 0 0 0 0 0 0 0 0 0 0 0 0 0 0 0 0 0 0 0 0 0 0 0 0 0 0 0 0 0 0 0 0 0 0 0 0 0 0 0 0 0 0 0 0 0 0 0 0 0 0 0 0 0 0 0 0 0 0 0 0 0 0 0 0 0 0 0 0 0 0 
0 0 0 0 0 0 0 0 0 0 0 0 0 0 0 0 0 0 0 0 0 0 0 0 0 0 0 0 0 0 0 0 0 0 0 0 0 0 0 0 0 0 0 0 0 0 0 0 0 0 0 0 0 0 0 0 0 0 0 0 0 0 0 0 0 0 0 0 0 0 0 0 0 0 0 0 0 0 0 0 0 0 0 0 0 0 0 0 0 0 0 0 0 0 0 0 0 0 0 0 0 0 0 0 0 0 0 0 0 0 0 0 0 0 0 0 0 0 0 0 0 0 0 0 0 0 0 0 
0 0 0 0 0 0 0 0 0 0 0 0 0 0 0 0 0 0 0 0 0 0 0 0 0 0 0 0 0 0 0 0 0 0 0 0 0 0 0 0 0 0 0 0 0 0 0 0 0 0 0 0 0 0 0 0 0 0 0 0 0 0 0 0 0 0 0 0 0 0 0 0 0 0 0 0 0 0 0 0 0 0 0 0 0 0 0 0 0 0 0 0 0 0 0 0 0 0 0 0 0 0 0 0 0 0 0 0 0 0 0 0 0 0 0 0 0 0 0 0 0 0 0 0 0 0 0 0 
0 0 0 0 0 0 0 0 0 0 0 0 0 0 0 0 0 0 0 0 0 0 0 0 0 0 0 0 0 0 0 0 0 0 0 0 0 0 0 0 0 0 0 0 0 0 0 0 0 0 0 0 0 0 0 0 0 0 0 0 0 0 0 0 0 0 0 0 0 0 0 0 0 0 0 0 0 0 0 0 0 0 0 0 0 0 0 0 0 0 0 0 0 0 0 0 0 0 0 0 0 0 0 0 0 0 0 0 0 0 0 0 0 0 0 0 0 0 0 0 0 0 0 0 0 0 0 0 
0 0 0 0 0 0 0 0 0 0 0 0 0 0 0 0 0 0 0 0 0 0 0 0 0 0 0 0 0 0 0 0 0 0 0 0 0 0 0 0 0 0 0 0 0 0 0 0 0 0 0 0 0 0 0 0 0 0 0 0 0 0 0 0 0 0 0 0 0 0 0 0 0 0 0 0 0 0 0 0 0 0 0 0 0 0 0 0 0 0 0 0 0 0 0 0 0 0 0 0 0 0 0 0 0 0 0 0 0 0 0 0 0 0 0 0 0 0 0 0 0 0 0 0 0 0 0 0 
