P2
128 128
88
0 0 0 0 0 0 0 0 0 0 0 0 0 0 0 0 0 0 0 0 0 0 0 0 0 0 0 0 0 0 0 0 0 0 0 0 0 0 0 0 0 0 0 0 0 0 0 0 0 0 0 0 0 0 0 0 0 0 0 0 0 0 0 0 0 0 0 0 0 0 0 0 0 0 0 0 0 0 0 0 0 0 0 0 0 0 0 0 0 0 0 0 0 0 0 0 0 0 0 0 0 0 0 0 0 0 0 0 0 0 0 0 0 0 0 0 0 0 0 0 0 0 0 0 0 0 0 0 
0 0 0 0 0 0 0 0 0 0 0 0 0 0 0 0 0 0 0 0 0 0 0 0 0 0 0 0 0 0 0 0 0 0 0 0 0 0 0 0 0 0 0 0 0 0 0 0 0 0 0 0 0 0 0 0 0 0 0 0 0 0 0 0 0 0 0 0 0 0 0 0 0 0 0 0 0 0 0 0 0 0 0 0 0 0 0 0 0 0 0 0 0 0 0 0 0 0 0 0 0 0 0 0 0 0 0 0 0 0 0 0 0 0 0 0 0 0 0 0 0 0 0 0 0 0 0 0 
0 0 0 0 0 0 0 0 0 0 0 0 0 0 0 0 0 0 0 0 0 0 0 0 0 0 0 0 0 0 0 0 0 0 0 0 0 0 0 0 0 0 0 0 0 0 0 0 0 0 0 0 0 0 0 0 0 0 0 0 0 0 0 0 0 0 0 0 0 0 0 0 0 0 0 0 0 0 0 0 0 0 0 0 0 0 0 0 0 0 0 0 0 0 0 0 0 0 0 0 0 0 0 0 0 0 0 0 0 0 0 0 0 0 0 0 0 0 0 0 0 0 0 0 0 0 0 0 
0 0 0 0 0 0 0 0 0 0 0 0 0 0 0 0 0 0 0 0 0 0 0 0 0 0 0 0 0 0 0 0 0 0 0 0 0 0 0 0 0 0 0 0 0 0 0 0 0 0 0 0 0 0 0 0 0 0 0 0 0 0 0 0 0 0 0 0 0 0 0 0 0 0 0 0 0 0 0 0 0 0 0 0 0 0 0 0 0 0 0 0 0 0 0 0 0 0 0 0 0 0 0 0 0 0 0 0 0 0 0 0 0 0 0 0 0 0 0 0 0 0 0 0 0 0 0 0 
0 0 0 0 0 0 0 0 0 0 0 0 0 0 0 0 0 0 0 0 0 0 0 0 0 0 0 0 0 0 0 0 0 0 0 0 0 0 0 0 0 0 0 0 0 0 0 0 0 0 0 0 0 0 0 0 0 0 0 0 0 0 0 0 0 0 0 0 0 0 0 0 0 0 0 0 0 0 0 0 0 0 0 0 0 0 0 0 0 0 0 0 0 0 0 0 0 0 0 0 0 0 0 0 0 0 0 0 0 0 0 0 0 0 0 0 0 0 0 0 0 0 0 0 0 0 0 0 
0 0 0 0 0 0 0 0 0 0 0 0 0 0 0 0 0 0 0 0 0 0 0 0 0 0 0 0 0 0 0 0 0 0 0 0 0 0 0 0 0 0 0 0 0 0 0 0 0 0 0 0 0 0 0 0 0 0 0 0 0 0 0 0 0 0 0 0 0 0 0 0 0 0 0 0 0 0 0 0 0 0 0 0 0 0 0 0 0 0 0 0 0 0 0 0 0 0 0 0 0 0 0 0 0 0 0 0 0 0 0 0 0 0 0 0 0 0 0 0 0 0 0 0 0 0 0 0 
0 0 0 0 0 0 0 0 0 0 0 0 0 0 0 0 0 0 0 0 0 0 0 0 0 0 0 0 0 0 0 0 0 0 0 0 0 0 0 0 0 0 0 0 0 0 0 0 0 0 0 0 0 0 0 0 0 0 0 0 0 0 0 0 0 0 0 0 0 0 0 0 0 0 0 0 0 0 0 0 0 0 0 0 0 0 0 0 0 0 0 0 0 0 0 0 0 0 0 0 0 0 0 0 0 0 0 0 0 0 0 0 0 0 0 0 0 0 0 0 0 0 0 0 0 0 0 0 
0 0 0 0 0 0 0 0 0 0 0 0 0 0 0 0 0 0 0 0 0 0 0 0 0 0 0 0 0 0 0 0 0 0 0 0 0 0 0 0 0 0 0 0 0 0 0 0 0 0 0 0 0 0 0 0 0 0 0 0 0 0 0 0 0 0 0 0 0 0 0 0 0 0 0 0 0 0 0 0 0 0 0 0 0 0 0 0 0 0 0 0 0 0 0 0 0 0 0 0 0 0 0 0 0 0 0 0 0 0 0 0 0 0 0 0 0 0 0 0 0 0 0 0 0 0 0 0 
0 0 0 0 0 0 0 0 0 0 0 0 0 0 0 0 0 0 0 0 0 0 0 0 0 0 0 0 0 0 0 0 0 0 0 0 0 0 0 0 0 0 0 0 0 0 0 0 0 0 0 0 0 0 0 0 0 0 0 0 0 0 0 0 0 0 0 0 0 0 0 0 0 0 0 0 0 0 0 0 0 0 0 0 0 0 0 0 0 0 0 0 0 0 0 0 0 0 0 0 0 0 0 0 0 0 0 0 0 0 0 0 0 0 0 0 0 0 0 0 0 0 0 0 0 0 0 0 
0 0 0 0 0 0 0 0 0 0 0 0 0 0 0 0 0 0 0 0 0 0 0 0 0 0 0 0 0 0 0 0 0 0 0 0 0 0 0 0 0 0 0 0 0 0 0 0 0 0 0 0 0 0 0 0 0 0 0 0 0 0 0 0 0 0 0 0 0 0 0 0 0 0 0 0 0 0 0 0 0 0 0 0 0 0 0 0 0 0 0 0 0 0 0 0 0 0 0 0 0 0 0 0 0 0 0 0 0 0 0 0 0 0 0 0 0 0 0 0 0 0 0 0 0 0 0 0 
0 0 0 0 0 0 0 0 0 0 0 0 0 0 0 0 0 0 0 0 0 0 0 0 0 0 0 0 0 0 0 0 0 0 0 0 0 0 0 0 0 0 0 0 0 0 0 0 0 0 0 0 0 0 0 0 0 0 0 0 0 0 0 0 0 0 0 0 0 0 0 0 0 0 0 0 0 0 0 0 0 0 0 0 0 0 0 0 0 0 0 0 0 0 0 0 0 0 0 0 0 0 0 0 0 0 0 0 0 0 0 0 0 0 0 0 0 0 0 0 0 0 0 0 0 0 0 0 
0 0 0 0 0 0 0 0 0 0 0 0 0 0 0 0 0 0 0 0 0 0 0 0 0 0 0 0 0 0 0 0 0 0 0 0 0 0 0 0 0 0 0 0 0 0 0 0 0 0 0 0 0 0 0 0 0 0 0 0 0 0 0 0 0 0 0 0 0 0 0 0 0 0 0 0 0 0 0 0 0 0 0 0 0 0 0 0 0 0 0 0 0 0 0 0 0 0 0 0 0 0 0 0 0 0 0 0 0 0 0 0 0 0 0 0 0 0 0 0 0 0 0 0 0 0 0 0 
0 0 0 0 0 0 0 0 0 0 0 0 0 0 0 0 0 0 0 0 0 0 0 0 0 0 0 0 0 0 0 0 0 0 0 0 0 0 0 0 0 0 0 0 0 0 0 0 0 0 0 0 0 0 0 0 0 0 0 0 0 0 0 0 0 0 0 0 0 0 0 0 0 0 0 0 0 0 0 0 0 0 0 0 0 0 0 0 0 0 0 0 0 0 0 0 0 0 0 0 0 0 0 0 0 0 0 0 0 0 0 0 0 0 0 0 0 0 0 0 0 0 0 0 0 0 0 0 
0 0 0 0 0 0 0 0 0 0 0 0 0 0 0 0 0 0 0 0 0 0 0 0 0 0 0 0 0 0 0 0 0 0 0 0 0 0 0 0 0 0 0 0 0 0 0 0 0 0 0 0 0 0 0 0 0 0 0 0 0 0 0 0 0 0 0 0 0 0 0 0 0 0 0 0 0 0 0 0 0 0 0 0 0 0 0 0 0 0 0 0 0 0 0 0 0 0 0 0 0 0 0 0 0 0 0 0 0 0 0 0 0 0 0 0 0 0 0 0 0 0 0 0 0 0 0 0 
0 0 0 0 0 0 0 0 0 0 0 0 0 0 0 0 0 0 0 0 0 0 0 0 0 0 0 0 0 0 0 0 0 0 0 0 0 0 0 0 0 0 0 0 0 0 0 0 0 0 0 0 0 0 0 0 0 0 0 0 0 0 0 0 0 0 0 0 0 0 0 0 0 0 0 0 0 0 0 0 0 0 0 0 0 0 0 0 0 0 0 0 0 0 0 0 0 0 0 0 0 0 0 0 0 0 0 0 0 0 0 0 0 0 0 0 0 0 0 0 0 0 0 0 0 0 0 0 
0 0 0 0 0 0 0 0 0 0 0 0 0 0 0 0 0 0 0 0 0 0 0 0 0 0 0 0 0 0 0 0 0 0 0 0 0 0 0 0 0 0 0 0 0 0 0 0 0 0 0 0 0 0 0 0 0 0 0 0 0 0 0 0 0 0 0 0 0 0 0 0 0 0 0 0 0 0 0 0 0 0 0 0 0 0 0 0 0 0 0 0 0 0 0 0 0 0 0 0 0 0 0 0 0 0 0 0 0 0 0 0 0 0 0 0 0 0 0 0 0 0 0 0 0 0 0 0 
0 0 0 0 0 0 0 0 0 0 0 0 0 0 0 0 0 0 0 0 0 0 0 0 0 0 0 0 0 0 0 0 0 0 0 0 0 0 0 0 0 0 0 0 0 0 0 0 0 0 0 0 0 0 0 0 0 0 0 0 0 0 0 0 0 0 0 0 0 0 0 0 0 0 0 0 0 0 0 0 0 0 0 0 0 0 0 0 0 0 0 0 0 0 0 0 0 0 0 0 0 0 0 0 0 0 0 0 0 0 0 0 0 0 0 0 0 0 0 0 0 0 0 0 0 0 0 0 
0 0 0 0 0 0 0 0 0 0 0 0 0 0 0 0 0 0 0 0 0 0 0 0 0 0 0 0 0 0 0 0 0 0 0 0 0 0 0 0 0 0 0 0 0 0 0 0 0 0 0 0 0 0 0 0 0 0 0 0 0 0 0 0 0 0 0 0 0 0 0 0 0 0 0 0 0 0 0 0 0 0 0 0 0 0 0 0 0 0 0 0 0 0 0 0 0 0 0 0 0 0 0 0 0 0 0 0 0 0 0 0 0 0 0 0 0 0 0 0 0 0 0 0 0 0 0 0 
0 0 0 0 0 0 0 0 0 0 0 0 0 0 0 0 0 0 0 0 0 0 0 0 0 0 0 0 0 0 0 0 0 0 0 0 0 0 0 0 0 0 0 0 0 0 0 0 0 0 0 0 0 0 0 0 0 0 0 0 0 0 0 0 0 0 0 0 0 0 0 0 0 0 0 0 0 0 0 0 0 0 0 0 0 0 0 0 0 0 0 0 0 0 0 0 0 0 0 0 0 0 0 0 0 0 0 0 0 0 0 0 0 0 0 0 0 0 0 0 0 0 0 0 0 0 0 0 
0 0 0 0 0 0 0 0 0 0 0 0 0 0 0 0 0 0 0 0 0 0 0 0 0 0 0 0 0 0 0 0 0 0 0 0 0 0 0 0 0 0 0 0 0 0 0 0 0 0 0 0 0 0 0 0 0 0 0 0 0 0 0 0 0 0 0 0 0 0 0 0 0 0 0 0 0 0 0 0 0 0 0 0 0 0 0 0 0 0 0 0 0 0 0 0 0 0 0 0 0 0 0 0 0 0 0 0 0 0 0 0 0 0 0 0 0 0 0 0 0 0 0 0 0 0 0 0 
0 0 0 0 0 0 0 0 0 0 0 0 0 0 0 0 0 0 0 0 0 0 0 0 0 0 0 0 0 0 0 0 0 0 0 0 0 0 0 0 0 0 0 0 0 0 0 0 0 0 0 0 0 0 0 0 0 0 0 0 0 15 38 49 51 28 0 0 0 0 0 0 0 0 0 0 0 0 0 0 0 0 0 0 0 0 0 0 0 0 0 0 0 0 0 0 0 0 0 0 0 0 0 0 0 0 0 0 0 0 0 0 0 0 0 0 0 0 0 0 0 0 0 0 0 0 0 0 
0 0 0 0 0 0 0 0 0 0 0 0 0 0 0 0 0 0 0 0 0 0 0 0 0 0 0 0 0 0 0 0 0 0 0 0 0 0 0 0 0 0 0 0 0 0 0 0 0 0 0 0 0 0 0 0 0 0 0 14 62 88 88 88 88 80 75 22 0 0 0 0 0 0 0 0 0 0 0 0 0 0 0 0 0 0 0 0 0 0 0 0 0 0 0 0 0 0 0 0 0 0 0 0 0 0 0 0 0 0 0 0 0 0 0 0 0 0 0 0 0 0 0 0 0 0 0 0 
0 0 0 0 0 0 0 0 0 0 0 0 0 0 0 0 0 0 0 0 0 0 0 0 0 0 0 0 0 0 0 0 0 0 0 0 0 0 0 0 0 0 0 0 0 0 0 0 0 0 0 0 0 0 0 0 0 0 29 78 88 67 34 57 84 88 88 88 26 0 0 0 0 0 0 0 0 0 0 0 0 0 0 0 0 0 0 0 0 0 0 0 0 0 0 0 0 0 0 0 0 0 0 0 0 0 0 0 0 0 0 0 0 0 0 0 0 0 0 0 0 0 0 0 0 0 0 0 
0 0 0 0 0 0 0 0 0 0 0 0 0 0 0 0 0 0 0 0 0 0 0 0 0 0 0 0 0 0 0 0 0 0 0 0 0 0 0 0 0 0 0 0 0 0 0 0 0 0 0 0 0 0 0 0 0 24 78 88 71 68 88 66 63 68 88 76 88 12 0 0 0 0 0 0 0 0 0 0 0 0 0 0 0 0 0 0 0 0 0 0 0 0 0 0 0 0 0 0 0 0 0 0 0 0 0 0 0 0 0 0 0 0 0 0 0 0 0 0 0 0 0 0 0 0 0 0 
0 0 0 0 0 0 0 0 0 0 0 0 0 0 0 0 0 0 0 0 0 0 0 0 0 0 0 0 0 0 0 0 0 0 0 0 0 0 0 0 0 0 0 0 0 0 0 0 0 0 0 0 0 0 0 0 22 59 85 68 88 78 53 35 80 35 88 88 85 81 0 0 0 0 0 0 0 0 0 0 0 0 0 0 0 0 0 0 0 0 0 0 0 0 0 0 0 0 0 0 0 0 0 0 0 0 0 0 0 0 0 0 0 0 0 0 0 0 0 0 0 0 0 0 0 0 0 0 
0 0 0 0 0 0 0 0 0 0 0 0 0 0 0 0 0 0 0 0 0 0 0 0 0 0 0 0 0 0 0 0 0 0 0 0 0 0 0 0 0 0 0 0 0 0 0 0 0 0 0 0 0 0 0 0 21 47 46 61 88 54 37 48 63 54 46 88 78 44 27 0 0 0 0 0 0 0 0 0 0 0 0 0 0 0 0 0 0 0 0 0 0 0 0 0 0 0 0 0 0 0 0 0 0 0 0 0 0 0 0 0 0 0 0 0 0 0 0 0 0 0 0 0 0 0 0 0 
0 0 0 0 0 0 0 0 0 0 0 0 0 0 0 0 0 0 0 0 0 0 0 0 0 0 0 0 0 0 0 0 0 0 0 0 0 0 0 0 0 0 0 0 0 0 15 34 42 41 21 0 0 0 0 0 32 45 79 88 63 14 44 32 36 39 35 88 84 49 32 13 0 0 0 0 0 0 0 0 0 0 0 0 0 0 0 0 0 0 0 0 0 0 0 0 0 0 0 0 0 0 0 0 0 0 0 0 0 0 0 0 0 0 0 0 0 0 0 0 0 0 0 0 0 0 0 0 
0 0 0 0 0 0 0 0 0 0 0 0 0 0 0 0 0 0 0 0 0 0 0 0 0 0 0 0 0 0 0 0 0 0 0 0 0 0 0 0 0 0 0 0 29 60 71 71 85 68 69 81 43 0 0 11 46 56 88 65 33 35 48 35 50 82 7 22 88 88 36 17 11 0 0 35 46 53 62 71 70 70 61 13 0 0 0 0 0 0 0 0 0 0 0 0 0 0 0 0 0 0 0 0 0 0 0 0 0 0 0 0 0 0 0 0 0 0 0 0 0 0 0 0 0 0 0 0 
0 0 0 0 0 0 0 0 0 0 0 0 0 0 0 0 0 0 0 0 0 0 0 0 0 0 0 0 0 0 0 0 0 0 0 0 0 0 0 0 0 0 15 57 64 59 46 34 32 36 58 67 60 73 60 47 63 68 64 5 34 39 30 39 42 88 31 53 41 88 52 37 44 62 65 70 73 79 69 53 47 50 65 82 43 0 0 0 0 0 0 0 0 0 0 0 0 0 0 0 0 0 0 0 0 0 0 0 0 0 0 0 0 0 0 0 0 0 0 0 0 0 0 0 0 0 0 0 
0 0 0 0 0 0 0 0 0 0 0 0 0 0 0 0 0 0 0 0 0 0 0 0 0 0 0 0 0 0 0 0 0 0 0 0 0 0 0 0 0 23 57 60 54 65 49 36 37 37 44 53 71 54 81 88 88 46 23 4 37 52 27 46 57 88 33 88 13 45 57 82 88 78 66 74 68 63 60 30 31 31 30 54 86 49 0 0 0 0 0 0 0 0 0 0 0 0 0 0 0 0 0 0 0 0 0 0 0 0 0 0 0 0 0 0 0 0 0 0 0 0 0 0 0 0 0 0 
0 0 0 0 0 0 0 0 0 0 0 0 0 0 0 0 0 0 0 0 0 0 0 0 0 0 0 0 0 0 0 0 0 0 0 0 0 0 0 0 22 62 68 47 38 27 31 39 35 39 36 39 59 74 61 88 88 45 30 6 33 59 46 39 75 88 30 42 2 59 62 88 72 51 57 42 35 36 35 43 38 39 35 33 60 88 38 0 0 0 0 0 0 0 0 0 0 0 0 0 0 0 0 0 0 0 0 0 0 0 0 0 0 0 0 0 0 0 0 0 0 0 0 0 0 0 0 0 
0 0 0 0 0 0 0 0 0 0 0 0 0 0 0 0 0 0 0 0 0 0 0 0 0 0 0 0 0 0 0 0 0 0 0 0 0 0 0 11 62 66 58 26 21 25 26 31 32 32 29 26 31 46 43 72 88 45 52 41 21 37 77 31 82 88 25 13 68 86 66 88 64 42 40 28 24 27 24 36 36 34 44 39 59 81 84 18 0 0 0 0 0 0 0 0 0 0 0 0 0 0 0 0 0 0 0 0 0 0 0 0 0 0 0 0 0 0 0 0 0 0 0 0 0 0 0 0 
0 0 0 0 0 0 0 0 0 0 0 0 0 0 0 0 0 0 0 0 0 0 0 0 0 0 0 0 0 0 0 0 0 0 0 0 0 0 0 55 62 81 27 27 25 22 23 24 26 24 25 26 27 28 37 50 88 51 56 30 13 21 88 33 80 88 7 13 4 88 71 88 36 44 28 26 25 25 24 25 31 37 39 35 58 75 78 66 0 0 0 0 0 0 0 0 0 0 0 0 0 0 0 0 0 0 0 0 0 0 0 0 0 0 0 0 0 0 0 0 0 0 0 0 0 0 0 0 
0 0 0 0 0 0 0 0 0 0 0 0 0 0 0 0 0 0 0 0 0 0 0 0 0 0 0 0 0 0 0 0 0 0 0 0 0 0 34 66 72 50 26 26 25 23 22 23 24 25 23 28 26 22 35 45 88 77 82 75 62 22 88 34 83 88 13 3 28 67 75 88 41 47 25 25 24 26 23 27 26 25 24 27 31 46 87 75 26 0 0 0 0 0 0 0 0 0 0 0 0 0 0 0 0 0 0 0 0 0 0 0 0 0 0 0 0 0 0 0 0 0 0 0 0 0 0 0 
0 0 0 0 0 0 0 0 0 0 0 0 0 0 0 0 0 0 0 0 0 0 0 0 0 0 0 0 0 0 0 0 0 0 0 0 0 22 73 59 86 34 25 28 24 22 22 22 25 24 26 25 25 23 33 55 88 88 13 19 60 35 88 25 83 88 88 64 65 9 88 88 66 41 26 24 21 25 25 26 27 27 23 28 25 32 73 78 62 0 0 0 0 0 0 0 0 0 0 0 0 0 0 0 0 0 0 0 0 0 0 0 0 0 0 0 0 0 0 0 0 0 0 0 0 0 0 0 
0 0 0 0 0 0 0 0 0 0 0 0 0 0 0 0 0 0 0 0 0 0 0 0 0 0 0 0 0 0 0 0 0 0 0 0 17 51 87 50 83 36 23 30 23 21 24 24 23 23 27 26 20 24 36 69 88 88 0 18 28 44 70 35 81 88 88 88 73 4 88 83 88 47 21 21 24 24 22 24 27 23 25 24 26 30 59 79 82 33 0 0 0 0 0 0 0 0 0 0 0 0 0 0 0 0 0 0 0 0 0 0 0 0 0 0 0 0 0 0 0 0 0 0 0 0 0 0 
0 0 0 0 0 0 0 0 0 0 0 0 0 0 0 0 0 0 0 0 0 0 0 0 0 0 0 0 0 0 0 0 0 0 0 18 40 83 52 54 83 40 30 26 25 25 23 26 23 22 26 26 23 22 63 73 88 88 4 1 1 2 71 44 88 88 75 20 1 1 84 88 88 74 19 26 29 25 24 24 25 25 22 24 26 31 52 86 49 88 19 0 0 0 0 0 0 0 0 0 0 0 0 0 0 0 0 0 0 0 0 0 0 0 0 0 0 0 0 0 0 0 0 0 0 0 0 0 
0 0 0 0 0 0 0 0 0 0 0 0 0 0 0 0 0 0 0 0 0 0 0 0 0 0 0 0 0 0 0 0 0 0 0 42 72 51 32 45 83 47 47 20 25 22 24 23 25 24 24 23 28 33 88 71 88 88 5 4 1 4 43 63 88 88 18 4 3 16 78 88 88 88 32 25 26 27 24 24 23 25 25 23 25 34 53 83 28 53 63 17 0 0 0 0 0 0 0 0 0 0 0 0 0 0 0 0 0 0 0 0 0 0 0 0 0 0 0 0 0 0 0 0 0 0 0 0 
0 0 0 0 0 0 0 0 0 0 0 0 0 0 0 0 0 0 0 0 0 0 0 0 0 0 0 0 0 0 0 0 0 0 45 64 49 22 20 16 60 71 57 38 20 26 22 29 23 26 21 26 15 88 88 71 88 60 5 4 2 28 61 80 88 39 11 2 20 28 29 88 80 88 88 18 27 25 25 23 23 23 25 27 25 42 65 41 13 32 57 60 32 0 0 0 0 0 0 0 0 0 0 0 0 0 0 0 0 0 0 0 0 0 0 0 0 0 0 0 0 0 0 0 0 0 0 0 
0 0 0 0 0 0 0 0 0 0 0 0 0 0 0 0 0 0 0 0 0 0 0 0 0 0 0 0 0 0 0 0 0 13 84 55 31 9 47 55 17 80 88 49 67 12 31 25 27 28 21 30 88 88 88 70 88 44 16 4 13 50 69 78 88 68 43 32 11 20 11 88 88 88 88 88 19 28 26 25 24 18 25 21 52 47 71 12 80 9 37 63 88 17 0 0 0 0 0 0 0 0 0 0 0 0 0 0 0 0 0 0 0 0 0 0 0 0 0 0 0 0 0 0 0 0 0 0 
0 0 0 0 0 0 0 0 0 0 0 0 0 0 0 0 0 0 0 0 0 0 0 0 0 0 0 0 0 0 13 0 0 88 59 59 22 8 61 78 26 35 88 88 88 88 54 23 25 52 88 88 88 88 88 74 88 7 19 12 19 9 60 88 88 88 36 9 13 7 4 65 88 88 88 88 88 76 16 17 21 19 23 85 76 88 51 37 88 36 11 86 65 88 0 0 0 0 0 0 0 0 0 0 0 0 0 0 0 0 0 0 0 0 0 0 0 0 0 0 0 0 0 0 0 0 0 0 
0 0 0 0 0 0 0 0 0 0 0 0 0 0 0 0 0 0 0 0 0 0 0 0 0 0 0 0 0 30 28 0 41 88 56 73 16 15 39 42 54 7 44 88 57 88 88 88 88 88 88 88 88 88 88 86 66 1 4 4 13 36 69 88 88 88 88 1 7 2 9 44 88 88 88 88 88 88 88 88 88 88 88 80 88 80 27 64 62 39 8 48 67 88 88 0 0 0 0 0 0 0 0 0 0 0 0 0 0 0 0 0 0 0 0 0 0 0 0 0 0 0 0 0 0 0 0 0 
0 0 0 0 0 0 0 0 0 0 0 0 0 0 0 0 0 0 0 0 0 0 0 0 0 0 0 0 29 41 35 16 88 64 53 88 7 13 24 26 15 12 22 43 88 62 88 88 88 88 88 88 88 88 88 87 45 1 7 4 0 55 42 88 88 42 86 44 7 3 4 20 88 88 88 88 88 88 88 88 88 88 88 88 88 35 24 47 23 15 8 34 88 76 88 41 0 0 0 0 0 0 0 0 0 0 0 0 0 0 0 0 0 0 0 0 0 0 0 0 0 0 0 0 0 0 0 0 
0 0 0 0 0 0 0 0 0 0 0 0 0 0 0 0 0 0 0 0 0 0 0 0 0 0 0 13 44 49 30 71 88 74 59 81 5 32 57 51 47 41 9 18 35 88 65 83 88 88 88 88 88 88 88 88 31 0 0 3 0 52 31 88 88 11 59 61 4 3 2 16 78 88 88 88 88 88 88 88 88 88 88 77 35 9 17 35 53 31 11 15 66 84 88 88 0 0 0 0 0 0 0 0 0 0 0 0 0 0 0 0 0 0 0 0 0 0 0 0 0 0 0 0 0 0 0 0 
0 0 0 0 0 0 0 0 0 0 0 0 0 0 0 0 0 0 0 0 0 0 0 0 0 0 0 33 48 42 48 88 88 84 67 73 30 58 62 57 61 61 50 54 24 27 88 71 87 88 88 88 88 88 88 88 21 0 1 2 5 23 42 88 88 13 26 48 18 5 0 13 67 88 88 88 88 88 88 88 87 88 46 32 13 15 49 58 58 70 47 20 88 78 88 88 88 0 0 0 0 0 0 0 0 0 0 0 0 0 0 0 0 0 0 0 0 0 0 0 0 0 0 0 0 0 0 0 
0 0 0 0 0 0 0 0 0 0 0 0 0 0 0 0 0 0 0 0 0 0 0 0 0 0 13 45 50 37 88 88 80 69 88 85 65 62 56 69 61 58 63 52 88 31 21 88 88 88 88 88 88 88 88 88 24 0 1 1 2 4 17 64 88 9 6 14 3 9 12 14 74 88 88 88 88 88 88 88 88 33 32 17 29 51 59 62 76 71 61 61 88 79 88 88 88 32 0 0 0 0 0 0 0 0 0 0 0 0 0 0 0 0 0 0 0 0 0 0 0 0 0 0 0 0 0 0 
0 0 0 0 0 0 0 0 0 0 0 0 0 0 0 0 0 0 0 0 0 0 0 0 0 0 32 49 48 54 88 88 88 63 88 88 71 54 60 62 57 56 72 57 53 43 27 28 88 88 88 88 88 88 88 88 32 0 0 1 1 2 13 79 88 9 4 8 2 1 20 33 88 88 88 88 88 88 88 88 35 15 30 49 77 54 63 71 67 63 64 88 88 88 88 78 88 88 0 0 0 0 0 0 0 0 0 0 0 0 0 0 0 0 0 0 0 0 0 0 0 0 0 0 0 0 0 0 
0 0 0 0 0 0 0 0 0 0 0 0 0 0 0 0 0 0 0 0 0 0 0 0 0 0 44 52 42 88 88 88 88 88 88 88 71 59 55 66 42 43 60 79 59 88 59 56 40 84 88 88 88 88 88 88 54 2 0 1 2 0 11 80 88 20 7 8 3 0 0 17 85 85 83 88 88 88 82 52 33 31 63 58 82 71 64 60 64 60 59 88 88 88 88 88 88 88 46 0 0 0 0 0 0 0 0 0 0 0 0 0 0 0 0 0 0 0 0 0 0 0 0 0 0 0 0 0 
0 0 0 0 0 0 0 0 0 0 0 0 0 0 0 0 0 0 0 0 0 0 0 0 0 16 45 47 54 88 88 88 87 88 88 88 81 74 62 65 59 41 56 59 74 88 49 88 81 54 79 88 88 88 88 88 75 2 1 0 2 6 16 88 88 52 13 5 4 2 0 23 85 73 88 88 88 51 72 53 79 31 64 55 82 48 40 58 66 63 63 88 88 88 88 88 88 88 88 0 0 0 0 0 0 0 0 0 0 0 0 0 0 0 0 0 0 0 0 0 0 0 0 0 0 0 0 0 
0 0 0 0 0 0 0 0 0 0 0 0 0 0 0 0 0 0 0 0 0 0 0 0 0 20 40 31 88 88 88 88 88 88 88 88 65 87 80 31 28 57 51 58 74 88 66 88 88 87 62 78 88 88 88 80 65 8 1 0 7 20 78 88 88 88 9 6 1 1 0 25 71 83 77 88 49 88 51 88 81 59 88 66 66 53 31 44 79 76 64 88 88 88 88 88 88 88 88 30 0 0 0 0 0 0 0 0 0 0 0 0 0 0 0 0 0 0 0 0 0 0 0 0 0 0 0 0 
0 0 0 0 0 0 0 0 0 0 0 0 0 0 0 0 0 0 0 0 0 0 0 0 0 0 23 31 88 88 88 88 88 88 88 88 59 74 37 20 36 60 46 54 72 88 81 88 88 88 88 67 88 88 88 78 48 2 3 12 62 88 24 88 88 88 52 7 2 1 0 20 57 76 88 59 88 66 88 87 88 76 88 63 51 54 53 36 40 69 63 88 88 88 88 88 88 88 88 85 0 0 0 0 0 0 0 0 0 0 0 0 0 0 0 0 0 0 0 0 0 0 0 0 0 0 0 0 
0 0 0 0 0 0 0 0 0 0 0 0 0 0 0 0 0 0 0 0 0 0 0 0 0 0 0 81 88 88 88 88 88 88 88 88 64 68 27 43 47 51 49 58 88 82 80 88 87 88 88 80 85 88 88 79 41 0 2 3 43 72 88 21 77 88 88 57 9 3 13 6 63 61 79 88 69 88 88 88 88 77 86 86 54 49 62 61 33 88 67 75 88 88 88 88 88 88 88 88 12 0 0 0 0 0 0 0 0 0 0 0 0 0 0 0 0 0 0 0 0 0 0 0 0 0 0 0 
0 0 0 0 0 0 0 0 0 0 0 0 0 0 0 0 0 0 0 0 0 0 0 0 0 0 0 88 88 88 88 88 88 88 88 85 68 54 26 63 59 51 58 63 88 71 55 73 62 68 79 76 52 88 88 88 34 0 2 1 31 20 16 13 9 34 38 11 12 11 2 5 55 88 88 67 75 88 88 78 88 61 88 82 62 49 60 73 19 33 65 88 88 88 88 88 88 88 88 88 52 0 0 0 0 0 0 0 0 0 0 0 0 0 0 0 0 0 0 0 0 0 0 0 0 0 0 0 
0 0 0 0 0 0 0 0 0 0 0 0 0 0 0 0 0 0 0 0 0 0 0 0 0 0 47 88 88 88 88 88 88 88 88 87 69 34 29 50 56 53 61 56 78 51 42 58 51 53 59 65 52 59 88 88 88 25 4 1 6 7 3 6 1 1 8 3 1 1 0 62 88 88 59 54 88 80 67 56 66 42 56 73 62 58 55 47 55 19 62 69 88 88 88 88 88 88 88 88 88 0 0 0 0 0 0 0 0 0 0 0 0 0 0 0 0 0 0 0 0 0 0 0 0 0 0 0 
0 0 0 0 0 0 0 0 0 0 0 0 0 0 0 0 0 0 0 0 0 0 0 0 0 0 77 88 88 88 88 88 88 88 88 77 57 32 47 49 77 63 56 49 48 37 46 51 41 46 63 61 58 31 88 88 88 51 5 1 5 6 6 0 1 2 0 1 1 1 0 65 88 77 27 70 64 51 36 36 40 45 43 56 52 63 61 57 55 25 48 69 88 88 88 88 88 88 88 88 88 13 0 0 0 0 0 0 0 0 0 0 0 0 0 0 0 0 0 0 0 0 0 0 0 0 0 0 
0 0 0 0 0 0 0 0 0 0 0 0 0 0 0 0 0 0 0 0 0 0 0 0 0 0 88 88 88 88 88 88 88 88 88 88 38 31 52 64 68 82 39 31 35 38 43 43 46 43 57 47 51 42 38 88 88 48 22 5 8 3 2 1 0 1 2 0 0 0 0 69 88 29 12 52 36 32 38 41 45 44 51 43 31 72 62 65 54 33 31 71 76 88 88 88 88 88 88 88 88 35 0 0 0 0 0 0 0 0 0 0 0 0 0 0 0 0 0 0 0 0 0 0 0 0 0 0 
0 0 0 0 0 0 0 0 0 0 0 0 0 0 0 0 0 0 0 0 0 0 0 0 0 21 88 88 88 88 88 88 88 88 88 79 42 32 49 72 66 72 27 28 32 42 39 42 41 47 41 44 47 41 40 76 88 31 3 2 1 0 0 1 0 0 1 1 0 1 0 73 63 14 48 49 46 48 46 45 46 42 50 50 27 59 52 88 56 43 13 58 88 88 88 88 88 88 88 88 88 58 0 0 0 0 0 0 0 0 0 0 0 0 0 0 0 0 0 0 0 0 0 0 0 0 0 0 
0 0 0 0 0 0 0 0 0 0 0 0 0 0 0 0 0 0 0 0 0 0 0 0 0 40 88 88 88 88 88 88 88 88 88 85 43 44 62 59 62 45 38 33 31 38 42 51 59 52 29 39 33 31 27 48 75 21 2 1 0 0 0 0 0 1 1 1 0 2 4 67 17 45 51 51 52 53 52 49 41 47 44 43 35 39 61 88 64 61 23 44 88 88 86 88 88 88 88 88 88 75 0 0 0 0 0 0 0 0 0 0 0 0 0 0 0 0 0 0 0 0 0 0 0 0 0 0 
0 0 0 0 0 0 0 0 0 0 0 0 0 0 0 0 0 0 0 0 0 0 0 0 0 51 88 88 88 88 88 88 88 88 88 88 35 55 56 32 19 39 25 32 31 46 49 46 33 46 28 43 37 45 24 29 59 16 1 0 1 1 4 0 0 1 1 3 1 1 12 65 36 53 53 57 56 57 55 50 40 46 45 39 26 24 62 75 68 54 36 29 88 88 88 88 88 88 88 88 88 84 0 0 0 0 0 0 0 0 0 0 0 0 0 0 0 0 0 0 0 0 0 0 0 0 0 0 
0 0 0 0 0 0 0 0 0 0 0 0 0 0 0 0 0 0 0 0 0 0 0 0 0 60 88 88 88 88 88 88 88 88 88 53 44 51 56 22 30 33 32 31 31 46 38 35 36 33 40 50 54 48 37 28 44 5 1 0 2 1 0 1 1 0 2 3 0 4 20 63 39 55 55 56 58 59 53 50 34 37 28 26 26 29 26 67 46 63 51 22 88 88 88 77 88 88 88 88 88 85 0 0 0 0 0 0 0 0 0 0 0 0 0 0 0 0 0 0 0 0 0 0 0 0 0 0 
0 0 0 0 0 0 0 0 0 0 0 0 0 0 0 0 0 0 0 0 0 0 0 0 0 71 88 88 88 88 88 79 74 88 86 39 47 62 46 26 35 27 35 33 32 31 37 42 34 25 53 55 55 53 48 39 53 9 1 1 2 1 2 1 1 0 2 0 0 5 47 54 51 50 55 56 56 58 52 55 38 37 37 31 38 34 26 36 39 63 51 44 52 88 88 57 88 88 88 88 88 85 13 0 0 0 0 0 0 0 0 0 0 0 0 0 0 0 0 0 0 0 0 0 0 0 0 0 
0 0 0 0 0 0 0 0 0 0 0 0 0 0 0 0 0 0 0 0 0 0 0 0 0 73 88 88 88 88 88 51 88 88 78 39 53 73 45 14 37 36 37 31 45 49 53 46 31 25 57 56 57 55 56 55 67 13 0 0 1 1 1 1 0 0 0 1 0 14 61 48 45 48 55 56 59 57 50 42 55 50 40 26 25 39 45 60 45 63 63 51 38 88 88 88 68 88 88 88 88 88 13 0 0 0 0 0 0 0 0 0 0 0 0 0 0 0 0 0 0 0 0 0 0 0 0 0 
0 0 0 0 0 0 0 0 0 0 0 0 0 0 0 0 0 0 0 0 0 0 0 0 0 75 88 88 88 88 88 55 88 88 34 48 54 72 4 30 31 34 46 49 54 53 53 53 55 35 53 57 60 56 53 58 66 14 1 0 0 1 0 1 2 0 0 0 1 12 64 53 48 58 52 56 60 53 40 52 53 54 52 50 38 37 37 61 40 53 55 57 37 85 88 78 57 77 88 88 88 88 17 0 0 0 0 0 0 0 0 0 0 0 0 0 0 0 0 0 0 0 0 0 0 0 0 0 
0 0 0 0 0 0 0 0 0 0 0 0 0 0 0 0 0 0 0 0 0 0 0 0 0 77 88 88 88 88 84 60 70 48 36 48 72 77 0 43 34 37 49 50 54 53 53 54 53 54 54 63 51 56 56 53 63 31 1 1 1 5 0 1 1 1 2 1 3 31 76 41 55 58 50 54 51 51 47 54 57 56 53 55 53 60 48 44 29 31 53 58 54 39 88 88 58 61 88 88 88 88 20 0 0 0 0 0 0 0 0 0 0 0 0 0 0 0 0 0 0 0 0 0 0 0 0 0 
0 0 0 0 0 0 0 0 0 0 0 0 0 0 0 0 0 0 0 0 0 0 0 0 0 72 88 88 88 76 88 42 60 50 40 47 88 7 21 56 31 46 47 47 47 52 54 52 52 54 57 59 53 53 56 55 49 73 14 5 0 2 1 1 2 3 1 0 13 66 88 51 52 59 47 45 41 43 57 55 57 56 55 58 55 59 56 50 37 12 63 51 49 55 45 88 77 62 88 88 88 88 17 0 0 0 0 0 0 0 0 0 0 0 0 0 0 0 0 0 0 0 0 0 0 0 0 0 
0 0 0 0 0 0 0 0 0 0 0 0 0 0 0 0 0 0 0 0 0 0 0 0 0 67 88 88 88 50 88 32 66 42 53 76 75 12 37 50 39 47 42 42 49 55 55 51 53 58 57 57 53 53 44 56 52 76 63 39 21 2 2 1 0 0 0 0 24 88 88 62 56 54 51 51 52 55 56 59 60 57 57 60 57 56 58 52 50 4 47 54 47 44 63 54 37 72 88 88 88 88 17 0 0 0 0 0 0 0 0 0 0 0 0 0 0 0 0 0 0 0 0 0 0 0 0 0 
0 0 0 0 0 0 0 0 0 0 0 0 0 0 0 0 0 0 0 0 0 0 0 0 0 63 88 88 88 52 80 25 65 61 64 54 26 69 31 42 51 43 40 35 50 52 54 59 59 54 55 53 56 46 48 63 49 79 64 82 71 48 18 6 11 18 21 24 65 88 86 63 51 52 51 58 54 55 58 62 57 55 58 58 60 60 60 51 51 26 15 88 69 65 61 65 26 61 88 88 88 88 15 0 0 0 0 0 0 0 0 0 0 0 0 0 0 0 0 0 0 0 0 0 0 0 0 0 
0 0 0 0 0 0 0 0 0 0 0 0 0 0 0 0 0 0 0 0 0 0 0 0 0 66 88 83 88 59 66 15 62 71 61 31 85 36 31 38 57 37 52 28 51 55 57 54 54 53 48 58 62 52 47 64 43 49 56 88 88 88 71 50 60 64 82 88 88 86 67 63 50 48 53 52 54 57 55 56 55 53 55 53 55 57 58 55 51 31 36 17 67 83 69 55 17 69 88 88 88 88 14 0 0 0 0 0 0 0 0 0 0 0 0 0 0 0 0 0 0 0 0 0 0 0 0 0 
0 0 0 0 0 0 0 0 0 0 0 0 0 0 0 0 0 0 0 0 0 0 0 0 0 57 88 88 52 56 60 21 60 54 21 43 37 17 30 37 56 42 51 37 50 54 60 51 50 50 46 51 43 68 42 88 19 24 79 88 88 88 88 88 88 88 88 88 88 69 66 60 56 50 55 62 62 52 51 55 53 41 54 49 55 60 55 56 46 27 60 63 38 71 59 52 6 77 88 88 88 88 0 0 0 0 0 0 0 0 0 0 0 0 0 0 0 0 0 0 0 0 0 0 0 0 0 0 
0 0 0 0 0 0 0 0 0 0 0 0 0 0 0 0 0 0 0 0 0 0 0 0 0 44 88 88 71 48 65 19 34 50 43 40 13 16 22 27 40 62 34 51 40 57 56 54 56 55 56 39 42 52 78 36 31 37 88 88 88 87 88 88 88 87 88 85 88 76 31 54 67 68 43 59 62 55 51 47 49 46 42 42 50 61 50 52 35 31 54 83 82 76 73 54 15 88 88 88 88 88 21 0 0 0 0 0 0 0 0 0 0 0 0 0 0 0 0 0 0 0 0 0 0 0 0 0 
0 0 0 0 0 0 0 0 0 0 0 0 0 0 0 0 0 0 0 0 0 0 0 0 0 39 88 88 63 47 69 36 26 47 55 41 22 18 22 22 28 44 51 34 55 64 57 55 49 38 34 49 50 55 40 50 55 88 79 88 88 88 88 88 88 88 88 88 88 85 15 23 35 25 81 44 47 66 52 43 52 31 51 43 54 48 52 47 23 23 37 38 40 68 84 26 30 54 52 72 88 88 17 0 0 0 0 0 0 0 0 0 0 0 0 0 0 0 0 0 0 0 0 0 0 0 0 0 
0 0 0 0 0 0 0 0 0 0 0 0 0 0 0 0 0 0 0 0 0 0 0 0 0 42 88 88 77 88 88 88 1 36 55 47 48 31 33 29 35 38 37 54 59 54 46 38 34 24 42 31 26 23 40 88 87 88 83 88 88 88 88 88 88 88 88 88 88 88 88 22 46 14 45 25 81 39 47 35 39 79 55 44 41 56 58 35 27 22 29 22 30 45 48 12 88 88 31 88 88 88 20 0 0 0 0 0 0 0 0 0 0 0 0 0 0 0 0 0 0 0 0 0 0 0 0 0 
0 0 0 0 0 0 0 0 0 0 0 0 0 0 0 0 0 0 0 0 0 0 0 0 0 31 88 58 19 80 68 40 37 20 63 63 27 28 38 20 33 44 27 16 26 40 36 22 21 13 32 14 8 50 88 76 82 88 81 88 88 88 88 88 88 88 88 88 88 88 88 86 88 61 33 31 15 62 43 32 50 43 75 51 45 42 37 33 21 29 12 25 44 52 30 20 77 88 70 30 88 88 27 0 0 0 0 0 0 0 0 0 0 0 0 0 0 0 0 0 0 0 0 0 0 0 0 0 
0 0 0 0 0 0 0 0 0 0 0 0 0 0 0 0 0 0 0 0 0 0 0 0 0 37 88 88 60 88 87 88 72 28 11 51 60 44 16 38 24 20 12 20 43 16 21 35 32 19 16 33 82 84 88 88 88 88 88 80 83 84 85 88 88 88 88 83 88 88 88 75 65 88 77 13 19 11 18 51 48 46 45 37 19 13 14 31 26 20 33 42 33 29 7 40 88 52 48 88 88 88 48 0 0 0 0 0 0 0 0 0 0 0 0 0 0 0 0 0 0 0 0 0 0 0 0 0 
0 0 0 0 0 0 0 0 0 0 0 0 0 0 0 0 0 0 0 0 0 0 0 0 0 45 88 88 84 71 32 64 34 64 29 19 24 20 32 39 39 40 34 26 7 50 34 14 39 32 72 88 74 88 88 79 88 66 86 85 79 70 64 57 63 63 67 75 88 88 88 88 71 88 87 88 27 12 6 16 21 25 27 61 26 13 19 21 17 32 36 34 38 24 15 79 74 74 88 83 88 88 88 0 0 0 0 0 0 0 0 0 0 0 0 0 0 0 0 0 0 0 0 0 0 0 0 0 
0 0 0 0 0 0 0 0 0 0 0 0 0 0 0 0 0 0 0 0 0 0 0 0 0 58 88 61 68 52 63 50 53 66 59 26 18 15 31 33 22 26 13 4 16 53 17 27 52 87 58 78 88 87 88 86 88 67 77 73 64 55 43 36 44 57 47 75 79 83 81 88 88 82 88 84 88 54 29 23 33 23 31 32 44 35 22 36 41 38 35 29 28 20 83 56 36 46 61 63 60 62 53 23 0 0 0 0 0 0 0 0 0 0 0 0 0 0 0 0 0 0 0 0 0 0 0 0 
0 0 0 0 0 0 0 0 0 0 0 0 0 0 0 0 0 0 0 0 0 0 0 0 0 47 77 66 60 63 56 40 35 31 32 27 8 12 14 6 7 2 9 7 24 32 8 36 51 74 77 88 79 67 83 87 67 53 72 60 53 31 33 37 37 49 36 45 63 67 61 71 88 73 85 88 79 76 81 44 12 45 32 25 9 28 39 46 41 32 18 8 16 63 66 53 45 51 65 69 58 70 52 47 0 0 0 0 0 0 0 0 0 0 0 0 0 0 0 0 0 0 0 0 0 0 0 0 
0 0 0 0 0 0 0 0 0 0 0 0 0 0 0 0 0 0 0 0 0 0 0 0 16 43 64 73 58 59 49 33 11 9 4 5 13 9 12 0 5 8 6 14 13 29 14 37 69 81 78 80 66 77 81 76 70 51 56 36 27 23 28 20 33 26 47 28 42 61 58 54 75 81 61 88 82 85 63 45 50 19 7 18 25 13 26 38 34 28 25 26 47 50 53 28 32 44 50 55 57 53 58 23 0 0 0 0 0 0 0 0 0 0 0 0 0 0 0 0 0 0 0 0 0 0 0 0 
0 0 0 0 0 0 0 0 0 0 0 0 0 0 0 0 0 0 0 0 0 0 0 0 0 20 43 44 50 53 47 19 2 3 2 2 3 2 5 3 0 7 9 8 11 14 34 55 78 68 56 68 84 72 59 66 46 58 45 31 30 30 31 11 20 23 40 30 25 42 52 54 61 61 77 47 79 88 79 80 46 20 13 26 27 11 12 15 14 17 15 16 8 2 12 13 14 34 46 53 53 37 13 0 0 0 0 0 0 0 0 0 0 0 0 0 0 0 0 0 0 0 0 0 0 0 0 0 
0 0 0 0 0 0 0 0 0 0 0 0 0 0 0 0 0 0 0 0 0 0 0 0 0 0 31 38 37 55 54 46 28 0 0 0 3 5 7 9 6 13 7 15 19 19 8 81 68 69 54 61 56 56 65 58 54 59 35 29 31 19 31 29 32 12 26 28 25 33 57 45 59 76 66 83 84 69 84 81 65 32 23 36 9 12 9 5 6 13 9 9 5 2 4 2 30 60 56 53 45 43 32 22 0 0 0 0 0 0 0 0 0 0 0 0 0 0 0 0 0 0 0 0 0 0 0 0 
0 0 0 0 0 0 0 0 0 0 0 0 0 0 0 0 0 0 0 0 0 0 0 0 0 13 33 33 44 60 62 49 39 20 17 12 8 29 22 22 30 21 14 24 18 52 66 30 56 49 30 58 31 61 59 78 71 48 36 19 27 13 27 27 24 26 16 28 27 24 53 57 65 69 59 59 72 62 58 72 75 60 37 16 4 18 4 2 9 8 5 6 13 6 2 36 41 75 47 40 29 38 41 46 38 15 0 0 0 0 0 0 0 0 0 0 0 0 0 0 0 0 0 0 0 0 0 0 
0 0 0 0 0 0 0 0 0 0 0 0 0 0 0 0 0 0 0 0 0 0 0 0 0 17 30 27 39 58 51 56 55 32 14 13 20 7 7 19 31 24 41 23 60 75 60 47 28 43 45 39 62 80 78 71 42 37 28 13 22 38 29 25 15 34 16 23 28 20 45 72 72 85 71 55 30 47 25 57 85 88 46 18 6 13 13 8 6 4 11 11 27 16 16 43 53 63 54 34 20 30 27 34 42 32 0 0 0 0 0 0 0 0 0 0 0 0 0 0 0 0 0 0 0 0 0 0 
0 0 0 0 0 0 0 0 0 0 0 0 0 0 0 0 0 0 0 0 0 0 0 0 0 0 32 36 57 64 50 46 30 23 12 6 21 21 6 32 41 19 7 62 38 38 23 11 22 45 78 53 42 48 39 40 45 18 20 31 35 40 16 31 33 33 28 28 25 13 34 67 76 88 81 73 60 71 43 88 49 42 31 6 24 32 30 41 38 8 33 27 42 25 21 54 62 38 53 59 26 20 13 11 13 13 0 0 0 0 0 0 0 0 0 0 0 0 0 0 0 0 0 0 0 0 0 0 
0 0 0 0 0 0 0 0 0 0 0 0 0 0 0 0 0 0 0 0 0 0 0 0 0 13 31 41 69 53 42 23 13 16 9 5 9 15 23 23 36 13 24 39 40 24 18 11 3 16 86 26 47 37 33 46 28 30 27 27 35 40 46 53 37 54 54 15 21 19 17 60 71 61 51 68 47 67 70 33 31 51 69 88 63 21 45 64 22 32 33 21 18 13 14 15 46 69 65 71 44 12 0 0 0 0 0 0 0 0 0 0 0 0 0 0 0 0 0 0 0 0 0 0 0 0 0 0 
0 0 0 0 0 0 0 0 0 0 0 0 0 0 0 0 0 0 0 0 0 0 0 0 0 0 23 62 88 45 59 19 11 11 15 13 11 9 7 6 11 16 18 48 15 13 7 14 7 26 45 33 39 28 32 16 27 19 25 30 57 48 56 56 66 55 52 51 23 33 9 32 47 55 59 38 41 43 53 31 38 74 88 38 44 42 41 46 43 31 23 13 13 8 5 8 28 44 54 84 61 23 9 0 0 0 0 0 0 0 0 0 0 0 0 0 0 0 0 0 0 0 0 0 0 0 0 0 
0 0 0 0 0 0 0 0 0 0 0 0 0 0 0 0 0 0 0 0 0 0 0 0 0 0 36 55 57 38 24 13 9 13 6 9 4 2 6 2 7 0 57 20 3 5 2 7 13 30 33 49 15 34 18 17 25 28 30 58 59 63 55 60 52 63 62 60 32 25 28 8 12 19 39 34 27 61 75 20 67 58 88 75 49 27 39 39 24 17 3 13 6 1 4 4 7 11 33 44 62 40 12 0 0 0 0 0 0 0 0 0 0 0 0 0 0 0 0 0 0 0 0 0 0 0 0 0 
0 0 0 0 0 0 0 0 0 0 0 0 0 0 0 0 0 0 0 0 0 0 0 0 0 0 58 53 73 54 15 1 3 5 3 5 3 7 2 2 2 3 13 39 44 24 20 15 33 22 29 44 28 32 33 24 29 29 28 63 59 60 58 53 58 56 55 63 43 30 31 29 25 19 23 32 26 52 32 25 7 30 60 57 28 41 21 39 9 9 4 2 5 5 4 3 2 6 21 80 75 57 19 0 0 0 0 0 0 0 0 0 0 0 0 0 0 0 0 0 0 0 0 0 0 0 0 0 
0 0 0 0 0 0 0 0 0 0 0 0 0 0 0 0 0 0 0 0 0 0 0 0 0 20 51 88 63 51 7 7 7 5 0 5 4 4 3 4 11 26 30 34 15 20 47 47 33 34 65 55 44 39 47 17 33 31 27 52 59 57 58 56 57 61 61 66 36 26 30 46 52 45 35 31 21 55 13 24 4 16 12 33 57 23 18 3 8 5 5 6 4 3 4 4 7 4 21 50 84 88 43 0 0 0 0 0 0 0 0 0 0 0 0 0 0 0 0 0 0 0 0 0 0 0 0 0 
0 0 0 0 0 0 0 0 0 0 0 0 0 0 0 0 0 0 0 0 0 11 0 0 0 43 73 74 38 44 7 2 22 6 6 8 5 0 2 17 19 22 30 12 34 23 25 48 47 44 55 59 55 56 62 61 46 38 42 57 60 60 60 57 55 58 57 59 47 37 58 58 60 55 48 33 56 59 34 26 20 12 17 42 59 40 24 13 6 0 4 2 5 4 6 12 2 6 20 32 70 45 73 21 0 13 23 20 0 0 0 0 0 0 0 0 0 0 0 0 0 0 0 0 0 0 0 0 
0 0 0 0 0 0 0 0 0 0 0 0 0 0 0 0 0 0 0 11 53 52 40 33 50 57 40 63 80 51 9 13 12 4 6 6 9 4 5 22 22 52 63 46 28 40 36 49 55 51 56 45 58 57 57 60 62 36 26 56 59 65 66 59 61 54 53 53 40 54 52 54 52 57 46 49 47 56 49 39 24 22 3 23 27 24 42 17 14 6 2 1 2 6 4 5 12 7 27 37 75 37 37 60 36 48 76 72 49 0 0 0 0 0 0 0 0 0 0 0 0 0 0 0 0 0 0 0 
0 0 0 0 0 0 0 0 0 0 0 0 0 0 0 0 0 0 0 30 41 88 65 63 51 41 25 49 74 52 12 14 11 8 9 13 2 2 13 24 38 61 58 30 15 27 40 53 58 61 52 55 60 61 64 63 60 53 26 37 63 60 61 52 58 61 57 57 47 55 56 59 64 62 65 58 57 53 60 52 47 36 23 7 46 47 58 45 24 8 1 0 2 4 2 1 12 14 30 42 88 0 16 48 68 69 88 47 58 0 0 0 0 0 0 0 0 0 0 0 0 0 0 0 0 0 0 0 
0 0 0 0 0 0 0 0 0 0 0 0 0 0 0 0 0 0 0 23 45 47 30 36 23 0 12 25 85 55 22 13 24 5 7 5 4 13 7 13 40 49 48 12 22 46 51 57 57 55 55 55 58 61 62 63 61 57 59 51 58 59 53 30 42 51 60 54 56 59 63 61 59 62 63 56 59 55 55 53 60 52 39 31 7 21 68 72 42 9 4 3 1 5 5 5 5 16 38 63 82 0 0 12 32 52 58 67 0 0 0 0 0 0 0 0 0 0 0 0 0 0 0 0 0 0 0 0 
0 0 0 0 0 0 0 0 0 0 0 0 0 0 0 0 0 0 49 88 42 59 13 0 0 0 0 11 81 79 30 13 17 17 8 6 5 36 39 34 51 45 31 17 45 55 54 57 54 56 53 54 57 54 59 60 60 58 55 56 55 51 38 31 32 47 31 43 58 61 61 57 58 54 55 57 58 59 59 56 52 52 53 42 31 28 41 67 40 13 2 4 1 0 5 13 5 22 50 83 53 0 0 0 0 31 70 50 63 11 0 0 0 0 0 0 0 0 0 0 0 0 0 0 0 0 0 0 
0 0 0 0 0 0 0 0 0 0 0 0 0 0 0 0 0 0 38 79 69 58 0 0 0 0 0 0 56 88 42 28 5 11 28 30 35 51 50 47 48 33 50 54 56 56 52 54 55 55 55 59 57 55 56 57 57 57 57 57 55 53 50 29 32 27 52 55 55 58 60 59 57 59 54 55 58 58 54 58 58 54 53 53 57 54 48 57 45 24 13 1 2 1 5 15 9 43 83 74 24 0 0 0 0 24 65 88 88 24 0 0 0 0 0 0 0 0 0 0 0 0 0 0 0 0 0 0 
0 0 0 0 0 0 0 0 0 0 0 0 0 0 0 0 0 0 0 52 43 48 0 0 0 0 0 0 34 76 72 37 8 6 29 55 51 48 36 31 59 60 51 57 53 54 54 50 56 57 56 57 55 56 56 56 59 59 60 55 60 58 58 43 26 48 57 59 56 57 59 58 57 57 58 56 59 56 56 57 58 57 55 54 53 53 61 67 74 40 15 1 1 0 5 6 21 56 77 56 14 0 0 0 0 0 51 37 55 0 0 0 0 0 0 0 0 0 0 0 0 0 0 0 0 0 0 0 
0 0 0 0 0 0 0 0 0 0 0 0 0 0 0 0 0 0 0 13 33 0 0 0 0 0 0 0 24 88 88 63 45 16 21 45 31 35 23 30 46 31 44 53 52 53 55 54 55 56 55 55 55 57 57 56 59 55 57 58 58 57 58 49 35 55 57 58 59 56 54 60 61 64 58 58 57 57 57 59 57 57 52 55 51 53 53 45 31 24 17 9 1 9 9 13 55 69 88 37 0 0 0 0 0 0 0 0 0 0 0 0 0 0 0 0 0 0 0 0 0 0 0 0 0 0 0 0 
0 0 0 0 0 0 0 0 0 0 0 0 0 0 0 0 0 0 0 0 0 0 0 0 0 0 0 0 16 50 88 72 59 51 36 29 51 31 14 34 19 37 43 53 53 57 55 50 57 54 59 56 55 58 56 59 56 56 54 58 58 59 57 53 40 58 59 56 60 58 57 55 61 54 59 58 57 58 57 58 58 56 53 56 54 52 49 40 35 23 30 26 26 19 35 59 68 88 49 16 0 0 0 0 0 0 0 0 0 0 0 0 0 0 0 0 0 0 0 0 0 0 0 0 0 0 0 0 
0 0 0 0 0 0 0 0 0 0 0 0 0 0 0 0 0 0 0 0 0 0 0 0 0 0 0 0 0 30 88 88 67 49 52 61 65 28 18 22 11 39 43 51 53 56 54 54 53 58 56 56 56 55 58 56 58 57 51 54 58 56 56 55 40 55 57 57 60 58 56 53 58 55 59 55 58 58 58 56 58 54 57 51 56 51 47 39 22 21 19 37 41 48 48 68 88 78 31 0 0 0 0 0 0 0 0 0 0 0 0 0 0 0 0 0 0 0 0 0 0 0 0 0 0 0 0 0 
0 0 0 0 0 0 0 0 0 0 0 0 0 0 0 0 0 0 0 0 0 0 0 0 0 0 0 0 0 26 68 88 88 41 49 54 55 28 38 21 14 33 41 49 50 53 55 54 55 54 56 56 55 57 53 59 56 58 53 56 52 59 56 52 36 56 58 58 57 61 52 56 56 58 59 57 58 58 56 55 56 53 57 51 53 50 41 25 24 26 35 49 59 47 57 88 88 49 12 0 0 0 0 0 0 0 0 0 0 0 0 0 0 0 0 0 0 0 0 0 0 0 0 0 0 0 0 0 
0 0 0 0 0 0 0 0 0 0 0 0 0 0 0 0 0 0 0 0 0 0 0 0 0 0 0 0 0 13 40 88 88 88 41 55 33 38 48 40 19 17 32 40 56 53 58 56 60 51 57 59 55 60 55 55 56 54 57 42 49 58 57 41 25 47 57 62 50 42 49 57 55 58 60 57 59 57 55 53 54 56 53 53 50 47 34 21 24 44 88 71 44 59 88 88 78 29 0 0 0 0 0 0 0 0 0 0 0 0 0 0 0 0 0 0 0 0 0 0 0 0 0 0 0 0 0 0 
0 0 0 0 0 0 0 0 0 0 0 0 0 0 0 0 0 0 0 0 0 0 0 0 0 0 0 0 0 0 32 65 88 88 86 47 50 48 31 53 25 12 20 31 44 53 55 51 59 51 58 56 56 58 55 58 54 57 57 51 29 36 42 30 30 42 50 51 31 43 48 55 56 56 59 55 55 56 55 51 58 53 54 52 49 32 20 11 49 54 85 47 58 80 88 88 43 13 0 0 0 0 0 0 0 0 0 0 0 0 0 0 0 0 0 0 0 0 0 0 0 0 0 0 0 0 0 0 
0 0 0 0 0 0 0 0 0 0 0 0 0 0 0 0 0 0 0 0 0 0 0 0 0 0 0 0 0 0 15 51 88 88 88 55 48 44 33 58 54 16 17 17 34 49 50 51 52 50 60 56 56 55 55 56 59 56 53 50 23 17 15 31 30 35 29 20 20 35 47 53 57 56 55 55 57 59 53 56 54 54 50 50 41 23 13 25 85 50 63 48 63 88 88 76 32 0 0 0 0 0 0 0 0 0 0 0 0 0 0 0 0 0 0 0 0 0 0 0 0 0 0 0 0 0 0 0 
0 0 0 0 0 0 0 0 0 0 0 0 0 0 0 0 0 0 0 0 0 0 0 0 0 0 0 0 0 0 0 35 67 88 88 88 55 49 54 48 64 32 31 15 25 37 45 49 54 53 62 55 54 59 54 52 58 57 54 45 27 19 28 35 31 19 31 17 31 37 45 54 57 58 53 60 52 56 55 51 54 55 45 37 31 25 22 47 77 56 55 60 88 88 88 53 12 0 0 0 0 0 0 0 0 0 0 0 0 0 0 0 0 0 0 0 0 0 0 0 0 0 0 0 0 0 0 0 
0 0 0 0 0 0 0 0 0 0 0 0 0 0 0 0 0 0 0 0 0 0 0 0 0 0 0 0 0 0 0 14 47 88 88 88 88 48 50 57 76 51 43 14 15 30 36 45 46 46 55 56 55 54 53 53 50 50 46 34 22 24 39 53 48 39 30 45 29 39 44 47 52 54 54 55 53 55 53 52 53 49 42 26 21 33 44 63 65 63 58 88 88 88 62 31 0 0 0 0 0 0 0 0 0 0 0 0 0 0 0 0 0 0 0 0 0 0 0 0 0 0 0 0 0 0 0 0 
0 0 0 0 0 0 0 0 0 0 0 0 0 0 0 0 0 0 0 0 0 0 0 0 0 0 0 0 0 0 0 0 41 67 88 88 88 80 53 52 48 62 55 34 23 24 33 40 41 38 48 50 52 39 45 45 42 38 34 24 17 24 50 65 62 40 29 27 40 30 37 44 46 48 49 48 44 50 49 49 47 39 31 40 25 57 60 55 78 66 88 88 88 88 43 0 0 0 0 0 0 0 0 0 0 0 0 0 0 0 0 0 0 0 0 0 0 0 0 0 0 0 0 0 0 0 0 0 
0 0 0 0 0 0 0 0 0 0 0 0 0 0 0 0 0 0 0 0 0 0 0 0 0 0 0 0 0 0 0 0 12 46 88 88 88 88 88 62 51 39 25 54 39 30 34 49 32 35 37 35 38 27 34 35 35 29 26 24 28 31 43 49 48 33 32 25 28 30 24 37 34 38 41 36 38 40 44 42 39 40 28 45 45 55 46 63 88 88 88 88 88 59 27 0 0 0 0 0 0 0 0 0 0 0 0 0 0 0 0 0 0 0 0 0 0 0 0 0 0 0 0 0 0 0 0 0 
0 0 0 0 0 0 0 0 0 0 0 0 0 0 0 0 0 0 0 0 0 0 0 0 0 0 0 0 0 0 0 0 0 30 55 88 88 88 88 88 57 61 82 48 54 49 40 52 34 37 33 39 25 21 31 38 41 33 33 48 43 55 46 47 35 26 23 30 19 21 23 20 27 34 35 33 33 33 38 37 39 40 48 52 49 43 54 76 88 51 88 88 79 40 0 0 0 0 0 0 0 0 0 0 0 0 0 0 0 0 0 0 0 0 0 0 0 0 0 0 0 0 0 0 0 0 0 0 
0 0 0 0 0 0 0 0 0 0 0 0 0 0 0 0 0 0 0 0 0 0 0 0 0 0 0 0 0 0 0 0 0 0 44 74 88 88 88 88 86 65 42 66 63 55 51 60 46 47 43 38 31 28 25 38 59 50 47 57 60 63 54 41 30 38 35 34 35 29 22 30 34 31 50 38 29 38 33 38 43 55 52 55 45 50 88 88 88 88 88 88 50 19 0 0 0 0 0 0 0 0 0 0 0 0 0 0 0 0 0 0 0 0 0 0 0 0 0 0 0 0 0 0 0 0 0 0 
0 0 0 0 0 0 0 0 0 0 0 0 0 0 0 0 0 0 0 0 0 0 0 0 0 0 0 0 0 0 0 0 0 0 18 47 81 88 88 88 88 88 65 49 47 62 58 55 61 54 53 51 60 47 53 68 72 81 72 73 71 68 83 48 60 57 55 59 46 55 53 65 47 62 74 55 45 40 43 56 60 56 46 46 54 88 88 88 88 88 88 54 28 0 0 0 0 0 0 0 0 0 0 0 0 0 0 0 0 0 0 0 0 0 0 0 0 0 0 0 0 0 0 0 0 0 0 0 
0 0 0 0 0 0 0 0 0 0 0 0 0 0 0 0 0 0 0 0 0 0 0 0 0 0 0 0 0 0 0 0 0 0 0 30 53 88 88 88 88 88 88 72 49 57 55 57 68 65 59 52 61 70 75 78 88 88 79 88 63 77 57 88 86 88 76 63 63 58 88 55 88 88 81 88 67 54 52 51 49 44 40 59 88 88 88 88 88 88 61 32 0 0 0 0 0 0 0 0 0 0 0 0 0 0 0 0 0 0 0 0 0 0 0 0 0 0 0 0 0 0 0 0 0 0 0 0 
0 0 0 0 0 0 0 0 0 0 0 0 0 0 0 0 0 0 0 0 0 0 0 0 0 0 0 0 0 0 0 0 0 0 0 0 37 54 88 88 88 88 88 88 86 59 43 39 45 55 60 60 80 55 61 85 88 83 77 61 48 64 56 88 71 88 67 58 50 86 81 65 69 69 76 51 60 49 40 41 48 38 60 88 88 88 88 88 88 63 38 11 0 0 0 0 0 0 0 0 0 0 0 0 0 0 0 0 0 0 0 0 0 0 0 0 0 0 0 0 0 0 0 0 0 0 0 0 
0 0 0 0 0 0 0 0 0 0 0 0 0 0 0 0 0 0 0 0 0 0 0 0 0 0 0 0 0 0 0 0 0 0 0 0 0 42 60 88 88 88 88 88 88 88 56 53 54 44 41 44 44 43 38 37 49 53 51 52 51 61 75 62 88 88 49 56 47 48 53 52 47 41 58 43 40 45 46 45 54 58 88 88 88 88 88 88 56 39 13 0 0 0 0 0 0 0 0 0 0 0 0 0 0 0 0 0 0 0 0 0 0 0 0 0 0 0 0 0 0 0 0 0 0 0 0 0 
0 0 0 0 0 0 0 0 0 0 0 0 0 0 0 0 0 0 0 0 0 0 0 0 0 0 0 0 0 0 0 0 0 0 0 0 0 0 39 51 82 88 88 88 88 88 88 77 47 50 46 49 49 46 49 49 49 46 51 49 51 46 70 64 88 55 52 43 60 52 54 48 47 52 48 53 49 49 48 57 66 88 88 88 88 88 88 52 41 13 0 0 0 0 0 0 0 0 0 0 0 0 0 0 0 0 0 0 0 0 0 0 0 0 0 0 0 0 0 0 0 0 0 0 0 0 0 0 
0 0 0 0 0 0 0 0 0 0 0 0 0 0 0 0 0 0 0 0 0 0 0 0 0 0 0 0 0 0 0 0 0 0 0 0 0 0 0 39 57 76 88 88 88 88 88 88 88 83 87 60 49 48 48 49 48 54 53 48 48 47 41 43 42 52 46 49 52 58 52 53 50 50 55 56 55 63 72 84 88 88 88 88 88 77 50 37 0 0 0 0 0 0 0 0 0 0 0 0 0 0 0 0 0 0 0 0 0 0 0 0 0 0 0 0 0 0 0 0 0 0 0 0 0 0 0 0 
0 0 0 0 0 0 0 0 0 0 0 0 0 0 0 0 0 0 0 0 0 0 0 0 0 0 0 0 0 0 0 0 0 0 0 0 0 0 0 0 30 45 56 78 88 88 88 88 88 88 71 88 66 58 54 54 54 51 50 49 45 32 35 50 36 41 54 56 57 75 75 56 57 59 68 67 74 80 88 88 88 88 88 88 72 50 35 0 0 0 0 0 0 0 0 0 0 0 0 0 0 0 0 0 0 0 0 0 0 0 0 0 0 0 0 0 0 0 0 0 0 0 0 0 0 0 0 0 
0 0 0 0 0 0 0 0 0 0 0 0 0 0 0 0 0 0 0 0 0 0 0 0 0 0 0 0 0 0 0 0 0 0 0 0 0 0 0 0 0 18 43 55 60 88 88 88 88 88 88 88 88 88 88 82 88 79 75 77 76 88 88 84 88 88 88 88 88 88 88 88 88 88 88 88 88 88 88 88 88 88 75 58 44 25 0 0 0 0 0 0 0 0 0 0 0 0 0 0 0 0 0 0 0 0 0 0 0 0 0 0 0 0 0 0 0 0 0 0 0 0 0 0 0 0 0 0 
0 0 0 0 0 0 0 0 0 0 0 0 0 0 0 0 0 0 0 0 0 0 0 0 0 0 0 0 0 0 0 0 0 0 0 0 0 0 0 0 0 0 0 33 49 51 58 87 88 88 88 88 88 88 88 88 88 88 88 88 88 88 88 88 88 88 88 88 88 88 88 88 88 88 88 88 88 88 88 88 79 64 48 44 16 0 0 0 0 0 0 0 0 0 0 0 0 0 0 0 0 0 0 0 0 0 0 0 0 0 0 0 0 0 0 0 0 0 0 0 0 0 0 0 0 0 0 0 
0 0 0 0 0 0 0 0 0 0 0 0 0 0 0 0 0 0 0 0 0 0 0 0 0 0 0 0 0 0 0 0 0 0 0 0 0 0 0 0 0 0 0 0 13 40 48 47 56 71 88 88 88 88 88 88 88 88 88 88 88 88 88 88 88 88 88 88 88 88 88 88 88 88 88 88 88 88 73 54 48 41 39 18 0 0 0 0 0 0 0 0 0 0 0 0 0 0 0 0 0 0 0 0 0 0 0 0 0 0 0 0 0 0 0 0 0 0 0 0 0 0 0 0 0 0 0 0 
0 0 0 0 0 0 0 0 0 0 0 0 0 0 0 0 0 0 0 0 0 0 0 0 0 0 0 0 0 0 0 0 0 0 0 0 0 0 0 0 0 0 0 0 0 0 18 38 45 43 48 45 59 64 74 88 88 88 88 88 88 88 88 88 88 88 88 82 88 82 80 74 67 71 56 53 48 43 45 43 32 13 0 0 0 0 0 0 0 0 0 0 0 0 0 0 0 0 0 0 0 0 0 0 0 0 0 0 0 0 0 0 0 0 0 0 0 0 0 0 0 0 0 0 0 0 0 0 
0 0 0 0 0 0 0 0 0 0 0 0 0 0 0 0 0 0 0 0 0 0 0 0 0 0 0 0 0 0 0 0 0 0 0 0 0 0 0 0 0 0 0 0 0 0 0 0 12 27 37 41 42 42 47 42 51 47 46 48 52 45 41 44 42 42 45 48 42 45 46 46 50 43 42 42 41 33 22 0 0 0 0 0 0 0 0 0 0 0 0 0 0 0 0 0 0 0 0 0 0 0 0 0 0 0 0 0 0 0 0 0 0 0 0 0 0 0 0 0 0 0 0 0 0 0 0 0 
0 0 0 0 0 0 0 0 0 0 0 0 0 0 0 0 0 0 0 0 0 0 0 0 0 0 0 0 0 0 0 0 0 0 0 0 0 0 0 0 0 0 0 0 0 0 0 0 0 0 0 0 15 25 31 34 38 38 40 40 43 43 41 38 38 40 39 40 39 38 35 30 30 26 20 11 0 0 0 0 0 0 0 0 0 0 0 0 0 0 0 0 0 0 0 0 0 0 0 0 0 0 0 0 0 0 0 0 0 0 0 0 0 0 0 0 0 0 0 0 0 0 0 0 0 0 0 0 
0 0 0 0 0 0 0 0 0 0 0 0 0 0 0 0 0 0 0 0 0 0 0 0 0 0 0 0 0 0 0 0 0 0 0 0 0 0 0 0 0 0 0 0 0 0 0 0 0 0 0 0 0 0 0 0 0 0 0 0 0 0 0 0 0 0 0 0 0 0 0 0 0 0 0 0 0 0 0 0 0 0 0 0 0 0 0 0 0 0 0 0 0 0 0 0 0 0 0 0 0 0 0 0 0 0 0 0 0 0 0 0 0 0 0 0 0 0 0 0 0 0 0 0 0 0 0 0 
0 0 0 0 0 0 0 0 0 0 0 0 0 0 0 0 0 0 0 0 0 0 0 0 0 0 0 0 0 0 0 0 0 0 0 0 0 0 0 0 0 0 0 0 0 0 0 0 0 0 0 0 0 0 0 0 0 0 0 0 0 0 0 0 0 0 0 0 0 0 0 0 0 0 0 0 0 0 0 0 0 0 0 0 0 0 0 0 0 0 0 0 0 0 0 0 0 0 0 0 0 0 0 0 0 0 0 0 0 0 0 0 0 0 0 0 0 0 0 0 0 0 0 0 0 0 0 0 
0 0 0 0 0 0 0 0 0 0 0 0 0 0 0 0 0 0 0 0 0 0 0 0 0 0 0 0 0 0 0 0 0 0 0 0 0 0 0 0 0 0 0 0 0 0 0 0 0 0 0 0 0 0 0 0 0 0 0 0 0 0 0 0 0 0 0 0 0 0 0 0 0 0 0 0 0 0 0 0 0 0 0 0 0 0 0 0 0 0 0 0 0 0 0 0 0 0 0 0 0 0 0 0 0 0 0 0 0 0 0 0 0 0 0 0 0 0 0 0 0 0 0 0 0 0 0 0 
0 0 0 0 0 0 0 0 0 0 0 0 0 0 0 0 0 0 0 0 0 0 0 0 0 0 0 0 0 0 0 0 0 0 0 0 0 0 0 0 0 0 0 0 0 0 0 0 0 0 0 0 0 0 0 0 0 0 0 0 0 0 0 0 0 0 0 0 0 0 0 0 0 0 0 0 0 0 0 0 0 0 0 0 0 0 0 0 0 0 0 0 0 0 0 0 0 0 0 0 0 0 0 0 0 0 0 0 0 0 0 0 0 0 0 0 0 0 0 0 0 0 0 0 0 0 0 0 
0 0 0 0 0 0 0 0 0 0 0 0 0 0 0 0 0 0 0 0 0 0 0 0 0 0 0 0 0 0 0 0 0 0 0 0 0 0 0 0 0 0 0 0 0 0 0 0 0 0 0 0 0 0 0 0 0 0 0 0 0 0 0 0 0 0 0 0 0 0 0 0 0 0 0 0 0 0 0 0 0 0 0 0 0 0 0 0 0 0 0 0 0 0 0 0 0 0 0 0 0 0 0 0 0 0 0 0 0 0 0 0 0 0 0 0 0 0 0 0 0 0 0 0 0 0 0 0 
0 0 0 0 0 0 0 0 0 0 0 0 0 0 0 0 0 0 0 0 0 0 0 0 0 0 0 0 0 0 0 0 0 0 0 0 0 0 0 0 0 0 0 0 0 0 0 0 0 0 0 0 0 0 0 0 0 0 0 0 0 0 0 0 0 0 0 0 0 0 0 0 0 0 0 0 0 0 0 0 0 0 0 0 0 0 0 0 0 0 0 0 0 0 0 0 0 0 0 0 0 0 0 0 0 0 0 0 0 0 0 0 0 0 0 0 0 0 0 0 0 0 0 0 0 0 0 0 
0 0 0 0 0 0 0 0 0 0 0 0 0 0 0 0 0 0 0 0 0 0 0 0 0 0 0 0 0 0 0 0 0 0 0 0 0 0 0 0 0 0 0 0 0 0 0 0 0 0 0 0 0 0 0 0 0 0 0 0 0 0 0 0 0 0 0 0 0 0 0 0 0 0 0 0 0 0 0 0 0 0 0 0 0 0 0 0 0 0 0 0 0 0 0 0 0 0 0 0 0 0 0 0 0 0 0 0 0 0 0 0 0 0 0 0 0 0 0 0 0 0 0 0 0 0 0 0 
