P2
128 128
88
0 0 0 0 0 0 0 0 0 0 0 0 0 0 0 0 0 0 0 0 0 0 0 0 0 0 0 0 0 0 0 0 0 0 0 0 0 0 0 0 0 0 0 0 0 0 0 0 0 0 0 0 0 0 0 0 0 0 0 0 0 0 0 0 0 0 0 0 0 0 0 0 0 0 0 0 0 0 0 0 0 0 0 0 0 0 0 0 0 0 0 0 0 0 0 0 0 0 0 0 0 0 0 0 0 0 0 0 0 0 0 0 0 0 0 0 0 0 0 0 0 0 0 0 0 0 0 0 
0 0 0 0 0 0 0 0 0 0 0 0 0 0 0 0 0 0 0 0 0 0 0 0 0 0 0 0 0 0 0 0 0 0 0 0 0 0 0 0 0 0 0 0 0 0 0 0 0 0 0 0 0 0 0 0 0 0 0 0 0 0 0 0 0 0 0 0 0 0 0 0 0 0 0 0 0 0 0 0 0 0 0 0 0 0 0 0 0 0 0 0 0 0 0 0 0 0 0 0 0 0 0 0 0 0 0 0 0 0 0 0 0 0 0 0 0 0 0 0 0 0 0 0 0 0 0 0 
0 0 0 0 0 0 0 0 0 0 0 0 0 0 0 0 0 0 0 0 0 0 0 0 0 0 0 0 0 0 0 0 0 0 0 0 0 0 0 0 0 0 0 0 0 0 0 0 0 0 0 0 0 0 0 0 0 0 0 0 0 0 0 0 0 0 0 0 0 0 0 0 0 0 0 0 0 0 0 0 0 0 0 0 0 0 0 0 0 0 0 0 0 0 0 0 0 0 0 0 0 0 0 0 0 0 0 0 0 0 0 0 0 0 0 0 0 0 0 0 0 0 0 0 0 0 0 0 
0 0 0 0 0 0 0 0 0 0 0 0 0 0 0 0 0 0 0 0 0 0 0 0 0 0 0 0 0 0 0 0 0 0 0 0 0 0 0 0 0 0 0 0 0 0 0 0 0 0 0 0 0 0 0 0 0 0 0 0 0 0 0 0 0 0 0 0 0 0 0 0 0 0 0 0 0 0 0 0 0 0 0 0 0 0 0 0 0 0 0 0 0 0 0 0 0 0 0 0 0 0 0 0 0 0 0 0 0 0 0 0 0 0 0 0 0 0 0 0 0 0 0 0 0 0 0 0 
0 0 0 0 0 0 0 0 0 0 0 0 0 0 0 0 0 0 0 0 0 0 0 0 0 0 0 0 0 0 0 0 0 0 0 0 0 0 0 0 0 0 0 0 0 0 0 0 0 0 0 0 0 0 0 0 0 0 0 0 0 0 0 0 0 0 0 0 0 0 0 0 0 0 0 0 0 0 0 0 0 0 0 0 0 0 0 0 0 0 0 0 0 0 0 0 0 0 0 0 0 0 0 0 0 0 0 0 0 0 0 0 0 0 0 0 0 0 0 0 0 0 0 0 0 0 0 0 
0 0 0 0 0 0 0 0 0 0 0 0 0 0 0 0 0 0 0 0 0 0 0 0 0 0 0 0 0 0 0 0 0 0 0 0 0 0 0 0 0 0 0 0 0 0 0 0 0 0 0 0 0 0 0 0 0 0 0 0 0 0 0 0 0 0 0 0 0 0 0 0 0 0 0 0 0 0 0 0 0 0 0 0 0 0 0 0 0 0 0 0 0 0 0 0 0 0 0 0 0 0 0 0 0 0 0 0 0 0 0 0 0 0 0 0 0 0 0 0 0 0 0 0 0 0 0 0 
0 0 0 0 0 0 0 0 0 0 0 0 0 0 0 0 0 0 0 0 0 0 0 0 0 0 0 0 0 0 0 0 0 0 0 0 0 0 0 0 0 0 0 0 0 0 0 0 0 0 0 0 0 0 0 0 0 0 0 0 0 0 0 0 0 0 0 0 0 0 0 0 0 0 0 0 0 0 0 0 0 0 0 0 0 0 0 0 0 0 0 0 0 0 0 0 0 0 0 0 0 0 0 0 0 0 0 0 0 0 0 0 0 0 0 0 0 0 0 0 0 0 0 0 0 0 0 0 
0 0 0 0 0 0 0 0 0 0 0 0 0 0 0 0 0 0 0 0 0 0 0 0 0 0 0 0 0 0 0 0 0 0 0 0 0 0 0 0 0 0 0 0 0 0 0 0 0 0 0 0 0 0 0 0 0 0 0 0 0 0 0 0 0 0 0 0 0 0 0 0 0 0 0 0 0 0 0 0 0 0 0 0 0 0 0 0 0 0 0 0 0 0 0 0 0 0 0 0 0 0 0 0 0 0 0 0 0 0 0 0 0 0 0 0 0 0 0 0 0 0 0 0 0 0 0 0 
0 0 0 0 0 0 0 0 0 0 0 0 0 0 0 0 0 0 0 0 0 0 0 0 0 0 0 0 0 0 0 0 0 0 0 0 0 0 0 0 0 0 0 0 0 0 0 0 0 0 0 0 0 0 0 0 0 0 0 0 0 0 0 0 0 0 0 0 0 0 0 0 0 0 0 0 0 0 0 0 0 0 0 0 0 0 0 0 0 0 0 0 0 0 0 0 0 0 0 0 0 0 0 0 0 0 0 0 0 0 0 0 0 0 0 0 0 0 0 0 0 0 0 0 0 0 0 0 
0 0 0 0 0 0 0 0 0 0 0 0 0 0 0 0 0 0 0 0 0 0 0 0 0 0 0 0 0 0 0 0 0 0 0 0 0 0 0 0 0 0 0 0 0 0 0 0 0 0 0 0 0 0 0 0 0 0 0 0 0 0 0 0 0 0 0 0 0 0 0 0 0 0 0 0 0 0 0 0 0 0 0 0 0 0 0 0 0 0 0 0 0 0 0 0 0 0 0 0 0 0 0 0 0 0 0 0 0 0 0 0 0 0 0 0 0 0 0 0 0 0 0 0 0 0 0 0 
0 0 0 0 0 0 0 0 0 0 0 0 0 0 0 0 0 0 0 0 0 0 0 0 0 0 0 0 0 0 0 0 0 0 0 0 0 0 0 0 0 0 0 0 0 0 0 0 0 0 0 0 0 0 0 0 0 0 0 0 0 0 0 0 0 0 0 0 0 0 0 0 0 0 0 0 0 0 0 0 0 0 0 0 0 0 0 0 0 0 0 0 0 0 0 0 0 0 0 0 0 0 0 0 0 0 0 0 0 0 0 0 0 0 0 0 0 0 0 0 0 0 0 0 0 0 0 0 
0 0 0 0 0 0 0 0 0 0 0 0 0 0 0 0 0 0 0 0 0 0 0 0 0 0 0 0 0 0 0 0 0 0 0 0 0 0 0 0 0 0 0 0 0 0 0 0 0 0 0 0 0 0 0 0 0 0 0 0 0 0 0 0 0 0 0 0 0 0 0 0 0 0 0 0 0 0 0 0 0 0 0 0 0 0 0 0 0 0 0 0 0 0 0 0 0 0 0 0 0 0 0 0 0 0 0 0 0 0 0 0 0 0 0 0 0 0 0 0 0 0 0 0 0 0 0 0 
0 0 0 0 0 0 0 0 0 0 0 0 0 0 0 0 0 0 0 0 0 0 0 0 0 0 0 0 0 0 0 0 0 0 0 0 0 0 0 0 0 0 0 0 0 0 0 0 0 0 0 0 0 0 0 0 0 0 0 0 0 0 0 0 0 0 0 0 0 0 0 0 0 0 0 0 0 0 0 0 0 0 0 0 0 0 0 0 0 0 0 0 0 0 0 0 0 0 0 0 0 0 0 0 0 0 0 0 0 0 0 0 0 0 0 0 0 0 0 0 0 0 0 0 0 0 0 0 
0 0 0 0 0 0 0 0 0 0 0 0 0 0 0 0 0 0 0 0 0 0 0 0 0 0 0 0 0 0 0 0 0 0 0 0 0 0 0 0 0 0 0 0 0 0 0 0 0 0 0 0 0 0 0 0 0 0 0 0 0 0 0 0 0 0 0 0 0 0 0 0 0 0 0 0 0 0 0 0 0 0 0 0 0 0 0 0 0 0 0 0 0 0 0 0 0 0 0 0 0 0 0 0 0 0 0 0 0 0 0 0 0 0 0 0 0 0 0 0 0 0 0 0 0 0 0 0 
0 0 0 0 0 0 0 0 0 0 0 0 0 0 0 0 0 0 0 0 0 0 0 0 0 0 0 0 0 0 0 0 0 0 0 0 0 0 0 0 0 0 0 0 0 0 0 0 0 0 0 0 0 0 0 0 0 0 0 0 0 0 0 0 0 0 0 0 0 0 0 0 0 0 0 0 0 0 0 0 0 0 0 0 0 0 0 0 0 0 0 0 0 0 0 0 0 0 0 0 0 0 0 0 0 0 0 0 0 0 0 0 0 0 0 0 0 0 0 0 0 0 0 0 0 0 0 0 
0 0 0 0 0 0 0 0 0 0 0 0 0 0 0 0 0 0 0 0 0 0 0 0 0 0 0 0 0 0 0 0 0 0 0 0 0 0 0 0 0 0 0 0 0 0 0 0 0 0 0 0 0 0 0 0 0 0 0 0 0 0 0 0 0 0 0 0 0 0 0 0 0 0 0 0 0 0 0 0 0 0 0 0 0 0 0 0 0 0 0 0 0 0 0 0 0 0 0 0 0 0 0 0 0 0 0 0 0 0 0 0 0 0 0 0 0 0 0 0 0 0 0 0 0 0 0 0 
0 0 0 0 0 0 0 0 0 0 0 0 0 0 0 0 0 0 0 0 0 0 0 0 0 0 0 0 0 0 0 0 0 0 0 0 0 0 0 0 0 0 0 0 0 0 0 0 0 0 0 0 0 0 0 0 0 0 0 0 0 0 0 0 0 0 0 0 0 0 0 0 0 0 0 0 0 0 0 0 0 0 0 0 0 0 0 0 0 0 0 0 0 0 0 0 0 0 0 0 0 0 0 0 0 0 0 0 0 0 0 0 0 0 0 0 0 0 0 0 0 0 0 0 0 0 0 0 
0 0 0 0 0 0 0 0 0 0 0 0 0 0 0 0 0 0 0 0 0 0 0 0 0 0 0 0 0 0 0 0 0 0 0 0 0 0 0 0 0 0 0 0 0 0 0 0 0 0 0 0 0 0 0 0 0 0 0 0 0 0 0 0 0 0 0 0 0 0 0 0 0 0 0 0 0 0 0 0 0 0 0 0 0 0 0 0 0 0 0 0 0 0 0 0 0 0 0 0 0 0 0 0 0 0 0 0 0 0 0 0 0 0 0 0 0 0 0 0 0 0 0 0 0 0 0 0 
0 0 0 0 0 0 0 0 0 0 0 0 0 0 0 0 0 0 0 0 0 0 0 0 0 0 0 0 0 0 0 0 0 0 0 0 0 0 0 0 0 0 0 0 0 0 0 0 0 0 0 0 0 0 0 0 0 0 0 0 0 0 0 0 0 0 0 0 0 0 0 0 0 0 0 0 0 0 0 0 0 0 0 0 0 0 0 0 0 0 0 0 0 0 0 0 0 0 0 0 0 0 0 0 0 0 0 0 0 0 0 0 0 0 0 0 0 0 0 0 0 0 0 0 0 0 0 0 
0 0 0 0 0 0 0 0 0 0 0 0 0 0 0 0 0 0 0 0 0 0 0 0 0 0 0 0 0 0 0 0 0 0 0 0 0 0 0 0 0 0 0 0 0 0 0 0 0 0 0 0 0 0 0 0 0 0 5 12 27 38 54 63 53 29 13 0 0 0 0 0 0 0 0 0 0 0 0 0 0 0 0 0 0 0 0 0 0 0 0 0 0 0 0 0 0 0 0 0 0 0 0 0 0 0 0 0 0 0 0 0 0 0 0 0 0 0 0 0 0 0 0 0 0 0 0 0 
0 0 0 0 0 0 0 0 0 0 0 0 0 0 0 0 0 0 0 0 0 0 0 0 0 0 0 0 0 0 0 0 0 0 0 0 0 0 0 0 0 0 0 0 0 0 0 0 0 0 0 0 0 0 0 5 15 27 49 78 88 88 88 88 88 88 88 45 15 0 0 0 0 0 0 0 0 0 0 0 0 0 0 0 0 0 0 0 0 0 0 0 0 0 0 0 0 0 0 0 0 0 0 0 0 0 0 0 0 0 0 0 0 0 0 0 0 0 0 0 0 0 0 0 0 0 0 0 
0 0 0 0 0 0 0 0 0 0 0 0 0 0 0 0 0 0 0 0 0 0 0 0 0 0 0 0 0 0 0 0 0 0 0 0 0 0 0 0 0 0 0 0 0 0 0 0 0 0 0 0 0 13 20 33 51 69 74 79 88 78 88 88 88 88 88 88 72 33 11 0 0 0 0 0 0 0 0 0 0 0 0 0 0 0 0 0 0 0 0 0 0 0 0 0 0 0 0 0 0 0 0 0 0 0 0 0 0 0 0 0 0 0 0 0 0 0 0 0 0 0 0 0 0 0 0 0 
0 0 0 0 0 0 0 0 0 0 0 0 0 0 0 0 0 0 0 0 0 0 0 0 0 0 0 0 0 0 0 0 0 0 0 0 0 0 0 0 0 0 0 0 0 0 0 0 0 0 0 8 16 27 44 57 71 80 79 68 57 50 41 43 65 88 78 85 88 78 35 13 5 0 0 0 0 0 0 0 0 0 0 0 0 0 0 0 0 0 0 0 0 0 0 0 0 0 0 0 0 0 0 0 0 0 0 0 0 0 0 0 0 0 0 0 0 0 0 0 0 0 0 0 0 0 0 0 
0 0 0 0 0 0 0 0 0 0 0 0 0 0 0 0 0 0 0 0 0 0 0 0 0 0 0 0 0 0 0 0 0 0 0 0 0 0 0 0 0 0 0 0 0 0 0 0 0 0 13 15 29 41 50 72 80 86 72 78 57 53 39 21 28 40 73 72 88 88 63 33 13 5 0 0 0 0 0 0 0 0 0 0 0 0 0 0 0 0 0 0 0 0 0 0 0 0 0 0 0 0 0 0 0 0 0 0 0 0 0 0 0 0 0 0 0 0 0 0 0 0 0 0 0 0 0 0 
0 0 0 0 0 0 0 0 0 0 0 0 0 0 0 0 0 0 0 0 0 0 0 0 0 0 0 0 0 0 0 0 0 0 0 0 0 0 0 0 0 0 0 0 0 0 15 17 23 24 26 30 36 50 63 69 83 66 67 74 49 31 23 26 24 19 42 64 61 71 79 62 36 18 5 0 0 0 0 0 0 0 0 0 0 0 0 0 0 0 0 0 0 0 0 0 0 0 0 0 0 0 0 0 0 0 0 0 0 0 0 0 0 0 0 0 0 0 0 0 0 0 0 0 0 0 0 0 
0 0 0 0 0 0 0 0 0 0 0 0 0 0 0 0 0 0 0 0 0 0 0 0 0 0 0 0 0 0 0 0 0 0 0 0 0 0 0 0 0 0 0 13 25 29 24 34 34 34 31 31 32 31 44 70 80 53 81 54 45 19 48 35 36 31 20 58 58 51 59 61 29 14 9 0 5 13 12 13 9 0 0 0 0 0 0 0 0 0 0 0 0 0 0 0 0 0 0 0 0 0 0 0 0 0 0 0 0 0 0 0 0 0 0 0 0 0 0 0 0 0 0 0 0 0 0 0 
0 0 0 0 0 0 0 0 0 0 0 0 0 0 0 0 0 0 0 0 0 0 0 0 0 0 0 0 0 0 0 0 0 0 0 0 0 0 0 0 0 9 27 26 54 68 80 85 82 87 88 85 70 68 75 85 88 75 88 51 15 21 37 38 23 32 14 45 83 67 82 68 53 59 63 74 84 80 77 69 70 59 35 13 5 0 0 0 0 0 0 0 0 0 0 0 0 0 0 0 0 0 0 0 0 0 0 0 0 0 0 0 0 0 0 0 0 0 0 0 0 0 0 0 0 0 0 0 
0 0 0 0 0 0 0 0 0 0 0 0 0 0 0 0 0 0 0 0 0 0 0 0 0 0 0 0 0 0 0 0 0 0 0 0 0 0 0 0 22 30 50 88 88 70 54 54 53 50 64 88 88 88 88 87 88 88 70 9 15 29 23 7 21 40 22 19 54 88 58 84 88 88 88 88 65 48 52 58 52 45 60 72 30 0 0 0 0 0 0 0 0 0 0 0 0 0 0 0 0 0 0 0 0 0 0 0 0 0 0 0 0 0 0 0 0 0 0 0 0 0 0 0 0 0 0 0 
0 0 0 0 0 0 0 0 0 0 0 0 0 0 0 0 0 0 0 0 0 0 0 0 0 0 0 0 0 0 0 0 0 0 0 0 0 0 0 26 31 68 88 75 43 59 68 58 48 65 67 47 86 88 88 88 69 48 15 17 19 17 21 7 16 29 21 22 24 70 80 87 88 88 75 48 64 68 66 48 51 61 63 42 69 46 0 0 0 0 0 0 0 0 0 0 0 0 0 0 0 0 0 0 0 0 0 0 0 0 0 0 0 0 0 0 0 0 0 0 0 0 0 0 0 0 0 0 
0 0 0 0 0 0 0 0 0 0 0 0 0 0 0 0 0 0 0 0 0 0 0 0 0 0 0 0 0 0 0 0 0 0 0 0 0 0 32 33 86 88 59 59 79 59 47 41 39 48 53 63 63 72 88 88 73 31 13 16 19 19 37 14 39 40 21 42 16 29 76 88 88 87 70 47 38 38 36 41 48 58 49 64 48 57 45 5 0 0 0 0 0 0 0 0 0 0 0 0 0 0 0 0 0 0 0 0 0 0 0 0 0 0 0 0 0 0 0 0 0 0 0 0 0 0 0 0 
0 0 0 0 0 0 0 0 0 0 0 0 0 0 0 0 0 0 0 0 0 0 0 0 0 0 0 0 0 0 0 0 0 0 0 0 0 31 33 88 88 64 66 65 35 29 27 28 30 24 21 29 39 66 73 88 84 25 14 16 6 33 32 25 56 71 19 31 15 11 88 88 81 57 35 32 28 28 27 31 35 36 37 61 65 55 62 43 7 0 0 0 0 0 0 0 0 0 0 0 0 0 0 0 0 0 0 0 0 0 0 0 0 0 0 0 0 0 0 0 0 0 0 0 0 0 0 0 
0 0 0 0 0 0 0 0 0 0 0 0 0 0 0 0 0 0 0 0 0 0 0 0 0 0 0 0 0 0 0 0 0 0 0 0 28 41 88 88 62 59 72 33 28 28 29 25 25 27 25 26 29 39 66 88 87 13 44 18 6 59 70 67 86 88 63 60 29 18 87 88 81 42 34 25 28 26 28 28 31 26 30 20 53 73 52 71 29 5 0 0 0 0 0 0 0 0 0 0 0 0 0 0 0 0 0 0 0 0 0 0 0 0 0 0 0 0 0 0 0 0 0 0 0 0 0 0 
0 0 0 0 0 0 0 0 0 0 0 0 0 0 0 0 0 0 0 0 0 0 0 0 0 0 0 0 0 0 0 0 0 0 0 12 46 73 88 75 62 85 45 26 26 28 27 26 25 28 25 23 27 41 55 88 88 31 52 45 0 88 59 88 67 88 87 43 50 33 82 88 88 43 29 27 26 28 25 29 26 27 24 27 26 44 82 48 72 14 5 0 0 0 0 0 0 0 0 0 0 0 0 0 0 0 0 0 0 0 0 0 0 0 0 0 0 0 0 0 0 0 0 0 0 0 0 0 
0 0 0 0 0 0 0 0 0 0 0 0 0 0 0 0 0 0 0 0 0 0 0 0 0 0 0 0 0 0 0 0 0 0 0 49 52 88 88 60 84 64 36 22 26 26 26 25 27 26 23 26 25 30 61 88 88 28 31 84 87 88 34 88 49 88 88 88 46 70 88 88 88 39 27 25 27 25 25 28 27 25 25 27 26 26 79 55 84 52 12 0 0 0 0 0 0 0 0 0 0 0 0 0 0 0 0 0 0 0 0 0 0 0 0 0 0 0 0 0 0 0 0 0 0 0 0 0 
0 0 0 0 0 0 0 0 0 0 0 0 0 0 0 0 0 0 0 0 0 0 0 0 0 0 0 0 0 0 0 0 0 0 25 56 88 88 58 54 88 60 31 25 28 26 25 25 27 26 24 28 28 28 61 88 88 44 26 23 23 76 30 77 45 88 88 8 63 45 88 88 88 41 25 24 26 25 27 27 25 26 26 28 23 28 56 78 64 88 36 13 0 0 0 0 0 0 0 0 0 0 0 0 0 0 0 0 0 0 0 0 0 0 0 0 0 0 0 0 0 0 0 0 0 0 0 0 
0 0 0 0 0 0 0 0 0 0 0 0 0 0 0 0 0 0 0 0 0 0 0 0 0 0 0 0 0 0 0 0 0 0 62 65 88 58 41 69 86 58 32 25 27 26 27 25 27 24 27 26 29 33 82 88 88 51 31 15 13 63 43 55 49 88 49 11 23 28 88 88 88 57 24 23 27 26 25 25 29 25 27 26 27 28 39 88 43 79 80 31 0 0 0 0 0 0 0 0 0 0 0 0 0 0 0 0 0 0 0 0 0 0 0 0 0 0 0 0 0 0 0 0 0 0 0 0 
0 0 0 0 0 0 0 0 0 0 0 0 0 0 0 0 0 0 0 0 0 0 0 0 0 0 0 0 0 0 0 0 0 17 81 88 88 39 19 88 88 65 41 31 24 26 25 27 27 25 27 25 27 58 88 88 88 52 7 22 38 45 75 54 63 88 27 1 5 0 88 88 88 86 23 25 27 25 28 24 26 26 25 27 26 28 44 88 23 60 87 45 20 0 0 0 0 0 0 0 0 0 0 0 0 0 0 0 0 0 0 0 0 0 0 0 0 0 0 0 0 0 0 0 0 0 0 0 
0 0 0 0 0 0 0 0 0 0 0 0 0 0 0 0 0 0 0 0 0 0 0 0 0 0 0 0 0 0 0 0 0 54 80 88 57 17 1 71 88 72 43 45 28 26 25 26 27 25 24 24 39 81 88 88 88 59 3 1 5 27 79 51 72 88 35 12 4 7 88 88 88 86 39 25 23 28 25 27 26 27 26 26 24 37 52 88 13 24 45 71 64 0 0 0 0 0 0 0 0 0 0 0 0 0 0 0 0 0 0 0 0 0 0 0 0 0 0 0 0 0 0 0 0 0 0 0 
0 0 0 0 0 0 0 0 0 0 0 0 0 0 0 0 0 0 0 0 0 0 0 0 0 0 0 0 0 0 0 0 0 88 72 88 27 9 23 4 88 88 59 51 46 31 23 27 27 25 29 51 88 88 88 88 88 57 3 0 22 24 75 40 81 88 40 20 15 13 88 88 88 88 88 30 29 22 26 27 28 26 25 28 25 44 78 41 43 22 21 73 88 34 0 0 0 0 0 0 0 0 0 0 0 0 0 0 0 0 0 0 0 0 0 0 0 0 0 0 0 0 0 0 0 0 0 0 
0 0 0 0 0 0 0 0 0 0 0 0 0 0 0 0 0 0 0 0 0 0 0 0 0 0 0 0 0 0 0 0 25 88 70 88 20 12 49 13 31 88 83 79 88 70 47 36 32 33 37 80 88 88 88 88 88 59 11 26 25 31 60 39 70 88 41 30 23 6 87 88 88 88 88 74 32 27 31 27 25 27 26 31 55 60 80 15 82 28 6 78 53 88 0 0 0 0 0 0 0 0 0 0 0 0 0 0 0 0 0 0 0 0 0 0 0 0 0 0 0 0 0 0 0 0 0 0 
0 0 0 0 0 0 0 0 0 0 0 0 0 0 0 0 0 0 0 0 0 0 0 0 0 0 0 0 0 0 0 0 88 88 73 88 11 11 35 38 8 54 88 88 66 88 88 80 58 51 51 88 88 88 88 88 88 41 5 28 9 27 70 38 67 88 28 13 18 8 63 88 88 88 88 77 86 84 46 41 37 53 88 66 87 88 23 56 70 22 4 83 56 88 51 0 0 0 0 0 0 0 0 0 0 0 0 0 0 0 0 0 0 0 0 0 0 0 0 0 0 0 0 0 0 0 0 0 
0 0 0 0 0 0 0 0 0 0 0 0 0 0 0 0 0 0 0 0 0 0 0 0 0 0 0 0 0 0 0 22 88 64 76 88 29 54 34 16 19 2 45 88 88 68 86 88 88 71 70 60 88 88 88 88 88 38 2 9 30 13 73 53 72 88 58 6 29 1 34 88 88 88 83 88 88 88 88 88 88 88 65 88 88 53 9 40 24 29 12 43 84 71 88 0 0 0 0 0 0 0 0 0 0 0 0 0 0 0 0 0 0 0 0 0 0 0 0 0 0 0 0 0 0 0 0 0 
0 0 0 0 0 0 0 0 0 0 0 0 0 0 0 0 0 0 0 0 0 0 0 0 0 0 0 0 0 0 0 88 88 85 84 79 56 45 62 66 59 38 18 38 88 75 88 88 88 88 72 72 88 88 88 88 88 38 0 13 28 37 46 57 82 47 45 54 17 5 22 88 88 88 87 88 88 88 88 88 88 88 88 88 33 20 26 32 44 62 30 74 77 64 88 75 0 0 0 0 0 0 0 0 0 0 0 0 0 0 0 0 0 0 0 0 0 0 0 0 0 0 0 0 0 0 0 0 
0 0 0 0 0 0 0 0 0 0 0 0 0 0 0 0 0 0 0 0 0 0 0 0 0 0 0 0 0 0 27 88 43 74 88 37 72 58 59 66 67 74 57 3 40 88 43 88 88 88 88 80 78 88 88 88 88 53 9 5 27 17 35 62 88 47 11 31 6 3 23 88 88 88 82 88 88 88 88 88 71 75 88 25 23 25 47 56 62 73 59 36 88 84 62 88 19 0 0 0 0 0 0 0 0 0 0 0 0 0 0 0 0 0 0 0 0 0 0 0 0 0 0 0 0 0 0 0 
0 0 0 0 0 0 0 0 0 0 0 0 0 0 0 0 0 0 0 0 0 0 0 0 0 0 0 0 0 0 86 88 68 73 88 38 70 68 64 56 63 70 88 48 6 53 88 56 88 88 88 88 88 88 88 88 88 60 1 14 8 4 20 68 88 13 1 1 19 8 32 85 88 88 88 88 88 88 88 62 74 88 28 17 47 61 67 62 60 77 66 42 88 64 88 88 88 0 0 0 0 0 0 0 0 0 0 0 0 0 0 0 0 0 0 0 0 0 0 0 0 0 0 0 0 0 0 0 
0 0 0 0 0 0 0 0 0 0 0 0 0 0 0 0 0 0 0 0 0 0 0 0 0 0 0 0 5 26 88 88 88 76 88 66 58 63 63 53 82 63 88 88 23 37 45 88 54 88 88 88 88 88 88 88 88 83 8 5 9 1 20 76 88 8 2 2 1 7 47 88 88 88 88 88 88 88 85 78 88 43 23 19 81 80 68 59 71 68 62 57 88 70 88 88 88 38 0 0 0 0 0 0 0 0 0 0 0 0 0 0 0 0 0 0 0 0 0 0 0 0 0 0 0 0 0 0 
0 0 0 0 0 0 0 0 0 0 0 0 0 0 0 0 0 0 0 0 0 0 0 0 0 0 0 0 0 83 88 88 88 88 88 77 70 54 71 53 81 51 67 81 79 31 61 32 88 53 88 88 88 88 88 88 88 88 13 8 11 13 23 82 88 9 3 1 2 0 69 83 88 88 88 88 88 88 72 88 53 29 36 63 77 59 60 51 69 63 60 88 88 88 88 88 88 88 0 0 0 0 0 0 0 0 0 0 0 0 0 0 0 0 0 0 0 0 0 0 0 0 0 0 0 0 0 0 
0 0 0 0 0 0 0 0 0 0 0 0 0 0 0 0 0 0 0 0 0 0 0 0 0 0 0 0 16 88 88 88 74 88 88 76 63 57 65 50 70 59 60 68 88 74 88 83 26 88 61 88 88 88 88 88 88 88 9 6 8 12 15 86 88 13 2 4 0 2 65 88 88 88 88 88 88 64 88 47 34 47 45 88 67 65 59 47 67 68 75 88 88 88 88 88 88 88 33 0 0 0 0 0 0 0 0 0 0 0 0 0 0 0 0 0 0 0 0 0 0 0 0 0 0 0 0 0 
0 0 0 0 0 0 0 0 0 0 0 0 0 0 0 0 0 0 0 0 0 0 0 0 0 0 0 0 63 88 88 88 88 88 88 61 88 88 61 68 66 50 63 80 88 64 78 88 85 31 88 70 88 88 88 88 88 88 6 2 2 3 23 88 88 20 6 2 0 3 72 88 88 88 88 88 69 88 41 84 88 78 88 83 62 61 60 75 55 88 78 88 88 88 88 88 88 88 88 0 0 0 0 0 0 0 0 0 0 0 0 0 0 0 0 0 0 0 0 0 0 0 0 0 0 0 0 0 
0 0 0 0 0 0 0 0 0 0 0 0 0 0 0 0 0 0 0 0 0 0 0 0 0 0 0 0 88 88 88 88 88 88 88 65 71 56 25 43 54 52 58 77 88 84 61 80 70 74 31 88 88 88 88 88 88 88 23 11 36 48 53 65 88 45 0 1 1 1 58 88 88 88 88 88 88 45 84 88 69 82 88 88 63 60 63 78 20 86 53 73 88 88 88 88 88 88 88 21 0 0 0 0 0 0 0 0 0 0 0 0 0 0 0 0 0 0 0 0 0 0 0 0 0 0 0 0 
0 0 0 0 0 0 0 0 0 0 0 0 0 0 0 0 0 0 0 0 0 0 0 0 0 0 7 47 88 88 88 88 88 88 81 61 76 51 39 57 57 54 62 71 83 39 83 53 49 52 58 56 88 88 88 88 88 80 20 31 30 32 37 19 73 88 7 7 1 0 42 88 88 88 88 88 72 59 75 69 76 69 45 88 66 59 60 65 75 78 79 68 67 88 88 88 88 88 88 75 7 0 0 0 0 0 0 0 0 0 0 0 0 0 0 0 0 0 0 0 0 0 0 0 0 0 0 0 
0 0 0 0 0 0 0 0 0 0 0 0 0 0 0 0 0 0 0 0 0 0 0 0 0 0 0 88 88 88 88 88 88 88 77 63 45 54 67 60 63 57 65 64 52 38 47 47 61 41 46 22 88 88 88 88 88 88 3 2 13 24 4 2 3 23 72 3 0 2 49 88 88 88 88 88 40 70 61 55 52 51 32 53 76 57 61 68 38 45 65 63 88 88 88 88 88 88 88 88 7 0 0 0 0 0 0 0 0 0 0 0 0 0 0 0 0 0 0 0 0 0 0 0 0 0 0 0 
0 0 0 0 0 0 0 0 0 0 0 0 0 0 0 0 0 0 0 0 0 0 0 0 0 0 18 88 88 88 88 88 88 88 72 56 33 41 51 75 63 62 60 47 21 44 42 51 47 63 49 52 13 88 88 88 88 83 0 2 7 8 3 2 1 4 2 34 34 8 49 88 88 88 88 29 56 50 46 42 45 44 48 47 49 73 59 66 52 35 41 63 88 88 88 88 88 88 88 88 44 0 0 0 0 0 0 0 0 0 0 0 0 0 0 0 0 0 0 0 0 0 0 0 0 0 0 0 
0 0 0 0 0 0 0 0 0 0 0 0 0 0 0 0 0 0 0 0 0 0 0 0 0 6 54 88 88 88 88 88 88 88 74 61 29 45 56 87 83 58 48 19 33 35 60 57 59 45 67 58 35 32 88 88 88 63 0 3 11 2 2 2 1 1 2 1 5 21 40 88 88 88 49 26 73 45 37 41 39 54 57 56 47 64 65 69 55 53 30 56 63 88 88 88 88 88 88 88 86 0 0 0 0 0 0 0 0 0 0 0 0 0 0 0 0 0 0 0 0 0 0 0 0 0 0 0 
0 0 0 0 0 0 0 0 0 0 0 0 0 0 0 0 0 0 0 0 0 0 0 0 0 0 88 88 88 88 88 88 88 88 82 56 25 59 87 46 88 42 25 30 41 51 55 62 56 56 56 66 50 27 65 88 88 73 8 7 7 3 0 0 1 0 0 2 2 3 24 88 88 63 18 43 59 36 35 50 58 57 61 58 58 45 58 88 74 53 32 67 76 87 88 88 88 88 88 88 88 12 0 0 0 0 0 0 0 0 0 0 0 0 0 0 0 0 0 0 0 0 0 0 0 0 0 0 
0 0 0 0 0 0 0 0 0 0 0 0 0 0 0 0 0 0 0 0 0 0 0 0 0 13 88 88 88 88 88 88 88 88 83 42 35 58 79 45 26 21 14 51 50 55 58 63 63 58 53 44 62 43 54 88 79 77 13 4 3 2 3 2 0 1 1 2 2 0 9 83 82 61 32 55 39 44 50 59 61 60 62 60 58 48 33 88 72 53 31 33 65 72 88 88 88 88 88 88 88 34 0 0 0 0 0 0 0 0 0 0 0 0 0 0 0 0 0 0 0 0 0 0 0 0 0 0 
0 0 0 0 0 0 0 0 0 0 0 0 0 0 0 0 0 0 0 0 0 0 0 0 5 27 88 88 88 88 88 88 88 88 61 29 49 53 66 59 25 20 53 52 57 57 60 65 59 58 43 38 51 53 39 88 84 59 0 1 0 2 3 1 2 1 3 0 1 4 7 88 82 42 54 50 52 54 58 59 59 64 62 59 58 44 37 88 52 55 46 12 70 80 88 88 88 88 88 88 88 59 7 0 0 0 0 0 0 0 0 0 0 0 0 0 0 0 0 0 0 0 0 0 0 0 0 0 
0 0 0 0 0 0 0 0 0 0 0 0 0 0 0 0 0 0 0 0 0 0 0 0 5 49 88 88 88 88 88 88 88 88 59 38 53 58 39 21 29 54 56 56 55 62 63 64 56 56 28 40 60 57 46 56 88 54 0 1 0 2 1 2 1 0 0 0 2 2 16 87 51 54 54 54 54 55 59 62 67 64 57 58 56 47 25 37 62 88 60 23 61 88 84 88 88 88 88 88 88 75 8 0 0 0 0 0 0 0 0 0 0 0 0 0 0 0 0 0 0 0 0 0 0 0 0 0 
0 0 0 0 0 0 0 0 0 0 0 0 0 0 0 0 0 0 0 0 0 0 0 0 6 68 88 88 88 88 88 88 82 88 66 42 56 51 50 26 44 58 58 60 62 64 63 61 57 42 38 55 59 62 48 34 85 71 0 1 3 0 1 2 2 0 0 3 0 1 43 72 46 54 57 59 55 59 63 63 67 61 61 58 47 32 24 24 32 62 67 40 37 88 88 88 88 88 88 88 88 88 5 0 0 0 0 0 0 0 0 0 0 0 0 0 0 0 0 0 0 0 0 0 0 0 0 0 
0 0 0 0 0 0 0 0 0 0 0 0 0 0 0 0 0 0 0 0 0 0 0 0 0 79 88 88 88 88 88 88 88 88 58 42 55 39 32 65 58 57 60 62 61 64 62 58 55 39 57 57 66 62 57 28 67 86 0 4 2 1 1 5 2 2 1 2 1 0 64 58 52 53 60 63 66 66 68 63 59 59 59 55 49 35 30 37 33 35 61 59 26 88 88 70 88 88 88 88 88 88 12 0 0 0 0 0 0 0 0 0 0 0 0 0 0 0 0 0 0 0 0 0 0 0 0 0 
0 0 0 0 0 0 0 0 0 0 0 0 0 0 0 0 0 0 0 0 0 0 0 0 5 84 88 46 88 88 88 88 88 88 35 52 50 20 48 55 55 55 57 56 58 58 58 56 45 42 58 66 61 62 58 31 58 88 7 4 3 2 1 2 0 2 1 2 1 3 70 51 56 57 60 56 54 63 63 59 56 60 60 56 62 58 70 75 66 30 55 58 32 79 88 81 88 88 88 88 88 88 16 0 0 0 0 0 0 0 0 0 0 0 0 0 0 0 0 0 0 0 0 0 0 0 0 0 
0 0 0 0 0 0 0 0 0 0 0 0 0 0 0 0 0 0 0 0 0 0 0 0 13 88 88 88 88 88 88 88 88 81 46 51 40 22 25 61 57 53 56 50 51 54 57 49 30 41 59 63 63 57 53 30 50 88 17 2 1 0 2 1 3 1 2 1 4 11 69 45 55 56 56 53 56 63 61 58 61 61 62 58 54 41 50 63 63 15 45 55 54 53 88 88 84 88 88 88 88 88 22 0 0 0 0 0 0 0 0 0 0 0 0 0 0 0 0 0 0 0 0 0 0 0 0 0 
0 0 0 0 0 0 0 0 0 0 0 0 0 0 0 0 0 0 0 0 0 0 0 0 11 84 88 88 88 88 58 88 88 47 50 63 38 26 16 63 45 50 50 55 52 53 51 55 56 54 58 64 59 57 56 36 54 88 38 3 2 1 1 1 4 1 0 0 3 21 74 44 53 55 51 57 60 62 61 62 62 66 61 58 55 45 56 52 60 13 32 77 58 42 88 88 47 88 88 88 88 88 24 5 0 0 0 0 0 0 0 0 0 0 0 0 0 0 0 0 0 0 0 0 0 0 0 0 
0 0 0 0 0 0 0 0 0 0 0 0 0 0 0 0 0 0 0 0 0 0 0 0 13 88 88 88 88 88 88 88 77 27 52 55 24 29 13 55 47 53 56 57 58 60 55 57 57 58 63 69 63 58 52 57 72 84 39 11 2 1 0 1 1 1 3 2 8 46 85 45 47 53 55 59 59 62 59 61 65 64 60 57 50 54 56 58 57 28 13 53 55 39 78 88 88 68 88 88 88 88 27 0 0 0 0 0 0 0 0 0 0 0 0 0 0 0 0 0 0 0 0 0 0 0 0 0 
0 0 0 0 0 0 0 0 0 0 0 0 0 0 0 0 0 0 0 0 0 0 0 0 11 88 88 88 88 45 88 77 51 32 68 72 27 15 29 51 55 52 57 60 63 60 60 60 61 63 60 55 56 59 59 54 69 88 80 33 14 1 1 0 1 3 1 4 24 69 88 51 49 56 58 59 56 61 61 59 67 63 58 57 52 54 57 60 55 40 7 44 60 56 30 88 88 88 88 88 88 88 21 0 0 0 0 0 0 0 0 0 0 0 0 0 0 0 0 0 0 0 0 0 0 0 0 0 
0 0 0 0 0 0 0 0 0 0 0 0 0 0 0 0 0 0 0 0 0 0 0 0 13 88 88 71 88 55 88 68 41 47 55 50 14 14 49 48 52 55 60 63 61 64 64 64 64 60 59 55 56 56 55 46 61 88 75 53 44 35 32 29 16 11 17 23 42 88 88 65 46 54 59 59 61 61 62 65 68 68 63 58 61 57 59 56 55 54 16 29 57 47 53 46 88 88 76 88 88 88 18 0 0 0 0 0 0 0 0 0 0 0 0 0 0 0 0 0 0 0 0 0 0 0 0 0 
0 0 0 0 0 0 0 0 0 0 0 0 0 0 0 0 0 0 0 0 0 0 0 0 7 88 88 67 82 70 64 59 32 47 59 41 2 37 56 60 56 56 57 57 60 60 64 60 55 57 55 52 52 47 44 42 88 22 0 56 88 72 62 66 52 42 48 56 59 88 88 86 41 62 59 59 61 65 71 62 61 61 68 64 62 58 56 58 57 57 42 18 57 55 38 62 62 67 63 88 88 88 15 0 0 0 0 0 0 0 0 0 0 0 0 0 0 0 0 0 0 0 0 0 0 0 0 0 
0 0 0 0 0 0 0 0 0 0 0 0 0 0 0 0 0 0 0 0 0 0 0 0 7 86 88 88 63 61 55 48 39 52 69 17 22 40 58 57 59 60 59 56 59 63 64 55 53 56 52 43 38 36 39 88 75 48 13 80 88 88 88 88 88 88 85 88 63 67 79 66 55 58 56 64 69 69 59 61 56 54 56 58 68 66 64 60 55 56 37 0 52 56 53 58 62 60 62 88 88 88 13 0 0 0 0 0 0 0 0 0 0 0 0 0 0 0 0 0 0 0 0 0 0 0 0 0 
0 0 0 0 0 0 0 0 0 0 0 0 0 0 0 0 0 0 0 0 0 0 0 0 0 85 88 88 77 85 46 49 51 62 44 20 34 42 57 57 62 62 63 54 54 57 62 59 55 54 58 45 29 37 86 45 88 44 84 88 88 88 88 88 88 88 88 88 64 20 41 85 81 47 59 65 68 62 58 56 57 53 59 61 66 62 61 57 56 62 26 22 19 78 57 60 53 71 74 88 88 88 12 0 0 0 0 0 0 0 0 0 0 0 0 0 0 0 0 0 0 0 0 0 0 0 0 0 
0 0 0 0 0 0 0 0 0 0 0 0 0 0 0 0 0 0 0 0 0 0 0 0 0 84 88 88 71 88 63 54 51 48 24 49 28 42 55 60 61 60 60 59 55 54 64 62 55 57 59 57 26 79 55 36 88 88 88 88 88 88 88 88 88 88 88 88 88 9 8 70 88 88 54 60 62 62 62 51 61 47 61 58 63 65 59 55 54 52 20 88 34 55 60 49 35 88 77 64 78 88 9 0 0 0 0 0 0 0 0 0 0 0 0 0 0 0 0 0 0 0 0 0 0 0 0 0 
0 0 0 0 0 0 0 0 0 0 0 0 0 0 0 0 0 0 0 0 0 0 0 0 0 73 88 88 61 88 72 46 42 32 51 36 29 52 54 56 57 56 54 58 57 53 55 55 54 58 57 55 63 71 44 83 88 74 88 88 88 88 88 88 88 88 88 88 88 59 5 87 42 77 79 52 58 57 61 58 59 51 59 59 56 62 59 59 52 38 17 60 88 52 52 45 21 88 60 88 88 88 11 0 0 0 0 0 0 0 0 0 0 0 0 0 0 0 0 0 0 0 0 0 0 0 0 0 
0 0 0 0 0 0 0 0 0 0 0 0 0 0 0 0 0 0 0 0 0 0 0 0 0 65 88 65 66 59 77 32 22 52 63 44 30 49 53 56 58 58 55 58 54 52 56 55 54 56 62 65 88 88 88 84 87 87 88 87 88 88 88 88 88 88 88 88 88 88 88 88 74 49 88 55 56 55 57 60 58 57 55 54 56 62 61 61 61 49 28 32 78 88 70 30 16 88 56 66 88 88 12 0 0 0 0 0 0 0 0 0 0 0 0 0 0 0 0 0 0 0 0 0 0 0 0 0 
0 0 0 0 0 0 0 0 0 0 0 0 0 0 0 0 0 0 0 0 0 0 0 0 0 63 88 43 45 61 72 27 20 57 46 44 42 48 56 55 59 52 54 55 51 51 51 51 50 40 38 88 88 88 88 88 88 78 88 77 78 70 70 59 73 84 81 77 83 72 81 88 88 82 88 88 50 58 55 53 63 55 56 54 56 62 61 62 57 49 38 16 73 88 74 20 35 63 54 52 88 88 11 0 0 0 0 0 0 0 0 0 0 0 0 0 0 0 0 0 0 0 0 0 0 0 0 0 
0 0 0 0 0 0 0 0 0 0 0 0 0 0 0 0 0 0 0 0 0 0 0 0 0 70 88 83 67 49 75 20 22 35 44 50 43 30 24 28 35 23 28 40 45 44 41 64 71 44 72 87 82 88 88 88 76 67 65 72 43 50 44 41 44 52 47 50 79 61 75 83 88 88 85 88 88 55 42 54 54 55 45 55 50 52 54 64 62 50 37 28 61 82 48 17 53 60 62 88 88 88 20 0 0 0 0 0 0 0 0 0 0 0 0 0 0 0 0 0 0 0 0 0 0 0 0 0 
0 0 0 0 0 0 0 0 0 0 0 0 0 0 0 0 0 0 0 0 0 0 0 0 0 69 74 58 67 45 88 32 20 24 29 45 42 43 31 18 8 26 32 22 49 54 41 30 32 72 86 78 88 71 77 63 36 44 52 52 30 31 28 35 31 29 32 33 41 56 51 63 79 88 88 88 88 69 47 37 30 43 44 42 47 40 36 30 40 37 19 31 37 63 13 23 50 87 82 64 48 88 25 0 0 0 0 0 0 0 0 0 0 0 0 0 0 0 0 0 0 0 0 0 0 0 0 0 
0 0 0 0 0 0 0 0 0 0 0 0 0 0 0 0 0 0 0 0 0 0 0 0 5 71 71 58 29 38 73 38 16 16 8 20 12 9 16 0 9 5 5 27 23 5 11 12 45 62 83 88 78 80 82 63 19 48 41 32 31 27 14 31 31 32 32 34 30 53 43 43 61 64 83 88 88 82 66 49 48 43 46 39 60 37 18 25 36 28 22 5 18 27 17 31 39 88 67 45 69 88 47 0 0 0 0 0 0 0 0 0 0 0 0 0 0 0 0 0 0 0 0 0 0 0 0 0 
0 0 0 0 0 0 0 0 0 0 0 0 0 0 0 0 0 0 0 0 0 0 0 0 13 62 69 63 31 40 54 42 28 38 24 23 8 5 0 1 7 1 4 11 17 15 12 0 31 53 65 70 70 88 75 54 17 46 41 38 34 21 16 24 35 31 30 36 32 48 54 22 40 60 79 65 66 79 78 53 26 27 31 29 37 22 26 37 13 5 13 7 9 9 30 31 41 67 31 46 66 83 65 0 0 0 0 0 0 0 0 0 0 0 0 0 0 0 0 0 0 0 0 0 0 0 0 0 
0 0 0 0 0 0 0 0 0 0 0 0 0 0 0 0 0 0 0 0 0 0 0 0 16 63 56 65 39 38 43 46 46 42 29 9 5 3 4 5 3 3 6 4 17 21 14 0 22 44 62 88 88 75 44 28 36 31 28 34 39 37 35 29 34 31 32 39 26 27 58 16 45 67 77 71 72 57 61 43 30 9 6 14 22 26 2 9 5 4 15 22 26 47 42 45 45 54 47 46 69 51 74 0 0 0 0 0 0 0 0 0 0 0 0 0 0 0 0 0 0 0 0 0 0 0 0 0 
0 0 0 0 0 0 0 0 0 0 0 0 0 0 0 0 0 0 0 0 0 0 0 0 16 74 44 47 67 34 64 59 54 45 27 14 0 0 0 7 3 2 15 22 22 25 11 13 24 35 45 64 73 37 17 20 28 29 32 42 54 53 56 45 54 45 52 44 30 30 36 29 16 49 71 75 80 60 38 46 15 7 21 19 13 9 2 2 5 0 2 1 16 28 54 48 67 62 55 60 55 63 51 0 0 0 0 0 0 0 0 0 0 0 0 0 0 0 0 0 0 0 0 0 0 0 0 0 
0 0 0 0 0 0 0 0 0 0 0 0 0 0 0 0 0 0 0 0 0 0 0 0 12 51 70 48 72 41 57 59 63 57 40 22 17 9 13 13 2 2 7 9 2 6 12 16 19 31 39 63 32 14 20 33 30 31 34 53 48 58 57 55 61 57 56 49 38 30 34 24 16 33 51 66 72 65 62 45 23 3 21 23 8 7 3 2 0 5 1 4 6 19 42 67 71 67 69 60 57 60 39 0 0 0 0 0 0 0 0 0 0 0 0 0 0 0 0 0 0 0 0 0 0 0 0 0 
0 0 0 0 0 0 0 0 0 0 0 0 0 0 0 0 0 0 0 0 0 0 0 0 0 21 30 32 56 48 42 52 27 38 23 8 5 6 8 11 14 3 8 6 2 2 8 13 31 33 28 26 11 24 37 35 33 26 41 46 62 61 63 60 61 63 57 53 37 30 35 39 26 18 43 63 67 45 33 45 39 24 8 13 21 22 13 2 4 2 3 4 0 13 42 59 54 50 57 65 46 39 15 0 0 0 0 0 0 0 0 0 0 0 0 0 0 0 0 0 0 0 0 0 0 0 0 0 
0 0 0 0 0 0 0 0 0 0 0 0 0 0 0 0 0 0 0 0 0 0 0 0 0 0 21 28 59 58 39 35 11 7 3 6 9 7 12 18 13 2 7 8 3 5 6 16 8 8 6 11 20 29 38 34 26 30 46 62 60 60 63 58 59 60 60 53 43 31 16 50 41 27 23 30 33 34 39 29 37 22 14 7 3 4 2 2 2 15 4 5 14 30 41 27 29 51 75 61 47 37 9 0 0 0 0 0 0 0 0 0 0 0 0 0 0 0 0 0 0 0 0 0 0 0 0 0 
0 0 0 0 0 0 0 0 0 0 0 0 0 0 0 0 0 0 0 0 0 0 0 0 0 0 13 30 59 41 34 24 8 6 5 4 5 7 6 33 15 4 6 6 11 20 13 13 9 9 21 24 32 33 23 28 25 31 42 47 53 59 62 54 59 60 53 54 38 29 28 29 39 41 32 23 17 12 7 13 19 40 31 14 5 8 8 6 13 4 2 5 7 9 5 11 30 37 43 87 55 36 5 0 0 0 0 0 0 0 0 0 0 0 0 0 0 0 0 0 0 0 0 0 0 0 0 0 
0 0 0 0 0 0 0 0 0 0 0 0 0 0 0 0 0 0 0 0 0 0 0 0 0 0 8 51 67 41 34 5 4 5 2 3 5 9 4 5 4 7 11 14 18 16 7 12 9 5 34 40 34 27 32 22 29 32 40 40 58 55 63 62 61 58 62 52 31 31 23 21 36 25 25 29 29 36 31 6 20 29 24 35 14 3 15 29 31 27 1 2 2 2 8 1 17 27 64 55 88 46 0 0 0 0 0 0 0 0 0 0 0 0 0 0 0 0 0 0 0 0 0 0 0 0 0 0 
0 0 0 0 0 0 0 0 0 0 0 0 0 0 0 0 0 0 0 0 0 0 0 0 0 0 17 70 59 68 28 2 5 7 5 4 3 3 2 4 2 5 17 14 1 6 16 7 5 29 48 44 48 35 37 25 29 33 32 38 68 63 59 58 57 60 64 60 31 30 28 28 26 38 25 29 37 39 24 7 6 38 28 35 18 1 1 8 19 15 1 5 5 4 4 3 4 20 59 73 80 64 0 0 0 0 0 0 0 0 0 0 0 0 0 0 0 0 0 0 0 0 0 0 0 0 0 0 
0 0 0 0 0 0 0 0 0 0 0 0 0 0 0 0 0 0 0 0 0 0 0 0 0 0 35 68 88 53 13 1 4 2 3 5 2 4 4 3 2 4 15 40 21 24 21 30 36 44 51 58 36 59 56 34 31 28 33 59 63 61 59 58 58 62 62 64 40 31 29 27 42 69 57 33 46 47 42 14 8 18 41 32 23 1 7 5 4 6 5 8 4 6 3 5 0 5 40 49 88 60 16 0 0 0 0 0 0 0 0 0 0 0 0 0 0 0 0 0 0 0 0 0 0 0 0 0 
0 0 0 0 0 0 0 0 0 0 0 0 0 0 0 0 0 0 0 0 0 0 8 0 0 0 56 88 78 36 6 4 0 3 1 3 3 3 2 0 0 8 27 25 33 43 48 57 57 68 55 55 63 85 76 34 33 37 36 58 62 63 63 57 61 62 61 63 43 34 33 43 88 78 54 54 39 48 49 40 21 15 12 13 13 9 1 3 2 3 4 2 4 6 5 2 4 4 23 66 76 71 34 0 0 0 0 0 0 0 0 0 0 0 0 0 0 0 0 0 0 0 0 0 0 0 0 0 
0 0 0 0 0 0 0 0 0 0 0 0 0 0 0 0 0 0 0 0 0 22 50 17 0 26 64 87 80 30 5 3 6 3 2 3 4 1 14 25 30 45 51 50 49 52 56 57 59 55 49 62 50 45 87 52 31 46 51 61 62 61 61 60 60 61 63 63 56 39 53 75 57 54 58 55 58 56 62 58 57 62 45 38 29 13 18 1 1 5 3 1 2 3 6 3 4 4 15 42 54 79 47 0 8 34 27 0 0 0 0 0 0 0 0 0 0 0 0 0 0 0 0 0 0 0 0 0 
0 0 0 0 0 0 0 0 0 0 0 0 0 0 0 0 0 0 0 7 19 88 68 36 25 42 33 52 88 32 4 4 1 2 5 6 13 11 47 61 47 23 41 57 56 55 57 60 61 69 51 57 52 56 56 69 78 40 50 61 65 63 60 61 59 62 65 56 59 52 73 59 61 60 59 60 59 63 62 57 52 57 66 63 46 38 35 35 18 4 3 13 9 8 4 6 3 14 12 44 82 49 51 48 32 66 64 40 0 6 9 7 5 0 0 0 0 0 0 0 0 0 0 0 0 0 0 0 
0 0 0 0 0 0 0 0 0 0 0 0 0 0 0 0 0 0 0 6 45 88 43 45 38 28 23 53 82 36 1 1 7 2 3 6 7 30 29 42 29 25 47 55 56 58 58 60 66 61 54 59 58 65 63 57 62 55 51 62 67 60 62 50 54 65 61 62 59 56 61 63 58 59 61 60 64 62 59 50 53 60 67 59 52 58 56 13 8 19 9 3 9 7 3 6 11 13 9 51 85 32 35 43 42 75 63 47 19 5 9 5 0 0 0 0 0 0 0 0 0 0 0 0 0 0 0 0 
0 0 0 0 0 0 0 0 0 0 0 0 0 0 0 0 6 0 4 5 41 77 22 27 26 12 3 45 80 39 8 5 5 6 6 8 12 45 39 33 7 37 50 55 56 58 60 62 63 47 53 58 65 65 59 60 58 63 46 56 67 57 47 21 31 56 60 60 46 50 63 65 63 65 62 57 62 65 60 59 59 70 70 58 54 54 39 26 24 36 30 14 14 6 9 7 11 8 8 65 76 8 0 22 20 58 33 46 7 12 9 0 0 0 0 0 0 0 0 0 0 0 0 0 0 0 0 0 
0 0 0 0 0 0 0 0 0 0 0 0 0 0 0 0 0 0 13 66 37 64 16 5 3 1 5 28 82 44 0 13 11 4 4 6 22 50 46 16 25 49 51 59 59 54 60 62 53 57 63 60 65 59 58 61 58 60 70 49 36 55 63 40 52 79 42 38 38 64 60 60 67 59 61 61 62 55 61 53 64 65 60 55 62 58 54 27 3 32 44 16 7 7 13 11 11 7 7 74 66 0 0 6 3 62 57 8 2 8 0 0 0 0 0 0 0 0 0 0 0 0 0 0 0 0 0 0 
0 0 0 0 0 0 0 0 0 0 0 0 0 0 0 0 6 9 34 88 46 66 23 0 7 6 7 19 88 63 1 13 6 1 1 9 19 35 71 67 39 53 59 58 61 58 59 56 61 67 59 63 60 58 60 59 63 60 59 57 60 64 58 55 63 50 57 56 58 59 58 64 66 64 63 63 53 59 63 63 61 45 51 66 63 63 63 61 28 31 60 13 13 9 13 7 13 5 17 73 45 0 0 5 13 66 71 63 88 0 0 0 0 0 0 0 0 0 0 0 0 0 0 0 0 0 0 0 
0 0 0 0 0 0 0 0 0 0 0 0 0 0 0 0 6 7 15 63 60 67 9 0 0 0 0 7 86 88 13 4 1 4 1 20 15 43 88 72 42 60 58 60 60 62 65 63 58 64 64 64 63 64 61 63 64 58 61 60 60 63 63 53 41 48 56 59 64 60 58 62 64 62 60 61 66 63 61 66 58 64 63 62 58 62 60 59 60 49 55 17 15 4 0 5 4 13 52 88 46 0 0 6 5 46 66 75 49 15 0 0 0 0 0 0 0 0 0 0 0 0 0 0 0 0 0 0 
0 0 0 0 0 0 0 0 0 0 0 0 0 0 0 0 0 0 0 39 46 50 0 0 0 0 0 5 73 88 28 12 4 3 9 21 20 24 33 65 51 52 53 56 58 57 61 60 62 58 62 63 62 62 63 63 61 63 62 63 62 57 59 59 45 62 60 57 61 62 63 59 61 59 62 60 65 60 57 63 64 63 59 61 58 59 57 55 52 51 62 43 2 5 6 8 11 20 80 88 21 0 0 0 0 16 50 52 35 0 0 0 0 0 0 0 0 0 0 0 0 0 0 0 0 0 0 0 
0 0 0 0 0 0 0 0 0 0 0 0 0 0 0 0 0 0 0 0 30 9 0 0 0 0 0 0 53 88 71 27 12 4 9 20 32 35 33 35 54 52 54 57 59 59 61 60 59 61 61 60 63 63 60 62 60 61 61 62 62 61 61 60 55 60 59 62 61 62 59 62 63 63 61 61 61 62 61 60 59 63 59 60 58 57 56 56 50 46 23 15 9 12 4 3 32 39 88 57 11 0 0 0 0 0 0 0 0 0 0 0 0 0 0 0 0 0 0 0 0 0 0 0 0 0 0 0 
0 0 0 0 0 0 0 0 0 0 0 0 0 0 0 0 0 0 0 0 0 0 0 0 0 0 0 0 26 88 88 50 45 30 5 13 7 42 25 38 49 51 60 59 56 57 58 59 59 61 62 61 62 62 61 64 64 63 60 63 64 60 55 59 54 59 62 61 63 63 60 57 62 61 63 64 60 61 63 63 64 61 57 59 59 60 57 54 48 45 21 24 38 11 13 48 45 88 88 33 0 0 0 0 0 0 0 0 0 0 0 0 0 0 0 0 0 0 0 0 0 0 0 0 0 0 0 0 
0 0 0 0 0 0 0 0 0 0 0 0 0 0 0 0 0 0 0 0 0 0 0 0 0 0 0 0 23 75 88 88 40 59 67 15 15 14 13 31 45 58 56 58 58 58 58 61 58 60 61 60 63 62 62 60 62 61 61 62 62 62 59 59 55 59 61 60 63 59 63 59 61 61 59 60 59 61 60 60 61 61 61 58 59 60 56 53 54 40 26 15 19 17 50 43 80 88 66 21 0 0 0 0 0 0 0 0 0 0 0 0 0 0 0 0 0 0 0 0 0 0 0 0 0 0 0 0 
0 0 0 0 0 0 0 0 0 0 0 0 0 0 0 0 0 0 0 0 0 0 0 0 0 0 0 0 7 43 88 88 69 39 51 55 35 5 15 33 31 54 58 58 60 59 59 59 63 60 62 60 60 60 63 63 60 62 58 61 60 62 61 57 53 59 59 62 60 62 50 59 64 63 60 60 63 61 59 59 61 61 59 60 58 58 54 55 51 32 22 19 28 61 38 72 88 88 37 7 0 0 0 0 0 0 0 0 0 0 0 0 0 0 0 0 0 0 0 0 0 0 0 0 0 0 0 0 
0 0 0 0 0 0 0 0 0 0 0 0 0 0 0 0 0 0 0 0 0 0 0 0 0 0 0 0 0 30 76 88 88 48 67 88 25 7 31 5 32 53 58 58 58 59 59 61 60 61 57 60 61 59 63 62 64 58 59 59 58 62 58 58 46 59 60 60 60 47 58 59 59 59 59 60 59 59 60 60 59 62 56 58 55 55 57 55 49 32 27 62 65 45 50 88 88 63 24 0 0 0 0 0 0 0 0 0 0 0 0 0 0 0 0 0 0 0 0 0 0 0 0 0 0 0 0 0 
0 0 0 0 0 0 0 0 0 0 0 0 0 0 0 0 0 0 0 0 0 0 0 0 0 0 0 0 0 15 48 88 88 88 47 52 45 41 2 16 21 48 55 57 60 61 60 57 60 61 63 60 61 60 60 59 59 59 59 58 56 50 54 42 40 54 59 55 36 59 59 60 59 61 60 61 61 59 60 59 60 59 62 60 56 55 56 48 27 11 52 61 46 47 88 88 88 44 7 0 0 0 0 0 0 0 0 0 0 0 0 0 0 0 0 0 0 0 0 0 0 0 0 0 0 0 0 0 
0 0 0 0 0 0 0 0 0 0 0 0 0 0 0 0 0 0 0 0 0 0 0 0 0 0 0 0 0 0 35 76 88 88 80 49 46 58 14 22 11 32 52 54 59 61 59 56 59 61 63 57 61 59 60 58 60 59 59 57 60 45 35 40 39 34 46 42 59 56 56 57 58 58 62 61 57 59 61 59 59 58 56 59 57 52 51 25 18 34 88 54 43 88 88 88 58 29 0 0 0 0 0 0 0 0 0 0 0 0 0 0 0 0 0 0 0 0 0 0 0 0 0 0 0 0 0 0 
0 0 0 0 0 0 0 0 0 0 0 0 0 0 0 0 0 0 0 0 0 0 0 0 0 0 0 0 0 0 17 54 88 88 88 65 55 63 33 31 24 13 45 56 60 56 60 54 58 60 62 60 57 61 63 57 62 60 59 59 55 35 40 48 41 41 54 40 56 58 58 60 59 62 59 59 57 61 58 57 58 61 55 57 56 56 35 8 29 50 88 39 78 88 88 88 42 7 0 0 0 0 0 0 0 0 0 0 0 0 0 0 0 0 0 0 0 0 0 0 0 0 0 0 0 0 0 0 
0 0 0 0 0 0 0 0 0 0 0 0 0 0 0 0 0 0 0 0 0 0 0 0 0 0 0 0 0 0 0 38 80 88 88 88 45 77 88 47 41 18 28 49 55 55 54 57 59 63 58 60 58 60 59 60 61 56 58 60 59 40 34 44 37 7 31 76 54 59 57 58 55 64 56 61 60 58 61 59 59 56 56 58 51 44 12 30 43 88 65 60 88 88 88 65 26 0 0 0 0 0 0 0 0 0 0 0 0 0 0 0 0 0 0 0 0 0 0 0 0 0 0 0 0 0 0 0 
0 0 0 0 0 0 0 0 0 0 0 0 0 0 0 0 0 0 0 0 0 0 0 0 0 0 0 0 0 0 0 16 55 88 88 88 79 22 88 39 49 41 17 27 39 56 53 59 60 61 55 57 63 60 60 56 57 60 63 56 55 23 24 27 15 25 50 49 54 53 56 53 59 60 60 56 57 58 61 58 58 56 55 56 47 25 22 48 72 83 52 88 88 88 88 39 0 0 0 0 0 0 0 0 0 0 0 0 0 0 0 0 0 0 0 0 0 0 0 0 0 0 0 0 0 0 0 0 
0 0 0 0 0 0 0 0 0 0 0 0 0 0 0 0 0 0 0 0 0 0 0 0 0 0 0 0 0 0 0 0 41 77 88 88 88 52 57 69 44 67 40 17 18 39 54 60 64 59 57 56 61 53 61 61 60 53 56 75 38 11 28 34 23 43 55 55 54 56 49 57 58 61 57 59 56 60 58 56 60 57 56 50 22 24 50 59 64 74 64 88 88 88 57 25 0 0 0 0 0 0 0 0 0 0 0 0 0 0 0 0 0 0 0 0 0 0 0 0 0 0 0 0 0 0 0 0 
0 0 0 0 0 0 0 0 0 0 0 0 0 0 0 0 0 0 0 0 0 0 0 0 0 0 0 0 0 0 0 0 15 50 88 88 88 88 75 88 88 73 62 34 21 24 37 44 54 60 63 56 50 51 56 59 63 73 77 46 21 11 37 56 30 39 42 48 54 49 55 54 50 58 60 56 56 55 59 58 55 56 41 19 25 41 40 65 75 88 88 88 88 73 40 0 0 0 0 0 0 0 0 0 0 0 0 0 0 0 0 0 0 0 0 0 0 0 0 0 0 0 0 0 0 0 0 0 
0 0 0 0 0 0 0 0 0 0 0 0 0 0 0 0 0 0 0 0 0 0 0 0 0 0 0 0 0 0 0 0 0 35 63 88 88 88 88 79 60 82 46 75 40 31 24 35 39 47 40 55 60 72 76 66 53 43 35 33 19 27 50 67 44 32 35 41 46 48 47 41 44 33 43 56 55 54 54 54 44 30 30 37 55 51 57 69 72 88 88 88 88 50 15 0 0 0 0 0 0 0 0 0 0 0 0 0 0 0 0 0 0 0 0 0 0 0 0 0 0 0 0 0 0 0 0 0 
0 0 0 0 0 0 0 0 0 0 0 0 0 0 0 0 0 0 0 0 0 0 0 0 0 0 0 0 0 0 0 0 0 6 47 76 88 88 88 88 88 63 74 49 67 48 33 26 29 27 25 23 30 29 29 31 30 29 26 22 26 47 52 57 52 21 19 30 33 37 35 30 30 23 30 30 45 47 37 26 20 47 45 54 55 54 82 88 88 88 88 88 63 28 0 0 0 0 0 0 0 0 0 0 0 0 0 0 0 0 0 0 0 0 0 0 0 0 0 0 0 0 0 0 0 0 0 0 
0 0 0 0 0 0 0 0 0 0 0 0 0 0 0 0 0 0 0 0 0 0 0 0 0 0 0 0 0 0 0 0 0 0 21 50 85 88 88 88 88 87 63 76 52 78 61 47 31 29 33 22 24 24 21 17 23 25 27 38 57 50 53 46 49 23 19 19 24 19 19 15 22 24 18 20 22 16 16 24 49 54 54 45 46 73 88 88 88 88 88 74 38 0 0 0 0 0 0 0 0 0 0 0 0 0 0 0 0 0 0 0 0 0 0 0 0 0 0 0 0 0 0 0 0 0 0 0 
0 0 0 0 0 0 0 0 0 0 0 0 0 0 0 0 0 0 0 0 0 0 0 0 0 0 0 0 0 0 0 0 0 0 0 30 60 87 88 88 88 88 88 86 68 42 49 70 72 50 40 52 41 44 36 38 67 50 50 71 57 51 58 41 56 40 45 40 39 37 48 38 32 33 40 36 49 57 60 59 40 41 42 50 73 88 88 88 88 88 70 44 11 0 0 0 0 0 0 0 0 0 0 0 0 0 0 0 0 0 0 0 0 0 0 0 0 0 0 0 0 0 0 0 0 0 0 0 
0 0 0 0 0 0 0 0 0 0 0 0 0 0 0 0 0 0 0 0 0 0 0 0 0 0 0 0 0 0 0 0 0 0 0 0 34 57 88 88 88 88 88 58 78 88 68 42 50 62 84 60 42 32 44 67 56 88 82 75 39 40 36 13 87 63 64 55 32 41 52 55 64 88 54 72 44 40 49 41 42 46 55 67 88 88 88 88 88 71 48 14 0 0 0 0 0 0 0 0 0 0 0 0 0 0 0 0 0 0 0 0 0 0 0 0 0 0 0 0 0 0 0 0 0 0 0 0 
0 0 0 0 0 0 0 0 0 0 0 0 0 0 0 0 0 0 0 0 0 0 0 0 0 0 0 0 0 0 0 0 0 0 0 0 0 42 61 87 88 88 88 88 88 59 77 77 58 46 41 41 46 54 47 37 69 70 73 54 56 42 66 79 83 88 74 61 70 59 70 61 48 36 49 54 42 43 45 46 55 56 74 88 88 88 88 88 65 45 17 0 0 0 0 0 0 0 0 0 0 0 0 0 0 0 0 0 0 0 0 0 0 0 0 0 0 0 0 0 0 0 0 0 0 0 0 0 
0 0 0 0 0 0 0 0 0 0 0 0 0 0 0 0 0 0 0 0 0 0 0 0 0 0 0 0 0 0 0 0 0 0 0 0 0 0 40 63 79 88 88 88 88 88 86 60 66 53 46 48 52 48 51 44 62 49 50 47 48 48 72 83 63 72 45 48 48 49 47 52 49 50 47 49 53 53 58 59 59 88 88 88 88 88 88 60 46 17 0 0 0 0 0 0 0 0 0 0 0 0 0 0 0 0 0 0 0 0 0 0 0 0 0 0 0 0 0 0 0 0 0 0 0 0 0 0 
0 0 0 0 0 0 0 0 0 0 0 0 0 0 0 0 0 0 0 0 0 0 0 0 0 0 0 0 0 0 0 0 0 0 0 0 0 0 0 38 56 71 88 88 88 88 88 88 83 53 54 58 53 48 45 47 55 50 49 48 47 45 53 41 46 51 48 48 48 47 48 52 54 40 44 39 40 55 68 81 88 88 88 88 88 87 53 44 14 0 0 0 0 0 0 0 0 0 0 0 0 0 0 0 0 0 0 0 0 0 0 0 0 0 0 0 0 0 0 0 0 0 0 0 0 0 0 0 
0 0 0 0 0 0 0 0 0 0 0 0 0 0 0 0 0 0 0 0 0 0 0 0 0 0 0 0 0 0 0 0 0 0 0 0 0 0 0 5 28 50 60 77 88 88 88 88 88 88 88 88 78 60 63 57 60 62 54 56 47 42 49 40 47 43 51 69 60 64 75 79 88 88 81 73 88 88 88 88 88 88 88 88 69 56 44 9 0 0 0 0 0 0 0 0 0 0 0 0 0 0 0 0 0 0 0 0 0 0 0 0 0 0 0 0 0 0 0 0 0 0 0 0 0 0 0 0 
0 0 0 0 0 0 0 0 0 0 0 0 0 0 0 0 0 0 0 0 0 0 0 0 0 0 0 0 0 0 0 0 0 0 0 0 0 0 0 0 0 15 42 57 62 82 88 88 88 88 88 88 88 88 88 88 88 71 42 43 88 88 88 88 88 88 88 88 88 88 88 88 88 88 88 88 88 88 88 88 88 88 85 60 50 31 5 0 0 0 0 0 0 0 0 0 0 0 0 0 0 0 0 0 0 0 0 0 0 0 0 0 0 0 0 0 0 0 0 0 0 0 0 0 0 0 0 0 
0 0 0 0 0 0 0 0 0 0 0 0 0 0 0 0 0 0 0 0 0 0 0 0 0 0 0 0 0 0 0 0 0 0 0 0 0 0 0 0 0 0 5 25 50 50 59 75 88 88 88 88 88 88 88 88 88 88 88 88 88 88 88 88 88 88 88 88 88 88 88 88 88 88 88 88 88 88 88 88 80 62 47 39 19 0 0 0 0 0 0 0 0 0 0 0 0 0 0 0 0 0 0 0 0 0 0 0 0 0 0 0 0 0 0 0 0 0 0 0 0 0 0 0 0 0 0 0 
0 0 0 0 0 0 0 0 0 0 0 0 0 0 0 0 0 0 0 0 0 0 0 0 0 0 0 0 0 0 0 0 0 0 0 0 0 0 0 0 0 0 0 0 6 27 46 53 52 62 76 88 88 88 88 88 88 88 88 88 88 88 88 88 88 88 88 88 88 88 88 88 88 88 88 88 80 67 61 50 50 44 27 5 0 0 0 0 0 0 0 0 0 0 0 0 0 0 0 0 0 0 0 0 0 0 0 0 0 0 0 0 0 0 0 0 0 0 0 0 0 0 0 0 0 0 0 0 
0 0 0 0 0 0 0 0 0 0 0 0 0 0 0 0 0 0 0 0 0 0 0 0 0 0 0 0 0 0 0 0 0 0 0 0 0 0 0 0 0 0 0 0 0 0 8 24 38 45 47 47 49 51 59 71 69 77 72 74 66 70 70 64 61 55 56 56 50 53 51 49 50 49 45 48 48 50 45 37 24 6 0 0 0 0 0 0 0 0 0 0 0 0 0 0 0 0 0 0 0 0 0 0 0 0 0 0 0 0 0 0 0 0 0 0 0 0 0 0 0 0 0 0 0 0 0 0 
0 0 0 0 0 0 0 0 0 0 0 0 0 0 0 0 0 0 0 0 0 0 0 0 0 0 0 0 0 0 0 0 0 0 0 0 0 0 0 0 0 0 0 0 0 0 0 0 0 13 28 34 35 38 44 44 44 41 46 45 49 47 48 48 47 46 43 45 45 44 44 45 42 43 35 36 29 20 8 0 0 0 0 0 0 0 0 0 0 0 0 0 0 0 0 0 0 0 0 0 0 0 0 0 0 0 0 0 0 0 0 0 0 0 0 0 0 0 0 0 0 0 0 0 0 0 0 0 
0 0 0 0 0 0 0 0 0 0 0 0 0 0 0 0 0 0 0 0 0 0 0 0 0 0 0 0 0 0 0 0 0 0 0 0 0 0 0 0 0 0 0 0 0 0 0 0 0 0 0 0 0 9 13 17 20 25 26 26 27 26 25 28 28 25 18 16 12 11 8 7 0 0 0 0 0 0 0 0 0 0 0 0 0 0 0 0 0 0 0 0 0 0 0 0 0 0 0 0 0 0 0 0 0 0 0 0 0 0 0 0 0 0 0 0 0 0 0 0 0 0 0 0 0 0 0 0 
0 0 0 0 0 0 0 0 0 0 0 0 0 0 0 0 0 0 0 0 0 0 0 0 0 0 0 0 0 0 0 0 0 0 0 0 0 0 0 0 0 0 0 0 0 0 0 0 0 0 0 0 0 0 0 0 0 0 0 0 0 0 0 0 0 0 0 0 0 0 0 0 0 0 0 0 0 0 0 0 0 0 0 0 0 0 0 0 0 0 0 0 0 0 0 0 0 0 0 0 0 0 0 0 0 0 0 0 0 0 0 0 0 0 0 0 0 0 0 0 0 0 0 0 0 0 0 0 
0 0 0 0 0 0 0 0 0 0 0 0 0 0 0 0 0 0 0 0 0 0 0 0 0 0 0 0 0 0 0 0 0 0 0 0 0 0 0 0 0 0 0 0 0 0 0 0 0 0 0 0 0 0 0 0 0 0 0 0 0 0 0 0 0 0 0 0 0 0 0 0 0 0 0 0 0 0 0 0 0 0 0 0 0 0 0 0 0 0 0 0 0 0 0 0 0 0 0 0 0 0 0 0 0 0 0 0 0 0 0 0 0 0 0 0 0 0 0 0 0 0 0 0 0 0 0 0 
0 0 0 0 0 0 0 0 0 0 0 0 0 0 0 0 0 0 0 0 0 0 0 0 0 0 0 0 0 0 0 0 0 0 0 0 0 0 0 0 0 0 0 0 0 0 0 0 0 0 0 0 0 0 0 0 0 0 0 0 0 0 0 0 0 0 0 0 0 0 0 0 0 0 0 0 0 0 0 0 0 0 0 0 0 0 0 0 0 0 0 0 0 0 0 0 0 0 0 0 0 0 0 0 0 0 0 0 0 0 0 0 0 0 0 0 0 0 0 0 0 0 0 0 0 0 0 0 
0 0 0 0 0 0 0 0 0 0 0 0 0 0 0 0 0 0 0 0 0 0 0 0 0 0 0 0 0 0 0 0 0 0 0 0 0 0 0 0 0 0 0 0 0 0 0 0 0 0 0 0 0 0 0 0 0 0 0 0 0 0 0 0 0 0 0 0 0 0 0 0 0 0 0 0 0 0 0 0 0 0 0 0 0 0 0 0 0 0 0 0 0 0 0 0 0 0 0 0 0 0 0 0 0 0 0 0 0 0 0 0 0 0 0 0 0 0 0 0 0 0 0 0 0 0 0 0 
0 0 0 0 0 0 0 0 0 0 0 0 0 0 0 0 0 0 0 0 0 0 0 0 0 0 0 0 0 0 0 0 0 0 0 0 0 0 0 0 0 0 0 0 0 0 0 0 0 0 0 0 0 0 0 0 0 0 0 0 0 0 0 0 0 0 0 0 0 0 0 0 0 0 0 0 0 0 0 0 0 0 0 0 0 0 0 0 0 0 0 0 0 0 0 0 0 0 0 0 0 0 0 0 0 0 0 0 0 0 0 0 0 0 0 0 0 0 0 0 0 0 0 0 0 0 0 0 
0 0 0 0 0 0 0 0 0 0 0 0 0 0 0 0 0 0 0 0 0 0 0 0 0 0 0 0 0 0 0 0 0 0 0 0 0 0 0 0 0 0 0 0 0 0 0 0 0 0 0 0 0 0 0 0 0 0 0 0 0 0 0 0 0 0 0 0 0 0 0 0 0 0 0 0 0 0 0 0 0 0 0 0 0 0 0 0 0 0 0 0 0 0 0 0 0 0 0 0 0 0 0 0 0 0 0 0 0 0 0 0 0 0 0 0 0 0 0 0 0 0 0 0 0 0 0 0 
