P2
128 128
88
0 0 0 0 0 0 0 0 0 0 0 0 0 0 0 0 0 0 0 0 0 0 0 0 0 0 0 0 0 0 0 0 0 0 0 0 0 0 0 0 0 0 0 0 0 0 0 0 0 0 0 0 0 0 0 0 0 0 0 0 0 0 0 0 0 0 0 0 0 0 0 0 0 0 0 0 0 0 0 0 0 0 0 0 0 0 0 0 0 0 0 0 0 0 0 0 0 0 0 0 0 0 0 0 0 0 0 0 0 0 0 0 0 0 0 0 0 0 0 0 0 0 0 0 0 0 0 0 
0 0 0 0 0 0 0 0 0 0 0 0 0 0 0 0 0 0 0 0 0 0 0 0 0 0 0 0 0 0 0 0 0 0 0 0 0 0 0 0 0 0 0 0 0 0 0 0 0 0 0 0 0 0 0 0 0 0 0 0 0 0 0 0 0 0 0 0 0 0 0 0 0 0 0 0 0 0 0 0 0 0 0 0 0 0 0 0 0 0 0 0 0 0 0 0 0 0 0 0 0 0 0 0 0 0 0 0 0 0 0 0 0 0 0 0 0 0 0 0 0 0 0 0 0 0 0 0 
0 0 0 0 0 0 0 0 0 0 0 0 0 0 0 0 0 0 0 0 0 0 0 0 0 0 0 0 0 0 0 0 0 0 0 0 0 0 0 0 0 0 0 0 0 0 0 0 0 0 0 0 0 0 0 0 0 0 0 0 0 0 0 0 0 0 0 0 0 0 0 0 0 0 0 0 0 0 0 0 0 0 0 0 0 0 0 0 0 0 0 0 0 0 0 0 0 0 0 0 0 0 0 0 0 0 0 0 0 0 0 0 0 0 0 0 0 0 0 0 0 0 0 0 0 0 0 0 
0 0 0 0 0 0 0 0 0 0 0 0 0 0 0 0 0 0 0 0 0 0 0 0 0 0 0 0 0 0 0 0 0 0 0 0 0 0 0 0 0 0 0 0 0 0 0 0 0 0 0 0 0 0 0 0 0 0 0 0 0 0 0 0 0 0 0 0 0 0 0 0 0 0 0 0 0 0 0 0 0 0 0 0 0 0 0 0 0 0 0 0 0 0 0 0 0 0 0 0 0 0 0 0 0 0 0 0 0 0 0 0 0 0 0 0 0 0 0 0 0 0 0 0 0 0 0 0 
0 0 0 0 0 0 0 0 0 0 0 0 0 0 0 0 0 0 0 0 0 0 0 0 0 0 0 0 0 0 0 0 0 0 0 0 0 0 0 0 0 0 0 0 0 0 0 0 0 0 0 0 0 0 0 0 0 0 0 0 0 0 0 0 0 0 0 0 0 0 0 0 0 0 0 0 0 0 0 0 0 0 0 0 0 0 0 0 0 0 0 0 0 0 0 0 0 0 0 0 0 0 0 0 0 0 0 0 0 0 0 0 0 0 0 0 0 0 0 0 0 0 0 0 0 0 0 0 
0 0 0 0 0 0 0 0 0 0 0 0 0 0 0 0 0 0 0 0 0 0 0 0 0 0 0 0 0 0 0 0 0 0 0 0 0 0 0 0 0 0 0 0 0 0 0 0 0 0 0 0 0 0 0 0 0 0 0 0 0 0 0 0 0 0 0 0 0 0 0 0 0 0 0 0 0 0 0 0 0 0 0 0 0 0 0 0 0 0 0 0 0 0 0 0 0 0 0 0 0 0 0 0 0 0 0 0 0 0 0 0 0 0 0 0 0 0 0 0 0 0 0 0 0 0 0 0 
0 0 0 0 0 0 0 0 0 0 0 0 0 0 0 0 0 0 0 0 0 0 0 0 0 0 0 0 0 0 0 0 0 0 0 0 0 0 0 0 0 0 0 0 0 0 0 0 0 0 0 0 0 0 0 0 0 0 0 0 0 0 0 0 0 0 0 0 0 0 0 0 0 0 0 0 0 0 0 0 0 0 0 0 0 0 0 0 0 0 0 0 0 0 0 0 0 0 0 0 0 0 0 0 0 0 0 0 0 0 0 0 0 0 0 0 0 0 0 0 0 0 0 0 0 0 0 0 
0 0 0 0 0 0 0 0 0 0 0 0 0 0 0 0 0 0 0 0 0 0 0 0 0 0 0 0 0 0 0 0 0 0 0 0 0 0 0 0 0 0 0 0 0 0 0 0 0 0 0 0 0 0 0 0 0 0 0 0 0 0 0 0 0 0 0 0 0 0 0 0 0 0 0 0 0 0 0 0 0 0 0 0 0 0 0 0 0 0 0 0 0 0 0 0 0 0 0 0 0 0 0 0 0 0 0 0 0 0 0 0 0 0 0 0 0 0 0 0 0 0 0 0 0 0 0 0 
0 0 0 0 0 0 0 0 0 0 0 0 0 0 0 0 0 0 0 0 0 0 0 0 0 0 0 0 0 0 0 0 0 0 0 0 0 0 0 0 0 0 0 0 0 0 0 0 0 0 0 0 0 0 0 0 0 0 0 0 0 0 0 0 0 0 0 0 0 0 0 0 0 0 0 0 0 0 0 0 0 0 0 0 0 0 0 0 0 0 0 0 0 0 0 0 0 0 0 0 0 0 0 0 0 0 0 0 0 0 0 0 0 0 0 0 0 0 0 0 0 0 0 0 0 0 0 0 
0 0 0 0 0 0 0 0 0 0 0 0 0 0 0 0 0 0 0 0 0 0 0 0 0 0 0 0 0 0 0 0 0 0 0 0 0 0 0 0 0 0 0 0 0 0 0 0 0 0 0 0 0 0 0 0 0 0 0 0 0 0 0 0 0 0 0 0 0 0 0 0 0 0 0 0 0 0 0 0 0 0 0 0 0 0 0 0 0 0 0 0 0 0 0 0 0 0 0 0 0 0 0 0 0 0 0 0 0 0 0 0 0 0 0 0 0 0 0 0 0 0 0 0 0 0 0 0 
0 0 0 0 0 0 0 0 0 0 0 0 0 0 0 0 0 0 0 0 0 0 0 0 0 0 0 0 0 0 0 0 0 0 0 0 0 0 0 0 0 0 0 0 0 0 0 0 0 0 0 0 0 0 0 0 0 0 0 0 0 0 0 0 0 0 0 0 0 0 0 0 0 0 0 0 0 0 0 0 0 0 0 0 0 0 0 0 0 0 0 0 0 0 0 0 0 0 0 0 0 0 0 0 0 0 0 0 0 0 0 0 0 0 0 0 0 0 0 0 0 0 0 0 0 0 0 0 
0 0 0 0 0 0 0 0 0 0 0 0 0 0 0 0 0 0 0 0 0 0 0 0 0 0 0 0 0 0 0 0 0 0 0 0 0 0 0 0 0 0 0 0 0 0 0 0 0 0 0 0 0 0 0 0 0 0 0 0 0 0 0 0 0 0 0 0 0 0 0 0 0 0 0 0 0 0 0 0 0 0 0 0 0 0 0 0 0 0 0 0 0 0 0 0 0 0 0 0 0 0 0 0 0 0 0 0 0 0 0 0 0 0 0 0 0 0 0 0 0 0 0 0 0 0 0 0 
0 0 0 0 0 0 0 0 0 0 0 0 0 0 0 0 0 0 0 0 0 0 0 0 0 0 0 0 0 0 0 0 0 0 0 0 0 0 0 0 0 0 0 0 0 0 0 0 0 0 0 0 0 0 0 0 0 0 0 0 0 0 0 0 0 0 0 0 0 0 0 0 0 0 0 0 0 0 0 0 0 0 0 0 0 0 0 0 0 0 0 0 0 0 0 0 0 0 0 0 0 0 0 0 0 0 0 0 0 0 0 0 0 0 0 0 0 0 0 0 0 0 0 0 0 0 0 0 
0 0 0 0 0 0 0 0 0 0 0 0 0 0 0 0 0 0 0 0 0 0 0 0 0 0 0 0 0 0 0 0 0 0 0 0 0 0 0 0 0 0 0 0 0 0 0 0 0 0 0 0 0 0 0 0 0 0 0 0 0 0 0 0 0 0 0 0 0 0 0 0 0 0 0 0 0 0 0 0 0 0 0 0 0 0 0 0 0 0 0 0 0 0 0 0 0 0 0 0 0 0 0 0 0 0 0 0 0 0 0 0 0 0 0 0 0 0 0 0 0 0 0 0 0 0 0 0 
0 0 0 0 0 0 0 0 0 0 0 0 0 0 0 0 0 0 0 0 0 0 0 0 0 0 0 0 0 0 0 0 0 0 0 0 0 0 0 0 0 0 0 0 0 0 0 0 0 0 0 0 0 0 0 0 0 0 0 0 0 0 0 0 0 0 0 0 0 0 0 0 0 0 0 0 0 0 0 0 0 0 0 0 0 0 0 0 0 0 0 0 0 0 0 0 0 0 0 0 0 0 0 0 0 0 0 0 0 0 0 0 0 0 0 0 0 0 0 0 0 0 0 0 0 0 0 0 
0 0 0 0 0 0 0 0 0 0 0 0 0 0 0 0 0 0 0 0 0 0 0 0 0 0 0 0 0 0 0 0 0 0 0 0 0 0 0 0 0 0 0 0 0 0 0 0 0 0 0 0 0 0 0 0 0 0 0 0 0 0 0 0 0 0 0 0 0 0 0 0 0 0 0 0 0 0 0 0 0 0 0 0 0 0 0 0 0 0 0 0 0 0 0 0 0 0 0 0 0 0 0 0 0 0 0 0 0 0 0 0 0 0 0 0 0 0 0 0 0 0 0 0 0 0 0 0 
0 0 0 0 0 0 0 0 0 0 0 0 0 0 0 0 0 0 0 0 0 0 0 0 0 0 0 0 0 0 0 0 0 0 0 0 0 0 0 0 0 0 0 0 0 0 0 0 0 0 0 0 0 0 0 0 0 0 0 0 0 0 0 0 0 0 0 0 0 0 0 0 0 0 0 0 0 0 0 0 0 0 0 0 0 0 0 0 0 0 0 0 0 0 0 0 0 0 0 0 0 0 0 0 0 0 0 0 0 0 0 0 0 0 0 0 0 0 0 0 0 0 0 0 0 0 0 0 
0 0 0 0 0 0 0 0 0 0 0 0 0 0 0 0 0 0 0 0 0 0 0 0 0 0 0 0 0 0 0 0 0 0 0 0 0 0 0 0 0 0 0 0 0 0 0 0 0 0 0 0 0 0 0 0 0 0 0 0 0 0 0 0 0 0 0 0 0 0 0 0 0 0 0 0 0 0 0 0 0 0 0 0 0 0 0 0 0 0 0 0 0 0 0 0 0 0 0 0 0 0 0 0 0 0 0 0 0 0 0 0 0 0 0 0 0 0 0 0 0 0 0 0 0 0 0 0 
0 0 0 0 0 0 0 0 0 0 0 0 0 0 0 0 0 0 0 0 0 0 0 0 0 0 0 0 0 0 0 0 0 0 0 0 0 0 0 0 0 0 0 0 0 0 0 0 0 0 0 0 0 0 0 11 18 28 40 59 70 79 82 87 68 58 32 19 13 0 0 0 0 0 0 0 0 0 0 0 0 0 0 0 0 0 0 0 0 0 0 0 0 0 0 0 0 0 0 0 0 0 0 0 0 0 0 0 0 0 0 0 0 0 0 0 0 0 0 0 0 0 0 0 0 0 0 0 
0 0 0 0 0 0 0 0 0 0 0 0 0 0 0 0 0 0 0 0 0 0 0 0 0 0 0 0 0 0 0 0 0 0 0 0 0 0 0 0 0 0 0 0 0 0 0 0 0 0 0 0 18 37 59 82 88 88 88 88 88 88 88 88 88 88 88 88 88 57 32 18 0 0 0 0 0 0 0 0 0 0 0 0 0 0 0 0 0 0 0 0 0 0 0 0 0 0 0 0 0 0 0 0 0 0 0 0 0 0 0 0 0 0 0 0 0 0 0 0 0 0 0 0 0 0 0 0 
0 0 0 0 0 0 0 0 0 0 0 0 0 0 0 0 0 0 0 0 0 0 0 0 0 0 0 0 0 0 0 0 0 0 0 0 0 0 0 0 0 0 0 0 0 0 0 0 0 6 24 54 85 88 88 88 88 88 88 88 88 88 69 88 88 87 88 88 88 88 88 81 60 26 13 0 0 0 0 0 0 0 0 0 0 0 0 0 0 0 0 0 0 0 0 0 0 0 0 0 0 0 0 0 0 0 0 0 0 0 0 0 0 0 0 0 0 0 0 0 0 0 0 0 0 0 0 0 
0 0 0 0 0 0 0 0 0 0 0 0 0 0 0 0 0 0 0 0 0 0 0 0 0 0 0 0 0 0 0 0 0 0 0 0 0 0 0 0 0 0 0 0 0 0 0 0 21 56 84 88 88 88 88 88 85 69 52 88 57 52 66 51 69 53 61 54 70 87 88 88 88 79 49 27 11 0 0 0 0 0 0 0 0 0 0 0 0 0 0 0 0 0 0 0 0 0 0 0 0 0 0 0 0 0 0 0 0 0 0 0 0 0 0 0 0 0 0 0 0 0 0 0 0 0 0 0 
0 0 0 0 0 0 0 0 0 0 0 0 0 0 0 0 0 0 0 0 0 0 0 0 0 0 0 0 0 0 0 0 0 0 0 0 0 0 0 0 0 0 0 0 0 0 16 48 78 88 88 88 88 88 88 82 75 66 53 56 25 16 9 18 20 24 42 52 62 70 88 88 88 88 86 66 45 28 11 0 0 0 0 0 0 0 0 0 0 0 0 0 0 0 0 0 0 0 0 0 0 0 0 0 0 0 0 0 0 0 0 0 0 0 0 0 0 0 0 0 0 0 0 0 0 0 0 0 
0 0 0 0 0 0 0 0 0 0 0 0 0 0 0 0 0 0 0 0 0 0 0 0 0 0 0 0 0 0 0 0 0 0 0 0 0 0 0 0 0 0 0 0 17 53 85 88 88 88 87 88 84 88 86 65 62 48 29 21 13 8 25 9 13 9 23 28 44 63 78 88 88 88 83 76 63 48 37 34 21 9 0 0 0 0 0 0 0 0 0 0 0 0 0 0 0 0 0 0 0 0 0 0 0 0 0 0 0 0 0 0 0 0 0 0 0 0 0 0 0 0 0 0 0 0 0 0 
0 0 0 0 0 0 0 0 0 0 0 0 0 0 0 0 0 0 0 0 0 0 0 0 0 0 0 0 0 0 0 0 0 0 0 0 0 0 0 0 0 0 13 63 88 88 87 76 81 88 88 88 88 88 70 70 56 29 13 9 6 25 30 20 9 12 13 27 26 41 59 78 88 88 88 68 60 58 56 52 50 60 47 25 0 0 0 0 0 0 0 0 0 0 0 0 0 0 0 0 0 0 0 0 0 0 0 0 0 0 0 0 0 0 0 0 0 0 0 0 0 0 0 0 0 0 0 0 
0 0 0 0 0 0 0 0 0 0 0 0 0 0 0 0 0 0 0 0 0 0 0 0 0 0 0 0 0 0 0 0 0 0 0 0 0 0 0 0 0 48 88 88 87 71 88 88 88 88 88 86 76 60 74 36 35 17 8 5 13 32 6 0 0 4 5 26 24 22 80 88 88 77 88 88 88 88 88 88 88 65 48 47 54 17 0 0 0 0 0 0 0 0 0 0 0 0 0 0 0 0 0 0 0 0 0 0 0 0 0 0 0 0 0 0 0 0 0 0 0 0 0 0 0 0 0 0 
0 0 0 0 0 0 0 0 0 0 0 0 0 0 0 0 0 0 0 0 0 0 0 0 0 0 0 0 0 0 0 0 0 0 0 0 0 0 0 6 83 88 72 88 88 88 88 88 88 87 88 88 88 88 58 31 23 8 2 18 22 22 5 2 3 2 18 33 39 14 68 49 83 88 88 88 88 88 88 88 88 88 88 88 55 61 51 0 0 0 0 0 0 0 0 0 0 0 0 0 0 0 0 0 0 0 0 0 0 0 0 0 0 0 0 0 0 0 0 0 0 0 0 0 0 0 0 0 
0 0 0 0 0 0 0 0 0 0 0 0 0 0 0 0 0 0 0 0 0 0 0 0 0 0 0 0 0 0 0 0 0 0 0 0 0 0 8 88 88 88 88 88 88 88 76 88 88 88 88 88 88 88 68 33 16 2 2 21 24 12 38 6 1 4 26 26 29 22 24 62 88 88 88 88 88 88 88 88 87 77 88 88 88 88 55 61 0 0 0 0 0 0 0 0 0 0 0 0 0 0 0 0 0 0 0 0 0 0 0 0 0 0 0 0 0 0 0 0 0 0 0 0 0 0 0 0 
0 0 0 0 0 0 0 0 0 0 0 0 0 0 0 0 0 0 0 0 0 0 0 0 0 0 0 0 0 0 0 0 0 0 0 0 0 7 88 88 88 88 88 87 60 83 88 88 88 88 88 88 88 66 56 48 15 12 8 12 13 13 27 38 3 5 15 11 13 20 43 59 67 75 88 88 73 75 87 88 83 78 61 79 88 88 88 55 66 0 0 0 0 0 0 0 0 0 0 0 0 0 0 0 0 0 0 0 0 0 0 0 0 0 0 0 0 0 0 0 0 0 0 0 0 0 0 0 
0 0 0 0 0 0 0 0 0 0 0 0 0 0 0 0 0 0 0 0 0 0 0 0 0 0 0 0 0 0 0 0 0 0 0 0 0 88 88 87 88 88 54 62 88 88 88 83 78 76 79 72 78 71 79 44 33 7 6 4 5 1 3 29 2 2 2 9 8 27 49 83 88 73 72 66 63 63 54 60 65 83 86 64 55 88 88 88 60 67 0 0 0 0 0 0 0 0 0 0 0 0 0 0 0 0 0 0 0 0 0 0 0 0 0 0 0 0 0 0 0 0 0 0 0 0 0 0 
0 0 0 0 0 0 0 0 0 0 0 0 0 0 0 0 0 0 0 0 0 0 0 0 0 0 0 0 0 0 0 0 0 0 0 0 88 88 71 88 63 50 46 81 88 77 68 57 59 59 55 60 79 87 88 58 38 8 5 3 2 1 1 45 13 7 9 7 3 17 61 88 88 78 86 63 44 39 36 37 37 43 61 88 88 58 83 88 88 64 52 0 0 0 0 0 0 0 0 0 0 0 0 0 0 0 0 0 0 0 0 0 0 0 0 0 0 0 0 0 0 0 0 0 0 0 0 0 
0 0 0 0 0 0 0 0 0 0 0 0 0 0 0 0 0 0 0 0 0 0 0 0 0 0 0 0 0 0 0 0 0 0 0 36 88 56 88 49 41 34 88 88 71 55 51 44 37 37 42 52 78 80 88 86 32 5 7 2 6 19 33 62 14 40 33 20 23 47 48 88 88 83 52 49 33 29 27 27 32 31 38 47 88 83 51 76 88 88 78 18 0 0 0 0 0 0 0 0 0 0 0 0 0 0 0 0 0 0 0 0 0 0 0 0 0 0 0 0 0 0 0 0 0 0 0 0 
0 0 0 0 0 0 0 0 0 0 0 0 0 0 0 0 0 0 0 0 0 0 0 0 0 0 0 0 0 0 0 0 0 0 0 88 62 88 53 38 24 88 88 76 53 47 41 34 30 33 35 37 64 81 88 79 57 13 4 13 27 28 20 88 36 44 38 16 14 25 34 88 88 86 55 37 31 29 27 29 26 25 28 37 55 87 72 47 74 88 68 82 0 0 0 0 0 0 0 0 0 0 0 0 0 0 0 0 0 0 0 0 0 0 0 0 0 0 0 0 0 0 0 0 0 0 0 0 
0 0 0 0 0 0 0 0 0 0 0 0 0 0 0 0 0 0 0 0 0 0 0 0 0 0 0 0 0 0 0 0 0 0 65 88 78 78 28 28 58 88 80 70 52 51 35 30 30 29 31 37 54 78 88 88 59 55 44 21 15 35 50 88 78 36 30 3 9 13 49 88 88 88 45 36 29 29 30 29 26 27 26 30 45 69 88 41 49 88 88 88 32 0 0 0 0 0 0 0 0 0 0 0 0 0 0 0 0 0 0 0 0 0 0 0 0 0 0 0 0 0 0 0 0 0 0 0 
0 0 0 0 0 0 0 0 0 0 0 0 0 0 0 0 0 0 0 0 0 0 0 0 0 0 0 0 0 0 0 0 0 0 88 62 88 18 43 16 88 88 78 63 54 52 40 31 28 30 32 42 65 83 88 88 55 13 7 11 14 43 51 88 68 35 32 7 5 6 55 88 88 88 45 35 29 30 28 27 25 27 28 25 38 66 88 67 29 45 88 77 87 0 0 0 0 0 0 0 0 0 0 0 0 0 0 0 0 0 0 0 0 0 0 0 0 0 0 0 0 0 0 0 0 0 0 0 
0 0 0 0 0 0 0 0 0 0 0 0 0 0 0 0 0 0 0 0 0 0 0 0 0 0 0 0 0 0 0 0 0 48 88 85 67 14 41 36 88 88 88 62 64 58 42 34 36 35 40 53 74 88 88 88 62 30 29 16 13 37 48 88 86 38 32 13 1 12 70 88 88 88 64 37 32 29 28 26 28 27 28 27 36 54 85 88 13 31 81 88 88 16 0 0 0 0 0 0 0 0 0 0 0 0 0 0 0 0 0 0 0 0 0 0 0 0 0 0 0 0 0 0 0 0 0 0 
0 0 0 0 0 0 0 0 0 0 0 0 0 0 0 0 0 0 0 0 0 0 0 0 0 0 0 0 0 0 0 0 0 88 75 88 46 3 27 34 88 88 88 68 65 63 51 47 44 46 53 61 88 88 88 88 78 15 2 22 38 34 56 76 48 47 37 14 11 12 78 88 88 88 84 49 35 31 27 25 28 29 26 28 36 60 86 88 13 20 44 88 88 65 0 0 0 0 0 0 0 0 0 0 0 0 0 0 0 0 0 0 0 0 0 0 0 0 0 0 0 0 0 0 0 0 0 0 
0 0 0 0 0 0 0 0 0 0 0 0 0 0 0 0 0 0 0 0 0 0 0 0 0 0 0 0 0 0 0 0 15 88 55 88 58 6 11 16 88 88 88 76 71 71 63 54 54 69 67 88 88 88 88 88 85 14 2 2 25 37 47 37 41 54 51 48 9 22 75 88 88 88 88 75 49 34 28 27 27 31 32 32 46 72 88 88 0 12 35 88 87 88 0 0 0 0 0 0 0 0 0 0 0 0 0 0 0 0 0 0 0 0 0 0 0 0 0 0 0 0 0 0 0 0 0 0 
0 0 0 0 0 0 0 0 0 0 0 0 0 0 0 0 0 0 0 0 0 0 0 0 0 0 0 0 0 0 0 0 64 88 88 88 64 24 16 8 72 88 88 84 88 88 88 88 88 88 88 88 88 88 88 88 88 23 2 6 26 36 38 26 44 38 32 14 48 14 86 88 88 88 88 83 82 61 38 33 35 37 44 43 56 88 88 45 13 24 28 88 78 88 28 0 0 0 0 0 0 0 0 0 0 0 0 0 0 0 0 0 0 0 0 0 0 0 0 0 0 0 0 0 0 0 0 0 
0 0 0 0 0 0 0 0 0 0 0 0 0 0 0 0 0 0 0 0 0 0 0 0 0 0 0 0 0 0 0 0 88 88 88 88 37 42 35 32 25 88 88 88 88 88 88 88 88 88 88 88 88 88 88 88 85 33 8 18 24 41 45 35 39 47 29 8 36 42 88 88 88 88 88 88 87 88 82 72 77 71 65 70 84 88 88 8 24 32 26 88 88 88 88 0 0 0 0 0 0 0 0 0 0 0 0 0 0 0 0 0 0 0 0 0 0 0 0 0 0 0 0 0 0 0 0 0 
0 0 0 0 0 0 0 0 0 0 0 0 0 0 0 0 0 0 0 0 0 0 0 0 0 0 0 0 0 0 0 30 88 86 88 88 48 61 56 47 51 48 88 88 88 88 88 88 88 88 88 88 88 88 88 88 88 44 4 20 16 44 53 45 43 49 40 13 25 50 88 88 88 88 88 88 88 88 88 88 88 88 88 88 88 88 44 12 36 37 36 88 80 66 88 6 0 0 0 0 0 0 0 0 0 0 0 0 0 0 0 0 0 0 0 0 0 0 0 0 0 0 0 0 0 0 0 0 
0 0 0 0 0 0 0 0 0 0 0 0 0 0 0 0 0 0 0 0 0 0 0 0 0 0 0 0 0 0 0 88 88 74 88 88 55 51 67 58 88 29 36 77 88 88 88 88 88 88 88 88 88 88 88 88 73 61 0 19 16 45 53 40 34 56 49 13 40 16 88 88 88 88 88 88 88 88 88 88 88 88 88 88 88 68 15 41 56 66 64 88 88 76 88 45 0 0 0 0 0 0 0 0 0 0 0 0 0 0 0 0 0 0 0 0 0 0 0 0 0 0 0 0 0 0 0 0 
0 0 0 0 0 0 0 0 0 0 0 0 0 0 0 0 0 0 0 0 0 0 0 0 0 0 0 0 0 5 27 88 88 62 88 61 62 57 61 53 88 62 8 23 63 88 88 88 88 88 88 88 88 88 88 88 88 79 33 14 17 51 51 43 39 52 48 13 34 25 88 88 88 88 88 88 88 88 88 88 88 88 88 71 37 19 66 72 62 56 66 88 88 88 74 88 0 5 0 0 0 0 0 0 0 0 0 0 0 0 0 0 0 0 0 0 0 0 0 0 0 0 0 0 0 0 0 0 
0 0 0 0 0 0 0 0 0 0 0 0 0 0 0 0 0 0 0 0 0 0 0 0 0 0 0 0 0 0 76 88 88 88 88 57 66 64 52 50 88 88 72 0 28 77 88 88 88 88 88 88 88 88 88 88 88 88 31 11 18 37 59 38 42 53 41 33 6 31 88 88 88 88 88 88 88 88 88 88 88 88 88 22 12 78 88 57 59 60 86 73 88 85 78 88 38 9 0 0 0 0 0 0 0 0 0 0 0 0 0 0 0 0 0 0 0 0 0 0 0 0 0 0 0 0 0 0 
0 0 0 0 0 0 0 0 0 0 0 0 0 0 0 0 0 0 0 0 0 0 0 0 0 0 0 0 0 9 88 88 88 88 88 50 73 72 62 38 88 58 88 23 24 52 88 83 88 88 88 88 88 88 88 88 88 88 66 15 7 39 52 43 37 51 23 12 32 35 88 88 88 88 88 88 88 88 88 88 88 88 40 17 15 88 88 59 59 70 88 59 88 76 88 88 88 0 0 0 0 0 0 0 0 0 0 0 0 0 0 0 0 0 0 0 0 0 0 0 0 0 0 0 0 0 0 0 
0 0 0 0 0 0 0 0 0 0 0 0 0 0 0 0 0 0 0 0 0 0 0 0 0 0 0 0 0 55 88 88 88 88 76 72 65 68 49 56 88 60 83 88 52 88 47 83 86 88 88 88 88 88 88 88 88 88 81 19 11 23 47 43 52 38 22 6 3 43 88 88 88 50 88 88 88 88 88 88 88 63 63 14 88 88 85 62 44 88 67 67 88 88 88 88 88 35 8 0 0 0 0 0 0 0 0 0 0 0 0 0 0 0 0 0 0 0 0 0 0 0 0 0 0 0 0 0 
0 0 0 0 0 0 0 0 0 0 0 0 0 0 0 0 0 0 0 0 0 0 0 0 0 0 0 0 0 88 88 88 88 88 56 88 71 67 59 51 59 64 76 88 71 77 83 48 80 88 88 88 88 88 88 88 88 88 63 8 5 11 48 43 61 46 4 1 4 16 88 88 88 87 78 88 88 88 79 88 54 69 75 47 88 53 88 88 37 86 61 76 88 88 88 88 88 88 0 0 0 0 0 0 0 0 0 0 0 0 0 0 0 0 0 0 0 0 0 0 0 0 0 0 0 0 0 0 
0 0 0 0 0 0 0 0 0 0 0 0 0 0 0 0 0 0 0 0 0 0 0 0 0 0 0 0 22 88 88 88 88 88 52 79 88 39 88 49 60 70 75 88 80 81 88 88 45 84 88 88 88 88 84 88 88 88 54 2 4 13 31 51 59 45 6 8 4 4 88 88 88 72 86 88 88 88 88 55 83 83 84 86 84 64 67 88 39 88 88 88 67 88 88 88 88 88 16 0 0 0 0 0 0 0 0 0 0 0 0 0 0 0 0 0 0 0 0 0 0 0 0 0 0 0 0 0 
0 0 0 0 0 0 0 0 0 0 0 0 0 0 0 0 0 0 0 0 0 0 0 0 0 0 0 0 64 88 88 88 88 88 50 78 69 32 58 57 54 59 87 88 69 57 58 68 76 41 88 88 88 88 74 64 88 86 54 0 8 4 34 68 52 28 19 6 11 8 86 88 78 66 88 88 88 88 55 79 88 83 74 82 87 61 60 73 42 64 88 56 76 88 88 88 88 88 68 0 0 0 0 0 0 0 0 0 0 0 0 0 0 0 0 0 0 0 0 0 0 0 0 0 0 0 0 0 
0 0 0 0 0 0 0 0 0 0 0 0 0 0 0 0 0 0 0 0 0 0 0 0 0 0 0 0 88 88 88 88 88 86 64 76 88 40 56 54 59 63 64 56 25 31 38 66 34 30 68 88 88 88 68 55 88 88 44 31 28 39 47 21 17 4 4 2 15 29 81 88 63 88 88 88 88 71 39 47 23 25 48 67 74 68 57 56 88 68 84 54 60 88 88 88 88 88 88 5 0 0 0 0 0 0 0 0 0 0 0 0 0 0 0 0 0 0 0 0 0 0 0 0 0 0 0 0 
0 0 0 0 0 0 0 0 0 0 0 0 0 0 0 0 0 0 0 0 0 0 0 0 0 0 0 34 88 88 88 88 88 60 68 48 22 66 88 48 56 59 47 25 61 47 63 55 54 57 21 83 80 88 88 53 66 88 36 43 39 5 4 2 29 24 8 0 3 1 85 77 69 86 88 79 88 0 43 36 54 53 34 21 54 72 57 63 88 33 88 69 53 88 88 88 88 88 88 41 5 0 0 0 0 0 0 0 0 0 0 0 0 0 0 0 0 0 0 0 0 0 0 0 0 0 0 0 
0 0 0 0 0 0 0 0 0 0 0 0 0 0 0 0 0 0 0 0 0 0 0 0 0 0 0 68 88 88 88 87 88 59 58 38 43 53 54 88 53 47 36 39 46 51 55 58 58 54 67 31 79 81 88 60 76 78 37 22 9 1 2 1 3 32 40 21 0 0 71 72 74 78 88 88 22 56 55 60 57 59 57 41 20 57 61 88 42 55 27 54 76 72 88 88 88 88 88 78 0 0 0 0 0 0 0 0 0 0 0 0 0 0 0 0 0 0 0 0 0 0 0 0 0 0 0 0 
0 0 0 0 0 0 0 0 0 0 0 0 0 0 0 0 0 0 0 0 0 0 0 0 0 0 13 88 88 88 88 88 88 67 56 48 83 52 55 68 46 30 35 45 49 53 58 58 59 58 51 60 46 86 77 85 64 88 18 6 6 1 1 0 1 1 0 3 25 41 70 75 63 70 88 41 39 63 54 57 59 61 59 58 27 30 50 88 52 59 50 41 60 88 88 88 88 88 88 88 16 0 0 0 0 0 0 0 0 0 0 0 0 0 0 0 0 0 0 0 0 0 0 0 0 0 0 0 
0 0 0 0 0 0 0 0 0 0 0 0 0 0 0 0 0 0 0 0 0 0 0 0 0 0 33 88 88 88 88 88 88 52 69 48 54 48 61 70 31 23 41 51 54 57 59 62 62 59 59 58 57 59 79 56 80 60 41 6 1 2 1 1 2 1 1 0 0 13 63 61 68 67 86 44 63 58 59 59 62 63 61 57 55 18 28 70 48 60 64 37 63 46 88 88 88 88 88 88 51 5 0 0 0 0 0 0 0 0 0 0 0 0 0 0 0 0 0 0 0 0 0 0 0 0 0 0 
0 0 0 0 0 0 0 0 0 0 0 0 0 0 0 0 0 0 0 0 0 0 0 0 0 0 65 88 88 88 88 88 87 56 34 42 77 88 79 15 15 31 44 53 60 57 62 64 62 61 63 61 56 53 75 55 47 47 24 0 1 1 1 2 0 0 1 0 0 13 49 44 71 75 63 45 61 60 59 61 58 65 64 59 54 48 13 43 88 66 60 48 63 65 88 88 88 88 88 88 79 0 0 0 0 0 0 0 0 0 0 0 0 0 0 0 0 0 0 0 0 0 0 0 0 0 0 0 
0 0 0 0 0 0 0 0 0 0 0 0 0 0 0 0 0 0 0 0 0 0 0 0 0 6 88 88 88 88 88 88 76 67 55 42 57 78 52 17 29 35 46 54 57 57 62 63 63 62 63 65 58 57 53 71 50 67 0 3 0 2 0 1 0 1 0 1 0 6 35 54 63 79 45 57 57 59 61 61 62 64 64 59 58 55 43 15 63 54 56 34 44 63 81 88 88 88 88 88 88 13 0 0 0 0 0 0 0 0 0 0 0 0 0 0 0 0 0 0 0 0 0 0 0 0 0 0 
0 0 0 0 0 0 0 0 0 0 0 0 0 0 0 0 0 0 0 0 0 0 0 0 0 18 88 88 88 88 88 88 59 81 33 50 57 36 37 39 56 53 43 47 57 58 60 67 63 61 62 64 65 57 53 55 65 51 0 1 2 1 1 1 0 1 0 0 2 2 8 63 63 47 57 55 61 60 59 62 62 66 69 63 62 58 59 35 9 42 54 52 23 66 57 88 88 88 88 88 88 31 0 0 0 0 0 0 0 0 0 0 0 0 0 0 0 0 0 0 0 0 0 0 0 0 0 0 
0 0 0 0 0 0 0 0 0 0 0 0 0 0 0 0 0 0 0 0 0 0 0 0 0 40 88 88 88 88 88 88 80 54 40 54 49 33 48 53 57 57 59 51 55 59 60 70 62 59 59 65 64 63 55 49 59 64 5 9 0 1 1 1 1 0 0 0 0 4 23 73 52 49 56 59 60 61 60 64 64 69 63 63 61 61 55 54 30 32 54 57 26 58 84 88 88 88 88 88 88 48 5 0 0 0 0 0 0 0 0 0 0 0 0 0 0 0 0 0 0 0 0 0 0 0 0 0 
0 0 0 0 0 0 0 0 0 0 0 0 0 0 0 0 0 0 0 0 0 0 0 0 6 54 88 88 88 88 88 77 83 53 50 60 31 50 50 55 61 61 54 55 56 60 66 67 62 59 61 65 66 63 54 51 49 88 35 11 5 2 3 2 2 1 2 0 13 6 88 61 51 55 56 61 62 61 63 66 69 65 61 64 67 66 60 54 47 38 60 72 39 59 88 70 88 88 88 88 88 63 0 0 0 0 0 0 0 0 0 0 0 0 0 0 0 0 0 0 0 0 0 0 0 0 0 0 
0 0 0 0 0 0 0 0 0 0 0 0 0 0 0 0 0 0 0 0 0 0 0 0 0 71 88 48 88 88 88 72 88 49 50 53 34 53 56 55 59 63 61 57 60 66 66 65 60 57 66 63 62 63 55 54 51 76 3 15 18 2 0 1 1 1 1 4 5 9 49 65 41 61 56 65 65 66 65 68 66 64 62 57 61 58 55 52 53 28 31 56 48 29 88 88 88 88 88 88 88 78 6 0 0 0 0 0 0 0 0 0 0 0 0 0 0 0 0 0 0 0 0 0 0 0 0 0 
0 0 0 0 0 0 0 0 0 0 0 0 0 0 0 0 0 0 0 0 0 0 0 0 6 87 88 88 88 88 82 88 71 47 56 44 31 50 59 59 61 63 68 60 63 67 68 63 60 59 65 66 61 57 53 51 58 61 16 57 17 6 1 2 0 1 3 8 36 11 18 44 46 60 60 60 65 70 65 71 67 65 60 56 58 55 54 61 50 44 13 62 57 39 73 88 88 88 88 88 88 86 9 0 0 0 0 0 0 0 0 0 0 0 0 0 0 0 0 0 0 0 0 0 0 0 0 0 
0 0 0 0 0 0 0 0 0 0 0 0 0 0 0 0 0 0 0 0 0 0 0 0 13 88 88 88 88 88 62 88 64 44 51 38 36 52 59 60 62 64 62 64 60 64 65 63 58 61 66 63 57 52 53 43 40 68 23 40 24 4 1 2 3 5 9 1 73 26 21 50 57 53 63 59 63 63 69 70 67 62 59 53 54 59 57 55 60 48 17 45 55 49 59 88 64 88 88 88 88 88 21 5 0 0 0 0 0 0 0 0 0 0 0 0 0 0 0 0 0 0 0 0 0 0 0 0 
0 0 0 0 0 0 0 0 0 0 0 0 0 0 0 0 0 0 0 0 0 0 0 0 14 88 88 84 88 66 70 88 42 49 43 36 39 55 58 61 61 59 60 55 53 55 62 64 60 61 66 63 59 51 55 31 32 84 12 26 48 20 27 28 29 30 35 63 68 14 44 41 57 58 60 62 64 56 65 70 67 63 57 60 63 63 68 65 55 50 23 34 88 68 44 88 88 85 88 88 88 88 17 0 0 0 0 0 0 0 0 0 0 0 0 0 0 0 0 0 0 0 0 0 0 0 0 0 
0 0 0 0 0 0 0 0 0 0 0 0 0 0 0 0 0 0 0 0 0 0 0 0 14 88 88 83 88 75 88 86 43 51 53 31 44 51 58 60 62 61 57 59 58 66 61 60 64 68 72 64 62 61 56 33 19 88 77 31 71 61 57 57 60 47 48 81 18 8 75 45 61 56 59 58 61 57 66 68 72 65 58 55 65 72 63 61 61 51 34 9 63 53 51 75 88 25 88 88 88 88 29 0 0 0 0 0 0 0 0 0 0 0 0 0 0 0 0 0 0 0 0 0 0 0 0 0 
0 0 0 0 0 0 0 0 0 0 0 0 0 0 0 0 0 0 0 0 0 0 0 7 12 88 88 83 88 88 88 46 47 58 49 18 36 48 56 53 54 52 58 58 62 66 65 62 70 64 61 62 63 61 56 51 38 88 88 69 37 83 76 85 68 70 71 63 25 20 88 37 55 60 60 56 56 57 65 64 68 67 60 63 67 66 61 59 59 54 51 9 44 59 49 59 88 59 88 88 88 88 27 0 0 0 0 0 0 0 0 0 0 0 0 0 0 0 0 0 0 0 0 0 0 0 0 0 
0 0 0 0 0 0 0 0 0 0 0 0 0 0 0 0 0 0 0 0 0 0 6 0 19 88 88 88 88 88 88 47 52 63 42 7 30 56 50 47 51 52 55 58 66 71 71 67 59 56 57 61 65 62 62 51 48 88 60 45 47 71 88 88 88 88 88 61 25 34 88 50 55 57 57 59 52 57 63 69 75 72 67 59 66 65 62 58 59 55 70 14 34 62 57 44 88 88 69 88 64 88 31 0 13 0 0 0 0 0 0 0 0 0 0 0 0 0 0 0 0 0 0 0 0 0 0 0 
0 0 0 0 0 0 0 0 0 0 0 0 0 0 0 0 0 0 0 0 0 0 0 0 29 88 88 88 88 88 56 44 57 77 35 9 32 54 50 52 47 42 49 59 66 69 68 59 54 51 51 57 63 56 60 51 56 21 7 15 56 88 88 88 88 88 88 86 23 25 71 52 53 57 56 64 53 55 62 65 68 67 67 67 67 65 62 58 57 56 63 28 27 57 61 57 59 88 88 84 88 88 22 6 6 6 0 0 0 0 0 0 0 0 0 0 0 0 0 0 0 0 0 0 0 0 0 0 
0 0 0 0 0 0 0 0 0 0 0 0 0 0 0 0 0 0 0 0 0 0 0 0 11 88 88 84 88 88 58 38 58 60 32 5 56 55 56 57 58 54 56 61 71 66 69 57 57 45 55 58 58 60 52 69 71 81 28 74 76 88 84 80 86 80 88 88 34 17 22 63 59 56 57 62 59 61 61 63 64 63 65 74 70 65 61 56 56 59 58 31 20 47 59 53 50 88 88 77 88 88 17 0 6 5 0 0 0 0 0 0 0 0 0 0 0 0 0 0 0 0 0 0 0 0 0 0 
0 0 0 0 0 0 0 0 0 0 0 0 0 0 0 0 0 0 0 0 0 0 0 0 19 88 88 88 88 78 50 47 58 56 14 29 53 53 52 60 62 65 63 69 69 65 67 63 53 56 55 53 59 50 50 72 78 88 88 79 78 85 87 88 83 88 88 74 74 31 48 65 50 49 55 61 60 60 61 64 62 62 62 64 71 66 61 58 58 55 51 38 12 48 62 49 63 70 88 71 88 88 11 0 5 5 0 0 0 0 0 0 0 0 0 0 0 0 0 0 0 0 0 0 0 0 0 0 
0 0 0 0 0 0 0 0 0 0 0 0 0 0 0 0 0 0 0 0 0 0 0 0 16 88 35 70 75 60 59 41 63 48 3 49 52 53 59 60 63 66 63 62 63 59 63 65 63 58 54 56 50 40 62 44 88 88 88 74 88 88 79 57 82 88 88 88 88 88 85 87 69 45 59 56 60 62 67 65 63 57 52 56 64 69 62 58 58 47 35 39 13 35 63 54 58 54 88 88 88 88 8 0 0 0 0 0 0 0 0 0 0 0 0 0 0 0 0 0 0 0 0 0 0 0 0 0 
0 0 0 0 0 0 0 0 0 0 0 0 0 0 0 0 0 0 0 0 0 0 0 0 13 88 86 65 88 70 38 55 61 28 24 54 53 54 59 58 63 57 56 55 55 57 57 60 63 62 57 55 50 44 42 38 43 60 88 88 76 75 57 42 53 60 67 76 88 88 88 84 59 47 58 58 58 66 67 66 66 59 53 55 59 65 63 56 59 40 18 28 39 8 76 51 51 60 67 88 88 88 13 0 0 0 0 0 0 0 0 0 0 0 0 0 0 0 0 0 0 0 0 0 0 0 0 0 
0 0 0 0 0 0 0 0 0 0 0 0 0 0 0 0 0 0 0 0 0 0 0 0 13 88 74 65 88 63 44 63 43 0 48 51 55 58 60 59 63 56 56 56 51 57 55 57 58 59 60 57 56 37 50 53 52 72 84 72 58 50 44 37 39 39 41 54 61 88 73 63 41 43 53 56 58 62 63 63 68 60 57 54 58 64 65 60 58 52 38 14 43 35 19 61 54 60 70 82 88 88 14 0 0 0 0 0 0 0 0 0 0 0 0 0 0 0 0 0 0 0 0 0 0 0 0 0 
0 0 0 0 0 0 0 0 0 0 0 0 0 0 0 0 0 0 0 0 0 0 0 0 13 88 88 88 56 62 50 57 9 9 44 54 57 59 57 60 61 55 53 54 49 55 54 56 57 62 59 59 55 55 47 45 28 50 66 49 37 35 24 19 34 31 32 38 56 50 55 39 52 47 43 63 57 56 61 61 65 63 57 51 57 63 71 65 58 56 60 30 18 59 28 15 54 65 88 56 78 88 23 5 0 0 0 0 0 0 0 0 0 0 0 0 0 0 0 0 0 0 0 0 0 0 0 0 
0 0 0 0 0 0 0 0 0 0 0 0 0 0 0 0 0 0 0 0 0 0 0 0 19 88 88 71 57 63 56 37 4 12 42 59 54 57 56 58 50 44 49 49 46 54 55 56 64 56 54 53 38 52 51 33 23 51 36 33 31 31 16 33 31 31 31 31 34 43 59 30 31 48 52 59 59 57 59 58 67 65 56 54 57 62 66 66 62 60 51 58 9 31 27 8 46 84 71 29 46 88 74 0 0 0 0 0 0 0 0 0 0 0 0 0 0 0 0 0 0 0 0 0 0 0 0 0 
0 0 0 0 0 0 0 0 0 0 0 0 0 0 0 0 0 0 0 0 0 0 0 0 66 88 81 80 49 60 62 13 9 12 25 51 58 45 31 23 29 24 36 35 34 64 61 60 40 48 52 67 64 59 40 18 29 34 37 40 41 39 19 37 44 49 50 43 45 34 39 62 25 26 38 40 48 47 60 60 64 61 57 57 56 60 59 56 59 60 57 59 41 12 3 5 16 86 50 58 88 88 88 7 0 0 0 0 0 0 0 0 0 0 0 0 0 0 0 0 0 0 0 0 0 0 0 0 
0 0 0 0 0 0 0 0 0 0 0 0 0 0 0 0 0 0 0 0 0 0 0 9 88 78 88 84 47 57 67 0 9 6 8 27 29 14 6 6 13 16 22 31 50 33 29 36 50 58 66 70 64 44 28 34 37 32 41 50 63 62 42 55 54 55 57 51 47 29 31 31 31 29 26 50 56 37 45 57 63 59 60 53 62 54 45 38 48 55 54 66 15 9 6 6 13 88 35 74 67 59 61 22 5 0 0 0 0 0 0 0 0 0 0 0 0 0 0 0 0 0 0 0 0 0 0 0 
0 0 0 0 0 0 0 0 0 0 0 0 0 0 0 0 0 0 0 0 0 0 0 32 47 47 70 76 50 80 58 6 6 8 9 12 9 8 2 6 6 9 41 41 32 19 12 25 53 49 63 59 40 35 26 26 25 46 69 62 71 59 64 56 62 60 63 65 53 38 32 30 29 27 22 37 58 56 42 47 46 57 60 40 52 43 33 26 25 20 26 38 7 7 9 7 4 70 48 52 73 68 61 46 5 0 0 0 0 0 0 0 0 0 0 0 0 0 0 0 0 0 0 0 0 0 0 0 
0 0 0 0 0 0 0 0 0 0 0 0 0 0 0 0 0 0 0 0 0 0 0 51 61 51 69 68 35 75 46 14 7 8 13 9 8 5 3 13 4 29 12 5 19 16 2 6 6 14 21 34 27 20 29 27 31 38 55 63 64 65 65 63 66 62 61 64 59 42 30 25 24 26 28 26 31 54 46 51 40 24 18 31 56 62 18 15 2 5 8 16 9 9 8 12 13 54 59 88 63 20 44 56 7 0 0 0 0 0 0 0 0 0 0 0 0 0 0 0 0 0 0 0 0 0 0 0 
0 0 0 0 0 0 0 0 0 0 0 0 0 0 0 0 0 0 0 0 0 0 0 48 43 24 37 41 67 62 34 14 9 9 16 18 6 6 8 6 8 18 16 14 15 22 33 30 27 25 22 18 22 26 27 28 33 48 62 62 62 62 65 63 67 64 63 63 64 51 37 31 29 32 24 27 28 18 11 19 6 4 9 15 18 19 29 3 8 2 6 12 11 11 18 13 16 47 70 67 23 35 45 47 0 0 0 0 0 0 0 0 0 0 0 0 0 0 0 0 0 0 0 0 0 0 0 0 
0 0 0 0 0 0 0 0 0 0 0 0 0 0 0 0 0 0 0 0 0 0 0 24 51 36 46 20 50 54 40 7 6 9 13 25 27 9 6 13 33 13 26 15 2 20 34 34 30 34 25 23 26 27 28 31 43 54 64 65 63 60 65 66 64 66 63 63 63 59 39 34 27 26 32 24 28 16 24 23 26 25 23 16 11 4 18 11 13 6 5 15 19 26 17 18 24 48 66 45 15 34 24 8 0 0 0 0 0 0 0 0 0 0 0 0 0 0 0 0 0 0 0 0 0 0 0 0 
0 0 0 0 0 0 0 0 0 0 0 0 0 0 0 0 0 0 0 0 0 0 0 0 0 22 21 15 37 61 20 6 5 7 9 5 3 6 11 24 6 7 13 17 2 4 13 21 31 27 18 26 27 29 29 40 48 58 62 63 61 63 63 63 63 63 65 63 64 62 46 37 29 28 24 29 27 19 19 28 32 36 34 26 11 24 12 15 4 12 15 15 30 37 7 9 18 38 57 36 2 3 7 0 0 0 0 0 0 0 0 0 0 0 0 0 0 0 0 0 0 0 0 0 0 0 0 0 
0 0 0 0 0 0 0 0 0 0 0 0 0 0 0 0 0 0 0 0 0 0 0 0 5 28 15 5 47 33 11 5 7 6 2 5 7 3 14 13 8 9 5 17 0 9 12 13 7 7 30 28 32 31 41 49 49 61 64 64 61 61 63 64 66 62 61 63 63 63 51 45 32 28 30 28 22 24 28 23 17 12 9 1 13 26 8 21 23 11 4 13 16 12 13 3 7 30 43 52 0 4 13 0 0 0 0 0 0 0 0 0 0 0 0 0 0 0 0 0 0 0 0 0 0 0 0 0 
0 0 0 0 0 0 0 0 0 0 0 0 0 0 0 0 0 0 0 0 0 0 0 0 31 26 6 12 57 33 4 7 7 6 5 2 7 13 13 5 3 3 2 3 3 13 28 9 41 0 28 37 33 36 42 47 55 61 64 61 60 64 65 63 62 63 62 64 66 61 52 48 43 31 26 23 32 28 21 6 23 8 9 0 14 19 3 2 26 22 5 5 7 6 5 5 5 17 36 69 11 1 9 6 0 0 0 0 0 0 0 0 0 0 0 0 0 0 0 0 0 0 0 0 0 0 0 0 
0 0 0 0 0 0 0 0 0 0 0 0 0 0 0 0 0 0 0 0 0 0 0 12 41 19 0 31 39 23 9 3 5 6 0 7 13 4 8 4 9 13 4 5 4 12 18 28 52 21 41 43 49 54 57 56 59 63 63 63 59 60 64 62 65 62 63 64 63 59 54 55 42 37 37 53 57 52 47 13 22 15 7 4 3 6 7 13 2 28 13 12 1 4 5 4 3 7 39 40 51 0 12 18 6 0 0 0 0 0 0 0 0 0 0 0 0 0 0 0 0 0 0 0 0 0 0 0 
0 0 0 0 0 0 0 0 0 0 0 0 0 0 0 0 0 0 0 0 0 0 0 70 54 18 3 62 63 25 7 2 4 5 0 11 6 6 4 7 3 2 6 18 13 13 26 62 56 56 47 46 59 60 59 58 58 63 61 63 56 58 61 63 61 57 61 57 61 57 56 51 51 61 59 56 59 56 54 38 19 32 16 7 7 2 7 4 4 8 6 7 4 6 3 4 2 8 25 77 60 13 0 20 51 0 0 0 0 0 0 0 0 0 0 0 0 0 0 0 0 0 0 0 0 0 0 0 
0 0 0 0 0 0 0 0 0 0 0 0 0 0 0 0 0 0 0 0 0 0 88 88 49 20 63 88 60 22 1 5 6 6 7 7 2 6 5 9 8 5 13 14 36 56 62 62 55 51 43 61 61 61 64 58 59 54 53 52 65 63 61 61 61 64 65 57 53 54 54 54 67 70 62 67 57 54 44 55 38 31 39 13 11 8 5 8 5 5 5 4 9 2 4 7 2 5 15 67 88 58 7 31 88 65 0 0 0 0 0 0 0 0 0 0 0 0 0 0 0 0 0 0 0 0 0 0 
0 0 0 0 0 0 0 0 0 0 0 0 0 0 0 0 0 0 0 0 0 34 88 86 53 54 72 88 63 14 3 6 3 5 5 4 6 5 9 9 13 31 55 59 57 55 49 54 54 39 45 64 61 63 63 60 55 65 62 63 64 64 64 61 62 63 62 63 59 60 58 57 74 62 63 62 59 54 44 46 50 47 49 64 59 36 4 2 5 4 5 5 7 3 5 4 6 1 14 51 88 76 40 33 78 88 22 0 0 0 0 0 0 0 0 0 0 0 0 0 0 0 0 0 0 0 0 0 
0 0 0 0 0 0 0 0 0 0 0 0 0 0 0 0 0 0 0 0 0 88 88 56 50 48 39 73 69 15 2 7 2 0 7 4 9 11 13 29 28 46 38 54 49 50 49 41 40 33 58 61 60 61 63 49 58 61 59 62 64 63 63 63 64 62 63 64 61 60 55 50 61 63 60 58 58 59 41 40 49 57 52 46 46 60 38 7 6 6 7 8 6 1 1 2 5 3 13 55 88 51 49 47 55 88 70 7 0 0 0 0 0 0 0 0 0 0 0 0 0 0 0 0 0 0 0 0 
0 0 0 0 0 0 0 0 0 0 0 0 0 0 0 0 0 0 0 0 43 88 54 21 36 25 15 70 71 16 6 6 4 5 0 30 14 34 33 40 58 59 49 59 59 55 47 57 49 63 56 62 59 60 61 65 39 65 53 63 62 62 63 56 64 61 61 62 60 53 53 60 63 65 66 66 64 57 63 46 48 56 46 51 46 47 28 42 16 6 2 0 7 11 6 8 1 13 6 57 82 20 40 37 25 88 54 26 0 0 0 0 0 0 0 0 0 0 0 0 0 0 0 0 0 0 0 0 
0 0 0 0 0 0 0 0 0 0 0 0 0 0 0 0 0 0 0 0 38 53 46 5 11 13 0 64 72 19 4 9 7 1 13 25 25 38 29 53 43 64 55 63 56 58 66 61 65 62 65 60 63 64 62 58 49 51 56 61 63 58 43 23 35 45 64 61 58 59 56 59 63 57 63 66 62 64 66 59 56 54 46 46 42 46 42 35 39 51 34 29 1 2 4 0 4 11 3 62 81 14 11 16 14 67 45 16 0 0 0 0 0 0 0 0 0 0 0 0 0 0 0 0 0 0 0 0 
0 0 0 0 0 0 0 0 0 0 0 0 0 0 0 0 0 8 0 14 34 46 44 0 5 0 0 59 85 23 15 2 5 6 12 23 48 45 13 59 47 63 50 62 53 62 71 59 64 64 64 64 63 67 66 65 55 59 55 60 46 43 84 43 45 74 74 54 46 57 50 52 51 66 64 62 65 63 61 65 65 57 62 63 55 54 63 52 40 22 28 48 18 1 7 5 2 8 2 62 74 5 6 0 24 61 46 0 0 0 0 0 0 0 0 0 0 0 0 0 0 0 0 0 0 0 0 0 
0 0 0 0 0 0 0 0 0 0 0 0 0 0 0 0 0 7 25 88 13 46 50 0 0 0 0 53 88 24 8 1 8 4 7 18 39 19 51 58 55 64 50 58 57 59 73 57 65 63 62 66 63 72 66 64 70 39 58 55 39 59 52 54 67 42 48 50 51 58 54 59 60 66 69 61 70 66 63 59 69 62 57 74 56 54 57 50 45 22 20 49 13 12 5 6 7 11 4 59 82 0 0 5 24 67 25 13 20 0 0 0 0 0 0 0 0 0 0 0 0 0 0 0 0 0 0 0 
0 0 0 0 0 0 0 0 0 0 0 0 0 0 0 0 0 7 32 87 41 58 46 0 0 0 0 41 88 35 7 13 3 7 1 13 30 32 67 55 60 57 58 55 58 61 64 62 66 66 57 65 65 68 64 65 73 58 71 59 62 58 60 55 51 60 59 62 60 63 58 69 58 61 70 66 66 63 66 63 67 67 57 69 54 52 67 59 59 55 17 55 27 12 1 3 13 21 1 63 86 0 0 7 16 88 21 88 80 0 0 0 0 0 0 0 0 0 0 0 0 0 0 0 0 0 0 0 
0 0 0 0 0 0 0 0 0 0 0 0 0 0 0 0 0 0 0 59 62 88 28 0 0 0 0 44 88 51 0 17 21 9 5 14 40 48 72 56 60 61 56 60 63 62 61 65 66 63 66 61 63 63 68 66 60 66 64 62 63 62 62 60 52 53 60 63 64 63 61 69 68 63 66 67 62 63 65 64 61 66 58 58 64 63 56 53 58 53 42 50 31 6 4 3 7 8 8 88 57 0 0 0 12 65 77 45 47 0 0 0 0 0 0 0 0 0 0 0 0 0 0 0 0 0 0 0 
0 0 0 0 0 0 0 0 0 0 0 0 0 0 0 0 0 0 0 26 55 45 11 0 0 0 0 31 88 79 2 14 21 17 8 9 80 88 49 57 56 56 58 59 62 62 65 63 64 66 66 65 63 66 64 63 65 65 67 63 62 60 59 60 57 59 59 62 61 64 65 64 63 61 64 63 65 65 65 64 65 59 67 61 61 56 58 60 55 51 60 75 30 1 1 11 14 8 33 88 39 0 0 0 0 37 52 49 5 0 0 0 0 0 0 0 0 0 0 0 0 0 0 0 0 0 0 0 
0 0 0 0 0 0 0 0 0 0 0 0 0 0 0 0 0 0 0 0 24 17 0 0 0 0 0 26 88 88 20 6 17 20 14 4 6 39 55 55 57 59 56 55 59 60 61 62 64 63 65 63 63 63 64 63 65 63 66 63 63 60 56 59 60 58 60 62 63 63 63 66 63 63 63 64 65 64 66 65 64 63 63 61 56 58 58 59 57 57 58 37 22 2 11 9 13 24 88 88 26 0 0 0 0 0 0 0 0 0 0 0 0 0 0 0 0 0 0 0 0 0 0 0 0 0 0 0 
0 0 0 0 0 0 0 0 0 0 0 0 0 0 0 0 0 0 0 0 0 0 0 0 0 0 0 20 64 88 67 22 18 39 0 25 13 34 55 54 56 59 60 57 63 58 62 61 62 63 66 65 64 63 63 63 63 63 63 67 64 62 59 60 63 59 60 62 62 66 63 63 63 63 63 65 64 64 64 63 62 63 65 60 57 59 57 56 59 56 54 41 14 14 6 30 43 67 88 68 23 0 0 0 0 0 0 0 0 0 0 0 0 0 0 0 0 0 0 0 0 0 0 0 0 0 0 0 
0 0 0 0 0 0 0 0 0 0 0 0 0 0 0 0 0 0 0 0 0 0 0 0 0 0 0 8 51 88 88 46 41 69 20 16 22 31 55 57 58 60 55 58 55 61 63 62 65 64 64 64 65 65 62 63 65 63 64 64 62 60 59 62 59 59 61 62 60 65 65 65 65 61 65 63 63 66 62 63 62 62 60 59 60 56 58 55 57 55 53 40 13 17 19 52 63 88 88 43 7 0 0 0 0 0 0 0 0 0 0 0 0 0 0 0 0 0 0 0 0 0 0 0 0 0 0 0 
0 0 0 0 0 0 0 0 0 0 0 0 0 0 0 0 0 0 0 0 0 0 0 0 0 0 0 0 38 88 88 74 40 40 0 8 9 20 46 58 54 57 57 55 59 61 63 63 64 62 63 64 62 63 64 64 62 70 44 47 60 58 54 58 58 60 59 60 62 60 49 66 63 65 63 63 61 62 61 63 63 61 62 60 57 59 56 59 59 53 59 30 16 13 53 43 88 88 85 37 0 0 0 0 0 0 0 0 0 0 0 0 0 0 0 0 0 0 0 0 0 0 0 0 0 0 0 0 
0 0 0 0 0 0 0 0 0 0 0 0 0 0 0 0 0 0 0 0 0 0 0 0 0 0 0 0 20 57 88 88 55 43 46 22 5 17 38 53 56 56 58 58 58 61 62 63 62 63 63 63 63 61 62 62 62 59 61 43 49 62 54 60 60 58 57 59 60 52 63 60 63 60 63 63 65 64 61 63 61 62 59 60 60 58 57 59 58 58 44 12 35 38 39 75 88 88 52 18 0 0 0 0 0 0 0 0 0 0 0 0 0 0 0 0 0 0 0 0 0 0 0 0 0 0 0 0 
0 0 0 0 0 0 0 0 0 0 0 0 0 0 0 0 0 0 0 0 0 0 0 0 0 0 0 0 0 46 88 88 88 48 44 17 6 13 20 48 56 58 53 58 58 59 63 62 60 62 64 62 63 63 63 61 62 61 62 54 44 62 59 59 59 57 57 50 60 60 58 60 62 63 65 63 62 61 61 60 60 61 58 54 55 51 59 55 55 52 23 6 21 41 52 88 88 78 40 0 0 0 0 0 0 0 0 0 0 0 0 0 0 0 0 0 0 0 0 0 0 0 0 0 0 0 0 0 
0 0 0 0 0 0 0 0 0 0 0 0 0 0 0 0 0 0 0 0 0 0 0 0 0 0 0 0 0 25 58 88 88 87 47 33 49 31 11 37 55 56 57 55 58 61 62 61 62 61 63 63 63 62 63 61 62 57 58 53 46 61 57 59 57 59 66 60 56 60 60 62 60 61 60 60 63 63 62 61 61 60 60 62 55 54 53 58 51 36 9 18 52 53 88 88 88 62 14 0 0 0 0 0 0 0 0 0 0 0 0 0 0 0 0 0 0 0 0 0 0 0 0 0 0 0 0 0 
0 0 0 0 0 0 0 0 0 0 0 0 0 0 0 0 0 0 0 0 0 0 0 0 0 0 0 0 0 0 44 88 88 88 82 43 29 46 6 22 46 53 56 57 56 59 59 62 60 61 61 62 60 64 60 62 61 61 61 59 47 57 60 59 59 59 60 45 62 58 59 61 62 62 62 63 62 61 59 63 60 59 56 59 58 55 56 50 39 17 28 33 49 88 88 88 84 34 0 0 0 0 0 0 0 0 0 0 0 0 0 0 0 0 0 0 0 0 0 0 0 0 0 0 0 0 0 0 
0 0 0 0 0 0 0 0 0 0 0 0 0 0 0 0 0 0 0 0 0 0 0 0 0 0 0 0 0 0 24 57 88 88 88 62 37 43 40 13 20 42 55 58 57 58 60 63 62 62 61 60 61 61 63 63 60 58 58 58 48 50 57 60 41 48 52 57 58 61 59 60 60 62 61 63 62 63 61 58 61 59 60 58 55 58 50 39 18 28 38 47 88 88 88 88 52 13 0 0 0 0 0 0 0 0 0 0 0 0 0 0 0 0 0 0 0 0 0 0 0 0 0 0 0 0 0 0 
0 0 0 0 0 0 0 0 0 0 0 0 0 0 0 0 0 0 0 0 0 0 0 0 0 0 0 0 0 0 0 48 82 88 88 88 48 38 46 16 11 31 50 54 59 55 57 60 59 60 60 60 61 59 60 59 60 61 59 56 55 56 44 44 20 52 59 58 57 56 60 58 59 60 59 60 60 59 58 60 60 59 58 61 55 57 41 22 14 49 42 55 88 88 88 81 38 0 0 0 0 0 0 0 0 0 0 0 0 0 0 0 0 0 0 0 0 0 0 0 0 0 0 0 0 0 0 0 
0 0 0 0 0 0 0 0 0 0 0 0 0 0 0 0 0 0 0 0 0 0 0 0 0 0 0 0 0 0 0 24 68 88 88 88 88 38 62 42 15 17 31 47 55 56 58 58 62 58 64 62 59 59 56 61 58 59 60 60 60 57 48 40 21 60 56 59 60 60 59 60 58 59 61 60 60 57 60 58 61 58 59 57 55 46 15 16 51 52 49 88 88 88 88 50 12 0 0 0 0 0 0 0 0 0 0 0 0 0 0 0 0 0 0 0 0 0 0 0 0 0 0 0 0 0 0 0 
0 0 0 0 0 0 0 0 0 0 0 0 0 0 0 0 0 0 0 0 0 0 0 0 0 0 0 0 0 0 0 0 52 88 88 88 88 88 55 88 30 32 13 23 51 55 59 56 61 62 61 62 59 60 60 59 58 56 58 54 58 33 45 21 41 57 57 57 60 58 60 57 60 58 60 59 59 59 61 61 60 61 59 57 35 8 18 40 79 71 66 88 88 88 61 34 0 0 0 0 0 0 0 0 0 0 0 0 0 0 0 0 0 0 0 0 0 0 0 0 0 0 0 0 0 0 0 0 
0 0 0 0 0 0 0 0 0 0 0 0 0 0 0 0 0 0 0 0 0 0 0 0 0 0 0 0 0 0 0 0 23 58 88 88 88 88 88 66 75 52 22 8 29 52 52 59 60 60 60 57 59 59 57 59 53 58 58 55 53 25 30 13 46 55 58 55 61 58 58 58 60 60 60 61 61 60 57 60 60 56 56 26 3 24 54 61 66 87 76 88 88 86 51 6 0 0 0 0 0 0 0 0 0 0 0 0 0 0 0 0 0 0 0 0 0 0 0 0 0 0 0 0 0 0 0 0 
0 0 0 0 0 0 0 0 0 0 0 0 0 0 0 0 0 0 0 0 0 0 0 0 0 0 0 0 0 0 0 0 0 45 63 88 88 88 88 86 70 72 39 42 16 26 41 54 55 55 59 57 57 59 59 58 58 55 59 58 42 17 25 18 31 56 56 57 53 58 52 61 60 59 57 57 59 58 58 55 53 49 24 16 52 45 54 50 71 88 88 88 88 59 25 0 0 0 0 0 0 0 0 0 0 0 0 0 0 0 0 0 0 0 0 0 0 0 0 0 0 0 0 0 0 0 0 0 
0 0 0 0 0 0 0 0 0 0 0 0 0 0 0 0 0 0 0 0 0 0 0 0 0 0 0 0 0 0 0 0 0 11 58 84 88 88 88 88 79 57 77 57 38 19 15 15 33 45 48 54 56 59 56 56 53 56 51 39 24 33 43 58 25 37 52 55 56 55 54 56 57 55 44 53 57 56 56 51 27 7 29 53 59 62 43 79 88 88 88 88 65 40 0 0 0 0 0 0 0 0 0 0 0 0 0 0 0 0 0 0 0 0 0 0 0 0 0 0 0 0 0 0 0 0 0 0 
0 0 0 0 0 0 0 0 0 0 0 0 0 0 0 0 0 0 0 0 0 0 0 0 0 0 0 0 0 0 0 0 0 0 27 58 88 88 88 88 88 84 54 88 58 63 34 21 14 13 21 32 41 44 45 50 42 38 28 24 40 60 78 88 43 23 35 42 47 46 51 46 43 35 28 26 26 17 13 6 15 35 37 48 65 58 77 88 88 88 88 67 50 6 0 0 0 0 0 0 0 0 0 0 0 0 0 0 0 0 0 0 0 0 0 0 0 0 0 0 0 0 0 0 0 0 0 0 
0 0 0 0 0 0 0 0 0 0 0 0 0 0 0 0 0 0 0 0 0 0 0 0 0 0 0 0 0 0 0 0 0 0 0 41 59 88 88 88 88 84 61 72 87 50 45 52 51 22 17 11 18 17 17 19 19 15 14 21 44 67 74 86 44 31 24 22 27 26 26 22 18 14 14 9 13 13 23 35 42 44 49 51 77 74 88 88 88 88 88 57 13 0 0 0 0 0 0 0 0 0 0 0 0 0 0 0 0 0 0 0 0 0 0 0 0 0 0 0 0 0 0 0 0 0 0 0 
0 0 0 0 0 0 0 0 0 0 0 0 0 0 0 0 0 0 0 0 0 0 0 0 0 0 0 0 0 0 0 0 0 0 0 0 45 62 88 88 88 88 88 88 88 62 54 43 56 52 27 16 13 16 20 18 21 38 45 26 30 20 30 37 33 39 32 19 19 12 20 19 17 12 23 25 22 28 28 36 41 53 61 88 88 88 88 88 88 75 58 26 0 0 0 0 0 0 0 0 0 0 0 0 0 0 0 0 0 0 0 0 0 0 0 0 0 0 0 0 0 0 0 0 0 0 0 0 
0 0 0 0 0 0 0 0 0 0 0 0 0 0 0 0 0 0 0 0 0 0 0 0 0 0 0 0 0 0 0 0 0 0 0 0 13 48 61 88 88 88 88 88 88 88 56 45 47 43 32 28 45 45 40 32 54 53 60 35 40 44 55 36 35 31 16 16 23 28 36 37 42 31 36 49 54 50 54 50 53 77 88 88 88 88 88 88 75 57 25 0 0 0 0 0 0 0 0 0 0 0 0 0 0 0 0 0 0 0 0 0 0 0 0 0 0 0 0 0 0 0 0 0 0 0 0 0 
0 0 0 0 0 0 0 0 0 0 0 0 0 0 0 0 0 0 0 0 0 0 0 0 0 0 0 0 0 0 0 0 0 0 0 0 0 7 46 61 79 88 88 88 88 88 88 73 71 56 49 52 51 53 53 48 63 53 78 51 54 52 55 57 56 57 50 57 48 47 50 52 55 55 52 54 49 44 64 62 66 74 88 88 88 88 88 69 57 29 0 0 0 0 0 0 0 0 0 0 0 0 0 0 0 0 0 0 0 0 0 0 0 0 0 0 0 0 0 0 0 0 0 0 0 0 0 0 
0 0 0 0 0 0 0 0 0 0 0 0 0 0 0 0 0 0 0 0 0 0 0 0 0 0 0 0 0 0 0 0 0 0 0 0 0 0 0 43 59 72 88 88 88 88 88 88 88 70 63 56 51 54 46 48 53 48 52 53 48 50 57 52 54 57 57 53 52 53 54 56 60 67 55 66 88 88 88 88 88 88 88 88 88 85 57 57 26 0 0 0 0 0 0 0 0 0 0 0 0 0 0 0 0 0 0 0 0 0 0 0 0 0 0 0 0 0 0 0 0 0 0 0 0 0 0 0 
0 0 0 0 0 0 0 0 0 0 0 0 0 0 0 0 0 0 0 0 0 0 0 0 0 0 0 0 0 0 0 0 0 0 0 0 0 0 0 0 31 52 59 74 88 88 88 88 88 88 88 87 77 74 77 71 76 63 57 54 71 59 46 45 84 46 60 69 66 66 79 88 88 88 88 88 88 88 88 88 88 88 88 88 79 58 49 19 0 0 0 0 0 0 0 0 0 0 0 0 0 0 0 0 0 0 0 0 0 0 0 0 0 0 0 0 0 0 0 0 0 0 0 0 0 0 0 0 
0 0 0 0 0 0 0 0 0 0 0 0 0 0 0 0 0 0 0 0 0 0 0 0 0 0 0 0 0 0 0 0 0 0 0 0 0 0 0 0 0 15 44 57 67 83 88 88 88 88 88 88 88 88 88 88 88 88 88 88 49 63 88 88 88 88 88 88 88 88 88 88 88 88 88 88 88 88 88 88 88 88 67 60 54 40 8 0 0 0 0 0 0 0 0 0 0 0 0 0 0 0 0 0 0 0 0 0 0 0 0 0 0 0 0 0 0 0 0 0 0 0 0 0 0 0 0 0 
0 0 0 0 0 0 0 0 0 0 0 0 0 0 0 0 0 0 0 0 0 0 0 0 0 0 0 0 0 0 0 0 0 0 0 0 0 0 0 0 0 0 0 24 47 55 63 72 88 88 88 88 88 88 88 88 88 88 88 88 88 88 88 88 88 88 88 88 88 88 88 88 88 88 88 88 88 88 88 83 67 59 54 43 23 0 0 0 0 0 0 0 0 0 0 0 0 0 0 0 0 0 0 0 0 0 0 0 0 0 0 0 0 0 0 0 0 0 0 0 0 0 0 0 0 0 0 0 
0 0 0 0 0 0 0 0 0 0 0 0 0 0 0 0 0 0 0 0 0 0 0 0 0 0 0 0 0 0 0 0 0 0 0 0 0 0 0 0 0 0 0 0 0 27 44 53 58 65 72 88 88 88 88 88 88 88 88 88 88 88 88 88 88 88 88 88 88 88 88 88 88 88 74 63 64 62 62 59 53 48 24 0 0 0 0 0 0 0 0 0 0 0 0 0 0 0 0 0 0 0 0 0 0 0 0 0 0 0 0 0 0 0 0 0 0 0 0 0 0 0 0 0 0 0 0 0 
0 0 0 0 0 0 0 0 0 0 0 0 0 0 0 0 0 0 0 0 0 0 0 0 0 0 0 0 0 0 0 0 0 0 0 0 0 0 0 0 0 0 0 0 0 0 0 21 41 52 53 51 55 62 64 68 76 81 76 82 77 76 78 71 68 62 63 60 54 54 56 53 53 51 54 55 50 50 42 31 14 0 0 0 0 0 0 0 0 0 0 0 0 0 0 0 0 0 0 0 0 0 0 0 0 0 0 0 0 0 0 0 0 0 0 0 0 0 0 0 0 0 0 0 0 0 0 0 
0 0 0 0 0 0 0 0 0 0 0 0 0 0 0 0 0 0 0 0 0 0 0 0 0 0 0 0 0 0 0 0 0 0 0 0 0 0 0 0 0 0 0 0 0 0 0 0 0 7 23 37 43 44 49 48 47 47 48 50 45 50 50 49 48 47 50 43 46 42 40 39 40 36 33 29 14 6 0 0 0 0 0 0 0 0 0 0 0 0 0 0 0 0 0 0 0 0 0 0 0 0 0 0 0 0 0 0 0 0 0 0 0 0 0 0 0 0 0 0 0 0 0 0 0 0 0 0 
0 0 0 0 0 0 0 0 0 0 0 0 0 0 0 0 0 0 0 0 0 0 0 0 0 0 0 0 0 0 0 0 0 0 0 0 0 0 0 0 0 0 0 0 0 0 0 0 0 0 0 0 0 8 15 20 23 28 25 29 32 30 30 29 25 24 17 13 8 5 7 0 0 0 0 0 0 0 0 0 0 0 0 0 0 0 0 0 0 0 0 0 0 0 0 0 0 0 0 0 0 0 0 0 0 0 0 0 0 0 0 0 0 0 0 0 0 0 0 0 0 0 0 0 0 0 0 0 
0 0 0 0 0 0 0 0 0 0 0 0 0 0 0 0 0 0 0 0 0 0 0 0 0 0 0 0 0 0 0 0 0 0 0 0 0 0 0 0 0 0 0 0 0 0 0 0 0 0 0 0 0 0 0 0 0 0 0 0 0 0 0 0 0 0 0 0 0 0 0 0 0 0 0 0 0 0 0 0 0 0 0 0 0 0 0 0 0 0 0 0 0 0 0 0 0 0 0 0 0 0 0 0 0 0 0 0 0 0 0 0 0 0 0 0 0 0 0 0 0 0 0 0 0 0 0 0 
0 0 0 0 0 0 0 0 0 0 0 0 0 0 0 0 0 0 0 0 0 0 0 0 0 0 0 0 0 0 0 0 0 0 0 0 0 0 0 0 0 0 0 0 0 0 0 0 0 0 0 0 0 0 0 0 0 0 0 0 0 0 0 0 0 0 0 0 0 0 0 0 0 0 0 0 0 0 0 0 0 0 0 0 0 0 0 0 0 0 0 0 0 0 0 0 0 0 0 0 0 0 0 0 0 0 0 0 0 0 0 0 0 0 0 0 0 0 0 0 0 0 0 0 0 0 0 0 
0 0 0 0 0 0 0 0 0 0 0 0 0 0 0 0 0 0 0 0 0 0 0 0 0 0 0 0 0 0 0 0 0 0 0 0 0 0 0 0 0 0 0 0 0 0 0 0 0 0 0 0 0 0 0 0 0 0 0 0 0 0 0 0 0 0 0 0 0 0 0 0 0 0 0 0 0 0 0 0 0 0 0 0 0 0 0 0 0 0 0 0 0 0 0 0 0 0 0 0 0 0 0 0 0 0 0 0 0 0 0 0 0 0 0 0 0 0 0 0 0 0 0 0 0 0 0 0 
0 0 0 0 0 0 0 0 0 0 0 0 0 0 0 0 0 0 0 0 0 0 0 0 0 0 0 0 0 0 0 0 0 0 0 0 0 0 0 0 0 0 0 0 0 0 0 0 0 0 0 0 0 0 0 0 0 0 0 0 0 0 0 0 0 0 0 0 0 0 0 0 0 0 0 0 0 0 0 0 0 0 0 0 0 0 0 0 0 0 0 0 0 0 0 0 0 0 0 0 0 0 0 0 0 0 0 0 0 0 0 0 0 0 0 0 0 0 0 0 0 0 0 0 0 0 0 0 
0 0 0 0 0 0 0 0 0 0 0 0 0 0 0 0 0 0 0 0 0 0 0 0 0 0 0 0 0 0 0 0 0 0 0 0 0 0 0 0 0 0 0 0 0 0 0 0 0 0 0 0 0 0 0 0 0 0 0 0 0 0 0 0 0 0 0 0 0 0 0 0 0 0 0 0 0 0 0 0 0 0 0 0 0 0 0 0 0 0 0 0 0 0 0 0 0 0 0 0 0 0 0 0 0 0 0 0 0 0 0 0 0 0 0 0 0 0 0 0 0 0 0 0 0 0 0 0 
