P2
128 128
88
0 0 0 0 0 0 0 0 0 0 0 0 0 0 0 0 0 0 0 0 0 0 0 0 0 0 0 0 0 0 0 0 0 0 0 0 0 0 0 0 0 0 0 0 0 0 0 0 0 0 0 0 0 0 0 0 0 0 0 0 0 0 0 0 0 0 0 0 0 0 0 0 0 0 0 0 0 0 0 0 0 0 0 0 0 0 0 0 0 0 0 0 0 0 0 0 0 0 0 0 0 0 0 0 0 0 0 0 0 0 0 0 0 0 0 0 0 0 0 0 0 0 0 0 0 0 0 0 
0 0 0 0 0 0 0 0 0 0 0 0 0 0 0 0 0 0 0 0 0 0 0 0 0 0 0 0 0 0 0 0 0 0 0 0 0 0 0 0 0 0 0 0 0 0 0 0 0 0 0 0 0 0 0 0 0 0 0 0 0 0 0 0 0 0 0 0 0 0 0 0 0 0 0 0 0 0 0 0 0 0 0 0 0 0 0 0 0 0 0 0 0 0 0 0 0 0 0 0 0 0 0 0 0 0 0 0 0 0 0 0 0 0 0 0 0 0 0 0 0 0 0 0 0 0 0 0 
0 0 0 0 0 0 0 0 0 0 0 0 0 0 0 0 0 0 0 0 0 0 0 0 0 0 0 0 0 0 0 0 0 0 0 0 0 0 0 0 0 0 0 0 0 0 0 0 0 0 0 0 0 0 0 0 0 0 0 0 0 0 0 0 0 0 0 0 0 0 0 0 0 0 0 0 0 0 0 0 0 0 0 0 0 0 0 0 0 0 0 0 0 0 0 0 0 0 0 0 0 0 0 0 0 0 0 0 0 0 0 0 0 0 0 0 0 0 0 0 0 0 0 0 0 0 0 0 
0 0 0 0 0 0 0 0 0 0 0 0 0 0 0 0 0 0 0 0 0 0 0 0 0 0 0 0 0 0 0 0 0 0 0 0 0 0 0 0 0 0 0 0 0 0 0 0 0 0 0 0 0 0 0 0 0 0 0 0 0 0 0 0 0 0 0 0 0 0 0 0 0 0 0 0 0 0 0 0 0 0 0 0 0 0 0 0 0 0 0 0 0 0 0 0 0 0 0 0 0 0 0 0 0 0 0 0 0 0 0 0 0 0 0 0 0 0 0 0 0 0 0 0 0 0 0 0 
0 0 0 0 0 0 0 0 0 0 0 0 0 0 0 0 0 0 0 0 0 0 0 0 0 0 0 0 0 0 0 0 0 0 0 0 0 0 0 0 0 0 0 0 0 0 0 0 0 0 0 0 0 0 0 0 0 0 0 0 0 0 0 0 0 0 0 0 0 0 0 0 0 0 0 0 0 0 0 0 0 0 0 0 0 0 0 0 0 0 0 0 0 0 0 0 0 0 0 0 0 0 0 0 0 0 0 0 0 0 0 0 0 0 0 0 0 0 0 0 0 0 0 0 0 0 0 0 
0 0 0 0 0 0 0 0 0 0 0 0 0 0 0 0 0 0 0 0 0 0 0 0 0 0 0 0 0 0 0 0 0 0 0 0 0 0 0 0 0 0 0 0 0 0 0 0 0 0 0 0 0 0 0 0 0 0 0 0 0 0 0 0 0 0 0 0 0 0 0 0 0 0 0 0 0 0 0 0 0 0 0 0 0 0 0 0 0 0 0 0 0 0 0 0 0 0 0 0 0 0 0 0 0 0 0 0 0 0 0 0 0 0 0 0 0 0 0 0 0 0 0 0 0 0 0 0 
0 0 0 0 0 0 0 0 0 0 0 0 0 0 0 0 0 0 0 0 0 0 0 0 0 0 0 0 0 0 0 0 0 0 0 0 0 0 0 0 0 0 0 0 0 0 0 0 0 0 0 0 0 0 0 0 0 0 0 0 0 0 0 0 0 0 0 0 0 0 0 0 0 0 0 0 0 0 0 0 0 0 0 0 0 0 0 0 0 0 0 0 0 0 0 0 0 0 0 0 0 0 0 0 0 0 0 0 0 0 0 0 0 0 0 0 0 0 0 0 0 0 0 0 0 0 0 0 
0 0 0 0 0 0 0 0 0 0 0 0 0 0 0 0 0 0 0 0 0 0 0 0 0 0 0 0 0 0 0 0 0 0 0 0 0 0 0 0 0 0 0 0 0 0 0 0 0 0 0 0 0 0 0 0 0 0 0 0 0 0 0 0 0 0 0 0 0 0 0 0 0 0 0 0 0 0 0 0 0 0 0 0 0 0 0 0 0 0 0 0 0 0 0 0 0 0 0 0 0 0 0 0 0 0 0 0 0 0 0 0 0 0 0 0 0 0 0 0 0 0 0 0 0 0 0 0 
0 0 0 0 0 0 0 0 0 0 0 0 0 0 0 0 0 0 0 0 0 0 0 0 0 0 0 0 0 0 0 0 0 0 0 0 0 0 0 0 0 0 0 0 0 0 0 0 0 0 0 0 0 0 0 0 0 0 0 0 0 0 0 0 0 0 0 0 0 0 0 0 0 0 0 0 0 0 0 0 0 0 0 0 0 0 0 0 0 0 0 0 0 0 0 0 0 0 0 0 0 0 0 0 0 0 0 0 0 0 0 0 0 0 0 0 0 0 0 0 0 0 0 0 0 0 0 0 
0 0 0 0 0 0 0 0 0 0 0 0 0 0 0 0 0 0 0 0 0 0 0 0 0 0 0 0 0 0 0 0 0 0 0 0 0 0 0 0 0 0 0 0 0 0 0 0 0 0 0 0 0 0 0 0 0 0 0 0 0 0 0 0 0 0 0 0 0 0 0 0 0 0 0 0 0 0 0 0 0 0 0 0 0 0 0 0 0 0 0 0 0 0 0 0 0 0 0 0 0 0 0 0 0 0 0 0 0 0 0 0 0 0 0 0 0 0 0 0 0 0 0 0 0 0 0 0 
0 0 0 0 0 0 0 0 0 0 0 0 0 0 0 0 0 0 0 0 0 0 0 0 0 0 0 0 0 0 0 0 0 0 0 0 0 0 0 0 0 0 0 0 0 0 0 0 0 0 0 0 0 0 0 0 0 0 0 0 0 0 0 0 0 0 0 0 0 0 0 0 0 0 0 0 0 0 0 0 0 0 0 0 0 0 0 0 0 0 0 0 0 0 0 0 0 0 0 0 0 0 0 0 0 0 0 0 0 0 0 0 0 0 0 0 0 0 0 0 0 0 0 0 0 0 0 0 
0 0 0 0 0 0 0 0 0 0 0 0 0 0 0 0 0 0 0 0 0 0 0 0 0 0 0 0 0 0 0 0 0 0 0 0 0 0 0 0 0 0 0 0 0 0 0 0 0 0 0 0 0 0 0 0 0 0 0 0 0 0 0 0 0 0 0 0 0 0 0 0 0 0 0 0 0 0 0 0 0 0 0 0 0 0 0 0 0 0 0 0 0 0 0 0 0 0 0 0 0 0 0 0 0 0 0 0 0 0 0 0 0 0 0 0 0 0 0 0 0 0 0 0 0 0 0 0 
0 0 0 0 0 0 0 0 0 0 0 0 0 0 0 0 0 0 0 0 0 0 0 0 0 0 0 0 0 0 0 0 0 0 0 0 0 0 0 0 0 0 0 0 0 0 0 0 0 0 0 0 0 0 0 0 0 0 0 0 0 0 0 0 0 0 0 0 0 0 0 0 0 0 0 0 0 0 0 0 0 0 0 0 0 0 0 0 0 0 0 0 0 0 0 0 0 0 0 0 0 0 0 0 0 0 0 0 0 0 0 0 0 0 0 0 0 0 0 0 0 0 0 0 0 0 0 0 
0 0 0 0 0 0 0 0 0 0 0 0 0 0 0 0 0 0 0 0 0 0 0 0 0 0 0 0 0 0 0 0 0 0 0 0 0 0 0 0 0 0 0 0 0 0 0 0 0 0 0 0 0 0 0 0 0 0 0 0 0 0 0 0 0 0 0 0 0 0 0 0 0 0 0 0 0 0 0 0 0 0 0 0 0 0 0 0 0 0 0 0 0 0 0 0 0 0 0 0 0 0 0 0 0 0 0 0 0 0 0 0 0 0 0 0 0 0 0 0 0 0 0 0 0 0 0 0 
0 0 0 0 0 0 0 0 0 0 0 0 0 0 0 0 0 0 0 0 0 0 0 0 0 0 0 0 0 0 0 0 0 0 0 0 0 0 0 0 0 0 0 0 0 0 0 0 0 0 0 0 0 0 0 0 0 0 0 0 0 0 0 0 0 0 0 0 0 0 0 0 0 0 0 0 0 0 0 0 0 0 0 0 0 0 0 0 0 0 0 0 0 0 0 0 0 0 0 0 0 0 0 0 0 0 0 0 0 0 0 0 0 0 0 0 0 0 0 0 0 0 0 0 0 0 0 0 
0 0 0 0 0 0 0 0 0 0 0 0 0 0 0 0 0 0 0 0 0 0 0 0 0 0 0 0 0 0 0 0 0 0 0 0 0 0 0 0 0 0 0 0 0 0 0 0 0 0 0 0 0 0 0 0 0 0 0 0 0 0 0 0 0 0 0 0 0 0 0 0 0 0 0 0 0 0 0 0 0 0 0 0 0 0 0 0 0 0 0 0 0 0 0 0 0 0 0 0 0 0 0 0 0 0 0 0 0 0 0 0 0 0 0 0 0 0 0 0 0 0 0 0 0 0 0 0 
0 0 0 0 0 0 0 0 0 0 0 0 0 0 0 0 0 0 0 0 0 0 0 0 0 0 0 0 0 0 0 0 0 0 0 0 0 0 0 0 0 0 0 0 0 0 0 0 0 0 0 0 0 0 0 0 0 0 0 0 0 0 0 0 0 0 0 0 0 0 0 0 0 0 0 0 0 0 0 0 0 0 0 0 0 0 0 0 0 0 0 0 0 0 0 0 0 0 0 0 0 0 0 0 0 0 0 0 0 0 0 0 0 0 0 0 0 0 0 0 0 0 0 0 0 0 0 0 
0 0 0 0 0 0 0 0 0 0 0 0 0 0 0 0 0 0 0 0 0 0 0 0 0 0 0 0 0 0 0 0 0 0 0 0 0 0 0 0 0 0 0 0 0 0 0 0 0 0 0 0 0 0 0 13 20 35 48 56 68 81 83 80 70 48 40 25 12 0 0 0 0 0 0 0 0 0 0 0 0 0 0 0 0 0 0 0 0 0 0 0 0 0 0 0 0 0 0 0 0 0 0 0 0 0 0 0 0 0 0 0 0 0 0 0 0 0 0 0 0 0 0 0 0 0 0 0 
0 0 0 0 0 0 0 0 0 0 0 0 0 0 0 0 0 0 0 0 0 0 0 0 0 0 0 0 0 0 0 0 0 0 0 0 0 0 0 0 0 0 0 0 0 0 0 0 0 0 0 0 24 54 63 88 88 88 88 88 88 88 88 88 88 88 88 88 88 88 80 45 19 0 0 0 0 0 0 0 0 0 0 0 0 0 0 0 0 0 0 0 0 0 0 0 0 0 0 0 0 0 0 0 0 0 0 0 0 0 0 0 0 0 0 0 0 0 0 0 0 0 0 0 0 0 0 0 
0 0 0 0 0 0 0 0 0 0 0 0 0 0 0 0 0 0 0 0 0 0 0 0 0 0 0 0 0 0 0 0 0 0 0 0 0 0 0 0 0 0 0 0 0 0 0 0 0 7 48 88 88 88 86 88 88 88 65 77 88 88 60 80 88 75 88 88 88 88 88 88 88 88 56 20 0 0 0 0 0 0 0 0 0 0 0 0 0 0 0 0 0 0 0 0 0 0 0 0 0 0 0 0 0 0 0 0 0 0 0 0 0 0 0 0 0 0 0 0 0 0 0 0 0 0 0 0 
0 0 0 0 0 0 0 0 0 0 0 0 0 0 0 0 0 0 0 0 0 0 0 0 0 0 0 0 0 0 0 0 0 0 0 0 0 0 0 0 0 0 0 0 0 0 0 5 57 88 88 88 88 88 88 88 66 71 88 69 63 28 38 33 49 63 50 56 67 74 74 88 88 88 88 88 88 37 8 0 0 0 0 0 0 0 0 0 0 0 0 0 0 0 0 0 0 0 0 0 0 0 0 0 0 0 0 0 0 0 0 0 0 0 0 0 0 0 0 0 0 0 0 0 0 0 0 0 
0 0 0 0 0 0 0 0 0 0 0 0 0 0 0 0 0 0 0 0 0 0 0 0 0 0 0 0 0 0 0 0 0 0 0 0 0 0 0 0 0 0 0 0 0 0 40 88 88 88 88 88 76 70 65 50 54 39 16 15 9 9 6 16 22 25 40 38 45 56 70 70 83 88 88 88 88 88 88 37 0 0 0 0 0 0 0 0 0 0 0 0 0 0 0 0 0 0 0 0 0 0 0 0 0 0 0 0 0 0 0 0 0 0 0 0 0 0 0 0 0 0 0 0 0 0 0 0 
0 0 0 0 0 0 0 0 0 0 0 0 0 0 0 0 0 0 0 0 0 0 0 0 0 0 0 0 0 0 0 0 0 0 0 0 0 0 0 0 0 0 0 0 21 88 88 88 88 88 76 77 63 51 36 26 17 13 3 2 0 1 1 20 20 24 49 22 11 26 45 75 82 59 85 88 88 88 88 88 88 39 0 0 0 0 0 0 0 0 0 0 0 0 0 0 0 0 0 0 0 0 0 0 0 0 0 0 0 0 0 0 0 0 0 0 0 0 0 0 0 0 0 0 0 0 0 0 
0 0 0 0 0 0 0 0 0 0 0 0 0 0 0 0 0 0 0 0 0 0 0 0 0 0 0 0 0 0 0 0 0 0 0 0 0 0 0 0 0 0 0 73 88 88 88 85 78 61 61 48 41 20 13 7 15 16 2 1 4 2 20 8 11 13 47 9 2 6 11 36 50 80 72 76 86 77 82 88 88 88 88 36 0 0 0 0 0 0 0 0 0 0 0 0 0 0 0 0 0 0 0 0 0 0 0 0 0 0 0 0 0 0 0 0 0 0 0 0 0 0 0 0 0 0 0 0 
0 0 0 0 0 0 0 0 0 0 0 0 0 0 0 0 0 0 0 0 0 0 0 0 0 0 0 0 0 0 0 0 0 0 0 0 0 0 0 0 0 19 88 88 72 81 88 82 63 55 31 24 33 13 11 5 0 3 1 1 1 15 9 14 1 14 47 12 4 1 6 20 46 43 69 79 70 75 83 88 82 72 88 88 88 13 0 0 0 0 0 0 0 0 0 0 0 0 0 0 0 0 0 0 0 0 0 0 0 0 0 0 0 0 0 0 0 0 0 0 0 0 0 0 0 0 0 0 
0 0 0 0 0 0 0 0 0 0 0 0 0 0 0 0 0 0 0 0 0 0 0 0 0 0 0 0 0 0 0 0 0 0 0 0 0 0 0 0 38 88 88 71 88 78 62 61 46 24 13 11 19 6 3 0 2 2 0 6 17 6 7 18 13 13 27 27 3 1 4 6 24 25 64 57 77 88 88 74 78 88 88 79 88 88 39 0 0 0 0 0 0 0 0 0 0 0 0 0 0 0 0 0 0 0 0 0 0 0 0 0 0 0 0 0 0 0 0 0 0 0 0 0 0 0 0 0 
0 0 0 0 0 0 0 0 0 0 0 0 0 0 0 0 0 0 0 0 0 0 0 0 0 0 0 0 0 0 0 0 0 0 0 0 0 0 0 63 88 83 88 88 45 60 75 35 40 18 12 7 7 14 2 2 0 4 5 7 3 5 21 28 2 2 17 16 14 1 3 5 22 34 55 75 72 67 46 69 88 88 88 88 88 76 88 61 0 0 0 0 0 0 0 0 0 0 0 0 0 0 0 0 0 0 0 0 0 0 0 0 0 0 0 0 0 0 0 0 0 0 0 0 0 0 0 0 
0 0 0 0 0 0 0 0 0 0 0 0 0 0 0 0 0 0 0 0 0 0 0 0 0 0 0 0 0 0 0 0 0 0 0 0 0 0 73 88 63 88 59 31 58 46 39 76 63 35 46 25 24 16 7 0 4 3 5 2 5 3 19 18 8 4 4 4 5 4 2 6 26 65 86 88 88 88 88 82 51 57 69 85 88 88 64 88 70 0 0 0 0 0 0 0 0 0 0 0 0 0 0 0 0 0 0 0 0 0 0 0 0 0 0 0 0 0 0 0 0 0 0 0 0 0 0 0 
0 0 0 0 0 0 0 0 0 0 0 0 0 0 0 0 0 0 0 0 0 0 0 0 0 0 0 0 0 0 0 0 0 0 0 0 5 52 88 67 88 34 40 71 61 68 88 88 88 88 84 58 58 30 6 4 2 4 7 13 6 5 9 15 6 3 6 8 9 9 18 33 45 68 88 88 88 88 88 88 88 67 37 54 48 79 88 64 88 55 0 0 0 0 0 0 0 0 0 0 0 0 0 0 0 0 0 0 0 0 0 0 0 0 0 0 0 0 0 0 0 0 0 0 0 0 0 0 
0 0 0 0 0 0 0 0 0 0 0 0 0 0 0 0 0 0 0 0 0 0 0 0 0 0 0 0 0 0 0 0 0 0 0 0 30 88 73 88 28 42 80 63 81 88 88 88 88 85 78 88 57 46 11 4 0 1 4 20 6 13 9 49 2 8 11 13 18 14 30 13 39 85 88 88 88 88 88 88 88 88 88 31 50 34 64 88 68 88 22 5 0 0 0 0 0 0 0 0 0 0 0 0 0 0 0 0 0 0 0 0 0 0 0 0 0 0 0 0 0 0 0 0 0 0 0 0 
0 0 0 0 0 0 0 0 0 0 0 0 0 0 0 0 0 0 0 0 0 0 0 0 0 0 0 0 0 0 0 0 0 0 0 8 88 88 88 35 33 77 67 69 88 88 88 88 88 84 86 87 81 50 19 4 2 5 11 28 24 32 25 26 31 30 40 37 28 19 31 14 51 88 88 83 80 88 81 82 83 88 88 84 27 34 27 60 88 80 88 0 0 0 0 0 0 0 0 0 0 0 0 0 0 0 0 0 0 0 0 0 0 0 0 0 0 0 0 0 0 0 0 0 0 0 0 0 
0 0 0 0 0 0 0 0 0 0 0 0 0 0 0 0 0 0 0 0 0 0 0 0 0 0 0 0 0 0 0 0 0 0 0 88 88 85 56 22 87 61 64 88 88 88 88 88 88 83 71 88 86 75 33 20 8 11 19 31 53 46 44 26 38 40 45 48 46 31 12 21 65 88 88 87 67 69 61 64 70 76 74 88 87 24 36 27 74 80 88 85 0 0 0 0 0 0 0 0 0 0 0 0 0 0 0 0 0 0 0 0 0 0 0 0 0 0 0 0 0 0 0 0 0 0 0 0 
0 0 0 0 0 0 0 0 0 0 0 0 0 0 0 0 0 0 0 0 0 0 0 0 0 0 0 0 0 0 0 0 0 6 29 88 88 63 15 72 76 55 88 88 88 88 88 88 79 84 73 79 88 63 54 33 20 16 31 44 53 50 41 47 42 43 48 35 32 11 18 31 88 88 88 74 65 58 55 49 54 56 63 85 88 87 19 41 14 88 59 88 15 0 0 0 0 0 0 0 0 0 0 0 0 0 0 0 0 0 0 0 0 0 0 0 0 0 0 0 0 0 0 0 0 0 0 0 
0 0 0 0 0 0 0 0 0 0 0 0 0 0 0 0 0 0 0 0 0 0 0 0 0 0 0 0 0 0 0 0 0 5 88 88 83 22 43 88 55 84 88 88 88 88 88 78 73 88 75 88 88 88 66 13 9 26 36 47 51 51 47 88 29 34 43 46 40 19 20 57 88 88 88 68 65 56 50 45 48 59 62 78 88 88 60 35 25 39 88 88 88 0 0 0 0 0 0 0 0 0 0 0 0 0 0 0 0 0 0 0 0 0 0 0 0 0 0 0 0 0 0 0 0 0 0 0 
0 0 0 0 0 0 0 0 0 0 0 0 0 0 0 0 0 0 0 0 0 0 0 0 0 0 0 0 0 0 0 0 7 30 88 88 52 3 71 74 62 88 88 88 88 88 88 76 74 77 85 85 88 88 68 28 13 30 41 56 51 48 52 88 33 32 38 52 43 24 26 54 88 88 88 80 64 46 43 43 49 69 71 65 88 88 88 30 42 2 88 68 88 13 0 0 0 0 0 0 0 0 0 0 0 0 0 0 0 0 0 0 0 0 0 0 0 0 0 0 0 0 0 0 0 0 0 0 
0 0 0 0 0 0 0 0 0 0 0 0 0 0 0 0 0 0 0 0 0 0 0 0 0 0 0 0 0 0 0 0 0 88 88 84 59 7 58 66 60 88 88 88 88 88 88 84 85 71 72 88 88 88 86 40 17 40 56 57 53 47 22 55 38 43 42 51 43 26 31 62 88 88 88 88 75 55 51 44 65 82 69 78 88 88 88 38 33 12 80 80 88 59 0 0 0 0 0 0 0 0 0 0 0 0 0 0 0 0 0 0 0 0 0 0 0 0 0 0 0 0 0 0 0 0 0 0 
0 0 0 0 0 0 0 0 0 0 0 0 0 0 0 0 0 0 0 0 0 0 0 0 0 0 0 0 0 0 0 0 14 88 88 70 64 37 23 46 63 88 88 88 88 88 88 88 84 84 77 88 88 88 88 49 31 31 45 54 53 45 30 30 38 53 54 52 52 30 31 59 88 88 88 88 86 73 63 54 70 83 77 82 88 88 88 29 12 27 81 88 88 88 0 0 0 0 0 0 0 0 0 0 0 0 0 0 0 0 0 0 0 0 0 0 0 0 0 0 0 0 0 0 0 0 0 0 
0 0 0 0 0 0 0 0 0 0 0 0 0 0 0 0 0 0 0 0 0 0 0 0 0 0 0 0 0 0 0 0 54 88 88 85 76 84 33 9 55 75 88 88 88 88 88 88 88 88 73 88 88 88 84 47 28 31 45 48 53 43 47 24 52 43 50 48 47 23 43 63 88 88 88 88 88 88 85 67 77 88 88 74 88 88 88 9 28 45 83 88 70 88 23 0 0 0 0 0 0 0 0 0 0 0 0 0 0 0 0 0 0 0 0 0 0 0 0 0 0 0 0 0 0 0 0 0 
0 0 0 0 0 0 0 0 0 0 0 0 0 0 0 0 0 0 0 0 0 0 0 0 0 0 0 0 0 0 0 5 88 88 82 88 45 76 71 19 31 67 88 73 88 88 88 88 88 88 88 85 88 88 87 61 38 42 51 49 48 47 55 31 57 47 48 53 62 34 35 74 88 88 88 88 88 88 88 88 88 88 88 88 88 88 57 14 47 56 60 88 88 88 84 0 0 0 0 0 0 0 0 0 0 0 0 0 0 0 0 0 0 0 0 0 0 0 0 0 0 0 0 0 0 0 0 0 
0 0 0 0 0 0 0 0 0 0 0 0 0 0 0 0 0 0 0 0 0 0 0 0 0 0 0 0 0 0 5 31 88 88 88 79 57 62 88 82 6 54 75 83 88 88 88 88 88 88 88 79 88 88 87 70 38 37 43 45 38 54 53 44 55 49 45 48 46 53 37 78 88 88 88 88 88 88 88 88 88 88 88 88 88 82 27 51 62 64 52 88 88 88 88 0 0 0 0 0 0 0 0 0 0 0 0 0 0 0 0 0 0 0 0 0 0 0 0 0 0 0 0 0 0 0 0 0 
0 0 0 0 0 0 0 0 0 0 0 0 0 0 0 0 0 0 0 0 0 0 0 0 0 0 0 0 0 0 0 78 88 76 88 54 58 69 64 88 34 27 54 71 74 88 88 88 88 88 88 88 88 88 88 77 46 38 44 40 35 52 53 48 53 53 48 54 49 36 50 78 88 88 88 88 88 88 88 88 88 88 88 88 79 36 45 88 73 79 55 88 88 88 88 44 0 0 0 0 0 0 0 0 0 0 0 0 0 0 0 0 0 0 0 0 0 0 0 0 0 0 0 0 0 0 0 0 
0 0 0 0 0 0 0 0 0 0 0 0 0 0 0 0 0 0 0 0 0 0 0 0 0 0 0 0 0 0 12 88 88 57 88 37 68 61 56 81 77 9 18 36 74 76 88 88 88 88 88 88 81 88 88 76 53 45 45 40 34 58 52 49 55 54 42 57 54 49 63 86 88 88 88 88 88 88 88 88 88 88 88 70 36 13 80 88 61 84 74 71 88 73 88 88 0 0 0 0 0 0 0 0 0 0 0 0 0 0 0 0 0 0 0 0 0 0 0 0 0 0 0 0 0 0 0 0 
0 0 0 0 0 0 0 0 0 0 0 0 0 0 0 0 0 0 0 0 0 0 0 0 0 0 0 0 0 0 48 88 88 40 82 42 60 59 52 73 88 51 12 21 53 41 60 88 88 88 88 86 75 86 68 76 56 47 61 45 40 56 54 48 54 55 45 51 57 53 72 88 88 88 88 88 88 88 88 88 88 88 55 18 27 17 88 88 51 69 82 62 68 88 62 88 22 0 0 0 0 0 0 0 0 0 0 0 0 0 0 0 0 0 0 0 0 0 0 0 0 0 0 0 0 0 0 0 
0 0 0 0 0 0 0 0 0 0 0 0 0 0 0 0 0 0 0 0 0 0 0 0 0 0 0 0 0 0 88 88 88 62 62 54 62 50 56 58 88 86 23 31 33 24 44 53 88 82 87 80 69 64 80 70 62 48 44 38 50 59 56 48 50 54 37 57 57 55 58 70 88 88 88 88 88 88 88 88 86 50 24 18 45 42 88 88 57 72 88 65 76 79 88 88 68 0 0 0 0 0 0 0 0 0 0 0 0 0 0 0 0 0 0 0 0 0 0 0 0 0 0 0 0 0 0 0 
0 0 0 0 0 0 0 0 0 0 0 0 0 0 0 0 0 0 0 0 0 0 0 0 0 0 0 0 0 27 88 88 62 62 70 61 61 63 63 57 76 88 62 31 23 23 20 28 57 88 72 78 68 64 60 67 65 53 48 39 53 58 57 48 54 58 49 47 66 45 57 83 88 88 88 88 86 88 88 73 56 38 31 28 55 79 88 72 49 76 67 84 88 68 88 88 88 0 0 0 0 0 0 0 0 0 0 0 0 0 0 0 0 0 0 0 0 0 0 0 0 0 0 0 0 0 0 0 
0 0 0 0 0 0 0 0 0 0 0 0 0 0 0 0 0 0 0 0 0 0 0 0 0 0 0 0 0 82 88 88 44 88 57 65 60 60 57 61 72 78 82 47 23 37 45 37 28 65 81 72 68 66 68 71 63 55 46 42 57 59 54 54 53 60 54 43 46 50 84 77 57 78 88 88 88 88 86 64 50 78 45 44 78 69 84 88 46 76 58 88 88 88 79 88 88 34 0 0 0 0 0 0 0 0 0 0 0 0 0 0 0 0 0 0 0 0 0 0 0 0 0 0 0 0 0 0 
0 0 0 0 0 0 0 0 0 0 0 0 0 0 0 0 0 0 0 0 0 0 0 0 0 0 0 0 6 88 88 68 75 65 88 64 53 80 59 64 63 75 81 74 62 55 47 51 29 43 69 68 65 74 64 58 63 53 43 40 59 60 55 46 50 65 59 56 44 51 57 68 70 88 78 84 88 88 52 54 73 80 49 67 76 82 72 68 52 71 57 88 79 88 80 88 88 75 0 0 0 0 0 0 0 0 0 0 0 0 0 0 0 0 0 0 0 0 0 0 0 0 0 0 0 0 0 0 
0 0 0 0 0 0 0 0 0 0 0 0 0 0 0 0 0 0 0 0 0 0 0 0 0 0 0 5 33 88 88 55 71 73 66 81 43 63 68 64 66 74 82 75 54 47 49 59 54 31 49 71 63 70 59 50 58 51 43 42 53 58 53 38 45 61 58 61 54 47 52 63 72 78 66 88 88 64 37 79 78 79 81 78 72 71 65 57 57 63 53 73 75 88 88 83 88 88 5 0 0 0 0 0 0 0 0 0 0 0 0 0 0 0 0 0 0 0 0 0 0 0 0 0 0 0 0 0 
0 0 0 0 0 0 0 0 0 0 0 0 0 0 0 0 0 0 0 0 0 0 0 0 0 0 0 0 64 88 88 57 88 70 51 64 43 62 55 57 64 66 70 60 33 22 31 52 66 46 35 51 68 64 58 51 39 50 39 46 60 55 55 42 34 44 47 45 57 39 46 60 63 72 67 88 77 39 61 87 67 75 62 81 78 81 61 53 88 88 32 74 50 88 88 77 88 88 37 0 0 0 0 0 0 0 0 0 0 0 0 0 0 0 0 0 0 0 0 0 0 0 0 0 0 0 0 0 
0 0 0 0 0 0 0 0 0 0 0 0 0 0 0 0 0 0 0 0 0 0 0 0 0 0 0 0 88 88 68 67 88 55 70 56 46 73 50 56 54 52 24 14 33 47 44 37 20 27 38 35 62 53 63 44 36 47 40 48 49 51 47 30 27 34 37 33 51 34 41 45 46 63 71 88 67 50 54 17 24 27 18 22 53 67 71 54 88 54 57 78 51 88 88 81 88 88 77 0 0 0 0 0 0 0 0 0 0 0 0 0 0 0 0 0 0 0 0 0 0 0 0 0 0 0 0 0 
0 0 0 0 0 0 0 0 0 0 0 0 0 0 0 0 0 0 0 0 0 0 0 0 0 0 0 27 88 88 61 88 88 58 37 40 72 88 69 53 41 12 46 54 41 31 40 55 54 52 17 40 35 57 46 49 40 46 32 43 39 32 31 21 27 30 33 28 40 21 43 41 48 58 79 54 73 5 30 45 50 52 53 54 25 26 56 77 68 52 45 62 58 71 88 88 88 88 88 11 0 0 0 0 0 0 0 0 0 0 0 0 0 0 0 0 0 0 0 0 0 0 0 0 0 0 0 0 
0 0 0 0 0 0 0 0 0 0 0 0 0 0 0 0 0 0 0 0 0 0 0 0 0 0 0 59 88 88 57 88 66 51 55 74 68 43 63 42 27 45 52 59 55 46 48 56 48 37 38 52 62 45 59 48 34 34 39 31 27 25 24 18 33 34 31 32 24 13 36 31 50 59 58 72 36 45 53 48 56 56 56 59 52 22 29 58 49 56 55 31 60 43 88 88 85 88 88 32 0 0 0 0 0 0 0 0 0 0 0 0 0 0 0 0 0 0 0 0 0 0 0 0 0 0 0 0 
0 0 0 0 0 0 0 0 0 0 0 0 0 0 0 0 0 0 0 0 0 0 0 0 0 0 0 88 88 81 65 88 63 48 54 79 55 48 57 26 38 51 55 57 58 48 52 60 51 39 36 27 63 48 46 45 40 23 22 18 18 14 16 16 18 29 25 28 25 19 28 35 49 52 44 56 34 41 46 46 60 58 63 61 59 47 21 34 50 51 65 60 35 62 61 88 79 88 88 63 0 0 0 0 0 0 0 0 0 0 0 0 0 0 0 0 0 0 0 0 0 0 0 0 0 0 0 0 
0 0 0 0 0 0 0 0 0 0 0 0 0 0 0 0 0 0 0 0 0 0 0 0 0 0 14 88 88 67 81 86 59 54 46 66 60 35 21 29 45 55 56 55 57 49 58 62 62 45 38 40 31 40 47 39 37 39 21 14 8 14 11 8 2 7 8 15 20 17 43 31 53 42 57 39 41 42 51 52 56 58 70 62 63 44 33 16 55 88 56 80 28 55 88 82 80 88 88 88 14 0 0 0 0 0 0 0 0 0 0 0 0 0 0 0 0 0 0 0 0 0 0 0 0 0 0 0 
0 0 0 0 0 0 0 0 0 0 0 0 0 0 0 0 0 0 0 0 0 0 0 0 0 0 31 88 88 72 88 88 60 35 57 75 88 24 32 30 52 55 60 62 60 44 58 55 54 53 60 52 36 32 52 79 38 44 37 9 3 1 2 1 2 2 7 11 11 28 47 25 65 61 37 27 47 52 50 58 50 59 66 62 58 55 44 22 28 72 58 54 41 84 52 88 85 79 88 88 28 0 0 0 0 0 0 0 0 0 0 0 0 0 0 0 0 0 0 0 0 0 0 0 0 0 0 0 
0 0 0 0 0 0 0 0 0 0 0 0 0 0 0 0 0 0 0 0 0 0 0 0 0 0 65 88 80 75 88 88 58 33 58 54 49 26 44 38 47 55 57 59 60 52 54 57 51 52 57 59 50 21 45 88 88 29 46 25 3 1 2 3 1 0 1 12 20 41 34 46 76 51 18 40 46 41 56 58 57 57 68 62 58 54 39 30 5 19 44 55 31 50 48 88 88 63 88 88 57 0 5 0 0 0 0 0 0 0 0 0 0 0 0 0 0 0 0 0 0 0 0 0 0 0 0 0 
0 0 0 0 0 0 0 0 0 0 0 0 0 0 0 0 0 0 0 0 0 0 0 0 0 0 88 88 73 88 88 87 80 41 59 53 13 46 25 31 40 41 55 57 61 57 62 60 50 48 57 58 60 46 16 81 88 55 34 31 9 5 0 4 2 1 3 15 23 36 27 88 73 30 23 43 30 36 42 54 57 58 68 61 59 48 40 43 27 20 33 58 45 27 49 88 83 88 80 88 84 6 0 5 0 0 0 0 0 0 0 0 0 0 0 0 0 0 0 0 0 0 0 0 0 0 0 0 
0 0 0 0 0 0 0 0 0 0 0 0 0 0 0 0 0 0 0 0 0 0 0 0 0 13 88 88 83 88 88 82 69 53 56 45 2 42 38 39 50 53 53 54 63 61 62 61 52 48 56 60 59 50 33 42 88 88 41 24 18 4 1 1 2 2 3 26 15 17 65 74 60 7 40 46 43 44 52 63 55 63 70 63 57 58 56 57 52 51 28 52 53 28 60 88 73 88 80 88 88 15 7 0 0 0 0 0 0 0 0 0 0 0 0 0 0 0 0 0 0 0 0 0 0 0 0 0 
0 0 0 0 0 0 0 0 0 0 0 0 0 0 0 0 0 0 0 0 0 0 0 0 6 28 88 88 88 88 88 79 53 50 60 16 27 49 45 47 52 59 54 53 63 63 64 62 54 59 60 64 61 52 49 18 80 88 77 23 14 11 6 2 4 3 13 15 18 50 88 63 26 31 46 44 46 47 55 61 59 60 68 65 64 64 62 56 49 59 20 40 57 28 60 75 85 88 88 88 88 22 5 0 0 0 0 0 0 0 0 0 0 0 0 0 0 0 0 0 0 0 0 0 0 0 0 0 
0 0 0 0 0 0 0 0 0 0 0 0 0 0 0 0 0 0 0 0 0 0 0 0 7 45 88 88 88 87 88 73 51 50 47 21 54 49 53 53 53 60 54 54 61 68 63 63 58 57 62 60 58 56 44 37 30 82 31 11 29 12 2 0 8 4 14 23 7 15 67 31 31 31 52 54 46 48 59 62 62 63 71 68 65 64 58 52 55 44 28 18 60 45 47 88 88 88 88 88 88 37 5 0 0 0 0 0 0 0 0 0 0 0 0 0 0 0 0 0 0 0 0 0 0 0 0 0 
0 0 0 0 0 0 0 0 0 0 0 0 0 0 0 0 0 0 0 0 0 0 0 0 7 60 88 87 88 75 88 66 48 49 33 52 54 56 51 51 52 60 61 55 63 68 66 63 60 61 57 57 58 49 35 46 32 56 75 7 33 30 11 11 0 3 24 9 4 16 38 22 42 50 53 56 47 53 63 66 63 72 69 63 63 59 57 55 42 49 52 6 55 53 29 70 88 88 88 88 88 55 1 0 0 0 0 0 0 0 0 0 0 0 0 0 0 0 0 0 0 0 0 0 0 0 0 0 
0 0 0 0 0 0 0 0 0 0 0 0 0 0 0 0 0 0 0 0 0 0 0 0 6 72 88 88 88 88 88 59 54 45 31 51 56 55 50 51 53 58 67 68 66 71 67 62 57 63 60 60 59 53 47 34 38 68 88 32 61 48 45 50 46 74 88 9 6 82 44 46 61 51 58 59 49 57 63 67 69 66 66 64 66 56 51 47 46 70 46 18 43 52 44 64 88 69 88 88 88 68 13 0 0 0 0 0 0 0 0 0 0 0 0 0 0 0 0 0 0 0 0 0 0 0 0 0 
0 0 0 0 0 0 0 0 0 0 0 0 0 0 0 0 0 0 0 0 0 0 0 0 5 88 88 88 86 88 88 50 60 36 36 57 56 60 57 51 54 58 65 69 63 68 71 68 64 65 64 59 58 60 55 44 24 64 88 88 88 88 88 65 68 75 88 80 88 88 54 50 60 55 61 65 63 64 67 72 70 70 64 65 60 56 58 57 49 63 53 32 31 75 56 41 88 81 88 88 88 73 6 0 0 0 0 0 0 0 0 0 0 0 0 0 0 0 0 0 0 0 0 0 0 0 0 0 
0 0 0 0 0 0 0 0 0 0 0 0 0 0 0 0 0 0 0 0 0 0 0 0 8 88 88 87 62 88 88 48 58 29 40 57 55 59 59 57 58 61 66 63 62 66 70 66 68 67 65 63 62 61 55 53 31 60 76 72 88 88 88 81 88 88 88 88 88 88 44 59 59 58 63 66 60 63 66 70 68 71 63 63 67 61 60 57 56 59 56 41 22 67 59 45 88 88 88 88 88 78 7 0 0 0 0 0 0 0 0 0 0 0 0 0 0 0 0 0 0 0 0 0 0 0 0 0 
0 0 0 0 0 0 0 0 0 0 0 0 0 0 0 0 0 0 0 0 0 0 0 0 9 88 88 63 88 87 68 46 53 22 42 54 56 57 62 62 62 63 63 63 62 64 69 67 67 66 69 66 65 60 57 54 37 45 59 77 88 88 88 88 88 88 88 88 88 58 59 55 61 61 63 64 63 62 68 69 69 68 64 66 65 65 60 58 58 57 59 48 19 41 57 49 66 88 88 85 88 87 8 0 0 0 0 0 0 0 0 0 0 0 0 0 0 0 0 0 0 0 0 0 0 0 0 0 
0 0 0 0 0 0 0 0 0 0 0 0 0 0 0 0 0 0 0 0 0 0 0 0 20 88 88 86 88 65 40 52 45 28 39 49 50 56 56 60 58 63 61 63 63 68 67 68 64 63 64 65 62 62 60 55 47 48 52 88 88 88 88 88 88 88 88 88 88 47 56 57 57 61 64 65 60 62 63 69 65 69 65 70 67 63 64 62 58 59 61 51 39 28 60 53 38 88 88 87 88 88 11 0 0 0 0 0 0 0 0 0 0 0 0 0 0 0 0 0 0 0 0 0 0 0 0 0 
0 0 0 0 0 0 0 0 0 0 0 0 0 0 0 0 0 0 0 0 0 0 0 0 24 88 86 88 83 69 39 57 48 34 39 49 52 49 51 51 49 55 57 62 67 67 66 65 59 57 60 62 60 57 60 55 45 68 88 88 88 80 88 88 88 88 88 88 88 72 56 56 60 62 64 59 58 59 60 63 69 66 66 67 64 63 60 62 60 58 57 51 48 20 63 52 42 88 88 88 88 88 6 0 0 0 0 0 0 0 0 0 0 0 0 0 0 0 0 0 0 0 0 0 0 0 0 0 
0 0 0 0 0 0 0 0 0 0 0 0 0 0 0 0 0 0 0 0 0 0 0 0 31 88 84 84 88 43 47 62 51 19 40 51 59 50 51 50 55 55 57 64 64 66 70 61 55 51 59 61 54 51 61 58 38 88 88 88 66 80 51 52 58 70 88 88 88 88 55 59 60 58 55 61 58 56 54 63 67 70 68 69 64 57 56 62 63 56 56 53 51 15 44 54 47 51 88 88 69 88 14 0 0 0 0 0 0 0 0 0 0 0 0 0 0 0 0 0 0 0 0 0 0 0 0 0 
0 0 0 0 0 0 0 0 0 0 0 0 0 0 0 0 0 0 0 0 0 0 0 0 37 88 80 81 57 34 47 58 42 21 39 56 58 52 54 52 56 61 67 66 67 66 67 64 59 51 59 60 53 47 63 63 29 88 88 88 88 82 81 86 78 88 88 88 88 88 67 57 59 63 60 56 56 55 56 63 69 64 65 69 64 56 52 59 63 61 58 52 49 11 42 58 48 43 71 88 75 88 9 0 0 0 0 0 0 0 0 0 0 0 0 0 0 0 0 0 0 0 0 0 0 0 0 0 
0 0 0 0 0 0 0 0 0 0 0 0 0 0 0 0 0 0 0 0 0 0 0 0 48 88 17 88 54 51 53 55 36 13 41 53 55 59 53 55 57 63 65 64 62 59 67 63 58 51 57 62 61 59 58 60 36 88 76 58 48 42 39 30 37 37 45 57 88 88 88 54 60 60 63 57 57 56 58 63 69 65 63 63 68 61 59 55 61 59 58 54 49 17 36 53 51 42 62 88 64 88 8 0 0 0 0 0 0 0 0 0 0 0 0 0 0 0 0 0 0 0 0 0 0 0 0 0 
0 0 0 0 0 0 0 0 0 0 0 0 0 0 0 0 0 0 0 0 0 0 0 0 57 88 31 80 81 50 57 55 31 6 41 52 56 58 56 55 58 63 63 57 57 59 65 65 60 56 55 61 62 61 62 36 68 56 46 36 27 33 33 34 33 35 31 27 38 73 88 52 62 64 64 57 55 55 60 63 70 63 58 61 61 65 59 56 51 55 59 52 46 16 27 53 50 46 59 88 66 88 5 0 0 0 0 0 0 0 0 0 0 0 0 0 0 0 0 0 0 0 0 0 0 0 0 0 
0 0 0 0 0 0 0 0 0 0 0 0 0 0 0 0 0 0 0 0 0 0 0 0 55 88 42 63 59 41 51 54 17 6 32 48 55 52 50 52 58 64 59 55 50 61 64 62 63 58 57 57 60 62 56 51 40 32 31 31 37 32 27 13 33 34 29 30 31 27 61 82 53 63 59 56 55 57 59 62 66 64 57 52 60 68 58 55 54 55 51 48 36 11 12 54 51 47 58 76 54 88 20 0 0 0 0 0 0 0 0 0 0 0 0 0 0 0 0 0 0 0 0 0 0 0 0 0 
0 0 0 0 0 0 0 0 0 0 0 0 0 0 0 0 0 0 0 0 0 0 0 0 44 88 59 69 59 43 50 53 8 4 55 44 50 49 50 51 59 63 59 55 51 58 64 65 61 62 58 60 56 55 45 35 34 26 34 40 42 45 23 13 39 51 57 52 33 29 27 35 46 59 59 51 49 58 58 56 66 67 57 54 56 65 61 52 42 52 55 43 43 19 7 35 57 49 50 57 40 88 71 0 0 0 0 0 0 0 0 0 0 0 0 0 0 0 0 0 0 0 0 0 0 0 0 0 
0 0 0 0 0 0 0 0 0 0 0 0 0 0 0 0 0 0 0 0 0 0 0 0 54 88 58 62 55 42 57 34 0 30 55 53 55 57 53 55 59 60 56 53 54 60 63 63 60 60 58 62 57 51 36 30 25 48 58 56 59 63 57 53 56 64 61 70 63 39 38 31 41 50 52 47 55 63 58 57 68 68 60 53 57 63 66 55 52 51 52 51 58 12 14 0 58 47 51 51 88 88 88 13 0 0 0 0 0 0 0 0 0 0 0 0 0 0 0 0 0 0 0 0 0 0 0 0 
0 0 0 0 0 0 0 0 0 0 0 0 0 0 0 0 0 0 0 0 0 0 0 6 88 88 49 68 45 48 61 15 9 50 47 55 57 55 53 54 53 57 55 55 56 58 62 61 60 59 57 51 49 33 39 29 32 51 64 65 63 66 65 66 64 63 66 63 65 56 41 31 42 40 40 34 62 62 58 65 68 62 58 53 58 66 62 64 61 61 51 60 51 31 1 2 20 54 52 49 88 88 88 66 0 0 0 0 0 0 0 0 0 0 0 0 0 0 0 0 0 0 0 0 0 0 0 0 
0 0 0 0 0 0 0 0 0 0 0 0 0 0 0 0 0 0 0 0 0 0 0 42 88 84 65 64 45 46 58 0 7 44 45 56 55 48 47 44 46 53 56 56 51 59 60 62 56 55 44 41 30 37 41 41 56 58 68 63 62 63 63 64 63 64 64 63 61 58 53 27 38 45 27 36 50 61 63 65 69 61 55 59 59 62 59 56 56 52 50 59 39 39 8 8 9 84 49 45 75 51 14 72 26 0 0 0 0 0 0 0 0 0 0 0 0 0 0 0 0 0 0 0 0 0 0 0 
0 0 0 0 0 0 0 0 0 0 0 0 0 0 0 0 0 0 0 0 0 6 16 84 17 38 63 52 49 56 48 1 4 33 36 47 39 38 39 31 38 53 53 44 51 52 50 50 56 43 30 26 26 37 45 33 54 63 64 64 64 64 65 64 63 63 63 64 63 62 60 41 34 43 26 31 38 51 63 59 64 61 53 59 61 63 56 52 48 48 50 43 16 31 13 7 0 64 58 45 79 45 70 50 72 0 0 0 0 0 0 0 0 0 0 0 0 0 0 0 0 0 0 0 0 0 0 0 
0 0 0 0 0 0 0 0 0 0 0 0 0 0 0 0 0 0 0 0 0 0 69 46 60 51 50 55 48 83 25 3 1 29 15 27 25 29 16 20 38 31 23 17 20 33 35 34 31 21 13 15 29 34 44 47 62 61 63 60 62 62 63 64 65 63 61 63 60 63 62 56 40 43 31 28 32 41 39 58 61 58 55 61 64 62 60 51 30 33 44 18 18 14 9 1 1 17 61 55 66 54 1 43 58 5 0 0 0 0 0 0 0 0 0 0 0 0 0 0 0 0 0 0 0 0 0 0 
0 0 0 0 0 0 0 0 0 0 0 0 0 0 0 0 0 0 0 0 0 12 62 42 0 40 59 62 52 59 1 7 8 7 13 13 16 12 8 7 13 13 13 4 12 19 23 21 18 16 15 15 26 35 44 60 62 64 68 63 59 63 64 65 64 60 62 62 61 62 62 62 45 43 28 32 23 17 37 34 54 54 45 50 55 50 54 56 23 13 15 20 14 5 5 1 2 13 73 42 71 54 0 35 34 0 0 0 0 0 0 0 0 0 0 0 0 0 0 0 0 0 0 0 0 0 0 0 
0 0 0 0 0 0 0 0 0 0 0 0 0 0 0 0 0 0 0 0 0 12 36 30 6 31 59 67 54 39 0 6 9 6 11 5 6 4 1 4 8 1 13 3 22 11 18 20 16 20 36 27 33 32 53 62 62 62 65 63 63 63 64 64 63 64 61 63 62 61 64 65 56 35 28 32 27 7 16 28 25 29 24 27 23 8 9 6 11 6 4 9 7 3 5 2 3 0 70 49 80 64 8 0 0 0 0 0 0 0 0 0 0 0 0 0 0 0 0 0 0 0 0 0 0 0 0 0 
0 0 0 0 0 0 0 0 0 0 0 0 0 0 0 0 0 0 0 0 0 0 0 0 0 56 66 82 50 25 5 3 8 6 5 8 4 0 2 5 7 3 7 5 6 27 18 17 18 39 23 35 34 36 63 63 65 63 64 61 64 64 66 63 65 62 61 63 63 62 61 64 63 40 31 30 27 18 20 7 16 19 13 25 13 4 9 5 3 1 0 2 8 5 5 6 1 0 39 62 62 60 36 0 0 0 0 0 0 0 0 0 0 0 0 0 0 0 0 0 0 0 0 0 0 0 0 0 
0 0 0 0 0 0 0 0 0 0 0 0 0 0 0 0 0 0 0 0 0 0 0 0 5 81 68 88 62 7 5 5 7 8 6 6 3 2 8 5 5 9 11 11 14 13 11 13 59 46 50 39 23 46 65 63 63 63 64 63 63 62 63 63 64 63 63 64 64 61 62 64 62 54 27 31 35 37 31 69 21 15 17 6 7 11 9 3 7 2 3 7 7 7 4 6 2 2 16 76 64 53 74 0 0 0 0 0 0 0 0 0 0 0 0 0 0 0 0 0 0 0 0 0 0 0 0 0 
0 0 0 0 0 0 0 0 0 0 0 0 0 0 0 0 0 0 0 0 0 0 0 0 45 84 88 88 35 3 6 7 6 6 7 3 3 9 9 6 12 6 8 4 5 0 30 51 67 41 56 43 27 65 61 63 60 63 63 67 64 63 64 62 63 64 65 63 62 61 62 62 65 63 40 38 43 51 46 49 74 13 15 9 15 1 26 7 8 4 0 4 6 4 6 5 5 0 4 76 59 79 86 50 0 0 0 0 0 0 0 0 0 0 0 0 0 0 0 0 0 0 0 0 0 0 0 0 
0 0 0 0 0 0 0 0 0 0 0 0 0 0 0 0 0 0 0 0 0 0 0 24 88 88 88 88 21 5 5 7 5 7 6 8 5 7 6 9 4 6 5 4 4 37 56 58 57 57 61 32 53 66 63 62 60 62 63 63 64 66 65 64 64 63 64 65 65 63 61 60 63 63 55 50 59 57 57 57 54 50 9 4 8 5 2 9 5 8 2 1 6 6 2 3 5 1 0 61 77 88 88 88 27 0 0 0 0 0 0 0 0 0 0 0 0 0 0 0 0 0 0 0 0 0 0 0 
0 0 0 0 0 0 0 0 0 0 0 0 0 0 0 0 0 0 0 0 0 0 0 82 79 68 88 88 18 7 3 6 7 7 9 9 6 5 5 13 6 7 3 11 41 58 60 56 58 60 59 51 70 61 62 61 62 63 65 62 60 56 54 62 55 54 59 60 61 63 61 63 62 63 64 58 59 60 59 56 58 51 56 17 0 5 7 4 5 3 7 2 2 4 4 2 5 3 0 47 88 88 73 88 88 13 0 0 0 0 0 0 0 0 0 0 0 0 0 0 0 0 0 0 0 0 0 0 
0 0 0 0 0 0 0 0 0 0 0 0 0 0 0 0 0 0 0 0 0 0 86 75 53 76 88 73 22 11 5 6 9 12 9 3 4 7 9 7 13 8 22 51 58 55 58 59 61 61 63 60 59 62 62 62 61 59 61 63 66 62 63 60 62 63 64 63 59 62 62 62 63 63 63 65 58 51 61 62 58 60 56 55 29 1 5 4 4 6 8 2 4 2 3 4 6 4 6 31 88 68 65 51 83 88 0 0 0 0 0 0 0 0 0 0 0 0 0 0 0 0 0 0 0 0 0 0 
0 0 0 0 0 0 0 0 0 0 0 0 0 0 0 0 0 0 0 0 0 28 88 14 22 27 72 88 22 11 7 6 8 4 4 3 7 13 13 8 6 17 38 57 59 59 60 60 61 62 63 64 63 64 63 62 62 58 56 60 63 61 63 59 61 60 63 62 55 58 63 62 63 63 63 64 66 58 59 61 58 60 56 57 61 48 6 2 7 7 4 6 2 2 5 3 6 4 2 27 86 30 20 16 29 88 40 0 0 0 0 0 0 0 0 0 0 0 0 0 0 0 0 0 0 0 0 0 
0 0 0 0 0 0 0 0 0 0 0 0 0 0 0 0 0 0 0 0 6 48 82 0 5 0 31 88 35 8 5 7 5 2 6 6 9 8 6 7 28 53 49 45 46 54 59 58 58 60 64 61 62 63 63 64 64 60 58 62 61 57 61 50 56 59 57 63 55 60 62 62 63 63 64 63 64 63 61 59 60 60 59 59 57 54 51 15 4 7 2 5 1 2 0 6 6 9 2 37 81 20 0 0 27 81 45 0 0 0 0 0 0 0 0 0 0 0 0 0 0 0 0 0 0 0 0 0 
0 0 0 0 0 0 0 0 0 0 0 0 0 0 0 0 0 0 0 0 0 45 61 0 0 0 13 88 48 5 9 11 4 5 1 14 5 17 23 38 53 48 51 45 40 45 49 55 57 66 64 62 64 62 65 62 62 61 55 62 57 43 36 30 31 38 49 63 55 51 63 62 63 59 63 64 63 66 60 59 56 58 58 56 56 55 41 30 11 1 6 3 6 4 5 1 4 3 2 31 85 6 0 0 25 56 36 0 0 0 0 0 0 0 0 0 0 0 0 0 0 0 0 0 0 0 0 0 
0 0 0 0 0 0 0 0 0 0 0 0 0 0 0 0 0 0 5 12 0 33 59 0 0 0 8 88 65 6 11 6 8 2 14 16 44 41 44 53 49 51 46 45 51 54 56 60 61 61 66 67 72 64 61 69 63 54 63 58 35 38 33 27 32 27 28 45 64 56 60 58 66 72 61 60 65 66 71 52 63 56 59 49 48 48 32 34 36 15 15 25 13 3 13 4 0 13 1 41 83 8 0 0 32 57 13 13 3 6 0 0 0 0 0 0 0 0 0 0 0 0 0 0 0 0 0 0 
0 0 0 0 0 0 0 0 0 0 0 0 0 13 6 13 0 0 27 88 0 19 63 9 0 0 5 83 84 8 4 6 11 11 6 14 20 12 45 58 50 62 51 61 58 62 64 60 65 62 68 64 63 69 63 64 62 51 56 58 70 56 79 67 39 61 52 38 45 47 62 62 69 67 61 58 70 63 69 57 71 58 59 54 57 46 47 46 57 44 22 23 61 31 0 8 8 13 2 57 88 9 8 0 47 61 4 9 48 5 0 0 0 0 0 0 0 0 0 0 0 0 0 0 0 0 0 0 
0 0 0 0 0 0 0 0 0 0 0 0 0 0 0 6 9 0 25 83 14 24 59 0 6 8 7 76 88 12 13 1 1 25 23 21 6 15 64 52 56 56 69 52 62 61 59 63 65 61 72 59 57 72 66 56 67 50 57 56 72 51 39 53 60 50 72 66 51 53 63 67 66 62 63 61 71 55 69 60 76 54 67 66 55 47 57 54 54 48 32 25 76 27 12 12 3 5 5 67 88 8 0 9 55 51 5 57 88 14 11 0 0 0 0 0 0 0 0 0 0 0 0 0 0 0 0 0 
0 0 0 0 0 0 0 0 0 0 0 0 0 0 0 5 5 8 15 57 62 49 53 0 12 0 8 67 88 21 5 24 8 25 11 26 22 38 56 63 58 54 70 55 67 58 69 60 59 66 63 75 61 65 72 58 73 59 65 58 70 61 47 53 62 59 64 61 51 61 62 65 63 69 65 62 66 66 69 61 72 56 65 63 63 59 61 54 40 67 37 32 63 22 13 14 8 6 0 75 88 9 0 7 25 83 35 52 46 14 13 0 0 0 0 0 0 0 0 0 0 0 0 0 0 0 0 0 
0 0 0 0 0 0 0 0 0 0 0 0 0 0 0 0 0 8 5 27 63 54 22 0 0 0 7 63 88 32 2 48 35 22 15 12 0 60 48 62 54 58 64 60 63 61 62 68 64 69 55 72 65 65 68 71 68 64 60 60 63 66 47 64 62 47 57 63 51 63 57 68 55 64 64 63 63 68 65 63 61 64 59 63 63 64 56 54 51 62 44 22 68 35 21 0 14 3 0 82 86 11 0 6 13 42 58 42 25 0 6 0 0 0 0 0 0 0 0 0 0 0 0 0 0 0 0 0 
0 0 0 0 0 0 0 0 0 0 0 0 0 0 0 0 0 0 0 0 17 23 0 0 0 0 9 59 88 57 0 31 60 42 17 17 31 61 56 55 63 59 59 64 62 61 59 62 66 64 67 60 63 67 63 68 65 66 61 63 59 65 43 64 62 53 55 56 64 56 67 64 65 63 62 64 63 63 68 65 61 62 59 56 59 56 60 59 59 51 55 62 37 18 7 0 7 4 12 88 60 9 0 0 0 8 28 17 0 0 0 0 0 0 0 0 0 0 0 0 0 0 0 0 0 0 0 0 
0 0 0 0 0 0 0 0 0 0 0 0 0 0 0 0 0 0 0 0 0 0 0 0 0 0 0 53 88 88 0 21 35 48 18 7 28 52 58 55 57 59 60 60 62 63 62 64 64 65 63 65 63 63 66 64 66 65 64 63 61 60 50 62 61 60 55 62 61 59 66 63 63 64 64 63 63 63 65 63 63 63 61 62 61 60 61 57 53 53 56 53 58 35 16 14 7 4 44 88 51 7 0 0 0 0 0 0 0 0 0 0 0 0 0 0 0 0 0 0 0 0 0 0 0 0 0 0 
0 0 0 0 0 0 0 0 0 0 0 0 0 0 0 0 0 0 0 0 0 0 0 0 0 0 0 42 88 88 13 4 14 22 11 8 24 57 55 55 59 60 60 60 62 62 63 63 65 63 64 66 64 65 66 65 66 66 64 62 60 50 58 61 63 62 57 57 61 63 66 63 68 64 65 61 60 64 65 63 62 61 59 62 62 58 59 58 56 57 52 55 31 31 48 25 11 23 88 88 39 0 0 0 0 0 0 0 0 0 0 0 0 0 0 0 0 0 0 0 0 0 0 0 0 0 0 0 
0 0 0 0 0 0 0 0 0 0 0 0 0 0 0 0 0 0 0 0 0 0 0 0 0 0 0 25 77 88 66 18 32 15 7 21 12 54 54 55 59 59 59 62 61 62 61 63 63 65 65 65 64 64 64 65 65 67 61 61 51 53 63 61 61 58 59 56 60 64 64 65 65 64 63 57 56 61 62 61 60 63 63 61 62 60 60 57 57 53 54 57 15 31 35 13 26 65 88 70 27 0 0 0 0 0 0 0 0 0 0 0 0 0 0 0 0 0 0 0 0 0 0 0 0 0 0 0 
0 0 0 0 0 0 0 0 0 0 0 0 0 0 0 0 0 0 0 0 0 0 0 0 0 0 0 7 67 88 88 21 13 12 12 19 15 48 56 56 57 58 58 62 62 61 62 63 63 67 64 63 64 64 62 64 65 64 56 40 41 57 54 60 59 59 55 51 59 49 60 64 65 62 65 63 61 63 63 64 62 61 62 60 60 61 59 58 55 52 57 37 37 13 16 21 58 88 88 51 8 0 0 0 0 0 0 0 0 0 0 0 0 0 0 0 0 0 0 0 0 0 0 0 0 0 0 0 
0 0 0 0 0 0 0 0 0 0 0 0 0 0 0 0 0 0 0 0 0 0 0 0 0 0 0 0 41 88 88 71 9 16 4 28 3 37 54 56 56 59 59 59 61 62 64 62 64 63 64 64 64 66 64 63 63 63 63 55 52 66 60 60 62 53 61 51 49 64 63 63 67 63 63 64 63 62 62 65 63 61 60 62 60 59 60 59 56 55 61 12 43 4 14 47 88 88 76 37 0 0 0 0 0 0 0 0 0 0 0 0 0 0 0 0 0 0 0 0 0 0 0 0 0 0 0 0 
0 0 0 0 0 0 0 0 0 0 0 0 0 0 0 0 0 0 0 0 0 0 0 0 0 0 0 0 22 64 88 88 53 17 20 20 11 19 57 55 57 59 60 61 59 59 62 61 63 62 64 65 64 64 64 65 65 64 63 56 63 58 60 60 59 60 62 59 62 61 61 60 63 63 62 65 62 63 62 59 60 61 60 60 59 59 57 58 57 53 55 8 18 19 31 85 88 88 56 7 0 0 0 0 0 0 0 0 0 0 0 0 0 0 0 0 0 0 0 0 0 0 0 0 0 0 0 0 
0 0 0 0 0 0 0 0 0 0 0 0 0 0 0 0 0 0 0 0 0 0 0 0 0 0 0 0 0 50 86 88 88 39 18 11 24 15 46 55 58 57 60 59 61 60 60 61 63 63 64 62 63 65 63 63 64 62 60 51 58 57 62 60 59 61 59 61 54 63 61 62 62 63 66 62 62 61 61 61 60 59 59 59 59 59 57 58 55 56 30 8 11 46 64 88 88 73 33 0 0 0 0 0 0 0 0 0 0 0 0 0 0 0 0 0 0 0 0 0 0 0 0 0 0 0 0 0 
0 0 0 0 0 0 0 0 0 0 0 0 0 0 0 0 0 0 0 0 0 0 0 0 0 0 0 0 0 23 63 88 88 88 21 13 18 23 23 64 55 56 60 60 58 59 62 61 61 61 63 62 63 65 63 61 62 62 59 57 54 60 57 59 57 59 59 47 60 61 63 60 62 62 62 60 59 63 61 59 59 60 54 59 59 59 57 56 54 52 7 4 26 50 88 88 88 51 7 0 0 0 0 0 0 0 0 0 0 0 0 0 0 0 0 0 0 0 0 0 0 0 0 0 0 0 0 0 
0 0 0 0 0 0 0 0 0 0 0 0 0 0 0 0 0 0 0 0 0 0 0 0 0 0 0 0 0 0 48 88 88 88 54 11 2 24 7 42 55 59 58 57 59 62 58 58 60 59 63 62 62 60 63 64 62 63 63 61 56 55 60 58 57 56 56 58 59 60 61 59 62 60 60 61 61 60 60 56 61 61 58 58 59 56 57 53 60 24 0 16 34 84 88 88 71 35 0 0 0 0 0 0 0 0 0 0 0 0 0 0 0 0 0 0 0 0 0 0 0 0 0 0 0 0 0 0 
0 0 0 0 0 0 0 0 0 0 0 0 0 0 0 0 0 0 0 0 0 0 0 0 0 0 0 0 0 0 23 64 88 88 88 38 26 9 19 15 52 58 60 57 62 56 58 59 58 62 62 61 60 62 60 63 62 58 61 57 56 55 46 59 42 58 59 57 59 59 60 60 59 60 63 60 61 61 60 59 59 58 52 59 56 57 55 57 28 3 8 34 67 88 88 88 51 13 0 0 0 0 0 0 0 0 0 0 0 0 0 0 0 0 0 0 0 0 0 0 0 0 0 0 0 0 0 0 
0 0 0 0 0 0 0 0 0 0 0 0 0 0 0 0 0 0 0 0 0 0 0 0 0 0 0 0 0 0 0 52 88 88 88 88 31 22 17 11 29 54 57 57 59 57 58 53 60 60 61 61 62 61 60 61 60 61 58 60 58 59 55 42 49 58 59 60 59 61 60 60 58 59 60 60 60 58 60 63 58 58 54 56 56 56 57 30 5 7 36 58 88 88 88 70 36 0 0 0 0 0 0 0 0 0 0 0 0 0 0 0 0 0 0 0 0 0 0 0 0 0 0 0 0 0 0 0 
0 0 0 0 0 0 0 0 0 0 0 0 0 0 0 0 0 0 0 0 0 0 0 0 0 0 0 0 0 0 0 25 61 88 88 88 67 42 13 13 5 38 54 58 56 56 56 58 58 59 58 60 61 59 60 60 61 61 59 60 58 56 57 38 44 58 58 58 58 61 59 60 60 58 59 58 60 58 58 60 55 60 56 54 53 55 24 2 15 33 55 88 88 88 87 51 7 0 0 0 0 0 0 0 0 0 0 0 0 0 0 0 0 0 0 0 0 0 0 0 0 0 0 0 0 0 0 0 
0 0 0 0 0 0 0 0 0 0 0 0 0 0 0 0 0 0 0 0 0 0 0 0 0 0 0 0 0 0 0 0 43 74 88 88 71 55 34 18 13 6 30 48 58 56 59 57 55 57 58 60 57 62 58 61 60 60 63 57 58 59 59 40 32 58 58 59 58 60 59 60 59 62 60 60 58 57 56 56 54 56 61 60 41 7 4 50 34 66 45 88 88 88 62 31 0 0 0 0 0 0 0 0 0 0 0 0 0 0 0 0 0 0 0 0 0 0 0 0 0 0 0 0 0 0 0 0 
0 0 0 0 0 0 0 0 0 0 0 0 0 0 0 0 0 0 0 0 0 0 0 0 0 0 0 0 0 0 0 0 16 60 79 88 88 88 47 56 30 12 4 19 42 55 64 52 52 57 59 56 59 55 60 55 59 60 57 59 63 53 56 29 53 58 56 60 58 61 60 58 60 55 58 58 57 58 55 56 53 62 56 27 6 17 41 70 47 88 88 88 88 74 50 0 0 0 0 0 0 0 0 0 0 0 0 0 0 0 0 0 0 0 0 0 0 0 0 0 0 0 0 0 0 0 0 0 
0 0 0 0 0 0 0 0 0 0 0 0 0 0 0 0 0 0 0 0 0 0 0 0 0 0 0 0 0 0 0 0 0 35 80 88 88 88 88 60 52 32 23 8 12 25 40 56 57 57 58 56 59 58 56 60 57 60 59 58 59 35 35 14 52 55 59 57 57 59 59 56 60 57 57 57 55 55 55 58 51 26 13 8 26 47 68 29 79 88 88 88 85 54 12 0 0 0 0 0 0 0 0 0 0 0 0 0 0 0 0 0 0 0 0 0 0 0 0 0 0 0 0 0 0 0 0 0 
0 0 0 0 0 0 0 0 0 0 0 0 0 0 0 0 0 0 0 0 0 0 0 0 0 0 0 0 0 0 0 0 0 5 54 74 88 88 88 88 68 69 49 41 7 5 11 23 50 53 55 56 57 56 58 59 59 57 58 54 48 23 18 18 32 54 55 60 60 56 59 57 57 58 55 53 57 53 51 31 13 13 21 34 84 88 32 43 88 88 88 88 60 37 0 0 0 0 0 0 0 0 0 0 0 0 0 0 0 0 0 0 0 0 0 0 0 0 0 0 0 0 0 0 0 0 0 0 
0 0 0 0 0 0 0 0 0 0 0 0 0 0 0 0 0 0 0 0 0 0 0 0 0 0 0 0 0 0 0 0 0 0 17 56 79 88 88 88 88 49 27 38 54 35 16 8 6 21 41 51 58 56 59 57 57 59 50 40 35 30 45 68 22 31 54 52 58 56 56 54 54 55 54 42 32 21 7 4 9 14 31 44 88 39 45 88 88 88 88 66 44 0 0 0 0 0 0 0 0 0 0 0 0 0 0 0 0 0 0 0 0 0 0 0 0 0 0 0 0 0 0 0 0 0 0 0 
0 0 0 0 0 0 0 0 0 0 0 0 0 0 0 0 0 0 0 0 0 0 0 0 0 0 0 0 0 0 0 0 0 0 0 30 53 78 88 88 88 88 84 54 48 48 45 28 14 6 16 20 31 36 38 40 37 28 25 29 34 57 88 88 38 17 34 37 45 42 44 42 35 33 20 7 5 2 6 8 17 25 53 84 72 71 88 88 88 88 68 51 6 0 0 0 0 0 0 0 0 0 0 0 0 0 0 0 0 0 0 0 0 0 0 0 0 0 0 0 0 0 0 0 0 0 0 0 
0 0 0 0 0 0 0 0 0 0 0 0 0 0 0 0 0 0 0 0 0 0 0 0 0 0 0 0 0 0 0 0 0 0 0 0 32 63 82 88 88 88 88 78 84 76 50 40 22 12 6 2 13 5 8 13 9 8 12 18 32 48 70 78 33 31 36 20 14 12 16 9 9 3 1 13 12 13 17 37 38 49 54 35 49 83 88 88 88 72 48 5 0 0 0 0 0 0 0 0 0 0 0 0 0 0 0 0 0 0 0 0 0 0 0 0 0 0 0 0 0 0 0 0 0 0 0 0 
0 0 0 0 0 0 0 0 0 0 0 0 0 0 0 0 0 0 0 0 0 0 0 0 0 0 0 0 0 0 0 0 0 0 0 0 0 36 55 81 88 88 88 88 88 66 74 61 44 35 21 19 24 15 22 13 20 27 54 28 34 29 30 27 30 22 34 21 16 13 13 18 21 25 29 38 48 46 50 49 55 63 77 79 88 88 88 88 65 50 13 0 0 0 0 0 0 0 0 0 0 0 0 0 0 0 0 0 0 0 0 0 0 0 0 0 0 0 0 0 0 0 0 0 0 0 0 0 
0 0 0 0 0 0 0 0 0 0 0 0 0 0 0 0 0 0 0 0 0 0 0 0 0 0 0 0 0 0 0 0 0 0 0 0 0 0 33 53 63 88 88 88 88 88 88 79 66 57 53 50 49 44 43 44 36 54 42 73 34 31 40 39 36 14 23 32 26 25 31 36 43 53 52 56 52 58 69 88 88 88 88 88 88 88 85 61 51 14 0 0 0 0 0 0 0 0 0 0 0 0 0 0 0 0 0 0 0 0 0 0 0 0 0 0 0 0 0 0 0 0 0 0 0 0 0 0 
0 0 0 0 0 0 0 0 0 0 0 0 0 0 0 0 0 0 0 0 0 0 0 0 0 0 0 0 0 0 0 0 0 0 0 0 0 0 0 23 52 66 72 88 88 88 88 88 88 72 63 63 63 55 52 49 48 52 47 52 63 52 39 37 50 31 36 43 50 60 58 59 67 58 71 72 73 75 88 88 88 88 88 88 88 66 57 44 13 0 0 0 0 0 0 0 0 0 0 0 0 0 0 0 0 0 0 0 0 0 0 0 0 0 0 0 0 0 0 0 0 0 0 0 0 0 0 0 
0 0 0 0 0 0 0 0 0 0 0 0 0 0 0 0 0 0 0 0 0 0 0 0 0 0 0 0 0 0 0 0 0 0 0 0 0 0 0 0 13 44 54 68 72 88 88 88 88 88 88 88 88 74 80 84 73 67 68 61 54 54 46 55 57 83 71 76 77 81 88 88 88 88 88 88 88 88 88 88 88 88 87 59 58 53 38 5 0 0 0 0 0 0 0 0 0 0 0 0 0 0 0 0 0 0 0 0 0 0 0 0 0 0 0 0 0 0 0 0 0 0 0 0 0 0 0 0 
0 0 0 0 0 0 0 0 0 0 0 0 0 0 0 0 0 0 0 0 0 0 0 0 0 0 0 0 0 0 0 0 0 0 0 0 0 0 0 0 0 0 23 48 55 63 66 88 88 88 88 88 88 88 88 88 88 88 88 88 76 77 85 60 59 77 88 88 88 88 88 88 88 88 88 88 88 88 88 88 64 57 63 56 46 19 0 0 0 0 0 0 0 0 0 0 0 0 0 0 0 0 0 0 0 0 0 0 0 0 0 0 0 0 0 0 0 0 0 0 0 0 0 0 0 0 0 0 
0 0 0 0 0 0 0 0 0 0 0 0 0 0 0 0 0 0 0 0 0 0 0 0 0 0 0 0 0 0 0 0 0 0 0 0 0 0 0 0 0 0 0 0 28 42 54 61 74 88 88 88 88 88 88 88 88 88 88 81 88 88 74 67 62 88 88 88 88 88 88 88 88 88 88 88 87 71 63 60 58 48 46 26 0 0 0 0 0 0 0 0 0 0 0 0 0 0 0 0 0 0 0 0 0 0 0 0 0 0 0 0 0 0 0 0 0 0 0 0 0 0 0 0 0 0 0 0 
0 0 0 0 0 0 0 0 0 0 0 0 0 0 0 0 0 0 0 0 0 0 0 0 0 0 0 0 0 0 0 0 0 0 0 0 0 0 0 0 0 0 0 0 0 0 28 46 52 56 71 75 88 88 88 88 88 88 88 88 88 88 88 88 80 74 88 88 88 88 88 85 76 74 71 53 58 51 48 43 35 15 0 0 0 0 0 0 0 0 0 0 0 0 0 0 0 0 0 0 0 0 0 0 0 0 0 0 0 0 0 0 0 0 0 0 0 0 0 0 0 0 0 0 0 0 0 0 
0 0 0 0 0 0 0 0 0 0 0 0 0 0 0 0 0 0 0 0 0 0 0 0 0 0 0 0 0 0 0 0 0 0 0 0 0 0 0 0 0 0 0 0 0 0 0 5 21 40 48 49 59 60 66 72 74 88 88 88 86 88 88 88 82 82 67 68 66 58 53 51 54 48 48 47 43 30 12 0 0 0 0 0 0 0 0 0 0 0 0 0 0 0 0 0 0 0 0 0 0 0 0 0 0 0 0 0 0 0 0 0 0 0 0 0 0 0 0 0 0 0 0 0 0 0 0 0 
0 0 0 0 0 0 0 0 0 0 0 0 0 0 0 0 0 0 0 0 0 0 0 0 0 0 0 0 0 0 0 0 0 0 0 0 0 0 0 0 0 0 0 0 0 0 0 0 0 0 15 26 38 42 43 50 47 54 53 61 54 52 52 49 49 46 46 44 42 41 39 33 28 27 17 7 0 0 0 0 0 0 0 0 0 0 0 0 0 0 0 0 0 0 0 0 0 0 0 0 0 0 0 0 0 0 0 0 0 0 0 0 0 0 0 0 0 0 0 0 0 0 0 0 0 0 0 0 
0 0 0 0 0 0 0 0 0 0 0 0 0 0 0 0 0 0 0 0 0 0 0 0 0 0 0 0 0 0 0 0 0 0 0 0 0 0 0 0 0 0 0 0 0 0 0 0 0 0 0 0 7 11 16 19 25 31 33 33 34 33 34 33 31 29 27 21 18 18 8 7 0 0 0 0 0 0 0 0 0 0 0 0 0 0 0 0 0 0 0 0 0 0 0 0 0 0 0 0 0 0 0 0 0 0 0 0 0 0 0 0 0 0 0 0 0 0 0 0 0 0 0 0 0 0 0 0 
0 0 0 0 0 0 0 0 0 0 0 0 0 0 0 0 0 0 0 0 0 0 0 0 0 0 0 0 0 0 0 0 0 0 0 0 0 0 0 0 0 0 0 0 0 0 0 0 0 0 0 0 0 0 0 0 0 0 0 9 9 7 6 6 0 0 0 0 0 0 0 0 0 0 0 0 0 0 0 0 0 0 0 0 0 0 0 0 0 0 0 0 0 0 0 0 0 0 0 0 0 0 0 0 0 0 0 0 0 0 0 0 0 0 0 0 0 0 0 0 0 0 0 0 0 0 0 0 
0 0 0 0 0 0 0 0 0 0 0 0 0 0 0 0 0 0 0 0 0 0 0 0 0 0 0 0 0 0 0 0 0 0 0 0 0 0 0 0 0 0 0 0 0 0 0 0 0 0 0 0 0 0 0 0 0 0 0 0 0 0 0 0 0 0 0 0 0 0 0 0 0 0 0 0 0 0 0 0 0 0 0 0 0 0 0 0 0 0 0 0 0 0 0 0 0 0 0 0 0 0 0 0 0 0 0 0 0 0 0 0 0 0 0 0 0 0 0 0 0 0 0 0 0 0 0 0 
0 0 0 0 0 0 0 0 0 0 0 0 0 0 0 0 0 0 0 0 0 0 0 0 0 0 0 0 0 0 0 0 0 0 0 0 0 0 0 0 0 0 0 0 0 0 0 0 0 0 0 0 0 0 0 0 0 0 0 0 0 0 0 0 0 0 0 0 0 0 0 0 0 0 0 0 0 0 0 0 0 0 0 0 0 0 0 0 0 0 0 0 0 0 0 0 0 0 0 0 0 0 0 0 0 0 0 0 0 0 0 0 0 0 0 0 0 0 0 0 0 0 0 0 0 0 0 0 
0 0 0 0 0 0 0 0 0 0 0 0 0 0 0 0 0 0 0 0 0 0 0 0 0 0 0 0 0 0 0 0 0 0 0 0 0 0 0 0 0 0 0 0 0 0 0 0 0 0 0 0 0 0 0 0 0 0 0 0 0 0 0 0 0 0 0 0 0 0 0 0 0 0 0 0 0 0 0 0 0 0 0 0 0 0 0 0 0 0 0 0 0 0 0 0 0 0 0 0 0 0 0 0 0 0 0 0 0 0 0 0 0 0 0 0 0 0 0 0 0 0 0 0 0 0 0 0 
