P2
128 128
88
0 0 0 0 0 0 0 0 0 0 0 0 0 0 0 0 0 0 0 0 0 0 0 0 0 0 0 0 0 0 0 0 0 0 0 0 0 0 0 0 0 0 0 0 0 0 0 0 0 0 0 0 0 0 0 0 0 0 0 0 0 0 0 0 0 0 0 0 0 0 0 0 0 0 0 0 0 0 0 0 0 0 0 0 0 0 0 0 0 0 0 0 0 0 0 0 0 0 0 0 0 0 0 0 0 0 0 0 0 0 0 0 0 0 0 0 0 0 0 0 0 0 0 0 0 0 0 0 
0 0 0 0 0 0 0 0 0 0 0 0 0 0 0 0 0 0 0 0 0 0 0 0 0 0 0 0 0 0 0 0 0 0 0 0 0 0 0 0 0 0 0 0 0 0 0 0 0 0 0 0 0 0 0 0 0 0 0 0 0 0 0 0 0 0 0 0 0 0 0 0 0 0 0 0 0 0 0 0 0 0 0 0 0 0 0 0 0 0 0 0 0 0 0 0 0 0 0 0 0 0 0 0 0 0 0 0 0 0 0 0 0 0 0 0 0 0 0 0 0 0 0 0 0 0 0 0 
0 0 0 0 0 0 0 0 0 0 0 0 0 0 0 0 0 0 0 0 0 0 0 0 0 0 0 0 0 0 0 0 0 0 0 0 0 0 0 0 0 0 0 0 0 0 0 0 0 0 0 0 0 0 0 0 0 0 0 0 0 0 0 0 0 0 0 0 0 0 0 0 0 0 0 0 0 0 0 0 0 0 0 0 0 0 0 0 0 0 0 0 0 0 0 0 0 0 0 0 0 0 0 0 0 0 0 0 0 0 0 0 0 0 0 0 0 0 0 0 0 0 0 0 0 0 0 0 
0 0 0 0 0 0 0 0 0 0 0 0 0 0 0 0 0 0 0 0 0 0 0 0 0 0 0 0 0 0 0 0 0 0 0 0 0 0 0 0 0 0 0 0 0 0 0 0 0 0 0 0 0 0 0 0 0 0 0 0 0 0 0 0 0 0 0 0 0 0 0 0 0 0 0 0 0 0 0 0 0 0 0 0 0 0 0 0 0 0 0 0 0 0 0 0 0 0 0 0 0 0 0 0 0 0 0 0 0 0 0 0 0 0 0 0 0 0 0 0 0 0 0 0 0 0 0 0 
0 0 0 0 0 0 0 0 0 0 0 0 0 0 0 0 0 0 0 0 0 0 0 0 0 0 0 0 0 0 0 0 0 0 0 0 0 0 0 0 0 0 0 0 0 0 0 0 0 0 0 0 0 0 0 0 0 0 0 0 0 0 0 0 0 0 0 0 0 0 0 0 0 0 0 0 0 0 0 0 0 0 0 0 0 0 0 0 0 0 0 0 0 0 0 0 0 0 0 0 0 0 0 0 0 0 0 0 0 0 0 0 0 0 0 0 0 0 0 0 0 0 0 0 0 0 0 0 
0 0 0 0 0 0 0 0 0 0 0 0 0 0 0 0 0 0 0 0 0 0 0 0 0 0 0 0 0 0 0 0 0 0 0 0 0 0 0 0 0 0 0 0 0 0 0 0 0 0 0 0 0 0 0 0 0 0 0 0 0 0 0 0 0 0 0 0 0 0 0 0 0 0 0 0 0 0 0 0 0 0 0 0 0 0 0 0 0 0 0 0 0 0 0 0 0 0 0 0 0 0 0 0 0 0 0 0 0 0 0 0 0 0 0 0 0 0 0 0 0 0 0 0 0 0 0 0 
0 0 0 0 0 0 0 0 0 0 0 0 0 0 0 0 0 0 0 0 0 0 0 0 0 0 0 0 0 0 0 0 0 0 0 0 0 0 0 0 0 0 0 0 0 0 0 0 0 0 0 0 0 0 0 0 0 0 0 0 0 0 0 0 0 0 0 0 0 0 0 0 0 0 0 0 0 0 0 0 0 0 0 0 0 0 0 0 0 0 0 0 0 0 0 0 0 0 0 0 0 0 0 0 0 0 0 0 0 0 0 0 0 0 0 0 0 0 0 0 0 0 0 0 0 0 0 0 
0 0 0 0 0 0 0 0 0 0 0 0 0 0 0 0 0 0 0 0 0 0 0 0 0 0 0 0 0 0 0 0 0 0 0 0 0 0 0 0 0 0 0 0 0 0 0 0 0 0 0 0 0 0 0 0 0 0 0 0 0 0 0 0 0 0 0 0 0 0 0 0 0 0 0 0 0 0 0 0 0 0 0 0 0 0 0 0 0 0 0 0 0 0 0 0 0 0 0 0 0 0 0 0 0 0 0 0 0 0 0 0 0 0 0 0 0 0 0 0 0 0 0 0 0 0 0 0 
0 0 0 0 0 0 0 0 0 0 0 0 0 0 0 0 0 0 0 0 0 0 0 0 0 0 0 0 0 0 0 0 0 0 0 0 0 0 0 0 0 0 0 0 0 0 0 0 0 0 0 0 0 0 0 0 0 0 0 0 0 0 0 0 0 0 0 0 0 0 0 0 0 0 0 0 0 0 0 0 0 0 0 0 0 0 0 0 0 0 0 0 0 0 0 0 0 0 0 0 0 0 0 0 0 0 0 0 0 0 0 0 0 0 0 0 0 0 0 0 0 0 0 0 0 0 0 0 
0 0 0 0 0 0 0 0 0 0 0 0 0 0 0 0 0 0 0 0 0 0 0 0 0 0 0 0 0 0 0 0 0 0 0 0 0 0 0 0 0 0 0 0 0 0 0 0 0 0 0 0 0 0 0 0 0 0 0 0 0 0 0 0 0 0 0 0 0 0 0 0 0 0 0 0 0 0 0 0 0 0 0 0 0 0 0 0 0 0 0 0 0 0 0 0 0 0 0 0 0 0 0 0 0 0 0 0 0 0 0 0 0 0 0 0 0 0 0 0 0 0 0 0 0 0 0 0 
0 0 0 0 0 0 0 0 0 0 0 0 0 0 0 0 0 0 0 0 0 0 0 0 0 0 0 0 0 0 0 0 0 0 0 0 0 0 0 0 0 0 0 0 0 0 0 0 0 0 0 0 0 0 0 0 0 0 0 0 0 0 0 0 0 0 0 0 0 0 0 0 0 0 0 0 0 0 0 0 0 0 0 0 0 0 0 0 0 0 0 0 0 0 0 0 0 0 0 0 0 0 0 0 0 0 0 0 0 0 0 0 0 0 0 0 0 0 0 0 0 0 0 0 0 0 0 0 
0 0 0 0 0 0 0 0 0 0 0 0 0 0 0 0 0 0 0 0 0 0 0 0 0 0 0 0 0 0 0 0 0 0 0 0 0 0 0 0 0 0 0 0 0 0 0 0 0 0 0 0 0 0 0 0 0 0 0 0 0 0 0 0 0 0 0 0 0 0 0 0 0 0 0 0 0 0 0 0 0 0 0 0 0 0 0 0 0 0 0 0 0 0 0 0 0 0 0 0 0 0 0 0 0 0 0 0 0 0 0 0 0 0 0 0 0 0 0 0 0 0 0 0 0 0 0 0 
0 0 0 0 0 0 0 0 0 0 0 0 0 0 0 0 0 0 0 0 0 0 0 0 0 0 0 0 0 0 0 0 0 0 0 0 0 0 0 0 0 0 0 0 0 0 0 0 0 0 0 0 0 0 0 0 0 0 0 0 0 0 0 0 0 0 0 0 0 0 0 0 0 0 0 0 0 0 0 0 0 0 0 0 0 0 0 0 0 0 0 0 0 0 0 0 0 0 0 0 0 0 0 0 0 0 0 0 0 0 0 0 0 0 0 0 0 0 0 0 0 0 0 0 0 0 0 0 
0 0 0 0 0 0 0 0 0 0 0 0 0 0 0 0 0 0 0 0 0 0 0 0 0 0 0 0 0 0 0 0 0 0 0 0 0 0 0 0 0 0 0 0 0 0 0 0 0 0 0 0 0 0 0 0 0 0 0 0 0 0 0 0 0 0 0 0 0 0 0 0 0 0 0 0 0 0 0 0 0 0 0 0 0 0 0 0 0 0 0 0 0 0 0 0 0 0 0 0 0 0 0 0 0 0 0 0 0 0 0 0 0 0 0 0 0 0 0 0 0 0 0 0 0 0 0 0 
0 0 0 0 0 0 0 0 0 0 0 0 0 0 0 0 0 0 0 0 0 0 0 0 0 0 0 0 0 0 0 0 0 0 0 0 0 0 0 0 0 0 0 0 0 0 0 0 0 0 0 0 0 0 0 0 0 0 0 0 0 0 0 0 0 0 0 0 0 0 0 0 0 0 0 0 0 0 0 0 0 0 0 0 0 0 0 0 0 0 0 0 0 0 0 0 0 0 0 0 0 0 0 0 0 0 0 0 0 0 0 0 0 0 0 0 0 0 0 0 0 0 0 0 0 0 0 0 
0 0 0 0 0 0 0 0 0 0 0 0 0 0 0 0 0 0 0 0 0 0 0 0 0 0 0 0 0 0 0 0 0 0 0 0 0 0 0 0 0 0 0 0 0 0 0 0 0 0 0 0 0 0 0 0 0 0 0 0 0 0 0 0 0 0 0 0 0 0 0 0 0 0 0 0 0 0 0 0 0 0 0 0 0 0 0 0 0 0 0 0 0 0 0 0 0 0 0 0 0 0 0 0 0 0 0 0 0 0 0 0 0 0 0 0 0 0 0 0 0 0 0 0 0 0 0 0 
0 0 0 0 0 0 0 0 0 0 0 0 0 0 0 0 0 0 0 0 0 0 0 0 0 0 0 0 0 0 0 0 0 0 0 0 0 0 0 0 0 0 0 0 0 0 0 0 0 0 0 0 0 0 0 0 0 0 8 6 8 8 13 13 9 7 7 0 0 0 0 0 0 0 0 0 0 0 0 0 0 0 0 0 0 0 0 0 0 0 0 0 0 0 0 0 0 0 0 0 0 0 0 0 0 0 0 0 0 0 0 0 0 0 0 0 0 0 0 0 0 0 0 0 0 0 0 0 
0 0 0 0 0 0 0 0 0 0 0 0 0 0 0 0 0 0 0 0 0 0 0 0 0 0 0 0 0 0 0 0 0 0 0 0 0 0 0 0 0 0 0 0 0 0 0 0 0 0 0 0 0 20 60 88 88 88 88 88 88 88 88 88 88 88 88 88 88 76 51 18 0 0 0 0 0 0 0 0 0 0 0 0 0 0 0 0 0 0 0 0 0 0 0 0 0 0 0 0 0 0 0 0 0 0 0 0 0 0 0 0 0 0 0 0 0 0 0 0 0 0 0 0 0 0 0 0 
0 0 0 0 0 0 0 0 0 0 0 0 0 0 0 0 0 0 0 0 0 0 0 0 0 0 0 0 0 0 0 0 0 0 0 0 0 0 0 0 0 0 0 0 0 0 0 0 0 0 12 64 88 88 88 88 66 88 88 88 88 88 74 83 88 88 88 88 88 88 88 88 88 81 31 0 0 0 0 0 0 0 0 0 0 0 0 0 0 0 0 0 0 0 0 0 0 0 0 0 0 0 0 0 0 0 0 0 0 0 0 0 0 0 0 0 0 0 0 0 0 0 0 0 0 0 0 0 
0 0 0 0 0 0 0 0 0 0 0 0 0 0 0 0 0 0 0 0 0 0 0 0 0 0 0 0 0 0 0 0 0 0 0 0 0 0 0 0 0 0 0 0 0 0 0 0 22 88 88 88 88 88 67 56 88 88 53 46 41 48 46 44 46 53 56 88 49 60 62 72 88 88 88 88 76 18 0 0 0 0 0 0 0 0 0 0 0 0 0 0 0 0 0 0 0 0 0 0 0 0 0 0 0 0 0 0 0 0 0 0 0 0 0 0 0 0 0 0 0 0 0 0 0 0 0 0 
0 0 0 0 0 0 0 0 0 0 0 0 0 0 0 0 0 0 0 0 0 0 0 0 0 0 0 0 0 0 0 0 0 0 0 0 0 0 0 0 0 0 0 0 0 0 11 88 88 88 84 62 68 54 42 37 23 9 8 5 6 3 4 3 34 33 30 29 42 49 51 66 88 88 88 88 88 88 88 18 0 0 0 0 0 0 0 0 0 0 0 0 0 0 0 0 0 0 0 0 0 0 0 0 0 0 0 0 0 0 0 0 0 0 0 0 0 0 0 0 0 0 0 0 0 0 0 0 
0 0 0 0 0 0 0 0 0 0 0 0 0 0 0 0 0 0 0 0 0 0 0 0 0 0 0 0 0 0 0 0 0 0 0 0 0 0 0 0 0 0 0 0 0 44 88 88 55 53 70 47 34 27 11 8 8 14 8 3 0 0 1 9 28 38 42 49 42 32 40 39 40 51 72 88 88 88 88 88 88 13 0 0 0 0 0 0 0 0 0 0 0 0 0 0 0 0 0 0 0 0 0 0 0 0 0 0 0 0 0 0 0 0 0 0 0 0 0 0 0 0 0 0 0 0 0 0 
0 0 0 0 0 0 0 0 0 0 0 0 0 0 0 0 0 0 0 0 0 0 0 0 0 0 0 0 0 0 0 0 0 0 0 0 0 0 0 0 0 0 0 7 88 88 74 62 87 55 36 24 20 17 5 0 2 17 2 0 1 1 2 13 6 0 9 70 81 64 50 44 46 45 43 48 70 80 88 88 88 88 67 0 0 0 0 0 0 0 0 0 0 0 0 0 0 0 0 0 0 0 0 0 0 0 0 0 0 0 0 0 0 0 0 0 0 0 0 0 0 0 0 0 0 0 0 0 
0 0 0 0 0 0 0 0 0 0 0 0 0 0 0 0 0 0 0 0 0 0 0 0 0 0 0 0 0 0 0 0 0 0 0 0 0 0 0 0 0 0 34 88 88 52 88 57 30 19 22 41 48 12 0 1 4 21 4 1 0 1 6 5 1 2 13 52 55 51 51 68 66 55 54 49 42 56 58 82 76 88 88 88 20 0 0 0 0 0 0 0 0 0 0 0 0 0 0 0 0 0 0 0 0 0 0 0 0 0 0 0 0 0 0 0 0 0 0 0 0 0 0 0 0 0 0 0 
0 0 0 0 0 0 0 0 0 0 0 0 0 0 0 0 0 0 0 0 0 0 0 0 0 0 0 0 0 0 0 0 0 0 0 0 0 0 0 0 0 66 88 67 66 76 24 23 22 47 38 18 31 13 1 1 2 11 6 4 5 6 8 1 0 13 24 36 24 17 36 40 50 62 77 81 49 38 48 45 72 88 73 88 88 41 5 0 0 0 0 0 0 0 0 0 0 0 0 0 0 0 0 0 0 0 0 0 0 0 0 0 0 0 0 0 0 0 0 0 0 0 0 0 0 0 0 0 
0 0 0 0 0 0 0 0 0 0 0 0 0 0 0 0 0 0 0 0 0 0 0 0 0 0 0 0 0 0 0 0 0 0 0 0 0 0 0 0 84 88 49 88 52 33 30 35 67 36 1 5 6 3 3 6 6 9 8 7 12 8 7 5 26 17 5 15 13 13 11 16 22 47 85 88 88 58 53 46 33 44 85 88 88 88 67 6 0 0 0 0 0 0 0 0 0 0 0 0 0 0 0 0 0 0 0 0 0 0 0 0 0 0 0 0 0 0 0 0 0 0 0 0 0 0 0 0 
0 0 0 0 0 0 0 0 0 0 0 0 0 0 0 0 0 0 0 0 0 0 0 0 0 0 0 0 0 0 0 0 0 0 0 0 0 0 0 79 88 58 88 24 23 33 51 71 49 0 1 0 0 8 7 20 26 36 35 31 7 18 16 14 17 19 29 11 24 23 9 13 24 64 88 78 81 88 78 88 83 37 31 54 88 77 88 86 6 0 0 0 0 0 0 0 0 0 0 0 0 0 0 0 0 0 0 0 0 0 0 0 0 0 0 0 0 0 0 0 0 0 0 0 0 0 0 0 
0 0 0 0 0 0 0 0 0 0 0 0 0 0 0 0 0 0 0 0 0 0 0 0 0 0 0 0 0 0 0 0 0 0 0 0 0 0 79 88 61 87 19 29 65 88 86 84 30 0 1 5 7 13 24 30 45 47 52 46 60 33 13 9 19 34 40 43 48 47 31 13 16 59 80 77 65 76 88 88 88 88 66 27 36 88 70 88 80 13 0 0 0 0 0 0 0 0 0 0 0 0 0 0 0 0 0 0 0 0 0 0 0 0 0 0 0 0 0 0 0 0 0 0 0 0 0 0 
0 0 0 0 0 0 0 0 0 0 0 0 0 0 0 0 0 0 0 0 0 0 0 0 0 0 0 0 0 0 0 0 0 0 0 0 0 63 88 88 72 18 35 85 88 80 88 67 31 2 1 1 5 12 24 37 49 53 57 54 57 49 33 33 24 36 51 48 58 55 45 12 26 45 69 64 69 84 69 62 65 88 88 78 31 30 88 88 88 58 7 0 0 0 0 0 0 0 0 0 0 0 0 0 0 0 0 0 0 0 0 0 0 0 0 0 0 0 0 0 0 0 0 0 0 0 0 0 
0 0 0 0 0 0 0 0 0 0 0 0 0 0 0 0 0 0 0 0 0 0 0 0 0 0 0 0 0 0 0 0 0 0 0 0 30 88 88 60 21 37 88 88 72 77 67 77 22 2 2 3 4 14 23 38 42 52 57 59 57 56 49 60 50 48 46 54 61 58 47 6 6 6 57 67 73 87 88 88 88 63 88 88 88 25 39 88 88 88 30 6 0 0 0 0 0 0 0 0 0 0 0 0 0 0 0 0 0 0 0 0 0 0 0 0 0 0 0 0 0 0 0 0 0 0 0 0 
0 0 0 0 0 0 0 0 0 0 0 0 0 0 0 0 0 0 0 0 0 0 0 0 0 0 0 0 0 0 0 0 0 0 0 5 88 88 60 29 28 88 88 88 85 80 68 56 18 7 7 2 2 13 25 30 42 55 61 63 60 56 53 52 61 61 61 59 62 57 43 2 2 13 61 79 75 88 88 88 88 88 80 88 88 88 16 50 80 88 88 12 0 0 0 0 0 0 0 0 0 0 0 0 0 0 0 0 0 0 0 0 0 0 0 0 0 0 0 0 0 0 0 0 0 0 0 0 
0 0 0 0 0 0 0 0 0 0 0 0 0 0 0 0 0 0 0 0 0 0 0 0 0 0 0 0 0 0 0 0 0 0 0 83 88 82 29 22 88 88 88 81 76 72 68 58 44 38 14 7 3 6 21 43 56 62 63 59 60 59 54 43 60 59 61 63 64 56 34 5 3 19 58 72 85 88 88 88 88 88 88 79 88 88 88 5 56 88 88 73 8 0 0 0 0 0 0 0 0 0 0 0 0 0 0 0 0 0 0 0 0 0 0 0 0 0 0 0 0 0 0 0 0 0 0 0 
0 0 0 0 0 0 0 0 0 0 0 0 0 0 0 0 0 0 0 0 0 0 0 0 0 0 0 0 0 0 0 0 0 0 27 88 88 32 14 88 88 88 83 74 79 69 60 62 63 47 28 9 4 16 37 50 52 57 61 63 62 57 56 29 58 57 64 66 57 52 13 24 8 21 59 72 85 86 88 88 88 88 88 88 88 88 88 73 3 63 88 88 20 8 0 0 0 0 0 0 0 0 0 0 0 0 0 0 0 0 0 0 0 0 0 0 0 0 0 0 0 0 0 0 0 0 0 0 
0 0 0 0 0 0 0 0 0 0 0 0 0 0 0 0 0 0 0 0 0 0 0 0 0 0 0 0 0 0 0 0 0 0 88 88 56 15 46 88 87 74 74 70 72 70 63 59 59 56 42 34 19 26 41 45 51 58 63 66 64 56 58 19 57 57 62 64 59 55 38 22 24 30 56 84 84 88 88 88 88 88 88 88 88 84 81 88 16 31 88 88 88 7 0 0 0 0 0 0 0 0 0 0 0 0 0 0 0 0 0 0 0 0 0 0 0 0 0 0 0 0 0 0 0 0 0 0 
0 0 0 0 0 0 0 0 0 0 0 0 0 0 0 0 0 0 0 0 0 0 0 0 0 0 0 0 0 0 0 0 0 26 88 88 44 2 61 81 77 72 72 66 67 65 60 59 64 59 43 40 32 30 34 40 47 62 63 63 56 57 57 31 61 59 61 61 66 59 53 25 19 44 60 71 68 80 88 88 88 88 88 88 86 87 72 81 21 22 63 88 88 18 7 0 0 0 0 0 0 0 0 0 0 0 0 0 0 0 0 0 0 0 0 0 0 0 0 0 0 0 0 0 0 0 0 0 
0 0 0 0 0 0 0 0 0 0 0 0 0 0 0 0 0 0 0 0 0 0 0 0 0 0 0 0 0 0 0 0 0 84 88 73 57 39 17 73 79 67 55 58 56 61 60 62 66 52 41 38 32 33 37 32 49 61 65 58 58 60 57 40 61 59 57 60 68 63 55 31 19 41 64 77 77 84 88 88 88 88 88 88 85 80 73 50 15 68 78 88 88 77 4 0 0 0 0 0 0 0 0 0 0 0 0 0 0 0 0 0 0 0 0 0 0 0 0 0 0 0 0 0 0 0 0 0 
0 0 0 0 0 0 0 0 0 0 0 0 0 0 0 0 0 0 0 0 0 0 0 0 0 0 0 0 0 0 0 0 12 88 88 62 59 73 15 45 71 73 54 48 51 57 56 59 59 57 43 33 41 36 35 41 58 63 63 59 56 60 58 49 56 63 57 55 68 65 55 42 19 46 60 72 70 78 88 88 88 88 88 83 75 78 68 23 44 88 84 66 88 88 16 0 0 0 0 0 0 0 0 0 0 0 0 0 0 0 0 0 0 0 0 0 0 0 0 0 0 0 0 0 0 0 0 0 
0 0 0 0 0 0 0 0 0 0 0 0 0 0 0 0 0 0 0 0 0 0 0 0 0 0 0 0 0 0 0 0 49 88 78 78 58 69 45 22 64 54 54 44 52 44 53 60 54 56 36 40 46 40 31 50 61 65 61 59 59 61 56 56 59 63 58 59 64 66 58 43 22 33 60 55 76 72 88 88 88 88 88 75 76 72 60 18 68 88 53 88 88 88 44 7 0 0 0 0 0 0 0 0 0 0 0 0 0 0 0 0 0 0 0 0 0 0 0 0 0 0 0 0 0 0 0 0 
0 0 0 0 0 0 0 0 0 0 0 0 0 0 0 0 0 0 0 0 0 0 0 0 0 0 0 0 0 0 0 0 88 88 71 78 63 76 53 14 43 49 31 46 46 50 44 33 44 44 36 40 48 44 33 55 62 63 62 59 61 62 56 49 57 62 59 60 63 67 60 50 20 36 44 61 63 68 85 72 77 88 75 70 63 55 49 39 88 88 59 88 80 88 88 5 0 0 0 0 0 0 0 0 0 0 0 0 0 0 0 0 0 0 0 0 0 0 0 0 0 0 0 0 0 0 0 0 
0 0 0 0 0 0 0 0 0 0 0 0 0 0 0 0 0 0 0 0 0 0 0 0 0 0 0 0 0 0 0 26 88 88 88 49 62 64 57 21 30 46 51 45 46 39 34 35 27 30 31 48 49 41 41 58 64 62 55 61 62 61 58 50 57 62 61 57 62 64 63 51 31 32 50 60 58 72 70 78 73 66 54 63 61 52 28 74 88 88 72 81 88 88 88 24 9 0 0 0 0 0 0 0 0 0 0 0 0 0 0 0 0 0 0 0 0 0 0 0 0 0 0 0 0 0 0 0 
0 0 0 0 0 0 0 0 0 0 0 0 0 0 0 0 0 0 0 0 0 0 0 0 0 0 0 0 0 0 0 74 88 83 88 53 60 62 66 31 11 42 38 50 38 44 39 23 45 47 50 53 51 43 52 59 65 59 58 63 60 62 58 48 57 63 62 56 60 65 64 56 34 30 52 59 54 73 59 68 67 58 51 50 50 41 11 87 80 66 79 63 88 65 88 63 3 0 0 0 0 0 0 0 0 0 0 0 0 0 0 0 0 0 0 0 0 0 0 0 0 0 0 0 0 0 0 0 
0 0 0 0 0 0 0 0 0 0 0 0 0 0 0 0 0 0 0 0 0 0 0 0 0 0 0 0 0 0 11 88 88 88 56 61 58 58 58 54 20 21 25 39 51 47 32 32 51 59 58 56 46 42 58 61 64 59 57 60 61 62 58 49 56 61 59 53 63 63 66 54 38 31 53 61 59 62 59 59 46 39 41 36 24 21 18 71 55 58 75 75 88 73 88 88 11 0 0 0 0 0 0 0 0 0 0 0 0 0 0 0 0 0 0 0 0 0 0 0 0 0 0 0 0 0 0 0 
0 0 0 0 0 0 0 0 0 0 0 0 0 0 0 0 0 0 0 0 0 0 0 0 0 0 0 0 0 0 44 88 88 88 49 68 52 55 55 43 31 24 23 28 39 22 37 37 52 62 62 54 47 45 57 64 64 59 56 56 62 60 58 47 59 63 60 55 62 64 64 56 37 38 55 57 58 52 60 41 21 24 24 23 20 20 23 47 51 57 60 74 88 88 88 88 30 8 0 0 0 0 0 0 0 0 0 0 0 0 0 0 0 0 0 0 0 0 0 0 0 0 0 0 0 0 0 0 
0 0 0 0 0 0 0 0 0 0 0 0 0 0 0 0 0 0 0 0 0 0 0 0 0 0 0 0 0 0 88 88 82 70 57 61 64 75 51 45 43 25 26 20 32 25 37 31 51 57 60 58 46 40 61 63 60 58 55 60 61 61 54 48 58 63 62 56 57 62 63 58 33 44 56 60 60 47 38 35 24 25 20 24 19 28 31 55 73 63 68 71 38 88 80 88 81 0 0 0 0 0 0 0 0 0 0 0 0 0 0 0 0 0 0 0 0 0 0 0 0 0 0 0 0 0 0 0 
0 0 0 0 0 0 0 0 0 0 0 0 0 0 0 0 0 0 0 0 0 0 0 0 0 0 0 0 0 19 88 88 88 58 63 58 52 75 55 49 40 27 25 32 40 48 42 42 39 53 59 60 60 55 60 65 60 58 54 62 63 59 57 54 56 63 63 57 57 64 64 60 46 39 53 55 52 44 37 44 40 35 31 22 21 25 33 50 86 80 52 61 74 88 86 88 88 6 0 0 0 0 0 0 0 0 0 0 0 0 0 0 0 0 0 0 0 0 0 0 0 0 0 0 0 0 0 0 
0 0 0 0 0 0 0 0 0 0 0 0 0 0 0 0 0 0 0 0 0 0 0 0 0 0 0 0 0 69 88 81 88 81 71 54 53 67 55 50 40 20 31 45 44 55 61 59 54 48 53 60 61 65 61 67 64 58 56 63 62 60 54 52 57 64 61 57 55 63 64 59 58 46 49 54 40 40 41 48 51 44 41 38 28 37 36 51 57 88 72 52 88 57 88 88 88 30 0 0 0 0 0 0 0 0 0 0 0 0 0 0 0 0 0 0 0 0 0 0 0 0 0 0 0 0 0 0 
0 0 0 0 0 0 0 0 0 0 0 0 0 0 0 0 0 0 0 0 0 0 0 0 0 0 0 0 0 88 88 81 75 62 69 53 57 71 62 55 31 29 31 48 53 55 58 60 56 53 44 60 60 62 65 64 64 59 56 62 60 61 54 49 57 63 63 59 58 65 63 62 61 53 50 45 39 43 46 53 54 44 39 33 40 37 43 55 60 88 61 51 76 60 88 70 88 58 0 0 0 0 0 0 0 0 0 0 0 0 0 0 0 0 0 0 0 0 0 0 0 0 0 0 0 0 0 0 
0 0 0 0 0 0 0 0 0 0 0 0 0 0 0 0 0 0 0 0 0 0 0 0 0 0 0 0 24 88 85 88 53 66 58 50 60 55 62 43 44 33 42 49 42 52 60 65 62 58 52 37 56 61 60 63 63 57 56 59 64 59 56 35 59 61 62 61 54 64 62 63 66 60 52 43 39 48 55 53 51 41 35 35 46 37 44 57 63 88 50 65 88 68 88 74 88 88 0 0 0 0 0 0 0 0 0 0 0 0 0 0 0 0 0 0 0 0 0 0 0 0 0 0 0 0 0 0 
0 0 0 0 0 0 0 0 0 0 0 0 0 0 0 0 0 0 0 0 0 0 0 0 0 0 0 0 58 88 58 87 62 63 42 53 57 53 57 47 43 30 33 31 45 46 57 60 63 60 55 52 55 55 62 62 62 59 57 57 61 60 57 52 55 62 63 59 55 60 64 64 63 58 47 33 47 55 53 50 44 31 31 45 40 48 54 63 69 80 55 65 82 88 80 88 88 88 16 0 0 0 0 0 0 0 0 0 0 0 0 0 0 0 0 0 0 0 0 0 0 0 0 0 0 0 0 0 
0 0 0 0 0 0 0 0 0 0 0 0 0 0 0 0 0 0 0 0 0 0 0 0 0 0 0 0 88 88 78 72 67 79 55 54 56 66 52 51 47 28 26 21 40 36 54 59 60 61 61 54 54 52 62 59 64 59 56 53 62 63 53 52 55 62 63 55 58 62 62 62 55 52 25 38 58 60 51 41 28 27 21 17 28 51 58 63 58 58 62 54 55 81 87 88 77 88 37 0 0 0 0 0 0 0 0 0 0 0 0 0 0 0 0 0 0 0 0 0 0 0 0 0 0 0 0 0 
0 0 0 0 0 0 0 0 0 0 0 0 0 0 0 0 0 0 0 0 0 0 0 0 0 0 0 18 88 85 79 63 66 37 53 71 48 60 56 40 13 17 40 34 36 44 56 58 58 63 61 55 55 50 56 59 64 63 57 53 61 62 53 49 53 59 64 55 59 64 62 61 58 44 40 45 49 49 51 55 35 33 45 40 26 13 37 61 59 54 62 59 58 70 67 88 69 88 63 0 5 0 0 0 0 0 0 0 0 0 0 0 0 0 0 0 0 0 0 0 0 0 0 0 0 0 0 0 
0 0 0 0 0 0 0 0 0 0 0 0 0 0 0 0 0 0 0 0 0 0 0 0 0 0 0 39 88 59 77 72 50 88 82 88 62 50 42 4 30 40 45 41 33 35 44 57 57 55 60 57 54 59 57 58 60 63 56 52 58 66 55 46 53 56 67 60 60 62 64 57 53 50 56 52 57 57 43 34 25 32 35 41 35 33 14 19 54 56 56 62 30 56 78 81 88 88 88 8 0 0 0 0 0 0 0 0 0 0 0 0 0 0 0 0 0 0 0 0 0 0 0 0 0 0 0 0 
0 0 0 0 0 0 0 0 0 0 0 0 0 0 0 0 0 0 0 0 0 0 0 0 0 0 0 70 88 82 72 71 69 55 61 55 53 22 7 39 54 58 55 57 56 50 35 44 49 54 51 48 42 61 52 57 56 62 57 54 60 65 54 44 42 55 63 60 62 62 63 59 56 57 51 44 44 42 39 41 45 50 44 55 56 53 58 19 12 60 76 64 45 39 81 77 88 88 88 20 0 0 0 0 0 0 0 0 0 0 0 0 0 0 0 0 0 0 0 0 0 0 0 0 0 0 0 0 
0 0 0 0 0 0 0 0 0 0 0 0 0 0 0 0 0 0 0 0 0 0 0 0 0 0 0 88 88 88 71 71 66 48 79 88 25 19 36 57 51 56 55 58 55 54 58 67 63 58 52 47 40 51 50 52 56 59 59 52 62 66 58 48 43 54 63 58 60 60 63 58 55 57 50 47 42 54 57 63 61 56 52 59 59 54 58 52 15 48 88 88 88 56 68 76 88 76 88 40 0 0 0 0 0 0 0 0 0 0 0 0 0 0 0 0 0 0 0 0 0 0 0 0 0 0 0 0 
0 0 0 0 0 0 0 0 0 0 0 0 0 0 0 0 0 0 0 0 0 0 0 0 0 0 17 88 68 88 60 64 55 48 47 43 31 16 59 57 57 60 58 57 55 59 39 45 59 66 60 56 42 47 52 48 56 52 53 49 63 61 59 46 46 56 60 59 58 58 59 52 53 55 52 50 57 67 57 50 52 48 60 56 59 57 56 61 49 29 27 57 46 41 56 72 88 80 88 74 0 0 0 0 0 0 0 0 0 0 0 0 0 0 0 0 0 0 0 0 0 0 0 0 0 0 0 0 
0 0 0 0 0 0 0 0 0 0 0 0 0 0 0 0 0 0 0 0 0 0 0 0 0 0 37 88 69 88 69 74 40 55 51 41 12 55 57 55 59 59 59 60 59 57 41 43 61 62 60 58 51 47 49 48 55 48 46 50 49 51 45 39 38 48 55 55 52 56 56 55 54 57 50 56 63 63 60 53 47 56 58 61 57 53 56 54 58 45 23 50 63 45 52 71 88 88 88 88 6 0 0 0 0 0 0 0 0 0 0 0 0 0 0 0 0 0 0 0 0 0 0 0 0 0 0 0 
0 0 0 0 0 0 0 0 0 0 0 0 0 0 0 0 0 0 0 0 0 0 0 0 0 0 74 88 76 88 78 77 52 49 58 13 16 51 45 56 57 57 62 60 60 53 51 33 54 59 62 56 61 53 49 49 52 42 45 45 50 50 40 31 26 38 49 61 62 55 55 52 62 56 56 58 62 64 58 36 30 61 55 62 56 58 56 55 49 49 22 27 61 44 36 77 88 88 88 88 26 0 0 0 0 0 0 0 0 0 0 0 0 0 0 0 0 0 0 0 0 0 0 0 0 0 0 0 
0 0 0 0 0 0 0 0 0 0 0 0 0 0 0 0 0 0 0 0 0 0 0 0 0 9 88 88 88 76 74 53 48 56 41 7 44 63 52 38 41 56 59 59 61 48 30 28 45 57 60 55 50 54 60 50 56 40 31 66 69 55 47 23 23 36 57 64 60 58 50 56 58 54 60 60 63 61 56 50 63 58 62 66 58 58 60 56 51 36 22 14 58 60 28 73 85 88 88 88 44 0 0 0 0 0 0 0 0 0 0 0 0 0 0 0 0 0 0 0 0 0 0 0 0 0 0 0 
0 0 0 0 0 0 0 0 0 0 0 0 0 0 0 0 0 0 0 0 0 0 0 0 0 13 88 80 87 76 78 48 56 59 25 6 41 51 48 54 58 58 58 59 62 56 56 24 33 53 60 59 49 41 31 44 42 50 34 58 66 55 42 36 30 38 63 62 52 45 49 56 58 62 54 53 58 60 51 59 56 59 62 62 63 60 62 57 57 50 31 8 43 58 42 63 88 88 88 88 67 0 0 0 0 0 0 0 0 0 0 0 0 0 0 0 0 0 0 0 0 0 0 0 0 0 0 0 
0 0 0 0 0 0 0 0 0 0 0 0 0 0 0 0 0 0 0 0 0 0 0 0 0 29 88 69 88 76 60 51 63 46 1 24 43 54 57 56 55 56 59 59 63 63 53 51 18 42 50 50 42 37 22 32 32 48 38 32 55 62 53 40 37 59 64 54 40 39 52 63 60 59 49 54 56 56 51 58 59 60 60 63 63 64 63 59 58 40 58 15 28 57 42 57 87 73 88 88 84 9 0 0 0 0 0 0 0 0 0 0 0 0 0 0 0 0 0 0 0 0 0 0 0 0 0 0 
0 0 0 0 0 0 0 0 0 0 0 0 0 0 0 0 0 0 0 0 0 0 0 0 0 49 88 76 70 75 56 57 61 23 21 56 47 58 57 55 59 60 62 61 64 62 59 54 45 50 56 49 31 29 18 33 32 36 32 29 43 44 41 40 40 44 40 35 34 35 26 43 52 45 39 46 56 54 61 58 57 62 59 61 64 67 59 59 54 56 51 31 11 51 52 49 88 86 88 88 88 23 0 0 0 0 0 0 0 0 0 0 0 0 0 0 0 0 0 0 0 0 0 0 0 0 0 0 
0 0 0 0 0 0 0 0 0 0 0 0 0 0 0 0 0 0 0 0 0 0 0 0 0 67 88 59 57 75 53 59 43 18 60 50 54 55 56 57 64 65 66 65 67 64 61 56 53 57 61 58 59 55 27 27 31 43 17 4 31 31 31 30 34 35 34 26 24 43 35 32 44 45 56 58 56 59 60 59 63 62 63 59 65 63 60 57 56 56 58 49 13 43 57 56 67 88 88 88 88 25 0 0 0 0 0 0 0 0 0 0 0 0 0 0 0 0 0 0 0 0 0 0 0 0 0 0 
0 0 0 0 0 0 0 0 0 0 0 0 0 0 0 0 0 0 0 0 0 0 0 0 6 88 88 80 88 55 53 62 28 44 53 57 56 52 53 54 55 60 64 65 65 64 65 60 62 63 59 60 57 58 58 54 29 37 45 35 32 31 32 33 32 31 34 16 0 43 35 56 59 57 57 63 62 65 64 66 67 68 62 60 67 64 59 59 57 53 54 57 22 25 59 54 54 88 88 88 88 43 0 0 0 0 0 0 0 0 0 0 0 0 0 0 0 0 0 0 0 0 0 0 0 0 0 0 
0 0 0 0 0 0 0 0 0 0 0 0 0 0 0 0 0 0 0 0 0 0 0 0 13 88 88 56 64 48 51 55 27 45 55 58 60 57 52 52 53 56 63 67 58 61 64 65 63 61 62 60 61 61 59 56 54 32 40 36 37 32 35 45 37 36 34 35 22 40 47 61 59 61 63 65 63 63 64 69 67 65 62 61 66 62 62 59 59 57 51 53 53 11 88 53 51 74 88 65 88 46 0 0 0 0 0 0 0 0 0 0 0 0 0 0 0 0 0 0 0 0 0 0 0 0 0 0 
0 0 0 0 0 0 0 0 0 0 0 0 0 0 0 0 0 0 0 0 0 0 0 0 15 88 81 66 66 53 58 43 27 45 54 60 63 60 58 57 54 57 63 65 57 55 65 66 63 63 61 58 60 60 61 57 58 36 31 58 64 45 39 59 71 34 48 49 42 39 52 58 60 61 62 60 63 63 65 70 68 66 63 61 63 67 64 60 60 62 60 55 54 19 37 59 53 55 77 67 88 57 0 0 0 0 0 0 0 0 0 0 0 0 0 0 0 0 0 0 0 0 0 0 0 0 0 0 
0 0 0 0 0 0 0 0 0 0 0 0 0 0 0 0 0 0 0 0 0 0 0 0 25 88 67 77 77 63 57 38 31 51 57 61 61 59 61 59 62 61 67 67 58 60 64 66 66 62 60 58 60 60 60 59 60 37 37 67 41 32 45 50 44 40 32 53 55 34 51 60 60 59 58 62 61 61 64 70 70 67 67 60 65 68 62 61 54 53 56 56 53 22 29 59 57 71 63 71 88 73 0 0 0 0 0 0 0 0 0 0 0 0 0 0 0 0 0 0 0 0 0 0 0 0 0 0 
0 0 0 0 0 0 0 0 0 0 0 0 0 0 0 0 0 0 0 0 0 0 0 0 40 88 48 88 57 47 52 34 31 54 57 61 63 58 60 59 60 64 67 69 65 63 70 69 67 62 59 58 58 59 60 58 59 34 49 50 39 38 38 36 32 36 44 47 48 44 46 61 58 58 57 59 59 62 64 66 66 70 69 68 69 64 63 56 53 55 53 53 46 37 16 59 52 62 65 84 86 88 0 0 0 0 0 0 0 0 0 0 0 0 0 0 0 0 0 0 0 0 0 0 0 0 0 0 
0 0 0 0 0 0 0 0 0 0 0 0 0 0 0 0 0 0 0 0 0 0 0 0 55 88 40 72 47 48 51 34 42 53 57 62 65 60 60 62 62 65 65 68 68 69 70 62 52 57 60 56 57 54 45 62 59 30 63 46 33 34 32 34 32 34 33 37 51 43 46 59 59 47 59 58 59 58 49 56 66 68 69 70 70 65 63 59 58 55 53 54 53 40 6 54 52 53 60 81 77 88 6 0 0 0 0 0 0 0 0 0 0 0 0 0 0 0 0 0 0 0 0 0 0 0 0 0 
0 0 0 0 0 0 0 0 0 0 0 0 0 0 0 0 0 0 0 0 0 0 0 0 81 88 44 70 42 54 49 32 42 54 57 60 62 67 61 62 64 66 67 66 68 69 60 43 42 44 56 54 54 51 63 62 60 35 52 32 30 27 32 31 29 33 33 35 46 48 41 62 64 59 58 59 60 49 43 47 60 71 69 70 68 64 64 68 60 58 60 59 55 42 5 44 57 45 75 83 88 88 13 0 0 0 0 0 0 0 0 0 0 0 0 0 0 0 0 0 0 0 0 0 0 0 0 0 
0 0 0 0 0 0 0 0 0 0 0 0 0 0 0 0 0 0 0 0 0 0 0 0 88 83 39 88 40 57 43 34 42 53 60 59 61 63 66 64 67 68 69 70 67 67 51 52 52 60 57 58 57 60 65 63 55 38 33 38 33 33 35 30 35 39 36 36 34 40 41 61 62 62 61 61 60 60 59 56 58 67 70 71 68 66 59 63 65 63 63 60 54 49 13 39 56 53 50 88 67 88 17 7 0 0 0 0 0 0 0 0 0 0 0 0 0 0 0 0 0 0 0 0 0 0 0 0 
0 0 0 0 0 0 0 0 0 0 0 0 0 0 0 0 0 0 0 0 0 0 0 12 88 45 47 53 49 52 38 37 41 55 49 55 53 58 58 61 65 68 65 66 65 67 61 56 57 57 61 63 64 61 65 58 54 32 31 33 38 36 31 26 30 35 38 35 30 31 43 62 67 58 61 62 61 60 60 59 63 69 70 68 69 62 57 56 59 59 59 59 54 51 14 30 60 54 50 69 69 88 33 6 0 0 0 0 0 0 0 0 0 0 0 0 0 0 0 0 0 0 0 0 0 0 0 0 
0 0 0 0 0 0 0 0 0 0 0 0 0 0 0 0 0 0 0 0 0 0 0 14 88 69 54 48 65 54 36 37 42 50 52 47 54 54 54 56 66 65 66 60 62 66 65 61 56 59 60 62 63 67 62 60 39 32 31 46 45 37 36 3 20 42 46 51 29 28 34 63 63 67 62 62 61 62 58 59 63 67 66 61 71 67 53 48 57 56 56 56 48 66 12 22 55 54 46 67 48 80 69 0 0 0 0 0 0 0 0 0 0 0 0 0 0 0 0 0 0 0 0 0 0 0 0 0 
0 0 0 0 0 0 0 0 0 0 0 0 0 0 0 0 0 0 0 0 0 0 0 18 88 88 48 61 62 59 42 34 42 46 59 50 47 46 52 57 63 66 62 56 60 66 65 56 55 60 62 60 64 67 59 53 31 33 60 64 64 69 54 64 66 68 64 65 64 38 30 53 65 69 64 63 64 61 58 56 61 69 63 60 65 68 56 54 49 48 37 44 50 68 11 11 55 55 48 51 61 70 88 0 0 0 0 0 0 0 0 0 0 0 0 0 0 0 0 0 0 0 0 0 0 0 0 0 
0 0 0 0 0 0 0 0 0 0 0 0 0 0 0 0 0 0 0 0 0 0 0 14 88 88 45 67 50 54 36 30 36 51 51 53 53 54 53 56 65 66 57 52 59 65 65 57 52 58 58 64 65 64 58 41 26 70 63 63 63 65 63 64 66 67 62 63 67 67 37 44 63 66 68 65 60 60 57 58 63 70 61 57 59 67 65 57 55 55 57 54 54 44 25 3 47 52 47 51 72 88 88 5 0 0 0 0 0 0 0 0 0 0 0 0 0 0 0 0 0 0 0 0 0 0 0 0 
0 0 0 0 0 0 0 0 0 0 0 0 0 0 0 0 0 0 0 0 0 0 0 16 88 79 49 62 48 51 33 22 32 52 55 52 53 57 60 61 63 64 56 55 56 65 67 58 54 52 58 60 65 63 51 36 39 65 64 63 64 64 65 64 64 65 64 63 63 65 64 35 59 65 65 62 59 59 55 57 65 70 60 57 58 65 66 65 65 61 57 54 55 56 35 7 25 59 48 50 40 88 88 38 0 0 0 0 0 0 0 0 0 0 0 0 0 0 0 0 0 0 0 0 0 0 0 0 
0 0 0 0 0 0 0 0 0 0 0 0 0 0 0 0 0 0 0 0 0 0 0 19 88 64 47 54 48 54 21 12 31 51 54 56 55 58 61 63 66 63 58 54 57 65 67 59 56 58 56 58 62 57 40 28 58 63 63 63 67 65 65 67 66 64 66 62 64 66 65 39 45 60 61 54 56 58 55 61 68 66 58 57 57 62 66 64 60 59 61 64 59 57 47 21 6 69 52 45 50 38 50 81 13 0 0 0 0 0 0 0 0 0 0 0 0 0 0 0 0 0 0 0 0 0 0 0 
0 0 0 0 0 0 0 0 0 0 0 0 0 0 0 0 0 0 0 0 0 0 0 49 62 41 47 54 47 58 11 7 25 48 55 53 57 56 60 64 63 60 56 56 58 61 67 65 59 58 56 50 54 43 34 44 71 63 65 61 65 67 65 67 64 68 64 62 62 65 65 51 36 48 46 47 58 61 61 63 68 59 57 54 58 63 64 62 56 54 54 56 57 54 51 25 0 84 49 55 43 50 62 36 71 25 0 0 0 0 0 0 0 0 0 0 0 0 0 0 0 0 0 0 0 0 0 0 
0 0 0 0 0 0 0 0 0 0 0 0 0 0 0 0 0 0 0 0 0 0 36 42 59 52 43 57 47 70 5 7 20 49 51 52 53 54 58 63 60 58 58 49 56 57 59 64 61 58 55 45 38 38 27 57 63 63 62 62 63 64 64 64 68 65 63 64 61 67 63 54 34 40 31 49 55 61 60 64 66 57 50 58 60 64 60 55 56 49 54 53 54 52 53 13 1 31 54 57 36 58 40 40 54 45 0 0 0 0 0 0 0 0 0 0 0 0 0 0 0 0 0 0 0 0 0 0 
0 0 0 0 0 0 0 0 0 0 0 0 0 0 0 0 0 0 0 0 0 41 50 38 43 65 35 55 49 52 0 5 11 33 47 48 57 54 55 59 54 57 48 45 51 56 53 59 61 59 47 43 36 35 29 68 61 63 63 59 62 64 67 65 66 67 63 62 66 67 66 62 35 38 38 46 54 58 61 62 62 57 51 60 63 64 60 57 56 52 48 48 50 40 36 3 4 9 60 57 37 64 17 7 22 50 19 0 0 0 0 0 0 0 0 0 0 0 0 0 0 0 0 0 0 0 0 0 
0 0 0 0 0 0 0 0 0 0 0 0 0 0 0 0 0 0 0 0 13 64 33 18 34 69 34 54 56 39 3 6 6 21 31 33 39 37 48 54 48 40 34 40 45 41 53 55 55 50 39 39 55 27 46 68 63 61 62 60 64 63 65 63 66 68 63 64 64 66 67 68 35 30 38 58 50 57 60 58 59 55 54 57 62 59 51 47 55 51 45 34 34 38 18 3 8 1 50 63 40 69 21 0 0 0 8 0 0 0 0 0 0 0 0 0 0 0 0 0 0 0 0 0 0 0 0 0 
0 0 0 0 0 0 0 0 0 0 0 0 0 0 0 0 0 0 0 0 44 35 7 9 38 88 39 54 63 17 6 4 8 12 17 6 20 35 47 46 39 29 31 44 47 53 39 46 45 38 52 53 56 33 52 65 64 63 64 65 64 63 66 62 66 63 64 65 63 65 66 66 59 47 49 35 33 41 58 56 56 52 53 56 59 51 41 30 24 31 27 24 33 19 18 8 2 1 32 57 38 88 55 0 0 0 0 0 0 0 0 0 0 0 0 0 0 0 0 0 0 0 0 0 0 0 0 0 
0 0 0 0 0 0 0 0 0 0 0 0 0 0 0 0 0 0 0 5 30 0 0 14 66 88 53 45 55 1 4 5 7 6 22 25 17 34 39 36 31 26 40 47 57 50 51 41 45 50 58 58 54 51 62 63 61 65 65 63 63 66 63 63 66 64 63 63 65 66 65 63 60 54 57 54 41 45 50 52 56 51 47 51 51 42 32 20 19 21 18 21 21 8 13 9 5 8 2 88 48 88 70 28 0 0 0 0 0 0 0 0 0 0 0 0 0 0 0 0 0 0 0 0 0 0 0 0 
0 0 0 0 0 0 0 0 0 0 0 0 0 0 0 0 0 0 0 0 8 0 0 49 76 86 73 64 44 0 1 4 8 16 14 17 34 9 28 26 23 33 47 52 50 47 42 48 56 51 60 59 55 60 63 63 63 63 64 64 64 63 63 62 64 64 66 66 65 64 64 66 63 61 59 61 57 58 45 49 52 53 42 51 44 43 36 22 25 24 9 17 29 5 7 6 8 5 0 59 48 88 72 78 5 0 0 0 0 0 0 0 0 0 0 0 0 0 0 0 0 0 0 0 0 0 0 0 
0 0 0 0 0 0 0 0 0 0 0 0 0 0 0 0 0 0 0 0 5 0 5 88 41 65 76 59 20 5 2 4 9 25 23 23 16 14 16 18 28 51 52 51 49 51 43 54 59 60 59 59 60 62 66 65 62 63 63 63 60 59 63 63 62 58 57 63 64 63 63 64 67 63 61 62 60 61 51 54 46 44 44 48 48 43 44 49 26 26 16 16 18 11 8 6 8 2 0 37 65 78 41 69 39 0 0 0 0 0 0 0 0 0 0 0 0 0 0 0 0 0 0 0 0 0 0 0 
0 0 0 0 0 0 0 0 0 0 0 0 0 0 0 0 0 0 0 0 0 0 38 71 28 47 64 48 8 6 1 5 11 18 16 9 16 16 2 20 41 49 46 48 47 48 49 51 61 60 60 62 63 64 63 65 62 58 62 60 62 62 62 63 61 61 61 62 59 61 65 63 65 65 64 63 61 60 56 56 50 51 47 43 45 47 45 41 39 29 2 14 13 20 13 3 4 7 6 14 88 77 27 42 88 0 0 0 0 0 0 0 0 0 0 0 0 0 0 0 0 0 0 0 0 0 0 0 
0 0 0 0 0 0 0 0 0 0 0 0 0 0 0 0 0 0 0 0 0 0 67 40 0 25 76 41 8 18 0 9 12 12 6 6 6 13 20 34 46 46 48 51 52 51 56 57 60 63 61 63 63 63 63 63 64 58 58 64 64 61 64 60 63 63 63 65 59 59 62 63 63 63 67 63 65 56 61 62 58 50 51 47 41 41 46 46 39 34 2 12 6 9 16 5 5 5 8 13 76 51 2 9 88 28 0 0 0 0 0 0 0 0 0 0 0 0 0 0 0 0 0 0 0 0 0 0 
0 0 0 0 0 0 0 0 0 0 0 0 0 0 0 0 0 0 0 0 0 9 71 17 0 9 74 50 4 39 6 8 6 5 2 3 4 12 31 39 42 43 48 54 56 53 61 59 59 60 65 65 62 63 64 62 64 57 54 62 59 52 50 42 45 45 55 63 59 61 63 63 63 63 65 63 65 61 61 61 56 57 56 51 48 37 34 40 35 21 6 11 5 3 12 8 6 7 6 14 76 34 2 0 80 49 0 0 0 0 0 0 0 0 0 0 0 0 0 0 0 0 0 0 0 0 0 0 
0 0 0 0 0 0 0 0 0 0 0 0 0 0 0 0 0 0 0 0 0 17 65 11 0 6 70 73 6 39 5 9 3 1 1 3 15 20 35 25 43 47 53 51 60 59 57 60 61 62 63 64 63 64 64 63 63 63 55 66 37 31 30 31 29 30 25 59 55 63 62 64 61 63 62 63 64 65 61 59 59 60 58 53 52 50 38 28 28 5 2 8 5 4 4 9 7 8 4 18 76 22 5 3 75 46 0 0 0 0 0 0 0 0 0 0 0 0 0 0 0 0 0 0 0 0 0 0 
0 0 0 0 0 0 0 0 0 0 0 0 0 0 0 0 0 0 0 21 0 13 62 7 0 0 70 88 11 1 7 8 2 1 5 9 16 27 37 14 50 52 53 55 59 59 59 62 61 63 63 66 64 63 64 64 64 62 56 65 28 31 31 30 32 31 27 52 55 58 64 62 64 64 64 64 63 63 63 61 61 61 56 60 55 54 48 34 23 4 11 4 5 4 6 13 2 5 2 25 88 16 4 0 61 38 0 8 17 0 0 0 0 0 0 0 0 0 0 0 0 0 0 0 0 0 0 0 
0 0 0 0 0 0 0 0 0 0 0 0 0 0 0 0 0 0 17 62 0 11 63 8 0 6 44 88 18 4 8 8 2 2 7 20 32 22 46 28 49 53 49 56 61 60 62 59 63 63 63 64 63 64 63 63 64 60 58 62 29 31 30 30 31 29 28 45 61 58 62 64 64 67 65 66 65 65 62 65 58 63 59 59 58 56 56 37 33 27 15 5 5 5 5 12 2 8 1 37 88 15 2 0 58 25 0 8 77 11 0 0 0 0 0 0 0 0 0 0 0 0 0 0 0 0 0 0 
0 0 0 0 0 0 0 0 0 0 0 0 0 0 0 0 0 5 27 82 28 26 60 0 0 5 63 88 42 13 6 3 3 9 7 38 20 48 47 54 49 64 55 51 58 61 62 63 65 68 63 63 63 67 64 64 65 66 66 58 27 34 47 48 44 40 32 36 60 64 63 63 60 67 60 63 60 65 65 62 60 63 62 58 53 55 56 36 49 36 53 46 16 11 4 12 0 9 0 44 88 21 4 0 56 18 0 31 88 8 0 0 0 0 0 0 0 0 0 0 0 0 0 0 0 0 0 0 
0 0 0 0 0 0 0 0 0 0 0 0 0 0 0 0 7 0 13 57 60 57 45 0 0 0 55 88 70 2 9 11 11 12 5 22 24 33 58 60 59 56 55 58 59 54 60 59 63 65 71 61 65 63 60 63 65 68 67 50 48 59 50 56 57 39 39 32 55 64 63 65 63 60 61 66 63 63 62 56 57 57 59 56 59 49 44 50 51 55 64 65 28 14 5 8 11 6 1 63 88 32 6 4 35 49 0 57 55 6 0 0 0 0 0 0 0 0 0 0 0 0 0 0 0 0 0 0 
0 0 0 0 0 0 0 0 0 0 0 0 0 0 0 0 8 7 0 29 46 52 18 0 0 0 42 88 87 1 13 17 13 11 8 40 25 54 57 62 60 59 60 51 69 58 58 62 57 67 60 64 63 64 63 62 68 64 53 41 34 39 63 60 69 54 31 34 40 62 63 60 62 59 68 67 61 70 55 58 61 61 60 63 54 49 54 56 55 46 52 57 46 59 1 5 4 9 0 80 88 27 8 9 13 60 67 50 42 0 0 0 0 0 0 0 0 0 0 0 0 0 0 0 0 0 0 0 
0 0 0 0 0 0 0 0 0 0 0 0 0 0 0 0 6 6 5 0 12 18 6 0 0 0 39 88 88 16 11 36 21 9 1 11 7 56 58 61 58 60 64 56 63 58 63 67 58 73 62 64 66 63 66 60 71 62 43 52 47 53 58 60 65 60 37 42 39 52 63 59 66 62 67 67 53 72 59 62 65 64 60 63 56 52 56 61 57 44 60 26 39 59 14 7 6 1 3 88 88 28 11 6 6 35 42 39 11 8 0 0 0 0 0 0 0 0 0 0 0 0 0 0 0 0 0 0 
0 0 0 0 0 0 0 0 0 0 0 0 0 0 0 0 0 0 0 0 0 0 0 0 0 0 39 88 88 37 4 38 46 13 2 13 34 63 57 55 62 58 62 58 62 60 65 62 62 66 64 65 67 65 65 65 64 60 58 52 48 46 53 66 64 65 38 41 44 51 62 65 63 62 60 63 61 64 62 64 62 58 59 58 61 55 58 59 59 54 58 33 28 22 25 6 4 13 22 88 81 31 0 0 0 0 0 0 0 0 0 0 0 0 0 0 0 0 0 0 0 0 0 0 0 0 0 0 
0 0 0 0 0 0 0 0 0 0 0 0 0 0 0 0 0 0 0 0 0 0 0 0 0 0 27 87 88 69 0 25 36 16 9 7 27 61 58 55 57 57 59 60 63 59 64 63 63 64 64 65 63 65 67 65 64 61 62 52 51 48 61 60 62 66 51 40 42 60 60 65 64 64 63 64 63 63 63 65 63 62 63 62 57 61 59 59 56 54 53 56 4 26 17 8 13 1 39 88 77 20 0 0 0 0 0 0 0 0 0 0 0 0 0 0 0 0 0 0 0 0 0 0 0 0 0 0 
0 0 0 0 0 0 0 0 0 0 0 0 0 0 0 0 0 0 0 0 0 0 0 0 0 0 11 66 88 88 0 13 22 31 13 8 41 56 56 58 57 60 59 62 63 60 66 63 63 66 63 67 64 66 66 63 63 65 61 62 54 58 62 61 63 63 64 58 55 60 60 62 66 65 64 61 62 65 63 63 62 62 60 62 61 58 59 59 57 58 55 45 35 15 35 31 16 0 88 88 60 5 0 0 0 0 0 0 0 0 0 0 0 0 0 0 0 0 0 0 0 0 0 0 0 0 0 0 
0 0 0 0 0 0 0 0 0 0 0 0 0 0 0 0 0 0 0 0 0 0 0 0 0 0 6 58 88 88 28 40 15 40 24 19 44 58 61 56 59 59 60 61 62 63 63 63 65 64 64 66 67 65 67 67 64 63 61 63 66 63 61 63 62 62 65 67 62 60 63 63 64 64 65 60 63 62 63 63 63 62 58 60 61 59 58 57 57 53 55 44 40 35 51 24 0 45 88 82 49 0 0 0 0 0 0 0 0 0 0 0 0 0 0 0 0 0 0 0 0 0 0 0 0 0 0 0 
0 0 0 0 0 0 0 0 0 0 0 0 0 0 0 0 0 0 0 0 0 0 0 0 0 0 0 40 88 88 87 0 11 31 25 31 38 58 60 56 60 61 60 62 62 63 63 64 64 64 65 66 65 65 66 65 66 67 64 65 62 63 61 63 62 61 59 60 66 59 65 62 63 63 66 63 61 64 63 64 65 61 60 62 62 59 60 59 54 52 56 51 13 38 35 11 14 88 88 71 18 0 0 0 0 0 0 0 0 0 0 0 0 0 0 0 0 0 0 0 0 0 0 0 0 0 0 0 
0 0 0 0 0 0 0 0 0 0 0 0 0 0 0 0 0 0 0 0 0 0 0 0 0 0 0 22 73 88 88 34 0 17 12 35 22 61 56 58 60 60 60 62 60 63 64 62 63 63 64 64 66 68 63 65 65 65 64 63 62 62 61 62 60 62 63 62 64 63 64 65 66 66 63 65 63 63 62 63 61 63 65 63 60 59 59 59 58 54 60 30 22 21 9 0 88 88 88 53 0 0 0 0 0 0 0 0 0 0 0 0 0 0 0 0 0 0 0 0 0 0 0 0 0 0 0 0 
0 0 0 0 0 0 0 0 0 0 0 0 0 0 0 0 0 0 0 0 0 0 0 0 0 0 0 5 61 88 88 70 20 4 6 36 7 58 55 60 59 60 59 62 62 62 64 62 61 63 63 64 65 68 64 67 66 66 65 62 61 61 62 62 62 62 62 62 62 65 64 65 65 65 62 63 62 62 62 63 59 62 60 61 62 60 59 56 59 52 58 5 31 11 3 46 88 88 61 25 0 0 0 0 0 0 0 0 0 0 0 0 0 0 0 0 0 0 0 0 0 0 0 0 0 0 0 0 
0 0 0 0 0 0 0 0 0 0 0 0 0 0 0 0 0 0 0 0 0 0 0 0 0 0 0 0 36 76 88 88 69 7 8 23 3 47 56 57 59 59 61 62 61 61 60 62 61 65 63 63 65 64 65 66 65 66 63 61 59 61 60 61 60 61 60 59 61 63 66 64 65 65 61 63 60 60 60 60 61 59 61 59 63 59 57 57 57 57 43 9 25 13 13 88 88 88 53 0 0 0 0 0 0 0 0 0 0 0 0 0 0 0 0 0 0 0 0 0 0 0 0 0 0 0 0 0 
0 0 0 0 0 0 0 0 0 0 0 0 0 0 0 0 0 0 0 0 0 0 0 0 0 0 0 0 13 63 88 88 88 43 16 17 22 21 57 58 59 61 60 61 63 60 62 62 63 60 62 63 61 63 65 64 64 64 63 58 59 61 61 63 60 59 57 56 61 63 63 63 64 63 62 61 61 62 59 60 62 59 61 60 59 60 57 58 56 63 14 28 13 13 68 88 88 69 27 0 0 0 0 0 0 0 0 0 0 0 0 0 0 0 0 0 0 0 0 0 0 0 0 0 0 0 0 0 
0 0 0 0 0 0 0 0 0 0 0 0 0 0 0 0 0 0 0 0 0 0 0 0 0 0 0 0 0 39 73 88 88 88 15 9 25 13 41 58 57 58 58 61 61 63 61 62 61 63 63 63 62 63 63 66 64 67 62 64 60 58 56 64 53 54 60 60 60 63 63 65 63 62 60 61 61 60 62 59 61 62 61 61 57 60 57 57 57 47 11 14 6 30 88 88 88 54 0 0 0 0 0 0 0 0 0 0 0 0 0 0 0 0 0 0 0 0 0 0 0 0 0 0 0 0 0 0 
0 0 0 0 0 0 0 0 0 0 0 0 0 0 0 0 0 0 0 0 0 0 0 0 0 0 0 0 0 12 62 88 88 88 56 2 17 27 13 58 55 60 59 59 63 62 63 62 62 62 62 63 63 62 63 63 64 65 64 62 61 59 57 63 57 61 60 62 61 62 64 62 61 62 61 61 61 62 61 62 60 60 63 60 59 54 59 53 54 5 22 5 24 40 88 88 73 28 0 0 0 0 0 0 0 0 0 0 0 0 0 0 0 0 0 0 0 0 0 0 0 0 0 0 0 0 0 0 
0 0 0 0 0 0 0 0 0 0 0 0 0 0 0 0 0 0 0 0 0 0 0 0 0 0 0 0 0 0 35 73 88 88 88 13 13 22 23 23 58 56 57 59 58 61 63 60 61 61 58 61 61 63 62 64 63 60 60 64 60 56 59 53 48 59 60 60 60 60 63 62 60 60 62 60 63 61 63 60 62 59 60 60 57 58 53 61 15 15 3 32 49 88 88 88 51 6 0 0 0 0 0 0 0 0 0 0 0 0 0 0 0 0 0 0 0 0 0 0 0 0 0 0 0 0 0 0 
0 0 0 0 0 0 0 0 0 0 0 0 0 0 0 0 0 0 0 0 0 0 0 0 0 0 0 0 0 0 5 59 88 88 88 70 3 6 21 11 38 60 56 58 60 58 64 57 62 59 60 63 60 60 59 60 65 61 62 62 61 59 54 25 58 56 57 59 58 59 61 61 62 62 60 60 58 59 59 62 62 60 60 57 56 57 54 23 7 4 29 68 88 88 88 58 32 0 0 0 0 0 0 0 0 0 0 0 0 0 0 0 0 0 0 0 0 0 0 0 0 0 0 0 0 0 0 0 
0 0 0 0 0 0 0 0 0 0 0 0 0 0 0 0 0 0 0 0 0 0 0 0 0 0 0 0 0 0 0 31 63 88 88 88 66 19 4 17 7 47 61 55 60 58 60 59 56 57 60 60 62 63 58 63 62 62 60 61 59 55 62 37 60 57 58 60 63 60 62 61 59 58 59 59 58 58 59 58 60 60 58 57 57 48 9 2 13 20 55 85 88 88 74 51 5 0 0 0 0 0 0 0 0 0 0 0 0 0 0 0 0 0 0 0 0 0 0 0 0 0 0 0 0 0 0 0 
0 0 0 0 0 0 0 0 0 0 0 0 0 0 0 0 0 0 0 0 0 0 0 0 0 0 0 0 0 0 0 0 56 77 88 88 88 88 37 6 11 4 38 59 56 58 58 61 57 55 58 59 57 60 57 60 60 59 60 62 62 58 59 33 41 58 60 57 61 60 58 58 60 60 58 59 58 55 59 59 57 59 56 56 48 8 3 22 28 72 80 88 88 86 59 12 0 0 0 0 0 0 0 0 0 0 0 0 0 0 0 0 0 0 0 0 0 0 0 0 0 0 0 0 0 0 0 0 
0 0 0 0 0 0 0 0 0 0 0 0 0 0 0 0 0 0 0 0 0 0 0 0 0 0 0 0 0 0 0 0 16 63 88 88 88 88 88 28 6 3 6 36 57 59 59 57 59 55 54 56 57 58 57 60 61 59 60 61 59 57 60 40 51 57 59 59 59 59 58 60 56 60 54 61 57 58 58 57 60 58 58 43 3 13 29 43 73 88 88 88 88 64 33 0 0 0 0 0 0 0 0 0 0 0 0 0 0 0 0 0 0 0 0 0 0 0 0 0 0 0 0 0 0 0 0 0 
0 0 0 0 0 0 0 0 0 0 0 0 0 0 0 0 0 0 0 0 0 0 0 0 0 0 0 0 0 0 0 0 0 33 66 88 88 88 88 88 28 17 3 2 25 51 59 59 56 52 57 54 57 57 56 58 60 60 60 61 56 55 59 38 60 55 61 59 60 61 60 59 56 59 56 58 53 60 56 58 55 53 28 3 27 39 52 68 88 88 88 88 70 51 0 0 0 0 0 0 0 0 0 0 0 0 0 0 0 0 0 0 0 0 0 0 0 0 0 0 0 0 0 0 0 0 0 0 
0 0 0 0 0 0 0 0 0 0 0 0 0 0 0 0 0 0 0 0 0 0 0 0 0 0 0 0 0 0 0 0 0 0 50 73 88 88 88 88 88 30 33 17 3 7 20 36 48 58 55 57 57 54 56 58 57 58 56 58 60 40 42 17 51 59 58 59 57 58 59 57 57 57 55 58 57 53 44 35 30 7 5 17 34 41 64 74 88 88 88 76 56 5 0 0 0 0 0 0 0 0 0 0 0 0 0 0 0 0 0 0 0 0 0 0 0 0 0 0 0 0 0 0 0 0 0 0 
0 0 0 0 0 0 0 0 0 0 0 0 0 0 0 0 0 0 0 0 0 0 0 0 0 0 0 0 0 0 0 0 0 0 8 60 74 88 88 88 81 88 47 43 37 14 6 7 15 31 52 53 58 57 59 57 57 59 57 56 57 31 18 17 32 56 57 58 58 56 57 58 57 56 59 57 44 28 23 9 1 4 14 33 44 88 86 88 88 88 77 64 17 0 0 0 0 0 0 0 0 0 0 0 0 0 0 0 0 0 0 0 0 0 0 0 0 0 0 0 0 0 0 0 0 0 0 0 
0 0 0 0 0 0 0 0 0 0 0 0 0 0 0 0 0 0 0 0 0 0 0 0 0 0 0 0 0 0 0 0 0 0 0 16 63 69 88 88 88 88 88 88 36 33 19 13 5 13 8 20 45 52 54 53 45 47 50 47 31 34 37 52 6 42 53 54 53 58 55 55 53 49 26 14 11 8 3 2 8 16 39 86 44 87 88 88 88 83 61 30 0 0 0 0 0 0 0 0 0 0 0 0 0 0 0 0 0 0 0 0 0 0 0 0 0 0 0 0 0 0 0 0 0 0 0 0 
0 0 0 0 0 0 0 0 0 0 0 0 0 0 0 0 0 0 0 0 0 0 0 0 0 0 0 0 0 0 0 0 0 0 0 0 21 56 80 88 88 88 88 88 75 57 41 21 13 4 9 2 3 11 13 11 14 24 24 25 32 47 70 76 51 12 36 32 30 31 33 27 14 5 8 4 8 9 13 34 43 63 62 67 88 88 88 88 74 66 35 0 0 0 0 0 0 0 0 0 0 0 0 0 0 0 0 0 0 0 0 0 0 0 0 0 0 0 0 0 0 0 0 0 0 0 0 0 
0 0 0 0 0 0 0 0 0 0 0 0 0 0 0 0 0 0 0 0 0 0 0 0 0 0 0 0 0 0 0 0 0 0 0 0 0 20 58 72 77 88 88 88 88 88 53 60 36 17 14 14 9 7 13 7 3 14 14 25 40 60 71 78 69 50 52 33 18 9 4 4 13 17 26 32 43 49 51 61 59 68 87 88 88 88 88 78 65 44 0 0 0 0 0 0 0 0 0 0 0 0 0 0 0 0 0 0 0 0 0 0 0 0 0 0 0 0 0 0 0 0 0 0 0 0 0 0 
0 0 0 0 0 0 0 0 0 0 0 0 0 0 0 0 0 0 0 0 0 0 0 0 0 0 0 0 0 0 0 0 0 0 0 0 0 0 14 55 67 74 88 88 88 88 88 58 64 54 52 42 42 35 30 26 24 29 18 29 34 28 31 33 38 39 36 27 21 24 29 32 39 45 54 60 60 67 70 78 88 88 88 88 88 88 74 63 42 0 0 0 0 0 0 0 0 0 0 0 0 0 0 0 0 0 0 0 0 0 0 0 0 0 0 0 0 0 0 0 0 0 0 0 0 0 0 0 
0 0 0 0 0 0 0 0 0 0 0 0 0 0 0 0 0 0 0 0 0 0 0 0 0 0 0 0 0 0 0 0 0 0 0 0 0 0 0 5 44 63 71 74 88 88 88 88 85 81 70 67 68 62 55 50 44 37 40 33 30 25 23 20 19 20 21 33 38 44 59 63 63 63 79 69 80 88 88 88 88 88 88 88 76 69 53 38 0 0 0 0 0 0 0 0 0 0 0 0 0 0 0 0 0 0 0 0 0 0 0 0 0 0 0 0 0 0 0 0 0 0 0 0 0 0 0 0 
0 0 0 0 0 0 0 0 0 0 0 0 0 0 0 0 0 0 0 0 0 0 0 0 0 0 0 0 0 0 0 0 0 0 0 0 0 0 0 0 0 21 51 64 77 79 88 88 88 88 88 88 82 78 75 81 59 66 56 55 48 37 33 26 20 26 31 45 57 65 82 88 88 88 88 88 88 88 88 88 88 74 76 72 60 56 22 0 0 0 0 0 0 0 0 0 0 0 0 0 0 0 0 0 0 0 0 0 0 0 0 0 0 0 0 0 0 0 0 0 0 0 0 0 0 0 0 0 
0 0 0 0 0 0 0 0 0 0 0 0 0 0 0 0 0 0 0 0 0 0 0 0 0 0 0 0 0 0 0 0 0 0 0 0 0 0 0 0 0 0 0 29 52 70 73 88 88 88 88 88 88 88 88 88 88 88 71 68 62 43 16 4 4 15 51 73 88 88 88 88 88 88 88 88 88 88 88 70 63 68 54 48 31 0 0 0 0 0 0 0 0 0 0 0 0 0 0 0 0 0 0 0 0 0 0 0 0 0 0 0 0 0 0 0 0 0 0 0 0 0 0 0 0 0 0 0 
0 0 0 0 0 0 0 0 0 0 0 0 0 0 0 0 0 0 0 0 0 0 0 0 0 0 0 0 0 0 0 0 0 0 0 0 0 0 0 0 0 0 0 0 5 33 57 62 82 88 88 88 88 88 88 88 88 88 88 81 86 88 59 57 88 88 88 88 88 88 88 88 88 88 88 88 76 62 59 54 49 44 24 0 0 0 0 0 0 0 0 0 0 0 0 0 0 0 0 0 0 0 0 0 0 0 0 0 0 0 0 0 0 0 0 0 0 0 0 0 0 0 0 0 0 0 0 0 
0 0 0 0 0 0 0 0 0 0 0 0 0 0 0 0 0 0 0 0 0 0 0 0 0 0 0 0 0 0 0 0 0 0 0 0 0 0 0 0 0 0 0 0 0 0 14 43 51 64 68 86 88 88 88 88 88 88 88 88 88 88 88 88 88 88 88 88 88 88 88 88 87 76 66 52 51 49 46 29 0 0 0 0 0 0 0 0 0 0 0 0 0 0 0 0 0 0 0 0 0 0 0 0 0 0 0 0 0 0 0 0 0 0 0 0 0 0 0 0 0 0 0 0 0 0 0 0 
0 0 0 0 0 0 0 0 0 0 0 0 0 0 0 0 0 0 0 0 0 0 0 0 0 0 0 0 0 0 0 0 0 0 0 0 0 0 0 0 0 0 0 0 0 0 0 0 19 41 53 56 60 69 76 84 88 88 88 88 88 88 88 88 88 83 80 68 79 64 56 54 52 49 46 41 31 8 0 0 0 0 0 0 0 0 0 0 0 0 0 0 0 0 0 0 0 0 0 0 0 0 0 0 0 0 0 0 0 0 0 0 0 0 0 0 0 0 0 0 0 0 0 0 0 0 0 0 
0 0 0 0 0 0 0 0 0 0 0 0 0 0 0 0 0 0 0 0 0 0 0 0 0 0 0 0 0 0 0 0 0 0 0 0 0 0 0 0 0 0 0 0 0 0 0 0 0 0 14 31 42 49 50 55 55 56 58 60 69 64 57 55 49 45 49 48 48 55 53 43 40 27 13 0 0 0 0 0 0 0 0 0 0 0 0 0 0 0 0 0 0 0 0 0 0 0 0 0 0 0 0 0 0 0 0 0 0 0 0 0 0 0 0 0 0 0 0 0 0 0 0 0 0 0 0 0 
0 0 0 0 0 0 0 0 0 0 0 0 0 0 0 0 0 0 0 0 0 0 0 0 0 0 0 0 0 0 0 0 0 0 0 0 0 0 0 0 0 0 0 0 0 0 0 0 0 0 0 0 6 15 22 25 32 36 43 47 46 46 45 43 42 38 33 30 22 16 9 5 0 0 0 0 0 0 0 0 0 0 0 0 0 0 0 0 0 0 0 0 0 0 0 0 0 0 0 0 0 0 0 0 0 0 0 0 0 0 0 0 0 0 0 0 0 0 0 0 0 0 0 0 0 0 0 0 
0 0 0 0 0 0 0 0 0 0 0 0 0 0 0 0 0 0 0 0 0 0 0 0 0 0 0 0 0 0 0 0 0 0 0 0 0 0 0 0 0 0 0 0 0 0 0 0 0 0 0 0 0 0 0 0 0 0 0 14 22 22 17 13 0 0 0 0 0 0 0 0 0 0 0 0 0 0 0 0 0 0 0 0 0 0 0 0 0 0 0 0 0 0 0 0 0 0 0 0 0 0 0 0 0 0 0 0 0 0 0 0 0 0 0 0 0 0 0 0 0 0 0 0 0 0 0 0 
0 0 0 0 0 0 0 0 0 0 0 0 0 0 0 0 0 0 0 0 0 0 0 0 0 0 0 0 0 0 0 0 0 0 0 0 0 0 0 0 0 0 0 0 0 0 0 0 0 0 0 0 0 0 0 0 0 0 0 0 0 0 0 0 0 0 0 0 0 0 0 0 0 0 0 0 0 0 0 0 0 0 0 0 0 0 0 0 0 0 0 0 0 0 0 0 0 0 0 0 0 0 0 0 0 0 0 0 0 0 0 0 0 0 0 0 0 0 0 0 0 0 0 0 0 0 0 0 
0 0 0 0 0 0 0 0 0 0 0 0 0 0 0 0 0 0 0 0 0 0 0 0 0 0 0 0 0 0 0 0 0 0 0 0 0 0 0 0 0 0 0 0 0 0 0 0 0 0 0 0 0 0 0 0 0 0 0 0 0 0 0 0 0 0 0 0 0 0 0 0 0 0 0 0 0 0 0 0 0 0 0 0 0 0 0 0 0 0 0 0 0 0 0 0 0 0 0 0 0 0 0 0 0 0 0 0 0 0 0 0 0 0 0 0 0 0 0 0 0 0 0 0 0 0 0 0 
