P2
128 128
88
0 0 0 0 0 0 0 0 0 0 0 0 0 0 0 0 0 0 0 0 0 0 0 0 0 0 0 0 0 0 0 0 0 0 0 0 0 0 0 0 0 0 0 0 0 0 0 0 0 0 0 0 0 0 0 0 0 0 0 0 0 0 0 0 0 0 0 0 0 0 0 0 0 0 0 0 0 0 0 0 0 0 0 0 0 0 0 0 0 0 0 0 0 0 0 0 0 0 0 0 0 0 0 0 0 0 0 0 0 0 0 0 0 0 0 0 0 0 0 0 0 0 0 0 0 0 0 0 
0 0 0 0 0 0 0 0 0 0 0 0 0 0 0 0 0 0 0 0 0 0 0 0 0 0 0 0 0 0 0 0 0 0 0 0 0 0 0 0 0 0 0 0 0 0 0 0 0 0 0 0 0 0 0 0 0 0 0 0 0 0 0 0 0 0 0 0 0 0 0 0 0 0 0 0 0 0 0 0 0 0 0 0 0 0 0 0 0 0 0 0 0 0 0 0 0 0 0 0 0 0 0 0 0 0 0 0 0 0 0 0 0 0 0 0 0 0 0 0 0 0 0 0 0 0 0 0 
0 0 0 0 0 0 0 0 0 0 0 0 0 0 0 0 0 0 0 0 0 0 0 0 0 0 0 0 0 0 0 0 0 0 0 0 0 0 0 0 0 0 0 0 0 0 0 0 0 0 0 0 0 0 0 0 0 0 0 0 0 0 0 0 0 0 0 0 0 0 0 0 0 0 0 0 0 0 0 0 0 0 0 0 0 0 0 0 0 0 0 0 0 0 0 0 0 0 0 0 0 0 0 0 0 0 0 0 0 0 0 0 0 0 0 0 0 0 0 0 0 0 0 0 0 0 0 0 
0 0 0 0 0 0 0 0 0 0 0 0 0 0 0 0 0 0 0 0 0 0 0 0 0 0 0 0 0 0 0 0 0 0 0 0 0 0 0 0 0 0 0 0 0 0 0 0 0 0 0 0 0 0 0 0 0 0 0 0 0 0 0 0 0 0 0 0 0 0 0 0 0 0 0 0 0 0 0 0 0 0 0 0 0 0 0 0 0 0 0 0 0 0 0 0 0 0 0 0 0 0 0 0 0 0 0 0 0 0 0 0 0 0 0 0 0 0 0 0 0 0 0 0 0 0 0 0 
0 0 0 0 0 0 0 0 0 0 0 0 0 0 0 0 0 0 0 0 0 0 0 0 0 0 0 0 0 0 0 0 0 0 0 0 0 0 0 0 0 0 0 0 0 0 0 0 0 0 0 0 0 0 0 0 0 0 0 0 0 0 0 0 0 0 0 0 0 0 0 0 0 0 0 0 0 0 0 0 0 0 0 0 0 0 0 0 0 0 0 0 0 0 0 0 0 0 0 0 0 0 0 0 0 0 0 0 0 0 0 0 0 0 0 0 0 0 0 0 0 0 0 0 0 0 0 0 
0 0 0 0 0 0 0 0 0 0 0 0 0 0 0 0 0 0 0 0 0 0 0 0 0 0 0 0 0 0 0 0 0 0 0 0 0 0 0 0 0 0 0 0 0 0 0 0 0 0 0 0 0 0 0 0 0 0 0 0 0 0 0 0 0 0 0 0 0 0 0 0 0 0 0 0 0 0 0 0 0 0 0 0 0 0 0 0 0 0 0 0 0 0 0 0 0 0 0 0 0 0 0 0 0 0 0 0 0 0 0 0 0 0 0 0 0 0 0 0 0 0 0 0 0 0 0 0 
0 0 0 0 0 0 0 0 0 0 0 0 0 0 0 0 0 0 0 0 0 0 0 0 0 0 0 0 0 0 0 0 0 0 0 0 0 0 0 0 0 0 0 0 0 0 0 0 0 0 0 0 0 0 0 0 0 0 0 0 0 0 0 0 0 0 0 0 0 0 0 0 0 0 0 0 0 0 0 0 0 0 0 0 0 0 0 0 0 0 0 0 0 0 0 0 0 0 0 0 0 0 0 0 0 0 0 0 0 0 0 0 0 0 0 0 0 0 0 0 0 0 0 0 0 0 0 0 
0 0 0 0 0 0 0 0 0 0 0 0 0 0 0 0 0 0 0 0 0 0 0 0 0 0 0 0 0 0 0 0 0 0 0 0 0 0 0 0 0 0 0 0 0 0 0 0 0 0 0 0 0 0 0 0 0 0 0 0 0 0 0 0 0 0 0 0 0 0 0 0 0 0 0 0 0 0 0 0 0 0 0 0 0 0 0 0 0 0 0 0 0 0 0 0 0 0 0 0 0 0 0 0 0 0 0 0 0 0 0 0 0 0 0 0 0 0 0 0 0 0 0 0 0 0 0 0 
0 0 0 0 0 0 0 0 0 0 0 0 0 0 0 0 0 0 0 0 0 0 0 0 0 0 0 0 0 0 0 0 0 0 0 0 0 0 0 0 0 0 0 0 0 0 0 0 0 0 0 0 0 0 0 0 0 0 0 0 0 0 0 0 0 0 0 0 0 0 0 0 0 0 0 0 0 0 0 0 0 0 0 0 0 0 0 0 0 0 0 0 0 0 0 0 0 0 0 0 0 0 0 0 0 0 0 0 0 0 0 0 0 0 0 0 0 0 0 0 0 0 0 0 0 0 0 0 
0 0 0 0 0 0 0 0 0 0 0 0 0 0 0 0 0 0 0 0 0 0 0 0 0 0 0 0 0 0 0 0 0 0 0 0 0 0 0 0 0 0 0 0 0 0 0 0 0 0 0 0 0 0 0 0 0 0 0 0 0 0 0 0 0 0 0 0 0 0 0 0 0 0 0 0 0 0 0 0 0 0 0 0 0 0 0 0 0 0 0 0 0 0 0 0 0 0 0 0 0 0 0 0 0 0 0 0 0 0 0 0 0 0 0 0 0 0 0 0 0 0 0 0 0 0 0 0 
0 0 0 0 0 0 0 0 0 0 0 0 0 0 0 0 0 0 0 0 0 0 0 0 0 0 0 0 0 0 0 0 0 0 0 0 0 0 0 0 0 0 0 0 0 0 0 0 0 0 0 0 0 0 0 0 0 0 0 0 0 0 0 0 0 0 0 0 0 0 0 0 0 0 0 0 0 0 0 0 0 0 0 0 0 0 0 0 0 0 0 0 0 0 0 0 0 0 0 0 0 0 0 0 0 0 0 0 0 0 0 0 0 0 0 0 0 0 0 0 0 0 0 0 0 0 0 0 
0 0 0 0 0 0 0 0 0 0 0 0 0 0 0 0 0 0 0 0 0 0 0 0 0 0 0 0 0 0 0 0 0 0 0 0 0 0 0 0 0 0 0 0 0 0 0 0 0 0 0 0 0 0 0 0 0 0 0 0 0 0 0 0 0 0 0 0 0 0 0 0 0 0 0 0 0 0 0 0 0 0 0 0 0 0 0 0 0 0 0 0 0 0 0 0 0 0 0 0 0 0 0 0 0 0 0 0 0 0 0 0 0 0 0 0 0 0 0 0 0 0 0 0 0 0 0 0 
0 0 0 0 0 0 0 0 0 0 0 0 0 0 0 0 0 0 0 0 0 0 0 0 0 0 0 0 0 0 0 0 0 0 0 0 0 0 0 0 0 0 0 0 0 0 0 0 0 0 0 0 0 0 0 0 0 0 0 0 0 0 0 0 0 0 0 0 0 0 0 0 0 0 0 0 0 0 0 0 0 0 0 0 0 0 0 0 0 0 0 0 0 0 0 0 0 0 0 0 0 0 0 0 0 0 0 0 0 0 0 0 0 0 0 0 0 0 0 0 0 0 0 0 0 0 0 0 
0 0 0 0 0 0 0 0 0 0 0 0 0 0 0 0 0 0 0 0 0 0 0 0 0 0 0 0 0 0 0 0 0 0 0 0 0 0 0 0 0 0 0 0 0 0 0 0 0 0 0 0 0 0 0 0 0 0 0 0 0 0 0 0 0 0 0 0 0 0 0 0 0 0 0 0 0 0 0 0 0 0 0 0 0 0 0 0 0 0 0 0 0 0 0 0 0 0 0 0 0 0 0 0 0 0 0 0 0 0 0 0 0 0 0 0 0 0 0 0 0 0 0 0 0 0 0 0 
0 0 0 0 0 0 0 0 0 0 0 0 0 0 0 0 0 0 0 0 0 0 0 0 0 0 0 0 0 0 0 0 0 0 0 0 0 0 0 0 0 0 0 0 0 0 0 0 0 0 0 0 0 0 0 0 0 0 0 0 0 0 0 0 0 0 0 0 0 0 0 0 0 0 0 0 0 0 0 0 0 0 0 0 0 0 0 0 0 0 0 0 0 0 0 0 0 0 0 0 0 0 0 0 0 0 0 0 0 0 0 0 0 0 0 0 0 0 0 0 0 0 0 0 0 0 0 0 
0 0 0 0 0 0 0 0 0 0 0 0 0 0 0 0 0 0 0 0 0 0 0 0 0 0 0 0 0 0 0 0 0 0 0 0 0 0 0 0 0 0 0 0 0 0 0 0 0 0 0 0 0 0 0 0 0 0 0 0 0 0 0 0 0 0 0 0 0 0 0 0 0 0 0 0 0 0 0 0 0 0 0 0 0 0 0 0 0 0 0 0 0 0 0 0 0 0 0 0 0 0 0 0 0 0 0 0 0 0 0 0 0 0 0 0 0 0 0 0 0 0 0 0 0 0 0 0 
0 0 0 0 0 0 0 0 0 0 0 0 0 0 0 0 0 0 0 0 0 0 0 0 0 0 0 0 0 0 0 0 0 0 0 0 0 0 0 0 0 0 0 0 0 0 0 0 0 0 0 0 0 0 0 5 13 24 31 39 45 54 61 62 61 51 48 30 22 11 0 0 0 0 0 0 0 0 0 0 0 0 0 0 0 0 0 0 0 0 0 0 0 0 0 0 0 0 0 0 0 0 0 0 0 0 0 0 0 0 0 0 0 0 0 0 0 0 0 0 0 0 0 0 0 0 0 0 
0 0 0 0 0 0 0 0 0 0 0 0 0 0 0 0 0 0 0 0 0 0 0 0 0 0 0 0 0 0 0 0 0 0 0 0 0 0 0 0 0 0 0 0 0 0 0 0 0 0 0 0 35 88 88 88 88 88 88 88 88 88 88 88 88 88 88 88 88 88 88 88 51 15 0 0 0 0 0 0 0 0 0 0 0 0 0 0 0 0 0 0 0 0 0 0 0 0 0 0 0 0 0 0 0 0 0 0 0 0 0 0 0 0 0 0 0 0 0 0 0 0 0 0 0 0 0 0 
0 0 0 0 0 0 0 0 0 0 0 0 0 0 0 0 0 0 0 0 0 0 0 0 0 0 0 0 0 0 0 0 0 0 0 0 0 0 0 0 0 0 0 0 0 0 0 0 0 21 88 88 88 88 88 49 61 88 87 58 88 88 52 47 51 63 80 88 88 88 88 88 88 88 88 61 8 0 0 0 0 0 0 0 0 0 0 0 0 0 0 0 0 0 0 0 0 0 0 0 0 0 0 0 0 0 0 0 0 0 0 0 0 0 0 0 0 0 0 0 0 0 0 0 0 0 0 0 
0 0 0 0 0 0 0 0 0 0 0 0 0 0 0 0 0 0 0 0 0 0 0 0 0 0 0 0 0 0 0 0 0 0 0 0 0 0 0 0 0 0 0 0 0 0 0 22 88 88 88 88 77 56 33 80 88 29 32 40 26 23 31 36 43 36 30 37 42 48 44 40 66 88 88 88 88 88 15 0 0 0 0 0 0 0 0 0 0 0 0 0 0 0 0 0 0 0 0 0 0 0 0 0 0 0 0 0 0 0 0 0 0 0 0 0 0 0 0 0 0 0 0 0 0 0 0 0 
0 0 0 0 0 0 0 0 0 0 0 0 0 0 0 0 0 0 0 0 0 0 0 0 0 0 0 0 0 0 0 0 0 0 0 0 0 0 0 0 0 0 0 0 0 6 88 88 88 88 39 35 42 41 26 14 0 2 6 4 4 5 7 8 51 52 42 32 27 29 34 52 51 43 37 64 88 88 88 85 6 0 0 0 0 0 0 0 0 0 0 0 0 0 0 0 0 0 0 0 0 0 0 0 0 0 0 0 0 0 0 0 0 0 0 0 0 0 0 0 0 0 0 0 0 0 0 0 
0 0 0 0 0 0 0 0 0 0 0 0 0 0 0 0 0 0 0 0 0 0 0 0 0 0 0 0 0 0 0 0 0 0 0 0 0 0 0 0 0 0 0 0 28 88 88 84 34 47 50 28 16 18 22 30 17 4 1 0 3 0 0 5 43 84 85 88 77 63 50 33 21 21 36 51 59 55 77 88 88 57 0 0 0 0 0 0 0 0 0 0 0 0 0 0 0 0 0 0 0 0 0 0 0 0 0 0 0 0 0 0 0 0 0 0 0 0 0 0 0 0 0 0 0 0 0 0 
0 0 0 0 0 0 0 0 0 0 0 0 0 0 0 0 0 0 0 0 0 0 0 0 0 0 0 0 0 0 0 0 0 0 0 0 0 0 0 0 0 0 0 62 88 88 40 53 40 19 15 26 59 63 43 34 15 8 5 3 0 1 1 1 15 60 62 68 71 71 84 82 71 58 36 24 30 50 79 61 71 88 88 5 0 0 0 0 0 0 0 0 0 0 0 0 0 0 0 0 0 0 0 0 0 0 0 0 0 0 0 0 0 0 0 0 0 0 0 0 0 0 0 0 0 0 0 0 
0 0 0 0 0 0 0 0 0 0 0 0 0 0 0 0 0 0 0 0 0 0 0 0 0 0 0 0 0 0 0 0 0 0 0 0 0 0 0 0 0 0 88 88 64 42 44 16 11 24 52 76 72 57 24 14 4 4 1 3 4 0 3 7 20 27 30 34 38 41 41 57 72 82 88 62 36 22 27 50 88 70 88 88 23 0 0 0 0 0 0 0 0 0 0 0 0 0 0 0 0 0 0 0 0 0 0 0 0 0 0 0 0 0 0 0 0 0 0 0 0 0 0 0 0 0 0 0 
0 0 0 0 0 0 0 0 0 0 0 0 0 0 0 0 0 0 0 0 0 0 0 0 0 0 0 0 0 0 0 0 0 0 0 0 0 0 0 0 8 88 88 48 57 22 7 21 50 71 58 35 26 19 11 30 45 44 55 32 13 6 5 13 21 8 0 13 20 12 18 23 43 69 67 88 81 52 34 22 31 59 74 88 88 38 0 0 0 0 0 0 0 0 0 0 0 0 0 0 0 0 0 0 0 0 0 0 0 0 0 0 0 0 0 0 0 0 0 0 0 0 0 0 0 0 0 0 
0 0 0 0 0 0 0 0 0 0 0 0 0 0 0 0 0 0 0 0 0 0 0 0 0 0 0 0 0 0 0 0 0 0 0 0 0 0 0 11 88 87 60 57 20 14 35 75 71 46 20 13 20 20 34 42 33 37 44 55 62 50 11 13 8 32 51 36 31 42 34 28 22 49 61 67 63 69 60 57 21 20 44 77 88 88 40 0 0 0 0 0 0 0 0 0 0 0 0 0 0 0 0 0 0 0 0 0 0 0 0 0 0 0 0 0 0 0 0 0 0 0 0 0 0 0 0 0 
0 0 0 0 0 0 0 0 0 0 0 0 0 0 0 0 0 0 0 0 0 0 0 0 0 0 0 0 0 0 0 0 0 0 0 0 0 0 11 88 88 56 38 7 25 50 62 68 41 21 18 27 36 58 57 60 41 49 51 45 50 63 53 3 47 54 48 36 61 62 64 45 34 54 41 35 36 50 57 70 74 39 16 32 68 88 88 41 0 0 0 0 0 0 0 0 0 0 0 0 0 0 0 0 0 0 0 0 0 0 0 0 0 0 0 0 0 0 0 0 0 0 0 0 0 0 0 0 
0 0 0 0 0 0 0 0 0 0 0 0 0 0 0 0 0 0 0 0 0 0 0 0 0 0 0 0 0 0 0 0 0 0 0 0 0 5 88 88 54 36 4 30 65 54 56 44 31 21 33 47 51 60 61 59 52 56 58 56 57 55 64 30 60 58 60 48 61 63 65 59 38 44 35 41 45 38 40 44 65 88 64 22 28 68 88 88 31 0 0 0 0 0 0 0 0 0 0 0 0 0 0 0 0 0 0 0 0 0 0 0 0 0 0 0 0 0 0 0 0 0 0 0 0 0 0 0 
0 0 0 0 0 0 0 0 0 0 0 0 0 0 0 0 0 0 0 0 0 0 0 0 0 0 0 0 0 0 0 0 0 0 0 0 0 88 88 45 38 5 42 78 48 36 40 40 31 35 42 45 55 59 63 61 60 62 60 59 61 62 61 50 57 62 61 57 61 67 67 57 44 30 41 44 45 47 43 43 63 71 88 74 19 28 59 88 88 22 0 0 0 0 0 0 0 0 0 0 0 0 0 0 0 0 0 0 0 0 0 0 0 0 0 0 0 0 0 0 0 0 0 0 0 0 0 0 
0 0 0 0 0 0 0 0 0 0 0 0 0 0 0 0 0 0 0 0 0 0 0 0 0 0 0 0 0 0 0 0 0 0 0 0 43 88 66 42 3 51 79 60 37 40 39 40 37 42 46 46 51 62 64 64 61 61 64 63 63 61 52 44 58 61 66 62 64 67 65 48 49 27 42 42 41 43 42 45 55 72 82 88 88 20 33 55 88 88 8 0 0 0 0 0 0 0 0 0 0 0 0 0 0 0 0 0 0 0 0 0 0 0 0 0 0 0 0 0 0 0 0 0 0 0 0 0 
0 0 0 0 0 0 0 0 0 0 0 0 0 0 0 0 0 0 0 0 0 0 0 0 0 0 0 0 0 0 0 0 0 0 0 16 88 88 36 13 53 87 79 53 41 40 44 38 35 45 49 40 48 63 65 64 63 63 68 62 60 54 47 37 56 60 62 65 68 65 58 47 50 38 41 46 43 43 44 48 42 73 71 88 88 88 21 32 85 88 88 0 0 0 0 0 0 0 0 0 0 0 0 0 0 0 0 0 0 0 0 0 0 0 0 0 0 0 0 0 0 0 0 0 0 0 0 0 
0 0 0 0 0 0 0 0 0 0 0 0 0 0 0 0 0 0 0 0 0 0 0 0 0 0 0 0 0 0 0 0 0 0 5 88 88 37 22 47 74 71 68 48 37 38 45 43 46 52 56 45 46 59 62 63 59 62 65 58 48 47 37 23 55 52 61 66 69 64 52 63 63 26 41 40 42 44 46 43 50 62 88 88 88 88 88 19 33 88 88 35 0 0 0 0 0 0 0 0 0 0 0 0 0 0 0 0 0 0 0 0 0 0 0 0 0 0 0 0 0 0 0 0 0 0 0 0 
0 0 0 0 0 0 0 0 0 0 0 0 0 0 0 0 0 0 0 0 0 0 0 0 0 0 0 0 0 0 0 0 0 0 40 88 63 22 45 88 70 50 42 52 38 40 48 45 41 50 56 48 29 57 58 56 61 64 62 61 55 50 36 26 62 56 60 66 67 63 55 72 64 44 33 43 39 39 43 46 53 56 80 88 88 88 88 71 16 54 88 88 13 0 0 0 0 0 0 0 0 0 0 0 0 0 0 0 0 0 0 0 0 0 0 0 0 0 0 0 0 0 0 0 0 0 0 0 
0 0 0 0 0 0 0 0 0 0 0 0 0 0 0 0 0 0 0 0 0 0 0 0 0 0 0 0 0 0 0 0 0 5 88 88 34 21 74 69 46 35 30 33 32 39 50 51 31 48 57 54 43 68 55 58 63 66 64 61 56 55 45 32 61 62 63 65 64 63 58 66 61 59 25 41 36 35 40 42 49 48 68 88 88 81 88 88 12 28 88 88 59 0 0 0 0 0 0 0 0 0 0 0 0 0 0 0 0 0 0 0 0 0 0 0 0 0 0 0 0 0 0 0 0 0 0 0 
0 0 0 0 0 0 0 0 0 0 0 0 0 0 0 0 0 0 0 0 0 0 0 0 0 0 0 0 0 0 0 0 0 49 88 70 26 25 58 49 40 33 40 43 31 41 53 54 31 48 52 51 50 51 56 60 66 68 63 60 56 56 43 51 59 62 65 65 69 65 64 60 60 58 34 25 36 35 40 41 48 41 60 67 84 78 79 86 16 45 39 88 88 6 0 0 0 0 0 0 0 0 0 0 0 0 0 0 0 0 0 0 0 0 0 0 0 0 0 0 0 0 0 0 0 0 0 0 
0 0 0 0 0 0 0 0 0 0 0 0 0 0 0 0 0 0 0 0 0 0 0 0 0 0 0 0 0 0 0 0 0 88 88 43 52 19 58 34 46 44 46 49 40 41 57 56 36 48 55 51 54 57 59 63 65 67 66 59 57 57 39 49 56 63 62 63 70 66 62 58 61 56 52 29 41 37 33 38 42 46 51 53 50 77 82 76 21 88 70 83 88 52 0 0 0 0 0 0 0 0 0 0 0 0 0 0 0 0 0 0 0 0 0 0 0 0 0 0 0 0 0 0 0 0 0 0 
0 0 0 0 0 0 0 0 0 0 0 0 0 0 0 0 0 0 0 0 0 0 0 0 0 0 0 0 0 0 0 5 26 88 85 56 52 28 24 32 36 47 44 49 48 45 59 56 42 47 54 54 54 57 63 65 68 68 62 60 57 56 40 47 58 61 65 65 70 69 61 55 59 60 56 36 31 34 31 38 35 41 37 43 51 56 74 49 35 88 51 74 88 88 0 0 0 0 0 0 0 0 0 0 0 0 0 0 0 0 0 0 0 0 0 0 0 0 0 0 0 0 0 0 0 0 0 0 
0 0 0 0 0 0 0 0 0 0 0 0 0 0 0 0 0 0 0 0 0 0 0 0 0 0 0 0 0 0 0 0 67 88 76 53 63 34 14 40 45 40 41 49 58 58 62 59 43 40 51 58 55 59 62 64 70 68 63 61 62 59 46 47 59 62 63 65 68 70 64 52 53 58 57 44 36 35 28 34 37 39 33 39 46 40 48 28 51 88 52 88 61 88 31 0 0 0 0 0 0 0 0 0 0 0 0 0 0 0 0 0 0 0 0 0 0 0 0 0 0 0 0 0 0 0 0 0 
0 0 0 0 0 0 0 0 0 0 0 0 0 0 0 0 0 0 0 0 0 0 0 0 0 0 0 0 0 0 0 0 88 88 63 54 59 41 16 41 55 57 39 44 60 63 60 58 41 31 46 59 56 61 63 64 71 65 64 63 60 59 56 47 59 59 61 64 68 70 68 61 56 61 60 51 41 37 43 31 37 32 44 52 36 26 25 20 49 88 77 77 88 88 88 0 0 0 0 0 0 0 0 0 0 0 0 0 0 0 0 0 0 0 0 0 0 0 0 0 0 0 0 0 0 0 0 0 
0 0 0 0 0 0 0 0 0 0 0 0 0 0 0 0 0 0 0 0 0 0 0 0 0 0 0 0 0 0 0 51 88 71 39 67 72 52 21 47 56 60 57 44 60 61 59 53 55 59 55 52 58 62 66 65 69 63 64 63 62 61 62 52 59 61 64 67 67 67 70 60 61 61 60 56 50 46 48 50 43 37 49 58 37 36 39 18 31 59 70 43 88 88 88 6 0 0 0 0 0 0 0 0 0 0 0 0 0 0 0 0 0 0 0 0 0 0 0 0 0 0 0 0 0 0 0 0 
0 0 0 0 0 0 0 0 0 0 0 0 0 0 0 0 0 0 0 0 0 0 0 0 0 0 0 0 0 0 0 88 88 60 46 63 57 53 17 46 57 63 61 49 56 60 56 56 60 60 60 56 63 62 65 66 67 64 65 65 60 58 59 52 60 62 65 68 66 71 71 63 62 60 61 58 54 51 52 53 44 49 57 59 59 53 49 29 28 52 56 52 73 71 88 54 0 0 0 0 0 0 0 0 0 0 0 0 0 0 0 0 0 0 0 0 0 0 0 0 0 0 0 0 0 0 0 0 
0 0 0 0 0 0 0 0 0 0 0 0 0 0 0 0 0 0 0 0 0 0 0 0 0 0 0 0 0 0 33 88 64 45 59 57 54 36 11 35 55 63 60 53 53 57 56 58 60 65 64 63 67 68 64 68 67 65 64 64 61 60 63 45 63 60 64 68 68 68 70 66 63 58 64 64 52 50 55 57 47 45 56 62 59 59 58 41 26 43 55 62 46 82 88 88 5 0 0 0 0 0 0 0 0 0 0 0 0 0 0 0 0 0 0 0 0 0 0 0 0 0 0 0 0 0 0 0 
0 0 0 0 0 0 0 0 0 0 0 0 0 0 0 0 0 0 0 0 0 0 0 0 0 0 0 0 0 0 79 88 64 51 59 58 59 33 20 53 57 63 60 47 44 45 45 63 61 65 66 71 69 63 66 70 63 63 64 66 63 59 61 46 63 60 65 68 66 68 69 70 65 63 64 63 50 46 52 53 43 38 55 57 61 60 58 41 27 40 69 65 72 78 88 88 17 0 0 0 0 0 0 0 0 0 0 0 0 0 0 0 0 0 0 0 0 0 0 0 0 0 0 0 0 0 0 0 
0 0 0 0 0 0 0 0 0 0 0 0 0 0 0 0 0 0 0 0 0 0 0 0 0 0 0 0 0 6 88 78 49 61 49 60 57 30 33 55 58 63 59 43 40 56 50 54 62 61 62 64 64 65 68 70 66 64 66 66 60 60 58 53 60 59 67 64 67 66 70 67 65 65 63 65 56 58 55 57 39 39 44 54 55 63 56 49 34 50 63 50 77 69 58 88 59 0 0 0 0 0 0 0 0 0 0 0 0 0 0 0 0 0 0 0 0 0 0 0 0 0 0 0 0 0 0 0 
0 0 0 0 0 0 0 0 0 0 0 0 0 0 0 0 0 0 0 0 0 0 0 0 0 0 0 0 0 43 88 57 62 55 61 62 47 23 39 55 61 60 59 43 53 60 62 59 45 55 60 62 64 69 69 70 67 63 67 64 61 60 58 56 61 63 64 65 67 66 73 67 64 65 63 63 58 62 65 62 61 63 60 54 53 57 57 52 42 45 56 59 77 52 65 88 88 0 0 0 0 0 0 0 0 0 0 0 0 0 0 0 0 0 0 0 0 0 0 0 0 0 0 0 0 0 0 0 
0 0 0 0 0 0 0 0 0 0 0 0 0 0 0 0 0 0 0 0 0 0 0 0 0 0 0 0 0 88 88 44 56 70 54 54 48 27 34 56 60 61 52 51 60 62 65 61 62 61 59 61 66 70 68 67 64 63 67 66 60 61 55 57 61 62 64 63 68 66 68 67 67 63 62 60 60 65 63 63 63 61 64 61 49 53 52 44 44 50 79 58 61 53 72 88 75 29 0 0 0 0 0 0 0 0 0 0 0 0 0 0 0 0 0 0 0 0 0 0 0 0 0 0 0 0 0 0 
0 0 0 0 0 0 0 0 0 0 0 0 0 0 0 0 0 0 0 0 0 0 0 0 0 0 0 0 16 88 85 42 59 51 56 56 49 31 37 55 59 59 48 59 61 65 66 65 64 62 59 62 60 65 69 70 63 62 67 67 60 59 59 56 65 60 63 67 64 67 65 72 68 63 64 63 56 64 68 64 62 65 66 61 62 46 36 35 43 54 62 78 55 57 67 88 88 36 0 0 0 0 0 0 0 0 0 0 0 0 0 0 0 0 0 0 0 0 0 0 0 0 0 0 0 0 0 0 
0 0 0 0 0 0 0 0 0 0 0 0 0 0 0 0 0 0 0 0 0 0 0 0 0 0 0 0 46 88 47 50 59 48 57 61 46 28 40 52 60 55 55 62 65 63 65 67 67 64 61 48 56 62 64 71 62 61 65 66 63 59 60 58 59 63 64 65 64 66 65 70 69 69 61 59 58 64 69 66 66 63 63 63 59 60 44 28 32 50 63 60 57 65 48 81 88 72 0 0 0 0 0 0 0 0 0 0 0 0 0 0 0 0 0 0 0 0 0 0 0 0 0 0 0 0 0 0 
0 0 0 0 0 0 0 0 0 0 0 0 0 0 0 0 0 0 0 0 0 0 0 0 0 0 0 0 88 88 34 60 73 49 56 54 52 31 30 43 54 46 62 60 63 62 61 60 61 71 63 60 53 56 62 70 63 55 62 64 64 62 57 54 57 63 63 67 66 61 67 70 65 63 62 60 63 62 69 63 62 63 57 61 61 57 47 37 31 48 61 59 57 81 80 74 88 88 0 0 0 0 0 0 0 0 0 0 0 0 0 0 0 0 0 0 0 0 0 0 0 0 0 0 0 0 0 0 
0 0 0 0 0 0 0 0 0 0 0 0 0 0 0 0 0 0 0 0 0 0 0 0 0 0 0 5 88 88 49 64 65 54 57 58 48 31 31 37 49 51 60 61 61 56 52 53 62 64 69 66 60 65 61 69 64 52 63 66 67 61 51 54 61 64 66 67 61 61 65 66 59 59 50 57 60 67 68 60 62 52 45 56 56 50 42 38 37 43 60 68 51 62 68 71 88 88 9 0 0 0 0 0 0 0 0 0 0 0 0 0 0 0 0 0 0 0 0 0 0 0 0 0 0 0 0 0 
0 0 0 0 0 0 0 0 0 0 0 0 0 0 0 0 0 0 0 0 0 0 0 0 0 0 0 22 88 48 56 62 59 61 73 67 48 36 37 41 21 48 59 59 63 61 61 55 49 64 65 68 67 62 63 68 65 55 61 64 69 59 56 49 60 63 66 66 59 58 66 68 61 62 59 59 63 70 65 63 52 39 35 45 38 31 24 44 50 42 60 63 50 57 66 60 88 88 26 0 0 0 0 0 0 0 0 0 0 0 0 0 0 0 0 0 0 0 0 0 0 0 0 0 0 0 0 0 
0 0 0 0 0 0 0 0 0 0 0 0 0 0 0 0 0 0 0 0 0 0 0 0 0 0 0 66 88 61 58 42 70 82 63 62 34 31 21 12 55 53 52 60 61 62 63 61 47 61 65 68 69 65 63 64 63 57 60 64 66 62 56 42 61 63 67 64 61 56 65 65 63 63 60 63 66 64 65 62 57 39 34 22 36 30 21 16 44 44 64 57 59 44 73 48 88 88 61 0 0 0 0 0 0 0 0 0 0 0 0 0 0 0 0 0 0 0 0 0 0 0 0 0 0 0 0 0 
0 0 0 0 0 0 0 0 0 0 0 0 0 0 0 0 0 0 0 0 0 0 0 0 0 0 0 88 88 63 58 44 88 44 88 40 23 15 13 37 48 59 59 59 63 60 64 51 43 59 63 66 64 67 64 64 61 58 60 65 63 63 51 36 51 62 67 64 63 62 66 69 66 68 64 64 67 65 63 58 61 60 57 46 46 50 45 19 7 24 71 88 55 51 64 59 88 88 88 0 0 0 0 0 0 0 0 0 0 0 0 0 0 0 0 0 0 0 0 0 0 0 0 0 0 0 0 0 
0 0 0 0 0 0 0 0 0 0 0 0 0 0 0 0 0 0 0 0 0 0 0 0 0 0 0 88 69 58 59 59 58 55 88 19 15 21 54 56 54 58 55 58 62 50 40 45 58 61 63 64 65 67 67 68 64 60 61 62 66 62 46 36 24 61 65 64 59 61 62 70 70 67 63 63 65 63 60 61 62 54 60 60 60 52 55 53 28 9 31 63 69 73 48 68 75 88 88 0 0 0 0 0 0 0 0 0 0 0 0 0 0 0 0 0 0 0 0 0 0 0 0 0 0 0 0 0 
0 0 0 0 0 0 0 0 0 0 0 0 0 0 0 0 0 0 0 0 0 0 0 0 0 0 29 88 56 58 57 62 55 55 29 8 23 53 56 58 58 55 58 51 34 40 58 61 58 61 67 62 59 64 68 63 64 61 58 59 67 66 42 39 35 48 67 69 62 59 63 64 69 65 65 64 62 62 63 62 57 37 52 59 61 60 59 59 65 50 24 40 54 84 67 62 59 88 88 25 0 0 0 0 0 0 0 0 0 0 0 0 0 0 0 0 0 0 0 0 0 0 0 0 0 0 0 0 
0 0 0 0 0 0 0 0 0 0 0 0 0 0 0 0 0 0 0 0 0 0 0 0 0 0 69 88 59 60 88 65 53 48 18 14 49 57 57 59 56 59 51 46 41 59 56 59 59 60 65 63 59 62 66 62 60 61 47 62 69 63 42 43 40 43 67 67 61 52 60 63 68 67 67 64 63 60 55 60 46 47 60 62 58 55 48 47 58 61 17 15 52 49 60 53 46 88 88 58 0 0 0 0 0 0 0 0 0 0 0 0 0 0 0 0 0 0 0 0 0 0 0 0 0 0 0 0 
0 0 0 0 0 0 0 0 0 0 0 0 0 0 0 0 0 0 0 0 0 0 0 0 0 0 88 88 65 56 46 50 54 45 16 7 50 58 59 63 58 62 47 38 42 53 58 59 59 60 65 63 60 59 58 59 58 59 54 63 66 66 51 33 34 40 65 66 60 58 58 58 62 66 67 65 62 58 63 41 45 62 59 60 55 53 50 47 51 60 34 7 34 59 52 49 44 88 88 88 0 0 0 0 0 0 0 0 0 0 0 0 0 0 0 0 0 0 0 0 0 0 0 0 0 0 0 0 
0 0 0 0 0 0 0 0 0 0 0 0 0 0 0 0 0 0 0 0 0 0 0 0 0 6 88 77 55 67 51 48 55 32 11 40 67 55 61 62 58 62 46 26 22 36 50 60 62 61 64 64 61 60 61 61 61 59 59 66 67 64 53 35 30 30 66 68 65 61 60 62 62 66 64 68 60 60 58 59 58 57 59 59 61 61 57 53 55 56 46 15 20 61 52 36 57 85 88 88 9 0 0 0 0 0 0 0 0 0 0 0 0 0 0 0 0 0 0 0 0 0 0 0 0 0 0 0 
0 0 0 0 0 0 0 0 0 0 0 0 0 0 0 0 0 0 0 0 0 0 0 0 0 23 88 69 51 70 51 53 50 26 11 42 57 60 63 61 62 61 56 54 58 56 56 57 59 58 58 58 63 62 61 62 57 63 40 65 64 58 31 34 34 19 42 68 56 63 62 61 62 68 63 67 63 61 59 57 53 54 58 61 61 60 63 54 57 58 56 15 24 51 54 38 60 76 86 88 20 0 0 0 0 0 0 0 0 0 0 0 0 0 0 0 0 0 0 0 0 0 0 0 0 0 0 0 
0 0 0 0 0 0 0 0 0 0 0 0 0 0 0 0 0 0 0 0 0 0 0 0 0 47 88 69 44 63 49 48 35 19 4 47 55 61 62 63 60 59 60 53 49 38 32 19 24 36 60 58 56 55 51 37 40 38 36 40 40 33 41 34 38 43 25 28 32 65 60 61 66 62 60 61 61 60 64 51 41 38 48 56 57 63 63 63 63 67 62 40 16 45 60 49 62 47 70 88 45 0 5 0 0 0 0 0 0 0 0 0 0 0 0 0 0 0 0 0 0 0 0 0 0 0 0 0 
0 0 0 0 0 0 0 0 0 0 0 0 0 0 0 0 0 0 0 0 0 0 0 0 0 84 88 51 55 54 51 58 29 8 23 46 57 61 64 65 66 63 58 55 49 55 66 72 46 20 19 30 43 42 44 34 23 23 28 29 48 58 61 52 59 60 54 26 21 31 46 61 60 59 56 54 47 35 34 44 32 32 39 43 54 60 62 62 64 60 61 60 0 30 47 52 46 88 88 88 69 6 7 0 0 0 0 0 0 0 0 0 0 0 0 0 0 0 0 0 0 0 0 0 0 0 0 0 
0 0 0 0 0 0 0 0 0 0 0 0 0 0 0 0 0 0 0 0 0 0 0 0 0 88 73 57 65 49 56 47 7 12 50 54 51 58 55 66 67 64 60 52 63 56 64 60 62 61 61 44 37 38 29 45 41 29 35 31 53 59 55 52 56 64 52 33 25 14 23 23 42 24 32 37 42 52 45 59 57 49 31 35 59 64 69 66 59 53 56 58 30 11 56 59 43 47 72 88 88 0 0 0 0 0 0 0 0 0 0 0 0 0 0 0 0 0 0 0 0 0 0 0 0 0 0 0 
0 0 0 0 0 0 0 0 0 0 0 0 0 0 0 0 0 0 0 0 0 0 0 0 8 88 67 82 64 50 58 41 4 53 55 57 56 52 61 60 65 64 60 53 60 67 67 67 62 63 61 61 67 67 38 40 37 31 33 39 51 49 41 50 46 51 58 37 18 4 29 45 49 49 57 61 66 63 67 68 68 63 63 56 63 63 67 65 57 52 52 58 56 4 49 55 51 58 64 67 88 11 6 0 0 0 0 0 0 0 0 0 0 0 0 0 0 0 0 0 0 0 0 0 0 0 0 0 
0 0 0 0 0 0 0 0 0 0 0 0 0 0 0 0 0 0 0 0 0 0 0 0 25 88 35 54 50 54 63 13 49 53 56 55 59 59 57 58 60 63 62 60 63 64 66 62 61 59 58 61 60 59 58 60 59 44 25 34 33 33 35 88 57 33 38 36 31 29 58 59 62 64 61 62 62 61 60 65 66 67 63 60 60 66 71 64 60 58 55 59 57 18 46 55 55 51 88 51 88 17 8 0 0 0 0 0 0 0 0 0 0 0 0 0 0 0 0 0 0 0 0 0 0 0 0 0 
0 0 0 0 0 0 0 0 0 0 0 0 0 0 0 0 0 0 0 0 0 0 0 0 39 88 36 68 50 62 47 19 58 55 57 57 53 56 58 55 60 62 63 62 62 64 63 67 64 63 62 63 63 59 58 60 58 61 24 28 34 28 28 88 41 33 33 29 27 49 60 61 62 64 62 63 61 61 65 66 67 68 66 64 65 72 67 62 59 63 59 53 45 30 9 57 55 46 62 40 88 35 7 0 0 0 0 0 0 0 0 0 0 0 0 0 0 0 0 0 0 0 0 0 0 0 0 0 
0 0 0 0 0 0 0 0 0 0 0 0 0 0 0 0 0 0 0 0 0 0 0 0 62 88 37 62 63 69 33 33 54 59 58 57 55 55 56 56 61 60 66 66 63 63 68 63 63 63 62 60 62 61 60 57 58 60 31 25 34 26 25 32 33 34 31 31 26 58 61 61 61 63 63 62 63 61 62 67 68 69 68 64 70 66 64 58 51 52 56 49 46 39 7 47 63 60 52 40 82 70 8 0 0 0 0 0 0 0 0 0 0 0 0 0 0 0 0 0 0 0 0 0 0 0 0 0 
0 0 0 0 0 0 0 0 0 0 0 0 0 0 0 0 0 0 0 0 0 0 0 0 86 88 51 59 53 53 25 45 57 61 60 58 48 55 60 58 60 63 66 67 68 66 69 71 65 64 60 60 62 60 58 59 61 58 56 26 39 34 34 35 36 35 32 27 43 62 62 62 60 63 63 61 62 62 67 72 72 71 73 70 70 60 57 59 57 60 58 59 55 69 13 37 52 55 61 63 73 88 0 0 0 0 0 0 0 0 0 0 0 0 0 0 0 0 0 0 0 0 0 0 0 0 0 0 
0 0 0 0 0 0 0 0 0 0 0 0 0 0 0 0 0 0 0 0 0 0 0 0 88 80 46 58 48 46 20 52 53 60 61 62 61 57 57 60 59 66 66 67 66 69 70 68 65 62 60 62 59 61 59 60 61 59 56 36 35 30 27 26 32 35 40 31 50 59 61 60 61 62 62 63 59 63 64 72 72 70 73 71 69 60 59 58 59 59 58 58 62 67 33 21 55 54 50 54 88 88 0 0 0 0 0 0 0 0 0 0 0 0 0 0 0 0 0 0 0 0 0 0 0 0 0 0 
0 0 0 0 0 0 0 0 0 0 0 0 0 0 0 0 0 0 0 0 0 0 0 9 88 28 52 46 51 35 21 54 53 62 62 67 66 65 60 62 62 66 67 66 67 70 70 51 32 27 47 60 60 63 59 61 63 56 51 34 32 33 31 26 30 33 34 31 54 61 63 65 61 62 57 64 61 37 43 49 66 71 72 73 70 63 66 66 63 63 64 63 57 59 41 7 54 54 49 65 51 88 8 0 0 0 0 0 0 0 0 0 0 0 0 0 0 0 0 0 0 0 0 0 0 0 0 0 
0 0 0 0 0 0 0 0 0 0 0 0 0 0 0 0 0 0 0 0 0 0 0 17 88 52 88 59 56 31 32 54 56 60 60 60 66 67 65 66 69 65 67 65 71 73 40 38 57 61 62 57 57 58 62 60 62 57 38 37 36 32 29 35 38 38 25 27 44 56 58 66 63 57 59 57 57 61 60 50 49 74 71 74 71 67 69 66 66 67 64 58 58 55 37 8 41 58 56 72 36 88 24 0 0 0 0 0 0 0 0 0 0 0 0 0 0 0 0 0 0 0 0 0 0 0 0 0 
0 0 0 0 0 0 0 0 0 0 0 0 0 0 0 0 0 0 0 0 0 0 5 29 88 32 80 44 54 18 48 51 56 59 57 61 63 64 65 68 68 69 70 69 69 70 27 53 60 58 59 63 58 60 61 63 60 34 22 30 23 22 22 33 22 36 59 52 23 45 56 63 60 60 58 63 62 61 56 64 46 77 68 75 71 69 68 68 69 65 58 57 54 54 52 12 31 55 50 75 43 88 50 0 0 0 0 0 0 0 0 0 0 0 0 0 0 0 0 0 0 0 0 0 0 0 0 0 
0 0 0 0 0 0 0 0 0 0 0 0 0 0 0 0 0 0 0 0 0 0 0 42 88 63 55 54 62 17 49 55 54 55 58 58 59 63 64 63 69 66 69 69 72 56 34 57 58 62 59 59 59 56 62 61 46 24 39 57 49 33 32 34 29 44 63 66 46 17 44 62 63 59 60 63 64 63 61 65 44 71 69 72 73 71 68 63 63 61 59 55 58 57 50 24 24 59 48 63 45 88 88 0 0 0 0 0 0 0 0 0 0 0 0 0 0 0 0 0 0 0 0 0 0 0 0 0 
0 0 0 0 0 0 0 0 0 0 0 0 0 0 0 0 0 0 0 0 0 0 0 60 88 55 60 55 50 27 53 54 55 61 58 61 58 60 62 60 66 67 66 67 67 58 55 62 61 62 61 59 63 63 66 59 42 31 66 62 61 67 57 61 58 71 68 66 71 36 27 65 61 59 62 59 60 61 63 65 51 63 68 73 77 72 68 62 63 52 51 58 61 56 54 35 24 58 52 56 59 59 88 0 0 0 0 0 0 0 0 0 0 0 0 0 0 0 0 0 0 0 0 0 0 0 0 0 
0 0 0 0 0 0 0 0 0 0 0 0 0 0 0 0 0 0 0 0 0 0 0 63 88 72 57 47 56 35 53 54 56 61 63 61 63 58 55 58 65 68 68 63 63 65 64 62 59 64 64 62 66 67 66 62 37 59 61 63 68 68 63 62 65 65 67 67 67 59 29 59 66 63 64 62 63 63 63 61 63 65 71 67 67 72 69 63 63 58 60 62 63 63 56 46 20 51 56 49 57 79 88 13 0 0 0 0 0 0 0 0 0 0 0 0 0 0 0 0 0 0 0 0 0 0 0 0 
0 0 0 0 0 0 0 0 0 0 0 0 0 0 0 0 0 0 0 0 0 0 0 52 88 52 57 52 51 36 53 54 57 63 60 59 59 54 55 60 64 67 62 59 62 70 66 63 61 63 61 67 68 67 65 60 34 68 63 63 69 65 70 63 69 67 69 66 62 67 29 60 63 66 67 65 65 62 59 63 66 69 67 63 66 70 72 70 69 66 64 63 60 62 56 54 14 55 54 45 50 63 88 19 0 0 0 0 0 0 0 0 0 0 0 0 0 0 0 0 0 0 0 0 0 0 0 0 
0 0 0 0 0 0 0 0 0 0 0 0 0 0 0 0 0 0 0 0 0 0 0 46 88 47 57 53 58 28 44 54 58 57 55 57 57 55 60 58 68 66 63 53 60 67 66 60 59 60 62 66 70 69 61 58 43 67 63 63 66 67 67 66 67 67 68 65 62 68 41 55 62 71 68 66 64 63 61 61 70 71 64 63 63 71 71 68 66 65 65 63 60 56 59 50 9 63 48 49 49 58 88 28 0 0 0 0 0 0 0 0 0 0 0 0 0 0 0 0 0 0 0 0 0 0 0 0 
0 0 0 0 0 0 0 0 0 0 0 0 0 0 0 0 0 0 0 0 0 0 0 35 88 42 54 55 51 31 33 52 55 53 56 55 54 59 56 65 67 59 55 52 58 64 72 58 60 57 56 62 66 68 62 50 59 64 65 63 65 68 67 67 69 66 67 63 64 67 52 44 59 66 66 58 60 60 56 59 68 69 63 57 62 71 66 62 63 61 60 60 58 55 58 47 11 61 51 48 45 58 88 39 0 0 0 0 0 0 0 0 0 0 0 0 0 0 0 0 0 0 0 0 0 0 0 0 
0 0 0 0 0 0 0 0 0 0 0 0 0 0 0 0 0 0 0 0 0 0 0 23 88 45 56 52 51 27 15 42 50 49 56 52 57 57 65 69 63 57 57 57 55 61 67 62 57 45 60 60 63 66 58 44 63 66 64 59 66 66 67 66 69 67 66 62 65 67 58 42 56 63 60 57 51 52 62 63 72 66 61 56 60 72 65 61 56 56 57 57 58 56 51 54 13 18 53 51 51 52 88 39 26 23 0 0 0 0 0 0 0 0 0 0 0 0 0 0 0 0 0 0 0 0 0 0 
0 0 0 0 0 0 0 0 0 0 0 0 0 0 0 0 0 0 0 0 0 0 0 23 88 48 52 56 51 22 8 26 49 53 55 58 58 63 66 68 58 57 59 57 58 57 67 65 61 60 57 59 55 61 44 45 63 67 65 63 67 66 66 64 68 67 67 67 66 68 61 37 51 60 54 59 57 57 62 67 68 63 51 51 64 69 65 60 59 55 52 54 51 56 70 45 20 5 58 50 46 58 88 38 35 45 45 0 0 0 0 0 0 0 0 0 0 0 0 0 0 0 0 0 0 0 0 0 
0 0 0 0 0 0 0 0 0 0 0 0 0 0 0 0 0 0 0 0 0 22 18 28 83 58 44 61 51 22 9 30 53 55 55 56 58 63 63 67 58 54 58 63 60 57 66 65 63 64 61 58 56 41 34 40 63 66 63 64 66 65 68 66 65 68 65 68 66 67 58 38 37 52 40 61 57 63 64 67 67 59 55 54 63 67 62 62 61 56 58 56 58 56 55 39 21 4 55 51 47 67 88 49 29 27 66 0 0 0 0 0 0 0 0 0 0 0 0 0 0 0 0 0 0 0 0 0 
0 0 0 0 0 0 0 0 0 0 0 0 0 0 0 0 0 0 0 0 34 41 34 31 83 71 39 53 60 12 17 35 50 57 58 51 57 61 63 67 59 56 56 64 58 58 62 63 64 63 63 57 58 47 23 35 63 63 66 63 66 66 66 65 66 65 67 66 68 72 56 41 63 56 32 59 58 60 64 65 65 58 56 58 59 66 61 61 60 62 59 58 55 57 54 47 18 2 39 52 49 76 88 64 30 21 51 13 0 0 0 0 0 0 0 0 0 0 0 0 0 0 0 0 0 0 0 0 
0 0 0 0 0 0 0 0 0 0 0 0 0 0 0 0 0 0 0 7 63 38 34 50 63 88 38 52 56 1 20 38 52 56 60 61 60 62 66 66 61 56 57 64 60 60 61 60 62 60 62 57 59 57 57 47 56 68 63 65 63 66 66 63 65 63 64 66 69 64 59 66 55 61 37 53 56 58 60 61 66 61 45 55 56 63 60 64 63 66 63 60 63 58 57 43 14 7 17 72 44 78 72 87 41 7 43 31 5 0 0 0 0 0 0 0 0 0 0 0 0 0 0 0 0 0 0 0 
0 0 0 0 0 0 0 0 0 0 0 0 0 0 0 0 0 0 0 35 66 24 49 56 44 88 43 48 42 1 12 42 57 59 56 61 62 63 66 63 61 58 58 62 68 63 63 58 60 61 58 58 61 58 61 61 55 61 64 65 63 65 64 64 63 64 63 65 63 68 52 57 63 59 65 46 58 59 56 61 63 60 58 55 54 59 62 64 66 65 59 61 61 61 52 36 13 4 1 52 57 88 54 63 45 0 32 43 0 0 0 0 0 0 0 0 0 0 0 0 0 0 0 0 0 0 0 0 
0 0 0 0 0 0 0 0 0 0 0 0 0 0 0 0 0 0 6 69 44 13 53 41 29 86 43 61 26 2 6 35 49 55 58 61 64 63 62 61 59 56 59 63 66 64 63 65 63 58 57 60 60 59 61 66 57 49 60 66 65 66 66 61 65 67 64 64 56 52 55 60 62 63 56 55 52 58 55 62 60 65 58 56 57 54 58 63 64 66 51 63 58 65 50 24 6 4 3 34 42 80 33 41 51 5 24 32 0 0 0 0 0 0 0 0 0 0 0 0 0 0 0 0 0 0 0 0 
0 0 0 0 0 0 0 0 0 0 0 0 0 0 0 0 0 0 5 79 26 5 47 26 15 84 48 70 5 2 4 16 44 52 51 57 60 59 57 51 58 57 61 65 62 58 59 61 58 62 53 51 65 63 66 64 60 55 49 67 65 65 61 45 58 63 64 66 46 49 59 64 63 60 63 63 52 55 59 52 61 61 64 59 57 58 58 60 64 62 49 62 52 32 33 7 5 2 2 7 84 86 17 24 54 6 15 34 7 0 0 0 0 0 0 0 0 0 0 0 0 0 0 0 0 0 0 0 
0 0 0 0 0 0 0 0 0 0 0 0 0 0 0 0 0 0 0 60 15 1 53 25 11 68 72 55 4 13 5 13 24 41 47 54 57 58 59 60 60 61 66 64 61 54 48 57 57 61 54 62 63 63 66 63 63 61 44 63 68 51 41 30 38 41 63 63 41 56 63 65 65 63 61 62 62 45 50 61 59 59 61 63 61 56 57 59 60 60 44 59 49 28 12 4 4 1 1 3 50 72 8 14 55 5 14 38 13 0 0 0 0 0 0 0 0 0 0 0 0 0 0 0 0 0 0 0 
0 0 0 0 0 0 0 0 0 0 0 0 0 0 0 0 0 0 0 53 4 13 53 13 9 67 73 39 9 23 4 9 13 20 23 37 44 61 61 62 64 65 66 63 59 58 44 59 58 59 62 60 61 65 67 64 64 63 49 62 54 24 31 33 29 30 36 63 44 63 63 65 65 63 63 62 62 56 57 58 58 57 59 59 63 59 56 59 59 52 45 58 48 21 15 14 5 4 3 5 64 64 0 8 54 9 11 52 12 0 0 0 0 0 0 0 0 0 0 0 0 0 0 0 0 0 0 0 
0 0 0 0 0 0 0 0 0 0 0 0 0 0 0 0 0 0 8 59 15 32 59 8 9 56 88 23 12 11 8 8 22 6 5 19 53 61 63 63 62 61 63 60 55 52 49 51 63 64 63 63 63 63 65 65 64 65 56 57 52 30 32 31 33 30 38 57 55 63 63 63 64 65 63 62 63 61 59 61 59 57 56 57 60 63 56 59 54 38 50 54 45 23 3 15 2 12 9 2 84 61 0 0 58 12 6 65 23 0 0 0 0 0 0 0 0 0 0 0 0 0 0 0 0 0 0 0 
0 0 0 0 0 0 0 0 0 0 0 0 0 0 0 0 0 0 11 69 41 61 47 8 0 51 88 50 1 8 13 13 9 4 2 35 56 60 63 63 58 57 58 47 45 49 57 63 61 64 63 64 65 64 64 64 64 66 64 61 56 32 31 31 29 31 43 59 58 65 63 63 62 65 63 65 63 61 62 64 62 56 52 57 56 60 58 54 67 30 57 53 38 23 6 13 8 5 4 8 88 57 0 0 48 21 13 79 45 6 0 0 0 0 0 0 0 0 0 0 0 0 0 0 0 0 0 0 
0 0 0 0 0 0 0 0 0 0 0 0 0 0 0 0 0 0 8 55 77 71 40 0 0 45 88 75 7 7 14 7 13 2 14 49 54 60 62 51 43 48 54 54 58 69 57 62 63 60 63 65 64 66 65 65 66 65 61 58 59 32 29 31 32 31 48 56 58 60 65 63 65 64 63 64 63 64 64 61 60 62 57 55 56 53 56 56 31 26 62 58 42 21 6 3 9 6 1 15 88 53 0 0 37 38 28 68 46 0 0 0 0 0 0 0 0 0 0 0 0 0 0 0 0 0 0 0 
0 0 0 0 0 0 0 0 0 0 0 0 0 0 0 0 0 0 0 38 62 55 24 0 0 36 88 88 16 14 18 13 8 3 19 47 55 60 59 43 25 50 48 64 77 62 63 61 60 62 64 62 63 65 68 64 64 63 62 59 57 39 32 31 32 34 50 58 58 60 63 67 62 66 66 63 63 63 64 60 62 61 58 61 58 55 56 45 9 27 48 50 22 17 3 2 3 3 5 31 88 53 0 0 20 55 52 62 30 0 0 0 0 0 0 0 0 0 0 0 0 0 0 0 0 0 0 0 
0 0 0 0 0 0 0 0 0 0 0 0 0 0 0 0 0 0 0 7 27 27 6 0 0 29 88 88 40 20 4 34 3 6 35 62 49 57 57 51 28 47 61 63 60 63 62 63 61 63 67 65 66 64 66 66 64 67 64 62 56 45 35 32 40 36 52 58 62 63 63 64 66 64 64 63 65 63 63 62 60 61 60 58 57 52 50 23 34 29 44 68 45 16 5 2 4 3 12 63 88 54 0 0 6 40 57 32 11 0 0 0 0 0 0 0 0 0 0 0 0 0 0 0 0 0 0 0 
0 0 0 0 0 0 0 0 0 0 0 0 0 0 0 0 0 0 0 0 0 0 0 0 0 20 77 88 56 14 6 41 13 15 31 45 55 67 51 45 52 20 49 59 64 64 65 61 67 63 65 66 64 70 64 66 67 66 66 61 58 55 52 54 52 49 54 62 59 68 63 67 64 65 66 66 61 63 62 69 59 63 65 63 61 58 43 44 51 39 27 53 63 20 15 1 7 5 2 77 88 51 0 0 0 12 18 15 0 0 0 0 0 0 0 0 0 0 0 0 0 0 0 0 0 0 0 0 
0 0 0 0 0 0 0 0 0 0 0 0 0 0 0 0 0 0 0 0 0 0 0 0 0 9 75 88 88 5 13 38 25 33 22 36 26 61 52 49 57 54 60 61 58 64 68 62 66 67 65 62 70 69 67 64 71 66 61 64 59 56 64 66 63 61 62 60 58 64 68 63 67 65 65 63 65 67 62 67 67 63 69 62 62 58 53 58 57 52 29 50 36 26 25 17 9 5 14 88 88 46 5 0 8 4 7 0 5 0 0 0 0 0 0 0 0 0 0 0 0 0 0 0 0 0 0 0 
0 0 0 0 0 0 0 0 0 0 0 0 0 0 0 0 0 0 0 0 0 0 0 0 6 6 66 88 88 23 5 18 38 15 8 9 13 53 55 60 59 62 63 54 64 66 73 63 63 65 65 66 70 67 68 67 69 66 62 61 63 63 58 65 63 60 63 61 55 63 70 62 70 63 65 64 67 70 61 71 63 63 70 61 63 48 60 52 57 63 41 37 46 26 39 28 8 4 31 88 88 38 5 0 7 5 8 0 0 0 0 0 0 0 0 0 0 0 0 0 0 0 0 0 0 0 0 0 
0 0 0 0 0 0 0 0 0 0 0 0 0 0 0 0 0 0 0 0 0 0 0 0 0 6 58 88 88 47 1 17 19 21 13 22 23 39 61 61 57 60 59 59 63 63 68 64 61 65 69 65 67 63 68 68 68 65 65 61 62 68 56 64 64 63 63 65 62 63 73 57 68 60 61 62 64 68 62 66 62 64 67 61 58 51 54 56 53 61 53 32 35 5 15 32 14 9 62 88 80 28 0 0 5 0 0 0 0 0 0 0 0 0 0 0 0 0 0 0 0 0 0 0 0 0 0 0 
0 0 0 0 0 0 0 0 0 0 0 0 0 0 0 0 0 0 0 0 0 0 0 0 0 0 43 88 88 74 13 26 5 13 5 4 7 39 60 62 59 59 59 64 58 55 61 66 60 64 64 67 67 62 67 68 65 67 65 62 67 64 63 67 66 66 60 66 64 63 63 62 63 62 67 68 69 63 63 60 63 62 62 61 56 54 62 56 60 56 61 41 26 13 24 36 17 2 88 88 64 13 0 0 0 0 0 0 0 0 0 0 0 0 0 0 0 0 0 0 0 0 0 0 0 0 0 0 
0 0 0 0 0 0 0 0 0 0 0 0 0 0 0 0 0 0 0 0 0 0 0 0 0 0 25 81 88 88 47 40 7 17 2 3 3 41 59 61 63 63 64 62 60 60 62 66 63 62 66 64 67 65 65 67 67 65 64 68 65 63 66 64 66 64 65 63 64 61 68 64 63 66 64 65 64 61 64 63 65 60 58 59 56 62 63 62 59 59 55 40 14 24 36 13 0 49 88 85 49 0 0 0 0 0 0 0 0 0 0 0 0 0 0 0 0 0 0 0 0 0 0 0 0 0 0 0 
0 0 0 0 0 0 0 0 0 0 0 0 0 0 0 0 0 0 0 0 0 0 0 0 0 0 15 72 88 88 55 12 13 13 16 8 17 42 59 60 63 60 60 62 65 64 67 64 65 65 68 66 66 67 67 65 66 66 64 68 64 64 65 63 63 62 63 61 65 63 65 67 65 66 63 67 66 62 64 63 65 61 63 61 62 63 61 57 58 60 59 40 33 28 19 9 8 74 88 88 26 0 0 0 0 0 0 0 0 0 0 0 0 0 0 0 0 0 0 0 0 0 0 0 0 0 0 0 
0 0 0 0 0 0 0 0 0 0 0 0 0 0 0 0 0 0 0 0 0 0 0 0 0 0 0 48 88 88 58 32 0 16 19 21 18 45 59 59 62 62 60 60 62 60 64 63 63 65 66 67 68 66 66 66 67 66 67 66 64 65 63 65 64 64 63 63 64 64 66 67 65 65 65 66 64 63 64 62 63 63 58 61 61 60 60 58 59 56 60 24 28 22 9 2 59 88 88 54 0 0 0 0 0 0 0 0 0 0 0 0 0 0 0 0 0 0 0 0 0 0 0 0 0 0 0 0 
0 0 0 0 0 0 0 0 0 0 0 0 0 0 0 0 0 0 0 0 0 0 0 0 0 0 5 34 71 88 88 88 4 25 27 33 30 42 55 59 60 63 61 64 61 60 63 63 64 65 65 66 67 67 67 67 67 68 67 65 64 65 63 63 63 63 64 62 65 64 67 67 63 66 66 63 66 67 62 63 62 59 63 61 62 63 58 60 60 58 49 15 16 30 3 20 88 88 74 40 0 0 0 0 0 0 0 0 0 0 0 0 0 0 0 0 0 0 0 0 0 0 0 0 0 0 0 0 
0 0 0 0 0 0 0 0 0 0 0 0 0 0 0 0 0 0 0 0 0 0 0 0 0 0 0 13 58 88 88 88 44 17 8 8 26 41 56 59 61 63 63 62 63 62 64 61 63 67 66 65 65 68 68 68 66 68 67 66 62 64 63 64 63 63 65 62 66 65 65 65 65 64 64 65 63 63 64 63 62 58 61 63 59 63 58 61 59 57 29 32 13 25 13 72 88 88 59 8 0 0 0 0 0 0 0 0 0 0 0 0 0 0 0 0 0 0 0 0 0 0 0 0 0 0 0 0 
0 0 0 0 0 0 0 0 0 0 0 0 0 0 0 0 0 0 0 0 0 0 0 0 0 0 0 0 39 76 88 88 70 19 7 21 18 35 55 59 60 61 62 63 63 62 65 61 60 64 64 64 64 64 65 65 67 68 67 66 65 64 64 64 62 63 64 63 65 65 65 65 66 65 64 66 64 64 63 62 63 63 61 61 63 60 62 54 54 55 11 54 16 2 23 88 88 71 40 0 0 0 0 0 0 0 0 0 0 0 0 0 0 0 0 0 0 0 0 0 0 0 0 0 0 0 0 0 
0 0 0 0 0 0 0 0 0 0 0 0 0 0 0 0 0 0 0 0 0 0 0 0 0 0 0 0 12 59 84 88 88 46 4 4 49 11 48 57 59 60 62 63 63 65 62 65 63 63 66 62 67 67 66 68 66 65 67 65 66 66 63 64 62 63 66 66 66 64 66 64 65 63 64 64 62 63 63 61 62 61 62 63 60 61 57 59 55 27 39 47 11 13 88 88 88 56 8 0 0 0 0 0 0 0 0 0 0 0 0 0 0 0 0 0 0 0 0 0 0 0 0 0 0 0 0 0 
0 0 0 0 0 0 0 0 0 0 0 0 0 0 0 0 0 0 0 0 0 0 0 0 0 0 0 0 0 36 88 88 88 85 11 3 30 42 23 58 60 59 60 61 63 63 64 63 65 65 65 66 65 64 66 66 64 67 64 65 63 63 63 63 63 64 62 64 64 67 66 67 63 63 63 64 64 65 63 63 63 64 62 62 60 60 59 56 50 9 66 16 4 69 88 88 74 42 6 0 0 0 0 0 0 0 0 0 0 0 0 0 0 0 0 0 0 0 0 0 0 0 0 0 0 0 0 0 
0 0 0 0 0 0 0 0 0 0 0 0 0 0 0 0 0 0 0 0 0 0 0 0 0 0 0 0 0 5 56 88 88 88 88 4 13 55 17 45 58 60 59 61 62 63 65 64 64 64 63 63 65 64 65 65 63 64 64 66 64 64 61 64 59 60 61 63 62 60 62 62 63 64 63 63 61 62 63 62 63 61 63 64 59 55 58 58 16 48 16 5 31 88 88 88 56 5 0 0 0 0 0 0 0 0 0 0 0 0 0 0 0 0 0 0 0 0 0 0 0 0 0 0 0 0 0 0 
0 0 0 0 0 0 0 0 0 0 0 0 0 0 0 0 0 0 0 0 0 0 0 0 0 0 0 0 0 0 30 66 88 88 88 25 4 20 48 16 57 61 59 61 62 62 64 65 63 64 64 62 65 62 63 63 64 64 66 65 65 63 62 54 45 58 60 63 60 63 61 62 61 63 63 62 63 61 61 63 61 61 62 61 61 59 57 30 28 20 1 48 88 88 88 59 31 0 0 0 0 0 0 0 0 0 0 0 0 0 0 0 0 0 0 0 0 0 0 0 0 0 0 0 0 0 0 0 
0 0 0 0 0 0 0 0 0 0 0 0 0 0 0 0 0 0 0 0 0 0 0 0 0 0 0 0 0 0 0 47 71 88 88 88 9 3 23 50 20 60 56 61 61 58 61 65 64 62 63 64 63 63 64 63 66 64 63 66 63 60 60 28 62 59 63 64 63 61 62 62 61 63 64 61 62 61 63 61 63 61 61 62 56 61 32 15 25 0 42 88 88 88 81 49 0 0 0 0 0 0 0 0 0 0 0 0 0 0 0 0 0 0 0 0 0 0 0 0 0 0 0 0 0 0 0 0 
0 0 0 0 0 0 0 0 0 0 0 0 0 0 0 0 0 0 0 0 0 0 0 0 0 0 0 0 0 0 0 15 62 86 88 88 77 9 6 28 32 24 63 59 59 61 63 62 63 63 64 62 63 63 63 62 63 63 63 65 64 62 63 36 63 59 62 62 63 63 63 62 62 60 61 63 62 62 63 63 62 60 60 57 60 37 5 14 0 41 88 88 88 79 62 13 0 0 0 0 0 0 0 0 0 0 0 0 0 0 0 0 0 0 0 0 0 0 0 0 0 0 0 0 0 0 0 0 
0 0 0 0 0 0 0 0 0 0 0 0 0 0 0 0 0 0 0 0 0 0 0 0 0 0 0 0 0 0 0 0 28 64 88 88 88 80 21 1 29 13 34 63 58 59 60 61 63 63 63 64 64 66 61 64 63 62 61 63 62 60 58 38 30 65 62 60 62 63 61 63 63 64 61 62 63 61 63 58 59 59 58 63 40 1 6 6 62 88 88 88 79 65 33 0 0 0 0 0 0 0 0 0 0 0 0 0 0 0 0 0 0 0 0 0 0 0 0 0 0 0 0 0 0 0 0 0 
0 0 0 0 0 0 0 0 0 0 0 0 0 0 0 0 0 0 0 0 0 0 0 0 0 0 0 0 0 0 0 0 0 49 71 88 88 88 82 34 0 20 2 33 67 59 59 62 62 63 63 62 59 61 58 59 61 61 65 61 62 62 62 43 45 61 63 62 61 59 62 64 60 63 64 62 62 58 61 56 60 59 66 27 1 5 11 54 59 88 88 88 84 42 0 0 0 0 0 0 0 0 0 0 0 0 0 0 0 0 0 0 0 0 0 0 0 0 0 0 0 0 0 0 0 0 0 0 
0 0 0 0 0 0 0 0 0 0 0 0 0 0 0 0 0 0 0 0 0 0 0 0 0 0 0 0 0 0 0 0 0 7 55 87 88 88 88 79 33 2 13 4 17 49 61 61 61 60 61 60 58 59 56 58 62 58 62 61 61 60 60 44 54 60 62 63 61 60 62 59 58 61 63 58 59 61 59 59 57 39 13 2 5 24 18 24 88 88 88 82 55 0 0 0 0 0 0 0 0 0 0 0 0 0 0 0 0 0 0 0 0 0 0 0 0 0 0 0 0 0 0 0 0 0 0 0 
0 0 0 0 0 0 0 0 0 0 0 0 0 0 0 0 0 0 0 0 0 0 0 0 0 0 0 0 0 0 0 0 0 0 17 58 88 88 88 88 88 38 11 5 5 5 29 52 60 65 60 57 62 60 53 57 57 60 61 59 60 55 57 42 58 54 58 60 60 57 61 60 55 58 60 58 60 56 58 56 33 3 5 4 26 49 88 88 88 88 83 60 19 0 0 0 0 0 0 0 0 0 0 0 0 0 0 0 0 0 0 0 0 0 0 0 0 0 0 0 0 0 0 0 0 0 0 0 
0 0 0 0 0 0 0 0 0 0 0 0 0 0 0 0 0 0 0 0 0 0 0 0 0 0 0 0 0 0 0 0 0 0 0 31 65 88 88 88 88 75 38 20 9 13 9 14 36 46 58 60 59 60 55 52 54 61 59 58 59 45 38 17 34 59 58 57 59 56 58 52 58 60 61 56 54 55 45 14 3 4 5 20 59 88 88 88 88 81 60 35 5 0 0 0 0 0 0 0 0 0 0 0 0 0 0 0 0 0 0 0 0 0 0 0 0 0 0 0 0 0 0 0 0 0 0 0 
0 0 0 0 0 0 0 0 0 0 0 0 0 0 0 0 0 0 0 0 0 0 0 0 0 0 0 0 0 0 0 0 0 0 0 5 34 63 88 88 88 88 88 69 33 11 8 12 7 13 18 31 41 50 56 50 57 58 60 57 53 27 23 18 19 45 58 56 57 58 53 51 58 46 41 37 25 13 2 1 6 22 47 86 67 88 88 88 79 74 49 0 0 0 0 0 0 0 0 0 0 0 0 0 0 0 0 0 0 0 0 0 0 0 0 0 0 0 0 0 0 0 0 0 0 0 0 0 
0 0 0 0 0 0 0 0 0 0 0 0 0 0 0 0 0 0 0 0 0 0 0 0 0 0 0 0 0 0 0 0 0 0 0 0 5 41 64 86 88 88 88 88 88 47 31 9 8 12 7 13 12 19 25 30 33 36 38 26 21 37 39 76 77 12 28 40 36 31 32 25 18 16 13 4 4 13 22 34 57 75 63 88 88 88 88 83 78 56 5 0 0 0 0 0 0 0 0 0 0 0 0 0 0 0 0 0 0 0 0 0 0 0 0 0 0 0 0 0 0 0 0 0 0 0 0 0 
0 0 0 0 0 0 0 0 0 0 0 0 0 0 0 0 0 0 0 0 0 0 0 0 0 0 0 0 0 0 0 0 0 0 0 0 0 0 29 59 80 78 88 88 88 88 68 52 37 13 12 8 12 15 28 33 35 36 43 68 87 88 77 88 88 65 86 68 58 54 51 39 33 25 16 14 21 33 50 64 67 79 88 88 88 88 87 74 51 8 0 0 0 0 0 0 0 0 0 0 0 0 0 0 0 0 0 0 0 0 0 0 0 0 0 0 0 0 0 0 0 0 0 0 0 0 0 0 
0 0 0 0 0 0 0 0 0 0 0 0 0 0 0 0 0 0 0 0 0 0 0 0 0 0 0 0 0 0 0 0 0 0 0 0 0 0 0 12 51 71 82 88 88 88 88 88 53 61 42 36 22 17 17 25 30 41 44 52 62 61 77 77 79 86 77 70 60 46 37 31 24 27 32 45 67 70 63 88 88 88 88 88 83 84 68 51 7 0 0 0 0 0 0 0 0 0 0 0 0 0 0 0 0 0 0 0 0 0 0 0 0 0 0 0 0 0 0 0 0 0 0 0 0 0 0 0 
0 0 0 0 0 0 0 0 0 0 0 0 0 0 0 0 0 0 0 0 0 0 0 0 0 0 0 0 0 0 0 0 0 0 0 0 0 0 0 0 0 33 58 80 84 88 88 88 88 39 44 50 49 42 31 22 16 12 14 19 21 28 36 36 38 42 38 31 23 15 19 26 38 44 57 60 60 88 88 88 88 88 68 74 71 56 44 0 0 0 0 0 0 0 0 0 0 0 0 0 0 0 0 0 0 0 0 0 0 0 0 0 0 0 0 0 0 0 0 0 0 0 0 0 0 0 0 0 
0 0 0 0 0 0 0 0 0 0 0 0 0 0 0 0 0 0 0 0 0 0 0 0 0 0 0 0 0 0 0 0 0 0 0 0 0 0 0 0 0 0 8 45 65 88 88 75 78 88 88 41 58 65 43 40 25 29 18 14 11 9 13 13 11 12 4 2 5 19 38 57 68 88 88 88 88 88 88 88 76 76 67 52 46 17 0 0 0 0 0 0 0 0 0 0 0 0 0 0 0 0 0 0 0 0 0 0 0 0 0 0 0 0 0 0 0 0 0 0 0 0 0 0 0 0 0 0 
0 0 0 0 0 0 0 0 0 0 0 0 0 0 0 0 0 0 0 0 0 0 0 0 0 0 0 0 0 0 0 0 0 0 0 0 0 0 0 0 0 0 0 0 32 51 84 88 88 88 88 88 88 64 84 57 66 60 21 6 14 34 33 24 40 45 49 64 83 88 88 88 88 88 88 88 88 88 67 62 62 53 41 14 0 0 0 0 0 0 0 0 0 0 0 0 0 0 0 0 0 0 0 0 0 0 0 0 0 0 0 0 0 0 0 0 0 0 0 0 0 0 0 0 0 0 0 0 
0 0 0 0 0 0 0 0 0 0 0 0 0 0 0 0 0 0 0 0 0 0 0 0 0 0 0 0 0 0 0 0 0 0 0 0 0 0 0 0 0 0 0 0 0 13 43 58 62 65 88 88 88 88 88 88 88 83 52 55 88 88 88 88 88 88 88 88 88 88 88 88 88 88 88 77 65 55 56 50 31 6 0 0 0 0 0 0 0 0 0 0 0 0 0 0 0 0 0 0 0 0 0 0 0 0 0 0 0 0 0 0 0 0 0 0 0 0 0 0 0 0 0 0 0 0 0 0 
0 0 0 0 0 0 0 0 0 0 0 0 0 0 0 0 0 0 0 0 0 0 0 0 0 0 0 0 0 0 0 0 0 0 0 0 0 0 0 0 0 0 0 0 0 0 0 16 42 58 62 69 83 88 88 88 88 88 88 88 88 88 88 88 88 88 88 88 88 88 88 88 78 56 57 59 52 42 20 0 0 0 0 0 0 0 0 0 0 0 0 0 0 0 0 0 0 0 0 0 0 0 0 0 0 0 0 0 0 0 0 0 0 0 0 0 0 0 0 0 0 0 0 0 0 0 0 0 
0 0 0 0 0 0 0 0 0 0 0 0 0 0 0 0 0 0 0 0 0 0 0 0 0 0 0 0 0 0 0 0 0 0 0 0 0 0 0 0 0 0 0 0 0 0 0 0 0 15 43 57 64 58 63 60 66 75 85 88 88 88 88 88 88 70 56 49 55 57 55 57 59 56 45 30 13 0 0 0 0 0 0 0 0 0 0 0 0 0 0 0 0 0 0 0 0 0 0 0 0 0 0 0 0 0 0 0 0 0 0 0 0 0 0 0 0 0 0 0 0 0 0 0 0 0 0 0 
0 0 0 0 0 0 0 0 0 0 0 0 0 0 0 0 0 0 0 0 0 0 0 0 0 0 0 0 0 0 0 0 0 0 0 0 0 0 0 0 0 0 0 0 0 0 0 0 0 0 0 11 31 43 52 55 57 62 57 54 57 65 62 59 53 56 53 52 48 44 40 31 21 8 0 0 0 0 0 0 0 0 0 0 0 0 0 0 0 0 0 0 0 0 0 0 0 0 0 0 0 0 0 0 0 0 0 0 0 0 0 0 0 0 0 0 0 0 0 0 0 0 0 0 0 0 0 0 
0 0 0 0 0 0 0 0 0 0 0 0 0 0 0 0 0 0 0 0 0 0 0 0 0 0 0 0 0 0 0 0 0 0 0 0 0 0 0 0 0 0 0 0 0 0 0 0 0 0 0 0 0 0 0 9 12 18 29 45 49 55 46 44 37 26 15 8 0 0 0 0 0 0 0 0 0 0 0 0 0 0 0 0 0 0 0 0 0 0 0 0 0 0 0 0 0 0 0 0 0 0 0 0 0 0 0 0 0 0 0 0 0 0 0 0 0 0 0 0 0 0 0 0 0 0 0 0 
0 0 0 0 0 0 0 0 0 0 0 0 0 0 0 0 0 0 0 0 0 0 0 0 0 0 0 0 0 0 0 0 0 0 0 0 0 0 0 0 0 0 0 0 0 0 0 0 0 0 0 0 0 0 0 0 0 0 0 0 6 12 14 5 0 0 0 0 0 0 0 0 0 0 0 0 0 0 0 0 0 0 0 0 0 0 0 0 0 0 0 0 0 0 0 0 0 0 0 0 0 0 0 0 0 0 0 0 0 0 0 0 0 0 0 0 0 0 0 0 0 0 0 0 0 0 0 0 
0 0 0 0 0 0 0 0 0 0 0 0 0 0 0 0 0 0 0 0 0 0 0 0 0 0 0 0 0 0 0 0 0 0 0 0 0 0 0 0 0 0 0 0 0 0 0 0 0 0 0 0 0 0 0 0 0 0 0 0 0 0 0 0 0 0 0 0 0 0 0 0 0 0 0 0 0 0 0 0 0 0 0 0 0 0 0 0 0 0 0 0 0 0 0 0 0 0 0 0 0 0 0 0 0 0 0 0 0 0 0 0 0 0 0 0 0 0 0 0 0 0 0 0 0 0 0 0 
