P2
128 128
88
0 0 0 0 0 0 0 0 0 0 0 0 0 0 0 0 0 0 0 0 0 0 0 0 0 0 0 0 0 0 0 0 0 0 0 0 0 0 0 0 0 0 0 0 0 0 0 0 0 0 0 0 0 0 0 0 0 0 0 0 0 0 0 0 0 0 0 0 0 0 0 0 0 0 0 0 0 0 0 0 0 0 0 0 0 0 0 0 0 0 0 0 0 0 0 0 0 0 0 0 0 0 0 0 0 0 0 0 0 0 0 0 0 0 0 0 0 0 0 0 0 0 0 0 0 0 0 0 
0 0 0 0 0 0 0 0 0 0 0 0 0 0 0 0 0 0 0 0 0 0 0 0 0 0 0 0 0 0 0 0 0 0 0 0 0 0 0 0 0 0 0 0 0 0 0 0 0 0 0 0 0 0 0 0 0 0 0 0 0 0 0 0 0 0 0 0 0 0 0 0 0 0 0 0 0 0 0 0 0 0 0 0 0 0 0 0 0 0 0 0 0 0 0 0 0 0 0 0 0 0 0 0 0 0 0 0 0 0 0 0 0 0 0 0 0 0 0 0 0 0 0 0 0 0 0 0 
0 0 0 0 0 0 0 0 0 0 0 0 0 0 0 0 0 0 0 0 0 0 0 0 0 0 0 0 0 0 0 0 0 0 0 0 0 0 0 0 0 0 0 0 0 0 0 0 0 0 0 0 0 0 0 0 0 0 0 0 0 0 0 0 0 0 0 0 0 0 0 0 0 0 0 0 0 0 0 0 0 0 0 0 0 0 0 0 0 0 0 0 0 0 0 0 0 0 0 0 0 0 0 0 0 0 0 0 0 0 0 0 0 0 0 0 0 0 0 0 0 0 0 0 0 0 0 0 
0 0 0 0 0 0 0 0 0 0 0 0 0 0 0 0 0 0 0 0 0 0 0 0 0 0 0 0 0 0 0 0 0 0 0 0 0 0 0 0 0 0 0 0 0 0 0 0 0 0 0 0 0 0 0 0 0 0 0 0 0 0 0 0 0 0 0 0 0 0 0 0 0 0 0 0 0 0 0 0 0 0 0 0 0 0 0 0 0 0 0 0 0 0 0 0 0 0 0 0 0 0 0 0 0 0 0 0 0 0 0 0 0 0 0 0 0 0 0 0 0 0 0 0 0 0 0 0 
0 0 0 0 0 0 0 0 0 0 0 0 0 0 0 0 0 0 0 0 0 0 0 0 0 0 0 0 0 0 0 0 0 0 0 0 0 0 0 0 0 0 0 0 0 0 0 0 0 0 0 0 0 0 0 0 0 0 0 0 0 0 0 0 0 0 0 0 0 0 0 0 0 0 0 0 0 0 0 0 0 0 0 0 0 0 0 0 0 0 0 0 0 0 0 0 0 0 0 0 0 0 0 0 0 0 0 0 0 0 0 0 0 0 0 0 0 0 0 0 0 0 0 0 0 0 0 0 
0 0 0 0 0 0 0 0 0 0 0 0 0 0 0 0 0 0 0 0 0 0 0 0 0 0 0 0 0 0 0 0 0 0 0 0 0 0 0 0 0 0 0 0 0 0 0 0 0 0 0 0 0 0 0 0 0 0 0 0 0 0 0 0 0 0 0 0 0 0 0 0 0 0 0 0 0 0 0 0 0 0 0 0 0 0 0 0 0 0 0 0 0 0 0 0 0 0 0 0 0 0 0 0 0 0 0 0 0 0 0 0 0 0 0 0 0 0 0 0 0 0 0 0 0 0 0 0 
0 0 0 0 0 0 0 0 0 0 0 0 0 0 0 0 0 0 0 0 0 0 0 0 0 0 0 0 0 0 0 0 0 0 0 0 0 0 0 0 0 0 0 0 0 0 0 0 0 0 0 0 0 0 0 0 0 0 0 0 0 0 0 0 0 0 0 0 0 0 0 0 0 0 0 0 0 0 0 0 0 0 0 0 0 0 0 0 0 0 0 0 0 0 0 0 0 0 0 0 0 0 0 0 0 0 0 0 0 0 0 0 0 0 0 0 0 0 0 0 0 0 0 0 0 0 0 0 
0 0 0 0 0 0 0 0 0 0 0 0 0 0 0 0 0 0 0 0 0 0 0 0 0 0 0 0 0 0 0 0 0 0 0 0 0 0 0 0 0 0 0 0 0 0 0 0 0 0 0 0 0 0 0 0 0 0 0 0 0 0 0 0 0 0 0 0 0 0 0 0 0 0 0 0 0 0 0 0 0 0 0 0 0 0 0 0 0 0 0 0 0 0 0 0 0 0 0 0 0 0 0 0 0 0 0 0 0 0 0 0 0 0 0 0 0 0 0 0 0 0 0 0 0 0 0 0 
0 0 0 0 0 0 0 0 0 0 0 0 0 0 0 0 0 0 0 0 0 0 0 0 0 0 0 0 0 0 0 0 0 0 0 0 0 0 0 0 0 0 0 0 0 0 0 0 0 0 0 0 0 0 0 0 0 0 0 0 0 0 0 0 0 0 0 0 0 0 0 0 0 0 0 0 0 0 0 0 0 0 0 0 0 0 0 0 0 0 0 0 0 0 0 0 0 0 0 0 0 0 0 0 0 0 0 0 0 0 0 0 0 0 0 0 0 0 0 0 0 0 0 0 0 0 0 0 
0 0 0 0 0 0 0 0 0 0 0 0 0 0 0 0 0 0 0 0 0 0 0 0 0 0 0 0 0 0 0 0 0 0 0 0 0 0 0 0 0 0 0 0 0 0 0 0 0 0 0 0 0 0 0 0 0 0 0 0 0 0 0 0 0 0 0 0 0 0 0 0 0 0 0 0 0 0 0 0 0 0 0 0 0 0 0 0 0 0 0 0 0 0 0 0 0 0 0 0 0 0 0 0 0 0 0 0 0 0 0 0 0 0 0 0 0 0 0 0 0 0 0 0 0 0 0 0 
0 0 0 0 0 0 0 0 0 0 0 0 0 0 0 0 0 0 0 0 0 0 0 0 0 0 0 0 0 0 0 0 0 0 0 0 0 0 0 0 0 0 0 0 0 0 0 0 0 0 0 0 0 0 0 0 0 0 0 0 0 0 0 0 0 0 0 0 0 0 0 0 0 0 0 0 0 0 0 0 0 0 0 0 0 0 0 0 0 0 0 0 0 0 0 0 0 0 0 0 0 0 0 0 0 0 0 0 0 0 0 0 0 0 0 0 0 0 0 0 0 0 0 0 0 0 0 0 
0 0 0 0 0 0 0 0 0 0 0 0 0 0 0 0 0 0 0 0 0 0 0 0 0 0 0 0 0 0 0 0 0 0 0 0 0 0 0 0 0 0 0 0 0 0 0 0 0 0 0 0 0 0 0 0 0 0 0 0 0 0 0 0 0 0 0 0 0 0 0 0 0 0 0 0 0 0 0 0 0 0 0 0 0 0 0 0 0 0 0 0 0 0 0 0 0 0 0 0 0 0 0 0 0 0 0 0 0 0 0 0 0 0 0 0 0 0 0 0 0 0 0 0 0 0 0 0 
0 0 0 0 0 0 0 0 0 0 0 0 0 0 0 0 0 0 0 0 0 0 0 0 0 0 0 0 0 0 0 0 0 0 0 0 0 0 0 0 0 0 0 0 0 0 0 0 0 0 0 0 0 0 0 0 0 0 0 0 0 0 0 0 0 0 0 0 0 0 0 0 0 0 0 0 0 0 0 0 0 0 0 0 0 0 0 0 0 0 0 0 0 0 0 0 0 0 0 0 0 0 0 0 0 0 0 0 0 0 0 0 0 0 0 0 0 0 0 0 0 0 0 0 0 0 0 0 
0 0 0 0 0 0 0 0 0 0 0 0 0 0 0 0 0 0 0 0 0 0 0 0 0 0 0 0 0 0 0 0 0 0 0 0 0 0 0 0 0 0 0 0 0 0 0 0 0 0 0 0 0 0 0 0 0 0 0 0 0 0 0 0 0 0 0 0 0 0 0 0 0 0 0 0 0 0 0 0 0 0 0 0 0 0 0 0 0 0 0 0 0 0 0 0 0 0 0 0 0 0 0 0 0 0 0 0 0 0 0 0 0 0 0 0 0 0 0 0 0 0 0 0 0 0 0 0 
0 0 0 0 0 0 0 0 0 0 0 0 0 0 0 0 0 0 0 0 0 0 0 0 0 0 0 0 0 0 0 0 0 0 0 0 0 0 0 0 0 0 0 0 0 0 0 0 0 0 0 0 0 0 0 0 0 0 0 0 0 0 0 0 0 0 0 0 0 0 0 0 0 0 0 0 0 0 0 0 0 0 0 0 0 0 0 0 0 0 0 0 0 0 0 0 0 0 0 0 0 0 0 0 0 0 0 0 0 0 0 0 0 0 0 0 0 0 0 0 0 0 0 0 0 0 0 0 
0 0 0 0 0 0 0 0 0 0 0 0 0 0 0 0 0 0 0 0 0 0 0 0 0 0 0 0 0 0 0 0 0 0 0 0 0 0 0 0 0 0 0 0 0 0 0 0 0 0 0 0 0 0 0 0 0 0 0 0 0 0 0 0 0 0 0 0 0 0 0 0 0 0 0 0 0 0 0 0 0 0 0 0 0 0 0 0 0 0 0 0 0 0 0 0 0 0 0 0 0 0 0 0 0 0 0 0 0 0 0 0 0 0 0 0 0 0 0 0 0 0 0 0 0 0 0 0 
0 0 0 0 0 0 0 0 0 0 0 0 0 0 0 0 0 0 0 0 0 0 0 0 0 0 0 0 0 0 0 0 0 0 0 0 0 0 0 0 0 0 0 0 0 0 0 0 0 0 0 0 0 0 6 20 25 54 65 73 87 88 88 88 88 88 88 78 67 41 18 0 0 0 0 0 0 0 0 0 0 0 0 0 0 0 0 0 0 0 0 0 0 0 0 0 0 0 0 0 0 0 0 0 0 0 0 0 0 0 0 0 0 0 0 0 0 0 0 0 0 0 0 0 0 0 0 0 
0 0 0 0 0 0 0 0 0 0 0 0 0 0 0 0 0 0 0 0 0 0 0 0 0 0 0 0 0 0 0 0 0 0 0 0 0 0 0 0 0 0 0 0 0 0 0 0 0 0 0 30 88 88 88 88 88 88 88 88 88 88 88 88 88 88 88 88 88 88 88 88 88 67 14 0 0 0 0 0 0 0 0 0 0 0 0 0 0 0 0 0 0 0 0 0 0 0 0 0 0 0 0 0 0 0 0 0 0 0 0 0 0 0 0 0 0 0 0 0 0 0 0 0 0 0 0 0 
0 0 0 0 0 0 0 0 0 0 0 0 0 0 0 0 0 0 0 0 0 0 0 0 0 0 0 0 0 0 0 0 0 0 0 0 0 0 0 0 0 0 0 0 0 0 0 0 11 85 88 88 88 88 54 61 88 88 50 40 68 51 28 27 24 36 37 64 88 56 88 88 88 88 88 88 49 0 0 0 0 0 0 0 0 0 0 0 0 0 0 0 0 0 0 0 0 0 0 0 0 0 0 0 0 0 0 0 0 0 0 0 0 0 0 0 0 0 0 0 0 0 0 0 0 0 0 0 
0 0 0 0 0 0 0 0 0 0 0 0 0 0 0 0 0 0 0 0 0 0 0 0 0 0 0 0 0 0 0 0 0 0 0 0 0 0 0 0 0 0 0 0 0 0 13 88 88 88 88 88 50 34 84 88 43 33 42 45 45 32 31 37 40 44 41 50 54 77 41 35 33 76 88 88 88 88 58 0 0 0 0 0 0 0 0 0 0 0 0 0 0 0 0 0 0 0 0 0 0 0 0 0 0 0 0 0 0 0 0 0 0 0 0 0 0 0 0 0 0 0 0 0 0 0 0 0 
0 0 0 0 0 0 0 0 0 0 0 0 0 0 0 0 0 0 0 0 0 0 0 0 0 0 0 0 0 0 0 0 0 0 0 0 0 0 0 0 0 0 0 0 0 59 88 88 88 52 23 39 49 37 11 8 11 24 32 39 43 36 30 46 54 57 40 37 32 19 29 30 47 55 28 41 88 88 88 88 39 0 0 0 0 0 0 0 0 0 0 0 0 0 0 0 0 0 0 0 0 0 0 0 0 0 0 0 0 0 0 0 0 0 0 0 0 0 0 0 0 0 0 0 0 0 0 0 
0 0 0 0 0 0 0 0 0 0 0 0 0 0 0 0 0 0 0 0 0 0 0 0 0 0 0 0 0 0 0 0 0 0 0 0 0 0 0 0 0 0 0 8 88 88 88 33 38 48 27 16 24 31 29 30 30 28 36 31 31 32 43 52 74 65 66 58 52 53 51 53 37 16 21 47 49 29 53 88 88 88 0 0 0 0 0 0 0 0 0 0 0 0 0 0 0 0 0 0 0 0 0 0 0 0 0 0 0 0 0 0 0 0 0 0 0 0 0 0 0 0 0 0 0 0 0 0 
0 0 0 0 0 0 0 0 0 0 0 0 0 0 0 0 0 0 0 0 0 0 0 0 0 0 0 0 0 0 0 0 0 0 0 0 0 0 0 0 0 0 24 88 88 40 40 50 17 12 36 51 56 21 14 13 12 13 3 4 15 11 17 38 55 48 30 15 11 18 23 38 61 64 55 28 13 36 64 44 53 88 88 13 0 0 0 0 0 0 0 0 0 0 0 0 0 0 0 0 0 0 0 0 0 0 0 0 0 0 0 0 0 0 0 0 0 0 0 0 0 0 0 0 0 0 0 0 
0 0 0 0 0 0 0 0 0 0 0 0 0 0 0 0 0 0 0 0 0 0 0 0 0 0 0 0 0 0 0 0 0 0 0 0 0 0 0 0 0 36 88 88 30 50 15 5 31 57 43 23 13 23 49 74 46 51 50 39 16 3 8 33 23 7 6 22 19 14 13 6 13 40 51 56 50 20 13 39 68 54 88 88 30 0 0 0 0 0 0 0 0 0 0 0 0 0 0 0 0 0 0 0 0 0 0 0 0 0 0 0 0 0 0 0 0 0 0 0 0 0 0 0 0 0 0 0 
0 0 0 0 0 0 0 0 0 0 0 0 0 0 0 0 0 0 0 0 0 0 0 0 0 0 0 0 0 0 0 0 0 0 0 0 0 0 0 0 42 88 66 36 33 1 14 28 29 6 5 12 30 42 50 67 66 56 61 61 58 49 20 0 3 19 49 55 77 73 52 45 25 14 16 31 43 53 36 11 13 36 68 48 88 44 0 0 0 0 0 0 0 0 0 0 0 0 0 0 0 0 0 0 0 0 0 0 0 0 0 0 0 0 0 0 0 0 0 0 0 0 0 0 0 0 0 0 
0 0 0 0 0 0 0 0 0 0 0 0 0 0 0 0 0 0 0 0 0 0 0 0 0 0 0 0 0 0 0 0 0 0 0 0 0 0 0 47 88 37 54 15 1 11 21 22 24 36 44 48 50 52 51 52 54 62 62 57 60 57 51 12 34 64 58 60 53 44 60 58 58 38 41 35 26 13 14 34 16 4 23 75 56 88 37 0 0 0 0 0 0 0 0 0 0 0 0 0 0 0 0 0 0 0 0 0 0 0 0 0 0 0 0 0 0 0 0 0 0 0 0 0 0 0 0 0 
0 0 0 0 0 0 0 0 0 0 0 0 0 0 0 0 0 0 0 0 0 0 0 0 0 0 0 0 0 0 0 0 0 0 0 0 0 5 31 88 78 56 19 2 13 25 31 60 45 58 57 61 57 60 61 58 44 61 61 63 63 57 54 25 63 57 61 62 56 57 60 60 61 54 64 47 41 47 41 14 18 16 13 9 63 63 88 30 5 0 0 0 0 0 0 0 0 0 0 0 0 0 0 0 0 0 0 0 0 0 0 0 0 0 0 0 0 0 0 0 0 0 0 0 0 0 0 0 
0 0 0 0 0 0 0 0 0 0 0 0 0 0 0 0 0 0 0 0 0 0 0 0 0 0 0 0 0 0 0 0 0 0 0 0 0 9 88 54 53 13 3 22 30 44 55 51 59 60 61 61 57 58 59 55 46 60 65 63 63 57 53 37 60 61 63 59 54 57 63 65 58 51 59 58 52 49 56 61 36 23 22 14 13 62 73 88 20 0 0 0 0 0 0 0 0 0 0 0 0 0 0 0 0 0 0 0 0 0 0 0 0 0 0 0 0 0 0 0 0 0 0 0 0 0 0 0 
0 0 0 0 0 0 0 0 0 0 0 0 0 0 0 0 0 0 0 0 0 0 0 0 0 0 0 0 0 0 0 0 0 0 0 0 0 88 88 50 11 11 29 31 37 56 56 58 60 63 66 63 58 55 56 53 49 61 64 64 59 58 59 43 58 62 64 62 58 58 66 64 59 55 61 58 54 58 60 57 52 43 28 39 25 11 53 88 88 8 0 0 0 0 0 0 0 0 0 0 0 0 0 0 0 0 0 0 0 0 0 0 0 0 0 0 0 0 0 0 0 0 0 0 0 0 0 0 
0 0 0 0 0 0 0 0 0 0 0 0 0 0 0 0 0 0 0 0 0 0 0 0 0 0 0 0 0 0 0 0 0 0 0 0 66 88 37 24 13 39 26 36 52 62 61 57 59 63 67 63 57 57 64 59 55 62 69 62 58 57 57 38 60 61 66 64 58 60 66 66 56 59 61 62 57 60 63 60 54 49 37 36 56 22 18 50 88 88 5 0 0 0 0 0 0 0 0 0 0 0 0 0 0 0 0 0 0 0 0 0 0 0 0 0 0 0 0 0 0 0 0 0 0 0 0 0 
0 0 0 0 0 0 0 0 0 0 0 0 0 0 0 0 0 0 0 0 0 0 0 0 0 0 0 0 0 0 0 0 0 0 0 18 88 54 34 6 51 34 29 52 59 59 64 64 60 63 69 67 60 59 63 62 62 69 67 61 58 60 58 39 60 61 63 69 63 63 69 65 55 61 64 62 61 61 64 65 55 50 41 36 51 62 17 27 56 88 66 7 0 0 0 0 0 0 0 0 0 0 0 0 0 0 0 0 0 0 0 0 0 0 0 0 0 0 0 0 0 0 0 0 0 0 0 0 
0 0 0 0 0 0 0 0 0 0 0 0 0 0 0 0 0 0 0 0 0 0 0 0 0 0 0 0 0 0 0 0 0 0 0 88 88 33 6 42 47 20 36 55 59 61 63 63 61 63 67 70 63 63 66 69 70 68 64 59 62 58 61 34 59 58 61 66 70 71 69 63 59 61 63 63 62 64 65 63 57 47 38 39 34 72 76 20 36 87 88 18 5 0 0 0 0 0 0 0 0 0 0 0 0 0 0 0 0 0 0 0 0 0 0 0 0 0 0 0 0 0 0 0 0 0 0 0 
0 0 0 0 0 0 0 0 0 0 0 0 0 0 0 0 0 0 0 0 0 0 0 0 0 0 0 0 0 0 0 0 0 0 40 88 39 19 44 52 28 25 44 54 58 62 65 63 59 62 67 68 66 66 70 68 70 67 64 59 63 60 58 37 63 57 59 64 72 70 69 64 60 62 64 62 64 63 65 63 58 44 32 35 60 59 77 71 22 39 88 88 5 0 0 0 0 0 0 0 0 0 0 0 0 0 0 0 0 0 0 0 0 0 0 0 0 0 0 0 0 0 0 0 0 0 0 0 
0 0 0 0 0 0 0 0 0 0 0 0 0 0 0 0 0 0 0 0 0 0 0 0 0 0 0 0 0 0 0 0 0 0 88 88 24 32 65 26 17 44 56 53 55 63 65 63 58 62 69 66 67 63 64 68 68 69 62 59 61 59 57 48 60 59 62 64 72 70 70 68 56 60 62 65 62 65 64 63 58 53 37 44 37 26 66 79 44 18 50 88 38 7 0 0 0 0 0 0 0 0 0 0 0 0 0 0 0 0 0 0 0 0 0 0 0 0 0 0 0 0 0 0 0 0 0 0 
0 0 0 0 0 0 0 0 0 0 0 0 0 0 0 0 0 0 0 0 0 0 0 0 0 0 0 0 0 0 0 0 0 50 88 32 16 59 37 12 49 55 59 60 60 61 65 64 53 63 66 67 63 62 64 66 68 66 61 58 63 59 56 48 60 63 61 63 68 73 69 68 59 57 59 63 64 62 61 61 58 54 47 40 34 22 37 67 55 4 50 88 88 5 0 0 0 0 0 0 0 0 0 0 0 0 0 0 0 0 0 0 0 0 0 0 0 0 0 0 0 0 0 0 0 0 0 0 
0 0 0 0 0 0 0 0 0 0 0 0 0 0 0 0 0 0 0 0 0 0 0 0 0 0 0 0 0 0 0 0 0 88 88 32 26 51 11 37 50 55 60 61 59 61 66 61 53 61 65 65 62 63 63 68 67 64 59 58 56 63 57 49 59 61 62 63 67 69 71 68 65 57 54 60 63 63 58 61 60 55 55 50 47 32 14 38 49 26 51 52 88 29 5 0 0 0 0 0 0 0 0 0 0 0 0 0 0 0 0 0 0 0 0 0 0 0 0 0 0 0 0 0 0 0 0 0 
0 0 0 0 0 0 0 0 0 0 0 0 0 0 0 0 0 0 0 0 0 0 0 0 0 0 0 0 0 0 0 0 32 88 52 43 38 18 16 55 57 57 61 63 65 63 63 63 56 54 63 67 64 62 69 70 65 63 60 58 54 62 55 54 56 63 62 63 67 68 69 70 68 61 56 54 62 62 61 59 59 56 56 60 56 44 26 8 31 31 53 67 88 88 0 0 0 0 0 0 0 0 0 0 0 0 0 0 0 0 0 0 0 0 0 0 0 0 0 0 0 0 0 0 0 0 0 0 
0 0 0 0 0 0 0 0 0 0 0 0 0 0 0 0 0 0 0 0 0 0 0 0 0 0 0 0 0 0 0 0 79 88 37 52 34 0 48 57 59 59 59 62 65 67 67 65 59 51 58 68 63 64 66 68 66 64 61 59 55 47 52 47 53 60 61 61 65 67 69 69 67 66 60 52 63 65 60 60 57 56 59 65 58 50 46 33 19 14 60 41 88 88 20 0 0 0 0 0 0 0 0 0 0 0 0 0 0 0 0 0 0 0 0 0 0 0 0 0 0 0 0 0 0 0 0 0 
0 0 0 0 0 0 0 0 0 0 0 0 0 0 0 0 0 0 0 0 0 0 0 0 0 0 0 0 0 0 0 7 88 77 38 59 30 7 59 59 63 63 60 62 60 63 69 63 60 54 56 63 65 64 68 70 65 63 62 59 54 49 43 52 53 62 60 61 62 66 70 68 70 67 62 50 62 66 62 61 58 54 61 63 60 48 52 55 24 13 54 55 57 88 86 0 0 0 0 0 0 0 0 0 0 0 0 0 0 0 0 0 0 0 0 0 0 0 0 0 0 0 0 0 0 0 0 0 
0 0 0 0 0 0 0 0 0 0 0 0 0 0 0 0 0 0 0 0 0 0 0 0 0 0 0 0 0 0 0 59 88 29 57 59 36 4 59 58 63 65 64 59 59 61 65 58 54 56 61 59 67 65 67 68 64 64 58 58 60 57 42 47 55 60 60 61 63 66 70 71 70 65 57 52 60 66 64 59 58 57 63 62 52 56 63 59 46 14 34 63 40 86 88 13 0 0 0 0 0 0 0 0 0 0 0 0 0 0 0 0 0 0 0 0 0 0 0 0 0 0 0 0 0 0 0 0 
0 0 0 0 0 0 0 0 0 0 0 0 0 0 0 0 0 0 0 0 0 0 0 0 0 0 0 0 0 0 0 88 83 32 68 54 25 3 40 60 58 64 64 58 56 62 63 48 62 59 61 65 63 66 72 68 66 61 59 60 58 58 47 46 60 59 59 63 63 69 73 68 69 63 59 58 63 67 61 56 48 63 67 62 59 63 63 60 51 26 24 58 51 47 88 42 6 0 0 0 0 0 0 0 0 0 0 0 0 0 0 0 0 0 0 0 0 0 0 0 0 0 0 0 0 0 0 0 
0 0 0 0 0 0 0 0 0 0 0 0 0 0 0 0 0 0 0 0 0 0 0 0 0 0 0 0 0 0 45 88 20 56 59 48 17 14 38 57 56 63 65 57 57 63 63 55 62 67 68 71 67 71 70 71 66 62 60 60 58 60 53 39 61 59 62 62 63 68 71 70 69 64 61 61 67 68 67 60 52 58 66 70 64 66 65 61 53 37 15 48 88 52 88 88 2 0 0 0 0 0 0 0 0 0 0 0 0 0 0 0 0 0 0 0 0 0 0 0 0 0 0 0 0 0 0 0 
0 0 0 0 0 0 0 0 0 0 0 0 0 0 0 0 0 0 0 0 0 0 0 0 0 0 0 0 0 0 88 88 31 61 54 43 11 31 55 59 60 66 64 57 57 63 63 57 58 65 68 68 71 71 71 70 69 63 62 58 64 59 52 42 59 57 57 62 66 70 71 70 69 61 57 60 62 61 62 63 58 61 62 61 66 69 64 60 58 43 19 46 77 54 70 88 9 5 0 0 0 0 0 0 0 0 0 0 0 0 0 0 0 0 0 0 0 0 0 0 0 0 0 0 0 0 0 0 
0 0 0 0 0 0 0 0 0 0 0 0 0 0 0 0 0 0 0 0 0 0 0 0 0 0 0 0 0 13 88 42 51 54 52 37 12 50 60 58 65 67 65 60 52 61 57 56 59 62 62 67 66 69 70 71 69 68 60 61 61 58 56 42 63 61 58 62 65 72 72 70 71 62 57 56 53 49 61 61 57 49 48 52 65 67 68 63 61 49 29 38 54 64 36 88 53 5 0 0 0 0 0 0 0 0 0 0 0 0 0 0 0 0 0 0 0 0 0 0 0 0 0 0 0 0 0 0 
0 0 0 0 0 0 0 0 0 0 0 0 0 0 0 0 0 0 0 0 0 0 0 0 0 0 0 0 0 73 88 31 73 56 60 26 31 53 59 60 65 65 65 61 42 48 60 54 51 57 60 62 64 68 73 72 71 71 62 62 59 59 55 43 66 61 59 59 65 73 72 71 70 61 58 57 63 60 59 57 52 62 65 51 60 64 64 62 58 52 22 40 63 52 45 88 88 0 0 0 0 0 0 0 0 0 0 0 0 0 0 0 0 0 0 0 0 0 0 0 0 0 0 0 0 0 0 0 
0 0 0 0 0 0 0 0 0 0 0 0 0 0 0 0 0 0 0 0 0 0 0 0 0 0 0 0 0 88 51 50 53 55 50 27 32 53 58 61 64 64 63 57 41 54 54 64 62 60 61 62 66 69 69 70 70 68 66 63 61 60 55 42 60 57 62 61 67 71 72 69 69 59 61 62 64 66 65 58 62 65 63 62 62 65 62 63 59 59 20 40 59 49 55 75 88 20 7 0 0 0 0 0 0 0 0 0 0 0 0 0 0 0 0 0 0 0 0 0 0 0 0 0 0 0 0 0 
0 0 0 0 0 0 0 0 0 0 0 0 0 0 0 0 0 0 0 0 0 0 0 0 0 0 0 0 38 88 19 59 51 52 49 30 33 50 53 61 65 64 57 61 65 57 63 65 66 63 65 65 64 70 70 72 71 71 65 63 62 61 45 47 57 62 63 64 70 73 72 72 69 62 63 66 63 66 63 61 63 69 65 61 62 61 63 62 60 58 24 37 54 55 62 52 88 33 0 0 0 0 0 0 0 0 0 0 0 0 0 0 0 0 0 0 0 0 0 0 0 0 0 0 0 0 0 0 
0 0 0 0 0 0 0 0 0 0 0 0 0 0 0 0 0 0 0 0 0 0 0 0 0 0 0 0 67 88 36 56 50 57 52 24 29 48 49 59 66 61 59 62 62 63 66 70 67 70 67 64 65 68 68 70 73 70 72 62 62 57 49 32 69 61 63 66 72 72 72 71 70 67 64 63 64 66 69 67 67 69 67 66 62 66 61 58 60 53 25 44 88 67 58 44 88 72 0 0 0 0 0 0 0 0 0 0 0 0 0 0 0 0 0 0 0 0 0 0 0 0 0 0 0 0 0 0 
0 0 0 0 0 0 0 0 0 0 0 0 0 0 0 0 0 0 0 0 0 0 0 0 0 0 0 0 88 78 51 66 52 59 52 31 20 36 53 59 66 61 65 63 65 67 70 66 68 71 69 65 67 67 68 71 69 69 70 64 61 57 59 26 58 63 65 68 72 71 72 73 71 71 63 63 65 69 69 68 67 67 63 66 68 64 64 62 54 50 21 46 55 58 54 52 88 88 0 0 0 0 0 0 0 0 0 0 0 0 0 0 0 0 0 0 0 0 0 0 0 0 0 0 0 0 0 0 
0 0 0 0 0 0 0 0 0 0 0 0 0 0 0 0 0 0 0 0 0 0 0 0 0 0 0 29 88 33 66 62 49 63 53 33 13 28 63 58 62 61 62 63 67 69 66 63 64 61 68 70 69 69 70 72 69 69 71 67 62 57 62 20 56 58 62 68 71 68 71 70 69 64 65 64 65 69 70 67 65 62 63 63 64 65 63 63 49 36 13 55 60 50 55 68 60 88 7 0 0 0 0 0 0 0 0 0 0 0 0 0 0 0 0 0 0 0 0 0 0 0 0 0 0 0 0 0 
0 0 0 0 0 0 0 0 0 0 0 0 0 0 0 0 0 0 0 0 0 0 0 0 0 0 0 64 88 39 57 63 63 57 57 27 13 32 55 62 60 64 64 67 67 66 65 63 58 59 63 71 72 70 70 70 66 67 72 68 65 62 59 24 51 60 63 69 70 67 69 73 65 66 64 67 68 66 67 64 65 63 57 59 61 63 60 55 45 20 23 54 57 58 61 83 50 88 32 0 0 0 0 0 0 0 0 0 0 0 0 0 0 0 0 0 0 0 0 0 0 0 0 0 0 0 0 0 
0 0 0 0 0 0 0 0 0 0 0 0 0 0 0 0 0 0 0 0 0 0 0 0 0 0 0 88 75 54 51 53 61 55 43 32 13 26 53 47 60 63 63 63 62 61 59 61 58 58 61 68 69 71 70 69 63 64 68 69 62 57 57 37 39 65 62 69 70 66 68 72 72 69 69 69 65 60 62 62 63 59 60 58 58 57 53 52 37 21 17 63 67 61 45 69 55 88 70 0 0 0 0 0 0 0 0 0 0 0 0 0 0 0 0 0 0 0 0 0 0 0 0 0 0 0 0 0 
0 0 0 0 0 0 0 0 0 0 0 0 0 0 0 0 0 0 0 0 0 0 0 0 0 0 9 88 42 66 50 53 54 77 68 21 13 12 25 61 59 61 62 60 59 62 62 58 56 59 63 70 70 69 70 69 65 61 68 69 60 60 60 44 41 61 63 69 67 67 63 72 71 71 69 66 61 57 59 60 60 55 57 59 58 58 52 44 32 15 19 78 73 53 50 70 58 88 88 0 0 0 0 0 0 0 0 0 0 0 0 0 0 0 0 0 0 0 0 0 0 0 0 0 0 0 0 0 
0 0 0 0 0 0 0 0 0 0 0 0 0 0 0 0 0 0 0 0 0 0 0 0 0 0 43 88 37 62 46 57 54 71 19 11 13 51 58 51 44 60 59 55 53 32 23 59 58 65 64 70 67 68 71 70 66 59 63 70 67 61 57 57 42 62 60 73 68 65 65 67 71 70 72 66 62 56 55 55 57 54 44 56 54 43 45 40 33 12 17 34 53 53 51 55 64 70 88 8 0 0 0 0 0 0 0 0 0 0 0 0 0 0 0 0 0 0 0 0 0 0 0 0 0 0 0 0 
0 0 0 0 0 0 0 0 0 0 0 0 0 0 0 0 0 0 0 0 0 0 0 0 0 0 80 88 41 62 63 57 54 29 7 9 42 61 58 56 55 46 56 59 53 58 63 56 64 66 67 67 67 70 68 68 64 62 63 67 70 64 61 60 47 59 64 72 65 65 63 67 69 70 67 66 60 62 47 45 57 55 37 43 58 62 61 63 66 34 9 5 60 58 60 63 70 44 88 30 0 0 0 0 0 0 0 0 0 0 0 0 0 0 0 0 0 0 0 0 0 0 0 0 0 0 0 0 
0 0 0 0 0 0 0 0 0 0 0 0 0 0 0 0 0 0 0 0 0 0 0 0 0 0 88 64 58 46 75 50 52 19 7 24 62 59 60 59 59 52 52 56 58 59 60 62 68 64 69 67 66 66 65 65 65 63 64 62 72 65 60 58 55 61 67 71 65 63 62 63 66 68 69 67 63 62 60 59 58 55 47 51 58 59 53 58 59 61 34 39 24 64 71 49 52 51 88 62 0 0 0 0 0 0 0 0 0 0 0 0 0 0 0 0 0 0 0 0 0 0 0 0 0 0 0 0 
0 0 0 0 0 0 0 0 0 0 0 0 0 0 0 0 0 0 0 0 0 0 0 0 0 15 88 42 55 87 56 53 37 12 35 47 58 60 64 61 59 52 31 38 56 58 60 65 66 65 64 67 66 64 61 63 64 62 67 65 67 65 59 57 58 62 68 69 65 63 64 66 67 70 67 66 64 63 63 57 60 59 44 51 59 53 47 44 52 59 62 16 12 53 54 77 48 62 88 88 0 0 0 0 0 0 0 0 0 0 0 0 0 0 0 0 0 0 0 0 0 0 0 0 0 0 0 0 
0 0 0 0 0 0 0 0 0 0 0 0 0 0 0 0 0 0 0 0 0 0 0 0 0 42 88 43 57 60 52 50 27 27 33 60 60 61 63 59 54 52 29 32 55 57 59 66 66 65 64 66 63 65 63 63 64 65 63 65 69 64 61 60 59 62 66 68 68 66 67 63 63 67 69 66 66 63 63 59 58 62 41 53 59 59 59 57 57 58 57 43 5 30 57 62 55 57 58 88 5 0 0 0 0 0 0 0 0 0 0 0 0 0 0 0 0 0 0 0 0 0 0 0 0 0 0 0 
0 0 0 0 0 0 0 0 0 0 0 0 0 0 0 0 0 0 0 0 0 0 0 0 0 76 88 48 56 51 57 46 17 18 44 58 60 65 60 59 49 23 32 45 49 58 61 64 66 63 64 62 63 62 66 66 65 65 66 65 63 62 61 47 53 61 64 64 66 64 66 68 68 65 66 64 65 67 64 62 60 59 38 46 60 50 63 58 65 61 57 49 9 14 66 48 59 63 50 88 27 0 0 0 0 0 0 0 0 0 0 0 0 0 0 0 0 0 0 0 0 0 0 0 0 0 0 0 
0 0 0 0 0 0 0 0 0 0 0 0 0 0 0 0 0 0 0 0 0 0 0 0 0 88 75 49 71 58 52 36 7 21 47 60 61 67 59 57 55 50 52 43 33 42 51 58 60 64 64 62 63 60 63 63 61 63 63 64 63 59 53 31 47 61 56 59 65 66 64 64 66 63 63 65 61 64 65 62 60 47 13 14 45 30 61 65 62 58 56 49 12 11 53 53 47 59 47 88 57 0 0 0 0 0 0 0 0 0 0 0 0 0 0 0 0 0 0 0 0 0 0 0 0 0 0 0 
0 0 0 0 0 0 0 0 0 0 0 0 0 0 0 0 0 0 0 0 0 0 0 0 9 88 50 54 57 52 57 24 6 30 46 60 61 63 62 60 60 53 39 11 31 50 64 67 66 59 54 61 62 65 59 62 60 60 62 59 60 44 41 43 49 46 47 48 52 59 66 63 65 62 60 60 57 56 53 54 51 43 28 24 24 54 62 70 60 57 58 52 36 5 39 59 55 54 88 81 88 0 0 0 0 0 0 0 0 0 0 0 0 0 0 0 0 0 0 0 0 0 0 0 0 0 0 0 
0 0 0 0 0 0 0 0 0 0 0 0 0 0 0 0 0 0 0 0 0 0 0 0 23 88 43 65 60 53 55 18 9 27 55 57 61 63 62 61 58 49 31 19 50 63 67 67 62 63 62 60 54 58 61 70 69 70 63 44 47 49 35 37 38 60 56 46 44 46 58 62 46 43 50 45 47 54 57 64 63 61 47 25 35 65 65 65 57 58 57 45 29 3 30 63 55 46 62 62 88 0 0 0 0 0 0 0 0 0 0 0 0 0 0 0 0 0 0 0 0 0 0 0 0 0 0 0 
0 0 0 0 0 0 0 0 0 0 0 0 0 0 0 0 0 0 0 0 0 0 0 0 41 88 59 69 57 56 42 14 8 43 59 60 60 61 63 60 58 52 41 52 58 65 68 64 61 62 59 55 48 58 39 48 40 46 47 47 65 68 35 26 51 68 56 51 34 47 45 43 36 46 46 61 69 64 63 68 69 59 61 20 50 62 67 67 60 57 60 48 40 5 19 61 55 43 68 43 88 13 0 0 0 0 0 0 0 0 0 0 0 0 0 0 0 0 0 0 0 0 0 0 0 0 0 0 
0 0 0 0 0 0 0 0 0 0 0 0 0 0 0 0 0 0 0 0 0 0 0 0 65 88 40 67 57 64 34 4 17 54 56 58 62 63 65 63 61 59 54 56 59 66 67 66 61 63 61 63 67 51 56 52 42 44 50 70 66 62 62 40 68 64 66 64 50 44 42 45 47 52 58 66 63 65 60 69 67 67 60 53 52 61 71 62 62 59 58 52 43 14 6 58 51 54 66 34 88 28 0 0 0 0 0 0 0 0 0 0 0 0 0 0 0 0 0 0 0 0 0 0 0 0 0 0 
0 0 0 0 0 0 0 0 0 0 0 0 0 0 0 0 0 0 0 0 0 0 0 0 88 87 50 59 52 56 19 7 41 48 55 57 62 64 64 68 64 63 58 52 58 66 64 68 64 66 67 63 63 58 57 51 44 52 59 57 47 58 62 46 64 56 51 63 63 53 51 61 59 62 64 65 66 65 69 66 66 67 60 55 59 66 68 63 59 59 57 55 44 25 0 44 60 56 76 86 74 65 0 0 0 0 0 0 0 0 0 0 0 0 0 0 0 0 0 0 0 0 0 0 0 0 0 0 
0 0 0 0 0 0 0 0 0 0 0 0 0 0 0 0 0 0 0 0 0 0 0 9 88 66 52 53 58 51 2 27 44 47 57 59 58 56 58 64 68 69 58 51 59 65 67 67 67 68 63 65 62 63 61 60 59 44 46 33 49 50 50 50 59 56 40 37 51 54 63 60 63 60 61 67 67 69 67 69 69 63 57 51 63 67 69 63 61 57 60 61 61 63 6 25 63 58 59 57 79 88 0 0 0 0 0 0 0 0 0 0 0 0 0 0 0 0 0 0 0 0 0 0 0 0 0 0 
0 0 0 0 0 0 0 0 0 0 0 0 0 0 0 0 0 0 0 0 0 0 0 19 88 42 59 56 60 31 6 42 53 59 57 52 45 49 57 59 62 69 64 61 63 68 71 70 71 67 63 63 63 64 61 62 58 48 42 32 38 43 44 42 48 49 36 37 40 40 56 57 62 60 63 64 66 68 71 70 71 65 58 62 66 67 67 64 63 61 60 59 54 55 41 6 63 59 63 55 80 88 0 0 0 0 0 0 0 0 0 0 0 0 0 0 0 0 0 0 0 0 0 0 0 0 0 0 
0 0 0 0 0 0 0 0 0 0 0 0 0 0 0 0 0 0 0 0 0 0 0 33 88 37 58 53 55 24 20 58 54 58 57 55 57 51 34 59 56 65 69 64 67 70 69 72 64 65 63 60 65 62 62 61 58 55 46 34 42 44 45 46 49 45 44 41 44 21 62 60 59 59 62 63 66 65 72 74 72 68 65 66 69 64 63 61 59 58 58 55 56 58 57 23 35 55 58 59 49 88 8 0 0 0 0 0 0 0 0 0 0 0 0 0 0 0 0 0 0 0 0 0 0 0 0 0 
0 0 0 0 0 0 0 0 0 0 0 0 0 0 0 0 0 0 0 0 0 0 0 52 88 64 53 55 55 5 40 54 52 59 61 62 57 56 57 57 55 63 70 69 71 68 68 69 67 61 60 62 63 60 62 60 63 60 52 45 43 36 36 38 38 44 53 51 51 50 58 62 60 60 60 63 62 66 70 72 72 70 70 72 68 61 57 56 55 57 56 59 63 61 54 50 9 57 54 61 41 88 20 0 0 0 0 0 0 0 0 0 0 0 0 0 0 0 0 0 0 0 0 0 0 0 0 0 
0 0 0 0 0 0 0 0 0 0 0 0 0 0 0 0 0 0 0 0 0 0 0 58 88 34 87 55 50 0 44 49 56 56 56 59 65 62 59 56 58 63 69 69 72 70 70 65 62 44 57 63 43 39 60 61 61 59 63 63 58 39 30 36 37 47 55 69 70 39 61 62 59 52 52 44 57 58 67 68 72 71 72 73 67 61 57 59 58 57 63 65 63 60 60 53 13 50 55 61 36 88 36 0 0 0 0 0 0 0 0 0 0 0 0 0 0 0 0 0 0 0 0 0 0 0 0 0 
0 0 0 0 0 0 0 0 0 0 0 0 0 0 0 0 0 0 0 0 0 0 0 63 88 42 88 54 33 2 42 50 57 47 53 56 59 66 65 68 67 68 68 68 70 71 64 67 67 61 67 68 70 57 60 62 61 59 63 66 63 44 37 31 37 61 68 69 65 55 36 63 61 57 75 83 57 60 68 67 69 74 73 73 67 65 61 58 62 60 63 62 62 63 57 56 19 40 59 52 40 88 55 0 0 0 0 0 0 0 0 0 0 0 0 0 0 0 0 0 0 0 0 0 0 0 0 0 
0 0 0 0 0 0 0 0 0 0 0 0 0 0 0 0 0 0 0 0 0 0 8 75 88 48 59 55 23 11 53 56 56 55 38 48 61 61 64 69 68 69 70 70 69 69 54 59 55 62 63 68 63 61 60 56 49 62 65 69 64 62 43 34 49 68 69 67 64 67 31 50 63 63 69 75 68 68 64 65 63 74 73 72 69 65 63 64 61 59 63 62 63 65 60 57 27 36 60 58 45 88 88 0 0 0 0 0 0 0 0 0 0 0 0 0 0 0 0 0 0 0 0 0 0 0 0 0 
0 0 0 0 0 0 0 0 0 0 0 0 0 0 0 0 0 0 0 0 0 0 11 88 88 42 58 55 22 29 56 56 60 58 56 53 54 61 64 66 68 70 68 69 73 56 53 60 61 60 63 65 60 62 59 44 45 64 65 67 67 63 41 35 51 70 68 66 68 61 48 28 65 61 61 67 69 64 65 64 62 68 73 73 71 65 65 63 63 66 66 67 67 65 61 56 37 26 61 53 56 66 88 11 0 0 0 0 0 0 0 0 0 0 0 0 0 0 0 0 0 0 0 0 0 0 0 0 
0 0 0 0 0 0 0 0 0 0 0 0 0 0 0 0 0 0 0 0 0 0 14 88 60 54 55 58 14 39 55 63 62 62 58 63 62 62 66 64 68 70 65 64 76 41 65 56 60 61 62 56 67 60 61 30 59 63 66 68 67 66 50 36 62 70 70 70 66 63 60 13 57 60 64 65 65 61 63 64 58 62 75 72 71 69 67 67 68 69 67 66 63 62 61 52 48 19 58 51 60 58 88 21 0 0 0 0 0 0 0 0 0 0 0 0 0 0 0 0 0 0 0 0 0 0 0 0 
0 0 0 0 0 0 0 0 0 0 0 0 0 0 0 0 0 0 0 0 0 0 18 88 88 56 58 53 21 44 54 60 63 63 66 63 63 65 62 62 66 67 68 64 76 37 60 53 61 60 63 57 58 55 46 33 63 63 63 68 70 66 68 49 66 69 71 69 65 66 54 23 22 59 63 59 63 62 63 60 59 54 72 71 74 71 70 73 68 66 62 58 58 56 56 55 45 15 63 47 56 79 88 24 0 0 0 0 0 0 0 0 0 0 0 0 0 0 0 0 0 0 0 0 0 0 0 0 
0 0 0 0 0 0 0 0 0 0 0 0 0 0 0 0 0 0 0 0 0 0 17 88 88 46 57 53 24 38 55 61 63 62 62 66 63 63 63 63 70 69 68 65 69 46 61 63 61 63 63 63 63 66 37 43 58 65 62 66 66 68 66 54 68 71 71 65 64 67 57 17 49 65 61 59 63 61 63 60 59 62 73 70 73 75 72 70 68 62 56 48 54 50 54 51 48 24 73 50 57 83 88 25 0 0 0 0 0 0 0 0 0 0 0 0 0 0 0 0 0 0 0 0 0 0 0 0 
0 0 0 0 0 0 0 0 0 0 0 0 0 0 0 0 0 0 0 0 0 0 12 77 88 45 58 57 31 28 57 58 60 64 61 63 59 61 60 64 70 67 66 66 63 58 54 64 63 62 64 68 68 66 55 50 48 65 63 65 66 64 65 60 65 67 68 66 65 68 51 26 63 61 50 56 60 63 63 63 59 65 68 66 69 73 71 70 66 63 56 57 59 56 56 55 55 20 67 50 58 63 88 18 0 0 0 0 0 0 0 0 0 0 0 0 0 0 0 0 0 0 0 0 0 0 0 0 
0 0 0 0 0 0 0 0 0 0 0 0 0 0 0 0 0 0 0 0 0 0 7 70 88 41 57 55 35 7 55 55 59 58 62 60 60 61 61 69 69 65 68 64 63 63 66 65 61 59 63 64 73 69 62 51 36 66 65 64 66 64 63 63 62 67 66 66 65 69 44 30 69 59 48 54 58 60 60 65 62 69 66 64 67 70 71 68 63 59 60 54 62 57 61 55 57 8 54 53 59 59 88 21 0 0 0 0 0 0 0 0 0 0 0 0 0 0 0 0 0 0 0 0 0 0 0 0 
0 0 0 0 0 0 0 0 0 0 0 0 0 0 0 0 0 0 0 0 0 0 0 59 88 39 58 55 35 0 36 52 54 56 55 59 60 60 63 69 68 64 65 68 65 67 67 61 61 60 59 63 66 70 63 56 33 66 62 65 63 64 63 63 62 67 65 67 65 59 44 38 67 58 51 56 51 61 61 63 71 68 67 60 66 73 67 65 62 58 54 60 63 63 60 57 58 11 50 52 58 57 88 16 0 0 0 0 0 0 0 0 0 0 0 0 0 0 0 0 0 0 0 0 0 0 0 0 
0 0 0 0 0 0 0 0 0 0 0 0 0 0 0 0 0 0 0 0 0 0 0 44 88 45 59 52 37 0 34 48 53 52 51 59 60 61 64 69 63 63 68 69 65 67 63 58 58 61 57 55 63 64 62 58 36 54 67 64 64 60 61 60 62 64 66 63 72 41 48 42 63 57 54 56 55 59 59 61 66 71 65 55 62 71 72 66 61 55 58 62 64 59 60 59 55 3 48 50 56 56 88 18 0 19 15 0 0 0 0 0 0 0 0 0 0 0 0 0 0 0 0 0 0 0 0 0 
0 0 0 0 0 0 0 0 0 0 0 0 0 0 0 0 0 0 0 0 0 0 0 34 88 45 56 58 36 0 50 56 56 61 59 62 62 61 69 67 65 63 64 69 65 66 63 59 60 59 60 57 62 60 59 45 40 35 64 63 61 65 67 64 65 65 62 65 59 29 41 53 45 60 61 52 59 60 59 58 66 70 63 53 58 65 69 70 64 62 63 63 63 62 59 56 53 5 36 53 56 57 88 21 14 31 34 0 0 0 0 0 0 0 0 0 0 0 0 0 0 0 0 0 0 0 0 0 
0 0 0 0 0 0 0 0 0 0 0 0 0 0 0 0 0 0 0 0 7 13 0 27 88 63 50 56 35 13 54 61 66 63 61 64 66 66 70 70 64 60 60 66 69 65 65 60 59 60 61 59 61 58 53 40 30 31 56 63 59 64 66 66 68 64 59 66 48 29 42 61 55 52 43 56 49 47 60 60 67 70 62 57 57 61 66 68 69 68 64 64 62 62 61 53 47 4 20 59 58 64 88 25 33 41 41 29 7 0 0 0 0 0 0 0 0 0 0 0 0 0 0 0 0 0 0 0 
0 0 0 0 0 0 0 0 0 0 0 0 0 0 0 0 0 0 0 0 27 20 7 22 88 80 50 58 22 7 54 59 63 66 67 70 67 70 67 68 66 63 59 60 72 66 67 64 63 62 63 60 57 55 50 52 41 35 58 63 63 69 65 61 63 67 61 64 45 38 57 65 56 56 52 52 62 57 48 64 67 70 65 57 63 56 59 67 67 66 67 66 64 64 61 55 48 3 7 54 57 71 88 16 37 39 50 51 0 0 0 0 0 0 0 0 0 0 0 0 0 0 0 0 0 0 0 0 
0 0 0 0 0 0 0 0 0 0 0 0 0 0 0 0 0 0 0 15 44 35 22 16 88 88 50 59 16 13 50 60 63 61 58 63 67 60 61 60 63 59 57 60 69 70 67 68 65 63 59 67 68 39 50 57 62 61 45 63 63 67 60 39 66 65 64 61 47 58 61 59 61 58 58 58 59 60 51 63 65 71 69 61 59 58 57 60 68 72 68 63 63 64 61 54 41 2 1 40 64 72 78 13 40 34 45 48 9 0 0 0 0 0 0 0 0 0 0 0 0 0 0 0 0 0 0 0 
0 0 0 0 0 0 0 0 0 0 0 0 0 0 0 0 0 0 0 33 51 42 27 15 76 88 42 55 7 11 46 60 60 57 58 61 61 61 55 60 61 59 56 64 68 65 65 66 64 61 59 54 50 54 63 62 64 61 51 52 62 62 33 31 31 60 61 56 55 62 62 60 64 54 62 60 59 65 53 62 63 68 69 66 61 59 53 61 65 68 66 63 63 60 59 58 26 2 8 28 59 88 64 1 43 47 41 43 19 0 0 0 0 0 0 0 0 0 0 0 0 0 0 0 0 0 0 0 
0 0 0 0 0 0 0 0 0 0 0 0 0 0 0 0 0 0 0 37 46 49 28 13 72 88 40 57 7 6 39 55 62 59 57 62 60 52 53 52 54 59 58 69 68 62 61 63 63 62 59 59 50 62 63 64 61 61 62 46 62 46 32 31 32 46 59 52 59 63 60 59 57 65 60 60 61 52 51 61 65 63 63 70 63 59 50 59 61 68 65 62 60 55 55 45 18 2 15 9 63 88 44 1 39 53 38 35 22 0 0 0 0 0 0 0 0 0 0 0 0 0 0 0 0 0 0 0 
0 0 0 0 0 0 0 0 0 0 0 0 0 0 0 0 0 0 0 38 56 58 30 5 59 88 57 58 4 3 33 50 53 60 60 54 56 60 61 62 60 61 67 71 65 61 62 59 62 63 52 59 55 60 64 62 61 65 65 54 58 51 34 36 39 46 57 56 61 61 63 60 57 62 66 63 54 44 45 59 62 62 57 64 66 60 59 60 58 65 68 63 59 57 53 37 21 4 9 8 56 88 38 4 36 60 38 31 16 0 0 0 0 0 0 0 0 0 0 0 0 0 0 0 0 0 0 0 
0 0 0 0 0 0 0 0 0 0 0 0 0 0 0 0 0 0 0 32 60 54 19 0 51 88 76 36 4 4 27 44 57 39 50 61 60 62 66 68 68 70 67 68 64 58 59 53 56 57 65 57 64 62 63 65 63 64 64 59 58 53 45 47 47 47 61 57 61 63 64 57 63 60 62 58 64 43 32 58 59 60 57 63 69 62 55 63 57 61 66 60 61 60 46 34 17 6 3 5 74 88 32 5 29 54 53 40 20 0 0 0 0 0 0 0 0 0 0 0 0 0 0 0 0 0 0 0 
0 0 0 0 0 0 0 0 0 0 0 0 0 0 0 0 0 0 0 17 42 34 6 0 43 88 88 20 13 5 19 49 43 45 58 58 61 62 64 67 64 64 67 67 64 55 55 59 69 67 48 66 65 63 64 63 64 65 62 64 52 57 53 54 55 54 62 62 64 65 58 59 62 63 54 56 57 63 49 38 59 56 59 62 65 63 57 53 56 59 62 63 60 62 41 31 13 8 14 13 88 86 27 0 17 49 62 66 6 0 0 0 0 0 0 0 0 0 0 0 0 0 0 0 0 0 0 0 
0 0 0 0 0 0 0 0 0 0 0 0 0 0 0 0 0 0 0 7 22 15 0 0 34 72 88 40 8 15 15 48 47 47 67 60 63 66 65 65 64 63 63 63 63 70 56 56 54 53 63 64 62 62 65 63 65 62 63 65 60 63 58 60 59 63 60 66 64 63 61 63 62 62 61 56 56 55 66 45 37 60 59 66 67 62 62 62 48 57 59 66 62 57 40 21 6 20 6 23 88 78 18 0 5 40 50 22 0 0 0 0 0 0 0 0 0 0 0 0 0 0 0 0 0 0 0 0 
0 0 0 0 0 0 0 0 0 0 0 0 0 0 0 0 0 0 0 0 0 0 0 0 23 88 88 83 15 13 16 42 47 51 68 59 60 62 63 63 64 60 59 65 71 63 60 53 45 64 56 65 64 64 63 64 63 64 64 64 58 64 61 63 60 62 60 63 64 65 63 64 62 60 63 63 52 59 59 58 47 52 60 63 63 64 61 57 59 55 58 64 61 57 39 8 40 11 16 33 88 65 14 0 0 13 20 11 0 0 0 0 0 0 0 0 0 0 0 0 0 0 0 0 0 0 0 0 
0 0 0 0 0 0 0 0 0 0 0 0 0 0 0 0 0 0 0 0 0 0 0 0 11 72 88 88 13 12 14 33 33 47 60 58 59 63 63 64 63 58 62 64 57 61 60 51 60 61 62 61 64 64 63 65 64 63 66 61 62 62 66 65 64 64 63 62 63 65 65 63 61 63 62 63 59 57 54 65 60 54 52 56 62 58 59 57 57 54 56 61 59 60 39 0 22 7 23 57 88 65 8 0 0 0 6 0 0 0 0 0 0 0 0 0 0 0 0 0 0 0 0 0 0 0 0 0 
0 0 0 0 0 0 0 0 0 0 0 0 0 0 0 0 0 0 0 0 0 0 0 0 0 61 88 88 28 8 13 24 26 33 58 59 59 62 62 64 65 43 54 57 63 57 57 51 62 62 63 64 62 64 63 64 68 67 65 64 60 64 65 64 63 63 60 61 65 63 65 64 63 63 62 63 61 61 59 62 61 57 54 59 59 55 44 46 60 53 57 58 57 52 27 5 12 12 14 73 88 58 0 0 0 0 0 0 0 0 0 0 0 0 0 0 0 0 0 0 0 0 0 0 0 0 0 0 
0 0 0 0 0 0 0 0 0 0 0 0 0 0 0 0 0 0 0 0 0 0 0 0 0 50 88 88 51 7 19 22 27 27 44 59 60 60 65 60 60 31 27 61 62 59 60 53 65 63 64 63 63 66 64 65 67 66 65 65 63 63 64 63 62 63 63 65 66 65 64 66 64 63 63 62 56 61 62 61 62 61 58 57 43 17 28 60 57 48 55 57 42 49 12 29 11 4 18 88 88 53 0 0 0 0 0 0 0 0 0 0 0 0 0 0 0 0 0 0 0 0 0 0 0 0 0 0 
0 0 0 0 0 0 0 0 0 0 0 0 0 0 0 0 0 0 0 0 0 0 0 0 0 42 88 88 59 13 14 11 14 21 41 60 60 63 62 55 56 51 13 44 58 62 60 63 60 63 64 63 63 65 65 65 65 66 65 64 66 65 65 64 66 66 63 64 63 67 67 65 63 63 58 63 62 61 60 59 65 63 49 23 40 50 60 54 55 51 53 55 55 63 15 11 6 4 32 88 88 46 5 0 0 0 0 0 0 0 0 0 0 0 0 0 0 0 0 0 0 0 0 0 0 0 0 0 
0 0 0 0 0 0 0 0 0 0 0 0 0 0 0 0 0 0 0 0 0 0 0 0 0 29 87 88 73 19 6 34 12 31 32 61 62 58 63 51 49 55 40 31 60 62 63 59 59 61 63 63 61 62 67 64 66 65 67 62 63 65 61 63 62 63 64 66 65 64 64 64 65 63 62 66 59 63 61 63 55 44 43 58 54 56 60 51 53 46 52 45 24 35 26 15 16 7 60 88 87 33 0 0 0 0 0 0 0 0 0 0 0 0 0 0 0 0 0 0 0 0 0 0 0 0 0 0 
0 0 0 0 0 0 0 0 0 0 0 0 0 0 0 0 0 0 0 0 0 0 0 0 0 18 70 88 88 35 4 28 4 43 23 51 55 43 66 58 58 48 45 47 52 60 61 62 59 51 61 71 58 66 65 67 67 70 69 63 59 63 66 58 64 64 64 65 66 63 67 65 66 62 61 62 57 58 67 65 61 53 68 48 54 57 56 51 52 36 45 38 15 7 22 7 13 13 88 88 87 13 0 0 0 0 0 0 0 0 0 0 0 0 0 0 0 0 0 0 0 0 0 0 0 0 0 0 
0 0 0 0 0 0 0 0 0 0 0 0 0 0 0 0 0 0 0 0 0 0 0 5 0 5 55 81 88 58 24 21 19 31 4 27 39 22 64 53 57 47 53 60 58 61 66 59 66 64 58 67 63 68 63 70 68 70 69 68 62 63 66 65 63 64 64 67 64 68 64 66 69 65 63 63 59 60 61 68 61 58 58 54 56 60 54 50 51 43 37 32 11 6 23 1 14 35 88 88 54 0 0 0 0 0 0 0 0 0 0 0 0 0 0 0 0 0 0 0 0 0 0 0 0 0 0 0 
0 0 0 0 0 0 0 0 0 0 0 0 0 0 0 0 0 0 0 0 0 0 0 0 5 0 35 88 88 88 33 13 19 29 6 7 18 14 52 54 57 45 60 65 63 63 60 62 69 73 64 57 67 62 64 73 72 68 69 67 61 57 62 68 59 62 66 65 63 64 60 66 63 66 63 59 62 63 56 61 64 65 56 59 59 61 59 48 50 58 44 30 23 14 30 7 18 58 88 88 40 0 0 0 0 0 0 0 0 0 0 0 0 0 0 0 0 0 0 0 0 0 0 0 0 0 0 0 
0 0 0 0 0 0 0 0 0 0 0 0 0 0 0 0 0 0 0 0 0 0 0 0 0 0 15 61 88 88 46 30 17 20 18 2 14 0 43 64 56 59 54 65 60 61 60 62 64 67 65 63 62 66 67 63 65 68 71 63 65 62 64 65 63 61 61 66 63 64 66 60 63 62 62 65 58 63 60 58 60 58 63 60 55 57 61 55 49 53 37 38 32 22 25 7 31 88 88 64 27 0 0 0 0 0 0 0 0 0 0 0 0 0 0 0 0 0 0 0 0 0 0 0 0 0 0 0 
0 0 0 0 0 0 0 0 0 0 0 0 0 0 0 0 0 0 0 0 0 0 0 0 0 0 0 50 88 88 84 63 0 11 25 4 4 11 25 67 59 58 60 61 61 59 62 62 61 67 66 63 63 64 65 66 66 69 66 64 64 61 61 63 63 63 59 63 62 63 60 61 61 62 61 59 61 64 63 62 58 59 64 58 58 59 57 50 57 56 41 47 18 20 21 16 81 88 88 52 0 0 0 0 0 0 0 0 0 0 0 0 0 0 0 0 0 0 0 0 0 0 0 0 0 0 0 0 
0 0 0 0 0 0 0 0 0 0 0 0 0 0 0 0 0 0 0 0 0 0 0 0 0 0 0 26 73 88 88 55 12 26 16 23 12 18 20 57 61 62 56 60 62 64 62 62 64 63 63 63 66 63 67 66 63 67 66 65 65 63 64 65 63 63 65 64 64 62 64 62 64 61 63 63 63 63 63 62 62 63 61 59 59 62 53 58 59 56 52 21 9 4 15 40 88 88 72 31 0 0 0 0 0 0 0 0 0 0 0 0 0 0 0 0 0 0 0 0 0 0 0 0 0 0 0 0 
0 0 0 0 0 0 0 0 0 0 0 0 0 0 0 0 0 0 0 0 0 0 0 0 0 0 0 0 53 88 88 88 42 19 17 22 22 34 19 53 59 60 62 53 57 62 61 63 63 63 65 64 60 63 64 66 63 66 64 64 63 64 61 65 62 63 63 64 63 62 63 64 64 63 63 62 62 61 64 63 62 63 62 62 57 57 61 60 58 56 21 9 13 3 12 88 88 88 55 8 0 0 0 0 0 0 0 0 0 0 0 0 0 0 0 0 0 0 0 0 0 0 0 0 0 0 0 0 
0 0 0 0 0 0 0 0 0 0 0 0 0 0 0 0 0 0 0 0 0 0 0 0 0 0 0 0 37 72 88 88 88 35 4 8 21 30 17 44 58 61 63 62 59 61 61 61 64 64 64 64 65 64 64 62 63 62 63 67 64 64 64 59 60 62 59 60 61 64 64 63 63 62 61 62 64 62 60 60 63 59 61 62 52 62 57 59 60 27 18 34 4 14 88 88 88 65 31 0 0 0 0 0 0 0 0 0 0 0 0 0 0 0 0 0 0 0 0 0 0 0 0 0 0 0 0 0 
0 0 0 0 0 0 0 0 0 0 0 0 0 0 0 0 0 0 0 0 0 0 0 0 0 0 0 0 0 53 88 88 88 60 8 12 24 19 21 33 58 57 60 62 62 55 60 62 61 65 65 65 62 66 64 66 64 64 65 64 63 63 62 62 61 59 62 62 61 63 60 61 63 62 63 62 63 63 64 61 60 61 59 58 59 61 60 57 45 13 51 23 3 30 88 88 70 53 0 0 0 0 0 0 0 0 0 0 0 0 0 0 0 0 0 0 0 0 0 0 0 0 0 0 0 0 0 0 
0 0 0 0 0 0 0 0 0 0 0 0 0 0 0 0 0 0 0 0 0 0 0 0 0 0 0 0 0 32 64 88 88 88 30 7 6 23 13 27 50 61 59 63 61 58 62 65 61 62 61 60 63 62 64 64 63 65 65 66 63 61 60 61 62 60 59 61 62 60 62 64 60 61 60 61 61 63 60 61 60 60 59 59 61 56 58 56 13 50 29 8 2 88 88 82 63 17 0 0 0 0 0 0 0 0 0 0 0 0 0 0 0 0 0 0 0 0 0 0 0 0 0 0 0 0 0 0 
0 0 0 0 0 0 0 0 0 0 0 0 0 0 0 0 0 0 0 0 0 0 0 0 0 0 0 0 0 0 54 88 88 88 88 6 6 15 27 13 39 57 59 58 62 61 63 58 58 59 60 58 60 63 62 62 63 63 63 65 62 63 60 61 47 62 61 59 63 62 62 63 63 63 62 61 63 56 56 58 62 61 60 61 60 57 57 9 45 40 9 2 72 88 88 72 36 0 0 0 0 0 0 0 0 0 0 0 0 0 0 0 0 0 0 0 0 0 0 0 0 0 0 0 0 0 0 0 
0 0 0 0 0 0 0 0 0 0 0 0 0 0 0 0 0 0 0 0 0 0 0 0 0 0 0 0 0 0 12 64 88 88 88 42 2 5 41 46 12 46 59 58 56 61 62 62 57 60 63 60 61 59 62 64 63 63 64 63 57 58 41 54 43 59 58 61 60 60 62 62 59 61 61 61 61 61 61 58 61 61 61 59 58 58 16 41 46 8 6 50 88 88 76 53 0 0 0 0 0 0 0 0 0 0 0 0 0 0 0 0 0 0 0 0 0 0 0 0 0 0 0 0 0 0 0 0 
0 0 0 0 0 0 0 0 0 0 0 0 0 0 0 0 0 0 0 0 0 0 0 0 0 0 0 0 0 0 0 38 71 88 88 88 28 2 15 51 45 13 60 57 60 60 61 58 62 60 59 63 63 60 61 63 63 63 62 61 61 55 46 30 48 51 58 60 60 62 61 61 61 60 63 55 63 61 56 59 59 58 61 57 56 13 44 37 3 6 35 88 88 81 63 13 0 0 0 0 0 0 0 0 0 0 0 0 0 0 0 0 0 0 0 0 0 0 0 0 0 0 0 0 0 0 0 0 
0 0 0 0 0 0 0 0 0 0 0 0 0 0 0 0 0 0 0 0 0 0 0 0 0 0 0 0 0 0 0 0 49 73 88 88 88 22 2 18 60 34 20 62 57 59 58 59 61 61 63 63 63 62 61 61 59 62 63 61 55 54 45 40 61 52 58 61 59 63 62 59 62 60 62 61 57 58 62 58 61 59 55 61 20 41 31 1 13 35 88 88 88 64 31 0 0 0 0 0 0 0 0 0 0 0 0 0 0 0 0 0 0 0 0 0 0 0 0 0 0 0 0 0 0 0 0 0 
0 0 0 0 0 0 0 0 0 0 0 0 0 0 0 0 0 0 0 0 0 0 0 0 0 0 0 0 0 0 0 0 12 60 85 88 88 88 13 3 22 62 23 26 63 55 59 59 58 65 62 62 61 61 62 61 62 62 60 59 58 60 47 38 47 69 56 54 59 60 60 59 61 61 60 58 54 58 58 59 59 55 66 23 31 25 2 9 36 88 88 88 74 44 0 0 0 0 0 0 0 0 0 0 0 0 0 0 0 0 0 0 0 0 0 0 0 0 0 0 0 0 0 0 0 0 0 0 
0 0 0 0 0 0 0 0 0 0 0 0 0 0 0 0 0 0 0 0 0 0 0 0 0 0 0 0 0 0 0 0 0 27 66 88 88 88 88 22 2 20 52 24 18 62 57 58 60 59 62 64 60 61 59 62 62 64 60 63 59 59 55 49 73 60 54 59 58 61 58 60 59 60 58 58 58 58 58 58 55 54 20 25 23 2 3 25 78 88 88 77 58 7 0 0 0 0 0 0 0 0 0 0 0 0 0 0 0 0 0 0 0 0 0 0 0 0 0 0 0 0 0 0 0 0 0 0 
0 0 0 0 0 0 0 0 0 0 0 0 0 0 0 0 0 0 0 0 0 0 0 0 0 0 0 0 0 0 0 0 0 0 40 74 88 88 88 88 20 1 17 43 33 7 55 57 57 60 60 59 63 59 60 62 63 62 59 59 58 60 55 51 54 53 57 55 62 61 60 58 60 61 58 59 55 54 57 56 60 15 19 18 3 1 76 88 88 88 88 63 28 5 0 0 0 0 0 0 0 0 0 0 0 0 0 0 0 0 0 0 0 0 0 0 0 0 0 0 0 0 0 0 0 0 0 0 
0 0 0 0 0 0 0 0 0 0 0 0 0 0 0 0 0 0 0 0 0 0 0 0 0 0 0 0 0 0 0 0 0 0 0 49 78 88 88 88 85 18 4 6 28 42 9 40 64 55 57 58 57 58 60 61 60 58 60 58 55 62 51 70 41 61 50 55 57 60 57 60 59 59 59 54 58 52 59 49 9 16 9 0 24 88 88 88 88 88 68 47 0 0 0 0 0 0 0 0 0 0 0 0 0 0 0 0 0 0 0 0 0 0 0 0 0 0 0 0 0 0 0 0 0 0 0 0 
0 0 0 0 0 0 0 0 0 0 0 0 0 0 0 0 0 0 0 0 0 0 0 0 0 0 0 0 0 0 0 0 0 0 0 0 56 80 88 88 88 88 67 13 1 12 43 22 19 43 50 58 56 61 60 60 57 58 56 58 65 43 36 50 61 36 46 52 61 59 54 58 58 55 57 55 60 51 18 4 14 6 2 33 39 63 88 88 88 69 58 0 0 0 0 0 0 0 0 0 0 0 0 0 0 0 0 0 0 0 0 0 0 0 0 0 0 0 0 0 0 0 0 0 0 0 0 0 
0 0 0 0 0 0 0 0 0 0 0 0 0 0 0 0 0 0 0 0 0 0 0 0 0 0 0 0 0 0 0 0 0 0 0 0 0 54 76 88 88 88 88 76 13 6 6 29 31 16 19 42 54 57 59 60 62 61 58 62 59 25 23 23 30 46 42 60 49 53 59 59 56 58 50 32 15 13 16 11 3 19 58 72 88 88 88 88 81 62 16 0 0 0 0 0 0 0 0 0 0 0 0 0 0 0 0 0 0 0 0 0 0 0 0 0 0 0 0 0 0 0 0 0 0 0 0 0 
0 0 0 0 0 0 0 0 0 0 0 0 0 0 0 0 0 0 0 0 0 0 0 0 0 0 0 0 0 0 0 0 0 0 0 0 0 8 47 67 78 88 88 88 88 32 18 2 11 31 39 27 21 23 22 24 31 21 25 32 34 21 36 59 57 22 17 24 20 27 19 18 22 18 21 27 30 17 7 13 35 49 88 88 88 88 88 82 60 28 0 0 0 0 0 0 0 0 0 0 0 0 0 0 0 0 0 0 0 0 0 0 0 0 0 0 0 0 0 0 0 0 0 0 0 0 0 0 
0 0 0 0 0 0 0 0 0 0 0 0 0 0 0 0 0 0 0 0 0 0 0 0 0 0 0 0 0 0 0 0 0 0 0 0 0 0 0 33 64 81 83 88 88 71 45 23 13 6 13 22 40 50 66 69 66 78 72 68 68 70 64 68 75 67 55 73 71 67 66 64 62 53 40 23 9 6 16 37 65 88 88 88 88 83 76 64 28 0 0 0 0 0 0 0 0 0 0 0 0 0 0 0 0 0 0 0 0 0 0 0 0 0 0 0 0 0 0 0 0 0 0 0 0 0 0 0 
0 0 0 0 0 0 0 0 0 0 0 0 0 0 0 0 0 0 0 0 0 0 0 0 0 0 0 0 0 0 0 0 0 0 0 0 0 0 0 0 11 49 75 88 88 88 88 88 41 18 8 6 3 9 21 33 47 61 64 72 72 67 74 63 72 69 67 74 70 65 66 38 22 13 3 7 5 21 58 84 88 88 88 78 85 64 59 18 0 0 0 0 0 0 0 0 0 0 0 0 0 0 0 0 0 0 0 0 0 0 0 0 0 0 0 0 0 0 0 0 0 0 0 0 0 0 0 0 
0 0 0 0 0 0 0 0 0 0 0 0 0 0 0 0 0 0 0 0 0 0 0 0 0 0 0 0 0 0 0 0 0 0 0 0 0 0 0 0 0 0 31 69 82 88 88 88 88 80 41 19 2 6 1 2 6 13 24 42 48 64 55 57 50 62 53 47 31 22 8 0 1 13 16 26 70 88 88 88 88 81 74 68 59 37 0 0 0 0 0 0 0 0 0 0 0 0 0 0 0 0 0 0 0 0 0 0 0 0 0 0 0 0 0 0 0 0 0 0 0 0 0 0 0 0 0 0 
0 0 0 0 0 0 0 0 0 0 0 0 0 0 0 0 0 0 0 0 0 0 0 0 0 0 0 0 0 0 0 0 0 0 0 0 0 0 0 0 0 0 0 18 61 69 77 88 88 88 88 88 62 21 19 7 7 0 0 0 13 16 25 8 8 13 1 7 11 19 22 45 70 64 88 88 88 88 88 79 67 69 57 40 7 0 0 0 0 0 0 0 0 0 0 0 0 0 0 0 0 0 0 0 0 0 0 0 0 0 0 0 0 0 0 0 0 0 0 0 0 0 0 0 0 0 0 0 
0 0 0 0 0 0 0 0 0 0 0 0 0 0 0 0 0 0 0 0 0 0 0 0 0 0 0 0 0 0 0 0 0 0 0 0 0 0 0 0 0 0 0 0 8 41 67 81 68 88 88 88 88 88 88 88 56 78 60 70 62 57 50 88 88 88 88 88 88 88 88 88 88 88 88 88 88 68 64 66 59 38 11 0 0 0 0 0 0 0 0 0 0 0 0 0 0 0 0 0 0 0 0 0 0 0 0 0 0 0 0 0 0 0 0 0 0 0 0 0 0 0 0 0 0 0 0 0 
0 0 0 0 0 0 0 0 0 0 0 0 0 0 0 0 0 0 0 0 0 0 0 0 0 0 0 0 0 0 0 0 0 0 0 0 0 0 0 0 0 0 0 0 0 0 11 42 62 72 69 88 88 88 88 88 88 88 88 88 88 88 88 88 88 88 88 88 88 88 88 88 88 88 70 63 62 64 48 24 5 0 0 0 0 0 0 0 0 0 0 0 0 0 0 0 0 0 0 0 0 0 0 0 0 0 0 0 0 0 0 0 0 0 0 0 0 0 0 0 0 0 0 0 0 0 0 0 
0 0 0 0 0 0 0 0 0 0 0 0 0 0 0 0 0 0 0 0 0 0 0 0 0 0 0 0 0 0 0 0 0 0 0 0 0 0 0 0 0 0 0 0 0 0 0 0 9 38 63 72 66 63 88 88 88 88 88 88 88 88 88 88 88 88 88 88 86 82 65 64 58 59 59 56 42 19 0 0 0 0 0 0 0 0 0 0 0 0 0 0 0 0 0 0 0 0 0 0 0 0 0 0 0 0 0 0 0 0 0 0 0 0 0 0 0 0 0 0 0 0 0 0 0 0 0 0 
0 0 0 0 0 0 0 0 0 0 0 0 0 0 0 0 0 0 0 0 0 0 0 0 0 0 0 0 0 0 0 0 0 0 0 0 0 0 0 0 0 0 0 0 0 0 0 0 0 0 13 35 55 63 61 64 60 59 58 65 84 88 88 87 63 54 53 55 58 55 62 56 54 39 18 0 0 0 0 0 0 0 0 0 0 0 0 0 0 0 0 0 0 0 0 0 0 0 0 0 0 0 0 0 0 0 0 0 0 0 0 0 0 0 0 0 0 0 0 0 0 0 0 0 0 0 0 0 
0 0 0 0 0 0 0 0 0 0 0 0 0 0 0 0 0 0 0 0 0 0 0 0 0 0 0 0 0 0 0 0 0 0 0 0 0 0 0 0 0 0 0 0 0 0 0 0 0 0 0 0 5 12 27 31 36 45 55 63 64 55 56 53 55 50 37 30 24 22 13 8 0 0 0 0 0 0 0 0 0 0 0 0 0 0 0 0 0 0 0 0 0 0 0 0 0 0 0 0 0 0 0 0 0 0 0 0 0 0 0 0 0 0 0 0 0 0 0 0 0 0 0 0 0 0 0 0 
0 0 0 0 0 0 0 0 0 0 0 0 0 0 0 0 0 0 0 0 0 0 0 0 0 0 0 0 0 0 0 0 0 0 0 0 0 0 0 0 0 0 0 0 0 0 0 0 0 0 0 0 0 0 0 0 0 0 5 13 37 44 47 39 16 0 0 0 0 0 0 0 0 0 0 0 0 0 0 0 0 0 0 0 0 0 0 0 0 0 0 0 0 0 0 0 0 0 0 0 0 0 0 0 0 0 0 0 0 0 0 0 0 0 0 0 0 0 0 0 0 0 0 0 0 0 0 0 
0 0 0 0 0 0 0 0 0 0 0 0 0 0 0 0 0 0 0 0 0 0 0 0 0 0 0 0 0 0 0 0 0 0 0 0 0 0 0 0 0 0 0 0 0 0 0 0 0 0 0 0 0 0 0 0 0 0 0 0 0 0 0 0 0 0 0 0 0 0 0 0 0 0 0 0 0 0 0 0 0 0 0 0 0 0 0 0 0 0 0 0 0 0 0 0 0 0 0 0 0 0 0 0 0 0 0 0 0 0 0 0 0 0 0 0 0 0 0 0 0 0 0 0 0 0 0 0 
