P2
128 128
88
0 0 0 0 0 0 0 0 0 0 0 0 0 0 0 0 0 0 0 0 0 0 0 0 0 0 0 0 0 0 0 0 0 0 0 0 0 0 0 0 0 0 0 0 0 0 0 0 0 0 0 0 0 0 0 0 0 0 0 0 0 0 0 0 0 0 0 0 0 0 0 0 0 0 0 0 0 0 0 0 0 0 0 0 0 0 0 0 0 0 0 0 0 0 0 0 0 0 0 0 0 0 0 0 0 0 0 0 0 0 0 0 0 0 0 0 0 0 0 0 0 0 0 0 0 0 0 0 
0 0 0 0 0 0 0 0 0 0 0 0 0 0 0 0 0 0 0 0 0 0 0 0 0 0 0 0 0 0 0 0 0 0 0 0 0 0 0 0 0 0 0 0 0 0 0 0 0 0 0 0 0 0 0 0 0 0 0 0 0 0 0 0 0 0 0 0 0 0 0 0 0 0 0 0 0 0 0 0 0 0 0 0 0 0 0 0 0 0 0 0 0 0 0 0 0 0 0 0 0 0 0 0 0 0 0 0 0 0 0 0 0 0 0 0 0 0 0 0 0 0 0 0 0 0 0 0 
0 0 0 0 0 0 0 0 0 0 0 0 0 0 0 0 0 0 0 0 0 0 0 0 0 0 0 0 0 0 0 0 0 0 0 0 0 0 0 0 0 0 0 0 0 0 0 0 0 0 0 0 0 0 0 0 0 0 0 0 0 0 0 0 0 0 0 0 0 0 0 0 0 0 0 0 0 0 0 0 0 0 0 0 0 0 0 0 0 0 0 0 0 0 0 0 0 0 0 0 0 0 0 0 0 0 0 0 0 0 0 0 0 0 0 0 0 0 0 0 0 0 0 0 0 0 0 0 
0 0 0 0 0 0 0 0 0 0 0 0 0 0 0 0 0 0 0 0 0 0 0 0 0 0 0 0 0 0 0 0 0 0 0 0 0 0 0 0 0 0 0 0 0 0 0 0 0 0 0 0 0 0 0 0 0 0 0 0 0 0 0 0 0 0 0 0 0 0 0 0 0 0 0 0 0 0 0 0 0 0 0 0 0 0 0 0 0 0 0 0 0 0 0 0 0 0 0 0 0 0 0 0 0 0 0 0 0 0 0 0 0 0 0 0 0 0 0 0 0 0 0 0 0 0 0 0 
0 0 0 0 0 0 0 0 0 0 0 0 0 0 0 0 0 0 0 0 0 0 0 0 0 0 0 0 0 0 0 0 0 0 0 0 0 0 0 0 0 0 0 0 0 0 0 0 0 0 0 0 0 0 0 0 0 0 0 0 0 0 0 0 0 0 0 0 0 0 0 0 0 0 0 0 0 0 0 0 0 0 0 0 0 0 0 0 0 0 0 0 0 0 0 0 0 0 0 0 0 0 0 0 0 0 0 0 0 0 0 0 0 0 0 0 0 0 0 0 0 0 0 0 0 0 0 0 
0 0 0 0 0 0 0 0 0 0 0 0 0 0 0 0 0 0 0 0 0 0 0 0 0 0 0 0 0 0 0 0 0 0 0 0 0 0 0 0 0 0 0 0 0 0 0 0 0 0 0 0 0 0 0 0 0 0 0 0 0 0 0 0 0 0 0 0 0 0 0 0 0 0 0 0 0 0 0 0 0 0 0 0 0 0 0 0 0 0 0 0 0 0 0 0 0 0 0 0 0 0 0 0 0 0 0 0 0 0 0 0 0 0 0 0 0 0 0 0 0 0 0 0 0 0 0 0 
0 0 0 0 0 0 0 0 0 0 0 0 0 0 0 0 0 0 0 0 0 0 0 0 0 0 0 0 0 0 0 0 0 0 0 0 0 0 0 0 0 0 0 0 0 0 0 0 0 0 0 0 0 0 0 0 0 0 0 0 0 0 0 0 0 0 0 0 0 0 0 0 0 0 0 0 0 0 0 0 0 0 0 0 0 0 0 0 0 0 0 0 0 0 0 0 0 0 0 0 0 0 0 0 0 0 0 0 0 0 0 0 0 0 0 0 0 0 0 0 0 0 0 0 0 0 0 0 
0 0 0 0 0 0 0 0 0 0 0 0 0 0 0 0 0 0 0 0 0 0 0 0 0 0 0 0 0 0 0 0 0 0 0 0 0 0 0 0 0 0 0 0 0 0 0 0 0 0 0 0 0 0 0 0 0 0 0 0 0 0 0 0 0 0 0 0 0 0 0 0 0 0 0 0 0 0 0 0 0 0 0 0 0 0 0 0 0 0 0 0 0 0 0 0 0 0 0 0 0 0 0 0 0 0 0 0 0 0 0 0 0 0 0 0 0 0 0 0 0 0 0 0 0 0 0 0 
0 0 0 0 0 0 0 0 0 0 0 0 0 0 0 0 0 0 0 0 0 0 0 0 0 0 0 0 0 0 0 0 0 0 0 0 0 0 0 0 0 0 0 0 0 0 0 0 0 0 0 0 0 0 0 0 0 0 0 0 0 0 0 0 0 0 0 0 0 0 0 0 0 0 0 0 0 0 0 0 0 0 0 0 0 0 0 0 0 0 0 0 0 0 0 0 0 0 0 0 0 0 0 0 0 0 0 0 0 0 0 0 0 0 0 0 0 0 0 0 0 0 0 0 0 0 0 0 
0 0 0 0 0 0 0 0 0 0 0 0 0 0 0 0 0 0 0 0 0 0 0 0 0 0 0 0 0 0 0 0 0 0 0 0 0 0 0 0 0 0 0 0 0 0 0 0 0 0 0 0 0 0 0 0 0 0 0 0 0 0 0 0 0 0 0 0 0 0 0 0 0 0 0 0 0 0 0 0 0 0 0 0 0 0 0 0 0 0 0 0 0 0 0 0 0 0 0 0 0 0 0 0 0 0 0 0 0 0 0 0 0 0 0 0 0 0 0 0 0 0 0 0 0 0 0 0 
0 0 0 0 0 0 0 0 0 0 0 0 0 0 0 0 0 0 0 0 0 0 0 0 0 0 0 0 0 0 0 0 0 0 0 0 0 0 0 0 0 0 0 0 0 0 0 0 0 0 0 0 0 0 0 0 0 0 0 0 0 0 0 0 0 0 0 0 0 0 0 0 0 0 0 0 0 0 0 0 0 0 0 0 0 0 0 0 0 0 0 0 0 0 0 0 0 0 0 0 0 0 0 0 0 0 0 0 0 0 0 0 0 0 0 0 0 0 0 0 0 0 0 0 0 0 0 0 
0 0 0 0 0 0 0 0 0 0 0 0 0 0 0 0 0 0 0 0 0 0 0 0 0 0 0 0 0 0 0 0 0 0 0 0 0 0 0 0 0 0 0 0 0 0 0 0 0 0 0 0 0 0 0 0 0 0 0 0 0 0 0 0 0 0 0 0 0 0 0 0 0 0 0 0 0 0 0 0 0 0 0 0 0 0 0 0 0 0 0 0 0 0 0 0 0 0 0 0 0 0 0 0 0 0 0 0 0 0 0 0 0 0 0 0 0 0 0 0 0 0 0 0 0 0 0 0 
0 0 0 0 0 0 0 0 0 0 0 0 0 0 0 0 0 0 0 0 0 0 0 0 0 0 0 0 0 0 0 0 0 0 0 0 0 0 0 0 0 0 0 0 0 0 0 0 0 0 0 0 0 0 0 0 0 0 0 0 0 0 0 0 0 0 0 0 0 0 0 0 0 0 0 0 0 0 0 0 0 0 0 0 0 0 0 0 0 0 0 0 0 0 0 0 0 0 0 0 0 0 0 0 0 0 0 0 0 0 0 0 0 0 0 0 0 0 0 0 0 0 0 0 0 0 0 0 
0 0 0 0 0 0 0 0 0 0 0 0 0 0 0 0 0 0 0 0 0 0 0 0 0 0 0 0 0 0 0 0 0 0 0 0 0 0 0 0 0 0 0 0 0 0 0 0 0 0 0 0 0 0 0 0 0 0 0 0 0 0 0 0 0 0 0 0 0 0 0 0 0 0 0 0 0 0 0 0 0 0 0 0 0 0 0 0 0 0 0 0 0 0 0 0 0 0 0 0 0 0 0 0 0 0 0 0 0 0 0 0 0 0 0 0 0 0 0 0 0 0 0 0 0 0 0 0 
0 0 0 0 0 0 0 0 0 0 0 0 0 0 0 0 0 0 0 0 0 0 0 0 0 0 0 0 0 0 0 0 0 0 0 0 0 0 0 0 0 0 0 0 0 0 0 0 0 0 0 0 0 0 0 0 0 0 0 0 0 0 0 0 0 0 0 0 0 0 0 0 0 0 0 0 0 0 0 0 0 0 0 0 0 0 0 0 0 0 0 0 0 0 0 0 0 0 0 0 0 0 0 0 0 0 0 0 0 0 0 0 0 0 0 0 0 0 0 0 0 0 0 0 0 0 0 0 
0 0 0 0 0 0 0 0 0 0 0 0 0 0 0 0 0 0 0 0 0 0 0 0 0 0 0 0 0 0 0 0 0 0 0 0 0 0 0 0 0 0 0 0 0 0 0 0 0 0 0 0 0 0 0 0 0 0 0 0 0 0 0 0 0 0 0 0 0 0 0 0 0 0 0 0 0 0 0 0 0 0 0 0 0 0 0 0 0 0 0 0 0 0 0 0 0 0 0 0 0 0 0 0 0 0 0 0 0 0 0 0 0 0 0 0 0 0 0 0 0 0 0 0 0 0 0 0 
0 0 0 0 0 0 0 0 0 0 0 0 0 0 0 0 0 0 0 0 0 0 0 0 0 0 0 0 0 0 0 0 0 0 0 0 0 0 0 0 0 0 0 0 0 0 0 0 0 0 0 0 0 0 30 54 76 88 88 88 88 88 88 88 88 88 88 88 88 86 61 25 0 0 0 0 0 0 0 0 0 0 0 0 0 0 0 0 0 0 0 0 0 0 0 0 0 0 0 0 0 0 0 0 0 0 0 0 0 0 0 0 0 0 0 0 0 0 0 0 0 0 0 0 0 0 0 0 
0 0 0 0 0 0 0 0 0 0 0 0 0 0 0 0 0 0 0 0 0 0 0 0 0 0 0 0 0 0 0 0 0 0 0 0 0 0 0 0 0 0 0 0 0 0 0 0 0 0 27 88 88 88 88 88 88 88 88 88 88 88 88 88 88 88 88 88 88 88 88 88 88 88 60 0 0 0 0 0 0 0 0 0 0 0 0 0 0 0 0 0 0 0 0 0 0 0 0 0 0 0 0 0 0 0 0 0 0 0 0 0 0 0 0 0 0 0 0 0 0 0 0 0 0 0 0 0 
0 0 0 0 0 0 0 0 0 0 0 0 0 0 0 0 0 0 0 0 0 0 0 0 0 0 0 0 0 0 0 0 0 0 0 0 0 0 0 0 0 0 0 0 0 0 0 0 70 88 88 88 88 36 71 80 60 31 22 23 24 29 35 32 29 22 26 39 49 88 87 88 88 88 88 88 88 17 0 0 0 0 0 0 0 0 0 0 0 0 0 0 0 0 0 0 0 0 0 0 0 0 0 0 0 0 0 0 0 0 0 0 0 0 0 0 0 0 0 0 0 0 0 0 0 0 0 0 
0 0 0 0 0 0 0 0 0 0 0 0 0 0 0 0 0 0 0 0 0 0 0 0 0 0 0 0 0 0 0 0 0 0 0 0 0 0 0 0 0 0 0 0 0 0 68 88 88 88 88 53 32 88 88 37 35 33 39 37 43 28 35 31 33 32 31 45 41 63 41 32 24 40 87 88 88 88 88 18 0 0 0 0 0 0 0 0 0 0 0 0 0 0 0 0 0 0 0 0 0 0 0 0 0 0 0 0 0 0 0 0 0 0 0 0 0 0 0 0 0 0 0 0 0 0 0 0 
0 0 0 0 0 0 0 0 0 0 0 0 0 0 0 0 0 0 0 0 0 0 0 0 0 0 0 0 0 0 0 0 0 0 0 0 0 0 0 0 0 0 0 0 29 88 88 88 40 25 40 44 24 12 15 29 38 53 57 60 63 72 77 80 76 76 63 46 33 27 18 23 26 47 48 19 51 88 88 88 72 0 0 0 0 0 0 0 0 0 0 0 0 0 0 0 0 0 0 0 0 0 0 0 0 0 0 0 0 0 0 0 0 0 0 0 0 0 0 0 0 0 0 0 0 0 0 0 
0 0 0 0 0 0 0 0 0 0 0 0 0 0 0 0 0 0 0 0 0 0 0 0 0 0 0 0 0 0 0 0 0 0 0 0 0 0 0 0 0 0 0 69 88 88 27 31 41 23 15 31 44 17 5 0 0 0 7 19 39 64 83 83 71 45 21 6 8 13 26 43 37 19 11 26 47 38 24 88 88 88 0 0 0 0 0 0 0 0 0 0 0 0 0 0 0 0 0 0 0 0 0 0 0 0 0 0 0 0 0 0 0 0 0 0 0 0 0 0 0 0 0 0 0 0 0 0 
0 0 0 0 0 0 0 0 0 0 0 0 0 0 0 0 0 0 0 0 0 0 0 0 0 0 0 0 0 0 0 0 0 0 0 0 0 0 0 0 0 0 88 88 33 36 39 17 33 46 35 15 5 29 34 37 47 37 27 23 19 6 46 75 35 1 7 23 27 20 7 1 12 26 37 39 9 12 62 40 28 88 88 25 0 0 0 0 0 0 0 0 0 0 0 0 0 0 0 0 0 0 0 0 0 0 0 0 0 0 0 0 0 0 0 0 0 0 0 0 0 0 0 0 0 0 0 0 
0 0 0 0 0 0 0 0 0 0 0 0 0 0 0 0 0 0 0 0 0 0 0 0 0 0 0 0 0 0 0 0 0 0 0 0 0 0 0 0 0 88 88 25 53 12 18 38 25 2 15 28 34 52 48 57 58 59 49 38 54 32 8 26 2 29 56 59 56 55 56 44 34 26 21 15 48 31 8 7 46 43 56 88 47 0 0 0 0 0 0 0 0 0 0 0 0 0 0 0 0 0 0 0 0 0 0 0 0 0 0 0 0 0 0 0 0 0 0 0 0 0 0 0 0 0 0 0 
0 0 0 0 0 0 0 0 0 0 0 0 0 0 0 0 0 0 0 0 0 0 0 0 0 0 0 0 0 0 0 0 0 0 0 0 0 0 0 0 88 88 34 41 0 9 8 2 17 37 40 52 56 54 44 60 62 55 54 55 52 45 24 1 25 56 58 58 60 59 61 60 55 48 75 58 0 9 22 16 1 16 54 33 88 47 0 0 0 0 0 0 0 0 0 0 0 0 0 0 0 0 0 0 0 0 0 0 0 0 0 0 0 0 0 0 0 0 0 0 0 0 0 0 0 0 0 0 
0 0 0 0 0 0 0 0 0 0 0 0 0 0 0 0 0 0 0 0 0 0 0 0 0 0 0 0 0 0 0 0 0 0 0 0 0 0 0 88 88 33 29 0 2 8 28 29 34 41 44 56 58 59 51 60 63 61 57 56 57 52 42 13 46 57 61 64 63 59 60 59 58 50 46 62 63 38 29 11 5 4 0 64 37 88 45 0 0 0 0 0 0 0 0 0 0 0 0 0 0 0 0 0 0 0 0 0 0 0 0 0 0 0 0 0 0 0 0 0 0 0 0 0 0 0 0 0 
0 0 0 0 0 0 0 0 0 0 0 0 0 0 0 0 0 0 0 0 0 0 0 0 0 0 0 0 0 0 0 0 0 0 0 0 0 0 88 79 48 23 0 3 35 57 39 46 53 47 51 59 59 63 60 61 62 62 58 58 59 54 46 35 50 56 59 65 63 58 57 57 60 53 54 48 49 51 36 50 38 1 13 1 53 38 88 32 0 0 0 0 0 0 0 0 0 0 0 0 0 0 0 0 0 0 0 0 0 0 0 0 0 0 0 0 0 0 0 0 0 0 0 0 0 0 0 0 
0 0 0 0 0 0 0 0 0 0 0 0 0 0 0 0 0 0 0 0 0 0 0 0 0 0 0 0 0 0 0 0 0 0 0 0 0 75 88 50 19 3 2 46 54 53 45 49 55 55 51 54 57 62 63 61 64 64 60 55 55 57 50 39 54 55 57 63 63 59 59 60 57 57 58 54 53 47 50 59 59 53 2 29 1 54 44 88 0 0 0 0 0 0 0 0 0 0 0 0 0 0 0 0 0 0 0 0 0 0 0 0 0 0 0 0 0 0 0 0 0 0 0 0 0 0 0 0 
0 0 0 0 0 0 0 0 0 0 0 0 0 0 0 0 0 0 0 0 0 0 0 0 0 0 0 0 0 0 0 0 0 0 0 0 29 88 42 31 3 5 28 56 55 56 53 55 57 58 54 53 52 62 63 63 63 67 61 58 57 55 57 32 54 59 61 65 62 58 58 61 60 56 56 56 55 49 56 62 59 60 42 9 40 4 52 80 88 0 0 0 0 0 0 0 0 0 0 0 0 0 0 0 0 0 0 0 0 0 0 0 0 0 0 0 0 0 0 0 0 0 0 0 0 0 0 0 
0 0 0 0 0 0 0 0 0 0 0 0 0 0 0 0 0 0 0 0 0 0 0 0 0 0 0 0 0 0 0 0 0 0 0 0 88 59 49 0 14 2 50 55 59 61 58 55 54 59 56 57 42 60 65 62 65 68 65 59 61 53 55 32 54 60 59 65 64 60 59 61 59 62 58 54 56 49 56 64 61 57 61 12 42 24 12 52 88 88 0 0 0 0 0 0 0 0 0 0 0 0 0 0 0 0 0 0 0 0 0 0 0 0 0 0 0 0 0 0 0 0 0 0 0 0 0 0 
0 0 0 0 0 0 0 0 0 0 0 0 0 0 0 0 0 0 0 0 0 0 0 0 0 0 0 0 0 0 0 0 0 0 0 68 88 46 0 6 16 33 56 55 57 63 60 55 58 59 56 59 56 58 64 65 66 67 62 63 58 56 56 32 58 59 60 67 64 64 63 64 66 63 54 59 56 48 59 64 61 59 59 48 4 53 13 21 51 88 43 0 0 0 0 0 0 0 0 0 0 0 0 0 0 0 0 0 0 0 0 0 0 0 0 0 0 0 0 0 0 0 0 0 0 0 0 0 
0 0 0 0 0 0 0 0 0 0 0 0 0 0 0 0 0 0 0 0 0 0 0 0 0 0 0 0 0 0 0 0 0 0 16 88 33 21 6 12 30 54 53 56 58 62 61 57 58 59 59 62 59 59 68 68 65 59 68 59 62 58 59 37 56 57 61 65 67 68 71 67 66 63 60 58 57 51 62 66 59 60 59 62 7 81 58 9 24 78 88 0 0 0 0 0 0 0 0 0 0 0 0 0 0 0 0 0 0 0 0 0 0 0 0 0 0 0 0 0 0 0 0 0 0 0 0 0 
0 0 0 0 0 0 0 0 0 0 0 0 0 0 0 0 0 0 0 0 0 0 0 0 0 0 0 0 0 0 0 0 0 0 88 83 31 0 16 24 48 59 54 55 58 63 63 58 56 59 62 63 64 68 66 65 65 58 52 52 56 57 55 47 59 61 63 65 65 69 70 66 68 63 63 58 57 52 62 65 61 59 59 54 47 0 69 58 20 36 88 73 0 0 0 0 0 0 0 0 0 0 0 0 0 0 0 0 0 0 0 0 0 0 0 0 0 0 0 0 0 0 0 0 0 0 0 0 
0 0 0 0 0 0 0 0 0 0 0 0 0 0 0 0 0 0 0 0 0 0 0 0 0 0 0 0 0 0 0 0 0 20 88 32 17 38 9 46 54 57 58 59 58 66 63 62 60 60 63 65 69 67 66 65 60 58 47 47 57 56 51 54 58 59 70 59 63 66 70 70 67 67 63 63 60 59 66 65 62 57 60 54 63 9 32 76 44 25 58 88 0 0 0 0 0 0 0 0 0 0 0 0 0 0 0 0 0 0 0 0 0 0 0 0 0 0 0 0 0 0 0 0 0 0 0 0 
0 0 0 0 0 0 0 0 0 0 0 0 0 0 0 0 0 0 0 0 0 0 0 0 0 0 0 0 0 0 0 0 0 88 88 21 32 37 12 56 54 57 56 59 59 66 65 64 64 65 66 67 69 68 68 64 61 57 51 39 57 60 48 53 59 57 55 60 58 64 67 71 65 65 68 67 62 65 68 63 62 60 60 57 58 41 0 31 68 4 32 88 88 0 0 0 0 0 0 0 0 0 0 0 0 0 0 0 0 0 0 0 0 0 0 0 0 0 0 0 0 0 0 0 0 0 0 0 
0 0 0 0 0 0 0 0 0 0 0 0 0 0 0 0 0 0 0 0 0 0 0 0 0 0 0 0 0 0 0 0 18 88 44 9 67 11 35 54 57 57 59 62 63 64 65 66 64 67 67 64 69 69 66 63 61 52 52 48 57 56 52 46 61 55 54 57 58 60 66 69 67 67 64 66 68 68 68 63 63 61 59 57 56 55 25 7 31 22 34 67 88 0 0 0 0 0 0 0 0 0 0 0 0 0 0 0 0 0 0 0 0 0 0 0 0 0 0 0 0 0 0 0 0 0 0 0 
0 0 0 0 0 0 0 0 0 0 0 0 0 0 0 0 0 0 0 0 0 0 0 0 0 0 0 0 0 0 0 0 73 88 31 21 50 0 54 54 59 60 57 63 65 65 68 63 64 64 66 67 66 68 69 60 62 54 56 57 55 57 52 44 47 55 58 60 58 59 64 71 69 66 65 66 69 69 67 62 62 61 62 60 58 44 41 41 13 17 39 24 88 66 0 0 0 0 0 0 0 0 0 0 0 0 0 0 0 0 0 0 0 0 0 0 0 0 0 0 0 0 0 0 0 0 0 0 
0 0 0 0 0 0 0 0 0 0 0 0 0 0 0 0 0 0 0 0 0 0 0 0 0 0 0 0 0 0 0 0 88 47 44 32 20 15 56 55 58 58 60 64 65 67 67 67 67 64 65 66 69 67 66 65 60 55 61 60 57 59 58 61 48 59 61 60 60 59 66 69 72 69 64 64 68 70 67 62 61 63 62 59 53 55 60 58 41 0 32 43 61 88 0 0 0 0 0 0 0 0 0 0 0 0 0 0 0 0 0 0 0 0 0 0 0 0 0 0 0 0 0 0 0 0 0 0 
0 0 0 0 0 0 0 0 0 0 0 0 0 0 0 0 0 0 0 0 0 0 0 0 0 0 0 0 0 0 0 53 88 23 56 29 9 34 54 59 62 59 62 62 65 66 68 68 68 64 62 67 66 67 68 66 58 60 59 60 60 57 55 56 56 59 60 61 60 59 69 69 69 70 66 63 69 69 64 61 61 65 64 58 58 59 61 58 59 8 14 60 23 88 74 0 0 0 0 0 0 0 0 0 0 0 0 0 0 0 0 0 0 0 0 0 0 0 0 0 0 0 0 0 0 0 0 0 
0 0 0 0 0 0 0 0 0 0 0 0 0 0 0 0 0 0 0 0 0 0 0 0 0 0 0 0 0 0 0 88 60 42 54 21 2 47 53 56 59 61 61 62 63 65 66 64 64 65 63 65 68 67 69 65 61 62 61 63 63 58 56 59 57 57 60 63 63 63 70 69 70 65 65 67 68 67 65 61 64 67 66 61 62 63 63 59 56 24 3 53 42 74 88 0 0 0 0 0 0 0 0 0 0 0 0 0 0 0 0 0 0 0 0 0 0 0 0 0 0 0 0 0 0 0 0 0 
0 0 0 0 0 0 0 0 0 0 0 0 0 0 0 0 0 0 0 0 0 0 0 0 0 0 0 0 0 0 31 88 22 58 52 6 14 46 45 57 55 59 62 62 64 65 66 63 66 66 68 67 68 68 68 70 64 62 62 61 61 58 52 60 60 61 63 63 63 64 69 71 71 68 67 68 69 68 62 64 63 65 69 66 64 63 61 56 52 56 0 40 65 35 88 28 0 0 0 0 0 0 0 0 0 0 0 0 0 0 0 0 0 0 0 0 0 0 0 0 0 0 0 0 0 0 0 0 
0 0 0 0 0 0 0 0 0 0 0 0 0 0 0 0 0 0 0 0 0 0 0 0 0 0 0 0 0 0 88 87 44 59 45 4 29 57 48 52 55 60 63 63 63 65 67 64 65 68 70 70 68 70 69 67 65 64 60 61 62 59 55 58 59 64 65 62 64 67 69 69 70 69 70 69 69 69 64 55 63 64 67 67 65 63 59 59 60 59 22 17 70 38 88 88 0 0 0 0 0 0 0 0 0 0 0 0 0 0 0 0 0 0 0 0 0 0 0 0 0 0 0 0 0 0 0 0 
0 0 0 0 0 0 0 0 0 0 0 0 0 0 0 0 0 0 0 0 0 0 0 0 0 0 0 0 0 0 88 24 62 52 34 7 43 58 56 58 57 58 61 62 63 65 65 63 63 68 67 67 68 68 68 69 70 63 62 63 61 59 56 59 57 65 64 64 64 68 70 71 70 69 68 68 66 66 67 63 62 63 64 66 65 63 63 63 60 57 45 13 57 61 47 88 0 0 0 0 0 0 0 0 0 0 0 0 0 0 0 0 0 0 0 0 0 0 0 0 0 0 0 0 0 0 0 0 
0 0 0 0 0 0 0 0 0 0 0 0 0 0 0 0 0 0 0 0 0 0 0 0 0 0 0 0 0 66 88 40 56 53 25 15 54 56 57 53 55 58 61 63 63 63 62 62 62 62 67 71 66 69 65 69 69 67 63 59 61 58 42 55 58 68 64 66 66 70 69 69 71 65 66 65 63 65 70 63 60 63 63 65 65 65 63 64 63 57 56 4 57 56 31 88 43 0 0 0 0 0 0 0 0 0 0 0 0 0 0 0 0 0 0 0 0 0 0 0 0 0 0 0 0 0 0 0 
0 0 0 0 0 0 0 0 0 0 0 0 0 0 0 0 0 0 0 0 0 0 0 0 0 0 0 0 0 88 47 61 49 55 15 24 55 54 56 55 56 64 64 65 61 58 62 56 62 63 64 66 68 68 69 68 70 69 66 59 60 60 41 58 57 64 69 67 68 68 69 70 69 65 64 64 64 63 65 64 63 64 64 66 66 68 62 63 62 58 59 5 57 48 40 88 88 0 0 0 0 0 0 0 0 0 0 0 0 0 0 0 0 0 0 0 0 0 0 0 0 0 0 0 0 0 0 0 
0 0 0 0 0 0 0 0 0 0 0 0 0 0 0 0 0 0 0 0 0 0 0 0 0 0 0 0 28 88 29 54 57 49 8 36 55 57 60 60 65 67 66 62 63 66 62 63 62 65 65 66 68 69 68 69 67 67 68 64 58 60 42 48 59 60 72 68 69 70 71 70 68 66 66 68 65 65 68 67 65 67 66 62 63 60 62 61 57 60 58 8 53 49 61 41 88 0 0 0 0 0 0 0 0 0 0 0 0 0 0 0 0 0 0 0 0 0 0 0 0 0 0 0 0 0 0 0 
0 0 0 0 0 0 0 0 0 0 0 0 0 0 0 0 0 0 0 0 0 0 0 0 0 0 0 0 88 88 44 48 58 47 5 52 56 58 64 62 66 66 64 64 63 64 63 65 66 68 70 69 67 69 69 70 68 71 70 67 63 61 49 27 59 58 67 69 71 71 71 71 73 70 69 69 67 66 67 68 67 67 67 64 62 55 53 60 57 59 54 8 51 54 56 35 88 33 0 0 0 0 0 0 0 0 0 0 0 0 0 0 0 0 0 0 0 0 0 0 0 0 0 0 0 0 0 0 
0 0 0 0 0 0 0 0 0 0 0 0 0 0 0 0 0 0 0 0 0 0 0 0 0 0 0 0 88 47 60 49 51 52 12 53 56 61 61 61 63 64 63 62 63 63 64 67 68 65 70 66 69 68 70 69 71 69 69 68 65 60 62 30 59 62 67 73 69 69 70 72 68 71 70 69 69 69 67 65 66 65 67 65 63 60 61 54 60 59 48 13 52 82 56 31 88 65 0 0 0 0 0 0 0 0 0 0 0 0 0 0 0 0 0 0 0 0 0 0 0 0 0 0 0 0 0 0 
0 0 0 0 0 0 0 0 0 0 0 0 0 0 0 0 0 0 0 0 0 0 0 0 0 0 0 28 88 27 68 51 53 47 15 33 58 58 58 62 66 65 63 60 61 62 63 63 69 67 72 70 67 67 70 71 66 70 68 68 64 61 62 38 59 61 66 70 71 69 74 71 71 70 70 70 70 68 65 60 59 61 63 65 63 63 56 57 56 58 40 12 64 57 44 57 69 88 0 0 0 0 0 0 0 0 0 0 0 0 0 0 0 0 0 0 0 0 0 0 0 0 0 0 0 0 0 0 
0 0 0 0 0 0 0 0 0 0 0 0 0 0 0 0 0 0 0 0 0 0 0 0 0 0 0 88 78 46 50 50 51 50 11 17 49 50 55 60 66 60 57 57 57 63 63 64 65 67 69 68 67 67 69 70 70 68 71 68 64 64 63 45 60 60 68 72 71 69 72 71 72 71 70 70 69 63 65 61 71 48 53 58 64 66 62 59 59 53 39 16 67 50 53 59 36 88 0 0 0 0 0 0 0 0 0 0 0 0 0 0 0 0 0 0 0 0 0 0 0 0 0 0 0 0 0 0 
0 0 0 0 0 0 0 0 0 0 0 0 0 0 0 0 0 0 0 0 0 0 0 0 0 0 0 88 42 54 53 54 59 51 12 13 34 41 57 61 61 57 53 55 53 59 62 62 63 62 66 70 68 68 67 70 67 69 70 67 64 64 60 57 59 61 68 70 68 68 68 70 68 70 71 71 68 61 60 61 43 52 43 48 59 62 64 58 62 41 30 23 63 53 56 64 37 88 30 0 0 0 0 0 0 0 0 0 0 0 0 0 0 0 0 0 0 0 0 0 0 0 0 0 0 0 0 0 
0 0 0 0 0 0 0 0 0 0 0 0 0 0 0 0 0 0 0 0 0 0 0 0 0 0 25 88 30 50 56 52 62 66 15 15 29 34 57 59 60 55 59 59 44 56 60 60 60 63 67 68 69 68 67 67 66 66 69 66 65 64 58 56 58 63 70 69 69 67 70 68 67 71 71 69 59 63 56 60 55 53 60 41 52 60 60 60 48 39 14 15 83 52 58 48 53 88 68 0 0 0 0 0 0 0 0 0 0 0 0 0 0 0 0 0 0 0 0 0 0 0 0 0 0 0 0 0 
0 0 0 0 0 0 0 0 0 0 0 0 0 0 0 0 0 0 0 0 0 0 0 0 0 0 73 88 42 48 53 56 44 47 29 16 23 18 48 56 56 57 55 55 55 44 56 59 60 63 68 66 66 67 67 65 65 66 68 67 65 63 60 55 61 66 70 70 65 66 68 70 68 70 67 71 63 57 55 58 52 50 62 63 45 42 51 38 33 28 15 20 69 51 58 53 56 63 88 0 0 0 0 0 0 0 0 0 0 0 0 0 0 0 0 0 0 0 0 0 0 0 0 0 0 0 0 0 
0 0 0 0 0 0 0 0 0 0 0 0 0 0 0 0 0 0 0 0 0 0 0 0 0 0 88 53 60 49 55 50 62 35 27 5 29 58 50 57 55 53 54 56 60 37 50 57 58 68 66 66 65 64 72 63 67 64 65 67 69 63 60 54 58 66 69 68 67 65 67 66 71 68 68 68 68 61 60 56 61 60 60 56 53 48 40 33 39 24 4 25 37 55 53 48 66 31 88 0 0 0 0 0 0 0 0 0 0 0 0 0 0 0 0 0 0 0 0 0 0 0 0 0 0 0 0 0 
0 0 0 0 0 0 0 0 0 0 0 0 0 0 0 0 0 0 0 0 0 0 0 0 0 0 88 34 58 50 56 51 43 27 1 23 53 43 47 39 40 56 58 60 59 58 60 62 66 67 66 64 63 64 65 66 65 67 64 69 68 62 58 47 60 66 68 66 66 66 65 67 67 63 67 69 69 64 60 61 62 62 62 55 60 53 56 60 36 51 23 13 26 55 54 53 65 31 88 33 0 0 0 0 0 0 0 0 0 0 0 0 0 0 0 0 0 0 0 0 0 0 0 0 0 0 0 0 
0 0 0 0 0 0 0 0 0 0 0 0 0 0 0 0 0 0 0 0 0 0 0 0 0 38 88 35 53 47 52 52 19 12 23 58 55 55 52 47 45 57 56 61 63 63 63 66 67 67 65 64 65 63 65 66 66 64 65 64 68 63 60 46 59 65 65 66 65 67 66 67 64 66 67 66 68 67 65 63 63 60 59 61 51 59 57 60 56 60 56 33 35 34 53 56 39 48 88 76 0 0 0 0 0 0 0 0 0 0 0 0 0 0 0 0 0 0 0 0 0 0 0 0 0 0 0 0 
0 0 0 0 0 0 0 0 0 0 0 0 0 0 0 0 0 0 0 0 0 0 0 0 0 80 85 45 48 52 55 42 1 21 52 55 59 58 54 51 24 35 58 56 56 60 65 65 67 61 64 64 64 63 63 62 67 63 64 63 68 61 59 43 61 65 63 67 65 68 68 63 64 69 67 66 66 70 65 65 60 61 58 56 54 57 59 59 58 58 59 41 52 45 61 54 44 65 62 88 0 0 0 0 0 0 0 0 0 0 0 0 0 0 0 0 0 0 0 0 0 0 0 0 0 0 0 0 
0 0 0 0 0 0 0 0 0 0 0 0 0 0 0 0 0 0 0 0 0 0 0 0 0 88 52 47 70 74 48 13 38 60 55 56 59 60 48 44 42 43 50 59 57 58 65 64 68 64 64 66 63 67 63 64 64 63 64 63 65 63 60 47 59 65 66 65 65 68 65 68 65 67 67 66 66 67 66 64 56 61 59 58 42 57 58 59 63 61 55 54 9 26 39 55 58 52 32 88 0 0 0 0 0 0 0 0 0 0 0 0 0 0 0 0 0 0 0 0 0 0 0 0 0 0 0 0 
0 0 0 0 0 0 0 0 0 0 0 0 0 0 0 0 0 0 0 0 0 0 0 0 0 88 39 54 49 48 41 20 54 55 56 57 57 60 43 24 23 52 59 58 58 59 67 66 66 67 65 66 64 65 66 63 64 63 67 64 63 63 59 48 63 66 59 71 66 69 67 65 65 68 66 65 66 68 67 64 60 58 47 27 21 21 39 61 63 59 57 47 19 0 31 47 82 53 43 88 33 0 0 0 0 0 0 0 0 0 0 0 0 0 0 0 0 0 0 0 0 0 0 0 0 0 0 0 
0 0 0 0 0 0 0 0 0 0 0 0 0 0 0 0 0 0 0 0 0 0 0 0 24 88 38 54 49 53 30 7 35 55 58 58 56 57 49 47 39 43 58 58 58 62 64 66 65 65 65 64 65 66 66 67 63 67 66 63 63 63 55 36 66 63 64 64 68 68 66 66 65 67 64 65 66 68 68 69 60 63 39 23 29 43 62 60 63 61 56 58 34 4 17 49 63 43 62 88 68 0 0 0 0 0 0 0 0 0 0 0 0 0 0 0 0 0 0 0 0 0 0 0 0 0 0 0 
0 0 0 0 0 0 0 0 0 0 0 0 0 0 0 0 0 0 0 0 0 0 0 0 56 88 42 52 68 47 20 8 38 59 58 59 60 60 59 57 63 32 42 57 57 63 64 67 64 66 68 63 66 64 67 67 68 67 69 65 68 64 77 69 72 67 65 68 70 67 71 69 69 63 68 67 69 64 67 64 63 59 56 31 33 60 60 65 61 60 60 56 73 8 13 48 56 45 67 64 88 0 0 0 0 0 0 0 0 0 0 0 0 0 0 0 0 0 0 0 0 0 0 0 0 0 0 0 
0 0 0 0 0 0 0 0 0 0 0 0 0 0 0 0 0 0 0 0 0 0 0 0 81 87 64 48 49 52 14 9 32 60 59 61 62 59 61 60 59 46 24 31 58 62 68 65 68 61 68 72 63 69 65 67 67 69 67 67 68 66 47 40 67 68 70 70 68 70 68 70 67 61 65 69 65 69 67 67 69 60 57 29 35 63 63 67 63 61 57 56 57 13 4 48 56 51 61 34 88 0 0 0 0 0 0 0 0 0 0 0 0 0 0 0 0 0 0 0 0 0 0 0 0 0 0 0 
0 0 0 0 0 0 0 0 0 0 0 0 0 0 0 0 0 0 0 0 0 0 0 0 88 68 65 52 51 44 9 9 44 56 56 58 60 65 62 60 60 41 11 35 57 64 65 64 61 61 64 63 67 67 67 67 69 70 69 64 63 65 44 30 63 65 68 70 69 69 67 69 69 68 66 58 66 66 66 66 70 60 57 23 27 58 62 67 64 63 59 57 58 16 11 30 55 59 49 32 88 17 0 0 0 0 0 0 0 0 0 0 0 0 0 0 0 0 0 0 0 0 0 0 0 0 0 0 
0 0 0 0 0 0 0 0 0 0 0 0 0 0 0 0 0 0 0 0 0 0 0 0 88 43 56 51 51 31 7 7 39 57 58 55 60 60 64 62 58 41 36 62 56 63 65 67 55 52 56 68 68 68 67 65 71 68 67 66 65 66 42 31 64 65 68 68 71 68 70 68 69 70 73 72 48 59 62 67 69 62 59 31 20 55 62 64 66 64 63 57 62 19 7 24 56 57 48 39 88 50 0 0 0 0 0 0 0 0 0 0 0 0 0 0 0 0 0 0 0 0 0 0 0 0 0 0 
0 0 0 0 0 0 0 0 0 0 0 0 0 0 0 0 0 0 0 0 0 0 0 18 88 42 54 52 57 16 9 14 36 56 55 61 60 62 66 63 58 49 49 57 59 63 64 64 58 63 63 68 65 64 63 63 65 67 68 63 67 66 42 31 64 66 66 68 67 65 69 69 68 69 71 70 60 63 69 67 69 63 57 59 25 54 63 63 66 63 59 57 54 17 5 18 56 58 45 62 72 85 0 0 0 0 0 0 0 0 0 0 0 0 0 0 0 0 0 0 0 0 0 0 0 0 0 0 
0 0 0 0 0 0 0 0 0 0 0 0 0 0 0 0 0 0 0 0 0 0 0 52 88 32 54 54 51 19 6 21 69 58 51 59 57 61 64 64 60 59 52 52 57 63 61 64 68 69 67 65 66 63 62 67 70 74 66 64 65 64 44 34 63 66 67 65 70 71 69 64 65 65 69 68 67 63 67 65 67 62 59 58 48 56 63 63 67 63 59 54 55 22 2 19 53 54 47 67 88 88 0 0 0 0 0 0 0 0 0 0 0 0 0 0 0 0 0 0 0 0 0 0 0 0 0 0 
0 0 0 0 0 0 0 0 0 0 0 0 0 0 0 0 0 0 0 0 0 0 0 71 88 45 56 50 42 16 2 17 43 58 48 55 54 59 60 62 65 63 58 50 57 63 63 66 67 68 63 67 65 63 59 63 67 70 64 67 63 67 53 48 67 65 63 64 64 67 64 61 64 63 66 65 66 72 67 68 65 60 57 53 56 62 66 67 68 65 62 57 57 46 13 6 38 52 49 63 46 88 0 0 0 0 0 0 0 0 0 0 0 0 0 0 0 0 0 0 0 0 0 0 0 0 0 0 
0 0 0 0 0 0 0 0 0 0 0 0 0 0 0 0 0 0 0 0 0 0 0 83 88 55 50 52 28 9 6 16 38 51 64 59 56 58 53 59 59 66 62 54 56 63 63 69 59 63 64 64 58 60 61 61 60 67 68 69 67 67 60 64 69 68 66 68 70 68 67 67 66 61 63 66 63 66 71 69 67 58 57 54 58 65 66 65 66 64 62 59 60 38 59 6 16 51 70 53 40 88 16 0 0 0 0 0 0 0 0 0 0 0 0 0 0 0 0 0 0 0 0 0 0 0 0 0 
0 0 0 0 0 0 0 0 0 0 0 0 0 0 0 0 0 0 0 0 0 0 0 88 88 49 50 53 26 6 13 22 47 55 55 44 57 52 54 55 56 60 66 61 57 65 65 68 65 66 65 59 63 57 54 60 66 68 70 72 69 63 51 58 63 67 70 69 69 69 62 60 62 61 60 67 67 67 69 68 69 59 58 59 63 67 66 67 59 59 59 57 49 50 54 46 0 47 56 56 36 88 35 0 0 0 0 0 0 0 0 0 0 0 0 0 0 0 0 0 0 0 0 0 0 0 0 0 
0 0 0 0 0 0 0 0 0 0 0 0 0 0 0 0 0 0 0 0 0 0 0 88 88 49 48 56 16 5 26 41 51 56 58 51 49 56 58 57 55 57 65 63 63 64 68 66 69 64 63 67 56 55 57 63 66 65 69 68 70 55 44 42 53 69 68 67 68 66 64 60 52 63 61 63 68 69 66 69 67 64 62 65 67 66 65 60 60 57 58 45 47 55 60 55 13 30 53 53 33 88 50 0 0 0 0 0 0 0 0 0 0 0 0 0 0 0 0 0 0 0 0 0 0 0 0 0 
0 0 0 0 0 0 0 0 0 0 0 0 0 0 0 0 0 0 0 0 0 0 0 88 84 48 73 46 6 13 52 55 56 55 55 47 48 57 59 60 59 60 61 68 68 65 69 65 67 67 66 63 61 57 58 66 67 67 67 69 71 63 40 42 65 69 72 68 68 67 66 64 57 49 74 65 72 67 66 70 71 67 65 68 66 66 60 61 43 35 37 54 58 57 61 54 40 9 55 53 36 88 69 0 0 0 0 0 0 0 0 0 0 0 0 0 0 0 0 0 0 0 0 0 0 0 0 0 
0 0 0 0 0 0 0 0 0 0 0 0 0 0 0 0 0 0 0 0 0 0 14 88 69 60 88 35 2 25 56 57 58 59 55 52 45 56 59 61 61 61 62 67 67 66 69 66 64 71 76 55 57 57 59 64 67 68 68 67 71 69 57 53 68 70 68 70 67 69 64 63 59 55 57 74 67 71 68 70 70 69 68 69 66 59 57 40 51 59 58 57 58 63 63 56 47 7 55 51 37 88 88 0 0 0 0 0 0 0 0 0 0 0 0 0 0 0 0 0 0 0 0 0 0 0 0 0 
0 0 0 0 0 0 0 0 0 0 0 0 0 0 0 0 0 0 0 0 0 0 25 88 69 63 51 40 0 44 55 60 61 58 57 55 55 49 60 58 61 63 64 69 68 67 65 65 73 72 85 65 54 63 60 60 63 67 71 69 69 66 63 57 69 66 69 67 67 63 62 64 60 62 36 80 83 71 71 67 70 71 70 69 64 60 52 56 60 60 61 67 65 63 62 56 51 7 55 47 36 88 88 17 0 0 0 0 0 0 0 0 0 0 0 0 0 0 0 0 0 0 0 0 0 0 0 0 
0 0 0 0 0 0 0 0 0 0 0 0 0 0 0 0 0 0 0 0 0 0 31 88 72 59 52 36 1 42 57 57 62 63 60 57 58 56 55 57 59 59 63 70 69 71 68 73 71 77 77 64 44 63 62 64 63 65 68 68 67 68 65 61 70 65 68 69 67 63 61 68 59 60 38 69 68 84 74 72 71 70 72 72 65 61 55 62 64 67 68 63 62 59 57 60 47 13 47 46 48 74 88 21 0 0 0 0 0 0 0 0 0 0 0 0 0 0 0 0 0 0 0 0 0 0 0 0 
0 0 0 0 0 0 0 0 0 0 0 0 0 0 0 0 0 0 0 0 0 0 35 88 48 52 56 38 1 40 59 63 56 61 65 59 58 59 59 58 60 63 66 67 72 59 69 68 69 69 68 64 44 59 62 67 64 63 64 69 68 65 62 66 64 64 68 67 65 63 65 69 28 34 54 65 56 59 72 72 74 70 70 72 67 63 64 66 71 64 62 61 56 55 54 50 36 0 61 43 62 81 88 18 0 0 0 0 0 0 0 0 0 0 0 0 0 0 0 0 0 0 0 0 0 0 0 0 
0 0 0 0 0 0 0 0 0 0 0 0 0 0 0 0 0 0 0 0 0 0 37 88 71 49 57 33 4 44 55 54 61 59 64 65 61 65 65 63 66 64 67 64 74 47 69 69 59 66 63 61 53 49 54 64 68 66 64 67 69 61 60 71 56 59 60 67 68 66 67 53 28 39 53 61 61 62 61 71 77 69 66 66 70 68 67 69 67 65 56 56 58 56 54 58 57 5 71 41 55 88 88 25 0 0 0 0 0 0 0 0 0 0 0 0 0 0 0 0 0 0 0 0 0 0 0 0 
0 0 0 0 0 0 0 0 0 0 0 0 0 0 0 0 0 0 0 0 0 0 41 88 88 42 53 36 2 41 49 58 56 58 64 64 67 64 68 67 68 69 67 67 68 40 68 65 59 63 60 62 62 37 3 65 66 64 69 64 63 58 57 64 58 58 63 65 68 68 67 11 45 56 60 62 62 62 64 57 80 67 71 65 71 69 71 66 65 63 61 60 55 59 58 57 58 14 40 48 46 88 88 19 0 0 0 0 0 0 0 0 0 0 0 0 0 0 0 0 0 0 0 0 0 0 0 0 
0 0 0 0 0 0 0 0 0 0 0 0 0 0 0 0 0 0 0 0 0 0 32 88 88 44 51 38 6 31 50 52 60 55 61 66 65 64 68 66 70 68 67 64 66 43 58 64 59 60 61 62 63 64 53 22 68 65 64 67 62 60 56 60 58 60 66 63 66 67 31 51 60 55 59 58 60 59 60 60 73 64 72 70 70 70 67 69 66 65 65 63 63 61 63 59 55 26 29 48 50 86 88 22 0 0 0 0 0 0 0 0 0 0 0 0 0 0 0 0 0 0 0 0 0 0 0 0 
0 0 0 0 0 0 0 0 0 0 0 0 0 0 0 0 0 0 0 0 0 0 29 88 88 42 52 41 11 23 54 55 52 58 56 61 62 63 67 69 68 68 64 69 64 52 52 59 61 59 58 64 65 67 65 52 28 60 67 65 64 59 61 57 59 63 68 66 69 37 38 68 65 57 57 57 59 63 64 51 77 49 74 69 68 70 68 67 66 63 63 64 65 64 64 60 56 32 22 55 46 82 88 20 0 0 0 0 0 0 0 0 0 0 0 0 0 0 0 0 0 0 0 0 0 0 0 0 
0 0 0 0 0 0 0 0 0 0 0 0 0 0 0 0 0 0 0 0 0 0 27 88 88 42 51 43 9 22 51 56 46 50 56 57 59 61 64 70 66 68 67 71 61 61 59 58 65 62 64 64 63 69 67 65 43 41 64 67 65 63 60 62 63 63 65 67 43 39 54 62 68 58 57 62 59 60 59 51 70 51 73 66 68 70 69 67 66 66 64 66 64 60 59 60 56 27 19 53 49 79 88 21 0 0 0 0 0 0 0 0 0 0 0 0 0 0 0 0 0 0 0 0 0 0 0 0 
0 0 0 0 0 0 0 0 0 0 0 0 0 0 0 0 0 0 0 0 0 0 23 86 88 43 49 43 7 19 54 55 52 50 48 58 56 59 66 67 69 68 67 68 67 68 58 57 56 64 63 62 66 70 69 60 50 44 59 64 66 64 63 62 66 62 62 70 38 48 60 62 65 67 61 61 60 62 60 54 69 60 68 65 64 69 69 67 66 68 68 62 63 63 59 57 58 21 12 52 47 80 88 19 0 0 0 0 0 0 0 0 0 0 0 0 0 0 0 0 0 0 0 0 0 0 0 0 
0 0 0 0 0 0 0 0 0 0 0 0 0 0 0 0 0 0 0 0 0 0 16 81 88 42 55 44 3 21 54 58 56 52 58 57 60 63 68 69 68 67 65 68 69 63 59 59 62 57 61 64 63 67 66 51 59 39 39 70 63 64 62 49 67 62 61 65 31 58 56 61 66 65 61 59 59 59 60 63 66 63 68 62 65 68 70 69 69 68 61 60 59 60 60 55 55 16 7 53 46 84 88 17 0 0 0 0 0 0 0 0 0 0 0 0 0 0 0 0 0 0 0 0 0 0 0 0 
0 0 0 0 0 0 0 0 0 0 0 0 0 0 0 0 0 0 0 0 0 0 0 70 88 54 60 43 1 25 56 58 59 61 62 65 63 67 67 67 69 68 65 68 65 61 61 57 59 59 59 56 61 63 62 48 57 43 27 54 62 64 48 31 56 64 60 59 32 51 52 63 62 62 61 63 61 61 63 68 64 67 66 64 62 64 65 68 72 63 58 54 60 58 56 56 55 7 3 55 50 88 88 14 0 0 0 0 0 0 0 0 0 0 0 0 0 0 0 0 0 0 0 0 0 0 0 0 
0 0 0 0 0 0 0 0 0 0 0 0 0 0 0 0 0 0 0 0 0 0 0 56 88 63 62 45 3 24 57 58 61 60 63 66 66 68 62 63 60 64 65 63 66 61 62 59 46 43 47 67 66 60 53 57 60 59 54 46 52 57 30 32 34 56 52 31 27 41 55 54 61 61 58 59 60 59 63 66 66 68 68 65 63 62 63 68 67 62 59 55 59 57 56 54 46 0 4 37 50 88 87 0 0 0 0 0 0 0 0 0 0 0 0 0 0 0 0 0 0 0 0 0 0 0 0 0 
0 0 0 0 0 0 0 0 0 0 0 0 0 0 0 0 0 0 0 0 0 0 0 55 88 73 53 39 1 20 56 59 61 61 60 61 62 61 56 54 60 62 63 67 66 60 61 56 52 57 58 54 60 61 59 61 66 52 62 54 49 46 41 37 31 43 34 56 59 49 63 55 55 61 59 58 62 64 64 66 66 68 69 65 61 57 62 65 69 65 61 57 53 57 58 42 37 0 7 24 55 85 86 0 0 0 0 0 0 0 0 0 0 0 0 0 0 0 0 0 0 0 0 0 0 0 0 0 
0 0 0 0 0 0 0 0 0 0 0 0 0 0 0 0 0 0 0 0 0 0 0 44 88 88 47 31 5 14 55 60 60 59 62 61 59 58 60 60 60 63 63 69 67 64 61 51 48 64 54 63 56 63 54 64 64 56 62 60 55 51 63 58 63 60 51 59 59 60 53 64 45 50 59 61 60 59 61 62 63 61 67 69 60 59 62 65 68 64 62 56 56 60 59 61 40 0 7 12 70 88 59 0 0 0 0 0 0 0 0 0 0 0 0 0 0 0 0 0 0 0 0 0 0 0 0 0 
0 0 0 0 0 0 0 0 0 0 0 0 0 0 0 0 0 0 0 0 0 0 0 38 88 88 43 31 7 4 59 57 60 63 61 63 63 61 60 63 65 65 67 68 68 66 62 52 57 53 72 38 47 48 67 68 63 63 62 61 58 45 63 63 60 54 57 60 62 59 66 61 60 59 60 60 62 62 62 62 61 62 64 67 62 59 59 63 65 65 63 62 63 59 58 57 31 5 9 9 53 88 51 0 0 0 0 0 0 0 0 0 0 0 0 0 0 0 0 0 0 0 0 0 0 0 0 0 
0 0 0 0 0 0 0 0 0 0 0 0 0 0 0 0 0 0 0 0 0 0 0 27 83 88 46 48 7 0 48 56 59 58 63 61 57 56 62 62 66 66 67 70 64 65 61 56 59 59 62 53 51 63 64 65 62 63 58 63 61 43 64 60 62 60 62 64 61 61 62 61 63 52 60 63 63 63 61 60 63 59 64 65 60 54 50 60 61 65 66 63 58 60 62 56 18 14 6 11 63 88 44 0 0 0 0 0 0 0 0 0 0 0 0 0 0 0 0 0 0 0 0 0 0 0 0 0 
0 0 0 0 0 0 0 0 0 0 0 0 0 0 0 0 0 0 0 0 0 0 0 14 77 88 71 41 13 4 34 56 58 60 66 62 57 58 57 62 61 66 69 67 66 61 61 65 65 62 60 60 63 64 58 60 62 62 63 61 56 55 62 62 60 58 61 61 62 60 55 70 58 54 57 58 60 62 65 60 60 58 63 66 60 62 50 46 57 62 65 63 59 61 54 54 5 37 13 13 88 88 37 0 0 0 0 0 0 0 0 0 0 0 0 0 0 0 0 0 0 0 0 0 0 0 0 0 
0 0 0 0 0 0 0 0 0 0 0 0 0 0 0 0 0 0 0 0 0 0 0 0 63 88 88 32 6 7 39 59 60 63 66 61 63 57 61 60 62 63 66 68 67 65 64 65 62 62 62 60 60 60 64 62 58 65 62 61 63 62 65 64 64 64 65 63 63 53 62 66 62 57 52 58 59 61 61 61 53 57 62 67 66 60 58 59 56 57 64 66 62 57 56 53 9 45 6 27 88 88 33 0 0 0 0 0 0 0 0 0 0 0 0 0 0 0 0 0 0 0 0 0 0 0 0 0 
0 0 0 0 0 0 0 0 0 0 0 0 0 0 0 0 0 0 0 0 0 0 0 0 51 88 88 35 5 11 35 59 61 68 61 63 60 62 61 59 60 62 64 66 68 67 66 64 61 62 61 59 62 63 63 61 60 61 64 61 65 62 63 68 63 63 61 63 59 60 61 63 61 55 54 61 58 60 63 61 54 58 63 65 67 64 63 58 57 56 62 66 63 60 60 38 15 33 3 31 88 82 22 0 0 0 0 0 0 0 0 0 0 0 0 0 0 0 0 0 0 0 0 0 0 0 0 0 
0 0 0 0 0 0 0 0 0 0 0 0 0 0 0 0 0 0 0 0 0 0 0 0 43 88 88 55 2 17 22 60 62 64 56 58 59 58 59 58 61 64 62 62 66 65 63 62 58 58 59 57 61 61 63 63 63 61 63 63 61 62 61 61 61 61 63 62 62 61 63 59 59 60 59 59 59 61 62 64 43 55 59 63 64 66 63 60 58 59 63 66 59 59 62 12 32 18 4 45 88 72 14 0 0 0 0 0 0 0 0 0 0 0 0 0 0 0 0 0 0 0 0 0 0 0 0 0 
0 0 0 0 0 0 0 0 0 0 0 0 0 0 0 0 0 0 0 0 0 0 0 0 28 83 88 67 9 20 4 55 54 59 60 58 59 55 55 60 63 65 63 60 61 65 61 62 63 52 59 57 60 63 64 61 62 63 63 65 64 63 62 63 61 62 61 63 61 63 59 62 61 57 63 55 55 60 59 63 52 41 59 60 60 61 63 60 58 57 60 65 61 58 52 9 33 5 9 64 88 66 0 0 0 0 0 0 0 0 0 0 0 0 0 0 0 0 0 0 0 0 0 0 0 0 0 0 
0 0 0 0 0 0 0 0 0 0 0 0 0 0 0 0 0 0 0 0 0 0 0 0 18 63 88 88 20 7 34 13 57 58 58 46 53 58 59 61 65 63 62 58 59 63 62 62 59 61 50 62 60 61 60 65 60 63 63 62 68 61 66 61 65 61 61 62 64 63 61 63 62 62 58 68 55 55 55 60 58 38 71 54 59 63 60 61 55 56 60 63 58 56 64 13 26 6 11 88 88 63 0 0 0 0 0 0 0 0 0 0 0 0 0 0 0 0 0 0 0 0 0 0 0 0 0 0 
0 0 0 0 0 0 0 0 0 0 0 0 0 0 0 0 0 0 0 0 0 0 0 0 0 54 88 88 34 0 39 15 13 46 45 59 59 59 64 67 65 65 61 53 60 63 63 59 58 56 56 55 61 62 65 60 65 63 63 61 64 63 63 65 67 63 67 61 63 63 63 61 63 61 63 45 58 48 67 88 78 49 77 48 63 65 63 61 59 58 62 63 58 49 24 13 26 4 18 88 88 59 0 0 0 0 0 0 0 0 0 0 0 0 0 0 0 0 0 0 0 0 0 0 0 0 0 0 
0 0 0 0 0 0 0 0 0 0 0 0 0 0 0 0 0 0 0 0 0 0 0 0 0 41 88 88 72 5 17 41 7 22 56 58 62 64 66 63 65 61 64 46 60 59 64 59 53 62 61 54 61 62 60 60 62 63 65 65 65 64 64 62 63 64 64 64 62 62 63 63 60 61 57 58 41 31 59 64 58 16 43 61 34 58 63 60 59 57 57 60 57 51 11 29 28 0 37 88 88 41 0 0 0 0 0 0 0 0 0 0 0 0 0 0 0 0 0 0 0 0 0 0 0 0 0 0 
0 0 0 0 0 0 0 0 0 0 0 0 0 0 0 0 0 0 0 0 0 0 0 0 0 26 74 88 88 9 8 32 21 13 62 59 63 63 63 59 60 57 62 45 43 57 58 56 50 58 59 60 60 61 58 65 57 60 63 63 65 63 64 63 61 63 62 61 63 61 61 64 59 59 61 56 58 54 61 55 43 53 52 43 55 35 53 58 56 48 58 55 53 59 17 28 12 7 56 88 88 29 0 0 0 0 0 0 0 0 0 0 0 0 0 0 0 0 0 0 0 0 0 0 0 0 0 0 
0 0 0 0 0 0 0 0 0 0 0 0 0 0 0 0 0 0 0 0 0 0 0 0 0 0 54 88 88 33 0 32 21 14 55 56 60 60 59 62 57 48 50 51 25 57 57 57 53 58 58 61 61 56 60 63 62 61 61 61 63 60 62 60 62 64 62 64 61 63 61 61 63 63 61 62 62 60 61 54 49 55 36 42 49 55 34 61 47 36 43 53 39 39 21 21 6 22 79 88 78 16 0 0 0 0 0 0 0 0 0 0 0 0 0 0 0 0 0 0 0 0 0 0 0 0 0 0 
0 0 0 0 0 0 0 0 0 0 0 0 0 0 0 0 0 0 0 0 0 0 0 0 0 0 21 88 88 80 3 11 48 17 54 47 53 69 50 49 54 40 54 56 44 32 59 53 61 59 59 57 58 61 68 61 63 64 62 61 63 59 63 55 59 61 61 61 62 58 62 62 59 62 59 63 63 64 55 47 58 55 40 44 51 37 49 52 47 42 26 16 35 19 22 30 2 43 88 88 56 0 0 0 0 0 0 0 0 0 0 0 0 0 0 0 0 0 0 0 0 0 0 0 0 0 0 0 
0 0 0 0 0 0 0 0 0 0 0 0 0 0 0 0 0 0 0 0 0 0 0 0 0 0 0 59 88 88 13 1 48 13 48 28 34 39 56 62 52 57 65 65 61 36 43 53 57 53 58 59 59 62 63 67 62 62 66 63 63 59 55 51 59 54 63 60 63 61 65 53 61 56 68 58 63 57 52 54 56 56 57 46 56 49 46 30 45 49 7 20 21 16 27 6 26 78 88 81 36 0 0 0 0 0 0 0 0 0 0 0 0 0 0 0 0 0 0 0 0 0 0 0 0 0 0 0 
0 0 0 0 0 0 0 0 0 0 0 0 0 0 0 0 0 0 0 0 0 0 0 0 0 0 0 33 77 88 52 5 19 23 30 6 26 24 44 69 55 48 52 60 57 55 42 43 48 58 52 57 57 61 61 61 67 65 64 63 63 63 57 61 48 38 49 60 66 62 60 60 59 60 60 62 55 59 53 61 51 55 57 53 45 50 39 31 48 31 28 8 4 22 23 5 55 88 80 75 17 0 0 0 0 0 0 0 0 0 0 0 0 0 0 0 0 0 0 0 0 0 0 0 0 0 0 0 
0 0 0 0 0 0 0 0 0 0 0 0 0 0 0 0 0 0 0 0 0 0 0 0 0 0 0 0 70 88 88 15 1 12 33 24 8 17 13 40 60 43 58 58 64 61 50 50 45 49 59 60 58 59 64 56 62 64 64 61 62 61 64 62 58 59 56 60 60 61 63 62 62 59 55 55 60 63 54 52 56 55 59 57 52 47 43 31 30 34 29 6 19 16 8 30 88 88 88 49 0 0 0 0 0 0 0 0 0 0 0 0 0 0 0 0 0 0 0 0 0 0 0 0 0 0 0 0 
0 0 0 0 0 0 0 0 0 0 0 0 0 0 0 0 0 0 0 0 0 0 0 0 0 0 0 0 47 88 88 78 7 20 31 35 12 15 23 0 43 51 50 63 60 61 56 48 61 38 58 61 62 63 64 61 59 66 64 63 61 59 61 70 64 62 60 51 56 55 58 58 63 57 64 60 59 58 63 53 67 58 58 57 56 52 48 44 20 25 19 5 19 3 14 74 88 88 63 20 0 0 0 0 0 0 0 0 0 0 0 0 0 0 0 0 0 0 0 0 0 0 0 0 0 0 0 0 
0 0 0 0 0 0 0 0 0 0 0 0 0 0 0 0 0 0 0 0 0 0 0 0 0 0 0 0 31 73 88 88 45 15 19 16 29 1 19 16 6 51 49 55 59 57 60 54 59 60 54 62 63 67 59 63 59 58 60 66 61 55 62 64 63 58 61 57 53 53 56 58 59 61 61 60 58 58 57 59 57 61 59 62 51 51 54 50 17 11 7 14 15 3 65 88 88 63 44 0 0 0 0 0 0 0 0 0 0 0 0 0 0 0 0 0 0 0 0 0 0 0 0 0 0 0 0 0 
0 0 0 0 0 0 0 0 0 0 0 0 0 0 0 0 0 0 0 0 0 0 0 0 0 0 0 0 0 61 88 88 88 31 6 9 23 17 4 12 8 31 66 55 57 53 59 63 60 53 63 60 64 70 61 63 63 62 61 64 62 53 54 61 63 60 52 61 54 55 52 58 56 57 61 57 62 59 58 62 60 61 65 64 43 54 50 66 31 8 12 13 3 15 88 88 65 51 0 0 0 0 0 0 0 0 0 0 0 0 0 0 0 0 0 0 0 0 0 0 0 0 0 0 0 0 0 0 
0 0 0 0 0 0 0 0 0 0 0 0 0 0 0 0 0 0 0 0 0 0 0 0 0 0 0 0 0 31 72 88 88 88 23 2 13 27 15 6 8 18 34 63 52 54 61 59 63 60 61 60 64 64 69 65 64 64 59 60 60 55 57 52 57 53 63 58 61 61 58 57 55 56 59 64 59 61 57 58 62 57 60 60 47 52 72 23 12 27 25 1 0 88 88 71 59 18 0 0 0 0 0 0 0 0 0 0 0 0 0 0 0 0 0 0 0 0 0 0 0 0 0 0 0 0 0 0 
0 0 0 0 0 0 0 0 0 0 0 0 0 0 0 0 0 0 0 0 0 0 0 0 0 0 0 0 0 0 53 79 88 88 73 2 13 13 17 9 5 11 23 55 55 65 64 59 60 61 59 65 57 66 66 65 65 62 64 61 58 61 58 58 36 55 63 58 58 65 63 62 61 56 63 60 63 58 63 57 62 62 57 59 57 66 29 17 24 39 11 4 57 88 86 80 33 0 0 0 0 0 0 0 0 0 0 0 0 0 0 0 0 0 0 0 0 0 0 0 0 0 0 0 0 0 0 0 
0 0 0 0 0 0 0 0 0 0 0 0 0 0 0 0 0 0 0 0 0 0 0 0 0 0 0 0 0 0 0 63 88 88 88 41 9 7 24 13 6 4 16 47 58 64 55 58 60 57 58 57 63 62 63 64 60 68 60 63 61 53 31 72 54 75 57 60 54 60 66 63 60 62 62 60 60 60 57 62 63 55 62 56 60 31 17 17 44 14 8 30 88 88 78 55 0 0 0 0 0 0 0 0 0 0 0 0 0 0 0 0 0 0 0 0 0 0 0 0 0 0 0 0 0 0 0 0 
0 0 0 0 0 0 0 0 0 0 0 0 0 0 0 0 0 0 0 0 0 0 0 0 0 0 0 0 0 0 0 34 79 88 88 88 18 2 18 32 13 4 1 24 54 63 58 53 62 58 54 58 60 60 63 60 59 58 62 60 59 65 40 22 88 70 58 59 59 60 62 63 63 63 61 57 59 63 52 52 54 62 52 55 30 13 17 50 18 4 13 88 88 80 54 0 0 0 0 0 0 0 0 0 0 0 0 0 0 0 0 0 0 0 0 0 0 0 0 0 0 0 0 0 0 0 0 0 
0 0 0 0 0 0 0 0 0 0 0 0 0 0 0 0 0 0 0 0 0 0 0 0 0 0 0 0 0 0 0 0 51 80 88 88 88 2 2 35 34 13 2 12 9 53 55 52 55 60 54 57 58 56 55 60 60 53 55 56 61 57 50 59 88 71 61 60 57 61 57 58 61 59 57 61 57 54 56 46 60 51 44 31 14 31 49 13 4 9 88 88 81 64 22 0 0 0 0 0 0 0 0 0 0 0 0 0 0 0 0 0 0 0 0 0 0 0 0 0 0 0 0 0 0 0 0 0 
0 0 0 0 0 0 0 0 0 0 0 0 0 0 0 0 0 0 0 0 0 0 0 0 0 0 0 0 0 0 0 0 21 62 85 88 88 78 0 1 39 39 18 4 22 20 35 55 61 58 54 55 59 56 60 58 59 59 56 61 54 51 43 82 88 83 52 55 60 56 59 57 58 57 55 55 51 56 52 48 52 42 32 9 43 58 16 4 5 49 88 88 83 36 0 0 0 0 0 0 0 0 0 0 0 0 0 0 0 0 0 0 0 0 0 0 0 0 0 0 0 0 0 0 0 0 0 0 
0 0 0 0 0 0 0 0 0 0 0 0 0 0 0 0 0 0 0 0 0 0 0 0 0 0 0 0 0 0 0 0 0 32 67 88 88 88 65 6 0 41 42 22 7 19 54 40 52 58 58 58 55 54 60 63 58 61 56 62 82 55 57 88 54 43 65 50 54 55 55 59 55 56 56 51 56 52 56 56 37 26 13 45 47 12 2 19 61 88 88 88 55 0 0 0 0 0 0 0 0 0 0 0 0 0 0 0 0 0 0 0 0 0 0 0 0 0 0 0 0 0 0 0 0 0 0 0 
0 0 0 0 0 0 0 0 0 0 0 0 0 0 0 0 0 0 0 0 0 0 0 0 0 0 0 0 0 0 0 0 0 0 41 74 88 88 88 60 3 3 49 49 27 12 4 50 60 53 60 60 63 59 58 56 58 57 58 55 84 88 37 88 45 28 51 49 51 57 56 58 58 58 64 68 55 55 53 37 40 6 43 39 5 2 23 79 88 88 88 68 23 0 0 0 0 0 0 0 0 0 0 0 0 0 0 0 0 0 0 0 0 0 0 0 0 0 0 0 0 0 0 0 0 0 0 0 
0 0 0 0 0 0 0 0 0 0 0 0 0 0 0 0 0 0 0 0 0 0 0 0 0 0 0 0 0 0 0 0 0 0 0 59 76 88 88 88 36 5 6 32 54 36 14 24 8 47 60 54 62 61 62 60 61 63 59 57 62 88 24 88 37 30 43 70 88 88 88 88 88 88 82 82 88 60 44 32 9 52 26 0 3 21 87 88 88 88 71 50 0 0 0 0 0 0 0 0 0 0 0 0 0 0 0 0 0 0 0 0 0 0 0 0 0 0 0 0 0 0 0 0 0 0 0 0 
0 0 0 0 0 0 0 0 0 0 0 0 0 0 0 0 0 0 0 0 0 0 0 0 0 0 0 0 0 0 0 0 0 0 0 0 58 84 82 88 88 77 15 3 18 41 46 16 26 27 7 39 56 54 58 58 62 63 59 60 59 77 59 69 45 16 34 70 57 52 53 63 74 80 88 83 42 39 15 25 49 20 7 5 22 88 88 88 88 79 66 17 0 0 0 0 0 0 0 0 0 0 0 0 0 0 0 0 0 0 0 0 0 0 0 0 0 0 0 0 0 0 0 0 0 0 0 0 
0 0 0 0 0 0 0 0 0 0 0 0 0 0 0 0 0 0 0 0 0 0 0 0 0 0 0 0 0 0 0 0 0 0 0 0 18 63 88 88 88 88 88 22 1 4 21 51 39 11 36 42 41 37 45 51 59 62 65 62 47 57 63 67 79 79 65 46 45 49 65 70 72 84 67 47 20 17 38 40 17 9 7 30 60 88 88 83 78 62 29 0 0 0 0 0 0 0 0 0 0 0 0 0 0 0 0 0 0 0 0 0 0 0 0 0 0 0 0 0 0 0 0 0 0 0 0 0 
0 0 0 0 0 0 0 0 0 0 0 0 0 0 0 0 0 0 0 0 0 0 0 0 0 0 0 0 0 0 0 0 0 0 0 0 0 0 49 76 86 88 88 88 53 0 4 15 39 47 32 23 21 42 47 50 53 48 52 64 71 47 43 66 62 61 47 55 66 55 29 35 38 36 25 17 47 53 24 13 4 8 44 88 88 88 85 85 60 38 0 0 0 0 0 0 0 0 0 0 0 0 0 0 0 0 0 0 0 0 0 0 0 0 0 0 0 0 0 0 0 0 0 0 0 0 0 0 
0 0 0 0 0 0 0 0 0 0 0 0 0 0 0 0 0 0 0 0 0 0 0 0 0 0 0 0 0 0 0 0 0 0 0 0 0 0 0 48 72 80 88 88 88 52 1 0 9 29 42 59 64 62 66 55 43 51 59 58 59 58 44 31 35 36 24 43 49 44 45 42 43 51 61 64 35 9 3 5 7 53 88 88 88 70 81 55 30 0 0 0 0 0 0 0 0 0 0 0 0 0 0 0 0 0 0 0 0 0 0 0 0 0 0 0 0 0 0 0 0 0 0 0 0 0 0 0 
0 0 0 0 0 0 0 0 0 0 0 0 0 0 0 0 0 0 0 0 0 0 0 0 0 0 0 0 0 0 0 0 0 0 0 0 0 0 0 0 26 58 85 83 88 88 42 18 1 7 4 14 28 48 57 64 69 76 76 73 74 70 53 60 29 34 39 66 69 74 74 65 61 51 22 14 4 2 1 17 81 88 88 88 82 68 53 17 0 0 0 0 0 0 0 0 0 0 0 0 0 0 0 0 0 0 0 0 0 0 0 0 0 0 0 0 0 0 0 0 0 0 0 0 0 0 0 0 
0 0 0 0 0 0 0 0 0 0 0 0 0 0 0 0 0 0 0 0 0 0 0 0 0 0 0 0 0 0 0 0 0 0 0 0 0 0 0 0 0 0 41 80 74 88 88 88 69 13 3 4 5 7 26 31 46 68 67 70 71 75 75 68 40 52 62 61 64 63 56 40 18 6 2 2 4 22 54 88 88 88 65 77 55 42 0 0 0 0 0 0 0 0 0 0 0 0 0 0 0 0 0 0 0 0 0 0 0 0 0 0 0 0 0 0 0 0 0 0 0 0 0 0 0 0 0 0 
0 0 0 0 0 0 0 0 0 0 0 0 0 0 0 0 0 0 0 0 0 0 0 0 0 0 0 0 0 0 0 0 0 0 0 0 0 0 0 0 0 0 0 37 78 79 88 88 88 88 47 9 0 2 1 5 5 19 29 44 49 57 67 63 57 50 45 42 31 11 3 1 9 13 17 44 88 88 88 88 65 79 64 50 18 0 0 0 0 0 0 0 0 0 0 0 0 0 0 0 0 0 0 0 0 0 0 0 0 0 0 0 0 0 0 0 0 0 0 0 0 0 0 0 0 0 0 0 
0 0 0 0 0 0 0 0 0 0 0 0 0 0 0 0 0 0 0 0 0 0 0 0 0 0 0 0 0 0 0 0 0 0 0 0 0 0 0 0 0 0 0 0 21 57 74 69 80 88 88 88 78 39 28 11 4 12 18 16 4 3 4 9 9 18 18 29 42 48 66 73 88 88 88 88 88 88 70 67 66 47 22 0 0 0 0 0 0 0 0 0 0 0 0 0 0 0 0 0 0 0 0 0 0 0 0 0 0 0 0 0 0 0 0 0 0 0 0 0 0 0 0 0 0 0 0 0 
0 0 0 0 0 0 0 0 0 0 0 0 0 0 0 0 0 0 0 0 0 0 0 0 0 0 0 0 0 0 0 0 0 0 0 0 0 0 0 0 0 0 0 0 0 0 30 57 75 65 76 88 88 88 88 88 88 88 83 63 88 88 88 88 88 88 88 88 88 88 88 88 88 88 88 74 53 62 64 45 15 0 0 0 0 0 0 0 0 0 0 0 0 0 0 0 0 0 0 0 0 0 0 0 0 0 0 0 0 0 0 0 0 0 0 0 0 0 0 0 0 0 0 0 0 0 0 0 
0 0 0 0 0 0 0 0 0 0 0 0 0 0 0 0 0 0 0 0 0 0 0 0 0 0 0 0 0 0 0 0 0 0 0 0 0 0 0 0 0 0 0 0 0 0 0 0 25 55 73 65 65 88 88 88 88 88 88 88 88 88 88 88 88 88 88 88 88 88 88 77 54 50 57 60 57 40 15 0 0 0 0 0 0 0 0 0 0 0 0 0 0 0 0 0 0 0 0 0 0 0 0 0 0 0 0 0 0 0 0 0 0 0 0 0 0 0 0 0 0 0 0 0 0 0 0 0 
0 0 0 0 0 0 0 0 0 0 0 0 0 0 0 0 0 0 0 0 0 0 0 0 0 0 0 0 0 0 0 0 0 0 0 0 0 0 0 0 0 0 0 0 0 0 0 0 0 0 23 53 66 66 63 59 60 56 59 84 88 88 88 88 84 58 57 51 53 52 57 66 62 55 38 16 0 0 0 0 0 0 0 0 0 0 0 0 0 0 0 0 0 0 0 0 0 0 0 0 0 0 0 0 0 0 0 0 0 0 0 0 0 0 0 0 0 0 0 0 0 0 0 0 0 0 0 0 
0 0 0 0 0 0 0 0 0 0 0 0 0 0 0 0 0 0 0 0 0 0 0 0 0 0 0 0 0 0 0 0 0 0 0 0 0 0 0 0 0 0 0 0 0 0 0 0 0 0 0 0 0 29 36 46 53 60 65 65 62 56 61 58 60 59 53 51 47 45 37 25 14 0 0 0 0 0 0 0 0 0 0 0 0 0 0 0 0 0 0 0 0 0 0 0 0 0 0 0 0 0 0 0 0 0 0 0 0 0 0 0 0 0 0 0 0 0 0 0 0 0 0 0 0 0 0 0 
0 0 0 0 0 0 0 0 0 0 0 0 0 0 0 0 0 0 0 0 0 0 0 0 0 0 0 0 0 0 0 0 0 0 0 0 0 0 0 0 0 0 0 0 0 0 0 0 0 0 0 0 0 0 0 0 0 0 0 31 53 54 53 47 23 0 0 0 0 0 0 0 0 0 0 0 0 0 0 0 0 0 0 0 0 0 0 0 0 0 0 0 0 0 0 0 0 0 0 0 0 0 0 0 0 0 0 0 0 0 0 0 0 0 0 0 0 0 0 0 0 0 0 0 0 0 0 0 
0 0 0 0 0 0 0 0 0 0 0 0 0 0 0 0 0 0 0 0 0 0 0 0 0 0 0 0 0 0 0 0 0 0 0 0 0 0 0 0 0 0 0 0 0 0 0 0 0 0 0 0 0 0 0 0 0 0 0 0 0 0 0 0 0 0 0 0 0 0 0 0 0 0 0 0 0 0 0 0 0 0 0 0 0 0 0 0 0 0 0 0 0 0 0 0 0 0 0 0 0 0 0 0 0 0 0 0 0 0 0 0 0 0 0 0 0 0 0 0 0 0 0 0 0 0 0 0 
