P2
128 128
88
0 0 0 0 0 0 0 0 0 0 0 0 0 0 0 0 0 0 0 0 0 0 0 0 0 0 0 0 0 0 0 0 0 0 0 0 0 0 0 0 0 0 0 0 0 0 0 0 0 0 0 0 0 0 0 0 0 0 0 0 0 0 0 0 0 0 0 0 0 0 0 0 0 0 0 0 0 0 0 0 0 0 0 0 0 0 0 0 0 0 0 0 0 0 0 0 0 0 0 0 0 0 0 0 0 0 0 0 0 0 0 0 0 0 0 0 0 0 0 0 0 0 0 0 0 0 0 0 
0 0 0 0 0 0 0 0 0 0 0 0 0 0 0 0 0 0 0 0 0 0 0 0 0 0 0 0 0 0 0 0 0 0 0 0 0 0 0 0 0 0 0 0 0 0 0 0 0 0 0 0 0 0 0 0 0 0 0 0 0 0 0 0 0 0 0 0 0 0 0 0 0 0 0 0 0 0 0 0 0 0 0 0 0 0 0 0 0 0 0 0 0 0 0 0 0 0 0 0 0 0 0 0 0 0 0 0 0 0 0 0 0 0 0 0 0 0 0 0 0 0 0 0 0 0 0 0 
0 0 0 0 0 0 0 0 0 0 0 0 0 0 0 0 0 0 0 0 0 0 0 0 0 0 0 0 0 0 0 0 0 0 0 0 0 0 0 0 0 0 0 0 0 0 0 0 0 0 0 0 0 0 0 0 0 0 0 0 0 0 0 0 0 0 0 0 0 0 0 0 0 0 0 0 0 0 0 0 0 0 0 0 0 0 0 0 0 0 0 0 0 0 0 0 0 0 0 0 0 0 0 0 0 0 0 0 0 0 0 0 0 0 0 0 0 0 0 0 0 0 0 0 0 0 0 0 
0 0 0 0 0 0 0 0 0 0 0 0 0 0 0 0 0 0 0 0 0 0 0 0 0 0 0 0 0 0 0 0 0 0 0 0 0 0 0 0 0 0 0 0 0 0 0 0 0 0 0 0 0 0 0 0 0 0 0 0 0 0 0 0 0 0 0 0 0 0 0 0 0 0 0 0 0 0 0 0 0 0 0 0 0 0 0 0 0 0 0 0 0 0 0 0 0 0 0 0 0 0 0 0 0 0 0 0 0 0 0 0 0 0 0 0 0 0 0 0 0 0 0 0 0 0 0 0 
0 0 0 0 0 0 0 0 0 0 0 0 0 0 0 0 0 0 0 0 0 0 0 0 0 0 0 0 0 0 0 0 0 0 0 0 0 0 0 0 0 0 0 0 0 0 0 0 0 0 0 0 0 0 0 0 0 0 0 0 0 0 0 0 0 0 0 0 0 0 0 0 0 0 0 0 0 0 0 0 0 0 0 0 0 0 0 0 0 0 0 0 0 0 0 0 0 0 0 0 0 0 0 0 0 0 0 0 0 0 0 0 0 0 0 0 0 0 0 0 0 0 0 0 0 0 0 0 
0 0 0 0 0 0 0 0 0 0 0 0 0 0 0 0 0 0 0 0 0 0 0 0 0 0 0 0 0 0 0 0 0 0 0 0 0 0 0 0 0 0 0 0 0 0 0 0 0 0 0 0 0 0 0 0 0 0 0 0 0 0 0 0 0 0 0 0 0 0 0 0 0 0 0 0 0 0 0 0 0 0 0 0 0 0 0 0 0 0 0 0 0 0 0 0 0 0 0 0 0 0 0 0 0 0 0 0 0 0 0 0 0 0 0 0 0 0 0 0 0 0 0 0 0 0 0 0 
0 0 0 0 0 0 0 0 0 0 0 0 0 0 0 0 0 0 0 0 0 0 0 0 0 0 0 0 0 0 0 0 0 0 0 0 0 0 0 0 0 0 0 0 0 0 0 0 0 0 0 0 0 0 0 0 0 0 0 0 0 0 0 0 0 0 0 0 0 0 0 0 0 0 0 0 0 0 0 0 0 0 0 0 0 0 0 0 0 0 0 0 0 0 0 0 0 0 0 0 0 0 0 0 0 0 0 0 0 0 0 0 0 0 0 0 0 0 0 0 0 0 0 0 0 0 0 0 
0 0 0 0 0 0 0 0 0 0 0 0 0 0 0 0 0 0 0 0 0 0 0 0 0 0 0 0 0 0 0 0 0 0 0 0 0 0 0 0 0 0 0 0 0 0 0 0 0 0 0 0 0 0 0 0 0 0 0 0 0 0 0 0 0 0 0 0 0 0 0 0 0 0 0 0 0 0 0 0 0 0 0 0 0 0 0 0 0 0 0 0 0 0 0 0 0 0 0 0 0 0 0 0 0 0 0 0 0 0 0 0 0 0 0 0 0 0 0 0 0 0 0 0 0 0 0 0 
0 0 0 0 0 0 0 0 0 0 0 0 0 0 0 0 0 0 0 0 0 0 0 0 0 0 0 0 0 0 0 0 0 0 0 0 0 0 0 0 0 0 0 0 0 0 0 0 0 0 0 0 0 0 0 0 0 0 0 0 0 0 0 0 0 0 0 0 0 0 0 0 0 0 0 0 0 0 0 0 0 0 0 0 0 0 0 0 0 0 0 0 0 0 0 0 0 0 0 0 0 0 0 0 0 0 0 0 0 0 0 0 0 0 0 0 0 0 0 0 0 0 0 0 0 0 0 0 
0 0 0 0 0 0 0 0 0 0 0 0 0 0 0 0 0 0 0 0 0 0 0 0 0 0 0 0 0 0 0 0 0 0 0 0 0 0 0 0 0 0 0 0 0 0 0 0 0 0 0 0 0 0 0 0 0 0 0 0 0 0 0 0 0 0 0 0 0 0 0 0 0 0 0 0 0 0 0 0 0 0 0 0 0 0 0 0 0 0 0 0 0 0 0 0 0 0 0 0 0 0 0 0 0 0 0 0 0 0 0 0 0 0 0 0 0 0 0 0 0 0 0 0 0 0 0 0 
0 0 0 0 0 0 0 0 0 0 0 0 0 0 0 0 0 0 0 0 0 0 0 0 0 0 0 0 0 0 0 0 0 0 0 0 0 0 0 0 0 0 0 0 0 0 0 0 0 0 0 0 0 0 0 0 0 0 0 0 0 0 0 0 0 0 0 0 0 0 0 0 0 0 0 0 0 0 0 0 0 0 0 0 0 0 0 0 0 0 0 0 0 0 0 0 0 0 0 0 0 0 0 0 0 0 0 0 0 0 0 0 0 0 0 0 0 0 0 0 0 0 0 0 0 0 0 0 
0 0 0 0 0 0 0 0 0 0 0 0 0 0 0 0 0 0 0 0 0 0 0 0 0 0 0 0 0 0 0 0 0 0 0 0 0 0 0 0 0 0 0 0 0 0 0 0 0 0 0 0 0 0 0 0 0 0 0 0 0 0 0 0 0 0 0 0 0 0 0 0 0 0 0 0 0 0 0 0 0 0 0 0 0 0 0 0 0 0 0 0 0 0 0 0 0 0 0 0 0 0 0 0 0 0 0 0 0 0 0 0 0 0 0 0 0 0 0 0 0 0 0 0 0 0 0 0 
0 0 0 0 0 0 0 0 0 0 0 0 0 0 0 0 0 0 0 0 0 0 0 0 0 0 0 0 0 0 0 0 0 0 0 0 0 0 0 0 0 0 0 0 0 0 0 0 0 0 0 0 0 0 0 0 0 0 0 0 0 0 0 0 0 0 0 0 0 0 0 0 0 0 0 0 0 0 0 0 0 0 0 0 0 0 0 0 0 0 0 0 0 0 0 0 0 0 0 0 0 0 0 0 0 0 0 0 0 0 0 0 0 0 0 0 0 0 0 0 0 0 0 0 0 0 0 0 
0 0 0 0 0 0 0 0 0 0 0 0 0 0 0 0 0 0 0 0 0 0 0 0 0 0 0 0 0 0 0 0 0 0 0 0 0 0 0 0 0 0 0 0 0 0 0 0 0 0 0 0 0 0 0 0 0 0 0 0 0 0 0 0 0 0 0 0 0 0 0 0 0 0 0 0 0 0 0 0 0 0 0 0 0 0 0 0 0 0 0 0 0 0 0 0 0 0 0 0 0 0 0 0 0 0 0 0 0 0 0 0 0 0 0 0 0 0 0 0 0 0 0 0 0 0 0 0 
0 0 0 0 0 0 0 0 0 0 0 0 0 0 0 0 0 0 0 0 0 0 0 0 0 0 0 0 0 0 0 0 0 0 0 0 0 0 0 0 0 0 0 0 0 0 0 0 0 0 0 0 0 0 0 0 0 0 0 0 0 0 0 0 0 0 0 0 0 0 0 0 0 0 0 0 0 0 0 0 0 0 0 0 0 0 0 0 0 0 0 0 0 0 0 0 0 0 0 0 0 0 0 0 0 0 0 0 0 0 0 0 0 0 0 0 0 0 0 0 0 0 0 0 0 0 0 0 
0 0 0 0 0 0 0 0 0 0 0 0 0 0 0 0 0 0 0 0 0 0 0 0 0 0 0 0 0 0 0 0 0 0 0 0 0 0 0 0 0 0 0 0 0 0 0 0 0 0 0 0 0 0 0 0 0 0 0 0 0 0 0 0 0 0 0 0 0 0 0 0 0 0 0 0 0 0 0 0 0 0 0 0 0 0 0 0 0 0 0 0 0 0 0 0 0 0 0 0 0 0 0 0 0 0 0 0 0 0 0 0 0 0 0 0 0 0 0 0 0 0 0 0 0 0 0 0 
0 0 0 0 0 0 0 0 0 0 0 0 0 0 0 0 0 0 0 0 0 0 0 0 0 0 0 0 0 0 0 0 0 0 0 0 0 0 0 0 0 0 0 0 0 0 0 0 0 0 0 0 0 0 47 74 88 88 88 88 88 88 88 88 88 88 88 88 88 88 63 24 0 0 0 0 0 0 0 0 0 0 0 0 0 0 0 0 0 0 0 0 0 0 0 0 0 0 0 0 0 0 0 0 0 0 0 0 0 0 0 0 0 0 0 0 0 0 0 0 0 0 0 0 0 0 0 0 
0 0 0 0 0 0 0 0 0 0 0 0 0 0 0 0 0 0 0 0 0 0 0 0 0 0 0 0 0 0 0 0 0 0 0 0 0 0 0 0 0 0 0 0 0 0 0 0 0 0 44 88 88 88 88 88 88 88 88 88 88 84 69 88 88 88 88 88 88 88 88 88 88 88 64 0 0 0 0 0 0 0 0 0 0 0 0 0 0 0 0 0 0 0 0 0 0 0 0 0 0 0 0 0 0 0 0 0 0 0 0 0 0 0 0 0 0 0 0 0 0 0 0 0 0 0 0 0 
0 0 0 0 0 0 0 0 0 0 0 0 0 0 0 0 0 0 0 0 0 0 0 0 0 0 0 0 0 0 0 0 0 0 0 0 0 0 0 0 0 0 0 0 0 0 0 19 75 88 88 88 56 57 68 25 31 36 36 32 30 44 47 44 36 30 34 21 47 66 88 84 74 88 88 88 88 17 0 0 0 0 0 0 0 0 0 0 0 0 0 0 0 0 0 0 0 0 0 0 0 0 0 0 0 0 0 0 0 0 0 0 0 0 0 0 0 0 0 0 0 0 0 0 0 0 0 0 
0 0 0 0 0 0 0 0 0 0 0 0 0 0 0 0 0 0 0 0 0 0 0 0 0 0 0 0 0 0 0 0 0 0 0 0 0 0 0 0 0 0 0 0 0 19 88 88 88 74 34 31 69 70 24 28 25 31 32 45 40 43 43 49 38 31 26 25 25 26 31 35 40 21 45 88 88 88 88 24 0 0 0 0 0 0 0 0 0 0 0 0 0 0 0 0 0 0 0 0 0 0 0 0 0 0 0 0 0 0 0 0 0 0 0 0 0 0 0 0 0 0 0 0 0 0 0 0 
0 0 0 0 0 0 0 0 0 0 0 0 0 0 0 0 0 0 0 0 0 0 0 0 0 0 0 0 0 0 0 0 0 0 0 0 0 0 0 0 0 0 0 0 85 88 88 40 38 41 31 19 20 33 39 34 40 31 36 39 42 65 74 76 77 66 47 36 30 33 30 23 13 22 46 45 25 80 88 88 81 0 0 0 0 0 0 0 0 0 0 0 0 0 0 0 0 0 0 0 0 0 0 0 0 0 0 0 0 0 0 0 0 0 0 0 0 0 0 0 0 0 0 0 0 0 0 0 
0 0 0 0 0 0 0 0 0 0 0 0 0 0 0 0 0 0 0 0 0 0 0 0 0 0 0 0 0 0 0 0 0 0 0 0 0 0 0 0 0 0 18 88 88 27 29 40 20 34 44 34 12 7 0 7 2 3 0 0 0 11 45 67 43 14 0 0 3 0 0 9 20 24 18 13 31 44 24 64 88 88 20 0 0 0 0 0 0 0 0 0 0 0 0 0 0 0 0 0 0 0 0 0 0 0 0 0 0 0 0 0 0 0 0 0 0 0 0 0 0 0 0 0 0 0 0 0 
0 0 0 0 0 0 0 0 0 0 0 0 0 0 0 0 0 0 0 0 0 0 0 0 0 0 0 0 0 0 0 0 0 0 0 0 0 0 0 0 0 31 88 61 17 47 21 35 48 20 0 15 30 42 69 36 62 53 55 59 45 13 3 28 2 6 30 38 32 39 28 22 15 17 0 28 37 14 26 52 30 88 88 47 0 0 0 0 0 0 0 0 0 0 0 0 0 0 0 0 0 0 0 0 0 0 0 0 0 0 0 0 0 0 0 0 0 0 0 0 0 0 0 0 0 0 0 0 
0 0 0 0 0 0 0 0 0 0 0 0 0 0 0 0 0 0 0 0 0 0 0 0 0 0 0 0 0 0 0 0 0 0 0 0 0 0 0 0 33 88 41 41 26 22 59 18 0 14 32 32 28 32 40 41 46 47 57 55 58 57 21 4 13 46 49 49 53 52 51 41 48 59 45 11 2 18 28 8 24 50 34 88 71 0 0 0 0 0 0 0 0 0 0 0 0 0 0 0 0 0 0 0 0 0 0 0 0 0 0 0 0 0 0 0 0 0 0 0 0 0 0 0 0 0 0 0 
0 0 0 0 0 0 0 0 0 0 0 0 0 0 0 0 0 0 0 0 0 0 0 0 0 0 0 0 0 0 0 0 0 0 0 0 0 0 0 24 88 40 43 13 31 18 0 20 40 47 50 46 47 41 36 48 60 58 57 59 61 53 48 5 36 53 54 50 48 47 57 52 50 42 50 43 33 21 1 15 17 1 56 33 88 75 0 0 0 0 0 0 0 0 0 0 0 0 0 0 0 0 0 0 0 0 0 0 0 0 0 0 0 0 0 0 0 0 0 0 0 0 0 0 0 0 0 0 
0 0 0 0 0 0 0 0 0 0 0 0 0 0 0 0 0 0 0 0 0 0 0 0 0 0 0 0 0 0 0 0 0 0 0 0 0 0 0 88 63 40 7 23 1 17 31 43 53 53 58 55 54 52 44 49 55 60 59 62 61 53 48 38 52 61 57 58 59 56 48 57 53 52 53 53 57 52 39 22 1 18 0 37 42 88 65 0 0 0 0 0 0 0 0 0 0 0 0 0 0 0 0 0 0 0 0 0 0 0 0 0 0 0 0 0 0 0 0 0 0 0 0 0 0 0 0 0 
0 0 0 0 0 0 0 0 0 0 0 0 0 0 0 0 0 0 0 0 0 0 0 0 0 0 0 0 0 0 0 0 0 0 0 0 0 0 88 74 30 8 15 3 35 47 45 57 54 60 58 54 55 53 51 47 52 59 63 59 56 52 49 35 57 58 64 63 64 59 56 49 57 60 60 59 58 56 53 31 34 4 14 3 33 41 88 51 0 0 0 0 0 0 0 0 0 0 0 0 0 0 0 0 0 0 0 0 0 0 0 0 0 0 0 0 0 0 0 0 0 0 0 0 0 0 0 0 
0 0 0 0 0 0 0 0 0 0 0 0 0 0 0 0 0 0 0 0 0 0 0 0 0 0 0 0 0 0 0 0 0 0 0 0 0 87 88 36 4 18 5 44 44 36 38 58 60 60 56 58 56 56 55 58 57 63 63 57 57 56 53 31 59 60 60 65 67 64 59 57 54 60 56 58 61 60 53 49 53 48 5 15 5 34 42 88 29 0 0 0 0 0 0 0 0 0 0 0 0 0 0 0 0 0 0 0 0 0 0 0 0 0 0 0 0 0 0 0 0 0 0 0 0 0 0 0 
0 0 0 0 0 0 0 0 0 0 0 0 0 0 0 0 0 0 0 0 0 0 0 0 0 0 0 0 0 0 0 0 0 0 0 0 35 88 32 12 9 4 37 59 54 54 40 53 58 60 62 57 59 59 60 59 63 67 59 60 58 54 55 37 58 59 61 64 64 66 63 63 60 59 60 60 63 58 50 56 58 56 51 3 33 0 45 66 88 0 0 0 0 0 0 0 0 0 0 0 0 0 0 0 0 0 0 0 0 0 0 0 0 0 0 0 0 0 0 0 0 0 0 0 0 0 0 0 
0 0 0 0 0 0 0 0 0 0 0 0 0 0 0 0 0 0 0 0 0 0 0 0 0 0 0 0 0 0 0 0 0 0 0 0 88 48 31 0 2 28 60 53 60 56 48 46 56 58 61 62 60 62 65 67 65 63 63 60 59 57 53 39 55 57 61 64 64 66 65 66 60 59 61 66 61 47 52 62 61 58 53 36 11 32 1 42 88 88 0 0 0 0 0 0 0 0 0 0 0 0 0 0 0 0 0 0 0 0 0 0 0 0 0 0 0 0 0 0 0 0 0 0 0 0 0 0 
0 0 0 0 0 0 0 0 0 0 0 0 0 0 0 0 0 0 0 0 0 0 0 0 0 0 0 0 0 0 0 0 0 0 0 88 88 34 0 3 34 50 51 55 60 60 55 53 57 56 58 62 62 64 66 65 64 57 58 53 57 55 49 38 52 62 61 61 68 66 65 66 63 64 63 64 59 52 63 62 61 60 56 56 14 22 13 16 43 88 41 0 0 0 0 0 0 0 0 0 0 0 0 0 0 0 0 0 0 0 0 0 0 0 0 0 0 0 0 0 0 0 0 0 0 0 0 0 
0 0 0 0 0 0 0 0 0 0 0 0 0 0 0 0 0 0 0 0 0 0 0 0 0 0 0 0 0 0 0 0 0 0 23 88 39 8 6 16 56 54 55 58 57 61 57 52 57 58 60 61 63 64 67 65 60 53 44 27 47 46 42 42 42 54 58 57 59 63 67 66 65 64 65 63 58 55 53 61 63 62 61 56 49 8 52 3 30 66 88 0 0 0 0 0 0 0 0 0 0 0 0 0 0 0 0 0 0 0 0 0 0 0 0 0 0 0 0 0 0 0 0 0 0 0 0 0 
0 0 0 0 0 0 0 0 0 0 0 0 0 0 0 0 0 0 0 0 0 0 0 0 0 0 0 0 0 0 0 0 0 0 88 75 26 2 6 43 57 56 57 59 57 59 61 57 57 58 61 62 65 66 66 61 58 50 50 57 56 57 50 62 52 54 42 55 44 54 66 68 67 65 65 64 59 55 58 63 65 60 62 58 56 33 0 49 9 36 88 60 0 0 0 0 0 0 0 0 0 0 0 0 0 0 0 0 0 0 0 0 0 0 0 0 0 0 0 0 0 0 0 0 0 0 0 0 
0 0 0 0 0 0 0 0 0 0 0 0 0 0 0 0 0 0 0 0 0 0 0 0 0 0 0 0 0 0 0 0 0 29 88 29 3 43 6 52 57 61 61 57 58 59 61 61 60 60 59 62 67 67 66 57 57 56 58 56 59 55 59 48 58 57 53 54 55 55 61 66 69 70 66 63 58 55 60 67 65 61 59 62 56 55 12 18 37 23 53 88 0 0 0 0 0 0 0 0 0 0 0 0 0 0 0 0 0 0 0 0 0 0 0 0 0 0 0 0 0 0 0 0 0 0 0 0 
0 0 0 0 0 0 0 0 0 0 0 0 0 0 0 0 0 0 0 0 0 0 0 0 0 0 0 0 0 0 0 0 0 88 78 22 22 31 14 54 59 60 63 63 59 58 56 61 62 63 60 64 67 65 68 59 59 60 59 61 61 59 59 44 56 56 57 62 58 57 60 66 70 68 68 67 59 60 64 68 63 60 61 59 62 56 48 1 49 17 30 88 75 0 0 0 0 0 0 0 0 0 0 0 0 0 0 0 0 0 0 0 0 0 0 0 0 0 0 0 0 0 0 0 0 0 0 0 
0 0 0 0 0 0 0 0 0 0 0 0 0 0 0 0 0 0 0 0 0 0 0 0 0 0 0 0 0 0 0 0 29 88 30 9 54 1 46 54 57 58 61 63 63 63 58 58 58 63 63 64 67 65 66 64 62 60 62 63 59 56 54 46 52 60 59 57 62 60 58 69 71 71 69 69 67 63 67 68 65 62 60 60 58 58 57 26 7 47 11 59 88 0 0 0 0 0 0 0 0 0 0 0 0 0 0 0 0 0 0 0 0 0 0 0 0 0 0 0 0 0 0 0 0 0 0 0 
0 0 0 0 0 0 0 0 0 0 0 0 0 0 0 0 0 0 0 0 0 0 0 0 0 0 0 0 0 0 0 0 73 87 19 27 43 0 49 52 57 58 60 62 63 63 63 61 57 58 63 65 67 68 68 63 62 63 67 63 59 56 55 54 56 57 57 60 64 63 62 71 68 68 68 67 69 71 68 64 65 63 60 61 61 60 55 50 5 38 16 37 88 62 0 0 0 0 0 0 0 0 0 0 0 0 0 0 0 0 0 0 0 0 0 0 0 0 0 0 0 0 0 0 0 0 0 0 
0 0 0 0 0 0 0 0 0 0 0 0 0 0 0 0 0 0 0 0 0 0 0 0 0 0 0 0 0 0 0 0 88 45 28 40 13 23 62 55 58 59 59 63 65 65 66 65 63 62 64 66 68 67 69 66 63 68 65 62 56 58 49 55 59 56 56 60 61 64 65 70 70 70 71 69 68 70 70 66 65 64 60 59 60 58 60 58 33 13 30 48 53 88 0 0 0 0 0 0 0 0 0 0 0 0 0 0 0 0 0 0 0 0 0 0 0 0 0 0 0 0 0 0 0 0 0 0 
0 0 0 0 0 0 0 0 0 0 0 0 0 0 0 0 0 0 0 0 0 0 0 0 0 0 0 0 0 0 0 55 82 31 32 18 0 42 49 61 56 59 60 63 63 67 66 68 67 67 67 67 70 68 68 66 68 66 63 58 61 56 53 56 59 61 55 59 62 65 71 70 69 70 68 69 68 70 68 66 63 63 61 59 61 58 61 53 70 0 30 45 33 88 56 0 0 0 0 0 0 0 0 0 0 0 0 0 0 0 0 0 0 0 0 0 0 0 0 0 0 0 0 0 0 0 0 0 
0 0 0 0 0 0 0 0 0 0 0 0 0 0 0 0 0 0 0 0 0 0 0 0 0 0 0 0 0 0 0 88 56 44 28 0 37 57 46 46 55 56 55 57 62 66 67 68 69 68 68 69 69 68 67 68 67 61 56 56 53 51 51 57 60 62 61 61 63 70 69 70 68 70 71 67 68 68 69 69 65 64 63 63 62 58 56 57 53 21 3 32 58 72 88 0 0 0 0 0 0 0 0 0 0 0 0 0 0 0 0 0 0 0 0 0 0 0 0 0 0 0 0 0 0 0 0 0 
0 0 0 0 0 0 0 0 0 0 0 0 0 0 0 0 0 0 0 0 0 0 0 0 0 0 0 0 0 0 31 88 19 57 19 18 57 56 54 53 54 55 55 53 56 65 67 68 72 70 70 71 69 71 69 68 68 62 58 55 56 57 40 60 58 65 65 66 70 69 69 71 71 71 69 69 70 70 70 68 67 63 64 58 58 57 57 56 52 38 2 18 83 35 88 31 0 0 0 0 0 0 0 0 0 0 0 0 0 0 0 0 0 0 0 0 0 0 0 0 0 0 0 0 0 0 0 0 
0 0 0 0 0 0 0 0 0 0 0 0 0 0 0 0 0 0 0 0 0 0 0 0 0 0 0 0 0 0 88 76 42 53 12 31 62 61 60 58 57 58 55 55 57 65 68 69 68 69 71 69 69 68 69 66 68 64 58 56 58 57 23 63 58 63 69 69 68 71 70 71 71 72 72 71 68 68 69 69 69 66 63 58 56 56 56 58 55 54 11 9 62 42 88 88 0 0 0 0 0 0 0 0 0 0 0 0 0 0 0 0 0 0 0 0 0 0 0 0 0 0 0 0 0 0 0 0 
0 0 0 0 0 0 0 0 0 0 0 0 0 0 0 0 0 0 0 0 0 0 0 0 0 0 0 0 0 0 88 21 56 49 4 38 59 56 59 63 61 60 61 62 65 65 67 67 70 69 67 69 70 68 66 69 66 67 62 60 59 57 25 60 55 61 69 69 71 69 70 68 72 72 71 69 71 69 69 71 67 71 65 63 59 61 60 57 58 60 27 0 54 58 48 88 0 0 0 0 0 0 0 0 0 0 0 0 0 0 0 0 0 0 0 0 0 0 0 0 0 0 0 0 0 0 0 0 
0 0 0 0 0 0 0 0 0 0 0 0 0 0 0 0 0 0 0 0 0 0 0 0 0 0 0 0 0 84 88 51 44 44 2 43 54 55 61 60 61 62 62 67 63 67 68 70 68 68 70 70 71 72 68 67 66 69 66 64 63 57 28 29 64 63 67 68 70 68 70 70 70 73 69 69 69 68 68 67 67 70 67 68 63 62 58 58 61 55 45 0 47 57 41 88 37 0 0 0 0 0 0 0 0 0 0 0 0 0 0 0 0 0 0 0 0 0 0 0 0 0 0 0 0 0 0 0 
0 0 0 0 0 0 0 0 0 0 0 0 0 0 0 0 0 0 0 0 0 0 0 0 0 0 0 0 0 88 37 53 49 29 13 57 49 54 59 61 63 63 64 64 66 67 66 65 70 68 68 69 69 69 69 69 67 65 67 65 66 61 62 41 67 63 67 70 69 67 68 73 72 74 72 70 70 69 70 70 69 67 69 68 66 63 61 59 59 55 49 13 33 53 53 88 88 0 0 0 0 0 0 0 0 0 0 0 0 0 0 0 0 0 0 0 0 0 0 0 0 0 0 0 0 0 0 0 
0 0 0 0 0 0 0 0 0 0 0 0 0 0 0 0 0 0 0 0 0 0 0 0 0 0 0 0 41 88 30 54 58 17 24 54 58 52 57 60 61 59 63 62 65 66 67 70 68 69 69 69 70 73 63 63 70 67 68 69 66 64 65 53 65 65 67 68 69 68 71 71 73 73 71 68 69 70 70 70 65 62 61 62 65 64 65 61 60 59 50 14 25 58 68 39 88 0 0 0 0 0 0 0 0 0 0 0 0 0 0 0 0 0 0 0 0 0 0 0 0 0 0 0 0 0 0 0 
0 0 0 0 0 0 0 0 0 0 0 0 0 0 0 0 0 0 0 0 0 0 0 0 0 0 0 0 88 66 48 46 54 15 31 53 52 57 58 57 56 51 58 62 62 62 63 63 68 67 66 70 68 69 42 36 55 71 68 67 68 66 67 63 64 66 67 68 68 66 59 72 72 74 70 69 68 71 69 66 64 63 60 55 58 62 63 64 61 58 55 21 15 61 63 37 88 32 0 0 0 0 0 0 0 0 0 0 0 0 0 0 0 0 0 0 0 0 0 0 0 0 0 0 0 0 0 0 
0 0 0 0 0 0 0 0 0 0 0 0 0 0 0 0 0 0 0 0 0 0 0 0 0 0 0 0 88 31 75 55 48 12 33 58 53 53 53 52 53 58 62 58 57 58 57 60 65 67 68 68 70 69 42 30 40 56 69 70 66 67 64 65 64 68 69 69 64 47 41 54 73 72 69 69 72 71 70 67 68 64 63 57 51 53 62 63 63 61 54 32 17 65 65 41 88 79 0 0 0 0 0 0 0 0 0 0 0 0 0 0 0 0 0 0 0 0 0 0 0 0 0 0 0 0 0 0 
0 0 0 0 0 0 0 0 0 0 0 0 0 0 0 0 0 0 0 0 0 0 0 0 0 0 0 48 88 32 48 53 48 7 32 54 59 59 55 56 60 59 61 54 57 52 63 58 68 67 69 69 70 68 64 33 29 43 59 69 69 67 65 65 64 68 68 64 50 36 34 72 71 71 68 71 70 66 66 65 62 65 64 62 61 49 52 59 63 62 57 39 20 57 51 60 46 88 0 0 0 0 0 0 0 0 0 0 0 0 0 0 0 0 0 0 0 0 0 0 0 0 0 0 0 0 0 0 
0 0 0 0 0 0 0 0 0 0 0 0 0 0 0 0 0 0 0 0 0 0 0 0 0 0 0 88 63 51 51 55 45 7 26 48 56 57 57 59 57 58 49 35 60 59 56 65 66 69 69 67 69 64 62 63 46 29 51 64 70 68 66 64 68 68 63 54 34 47 68 67 68 72 69 70 69 66 66 63 59 59 61 62 62 54 57 59 63 63 57 32 18 57 58 57 33 88 0 0 0 0 0 0 0 0 0 0 0 0 0 0 0 0 0 0 0 0 0 0 0 0 0 0 0 0 0 0 
0 0 0 0 0 0 0 0 0 0 0 0 0 0 0 0 0 0 0 0 0 0 0 0 0 0 0 88 30 53 66 45 44 13 21 44 44 52 53 55 55 53 52 60 53 61 62 63 65 70 70 68 66 64 65 63 63 63 38 51 68 69 67 63 66 64 60 47 60 66 64 65 66 69 72 71 71 67 63 58 59 58 59 57 57 56 56 57 64 61 53 32 14 61 61 53 45 88 54 0 0 0 0 0 0 0 0 0 0 0 0 0 0 0 0 0 0 0 0 0 0 0 0 0 0 0 0 0 
0 0 0 0 0 0 0 0 0 0 0 0 0 0 0 0 0 0 0 0 0 0 0 0 0 0 56 88 32 48 48 61 84 16 15 34 32 35 44 57 52 55 61 61 58 59 61 61 64 69 71 71 67 64 63 62 63 60 63 40 56 70 67 61 66 63 50 65 63 63 66 67 67 69 69 70 70 66 64 60 55 51 52 57 59 52 55 59 59 60 50 24 15 88 55 49 58 72 88 0 0 0 0 0 0 0 0 0 0 0 0 0 0 0 0 0 0 0 0 0 0 0 0 0 0 0 0 0 
0 0 0 0 0 0 0 0 0 0 0 0 0 0 0 0 0 0 0 0 0 0 0 0 0 0 88 64 49 48 54 47 28 15 16 39 33 29 34 39 47 58 57 59 61 60 59 64 66 69 66 65 61 67 63 63 63 62 62 59 39 63 64 61 63 56 58 63 66 66 66 67 67 67 68 69 71 68 67 62 62 61 60 59 57 43 50 53 57 49 45 17 16 65 45 54 66 44 88 0 0 0 0 0 0 0 0 0 0 0 0 0 0 0 0 0 0 0 0 0 0 0 0 0 0 0 0 0 
0 0 0 0 0 0 0 0 0 0 0 0 0 0 0 0 0 0 0 0 0 0 0 0 0 0 88 36 55 49 50 53 29 22 14 60 78 63 55 47 58 60 54 62 62 63 61 62 67 66 65 63 64 65 66 63 63 63 62 64 51 58 62 57 61 54 64 63 64 64 64 68 68 67 65 66 67 67 64 66 64 59 60 59 57 53 45 49 42 41 38 8 27 48 54 57 54 31 88 22 0 0 0 0 0 0 0 0 0 0 0 0 0 0 0 0 0 0 0 0 0 0 0 0 0 0 0 0 
0 0 0 0 0 0 0 0 0 0 0 0 0 0 0 0 0 0 0 0 0 0 0 0 0 30 88 31 50 51 49 48 28 9 14 39 58 49 49 46 57 65 51 60 61 61 64 66 68 67 65 64 65 66 67 67 63 62 64 62 57 58 60 50 59 58 65 64 66 65 65 69 66 65 64 65 64 70 68 67 65 64 63 62 57 55 34 39 44 34 41 8 30 37 55 54 47 47 88 70 0 0 0 0 0 0 0 0 0 0 0 0 0 0 0 0 0 0 0 0 0 0 0 0 0 0 0 0 
0 0 0 0 0 0 0 0 0 0 0 0 0 0 0 0 0 0 0 0 0 0 0 0 0 83 88 41 47 52 52 35 20 4 31 48 45 42 46 44 35 43 56 56 56 61 65 67 68 63 64 63 66 67 68 67 64 63 62 62 60 56 61 44 59 59 64 63 67 67 69 65 68 66 65 63 67 69 69 65 63 61 58 54 54 30 57 63 62 43 43 32 7 31 60 49 46 59 54 88 0 0 0 0 0 0 0 0 0 0 0 0 0 0 0 0 0 0 0 0 0 0 0 0 0 0 0 0 
0 0 0 0 0 0 0 0 0 0 0 0 0 0 0 0 0 0 0 0 0 0 0 0 0 88 60 49 53 47 51 27 0 27 64 59 60 61 45 43 31 46 56 58 56 59 68 66 66 65 65 66 66 65 68 70 65 66 65 61 53 53 63 48 58 49 64 63 66 66 69 68 67 66 67 63 65 69 70 66 61 59 60 55 37 37 53 54 59 50 43 48 8 14 52 51 52 57 40 88 0 0 0 0 0 0 0 0 0 0 0 0 0 0 0 0 0 0 0 0 0 0 0 0 0 0 0 0 
0 0 0 0 0 0 0 0 0 0 0 0 0 0 0 0 0 0 0 0 0 0 0 0 0 88 34 60 83 50 43 0 33 40 43 38 40 50 49 40 47 57 59 58 59 66 64 69 64 65 68 65 65 67 68 68 67 67 62 60 45 56 63 53 63 42 63 65 67 70 69 64 65 68 70 65 66 66 69 66 63 57 58 57 49 41 54 59 50 53 56 57 38 34 26 58 58 57 85 88 32 0 0 0 0 0 0 0 0 0 0 0 0 0 0 0 0 0 0 0 0 0 0 0 0 0 0 0 
0 0 0 0 0 0 0 0 0 0 0 0 0 0 0 0 0 0 0 0 0 0 0 0 30 88 33 48 54 55 3 44 38 58 56 54 47 37 22 34 39 60 59 60 64 66 63 66 65 63 66 67 65 67 68 69 65 66 65 64 47 61 62 56 65 47 63 67 71 71 68 69 69 65 64 64 68 67 68 66 61 63 60 59 55 42 39 32 41 53 58 50 44 32 5 56 54 46 57 88 73 0 0 0 0 0 0 0 0 0 0 0 0 0 0 0 0 0 0 0 0 0 0 0 0 0 0 0 
0 0 0 0 0 0 0 0 0 0 0 0 0 0 0 0 0 0 0 0 0 0 0 0 64 88 48 47 50 43 6 18 57 57 56 56 56 44 18 39 37 54 59 56 60 65 62 69 67 68 67 65 65 67 64 67 69 69 69 65 65 62 64 58 65 64 68 71 71 69 68 69 68 68 68 68 67 67 69 67 63 60 59 58 49 40 57 59 54 60 61 59 48 24 1 41 56 55 56 57 88 0 0 0 0 0 0 0 0 0 0 0 0 0 0 0 0 0 0 0 0 0 0 0 0 0 0 0 
0 0 0 0 0 0 0 0 0 0 0 0 0 0 0 0 0 0 0 0 0 0 0 0 88 88 76 39 54 26 8 27 55 58 61 62 57 55 59 57 49 55 58 59 63 65 64 65 63 64 68 66 67 67 68 68 66 69 71 68 67 68 64 63 70 68 68 73 70 69 68 70 68 67 66 68 69 67 70 65 67 62 60 59 46 41 62 57 57 59 63 57 55 52 4 24 50 68 50 41 88 0 0 0 0 0 0 0 0 0 0 0 0 0 0 0 0 0 0 0 0 0 0 0 0 0 0 0 
0 0 0 0 0 0 0 0 0 0 0 0 0 0 0 0 0 0 0 0 0 0 0 0 88 53 48 50 47 19 3 30 53 57 56 58 63 62 58 58 55 53 59 59 59 61 64 66 65 68 65 66 65 66 66 66 69 69 69 69 68 67 56 52 73 67 74 72 72 69 69 66 67 69 67 67 66 68 66 65 66 65 60 57 50 40 61 59 57 60 58 62 60 52 2 13 57 57 56 49 88 21 0 0 0 0 0 0 0 0 0 0 0 0 0 0 0 0 0 0 0 0 0 0 0 0 0 0 
0 0 0 0 0 0 0 0 0 0 0 0 0 0 0 0 0 0 0 0 0 0 0 0 88 36 63 51 42 15 0 35 43 53 55 57 60 64 64 63 59 52 47 57 58 64 65 63 66 67 68 66 65 66 67 67 68 70 68 68 62 66 34 32 63 65 68 73 72 71 69 68 69 68 67 67 63 66 65 63 67 65 60 59 53 42 61 57 57 58 59 60 58 42 6 13 51 63 59 41 88 53 0 0 0 0 0 0 0 0 0 0 0 0 0 0 0 0 0 0 0 0 0 0 0 0 0 0 
0 0 0 0 0 0 0 0 0 0 0 0 0 0 0 0 0 0 0 0 0 0 0 34 88 34 59 51 39 9 0 49 38 50 57 55 58 59 64 61 57 46 9 50 56 61 62 66 59 69 63 65 62 64 67 68 69 68 70 69 67 60 29 31 55 72 71 71 71 69 67 69 68 66 67 68 60 65 56 63 63 62 60 54 51 35 60 60 63 62 61 63 60 57 7 7 38 51 56 48 88 79 0 0 0 0 0 0 0 0 0 0 0 0 0 0 0 0 0 0 0 0 0 0 0 0 0 0 
0 0 0 0 0 0 0 0 0 0 0 0 0 0 0 0 0 0 0 0 0 0 0 58 88 42 48 57 28 6 3 60 63 58 55 58 56 57 63 63 60 39 31 62 58 61 62 66 66 67 65 65 64 65 65 66 69 69 68 66 67 61 27 31 54 69 69 69 71 69 67 68 67 68 66 67 69 64 66 61 64 58 56 49 26 31 57 58 63 62 62 62 59 47 7 8 28 61 52 60 54 88 0 0 0 0 0 0 0 0 0 0 0 0 0 0 0 0 0 0 0 0 0 0 0 0 0 0 
0 0 0 0 0 0 0 0 0 0 0 0 0 0 0 0 0 0 0 0 0 0 0 68 88 42 48 57 15 4 21 57 61 55 56 59 58 59 61 63 58 48 46 58 58 63 62 66 60 68 65 64 63 66 66 64 66 66 69 65 60 63 31 31 61 66 68 69 69 65 69 65 65 66 67 67 66 66 66 65 65 58 59 55 17 25 54 61 64 64 61 58 53 44 9 7 19 56 49 55 53 88 0 0 0 0 0 0 0 0 0 0 0 0 0 0 0 0 0 0 0 0 0 0 0 0 0 0 
0 0 0 0 0 0 0 0 0 0 0 0 0 0 0 0 0 0 0 0 0 0 0 68 88 40 55 45 13 3 34 58 59 58 59 56 55 58 63 64 59 56 45 51 61 60 64 67 58 66 62 63 64 64 68 65 65 65 65 67 61 63 32 31 64 64 66 67 66 64 70 67 66 65 67 67 60 63 63 66 66 62 61 58 35 21 62 61 67 63 60 57 59 59 24 4 12 54 52 58 45 88 25 0 0 0 0 0 0 0 0 0 0 0 0 0 0 0 0 0 0 0 0 0 0 0 0 0 
0 0 0 0 0 0 0 0 0 0 0 0 0 0 0 0 0 0 0 0 0 0 0 88 88 44 54 36 6 5 39 52 58 62 60 57 54 60 60 64 66 60 56 41 58 60 64 67 64 68 65 65 63 63 63 63 65 66 65 66 64 66 33 30 67 64 66 67 65 64 65 67 65 67 67 67 67 68 63 65 65 61 61 60 55 45 62 64 69 64 60 61 59 59 48 2 8 46 55 68 42 88 40 0 0 0 0 0 0 0 0 0 0 0 0 0 0 0 0 0 0 0 0 0 0 0 0 0 
0 0 0 0 0 0 0 0 0 0 0 0 0 0 0 0 0 0 0 0 0 0 0 88 62 50 52 33 15 5 43 47 63 60 61 57 59 58 59 62 63 63 59 49 49 59 65 66 63 65 66 62 64 63 64 61 65 64 67 68 65 65 39 33 66 65 67 70 69 68 64 65 64 66 67 67 68 67 66 64 63 58 62 58 52 55 64 67 66 67 64 63 61 60 65 17 5 29 75 53 38 88 57 0 0 0 0 0 0 0 0 0 0 0 0 0 0 0 0 0 0 0 0 0 0 0 0 0 
0 0 0 0 0 0 0 0 0 0 0 0 0 0 0 0 0 0 0 0 0 0 17 88 72 54 49 22 12 6 38 44 59 60 61 60 60 57 58 60 61 62 63 56 53 59 66 67 65 67 66 61 62 62 64 63 65 70 66 68 66 65 45 41 66 68 68 67 68 66 64 64 65 63 68 67 68 68 66 66 63 57 57 55 58 66 66 63 65 63 62 61 58 59 54 50 3 16 57 50 33 88 60 0 0 0 0 0 0 0 0 0 0 0 0 0 0 0 0 0 0 0 0 0 0 0 0 0 
0 0 0 0 0 0 0 0 0 0 0 0 0 0 0 0 0 0 0 0 0 0 24 88 52 58 48 15 6 11 30 55 59 61 57 60 62 62 57 57 59 59 63 63 57 60 66 66 64 67 68 66 60 63 63 65 67 65 66 65 67 66 59 52 67 65 67 67 68 66 66 63 65 63 67 63 72 66 66 69 63 54 55 56 65 68 66 64 61 60 59 60 55 57 54 61 14 2 55 52 38 88 67 0 0 0 0 0 0 0 0 0 0 0 0 0 0 0 0 0 0 0 0 0 0 0 0 0 
0 0 0 0 0 0 0 0 0 0 0 0 0 0 0 0 0 0 0 0 0 0 35 88 50 76 88 7 0 17 39 55 56 53 55 59 55 60 60 60 58 62 62 66 64 63 69 67 69 68 70 65 63 59 63 66 66 66 64 67 67 66 63 63 68 69 65 65 65 68 67 62 62 61 67 69 71 68 68 68 63 60 63 61 66 68 63 59 55 58 58 56 59 63 61 59 32 0 47 50 38 88 67 0 0 0 0 0 0 0 0 0 0 0 0 0 0 0 0 0 0 0 0 0 0 0 0 0 
0 0 0 0 0 0 0 0 0 0 0 0 0 0 0 0 0 0 0 0 0 0 43 88 53 59 54 13 0 27 45 59 55 54 49 50 58 53 55 59 59 61 65 68 68 67 68 68 68 67 68 65 64 65 61 62 64 65 64 67 67 67 66 65 68 66 66 64 66 66 66 60 64 67 68 70 68 67 66 68 68 64 65 65 67 64 56 50 59 58 60 58 61 55 59 54 43 0 37 57 46 88 72 0 0 0 0 0 0 0 0 0 0 0 0 0 0 0 0 0 0 0 0 0 0 0 0 0 
0 0 0 0 0 0 0 0 0 0 0 0 0 0 0 0 0 0 0 0 0 0 53 88 51 67 50 6 9 40 53 56 60 56 59 56 53 56 45 58 57 61 63 68 68 69 68 68 69 68 66 65 66 64 64 67 65 65 65 64 64 65 69 65 67 66 66 66 68 65 64 69 67 66 69 71 68 70 70 69 69 69 69 69 62 58 35 55 58 60 58 59 56 60 62 56 50 3 31 55 43 88 83 0 0 0 0 0 0 0 0 0 0 0 0 0 0 0 0 0 0 0 0 0 0 0 0 0 
0 0 0 0 0 0 0 0 0 0 0 0 0 0 0 0 0 0 0 0 0 0 56 88 47 72 47 4 18 60 54 56 52 66 61 58 60 59 50 52 55 59 63 69 68 68 69 69 66 68 68 64 64 68 63 66 65 66 64 65 65 65 67 67 67 64 63 67 69 65 67 67 70 66 67 71 65 68 71 69 69 70 71 67 60 56 49 59 60 60 60 60 61 62 61 58 48 5 39 59 46 88 88 0 0 0 0 0 0 0 0 0 0 0 0 0 0 0 0 0 0 0 0 0 0 0 0 0 
0 0 0 0 0 0 0 0 0 0 0 0 0 0 0 0 0 0 0 0 0 0 58 88 49 54 47 2 32 58 58 62 61 56 54 53 55 60 57 60 55 59 61 65 70 66 64 69 60 67 63 61 50 62 68 68 66 67 62 63 67 65 65 62 66 67 65 62 64 67 70 69 46 60 67 65 64 61 62 71 70 66 69 66 59 57 59 60 60 61 65 60 62 61 57 50 43 12 15 55 52 61 88 0 0 0 0 0 0 0 0 0 0 0 0 0 0 0 0 0 0 0 0 0 0 0 0 0 
0 0 0 0 0 0 0 0 0 0 0 0 0 0 0 0 0 0 0 0 0 0 65 88 50 53 49 2 38 58 61 61 59 58 61 62 58 58 62 63 64 63 64 66 63 69 67 59 59 64 65 62 51 35 30 49 67 69 63 64 66 66 63 63 69 64 61 61 63 63 56 30 49 53 65 63 64 66 52 69 72 67 72 69 63 61 64 64 60 62 61 62 64 63 53 55 53 12 13 49 60 88 88 0 0 0 0 0 0 0 0 0 0 0 0 0 0 0 0 0 0 0 0 0 0 0 0 0 
0 0 0 0 0 0 0 0 0 0 0 0 0 0 0 0 0 0 0 0 0 0 62 88 67 47 46 6 37 59 61 63 63 63 63 63 59 59 61 63 65 65 71 64 65 67 72 57 53 64 64 64 58 44 23 4 43 64 65 67 65 66 63 63 66 66 64 65 63 56 23 50 34 61 66 65 66 66 40 70 68 73 70 69 67 63 63 63 64 61 59 64 60 62 61 58 58 17 13 53 48 88 88 0 0 0 0 0 0 0 0 0 0 0 0 0 0 0 0 0 0 0 0 0 0 0 0 0 
0 0 0 0 0 0 0 0 0 0 0 0 0 0 0 0 0 0 0 0 0 0 60 88 75 50 47 2 37 57 59 62 64 64 63 67 64 60 63 63 63 68 70 65 69 61 64 81 52 64 63 62 58 61 52 27 11 50 69 67 64 66 63 59 65 65 66 64 59 16 24 30 55 55 57 64 62 63 44 78 68 69 68 71 64 65 63 61 62 61 57 55 58 60 63 60 56 19 13 55 41 88 88 0 0 0 0 0 0 0 0 0 0 0 0 0 0 0 0 0 0 0 0 0 0 0 0 0 
0 0 0 0 0 0 0 0 0 0 0 0 0 0 0 0 0 0 0 0 0 0 56 88 88 43 53 4 33 59 60 60 62 63 64 62 65 64 64 63 65 67 69 67 69 50 63 63 57 62 63 63 63 63 63 60 35 34 63 67 67 65 57 53 64 68 66 67 39 34 45 57 61 58 56 61 61 61 62 69 62 63 69 69 67 62 62 59 54 57 60 60 62 61 60 58 55 16 4 56 42 88 88 0 0 0 0 0 0 0 0 0 0 0 0 0 0 0 0 0 0 0 0 0 0 0 0 0 
0 0 0 0 0 0 0 0 0 0 0 0 0 0 0 0 0 0 0 0 0 0 54 88 88 43 50 8 24 56 62 60 60 61 63 63 65 64 67 68 67 69 68 73 58 51 69 66 53 62 57 61 60 63 69 64 63 32 47 67 67 63 57 45 66 65 66 62 35 45 63 66 64 62 59 58 59 63 49 64 56 61 71 70 65 65 58 63 61 63 63 63 65 63 62 58 55 14 4 51 43 88 87 0 0 0 0 0 0 0 0 0 0 0 0 0 0 0 0 0 0 0 0 0 0 0 0 0 
0 0 0 0 0 0 0 0 0 0 0 0 0 0 0 0 0 0 0 0 0 0 48 88 88 43 55 7 21 59 59 61 60 54 61 61 61 66 66 70 70 67 67 71 55 49 66 68 56 47 66 59 62 61 66 70 63 57 35 64 67 64 58 50 63 67 64 48 39 66 63 66 67 64 61 60 60 55 47 62 69 50 75 67 67 68 64 65 65 65 67 64 64 65 63 56 60 22 3 41 46 88 86 0 0 0 0 0 0 0 0 0 0 0 0 0 0 0 0 0 0 0 0 0 0 0 0 0 
0 0 0 0 0 0 0 0 0 0 0 0 0 0 0 0 0 0 0 0 0 0 44 88 88 45 56 7 12 58 59 61 60 59 59 61 64 68 67 70 71 67 68 70 56 53 61 56 56 48 62 63 62 66 67 69 65 66 38 50 69 66 57 56 62 66 62 31 57 64 64 65 66 66 60 63 63 46 63 72 45 60 72 68 69 70 67 68 68 67 64 63 63 63 61 59 58 28 0 44 49 88 80 0 0 0 0 0 0 0 0 0 0 0 0 0 0 0 0 0 0 0 0 0 0 0 0 0 
0 0 0 0 0 0 0 0 0 0 0 0 0 0 0 0 0 0 0 0 0 0 37 88 88 44 59 5 5 57 60 61 61 59 63 61 67 69 69 71 68 67 68 67 61 61 60 61 61 65 66 67 72 68 69 66 67 63 55 25 44 43 33 43 39 47 35 26 63 63 62 62 62 65 68 63 61 56 60 65 45 67 69 69 71 67 69 70 66 65 63 62 61 63 57 58 58 22 3 33 45 88 76 0 0 0 0 0 0 0 0 0 0 0 0 0 0 0 0 0 0 0 0 0 0 0 0 0 
0 0 0 0 0 0 0 0 0 0 0 0 0 0 0 0 0 0 0 0 0 0 28 88 88 50 72 16 0 48 59 60 63 60 61 61 68 67 65 65 69 70 66 67 64 61 58 57 61 58 60 63 64 63 61 64 63 53 56 47 28 28 35 33 31 27 34 31 58 66 63 64 60 59 62 60 59 60 62 62 58 63 66 70 69 69 68 66 65 62 60 63 62 59 56 54 44 12 7 29 42 88 82 0 0 0 0 0 0 0 0 0 0 0 0 0 0 0 0 0 0 0 0 0 0 0 0 0 
0 0 0 0 0 0 0 0 0 0 0 0 0 0 0 0 0 0 0 0 0 0 20 84 88 80 56 15 0 43 57 63 59 59 61 65 67 66 63 65 66 73 65 69 67 61 61 60 60 57 60 58 59 56 63 58 62 51 52 59 47 28 52 43 46 33 43 39 59 64 65 64 62 57 54 58 57 58 57 68 62 63 67 68 69 67 70 69 63 60 57 59 63 60 57 60 44 7 9 23 54 88 62 0 0 0 0 0 0 0 0 0 0 0 0 0 0 0 0 0 0 0 0 0 0 0 0 0 
0 0 0 0 0 0 0 0 0 0 0 0 0 0 0 0 0 0 0 0 0 0 0 67 88 88 48 21 2 36 58 61 62 62 63 67 68 66 63 63 70 70 71 68 66 66 62 62 58 57 58 60 48 64 66 63 70 59 59 55 58 30 60 57 60 55 59 60 52 59 70 61 62 60 56 52 57 62 63 67 67 64 68 69 68 67 69 69 63 56 57 60 61 63 62 59 55 4 9 27 55 88 49 0 0 0 0 0 0 0 0 0 0 0 0 0 0 0 0 0 0 0 0 0 0 0 0 0 
0 0 0 0 0 0 0 0 0 0 0 0 0 0 0 0 0 0 0 0 0 0 0 58 88 88 45 25 6 26 60 60 61 62 63 70 67 63 64 64 70 68 68 68 68 67 63 61 57 61 64 59 61 61 59 63 80 64 59 55 63 59 63 57 62 60 61 58 60 54 76 63 63 63 61 59 56 59 63 66 66 67 70 70 64 67 66 69 68 59 55 51 58 59 61 57 49 6 17 30 71 88 53 0 0 0 0 0 0 0 0 0 0 0 0 0 0 0 0 0 0 0 0 0 0 0 0 0 
0 0 0 0 0 0 0 0 0 0 0 0 0 0 0 0 0 0 0 0 0 0 0 53 88 88 48 23 20 8 59 61 59 60 65 69 68 62 61 63 64 65 69 68 68 70 64 58 60 60 62 63 61 59 59 67 75 69 59 53 62 60 62 61 63 62 60 60 59 55 73 65 63 64 60 58 58 55 63 65 67 67 67 69 68 65 63 63 65 65 59 52 49 58 59 57 37 13 13 26 84 88 47 0 0 0 0 0 0 0 0 0 0 0 0 0 0 0 0 0 0 0 0 0 0 0 0 0 
0 0 0 0 0 0 0 0 0 0 0 0 0 0 0 0 0 0 0 0 0 0 0 34 81 88 88 30 12 2 44 59 60 63 67 65 61 62 63 63 63 60 69 70 69 68 63 60 58 62 64 62 63 59 60 63 63 65 60 55 61 62 59 60 59 60 61 61 59 62 75 67 64 62 59 57 61 62 60 62 66 62 67 64 69 66 60 61 62 64 62 58 52 58 57 53 17 25 11 16 88 88 35 0 0 0 0 0 0 0 0 0 0 0 0 0 0 0 0 0 0 0 0 0 0 0 0 0 
0 0 0 0 0 0 0 0 0 0 0 0 0 0 0 0 0 0 0 0 0 0 0 17 74 88 88 31 8 13 29 50 57 63 64 60 60 61 59 58 58 60 65 69 69 68 62 61 63 63 60 63 66 63 62 61 61 57 61 61 58 62 61 60 60 62 62 61 54 66 68 66 63 61 57 56 56 55 62 63 64 62 67 68 67 65 65 61 62 61 62 60 51 52 59 49 5 31 4 27 88 88 30 0 0 0 0 0 0 0 0 0 0 0 0 0 0 0 0 0 0 0 0 0 0 0 0 0 
0 0 0 0 0 0 0 0 0 0 0 0 0 0 0 0 0 0 0 0 0 0 0 0 65 88 88 51 4 25 16 56 60 61 63 60 61 63 61 58 57 61 66 69 68 68 63 57 59 61 59 62 66 61 59 60 63 63 54 63 62 62 60 60 60 61 61 63 63 67 69 62 63 61 58 57 61 64 66 66 61 59 62 69 67 66 63 61 61 60 59 61 55 60 53 46 2 38 0 43 88 82 24 0 0 0 0 0 0 0 0 0 0 0 0 0 0 0 0 0 0 0 0 0 0 0 0 0 
0 0 0 0 0 0 0 0 0 0 0 0 0 0 0 0 0 0 0 0 0 0 0 0 40 88 88 88 0 36 5 46 61 58 61 59 61 53 50 55 59 64 68 68 67 69 64 64 63 62 62 58 64 63 61 55 57 63 53 60 65 62 63 63 62 61 60 59 63 71 57 62 63 60 63 57 61 63 66 64 62 53 58 63 66 61 60 63 63 61 61 57 51 58 59 26 14 24 6 73 88 66 0 0 0 0 0 0 0 0 0 0 0 0 0 0 0 0 0 0 0 0 0 0 0 0 0 0 
0 0 0 0 0 0 0 0 0 0 0 0 0 0 0 0 0 0 0 0 0 0 0 0 21 75 88 88 8 22 32 5 56 55 59 54 56 58 58 59 64 68 67 64 63 66 67 64 68 62 59 58 63 62 60 58 58 54 62 58 61 62 60 58 62 62 63 66 61 73 64 61 61 61 59 58 59 63 65 66 60 55 62 63 69 59 59 58 65 64 63 61 57 56 51 8 32 6 14 88 88 66 0 0 0 0 0 0 0 0 0 0 0 0 0 0 0 0 0 0 0 0 0 0 0 0 0 0 
0 0 0 0 0 0 0 0 0 0 0 0 0 0 0 0 0 0 0 0 0 0 0 0 0 60 88 88 33 8 50 4 34 57 52 56 57 58 60 63 66 67 67 65 62 61 68 66 64 63 60 58 63 63 59 62 60 53 62 63 63 61 63 65 62 63 61 65 62 77 74 59 58 56 63 56 58 58 63 63 59 50 60 66 66 62 59 55 58 60 64 65 60 58 51 0 43 0 25 88 88 50 0 0 0 0 0 0 0 0 0 0 0 0 0 0 0 0 0 0 0 0 0 0 0 0 0 0 
0 0 0 0 0 0 0 0 0 0 0 0 0 0 0 0 0 0 0 0 0 0 0 0 0 41 88 88 85 0 43 37 2 41 54 56 58 59 59 63 67 67 66 66 61 60 64 67 65 62 62 38 67 61 56 53 60 60 59 61 63 62 64 60 61 60 61 65 61 65 66 61 63 63 63 58 40 51 64 63 57 44 62 65 64 60 56 54 56 56 57 61 61 54 40 7 41 0 40 88 87 46 0 0 0 0 0 0 0 0 0 0 0 0 0 0 0 0 0 0 0 0 0 0 0 0 0 0 
0 0 0 0 0 0 0 0 0 0 0 0 0 0 0 0 0 0 0 0 0 0 0 0 0 16 67 88 88 4 25 54 4 26 54 60 62 62 63 63 62 63 62 64 60 58 63 66 67 61 58 53 58 60 58 56 56 58 64 57 62 63 62 59 61 62 62 59 59 61 58 63 57 65 63 29 56 61 65 61 48 53 62 66 64 60 55 58 58 53 55 55 58 58 18 19 25 2 61 88 85 34 0 0 0 0 0 0 0 0 0 0 0 0 0 0 0 0 0 0 0 0 0 0 0 0 0 0 
0 0 0 0 0 0 0 0 0 0 0 0 0 0 0 0 0 0 0 0 0 0 0 0 0 0 51 88 72 26 9 52 15 16 60 62 61 64 63 61 62 60 57 60 59 56 63 65 64 61 59 53 61 57 58 58 60 58 57 63 55 55 61 62 58 58 60 58 63 58 61 60 67 57 52 42 65 57 63 53 41 62 61 66 62 59 57 61 58 58 50 58 56 49 0 45 4 9 88 88 84 19 0 0 0 0 0 0 0 0 0 0 0 0 0 0 0 0 0 0 0 0 0 0 0 0 0 0 
0 0 0 0 0 0 0 0 0 0 0 0 0 0 0 0 0 0 0 0 0 0 0 0 0 0 32 88 88 67 0 34 46 2 62 62 63 64 61 63 62 61 63 62 60 57 59 60 62 65 61 57 53 59 62 59 61 60 59 61 63 47 61 59 57 57 62 57 63 63 60 61 63 70 62 60 56 61 59 41 58 57 65 63 59 59 59 63 57 55 50 41 48 28 19 38 0 24 88 88 58 0 0 0 0 0 0 0 0 0 0 0 0 0 0 0 0 0 0 0 0 0 0 0 0 0 0 0 
0 0 0 0 0 0 0 0 0 0 0 0 0 0 0 0 0 0 0 0 0 0 0 0 0 0 0 62 88 88 3 12 51 4 55 59 62 62 61 64 66 64 67 67 64 55 53 61 65 63 58 58 44 59 58 61 57 60 61 60 57 50 48 53 57 58 63 58 61 60 57 60 44 44 62 57 59 59 44 46 58 63 65 60 61 61 61 61 60 47 22 41 42 9 41 9 2 77 88 88 48 0 0 0 0 0 0 0 0 0 0 0 0 0 0 0 0 0 0 0 0 0 0 0 0 0 0 0 
0 0 0 0 0 0 0 0 0 0 0 0 0 0 0 0 0 0 0 0 0 0 0 0 0 0 0 39 88 88 26 1 30 29 24 55 60 62 63 64 63 58 61 66 60 59 49 53 61 64 60 56 43 50 59 61 60 59 62 62 61 54 55 55 38 21 72 57 59 56 56 55 48 53 60 56 57 53 37 41 58 63 61 58 62 60 60 62 55 53 57 59 27 16 25 3 19 88 88 66 32 0 0 0 0 0 0 0 0 0 0 0 0 0 0 0 0 0 0 0 0 0 0 0 0 0 0 0 
0 0 0 0 0 0 0 0 0 0 0 0 0 0 0 0 0 0 0 0 0 0 0 0 0 0 0 20 65 88 88 0 5 40 1 61 55 57 60 61 55 57 58 62 63 69 54 40 61 59 57 55 55 52 52 59 55 57 61 58 63 57 61 57 57 59 73 57 60 53 54 50 52 62 51 47 55 57 57 46 44 59 55 55 58 61 63 57 53 55 63 20 15 17 5 8 88 88 88 53 0 0 0 0 0 0 0 0 0 0 0 0 0 0 0 0 0 0 0 0 0 0 0 0 0 0 0 0 
0 0 0 0 0 0 0 0 0 0 0 0 0 0 0 0 0 0 0 0 0 0 0 0 0 0 0 0 49 88 88 33 5 26 15 65 45 47 58 57 51 59 57 66 69 60 61 33 56 51 58 57 50 53 57 60 58 62 58 60 62 58 60 66 60 56 71 57 50 57 59 51 57 53 53 58 55 59 61 59 64 36 55 57 56 60 52 53 46 43 18 8 29 4 4 43 88 88 68 26 0 0 0 0 0 0 0 0 0 0 0 0 0 0 0 0 0 0 0 0 0 0 0 0 0 0 0 0 
0 0 0 0 0 0 0 0 0 0 0 0 0 0 0 0 0 0 0 0 0 0 0 0 0 0 0 0 30 77 88 88 5 9 21 32 85 29 38 44 58 61 63 63 55 60 47 28 53 62 59 48 61 54 56 59 64 58 58 61 60 59 59 60 54 54 74 55 51 61 53 48 52 56 56 61 56 56 56 59 64 59 51 53 56 59 59 47 24 23 9 13 40 5 26 88 88 71 43 0 0 0 0 0 0 0 0 0 0 0 0 0 0 0 0 0 0 0 0 0 0 0 0 0 0 0 0 0 
0 0 0 0 0 0 0 0 0 0 0 0 0 0 0 0 0 0 0 0 0 0 0 0 0 0 0 0 0 59 84 88 72 11 9 12 68 48 28 41 58 70 62 62 61 57 44 34 61 51 59 42 58 55 57 58 59 57 62 58 66 62 49 63 60 34 71 49 53 58 49 52 57 59 59 56 57 62 56 58 60 47 57 52 53 53 49 41 49 20 13 6 29 30 88 88 79 61 0 0 0 0 0 0 0 0 0 0 0 0 0 0 0 0 0 0 0 0 0 0 0 0 0 0 0 0 0 0 
0 0 0 0 0 0 0 0 0 0 0 0 0 0 0 0 0 0 0 0 0 0 0 0 0 0 0 0 0 22 75 88 88 48 2 22 13 72 7 30 49 59 59 62 55 65 39 42 51 53 42 55 67 55 42 58 56 60 59 67 60 67 55 59 62 21 81 48 50 59 63 45 61 59 58 60 59 55 56 42 54 46 63 60 48 57 88 81 21 23 14 9 13 88 88 85 69 21 0 0 0 0 0 0 0 0 0 0 0 0 0 0 0 0 0 0 0 0 0 0 0 0 0 0 0 0 0 0 
0 0 0 0 0 0 0 0 0 0 0 0 0 0 0 0 0 0 0 0 0 0 0 0 0 0 0 0 0 0 49 88 88 88 45 4 7 31 18 24 25 47 44 51 60 57 47 26 53 45 47 57 54 66 51 34 48 55 65 62 33 58 40 53 43 58 53 49 61 54 56 57 54 60 61 53 57 63 46 48 52 61 63 52 54 86 70 14 28 15 9 3 78 88 88 71 34 0 0 0 0 0 0 0 0 0 0 0 0 0 0 0 0 0 0 0 0 0 0 0 0 0 0 0 0 0 0 0 
0 0 0 0 0 0 0 0 0 0 0 0 0 0 0 0 0 0 0 0 0 0 0 0 0 0 0 0 0 0 20 61 88 88 88 11 14 26 13 18 16 13 41 44 41 43 46 32 53 44 55 53 59 60 57 61 36 60 57 53 28 72 32 56 46 66 49 59 53 54 57 52 61 60 63 52 62 56 31 48 56 50 55 57 88 69 12 22 16 9 8 44 88 88 74 47 0 0 0 0 0 0 0 0 0 0 0 0 0 0 0 0 0 0 0 0 0 0 0 0 0 0 0 0 0 0 0 0 
0 0 0 0 0 0 0 0 0 0 0 0 0 0 0 0 0 0 0 0 0 0 0 0 0 0 0 0 0 0 0 37 80 88 88 85 13 28 19 12 26 12 13 34 45 43 32 33 49 62 60 55 60 55 61 48 70 50 67 37 22 51 46 67 62 59 47 56 45 60 61 53 54 63 47 50 57 56 31 53 48 57 23 88 71 13 27 15 13 13 33 88 88 80 58 0 0 0 0 0 0 0 0 0 0 0 0 0 0 0 0 0 0 0 0 0 0 0 0 0 0 0 0 0 0 0 0 0 
0 0 0 0 0 0 0 0 0 0 0 0 0 0 0 0 0 0 0 0 0 0 0 0 0 0 0 0 0 0 0 0 66 88 88 88 45 6 18 20 22 28 17 15 25 38 26 49 54 64 58 62 51 69 51 60 64 58 58 61 66 86 55 55 68 79 64 58 52 57 63 45 58 47 49 59 58 34 53 48 63 42 88 82 20 27 22 16 3 23 88 88 88 70 28 0 0 0 0 0 0 0 0 0 0 0 0 0 0 0 0 0 0 0 0 0 0 0 0 0 0 0 0 0 0 0 0 0 
0 0 0 0 0 0 0 0 0 0 0 0 0 0 0 0 0 0 0 0 0 0 0 0 0 0 0 0 0 0 0 0 30 78 88 88 88 31 7 13 24 25 20 22 19 14 26 16 19 47 63 56 69 48 70 64 53 62 60 57 88 79 88 47 41 85 73 65 57 60 46 53 50 43 63 62 44 38 55 71 51 88 81 24 24 30 18 8 17 44 88 88 88 42 0 0 0 0 0 0 0 0 0 0 0 0 0 0 0 0 0 0 0 0 0 0 0 0 0 0 0 0 0 0 0 0 0 0 
0 0 0 0 0 0 0 0 0 0 0 0 0 0 0 0 0 0 0 0 0 0 0 0 0 0 0 0 0 0 0 0 0 47 68 88 88 88 24 4 22 28 36 11 20 37 28 22 31 47 27 59 53 66 61 63 46 51 64 69 88 88 88 88 88 51 72 71 59 39 41 54 59 54 63 59 55 63 88 88 88 81 33 25 38 28 6 4 50 88 88 88 65 0 0 0 0 0 0 0 0 0 0 0 0 0 0 0 0 0 0 0 0 0 0 0 0 0 0 0 0 0 0 0 0 0 0 0 
0 0 0 0 0 0 0 0 0 0 0 0 0 0 0 0 0 0 0 0 0 0 0 0 0 0 0 0 0 0 0 0 0 0 68 86 88 88 88 16 1 28 28 20 16 21 43 30 38 31 49 52 55 74 59 63 68 56 78 88 76 29 37 84 88 88 47 70 48 49 54 41 60 58 43 85 78 88 88 88 84 22 24 49 24 0 7 59 88 88 88 84 51 0 0 0 0 0 0 0 0 0 0 0 0 0 0 0 0 0 0 0 0 0 0 0 0 0 0 0 0 0 0 0 0 0 0 0 
0 0 0 0 0 0 0 0 0 0 0 0 0 0 0 0 0 0 0 0 0 0 0 0 0 0 0 0 0 0 0 0 0 0 24 76 88 88 88 63 20 14 31 33 26 29 26 40 39 43 49 41 59 55 44 57 48 51 51 57 45 12 31 60 57 55 83 41 35 50 65 73 72 88 88 88 88 88 88 59 26 30 28 3 4 7 75 88 88 88 78 57 0 0 0 0 0 0 0 0 0 0 0 0 0 0 0 0 0 0 0 0 0 0 0 0 0 0 0 0 0 0 0 0 0 0 0 0 
0 0 0 0 0 0 0 0 0 0 0 0 0 0 0 0 0 0 0 0 0 0 0 0 0 0 0 0 0 0 0 0 0 0 0 45 66 88 88 88 88 27 5 2 40 32 31 35 25 19 24 26 1 7 6 13 23 33 40 52 29 23 5 7 41 34 56 88 75 64 73 73 88 88 88 88 88 88 48 35 25 40 13 6 7 83 88 88 88 88 66 22 0 0 0 0 0 0 0 0 0 0 0 0 0 0 0 0 0 0 0 0 0 0 0 0 0 0 0 0 0 0 0 0 0 0 0 0 
0 0 0 0 0 0 0 0 0 0 0 0 0 0 0 0 0 0 0 0 0 0 0 0 0 0 0 0 0 0 0 0 0 0 0 0 51 82 88 88 88 88 33 16 8 23 48 27 17 38 25 31 36 7 13 20 30 48 7 49 83 87 64 65 59 37 29 30 49 55 58 72 71 68 81 86 70 51 32 19 34 8 6 9 70 56 88 88 88 67 38 0 0 0 0 0 0 0 0 0 0 0 0 0 0 0 0 0 0 0 0 0 0 0 0 0 0 0 0 0 0 0 0 0 0 0 0 0 
0 0 0 0 0 0 0 0 0 0 0 0 0 0 0 0 0 0 0 0 0 0 0 0 0 0 0 0 0 0 0 0 0 0 0 0 0 35 70 88 88 88 88 75 6 2 9 44 58 25 19 26 32 20 13 5 1 5 2 42 88 88 88 88 88 88 88 85 71 59 54 62 71 72 72 63 45 21 31 21 2 3 13 88 88 88 88 84 61 42 0 0 0 0 0 0 0 0 0 0 0 0 0 0 0 0 0 0 0 0 0 0 0 0 0 0 0 0 0 0 0 0 0 0 0 0 0 0 
0 0 0 0 0 0 0 0 0 0 0 0 0 0 0 0 0 0 0 0 0 0 0 0 0 0 0 0 0 0 0 0 0 0 0 0 0 0 19 61 82 88 88 88 88 17 3 3 24 53 55 32 23 20 27 35 36 40 46 38 28 27 31 27 43 46 45 39 35 38 35 33 33 28 22 34 47 27 3 5 4 23 88 88 88 66 85 63 37 0 0 0 0 0 0 0 0 0 0 0 0 0 0 0 0 0 0 0 0 0 0 0 0 0 0 0 0 0 0 0 0 0 0 0 0 0 0 0 
0 0 0 0 0 0 0 0 0 0 0 0 0 0 0 0 0 0 0 0 0 0 0 0 0 0 0 0 0 0 0 0 0 0 0 0 0 0 0 0 48 71 79 88 88 77 4 1 5 8 29 44 57 59 56 39 55 59 63 61 61 66 54 51 41 39 40 39 46 47 54 62 66 66 58 42 15 2 3 4 36 88 88 88 74 81 58 27 0 0 0 0 0 0 0 0 0 0 0 0 0 0 0 0 0 0 0 0 0 0 0 0 0 0 0 0 0 0 0 0 0 0 0 0 0 0 0 0 
0 0 0 0 0 0 0 0 0 0 0 0 0 0 0 0 0 0 0 0 0 0 0 0 0 0 0 0 0 0 0 0 0 0 0 0 0 0 0 0 0 25 64 74 88 88 88 50 5 3 5 11 17 40 55 60 62 63 71 59 69 68 63 54 57 53 53 47 53 61 63 63 55 33 15 3 3 2 8 69 88 88 63 87 64 52 0 0 0 0 0 0 0 0 0 0 0 0 0 0 0 0 0 0 0 0 0 0 0 0 0 0 0 0 0 0 0 0 0 0 0 0 0 0 0 0 0 0 
0 0 0 0 0 0 0 0 0 0 0 0 0 0 0 0 0 0 0 0 0 0 0 0 0 0 0 0 0 0 0 0 0 0 0 0 0 0 0 0 0 0 0 57 77 64 88 88 88 51 8 3 5 3 12 30 41 53 60 63 61 66 62 58 64 57 56 65 59 58 36 16 6 2 4 3 25 71 88 88 70 75 77 50 24 0 0 0 0 0 0 0 0 0 0 0 0 0 0 0 0 0 0 0 0 0 0 0 0 0 0 0 0 0 0 0 0 0 0 0 0 0 0 0 0 0 0 0 
0 0 0 0 0 0 0 0 0 0 0 0 0 0 0 0 0 0 0 0 0 0 0 0 0 0 0 0 0 0 0 0 0 0 0 0 0 0 0 0 0 0 0 0 37 74 69 69 88 88 88 56 19 2 4 6 3 6 14 22 23 31 38 36 38 42 28 25 17 8 13 16 25 59 80 88 88 88 78 61 73 55 24 0 0 0 0 0 0 0 0 0 0 0 0 0 0 0 0 0 0 0 0 0 0 0 0 0 0 0 0 0 0 0 0 0 0 0 0 0 0 0 0 0 0 0 0 0 
0 0 0 0 0 0 0 0 0 0 0 0 0 0 0 0 0 0 0 0 0 0 0 0 0 0 0 0 0 0 0 0 0 0 0 0 0 0 0 0 0 0 0 0 0 0 44 72 59 69 88 88 88 88 88 53 40 28 24 24 24 24 14 31 23 31 43 51 69 88 88 88 88 88 88 88 72 50 70 56 30 0 0 0 0 0 0 0 0 0 0 0 0 0 0 0 0 0 0 0 0 0 0 0 0 0 0 0 0 0 0 0 0 0 0 0 0 0 0 0 0 0 0 0 0 0 0 0 
0 0 0 0 0 0 0 0 0 0 0 0 0 0 0 0 0 0 0 0 0 0 0 0 0 0 0 0 0 0 0 0 0 0 0 0 0 0 0 0 0 0 0 0 0 0 0 0 45 65 65 57 80 88 88 88 88 88 88 88 88 88 88 88 88 88 88 88 88 88 88 88 88 55 42 56 64 52 30 0 0 0 0 0 0 0 0 0 0 0 0 0 0 0 0 0 0 0 0 0 0 0 0 0 0 0 0 0 0 0 0 0 0 0 0 0 0 0 0 0 0 0 0 0 0 0 0 0 
0 0 0 0 0 0 0 0 0 0 0 0 0 0 0 0 0 0 0 0 0 0 0 0 0 0 0 0 0 0 0 0 0 0 0 0 0 0 0 0 0 0 0 0 0 0 0 0 0 0 36 65 75 56 48 53 57 70 88 88 88 88 88 88 88 83 75 63 59 42 49 63 67 64 47 38 0 0 0 0 0 0 0 0 0 0 0 0 0 0 0 0 0 0 0 0 0 0 0 0 0 0 0 0 0 0 0 0 0 0 0 0 0 0 0 0 0 0 0 0 0 0 0 0 0 0 0 0 
0 0 0 0 0 0 0 0 0 0 0 0 0 0 0 0 0 0 0 0 0 0 0 0 0 0 0 0 0 0 0 0 0 0 0 0 0 0 0 0 0 0 0 0 0 0 0 0 0 0 0 0 17 34 41 60 62 69 68 51 50 51 43 59 63 64 58 64 56 56 47 43 27 0 0 0 0 0 0 0 0 0 0 0 0 0 0 0 0 0 0 0 0 0 0 0 0 0 0 0 0 0 0 0 0 0 0 0 0 0 0 0 0 0 0 0 0 0 0 0 0 0 0 0 0 0 0 0 
0 0 0 0 0 0 0 0 0 0 0 0 0 0 0 0 0 0 0 0 0 0 0 0 0 0 0 0 0 0 0 0 0 0 0 0 0 0 0 0 0 0 0 0 0 0 0 0 0 0 0 0 0 0 0 0 0 16 27 44 57 61 56 52 35 21 0 0 0 0 0 0 0 0 0 0 0 0 0 0 0 0 0 0 0 0 0 0 0 0 0 0 0 0 0 0 0 0 0 0 0 0 0 0 0 0 0 0 0 0 0 0 0 0 0 0 0 0 0 0 0 0 0 0 0 0 0 0 
0 0 0 0 0 0 0 0 0 0 0 0 0 0 0 0 0 0 0 0 0 0 0 0 0 0 0 0 0 0 0 0 0 0 0 0 0 0 0 0 0 0 0 0 0 0 0 0 0 0 0 0 0 0 0 0 0 0 0 0 0 0 0 0 0 0 0 0 0 0 0 0 0 0 0 0 0 0 0 0 0 0 0 0 0 0 0 0 0 0 0 0 0 0 0 0 0 0 0 0 0 0 0 0 0 0 0 0 0 0 0 0 0 0 0 0 0 0 0 0 0 0 0 0 0 0 0 0 
