P2
128 128
88
0 0 0 0 0 0 0 0 0 0 0 0 0 0 0 0 0 0 0 0 0 0 0 0 0 0 0 0 0 0 0 0 0 0 0 0 0 0 0 0 0 0 0 0 0 0 0 0 0 0 0 0 0 0 0 0 0 0 0 0 0 0 0 0 0 0 0 0 0 0 0 0 0 0 0 0 0 0 0 0 0 0 0 0 0 0 0 0 0 0 0 0 0 0 0 0 0 0 0 0 0 0 0 0 0 0 0 0 0 0 0 0 0 0 0 0 0 0 0 0 0 0 0 0 0 0 0 0 
0 0 0 0 0 0 0 0 0 0 0 0 0 0 0 0 0 0 0 0 0 0 0 0 0 0 0 0 0 0 0 0 0 0 0 0 0 0 0 0 0 0 0 0 0 0 0 0 0 0 0 0 0 0 0 0 0 0 0 0 0 0 0 0 0 0 0 0 0 0 0 0 0 0 0 0 0 0 0 0 0 0 0 0 0 0 0 0 0 0 0 0 0 0 0 0 0 0 0 0 0 0 0 0 0 0 0 0 0 0 0 0 0 0 0 0 0 0 0 0 0 0 0 0 0 0 0 0 
0 0 0 0 0 0 0 0 0 0 0 0 0 0 0 0 0 0 0 0 0 0 0 0 0 0 0 0 0 0 0 0 0 0 0 0 0 0 0 0 0 0 0 0 0 0 0 0 0 0 0 0 0 0 0 0 0 0 0 0 0 0 0 0 0 0 0 0 0 0 0 0 0 0 0 0 0 0 0 0 0 0 0 0 0 0 0 0 0 0 0 0 0 0 0 0 0 0 0 0 0 0 0 0 0 0 0 0 0 0 0 0 0 0 0 0 0 0 0 0 0 0 0 0 0 0 0 0 
0 0 0 0 0 0 0 0 0 0 0 0 0 0 0 0 0 0 0 0 0 0 0 0 0 0 0 0 0 0 0 0 0 0 0 0 0 0 0 0 0 0 0 0 0 0 0 0 0 0 0 0 0 0 0 0 0 0 0 0 0 0 0 0 0 0 0 0 0 0 0 0 0 0 0 0 0 0 0 0 0 0 0 0 0 0 0 0 0 0 0 0 0 0 0 0 0 0 0 0 0 0 0 0 0 0 0 0 0 0 0 0 0 0 0 0 0 0 0 0 0 0 0 0 0 0 0 0 
0 0 0 0 0 0 0 0 0 0 0 0 0 0 0 0 0 0 0 0 0 0 0 0 0 0 0 0 0 0 0 0 0 0 0 0 0 0 0 0 0 0 0 0 0 0 0 0 0 0 0 0 0 0 0 0 0 0 0 0 0 0 0 0 0 0 0 0 0 0 0 0 0 0 0 0 0 0 0 0 0 0 0 0 0 0 0 0 0 0 0 0 0 0 0 0 0 0 0 0 0 0 0 0 0 0 0 0 0 0 0 0 0 0 0 0 0 0 0 0 0 0 0 0 0 0 0 0 
0 0 0 0 0 0 0 0 0 0 0 0 0 0 0 0 0 0 0 0 0 0 0 0 0 0 0 0 0 0 0 0 0 0 0 0 0 0 0 0 0 0 0 0 0 0 0 0 0 0 0 0 0 0 0 0 0 0 0 0 0 0 0 0 0 0 0 0 0 0 0 0 0 0 0 0 0 0 0 0 0 0 0 0 0 0 0 0 0 0 0 0 0 0 0 0 0 0 0 0 0 0 0 0 0 0 0 0 0 0 0 0 0 0 0 0 0 0 0 0 0 0 0 0 0 0 0 0 
0 0 0 0 0 0 0 0 0 0 0 0 0 0 0 0 0 0 0 0 0 0 0 0 0 0 0 0 0 0 0 0 0 0 0 0 0 0 0 0 0 0 0 0 0 0 0 0 0 0 0 0 0 0 0 0 0 0 0 0 0 0 0 0 0 0 0 0 0 0 0 0 0 0 0 0 0 0 0 0 0 0 0 0 0 0 0 0 0 0 0 0 0 0 0 0 0 0 0 0 0 0 0 0 0 0 0 0 0 0 0 0 0 0 0 0 0 0 0 0 0 0 0 0 0 0 0 0 
0 0 0 0 0 0 0 0 0 0 0 0 0 0 0 0 0 0 0 0 0 0 0 0 0 0 0 0 0 0 0 0 0 0 0 0 0 0 0 0 0 0 0 0 0 0 0 0 0 0 0 0 0 0 0 0 0 0 0 0 0 0 0 0 0 0 0 0 0 0 0 0 0 0 0 0 0 0 0 0 0 0 0 0 0 0 0 0 0 0 0 0 0 0 0 0 0 0 0 0 0 0 0 0 0 0 0 0 0 0 0 0 0 0 0 0 0 0 0 0 0 0 0 0 0 0 0 0 
0 0 0 0 0 0 0 0 0 0 0 0 0 0 0 0 0 0 0 0 0 0 0 0 0 0 0 0 0 0 0 0 0 0 0 0 0 0 0 0 0 0 0 0 0 0 0 0 0 0 0 0 0 0 0 0 0 0 0 0 0 0 0 0 0 0 0 0 0 0 0 0 0 0 0 0 0 0 0 0 0 0 0 0 0 0 0 0 0 0 0 0 0 0 0 0 0 0 0 0 0 0 0 0 0 0 0 0 0 0 0 0 0 0 0 0 0 0 0 0 0 0 0 0 0 0 0 0 
0 0 0 0 0 0 0 0 0 0 0 0 0 0 0 0 0 0 0 0 0 0 0 0 0 0 0 0 0 0 0 0 0 0 0 0 0 0 0 0 0 0 0 0 0 0 0 0 0 0 0 0 0 0 0 0 0 0 0 0 0 0 0 0 0 0 0 0 0 0 0 0 0 0 0 0 0 0 0 0 0 0 0 0 0 0 0 0 0 0 0 0 0 0 0 0 0 0 0 0 0 0 0 0 0 0 0 0 0 0 0 0 0 0 0 0 0 0 0 0 0 0 0 0 0 0 0 0 
0 0 0 0 0 0 0 0 0 0 0 0 0 0 0 0 0 0 0 0 0 0 0 0 0 0 0 0 0 0 0 0 0 0 0 0 0 0 0 0 0 0 0 0 0 0 0 0 0 0 0 0 0 0 0 0 0 0 0 0 0 0 0 0 0 0 0 0 0 0 0 0 0 0 0 0 0 0 0 0 0 0 0 0 0 0 0 0 0 0 0 0 0 0 0 0 0 0 0 0 0 0 0 0 0 0 0 0 0 0 0 0 0 0 0 0 0 0 0 0 0 0 0 0 0 0 0 0 
0 0 0 0 0 0 0 0 0 0 0 0 0 0 0 0 0 0 0 0 0 0 0 0 0 0 0 0 0 0 0 0 0 0 0 0 0 0 0 0 0 0 0 0 0 0 0 0 0 0 0 0 0 0 0 0 0 0 0 0 0 0 0 0 0 0 0 0 0 0 0 0 0 0 0 0 0 0 0 0 0 0 0 0 0 0 0 0 0 0 0 0 0 0 0 0 0 0 0 0 0 0 0 0 0 0 0 0 0 0 0 0 0 0 0 0 0 0 0 0 0 0 0 0 0 0 0 0 
0 0 0 0 0 0 0 0 0 0 0 0 0 0 0 0 0 0 0 0 0 0 0 0 0 0 0 0 0 0 0 0 0 0 0 0 0 0 0 0 0 0 0 0 0 0 0 0 0 0 0 0 0 0 0 0 0 0 0 0 0 0 0 0 0 0 0 0 0 0 0 0 0 0 0 0 0 0 0 0 0 0 0 0 0 0 0 0 0 0 0 0 0 0 0 0 0 0 0 0 0 0 0 0 0 0 0 0 0 0 0 0 0 0 0 0 0 0 0 0 0 0 0 0 0 0 0 0 
0 0 0 0 0 0 0 0 0 0 0 0 0 0 0 0 0 0 0 0 0 0 0 0 0 0 0 0 0 0 0 0 0 0 0 0 0 0 0 0 0 0 0 0 0 0 0 0 0 0 0 0 0 0 0 0 0 0 0 0 0 0 0 0 0 0 0 0 0 0 0 0 0 0 0 0 0 0 0 0 0 0 0 0 0 0 0 0 0 0 0 0 0 0 0 0 0 0 0 0 0 0 0 0 0 0 0 0 0 0 0 0 0 0 0 0 0 0 0 0 0 0 0 0 0 0 0 0 
0 0 0 0 0 0 0 0 0 0 0 0 0 0 0 0 0 0 0 0 0 0 0 0 0 0 0 0 0 0 0 0 0 0 0 0 0 0 0 0 0 0 0 0 0 0 0 0 0 0 0 0 0 0 0 0 0 0 0 0 0 0 0 0 0 0 0 0 0 0 0 0 0 0 0 0 0 0 0 0 0 0 0 0 0 0 0 0 0 0 0 0 0 0 0 0 0 0 0 0 0 0 0 0 0 0 0 0 0 0 0 0 0 0 0 0 0 0 0 0 0 0 0 0 0 0 0 0 
0 0 0 0 0 0 0 0 0 0 0 0 0 0 0 0 0 0 0 0 0 0 0 0 0 0 0 0 0 0 0 0 0 0 0 0 0 0 0 0 0 0 0 0 0 0 0 0 0 0 0 0 0 0 0 0 0 0 0 0 0 0 0 0 0 0 0 0 0 0 0 0 0 0 0 0 0 0 0 0 0 0 0 0 0 0 0 0 0 0 0 0 0 0 0 0 0 0 0 0 0 0 0 0 0 0 0 0 0 0 0 0 0 0 0 0 0 0 0 0 0 0 0 0 0 0 0 0 
0 0 0 0 0 0 0 0 0 0 0 0 0 0 0 0 0 0 0 0 0 0 0 0 0 0 0 0 0 0 0 0 0 0 0 0 0 0 0 0 0 0 0 0 0 0 0 0 0 0 0 0 0 0 28 66 88 88 88 88 88 88 88 88 88 88 88 88 88 66 25 0 0 0 0 0 0 0 0 0 0 0 0 0 0 0 0 0 0 0 0 0 0 0 0 0 0 0 0 0 0 0 0 0 0 0 0 0 0 0 0 0 0 0 0 0 0 0 0 0 0 0 0 0 0 0 0 0 
0 0 0 0 0 0 0 0 0 0 0 0 0 0 0 0 0 0 0 0 0 0 0 0 0 0 0 0 0 0 0 0 0 0 0 0 0 0 0 0 0 0 0 0 0 0 0 0 0 0 27 88 88 88 88 88 88 88 88 88 75 65 59 76 88 88 88 88 88 88 88 88 88 88 25 0 0 0 0 0 0 0 0 0 0 0 0 0 0 0 0 0 0 0 0 0 0 0 0 0 0 0 0 0 0 0 0 0 0 0 0 0 0 0 0 0 0 0 0 0 0 0 0 0 0 0 0 0 
0 0 0 0 0 0 0 0 0 0 0 0 0 0 0 0 0 0 0 0 0 0 0 0 0 0 0 0 0 0 0 0 0 0 0 0 0 0 0 0 0 0 0 0 0 0 0 0 78 88 88 88 69 37 24 30 36 41 37 34 39 38 43 41 42 41 36 26 34 29 59 68 65 88 88 88 64 0 0 0 0 0 0 0 0 0 0 0 0 0 0 0 0 0 0 0 0 0 0 0 0 0 0 0 0 0 0 0 0 0 0 0 0 0 0 0 0 0 0 0 0 0 0 0 0 0 0 0 
0 0 0 0 0 0 0 0 0 0 0 0 0 0 0 0 0 0 0 0 0 0 0 0 0 0 0 0 0 0 0 0 0 0 0 0 0 0 0 0 0 0 0 0 0 37 88 88 88 40 42 69 39 18 16 21 35 42 46 54 59 57 48 58 51 40 30 20 13 16 20 25 49 34 32 65 88 88 75 0 0 0 0 0 0 0 0 0 0 0 0 0 0 0 0 0 0 0 0 0 0 0 0 0 0 0 0 0 0 0 0 0 0 0 0 0 0 0 0 0 0 0 0 0 0 0 0 0 
0 0 0 0 0 0 0 0 0 0 0 0 0 0 0 0 0 0 0 0 0 0 0 0 0 0 0 0 0 0 0 0 0 0 0 0 0 0 0 0 0 0 0 0 88 88 65 27 41 23 13 24 41 66 46 26 21 21 31 31 40 51 79 68 71 53 33 33 34 41 39 39 25 17 21 40 31 31 88 88 46 0 0 0 0 0 0 0 0 0 0 0 0 0 0 0 0 0 0 0 0 0 0 0 0 0 0 0 0 0 0 0 0 0 0 0 0 0 0 0 0 0 0 0 0 0 0 0 
0 0 0 0 0 0 0 0 0 0 0 0 0 0 0 0 0 0 0 0 0 0 0 0 0 0 0 0 0 0 0 0 0 0 0 0 0 0 0 0 0 0 57 88 79 23 39 18 27 43 51 26 3 0 14 19 13 12 9 4 0 4 34 57 11 1 0 2 4 0 0 0 5 20 37 31 13 34 30 39 88 88 0 0 0 0 0 0 0 0 0 0 0 0 0 0 0 0 0 0 0 0 0 0 0 0 0 0 0 0 0 0 0 0 0 0 0 0 0 0 0 0 0 0 0 0 0 0 
0 0 0 0 0 0 0 0 0 0 0 0 0 0 0 0 0 0 0 0 0 0 0 0 0 0 0 0 0 0 0 0 0 0 0 0 0 0 0 0 0 63 88 49 36 17 41 72 50 11 0 13 33 35 48 59 42 34 33 49 47 21 1 9 0 35 50 52 48 38 29 29 38 33 0 12 40 38 15 36 20 88 88 26 0 0 0 0 0 0 0 0 0 0 0 0 0 0 0 0 0 0 0 0 0 0 0 0 0 0 0 0 0 0 0 0 0 0 0 0 0 0 0 0 0 0 0 0 
0 0 0 0 0 0 0 0 0 0 0 0 0 0 0 0 0 0 0 0 0 0 0 0 0 0 0 0 0 0 0 0 0 0 0 0 0 0 0 0 76 88 33 35 14 73 62 7 2 20 44 43 52 46 55 44 44 48 56 56 56 61 28 0 47 57 60 58 58 54 61 43 36 64 68 38 3 9 47 30 18 42 46 88 46 0 0 0 0 0 0 0 0 0 0 0 0 0 0 0 0 0 0 0 0 0 0 0 0 0 0 0 0 0 0 0 0 0 0 0 0 0 0 0 0 0 0 0 
0 0 0 0 0 0 0 0 0 0 0 0 0 0 0 0 0 0 0 0 0 0 0 0 0 0 0 0 0 0 0 0 0 0 0 0 0 0 0 69 88 31 29 20 76 25 0 26 35 34 43 55 56 57 57 55 55 56 56 60 61 58 38 30 54 57 60 66 62 61 58 58 44 50 23 36 46 37 0 15 31 0 47 28 88 56 0 0 0 0 0 0 0 0 0 0 0 0 0 0 0 0 0 0 0 0 0 0 0 0 0 0 0 0 0 0 0 0 0 0 0 0 0 0 0 0 0 0 
0 0 0 0 0 0 0 0 0 0 0 0 0 0 0 0 0 0 0 0 0 0 0 0 0 0 0 0 0 0 0 0 0 0 0 0 0 0 43 88 31 27 28 65 0 13 33 36 39 38 52 57 61 59 61 61 58 59 60 65 57 55 44 34 57 58 62 64 66 62 64 60 49 32 48 53 31 37 56 23 0 20 1 42 30 88 38 0 0 0 0 0 0 0 0 0 0 0 0 0 0 0 0 0 0 0 0 0 0 0 0 0 0 0 0 0 0 0 0 0 0 0 0 0 0 0 0 0 
0 0 0 0 0 0 0 0 0 0 0 0 0 0 0 0 0 0 0 0 0 0 0 0 0 0 0 0 0 0 0 0 0 0 0 0 0 0 88 45 33 26 57 0 23 26 38 53 52 49 42 58 61 61 55 62 60 58 67 61 57 53 43 30 58 57 55 60 67 64 65 59 52 47 58 57 58 48 55 34 37 13 12 0 37 30 88 17 0 0 0 0 0 0 0 0 0 0 0 0 0 0 0 0 0 0 0 0 0 0 0 0 0 0 0 0 0 0 0 0 0 0 0 0 0 0 0 0 
0 0 0 0 0 0 0 0 0 0 0 0 0 0 0 0 0 0 0 0 0 0 0 0 0 0 0 0 0 0 0 0 0 0 0 0 0 88 76 32 11 47 0 39 57 50 43 56 57 57 52 50 59 59 61 59 63 67 63 57 56 57 46 31 64 56 56 57 65 67 66 60 52 53 60 60 59 60 51 34 34 35 11 12 2 37 56 88 0 0 0 0 0 0 0 0 0 0 0 0 0 0 0 0 0 0 0 0 0 0 0 0 0 0 0 0 0 0 0 0 0 0 0 0 0 0 0 0 
0 0 0 0 0 0 0 0 0 0 0 0 0 0 0 0 0 0 0 0 0 0 0 0 0 0 0 0 0 0 0 0 0 0 0 0 72 88 37 2 43 0 44 69 64 52 40 59 57 59 59 57 61 63 61 64 67 65 61 49 58 56 47 37 55 61 61 61 62 69 65 61 57 57 63 61 60 59 46 42 53 58 61 8 22 0 39 88 88 0 0 0 0 0 0 0 0 0 0 0 0 0 0 0 0 0 0 0 0 0 0 0 0 0 0 0 0 0 0 0 0 0 0 0 0 0 0 0 
0 0 0 0 0 0 0 0 0 0 0 0 0 0 0 0 0 0 0 0 0 0 0 0 0 0 0 0 0 0 0 0 0 0 0 0 88 37 15 24 5 18 55 37 47 43 47 55 57 60 62 67 64 66 67 68 67 59 56 56 58 57 44 38 56 59 58 55 61 66 70 70 62 63 67 59 59 57 50 56 59 59 59 56 0 30 0 34 88 42 0 0 0 0 0 0 0 0 0 0 0 0 0 0 0 0 0 0 0 0 0 0 0 0 0 0 0 0 0 0 0 0 0 0 0 0 0 0 
0 0 0 0 0 0 0 0 0 0 0 0 0 0 0 0 0 0 0 0 0 0 0 0 0 0 0 0 0 0 0 0 0 0 0 88 76 37 5 15 13 49 42 44 53 51 52 53 56 59 62 66 69 67 66 68 61 58 60 57 55 53 40 35 56 56 61 58 59 63 66 69 70 69 63 56 58 60 60 53 60 65 62 60 35 11 29 22 45 88 0 0 0 0 0 0 0 0 0 0 0 0 0 0 0 0 0 0 0 0 0 0 0 0 0 0 0 0 0 0 0 0 0 0 0 0 0 0 
0 0 0 0 0 0 0 0 0 0 0 0 0 0 0 0 0 0 0 0 0 0 0 0 0 0 0 0 0 0 0 0 0 0 36 88 37 1 31 1 47 49 48 46 55 58 52 52 59 58 62 64 67 67 68 64 57 61 58 49 41 34 34 79 51 51 57 56 62 61 71 70 68 71 60 61 61 61 56 57 64 67 61 58 60 3 65 0 33 88 88 0 0 0 0 0 0 0 0 0 0 0 0 0 0 0 0 0 0 0 0 0 0 0 0 0 0 0 0 0 0 0 0 0 0 0 0 0 
0 0 0 0 0 0 0 0 0 0 0 0 0 0 0 0 0 0 0 0 0 0 0 0 0 0 0 0 0 0 0 0 0 0 88 48 20 18 14 20 55 56 55 58 46 58 56 53 54 59 59 63 67 66 66 62 60 54 56 56 52 49 46 66 60 60 57 59 57 59 64 69 71 67 63 63 62 60 58 60 67 62 58 62 60 34 3 56 4 43 88 25 0 0 0 0 0 0 0 0 0 0 0 0 0 0 0 0 0 0 0 0 0 0 0 0 0 0 0 0 0 0 0 0 0 0 0 0 
0 0 0 0 0 0 0 0 0 0 0 0 0 0 0 0 0 0 0 0 0 0 0 0 0 0 0 0 0 0 0 0 0 49 88 31 0 64 0 59 51 56 58 56 56 54 56 56 55 57 60 63 67 67 70 63 60 58 54 53 59 57 73 58 59 64 63 62 62 61 64 70 70 69 63 65 61 63 60 68 67 61 58 58 59 50 3 33 19 31 70 88 0 0 0 0 0 0 0 0 0 0 0 0 0 0 0 0 0 0 0 0 0 0 0 0 0 0 0 0 0 0 0 0 0 0 0 0 
0 0 0 0 0 0 0 0 0 0 0 0 0 0 0 0 0 0 0 0 0 0 0 0 0 0 0 0 0 0 0 0 0 88 51 13 41 15 29 54 56 58 58 58 57 60 56 52 58 55 60 64 67 68 67 67 61 60 50 55 59 57 61 55 61 61 61 66 68 68 65 70 70 72 67 65 64 62 63 67 65 62 59 58 57 60 40 0 57 6 28 88 27 0 0 0 0 0 0 0 0 0 0 0 0 0 0 0 0 0 0 0 0 0 0 0 0 0 0 0 0 0 0 0 0 0 0 0 
0 0 0 0 0 0 0 0 0 0 0 0 0 0 0 0 0 0 0 0 0 0 0 0 0 0 0 0 0 0 0 0 43 88 34 3 41 0 45 54 57 57 59 56 61 60 58 55 56 57 60 64 70 69 69 69 61 54 56 59 65 56 56 46 56 56 55 60 63 70 71 71 74 71 68 67 69 65 67 66 63 59 58 64 56 53 66 11 28 30 20 84 88 0 0 0 0 0 0 0 0 0 0 0 0 0 0 0 0 0 0 0 0 0 0 0 0 0 0 0 0 0 0 0 0 0 0 0 
0 0 0 0 0 0 0 0 0 0 0 0 0 0 0 0 0 0 0 0 0 0 0 0 0 0 0 0 0 0 0 0 88 70 12 44 8 29 54 55 55 59 57 59 59 59 59 60 60 55 56 67 66 69 67 68 67 63 64 66 63 57 54 58 58 58 57 53 59 65 70 73 71 73 73 69 67 67 69 65 61 63 59 45 63 59 56 49 0 47 8 41 88 20 0 0 0 0 0 0 0 0 0 0 0 0 0 0 0 0 0 0 0 0 0 0 0 0 0 0 0 0 0 0 0 0 0 0 
0 0 0 0 0 0 0 0 0 0 0 0 0 0 0 0 0 0 0 0 0 0 0 0 0 0 0 0 0 0 0 0 88 31 14 51 0 55 56 59 60 60 63 63 66 65 65 65 63 59 58 67 71 68 71 68 69 69 71 63 61 57 55 57 60 60 58 59 56 61 70 71 74 74 73 73 71 71 67 62 58 56 57 61 57 59 63 65 25 16 16 31 88 88 0 0 0 0 0 0 0 0 0 0 0 0 0 0 0 0 0 0 0 0 0 0 0 0 0 0 0 0 0 0 0 0 0 0 
0 0 0 0 0 0 0 0 0 0 0 0 0 0 0 0 0 0 0 0 0 0 0 0 0 0 0 0 0 0 0 69 88 19 31 22 13 57 57 58 64 65 65 65 65 67 67 68 69 67 68 68 69 68 71 69 69 61 58 59 58 57 67 55 63 64 61 60 60 62 70 73 75 72 72 70 73 71 66 63 59 59 58 63 61 59 58 59 59 0 18 46 42 88 16 0 0 0 0 0 0 0 0 0 0 0 0 0 0 0 0 0 0 0 0 0 0 0 0 0 0 0 0 0 0 0 0 0 
0 0 0 0 0 0 0 0 0 0 0 0 0 0 0 0 0 0 0 0 0 0 0 0 0 0 0 0 0 0 0 88 19 44 19 1 43 49 51 53 58 59 61 64 65 66 67 68 69 70 68 70 72 70 69 70 60 57 56 58 57 30 30 57 60 68 64 65 63 70 71 73 78 74 75 75 72 72 71 66 62 63 64 61 62 62 63 62 64 23 13 33 41 88 79 0 0 0 0 0 0 0 0 0 0 0 0 0 0 0 0 0 0 0 0 0 0 0 0 0 0 0 0 0 0 0 0 0 
0 0 0 0 0 0 0 0 0 0 0 0 0 0 0 0 0 0 0 0 0 0 0 0 0 0 0 0 0 0 53 88 31 41 2 32 57 59 58 53 51 59 59 60 62 65 67 70 70 69 70 71 69 70 70 68 64 56 55 58 57 56 33 58 58 67 69 72 71 71 72 74 77 75 76 74 75 73 72 69 67 64 65 64 66 64 63 63 59 46 0 21 62 52 88 0 0 0 0 0 0 0 0 0 0 0 0 0 0 0 0 0 0 0 0 0 0 0 0 0 0 0 0 0 0 0 0 0 
0 0 0 0 0 0 0 0 0 0 0 0 0 0 0 0 0 0 0 0 0 0 0 0 0 0 0 0 0 0 88 48 57 31 0 43 57 62 59 60 58 56 57 60 63 67 67 68 68 69 71 71 71 70 69 69 70 66 63 65 58 51 23 63 58 66 70 71 74 72 71 76 78 76 76 76 72 70 72 72 69 67 63 65 63 63 62 61 58 57 7 13 59 31 88 57 0 0 0 0 0 0 0 0 0 0 0 0 0 0 0 0 0 0 0 0 0 0 0 0 0 0 0 0 0 0 0 0 
0 0 0 0 0 0 0 0 0 0 0 0 0 0 0 0 0 0 0 0 0 0 0 0 0 0 0 0 0 40 88 27 61 18 13 58 57 62 63 64 63 62 62 65 65 67 68 68 70 72 72 72 69 70 69 68 69 68 69 66 62 60 13 37 57 58 67 71 71 72 74 75 75 75 74 76 73 72 74 71 71 67 67 64 65 63 61 60 61 63 21 5 51 50 76 88 0 0 0 0 0 0 0 0 0 0 0 0 0 0 0 0 0 0 0 0 0 0 0 0 0 0 0 0 0 0 0 0 
0 0 0 0 0 0 0 0 0 0 0 0 0 0 0 0 0 0 0 0 0 0 0 0 0 0 0 0 0 88 62 63 51 9 32 58 61 61 61 64 63 64 68 67 67 65 69 68 69 67 72 68 72 72 71 69 66 68 68 68 68 69 59 58 66 69 70 70 71 74 73 72 71 72 74 76 74 73 72 71 70 70 69 66 63 63 64 63 63 63 36 0 48 62 39 88 20 0 0 0 0 0 0 0 0 0 0 0 0 0 0 0 0 0 0 0 0 0 0 0 0 0 0 0 0 0 0 0 
0 0 0 0 0 0 0 0 0 0 0 0 0 0 0 0 0 0 0 0 0 0 0 0 0 0 0 0 20 88 24 56 56 0 51 56 61 58 57 61 61 62 63 62 65 67 70 68 69 67 71 72 72 74 66 70 68 70 66 68 67 70 71 68 70 69 68 71 71 72 74 68 75 73 74 76 74 72 72 72 72 66 70 68 66 64 64 60 62 62 50 3 35 57 36 88 83 0 0 0 0 0 0 0 0 0 0 0 0 0 0 0 0 0 0 0 0 0 0 0 0 0 0 0 0 0 0 0 
0 0 0 0 0 0 0 0 0 0 0 0 0 0 0 0 0 0 0 0 0 0 0 0 0 0 0 0 88 88 46 52 41 5 60 57 65 54 46 54 48 59 59 60 63 61 61 65 67 70 69 70 67 73 59 57 70 69 70 66 69 71 67 68 69 70 70 70 69 74 73 75 70 75 77 75 73 72 69 67 67 64 67 69 67 67 69 63 60 60 56 9 20 54 66 49 88 0 0 0 0 0 0 0 0 0 0 0 0 0 0 0 0 0 0 0 0 0 0 0 0 0 0 0 0 0 0 0 
0 0 0 0 0 0 0 0 0 0 0 0 0 0 0 0 0 0 0 0 0 0 0 0 0 0 0 0 88 38 62 51 26 14 60 61 59 56 57 63 56 54 50 57 58 60 59 61 64 69 68 73 71 62 21 25 30 61 71 70 69 69 70 70 71 70 68 72 70 43 26 61 77 78 77 74 71 70 65 63 61 63 63 64 67 68 67 64 60 63 60 19 9 58 66 31 88 19 0 0 0 0 0 0 0 0 0 0 0 0 0 0 0 0 0 0 0 0 0 0 0 0 0 0 0 0 0 0 
0 0 0 0 0 0 0 0 0 0 0 0 0 0 0 0 0 0 0 0 0 0 0 0 0 0 0 42 88 35 57 60 13 24 57 60 63 61 60 59 61 60 57 53 53 52 59 61 65 68 69 70 71 58 21 26 26 25 54 71 71 70 71 69 68 68 69 55 28 25 28 37 78 75 73 74 71 68 64 63 59 60 60 62 62 67 65 64 64 63 62 31 6 59 54 44 88 64 0 0 0 0 0 0 0 0 0 0 0 0 0 0 0 0 0 0 0 0 0 0 0 0 0 0 0 0 0 0 
0 0 0 0 0 0 0 0 0 0 0 0 0 0 0 0 0 0 0 0 0 0 0 0 0 0 0 88 73 58 49 59 11 21 59 60 61 62 63 65 63 62 60 57 57 56 59 60 66 69 70 67 70 74 40 25 26 28 26 53 70 63 58 62 67 62 44 30 29 27 20 61 76 75 73 72 72 65 65 62 63 58 59 61 62 63 67 65 64 61 60 35 4 58 53 59 64 88 0 0 0 0 0 0 0 0 0 0 0 0 0 0 0 0 0 0 0 0 0 0 0 0 0 0 0 0 0 0 
0 0 0 0 0 0 0 0 0 0 0 0 0 0 0 0 0 0 0 0 0 0 0 0 0 0 0 88 32 67 51 59 5 19 59 59 63 61 60 60 59 60 60 56 55 57 61 61 67 70 68 69 69 61 66 62 34 24 26 28 59 56 44 47 61 47 29 30 25 41 64 68 67 77 72 74 71 65 66 63 55 58 61 58 60 60 66 69 63 61 60 43 0 53 52 70 35 88 0 0 0 0 0 0 0 0 0 0 0 0 0 0 0 0 0 0 0 0 0 0 0 0 0 0 0 0 0 0 
0 0 0 0 0 0 0 0 0 0 0 0 0 0 0 0 0 0 0 0 0 0 0 0 0 0 50 88 33 58 54 62 5 15 54 58 58 58 55 60 62 60 54 56 60 51 63 63 67 70 69 68 66 65 63 62 64 51 26 29 32 58 42 37 62 31 29 27 58 68 65 70 67 67 75 71 74 69 64 63 54 59 53 54 54 62 64 67 63 63 60 41 0 52 59 58 35 88 52 0 0 0 0 0 0 0 0 0 0 0 0 0 0 0 0 0 0 0 0 0 0 0 0 0 0 0 0 0 
0 0 0 0 0 0 0 0 0 0 0 0 0 0 0 0 0 0 0 0 0 0 0 0 0 0 88 74 55 51 46 62 8 19 33 43 45 51 59 62 62 62 57 58 53 52 63 62 68 69 71 67 66 64 68 64 64 64 53 27 22 55 35 40 51 27 31 64 64 66 63 67 68 69 71 74 72 72 63 62 55 55 59 51 50 62 64 66 66 63 60 36 3 75 68 52 60 74 88 0 0 0 0 0 0 0 0 0 0 0 0 0 0 0 0 0 0 0 0 0 0 0 0 0 0 0 0 0 
0 0 0 0 0 0 0 0 0 0 0 0 0 0 0 0 0 0 0 0 0 0 0 0 0 0 88 35 62 53 56 34 2 21 40 40 49 56 60 60 58 57 55 63 52 61 63 65 67 71 68 67 64 68 64 65 62 63 64 35 24 45 33 46 43 24 49 63 69 67 67 69 68 71 69 74 71 70 64 64 61 56 58 65 63 50 60 63 64 61 63 40 7 34 50 58 61 38 88 0 0 0 0 0 0 0 0 0 0 0 0 0 0 0 0 0 0 0 0 0 0 0 0 0 0 0 0 0 
0 0 0 0 0 0 0 0 0 0 0 0 0 0 0 0 0 0 0 0 0 0 0 0 0 31 88 34 56 52 55 25 16 27 51 64 59 52 57 57 59 64 54 38 54 61 64 67 69 70 68 65 67 67 66 66 65 66 64 52 25 39 34 46 36 29 62 66 67 63 66 68 67 71 71 69 71 69 66 65 64 64 64 55 68 49 49 62 61 60 63 29 14 28 57 62 51 30 88 27 0 0 0 0 0 0 0 0 0 0 0 0 0 0 0 0 0 0 0 0 0 0 0 0 0 0 0 0 
0 0 0 0 0 0 0 0 0 0 0 0 0 0 0 0 0 0 0 0 0 0 0 0 0 83 88 53 50 51 56 22 19 21 64 46 54 58 57 61 57 59 53 44 58 57 63 63 73 68 67 69 67 69 66 64 64 63 62 58 30 34 39 46 29 36 68 67 65 71 69 73 70 72 71 68 69 73 70 70 69 66 61 63 25 41 47 39 49 50 38 29 13 25 55 55 52 46 88 84 0 0 0 0 0 0 0 0 0 0 0 0 0 0 0 0 0 0 0 0 0 0 0 0 0 0 0 0 
0 0 0 0 0 0 0 0 0 0 0 0 0 0 0 0 0 0 0 0 0 0 0 0 0 88 55 64 52 51 37 25 13 20 58 52 62 57 60 60 62 60 59 56 59 58 60 66 70 68 68 69 67 72 70 65 67 64 61 60 33 35 48 50 27 37 68 66 66 68 72 68 68 70 69 68 67 70 69 63 60 62 62 53 36 49 60 55 55 72 35 38 0 23 46 49 53 62 51 88 0 0 0 0 0 0 0 0 0 0 0 0 0 0 0 0 0 0 0 0 0 0 0 0 0 0 0 0 
0 0 0 0 0 0 0 0 0 0 0 0 0 0 0 0 0 0 0 0 0 0 0 0 0 88 33 61 58 52 27 23 9 51 59 59 64 66 63 60 61 57 58 58 56 60 60 67 68 67 68 66 70 69 66 70 64 66 63 51 32 30 53 53 26 35 68 66 67 70 69 71 68 67 71 68 67 68 70 63 62 58 55 51 59 64 60 58 60 67 49 58 11 19 33 54 54 60 39 88 0 0 0 0 0 0 0 0 0 0 0 0 0 0 0 0 0 0 0 0 0 0 0 0 0 0 0 0 
0 0 0 0 0 0 0 0 0 0 0 0 0 0 0 0 0 0 0 0 0 0 0 0 39 88 28 78 58 46 21 3 32 57 49 56 61 63 61 59 56 54 58 57 58 60 68 70 66 67 67 67 66 65 68 67 72 65 63 39 30 37 57 62 30 26 60 64 70 72 79 70 72 69 68 68 67 69 67 66 61 63 62 55 58 61 64 65 56 49 66 54 43 8 16 57 57 55 43 88 43 0 0 0 0 0 0 0 0 0 0 0 0 0 0 0 0 0 0 0 0 0 0 0 0 0 0 0 
0 0 0 0 0 0 0 0 0 0 0 0 0 0 0 0 0 0 0 0 0 0 0 0 76 88 50 55 54 44 13 50 43 33 44 50 52 59 62 50 44 49 57 58 62 61 67 68 68 64 66 65 66 66 67 66 69 69 63 33 31 45 67 66 38 27 47 69 71 73 68 72 71 67 68 69 68 71 70 68 67 65 61 59 56 64 65 61 56 43 47 29 39 31 7 47 56 50 49 88 80 0 0 0 0 0 0 0 0 0 0 0 0 0 0 0 0 0 0 0 0 0 0 0 0 0 0 0 
0 0 0 0 0 0 0 0 0 0 0 0 0 0 0 0 0 0 0 0 0 0 0 0 88 71 57 49 56 34 11 21 38 51 56 57 56 46 58 59 39 46 53 62 59 64 66 69 69 63 63 67 67 70 68 66 71 71 60 51 32 53 69 73 45 27 52 56 76 70 69 71 68 67 67 70 71 67 70 67 66 63 64 61 57 68 61 59 44 57 59 60 31 54 13 31 54 60 56 56 88 0 0 0 0 0 0 0 0 0 0 0 0 0 0 0 0 0 0 0 0 0 0 0 0 0 0 0 
0 0 0 0 0 0 0 0 0 0 0 0 0 0 0 0 0 0 0 0 0 0 0 0 88 64 66 50 43 41 7 25 42 51 63 54 38 41 59 59 55 51 50 58 61 61 64 69 69 68 67 65 68 65 68 68 67 71 70 65 44 50 42 58 51 45 63 68 72 74 72 70 70 69 64 67 72 68 69 68 66 62 62 53 56 65 65 58 57 54 54 52 16 49 8 21 52 57 53 32 88 0 0 0 0 0 0 0 0 0 0 0 0 0 0 0 0 0 0 0 0 0 0 0 0 0 0 0 
0 0 0 0 0 0 0 0 0 0 0 0 0 0 0 0 0 0 0 0 0 0 0 20 88 36 57 56 26 44 0 31 47 52 58 51 44 57 57 56 54 54 60 58 59 67 68 66 67 65 70 67 67 66 68 68 66 69 71 68 51 34 34 34 37 49 66 72 72 73 70 70 71 69 66 68 66 72 67 68 63 61 54 42 48 61 65 61 58 61 55 63 46 25 13 11 45 54 55 52 88 32 0 0 0 0 0 0 0 0 0 0 0 0 0 0 0 0 0 0 0 0 0 0 0 0 0 0 
0 0 0 0 0 0 0 0 0 0 0 0 0 0 0 0 0 0 0 0 0 0 0 52 88 38 51 58 20 29 0 47 53 59 59 58 58 57 57 58 51 57 57 62 64 66 65 69 65 67 67 69 68 66 68 69 72 69 68 70 73 47 32 31 44 72 70 71 72 74 70 67 68 69 67 68 67 67 69 70 67 64 60 57 34 63 64 67 63 49 59 50 58 39 18 15 31 60 61 44 88 60 0 0 0 0 0 0 0 0 0 0 0 0 0 0 0 0 0 0 0 0 0 0 0 0 0 0 
0 0 0 0 0 0 0 0 0 0 0 0 0 0 0 0 0 0 0 0 0 0 0 64 88 46 53 49 27 8 16 84 48 61 60 61 59 59 60 59 53 53 58 59 58 62 69 66 67 65 65 65 67 67 69 68 70 69 69 68 67 64 32 31 66 68 75 72 72 72 74 70 68 67 70 71 72 70 69 68 67 67 63 58 58 55 62 60 65 71 45 61 60 53 22 11 24 58 54 47 63 88 0 0 0 0 0 0 0 0 0 0 0 0 0 0 0 0 0 0 0 0 0 0 0 0 0 0 
0 0 0 0 0 0 0 0 0 0 0 0 0 0 0 0 0 0 0 0 0 0 0 67 88 45 58 42 28 4 19 37 55 56 60 62 62 63 62 58 63 15 44 57 56 60 67 70 70 65 70 67 66 67 71 69 71 65 68 66 66 64 36 38 63 70 69 68 69 71 71 70 67 67 68 71 69 71 61 68 67 64 64 56 58 46 55 63 61 51 62 63 62 60 26 7 19 47 52 52 73 88 0 0 0 0 0 0 0 0 0 0 0 0 0 0 0 0 0 0 0 0 0 0 0 0 0 0 
0 0 0 0 0 0 0 0 0 0 0 0 0 0 0 0 0 0 0 0 0 0 0 84 88 45 65 39 13 3 32 53 54 60 60 66 63 64 63 60 57 18 33 59 58 63 67 70 70 68 69 67 66 68 69 69 70 67 66 68 66 64 53 55 62 68 70 67 70 71 68 71 69 68 69 69 71 69 67 69 63 59 60 64 45 46 49 67 55 60 65 64 60 58 27 4 21 40 49 56 56 88 22 0 0 0 0 0 0 0 0 0 0 0 0 0 0 0 0 0 0 0 0 0 0 0 0 0 
0 0 0 0 0 0 0 0 0 0 0 0 0 0 0 0 0 0 0 0 0 0 0 88 88 48 59 26 2 23 52 61 60 57 63 64 63 61 68 61 59 30 40 60 60 64 67 69 67 69 67 67 70 68 68 68 67 67 65 66 67 64 57 56 68 66 69 68 70 69 69 70 71 69 69 70 66 69 68 70 62 59 61 42 24 8 48 62 63 64 64 63 60 51 26 2 24 26 55 57 45 88 34 0 0 0 0 0 0 0 0 0 0 0 0 0 0 0 0 0 0 0 0 0 0 0 0 0 
0 0 0 0 0 0 0 0 0 0 0 0 0 0 0 0 0 0 0 0 0 0 0 88 67 52 59 18 1 34 55 60 63 59 60 63 64 64 63 64 61 32 50 60 62 66 68 70 66 69 67 67 68 67 66 67 67 68 68 68 68 64 52 56 65 68 66 68 67 68 70 67 68 70 70 67 69 68 69 70 65 63 62 59 18 53 63 65 66 68 63 62 61 59 53 0 17 18 62 57 35 88 39 0 0 0 0 0 0 0 0 0 0 0 0 0 0 0 0 0 0 0 0 0 0 0 0 0 
0 0 0 0 0 0 0 0 0 0 0 0 0 0 0 0 0 0 0 0 0 0 0 88 36 57 57 8 4 43 54 60 66 64 63 62 64 62 65 62 60 48 58 57 60 63 69 67 69 68 69 69 65 66 68 66 67 67 67 69 66 64 35 44 64 69 68 68 68 67 69 69 68 68 72 68 67 68 69 71 66 63 62 60 44 58 62 68 71 67 65 62 65 60 53 19 6 7 76 62 41 88 43 0 0 0 0 0 0 0 0 0 0 0 0 0 0 0 0 0 0 0 0 0 0 0 0 0 
0 0 0 0 0 0 0 0 0 0 0 0 0 0 0 0 0 0 0 0 0 0 22 88 44 54 60 13 11 44 54 60 62 66 66 65 67 67 63 64 63 56 57 49 55 61 67 69 72 67 67 61 63 66 66 67 68 68 67 68 65 63 26 35 66 63 65 68 67 70 69 71 64 65 65 72 69 71 69 69 65 64 62 59 51 62 67 68 69 71 69 68 61 65 60 50 0 8 52 53 35 88 49 0 0 0 0 0 0 0 0 0 0 0 0 0 0 0 0 0 0 0 0 0 0 0 0 0 
0 0 0 0 0 0 0 0 0 0 0 0 0 0 0 0 0 0 0 0 0 0 31 88 42 62 34 7 12 49 61 62 63 66 65 62 67 67 67 63 64 60 47 47 53 60 66 68 69 69 63 62 60 65 66 66 67 66 66 67 65 62 24 34 65 63 67 68 66 67 67 72 68 63 62 71 68 68 69 69 65 63 60 61 54 64 64 69 70 66 68 65 63 63 60 62 0 5 43 51 34 88 54 0 0 0 0 0 0 0 0 0 0 0 0 0 0 0 0 0 0 0 0 0 0 0 0 0 
0 0 0 0 0 0 0 0 0 0 0 0 0 0 0 0 0 0 0 0 0 0 43 88 31 88 33 14 11 44 60 61 63 63 60 61 64 65 65 65 64 68 62 55 59 60 65 70 68 70 71 67 65 63 69 64 67 66 66 67 65 63 25 29 66 66 67 67 67 65 69 68 64 64 64 68 72 69 71 69 62 60 59 56 61 66 69 69 64 64 66 65 62 66 62 62 7 6 38 56 36 88 59 0 0 0 0 0 0 0 0 0 0 0 0 0 0 0 0 0 0 0 0 0 0 0 0 0 
0 0 0 0 0 0 0 0 0 0 0 0 0 0 0 0 0 0 0 0 0 0 55 88 36 73 19 13 13 39 57 59 63 63 63 55 62 62 62 65 66 66 65 62 57 61 66 69 70 70 70 66 63 68 68 67 66 67 67 68 65 61 33 32 65 67 68 68 66 69 68 65 68 67 68 72 71 68 70 67 61 57 53 58 64 70 68 69 66 65 65 67 63 62 60 58 12 8 27 59 36 88 66 0 0 0 0 0 0 0 0 0 0 0 0 0 0 0 0 0 0 0 0 0 0 0 0 0 
0 0 0 0 0 0 0 0 0 0 0 0 0 0 0 0 0 0 0 0 0 0 59 88 41 65 21 12 15 26 55 57 59 63 61 63 61 57 63 61 65 68 70 66 64 66 69 69 71 68 69 68 68 67 67 68 66 65 68 69 68 61 35 33 63 66 69 70 66 69 67 69 73 70 72 69 69 67 69 70 61 61 60 65 67 68 66 64 63 64 65 63 60 61 62 58 25 8 19 63 39 88 71 0 0 0 0 0 0 0 0 0 0 0 0 0 0 0 0 0 0 0 0 0 0 0 0 0 
0 0 0 0 0 0 0 0 0 0 0 0 0 0 0 0 0 0 0 0 0 0 70 88 45 63 14 6 15 27 48 52 56 63 62 61 61 58 55 57 63 63 68 70 68 70 70 68 69 71 71 70 68 70 68 67 67 66 64 68 69 61 35 37 61 69 67 65 65 70 66 68 69 66 70 70 68 69 70 69 65 63 65 66 68 63 62 63 62 62 63 60 53 54 64 52 36 3 19 70 35 88 80 0 0 0 0 0 0 0 0 0 0 0 0 0 0 0 0 0 0 0 0 0 0 0 0 0 
0 0 0 0 0 0 0 0 0 0 0 0 0 0 0 0 0 0 0 0 0 0 74 88 44 73 14 1 22 36 38 64 58 55 54 53 53 54 55 65 60 63 63 70 70 66 68 67 70 67 69 68 67 71 70 69 70 67 67 68 66 61 51 52 66 67 66 67 64 67 70 66 70 71 69 67 71 68 68 68 67 68 68 67 66 62 61 54 57 52 60 59 64 65 62 58 50 1 7 50 38 88 88 0 0 0 0 0 0 0 0 0 0 0 0 0 0 0 0 0 0 0 0 0 0 0 0 0 
0 0 0 0 0 0 0 0 0 0 0 0 0 0 0 0 0 0 0 0 0 0 79 88 51 67 16 0 33 41 54 55 56 61 58 60 56 59 56 59 60 63 66 70 71 67 68 70 70 67 69 70 71 70 70 68 66 68 68 64 64 63 54 57 63 66 66 67 66 64 69 69 69 66 72 66 70 72 69 70 69 71 71 65 64 65 64 62 64 60 61 58 62 64 61 58 60 6 4 42 54 81 88 0 0 0 0 0 0 0 0 0 0 0 0 0 0 0 0 0 0 0 0 0 0 0 0 0 
0 0 0 0 0 0 0 0 0 0 0 0 0 0 0 0 0 0 0 0 0 0 81 88 24 64 18 1 36 51 61 61 61 63 61 61 58 60 59 57 58 60 71 69 68 68 71 63 69 72 72 71 68 70 64 66 66 63 70 62 64 63 60 59 65 63 64 67 69 67 71 71 71 67 72 69 71 71 70 66 67 68 73 66 64 60 58 64 63 54 58 58 60 60 60 58 59 18 4 40 48 88 88 0 0 0 0 0 0 0 0 0 0 0 0 0 0 0 0 0 0 0 0 0 0 0 0 0 
0 0 0 0 0 0 0 0 0 0 0 0 0 0 0 0 0 0 0 0 0 0 88 88 43 52 14 4 46 55 61 62 60 62 64 67 61 61 61 59 59 60 69 70 71 74 71 55 53 62 74 71 66 66 53 49 14 48 61 66 66 65 63 66 64 62 67 57 56 63 62 68 67 67 73 66 72 66 57 66 68 66 72 67 64 62 63 63 63 66 58 51 48 55 58 61 60 24 3 43 41 88 83 0 0 0 0 0 0 0 0 0 0 0 0 0 0 0 0 0 0 0 0 0 0 0 0 0 
0 0 0 0 0 0 0 0 0 0 0 0 0 0 0 0 0 0 0 0 0 0 75 88 40 60 19 4 46 55 60 59 63 61 64 63 62 66 65 61 63 61 68 68 71 72 58 52 65 54 67 67 63 62 48 34 20 31 51 65 63 61 57 51 64 60 61 50 24 42 59 65 70 64 57 63 63 63 56 69 70 66 71 68 63 63 64 63 63 61 63 60 61 47 56 59 59 29 1 45 38 88 74 0 0 0 0 0 0 0 0 0 0 0 0 0 0 0 0 0 0 0 0 0 0 0 0 0 
0 0 0 0 0 0 0 0 0 0 0 0 0 0 0 0 0 0 0 0 0 0 76 88 86 54 20 0 39 55 58 60 59 64 63 66 68 62 67 66 61 64 71 67 72 69 41 32 72 64 52 67 64 64 63 57 30 19 38 56 62 60 48 49 58 60 51 34 31 33 52 49 51 57 65 66 55 63 61 66 72 67 67 71 62 63 56 60 58 56 59 56 54 63 53 62 60 31 1 43 39 88 66 0 0 0 0 0 0 0 0 0 0 0 0 0 0 0 0 0 0 0 0 0 0 0 0 0 
0 0 0 0 0 0 0 0 0 0 0 0 0 0 0 0 0 0 0 0 0 0 64 88 88 50 28 0 36 55 63 58 63 65 66 63 65 63 67 67 72 71 73 69 74 51 45 47 64 58 49 62 60 63 63 65 57 32 35 35 47 47 41 36 48 44 39 28 33 46 64 59 61 60 62 60 61 79 39 46 68 71 67 71 61 59 55 60 57 60 60 60 58 59 54 64 59 28 0 43 45 88 56 0 0 0 0 0 0 0 0 0 0 0 0 0 0 0 0 0 0 0 0 0 0 0 0 0 
0 0 0 0 0 0 0 0 0 0 0 0 0 0 0 0 0 0 0 0 0 0 60 88 88 49 37 0 32 54 62 59 59 65 65 68 66 65 67 68 69 73 70 74 69 30 46 68 88 49 34 58 60 61 59 68 64 60 29 39 37 45 34 34 39 42 30 38 29 68 66 65 64 62 56 60 52 71 45 42 57 75 68 70 68 64 64 64 64 63 63 60 61 61 53 58 62 27 0 42 47 88 46 0 0 0 0 0 0 0 0 0 0 0 0 0 0 0 0 0 0 0 0 0 0 0 0 0 
0 0 0 0 0 0 0 0 0 0 0 0 0 0 0 0 0 0 0 0 0 0 41 88 88 46 41 0 20 50 62 63 61 61 63 63 69 71 71 71 72 72 72 72 57 32 38 71 69 56 40 43 64 62 65 68 67 65 46 35 36 38 28 29 37 34 29 42 50 67 66 69 64 62 65 61 29 71 72 46 50 74 73 71 71 69 65 66 69 68 67 65 62 59 55 50 59 20 3 36 50 88 40 0 0 0 0 0 0 0 0 0 0 0 0 0 0 0 0 0 0 0 0 0 0 0 0 0 
0 0 0 0 0 0 0 0 0 0 0 0 0 0 0 0 0 0 0 0 0 0 35 88 88 54 66 0 15 41 62 60 63 62 62 64 67 69 71 70 73 74 70 77 52 39 44 45 52 66 53 50 62 71 68 69 70 63 60 40 33 39 67 27 30 35 35 49 54 65 63 68 66 65 67 51 54 83 85 27 45 72 72 70 71 70 71 69 69 67 67 64 62 58 61 63 50 13 9 37 38 88 37 0 0 0 0 0 0 0 0 0 0 0 0 0 0 0 0 0 0 0 0 0 0 0 0 0 
0 0 0 0 0 0 0 0 0 0 0 0 0 0 0 0 0 0 0 0 0 0 23 84 88 78 59 0 12 23 61 60 62 63 62 60 63 69 70 72 74 72 71 73 56 41 47 51 50 54 55 58 65 66 70 67 67 56 50 39 30 29 38 41 32 27 40 45 57 58 64 65 72 65 62 63 60 70 51 43 45 65 72 70 71 72 68 71 68 67 68 69 66 61 60 59 61 11 11 33 66 88 34 0 0 0 0 0 0 0 0 0 0 0 0 0 0 0 0 0 0 0 0 0 0 0 0 0 
0 0 0 0 0 0 0 0 0 0 0 0 0 0 0 0 0 0 0 0 0 0 0 79 88 88 49 8 11 9 53 59 62 63 59 62 63 68 73 70 72 73 68 75 62 49 51 54 55 58 59 61 61 67 65 66 61 60 64 46 27 30 39 46 47 42 47 59 65 67 67 61 65 68 64 60 61 58 49 51 58 63 75 71 72 74 72 71 68 64 65 67 66 63 61 59 57 8 13 34 72 88 32 0 0 0 0 0 0 0 0 0 0 0 0 0 0 0 0 0 0 0 0 0 0 0 0 0 
0 0 0 0 0 0 0 0 0 0 0 0 0 0 0 0 0 0 0 0 0 0 0 65 88 88 46 9 19 15 41 61 61 63 62 63 65 69 72 72 71 73 69 71 67 56 53 57 57 61 66 62 62 67 64 63 63 52 43 52 45 60 60 56 58 60 49 51 56 53 60 56 60 69 68 65 60 58 59 56 67 71 73 68 73 71 72 68 64 62 61 62 65 63 58 52 39 9 9 32 81 88 38 0 0 0 0 0 0 0 0 0 0 0 0 0 0 0 0 0 0 0 0 0 0 0 0 0 
0 0 0 0 0 0 0 0 0 0 0 0 0 0 0 0 0 0 0 0 0 0 0 59 88 88 58 17 19 13 33 58 61 62 66 65 66 66 68 66 66 70 72 67 72 62 58 58 60 59 64 66 68 63 66 63 61 59 46 57 53 50 66 63 56 54 52 56 60 58 61 60 63 67 69 66 63 63 62 64 70 73 71 69 73 72 67 64 63 63 62 60 62 63 60 55 34 8 8 31 88 88 41 0 0 0 0 0 0 0 0 0 0 0 0 0 0 0 0 0 0 0 0 0 0 0 0 0 
0 0 0 0 0 0 0 0 0 0 0 0 0 0 0 0 0 0 0 0 0 0 0 36 85 88 88 21 23 1 31 51 59 60 66 64 65 66 65 64 62 64 71 70 70 68 64 62 63 65 70 65 65 63 62 65 62 67 53 58 56 63 52 62 60 58 60 56 59 64 62 65 65 65 66 66 66 62 64 66 70 73 69 68 71 69 60 61 61 60 63 63 63 64 61 58 28 17 7 37 88 88 33 0 0 0 0 0 0 0 0 0 0 0 0 0 0 0 0 0 0 0 0 0 0 0 0 0 
0 0 0 0 0 0 0 0 0 0 0 0 0 0 0 0 0 0 0 0 0 0 0 18 76 88 88 27 14 13 21 45 60 63 63 62 63 66 66 64 59 64 67 72 69 69 69 64 66 67 65 67 65 64 64 66 63 67 51 60 58 60 63 60 65 63 53 60 57 65 64 65 69 63 64 60 61 57 56 67 70 71 72 70 72 67 63 60 59 61 59 64 61 62 59 58 13 19 1 59 88 78 23 0 0 0 0 0 0 0 0 0 0 0 0 0 0 0 0 0 0 0 0 0 0 0 0 0 
0 0 0 0 0 0 0 0 0 0 0 0 0 0 0 0 0 0 0 0 0 0 0 0 57 88 88 49 11 27 7 22 67 61 59 61 64 63 66 65 64 62 65 72 73 70 67 66 65 63 66 68 69 69 63 63 65 70 55 60 63 58 68 65 66 69 82 49 63 63 63 65 66 67 63 56 61 60 62 70 68 68 70 74 69 67 64 64 62 51 56 58 61 63 60 60 3 26 0 88 88 79 0 0 0 0 0 0 0 0 0 0 0 0 0 0 0 0 0 0 0 0 0 0 0 0 0 0 
0 0 0 0 0 0 0 0 0 0 0 0 0 0 0 0 0 0 0 0 0 0 0 0 41 88 88 84 0 44 3 15 57 57 60 64 61 65 65 62 61 59 65 71 73 70 67 64 63 61 65 66 67 64 64 65 63 69 57 59 62 61 54 60 55 56 58 62 69 64 66 61 69 67 63 61 61 62 65 70 67 67 70 71 68 65 66 64 64 58 60 50 57 60 56 42 3 18 13 88 88 65 0 0 0 0 0 0 0 0 0 0 0 0 0 0 0 0 0 0 0 0 0 0 0 0 0 0 
0 0 0 0 0 0 0 0 0 0 0 0 0 0 0 0 0 0 0 0 0 0 0 0 21 70 88 88 4 46 16 17 36 60 65 63 65 65 64 63 60 61 68 71 74 72 72 68 64 63 63 64 69 66 64 62 67 62 67 55 62 63 61 62 65 62 60 69 73 69 50 60 65 67 68 64 57 62 65 71 67 64 68 69 69 64 62 66 63 65 60 58 50 53 54 17 21 7 36 88 88 55 0 0 0 0 0 0 0 0 0 0 0 0 0 0 0 0 0 0 0 0 0 0 0 0 0 0 
0 0 0 0 0 0 0 0 0 0 0 0 0 0 0 0 0 0 0 0 0 0 0 0 0 58 88 88 24 22 41 4 16 59 59 63 63 62 63 60 57 64 68 70 74 70 73 67 65 59 63 64 67 69 65 60 60 60 61 53 58 60 60 62 63 63 57 69 66 82 75 58 66 67 68 63 59 60 68 67 65 61 68 70 69 63 63 62 62 65 63 61 59 52 49 0 42 0 64 88 88 39 0 0 0 0 0 0 0 0 0 0 0 0 0 0 0 0 0 0 0 0 0 0 0 0 0 0 
0 0 0 0 0 0 0 0 0 0 0 0 0 0 0 0 0 0 0 0 0 0 0 0 0 38 88 88 69 2 59 6 8 32 59 61 62 59 61 59 63 69 70 69 69 68 71 65 64 62 64 67 65 69 64 65 63 60 58 52 53 56 61 54 55 61 45 68 63 64 70 63 65 62 66 58 69 59 68 68 65 61 67 69 68 65 62 61 63 61 61 61 60 53 39 2 38 0 88 88 83 26 0 0 0 0 0 0 0 0 0 0 0 0 0 0 0 0 0 0 0 0 0 0 0 0 0 0 
0 0 0 0 0 0 0 0 0 0 0 0 0 0 0 0 0 0 0 0 0 0 0 0 0 19 81 88 88 0 48 25 3 8 55 55 61 59 59 62 63 69 68 68 68 67 68 65 63 61 64 64 66 69 65 64 64 61 61 55 50 48 62 64 63 61 59 62 65 63 68 67 64 62 55 62 63 60 66 67 60 61 66 66 67 64 65 64 61 60 64 61 62 56 28 14 27 1 88 88 86 0 0 0 0 0 0 0 0 0 0 0 0 0 0 0 0 0 0 0 0 0 0 0 0 0 0 0 
0 0 0 0 0 0 0 0 0 0 0 0 0 0 0 0 0 0 0 0 0 0 0 0 0 0 63 88 88 5 21 50 4 28 21 66 59 62 66 70 71 71 69 65 65 67 67 67 59 60 55 63 67 69 68 64 65 60 59 50 42 38 61 58 57 58 74 56 69 63 62 67 64 58 61 62 64 66 67 61 61 63 67 67 69 66 65 67 66 63 62 60 56 58 0 45 8 13 88 88 68 0 0 0 0 0 0 0 0 0 0 0 0 0 0 0 0 0 0 0 0 0 0 0 0 0 0 0 
0 0 0 0 0 0 0 0 0 0 0 0 0 0 0 0 0 0 0 0 0 0 0 0 0 0 39 88 88 80 3 47 23 25 37 63 64 66 69 68 67 66 69 67 64 67 66 66 66 53 53 65 63 68 68 64 65 60 61 58 41 38 55 60 61 46 72 61 68 68 66 64 60 51 60 64 63 68 62 58 60 64 68 66 66 62 63 58 60 63 59 58 61 29 13 44 0 44 88 88 51 0 0 0 0 0 0 0 0 0 0 0 0 0 0 0 0 0 0 0 0 0 0 0 0 0 0 0 
0 0 0 0 0 0 0 0 0 0 0 0 0 0 0 0 0 0 0 0 0 0 0 0 0 0 16 75 88 88 0 14 32 6 49 55 64 66 65 62 63 63 65 64 68 67 67 69 69 63 63 53 65 62 62 64 61 62 62 56 59 40 46 56 61 53 71 61 71 62 64 61 47 57 59 67 64 64 62 55 60 66 64 68 67 61 60 56 55 58 55 56 45 0 50 9 0 88 88 80 33 0 0 0 0 0 0 0 0 0 0 0 0 0 0 0 0 0 0 0 0 0 0 0 0 0 0 0 
0 0 0 0 0 0 0 0 0 0 0 0 0 0 0 0 0 0 0 0 0 0 0 0 0 0 0 54 88 88 15 8 25 1 38 44 65 61 58 61 61 62 63 62 71 68 66 66 67 69 64 59 59 61 59 62 59 58 61 60 61 62 51 46 34 40 68 60 63 60 62 55 49 58 61 63 65 58 59 54 59 62 64 68 64 63 58 57 58 53 41 77 13 24 34 1 11 88 88 73 0 0 0 0 0 0 0 0 0 0 0 0 0 0 0 0 0 0 0 0 0 0 0 0 0 0 0 0 
0 0 0 0 0 0 0 0 0 0 0 0 0 0 0 0 0 0 0 0 0 0 0 0 0 0 0 21 80 88 88 1 6 33 9 40 61 59 58 61 59 61 63 66 68 69 69 65 65 68 65 54 61 64 66 61 60 58 59 55 65 63 56 60 60 51 71 59 58 47 61 61 56 60 64 63 60 59 59 62 61 59 63 63 66 63 59 63 59 54 57 49 0 33 0 0 88 88 85 42 0 0 0 0 0 0 0 0 0 0 0 0 0 0 0 0 0 0 0 0 0 0 0 0 0 0 0 0 
0 0 0 0 0 0 0 0 0 0 0 0 0 0 0 0 0 0 0 0 0 0 0 0 0 0 0 0 64 88 88 5 8 28 9 37 59 52 58 58 62 64 63 65 67 67 71 62 64 66 61 56 65 66 65 65 63 62 57 59 67 75 63 67 58 55 69 63 45 66 63 55 57 60 63 61 60 59 65 64 70 63 63 63 64 62 59 62 61 44 55 29 16 22 3 24 88 86 65 0 0 0 0 0 0 0 0 0 0 0 0 0 0 0 0 0 0 0 0 0 0 0 0 0 0 0 0 0 
0 0 0 0 0 0 0 0 0 0 0 0 0 0 0 0 0 0 0 0 0 0 0 0 0 0 0 0 31 81 88 88 0 6 32 26 88 55 53 62 63 63 66 64 67 68 66 64 64 63 56 64 67 61 60 60 61 58 53 49 59 88 53 66 55 58 68 62 49 68 63 53 62 62 63 65 64 65 66 66 64 67 64 64 62 63 63 60 53 48 37 25 14 20 2 88 88 76 34 0 0 0 0 0 0 0 0 0 0 0 0 0 0 0 0 0 0 0 0 0 0 0 0 0 0 0 0 0 
0 0 0 0 0 0 0 0 0 0 0 0 0 0 0 0 0 0 0 0 0 0 0 0 0 0 0 0 0 65 88 88 39 2 28 9 88 88 59 55 62 63 63 63 64 66 64 64 64 63 67 63 69 64 56 58 54 59 58 48 61 81 38 71 63 50 65 47 52 61 64 58 59 62 65 67 65 67 65 62 61 62 63 62 65 62 61 59 45 28 45 1 7 27 88 88 81 50 0 0 0 0 0 0 0 0 0 0 0 0 0 0 0 0 0 0 0 0 0 0 0 0 0 0 0 0 0 0 
0 0 0 0 0 0 0 0 0 0 0 0 0 0 0 0 0 0 0 0 0 0 0 0 0 0 0 0 0 30 88 88 88 17 5 36 5 88 42 57 61 67 64 63 64 65 64 62 67 64 56 60 64 73 64 65 62 62 63 61 68 48 26 72 66 69 67 50 62 63 63 57 60 59 63 63 68 64 61 61 60 58 63 65 65 63 59 54 42 45 5 13 2 88 88 79 69 0 0 0 0 0 0 0 0 0 0 0 0 0 0 0 0 0 0 0 0 0 0 0 0 0 0 0 0 0 0 0 
0 0 0 0 0 0 0 0 0 0 0 0 0 0 0 0 0 0 0 0 0 0 0 0 0 0 0 0 0 0 56 83 88 88 3 13 14 33 27 52 61 63 62 67 69 64 68 69 67 61 53 52 63 71 70 54 60 62 62 55 64 21 31 66 69 67 54 59 61 62 65 57 56 58 63 62 66 64 63 59 58 61 61 61 64 56 68 34 45 14 18 0 69 88 81 75 26 0 0 0 0 0 0 0 0 0 0 0 0 0 0 0 0 0 0 0 0 0 0 0 0 0 0 0 0 0 0 0 
0 0 0 0 0 0 0 0 0 0 0 0 0 0 0 0 0 0 0 0 0 0 0 0 0 0 0 0 0 0 21 78 88 88 78 2 17 17 19 23 56 61 66 65 66 66 65 63 61 59 63 63 61 65 67 60 51 47 56 53 71 29 44 63 70 67 50 49 56 63 63 58 57 57 63 62 67 64 61 58 56 66 54 60 57 72 37 57 13 18 7 27 88 83 88 44 0 0 0 0 0 0 0 0 0 0 0 0 0 0 0 0 0 0 0 0 0 0 0 0 0 0 0 0 0 0 0 0 
0 0 0 0 0 0 0 0 0 0 0 0 0 0 0 0 0 0 0 0 0 0 0 0 0 0 0 0 0 0 0 50 88 88 88 43 11 23 25 29 23 47 58 60 64 60 62 56 61 63 66 65 66 63 68 64 65 65 66 49 74 46 45 71 78 64 40 62 60 59 64 61 51 63 61 62 63 64 62 60 57 49 36 64 75 34 50 16 19 7 19 88 88 88 58 0 0 0 0 0 0 0 0 0 0 0 0 0 0 0 0 0 0 0 0 0 0 0 0 0 0 0 0 0 0 0 0 0 
0 0 0 0 0 0 0 0 0 0 0 0 0 0 0 0 0 0 0 0 0 0 0 0 0 0 0 0 0 0 0 0 63 88 88 88 36 15 35 15 35 22 37 61 58 69 59 63 63 64 62 65 64 62 71 67 66 62 61 54 88 77 42 61 86 62 56 60 63 65 61 56 51 57 59 64 64 66 65 65 63 60 60 41 24 28 21 31 0 21 62 88 88 66 20 0 0 0 0 0 0 0 0 0 0 0 0 0 0 0 0 0 0 0 0 0 0 0 0 0 0 0 0 0 0 0 0 0 
0 0 0 0 0 0 0 0 0 0 0 0 0 0 0 0 0 0 0 0 0 0 0 0 0 0 0 0 0 0 0 0 28 77 88 88 88 21 14 20 6 38 24 32 59 60 64 62 64 60 60 64 65 63 64 69 63 61 60 65 88 45 59 47 72 67 57 62 64 59 43 57 57 58 58 62 64 64 59 61 55 56 40 43 27 29 38 0 6 57 67 88 76 49 0 0 0 0 0 0 0 0 0 0 0 0 0 0 0 0 0 0 0 0 0 0 0 0 0 0 0 0 0 0 0 0 0 0 
0 0 0 0 0 0 0 0 0 0 0 0 0 0 0 0 0 0 0 0 0 0 0 0 0 0 0 0 0 0 0 0 0 53 88 88 88 44 6 13 35 12 31 12 43 68 62 50 51 55 59 59 61 64 65 64 60 63 57 80 88 55 55 55 69 67 63 64 60 54 53 59 64 63 62 63 61 62 61 59 41 14 55 20 40 43 1 2 44 88 88 88 69 0 0 0 0 0 0 0 0 0 0 0 0 0 0 0 0 0 0 0 0 0 0 0 0 0 0 0 0 0 0 0 0 0 0 0 
0 0 0 0 0 0 0 0 0 0 0 0 0 0 0 0 0 0 0 0 0 0 0 0 0 0 0 0 0 0 0 0 0 0 68 88 88 88 45 8 9 35 9 19 13 18 49 44 29 55 57 45 55 61 58 63 64 64 82 75 72 55 58 65 78 70 63 62 59 56 63 56 60 62 61 62 63 63 48 33 49 66 20 47 42 7 0 63 88 88 88 80 45 0 0 0 0 0 0 0 0 0 0 0 0 0 0 0 0 0 0 0 0 0 0 0 0 0 0 0 0 0 0 0 0 0 0 0 
0 0 0 0 0 0 0 0 0 0 0 0 0 0 0 0 0 0 0 0 0 0 0 0 0 0 0 0 0 0 0 0 0 0 40 81 88 88 88 39 3 9 42 9 30 7 13 18 15 14 55 48 41 39 44 47 41 31 19 27 68 66 48 36 70 64 63 62 50 52 62 71 60 66 63 59 67 55 26 62 60 5 52 27 2 0 71 88 88 88 88 67 0 0 0 0 0 0 0 0 0 0 0 0 0 0 0 0 0 0 0 0 0 0 0 0 0 0 0 0 0 0 0 0 0 0 0 0 
0 0 0 0 0 0 0 0 0 0 0 0 0 0 0 0 0 0 0 0 0 0 0 0 0 0 0 0 0 0 0 0 0 0 0 53 82 88 88 88 59 1 5 46 38 19 12 45 23 16 21 29 60 51 40 37 40 33 44 35 69 70 59 52 57 69 62 59 56 58 60 61 60 63 69 74 52 35 80 48 15 56 13 11 0 69 64 88 88 88 79 34 0 0 0 0 0 0 0 0 0 0 0 0 0 0 0 0 0 0 0 0 0 0 0 0 0 0 0 0 0 0 0 0 0 0 0 0 
0 0 0 0 0 0 0 0 0 0 0 0 0 0 0 0 0 0 0 0 0 0 0 0 0 0 0 0 0 0 0 0 0 0 0 0 64 88 88 88 88 70 13 0 31 39 31 22 38 56 26 47 21 16 25 8 15 28 59 88 88 88 64 59 57 44 50 55 60 66 58 56 61 67 60 45 63 64 18 38 62 13 13 2 88 88 88 88 88 73 39 0 0 0 0 0 0 0 0 0 0 0 0 0 0 0 0 0 0 0 0 0 0 0 0 0 0 0 0 0 0 0 0 0 0 0 0 0 
0 0 0 0 0 0 0 0 0 0 0 0 0 0 0 0 0 0 0 0 0 0 0 0 0 0 0 0 0 0 0 0 0 0 0 0 0 48 86 88 88 88 34 8 7 16 48 50 35 25 44 31 11 6 20 45 54 40 23 63 61 80 77 66 52 47 49 49 68 62 68 49 59 56 70 69 28 21 52 27 3 19 3 88 88 88 88 81 74 50 0 0 0 0 0 0 0 0 0 0 0 0 0 0 0 0 0 0 0 0 0 0 0 0 0 0 0 0 0 0 0 0 0 0 0 0 0 0 
0 0 0 0 0 0 0 0 0 0 0 0 0 0 0 0 0 0 0 0 0 0 0 0 0 0 0 0 0 0 0 0 0 0 0 0 0 0 37 76 74 88 88 88 16 0 1 23 56 68 60 18 32 24 8 5 2 0 28 81 65 73 71 74 62 60 57 62 59 62 60 43 46 38 23 22 60 50 14 4 7 13 88 88 88 77 84 67 34 0 0 0 0 0 0 0 0 0 0 0 0 0 0 0 0 0 0 0 0 0 0 0 0 0 0 0 0 0 0 0 0 0 0 0 0 0 0 0 
0 0 0 0 0 0 0 0 0 0 0 0 0 0 0 0 0 0 0 0 0 0 0 0 0 0 0 0 0 0 0 0 0 0 0 0 0 0 0 16 71 73 82 88 88 48 0 3 6 32 52 75 60 37 22 20 31 33 32 32 41 37 32 32 45 55 57 57 55 55 51 32 35 42 57 61 29 3 4 0 31 88 88 88 69 81 61 30 0 0 0 0 0 0 0 0 0 0 0 0 0 0 0 0 0 0 0 0 0 0 0 0 0 0 0 0 0 0 0 0 0 0 0 0 0 0 0 0 
0 0 0 0 0 0 0 0 0 0 0 0 0 0 0 0 0 0 0 0 0 0 0 0 0 0 0 0 0 0 0 0 0 0 0 0 0 0 0 0 0 43 82 67 88 88 88 9 0 2 11 33 44 62 72 57 66 55 65 62 66 68 67 50 48 46 48 46 40 31 37 49 66 64 43 16 3 4 2 79 88 88 62 79 68 43 0 0 0 0 0 0 0 0 0 0 0 0 0 0 0 0 0 0 0 0 0 0 0 0 0 0 0 0 0 0 0 0 0 0 0 0 0 0 0 0 0 0 
0 0 0 0 0 0 0 0 0 0 0 0 0 0 0 0 0 0 0 0 0 0 0 0 0 0 0 0 0 0 0 0 0 0 0 0 0 0 0 0 0 0 24 76 71 81 88 88 53 2 4 3 4 13 37 52 61 72 59 65 67 70 71 68 67 65 51 55 53 58 58 51 30 13 0 3 2 55 88 88 79 59 82 51 20 0 0 0 0 0 0 0 0 0 0 0 0 0 0 0 0 0 0 0 0 0 0 0 0 0 0 0 0 0 0 0 0 0 0 0 0 0 0 0 0 0 0 0 
0 0 0 0 0 0 0 0 0 0 0 0 0 0 0 0 0 0 0 0 0 0 0 0 0 0 0 0 0 0 0 0 0 0 0 0 0 0 0 0 0 0 0 0 50 82 61 86 88 88 72 20 2 4 3 9 22 37 51 60 58 63 67 59 63 65 63 51 48 34 14 6 3 13 34 87 88 88 78 59 80 57 22 0 0 0 0 0 0 0 0 0 0 0 0 0 0 0 0 0 0 0 0 0 0 0 0 0 0 0 0 0 0 0 0 0 0 0 0 0 0 0 0 0 0 0 0 0 
0 0 0 0 0 0 0 0 0 0 0 0 0 0 0 0 0 0 0 0 0 0 0 0 0 0 0 0 0 0 0 0 0 0 0 0 0 0 0 0 0 0 0 0 0 23 62 73 49 84 88 88 88 70 27 12 8 3 4 1 7 8 8 13 11 8 7 5 7 15 39 75 88 88 88 88 69 49 80 67 28 0 0 0 0 0 0 0 0 0 0 0 0 0 0 0 0 0 0 0 0 0 0 0 0 0 0 0 0 0 0 0 0 0 0 0 0 0 0 0 0 0 0 0 0 0 0 0 
0 0 0 0 0 0 0 0 0 0 0 0 0 0 0 0 0 0 0 0 0 0 0 0 0 0 0 0 0 0 0 0 0 0 0 0 0 0 0 0 0 0 0 0 0 0 0 26 63 65 53 59 80 88 88 88 88 88 88 88 88 88 82 75 88 88 88 88 88 88 88 88 87 56 50 58 70 59 31 0 0 0 0 0 0 0 0 0 0 0 0 0 0 0 0 0 0 0 0 0 0 0 0 0 0 0 0 0 0 0 0 0 0 0 0 0 0 0 0 0 0 0 0 0 0 0 0 0 
0 0 0 0 0 0 0 0 0 0 0 0 0 0 0 0 0 0 0 0 0 0 0 0 0 0 0 0 0 0 0 0 0 0 0 0 0 0 0 0 0 0 0 0 0 0 0 0 0 0 45 72 68 47 46 54 71 88 88 88 88 88 88 88 88 88 88 77 74 67 47 44 55 67 59 33 0 0 0 0 0 0 0 0 0 0 0 0 0 0 0 0 0 0 0 0 0 0 0 0 0 0 0 0 0 0 0 0 0 0 0 0 0 0 0 0 0 0 0 0 0 0 0 0 0 0 0 0 
0 0 0 0 0 0 0 0 0 0 0 0 0 0 0 0 0 0 0 0 0 0 0 0 0 0 0 0 0 0 0 0 0 0 0 0 0 0 0 0 0 0 0 0 0 0 0 0 0 0 0 0 0 35 49 66 66 68 55 41 43 39 38 42 48 55 56 64 66 63 61 49 28 0 0 0 0 0 0 0 0 0 0 0 0 0 0 0 0 0 0 0 0 0 0 0 0 0 0 0 0 0 0 0 0 0 0 0 0 0 0 0 0 0 0 0 0 0 0 0 0 0 0 0 0 0 0 0 
0 0 0 0 0 0 0 0 0 0 0 0 0 0 0 0 0 0 0 0 0 0 0 0 0 0 0 0 0 0 0 0 0 0 0 0 0 0 0 0 0 0 0 0 0 0 0 0 0 0 0 0 0 0 0 0 0 18 30 58 61 64 58 50 43 27 0 0 0 0 0 0 0 0 0 0 0 0 0 0 0 0 0 0 0 0 0 0 0 0 0 0 0 0 0 0 0 0 0 0 0 0 0 0 0 0 0 0 0 0 0 0 0 0 0 0 0 0 0 0 0 0 0 0 0 0 0 0 
0 0 0 0 0 0 0 0 0 0 0 0 0 0 0 0 0 0 0 0 0 0 0 0 0 0 0 0 0 0 0 0 0 0 0 0 0 0 0 0 0 0 0 0 0 0 0 0 0 0 0 0 0 0 0 0 0 0 0 0 0 0 0 0 0 0 0 0 0 0 0 0 0 0 0 0 0 0 0 0 0 0 0 0 0 0 0 0 0 0 0 0 0 0 0 0 0 0 0 0 0 0 0 0 0 0 0 0 0 0 0 0 0 0 0 0 0 0 0 0 0 0 0 0 0 0 0 0 
