P2
128 128
88
0 0 0 0 0 0 0 0 0 0 0 0 0 0 0 0 0 0 0 0 0 0 0 0 0 0 0 0 0 0 0 0 0 0 0 0 0 0 0 0 0 0 0 0 0 0 0 0 0 0 0 0 0 0 0 0 0 0 0 0 0 0 0 0 0 0 0 0 0 0 0 0 0 0 0 0 0 0 0 0 0 0 0 0 0 0 0 0 0 0 0 0 0 0 0 0 0 0 0 0 0 0 0 0 0 0 0 0 0 0 0 0 0 0 0 0 0 0 0 0 0 0 0 0 0 0 0 0 
0 0 0 0 0 0 0 0 0 0 0 0 0 0 0 0 0 0 0 0 0 0 0 0 0 0 0 0 0 0 0 0 0 0 0 0 0 0 0 0 0 0 0 0 0 0 0 0 0 0 0 0 0 0 0 0 0 0 0 0 0 0 0 0 0 0 0 0 0 0 0 0 0 0 0 0 0 0 0 0 0 0 0 0 0 0 0 0 0 0 0 0 0 0 0 0 0 0 0 0 0 0 0 0 0 0 0 0 0 0 0 0 0 0 0 0 0 0 0 0 0 0 0 0 0 0 0 0 
0 0 0 0 0 0 0 0 0 0 0 0 0 0 0 0 0 0 0 0 0 0 0 0 0 0 0 0 0 0 0 0 0 0 0 0 0 0 0 0 0 0 0 0 0 0 0 0 0 0 0 0 0 0 0 0 0 0 0 0 0 0 0 0 0 0 0 0 0 0 0 0 0 0 0 0 0 0 0 0 0 0 0 0 0 0 0 0 0 0 0 0 0 0 0 0 0 0 0 0 0 0 0 0 0 0 0 0 0 0 0 0 0 0 0 0 0 0 0 0 0 0 0 0 0 0 0 0 
0 0 0 0 0 0 0 0 0 0 0 0 0 0 0 0 0 0 0 0 0 0 0 0 0 0 0 0 0 0 0 0 0 0 0 0 0 0 0 0 0 0 0 0 0 0 0 0 0 0 0 0 0 0 0 0 0 0 0 0 0 0 0 0 0 0 0 0 0 0 0 0 0 0 0 0 0 0 0 0 0 0 0 0 0 0 0 0 0 0 0 0 0 0 0 0 0 0 0 0 0 0 0 0 0 0 0 0 0 0 0 0 0 0 0 0 0 0 0 0 0 0 0 0 0 0 0 0 
0 0 0 0 0 0 0 0 0 0 0 0 0 0 0 0 0 0 0 0 0 0 0 0 0 0 0 0 0 0 0 0 0 0 0 0 0 0 0 0 0 0 0 0 0 0 0 0 0 0 0 0 0 0 0 0 0 0 0 0 0 0 0 0 0 0 0 0 0 0 0 0 0 0 0 0 0 0 0 0 0 0 0 0 0 0 0 0 0 0 0 0 0 0 0 0 0 0 0 0 0 0 0 0 0 0 0 0 0 0 0 0 0 0 0 0 0 0 0 0 0 0 0 0 0 0 0 0 
0 0 0 0 0 0 0 0 0 0 0 0 0 0 0 0 0 0 0 0 0 0 0 0 0 0 0 0 0 0 0 0 0 0 0 0 0 0 0 0 0 0 0 0 0 0 0 0 0 0 0 0 0 0 0 0 0 0 0 0 0 0 0 0 0 0 0 0 0 0 0 0 0 0 0 0 0 0 0 0 0 0 0 0 0 0 0 0 0 0 0 0 0 0 0 0 0 0 0 0 0 0 0 0 0 0 0 0 0 0 0 0 0 0 0 0 0 0 0 0 0 0 0 0 0 0 0 0 
0 0 0 0 0 0 0 0 0 0 0 0 0 0 0 0 0 0 0 0 0 0 0 0 0 0 0 0 0 0 0 0 0 0 0 0 0 0 0 0 0 0 0 0 0 0 0 0 0 0 0 0 0 0 0 0 0 0 0 0 0 0 0 0 0 0 0 0 0 0 0 0 0 0 0 0 0 0 0 0 0 0 0 0 0 0 0 0 0 0 0 0 0 0 0 0 0 0 0 0 0 0 0 0 0 0 0 0 0 0 0 0 0 0 0 0 0 0 0 0 0 0 0 0 0 0 0 0 
0 0 0 0 0 0 0 0 0 0 0 0 0 0 0 0 0 0 0 0 0 0 0 0 0 0 0 0 0 0 0 0 0 0 0 0 0 0 0 0 0 0 0 0 0 0 0 0 0 0 0 0 0 0 0 0 0 0 0 0 0 0 0 0 0 0 0 0 0 0 0 0 0 0 0 0 0 0 0 0 0 0 0 0 0 0 0 0 0 0 0 0 0 0 0 0 0 0 0 0 0 0 0 0 0 0 0 0 0 0 0 0 0 0 0 0 0 0 0 0 0 0 0 0 0 0 0 0 
0 0 0 0 0 0 0 0 0 0 0 0 0 0 0 0 0 0 0 0 0 0 0 0 0 0 0 0 0 0 0 0 0 0 0 0 0 0 0 0 0 0 0 0 0 0 0 0 0 0 0 0 0 0 0 0 0 0 0 0 0 0 0 0 0 0 0 0 0 0 0 0 0 0 0 0 0 0 0 0 0 0 0 0 0 0 0 0 0 0 0 0 0 0 0 0 0 0 0 0 0 0 0 0 0 0 0 0 0 0 0 0 0 0 0 0 0 0 0 0 0 0 0 0 0 0 0 0 
0 0 0 0 0 0 0 0 0 0 0 0 0 0 0 0 0 0 0 0 0 0 0 0 0 0 0 0 0 0 0 0 0 0 0 0 0 0 0 0 0 0 0 0 0 0 0 0 0 0 0 0 0 0 0 0 0 0 0 0 0 0 0 0 0 0 0 0 0 0 0 0 0 0 0 0 0 0 0 0 0 0 0 0 0 0 0 0 0 0 0 0 0 0 0 0 0 0 0 0 0 0 0 0 0 0 0 0 0 0 0 0 0 0 0 0 0 0 0 0 0 0 0 0 0 0 0 0 
0 0 0 0 0 0 0 0 0 0 0 0 0 0 0 0 0 0 0 0 0 0 0 0 0 0 0 0 0 0 0 0 0 0 0 0 0 0 0 0 0 0 0 0 0 0 0 0 0 0 0 0 0 0 0 0 0 0 0 0 0 0 0 0 0 0 0 0 0 0 0 0 0 0 0 0 0 0 0 0 0 0 0 0 0 0 0 0 0 0 0 0 0 0 0 0 0 0 0 0 0 0 0 0 0 0 0 0 0 0 0 0 0 0 0 0 0 0 0 0 0 0 0 0 0 0 0 0 
0 0 0 0 0 0 0 0 0 0 0 0 0 0 0 0 0 0 0 0 0 0 0 0 0 0 0 0 0 0 0 0 0 0 0 0 0 0 0 0 0 0 0 0 0 0 0 0 0 0 0 0 0 0 0 0 0 0 0 0 0 0 0 0 0 0 0 0 0 0 0 0 0 0 0 0 0 0 0 0 0 0 0 0 0 0 0 0 0 0 0 0 0 0 0 0 0 0 0 0 0 0 0 0 0 0 0 0 0 0 0 0 0 0 0 0 0 0 0 0 0 0 0 0 0 0 0 0 
0 0 0 0 0 0 0 0 0 0 0 0 0 0 0 0 0 0 0 0 0 0 0 0 0 0 0 0 0 0 0 0 0 0 0 0 0 0 0 0 0 0 0 0 0 0 0 0 0 0 0 0 0 0 0 0 0 0 0 0 0 0 0 0 0 0 0 0 0 0 0 0 0 0 0 0 0 0 0 0 0 0 0 0 0 0 0 0 0 0 0 0 0 0 0 0 0 0 0 0 0 0 0 0 0 0 0 0 0 0 0 0 0 0 0 0 0 0 0 0 0 0 0 0 0 0 0 0 
0 0 0 0 0 0 0 0 0 0 0 0 0 0 0 0 0 0 0 0 0 0 0 0 0 0 0 0 0 0 0 0 0 0 0 0 0 0 0 0 0 0 0 0 0 0 0 0 0 0 0 0 0 0 0 0 0 0 0 0 0 0 0 0 0 0 0 0 0 0 0 0 0 0 0 0 0 0 0 0 0 0 0 0 0 0 0 0 0 0 0 0 0 0 0 0 0 0 0 0 0 0 0 0 0 0 0 0 0 0 0 0 0 0 0 0 0 0 0 0 0 0 0 0 0 0 0 0 
0 0 0 0 0 0 0 0 0 0 0 0 0 0 0 0 0 0 0 0 0 0 0 0 0 0 0 0 0 0 0 0 0 0 0 0 0 0 0 0 0 0 0 0 0 0 0 0 0 0 0 0 0 0 0 0 0 0 0 0 0 0 0 0 0 0 0 0 0 0 0 0 0 0 0 0 0 0 0 0 0 0 0 0 0 0 0 0 0 0 0 0 0 0 0 0 0 0 0 0 0 0 0 0 0 0 0 0 0 0 0 0 0 0 0 0 0 0 0 0 0 0 0 0 0 0 0 0 
0 0 0 0 0 0 0 0 0 0 0 0 0 0 0 0 0 0 0 0 0 0 0 0 0 0 0 0 0 0 0 0 0 0 0 0 0 0 0 0 0 0 0 0 0 0 0 0 0 0 0 0 0 0 0 0 0 0 0 0 0 0 0 0 0 0 0 0 0 0 0 0 0 0 0 0 0 0 0 0 0 0 0 0 0 0 0 0 0 0 0 0 0 0 0 0 0 0 0 0 0 0 0 0 0 0 0 0 0 0 0 0 0 0 0 0 0 0 0 0 0 0 0 0 0 0 0 0 
0 0 0 0 0 0 0 0 0 0 0 0 0 0 0 0 0 0 0 0 0 0 0 0 0 0 0 0 0 0 0 0 0 0 0 0 0 0 0 0 0 0 0 0 0 0 0 0 0 0 0 0 0 0 0 28 51 82 88 88 88 88 88 88 88 88 88 70 45 28 0 0 0 0 0 0 0 0 0 0 0 0 0 0 0 0 0 0 0 0 0 0 0 0 0 0 0 0 0 0 0 0 0 0 0 0 0 0 0 0 0 0 0 0 0 0 0 0 0 0 0 0 0 0 0 0 0 0 
0 0 0 0 0 0 0 0 0 0 0 0 0 0 0 0 0 0 0 0 0 0 0 0 0 0 0 0 0 0 0 0 0 0 0 0 0 0 0 0 0 0 0 0 0 0 0 0 0 0 0 59 88 88 88 88 88 88 88 88 88 88 76 88 88 88 88 88 88 88 88 88 88 39 0 0 0 0 0 0 0 0 0 0 0 0 0 0 0 0 0 0 0 0 0 0 0 0 0 0 0 0 0 0 0 0 0 0 0 0 0 0 0 0 0 0 0 0 0 0 0 0 0 0 0 0 0 0 
0 0 0 0 0 0 0 0 0 0 0 0 0 0 0 0 0 0 0 0 0 0 0 0 0 0 0 0 0 0 0 0 0 0 0 0 0 0 0 0 0 0 0 0 0 0 0 0 61 88 88 88 85 49 31 27 35 42 34 35 36 35 40 40 36 38 35 33 28 36 31 70 88 88 88 88 26 0 0 0 0 0 0 0 0 0 0 0 0 0 0 0 0 0 0 0 0 0 0 0 0 0 0 0 0 0 0 0 0 0 0 0 0 0 0 0 0 0 0 0 0 0 0 0 0 0 0 0 
0 0 0 0 0 0 0 0 0 0 0 0 0 0 0 0 0 0 0 0 0 0 0 0 0 0 0 0 0 0 0 0 0 0 0 0 0 0 0 0 0 0 0 0 0 21 88 88 88 85 38 41 34 23 13 28 35 41 49 54 59 63 55 59 42 36 38 30 19 17 23 33 43 35 32 66 88 88 36 0 0 0 0 0 0 0 0 0 0 0 0 0 0 0 0 0 0 0 0 0 0 0 0 0 0 0 0 0 0 0 0 0 0 0 0 0 0 0 0 0 0 0 0 0 0 0 0 0 
0 0 0 0 0 0 0 0 0 0 0 0 0 0 0 0 0 0 0 0 0 0 0 0 0 0 0 0 0 0 0 0 0 0 0 0 0 0 0 0 0 0 0 0 88 88 88 44 69 37 17 19 39 48 57 26 32 39 38 35 43 55 74 64 63 66 47 40 43 45 40 38 25 19 16 34 37 56 88 88 21 0 0 0 0 0 0 0 0 0 0 0 0 0 0 0 0 0 0 0 0 0 0 0 0 0 0 0 0 0 0 0 0 0 0 0 0 0 0 0 0 0 0 0 0 0 0 0 
0 0 0 0 0 0 0 0 0 0 0 0 0 0 0 0 0 0 0 0 0 0 0 0 0 0 0 0 0 0 0 0 0 0 0 0 0 0 0 0 0 0 29 88 88 58 65 41 9 38 54 41 11 1 0 5 0 3 1 0 0 7 29 47 25 3 1 1 0 0 2 6 15 33 48 36 12 28 40 67 88 88 0 0 0 0 0 0 0 0 0 0 0 0 0 0 0 0 0 0 0 0 0 0 0 0 0 0 0 0 0 0 0 0 0 0 0 0 0 0 0 0 0 0 0 0 0 0 
0 0 0 0 0 0 0 0 0 0 0 0 0 0 0 0 0 0 0 0 0 0 0 0 0 0 0 0 0 0 0 0 0 0 0 0 0 0 0 0 0 44 88 83 65 38 16 50 50 28 2 2 20 29 31 36 54 36 35 37 30 14 4 8 0 16 31 31 26 31 34 34 30 8 1 28 50 53 14 30 43 88 88 13 0 0 0 0 0 0 0 0 0 0 0 0 0 0 0 0 0 0 0 0 0 0 0 0 0 0 0 0 0 0 0 0 0 0 0 0 0 0 0 0 0 0 0 0 
0 0 0 0 0 0 0 0 0 0 0 0 0 0 0 0 0 0 0 0 0 0 0 0 0 0 0 0 0 0 0 0 0 0 0 0 0 0 0 0 41 88 88 53 13 40 65 25 0 9 29 38 36 25 22 33 48 48 50 52 45 41 29 4 24 47 50 52 46 42 37 63 63 39 37 12 2 20 48 28 9 50 76 88 24 0 0 0 0 0 0 0 0 0 0 0 0 0 0 0 0 0 0 0 0 0 0 0 0 0 0 0 0 0 0 0 0 0 0 0 0 0 0 0 0 0 0 0 
0 0 0 0 0 0 0 0 0 0 0 0 0 0 0 0 0 0 0 0 0 0 0 0 0 0 0 0 0 0 0 0 0 0 0 0 0 0 0 30 88 88 34 11 71 54 2 6 36 29 47 50 48 47 41 46 55 57 56 55 51 40 35 39 50 57 55 55 48 50 53 46 40 25 28 36 34 16 0 18 38 1 43 52 88 31 0 0 0 0 0 0 0 0 0 0 0 0 0 0 0 0 0 0 0 0 0 0 0 0 0 0 0 0 0 0 0 0 0 0 0 0 0 0 0 0 0 0 
0 0 0 0 0 0 0 0 0 0 0 0 0 0 0 0 0 0 0 0 0 0 0 0 0 0 0 0 0 0 0 0 0 0 0 0 0 0 17 88 84 27 13 64 31 0 17 30 25 49 59 61 60 53 37 48 59 60 59 60 57 49 40 32 57 57 58 57 57 54 53 52 50 25 52 56 55 40 27 19 1 23 2 46 50 88 14 0 0 0 0 0 0 0 0 0 0 0 0 0 0 0 0 0 0 0 0 0 0 0 0 0 0 0 0 0 0 0 0 0 0 0 0 0 0 0 0 0 
0 0 0 0 0 0 0 0 0 0 0 0 0 0 0 0 0 0 0 0 0 0 0 0 0 0 0 0 0 0 0 0 0 0 0 0 0 13 88 88 27 5 65 35 0 47 60 30 34 51 59 59 61 56 41 41 48 45 56 60 58 52 45 35 60 59 59 58 57 55 58 56 56 43 59 59 56 53 37 23 30 7 22 1 59 78 88 0 0 0 0 0 0 0 0 0 0 0 0 0 0 0 0 0 0 0 0 0 0 0 0 0 0 0 0 0 0 0 0 0 0 0 0 0 0 0 0 0 
0 0 0 0 0 0 0 0 0 0 0 0 0 0 0 0 0 0 0 0 0 0 0 0 0 0 0 0 0 0 0 0 0 0 0 0 0 84 88 33 7 62 33 0 52 87 55 42 38 52 56 58 63 59 50 55 58 59 61 61 59 53 46 33 60 63 63 61 61 58 56 59 57 55 60 61 59 53 45 26 23 28 1 25 2 43 88 88 0 0 0 0 0 0 0 0 0 0 0 0 0 0 0 0 0 0 0 0 0 0 0 0 0 0 0 0 0 0 0 0 0 0 0 0 0 0 0 0 
0 0 0 0 0 0 0 0 0 0 0 0 0 0 0 0 0 0 0 0 0 0 0 0 0 0 0 0 0 0 0 0 0 0 0 0 38 88 46 8 40 37 0 31 42 46 28 31 52 56 55 58 63 63 54 56 64 66 62 62 59 54 40 43 61 63 62 68 67 63 62 60 59 61 63 60 60 54 45 32 41 43 30 6 34 4 48 88 64 0 0 0 0 0 0 0 0 0 0 0 0 0 0 0 0 0 0 0 0 0 0 0 0 0 0 0 0 0 0 0 0 0 0 0 0 0 0 0 
0 0 0 0 0 0 0 0 0 0 0 0 0 0 0 0 0 0 0 0 0 0 0 0 0 0 0 0 0 0 0 0 0 0 0 0 88 50 29 18 62 0 32 49 56 52 51 40 54 57 58 62 63 64 60 58 64 68 63 63 61 57 36 50 68 60 61 62 68 69 67 64 63 65 63 61 59 50 44 51 50 53 48 14 32 40 11 52 88 13 0 0 0 0 0 0 0 0 0 0 0 0 0 0 0 0 0 0 0 0 0 0 0 0 0 0 0 0 0 0 0 0 0 0 0 0 0 0 
0 0 0 0 0 0 0 0 0 0 0 0 0 0 0 0 0 0 0 0 0 0 0 0 0 0 0 0 0 0 0 0 0 0 0 65 88 36 0 58 2 23 47 52 55 59 57 47 55 56 58 62 62 65 64 63 68 65 66 64 61 56 50 43 48 51 57 60 64 68 69 70 69 67 65 60 52 49 56 50 57 59 52 35 3 56 25 25 87 88 0 0 0 0 0 0 0 0 0 0 0 0 0 0 0 0 0 0 0 0 0 0 0 0 0 0 0 0 0 0 0 0 0 0 0 0 0 0 
0 0 0 0 0 0 0 0 0 0 0 0 0 0 0 0 0 0 0 0 0 0 0 0 0 0 0 0 0 0 0 0 0 0 0 88 50 8 42 22 6 52 49 58 58 61 60 56 53 55 57 58 64 69 66 65 66 65 61 59 58 60 36 48 62 58 61 59 60 65 69 67 69 70 63 59 57 54 59 53 61 61 57 50 22 14 72 0 40 88 69 0 0 0 0 0 0 0 0 0 0 0 0 0 0 0 0 0 0 0 0 0 0 0 0 0 0 0 0 0 0 0 0 0 0 0 0 0 
0 0 0 0 0 0 0 0 0 0 0 0 0 0 0 0 0 0 0 0 0 0 0 0 0 0 0 0 0 0 0 0 0 0 82 88 21 7 40 1 43 54 54 56 57 63 60 56 54 57 53 56 61 67 69 65 66 64 59 52 44 59 56 74 52 59 62 62 62 65 71 71 67 65 62 60 59 58 52 59 60 61 60 50 43 1 44 42 9 59 88 0 0 0 0 0 0 0 0 0 0 0 0 0 0 0 0 0 0 0 0 0 0 0 0 0 0 0 0 0 0 0 0 0 0 0 0 0 
0 0 0 0 0 0 0 0 0 0 0 0 0 0 0 0 0 0 0 0 0 0 0 0 0 0 0 0 0 0 0 0 0 0 88 41 2 54 5 25 59 55 55 56 54 60 63 59 56 57 55 56 60 65 68 67 65 58 54 53 59 58 55 59 62 62 63 64 65 70 69 70 70 69 63 61 59 58 57 59 58 59 60 60 40 24 0 59 11 32 88 84 0 0 0 0 0 0 0 0 0 0 0 0 0 0 0 0 0 0 0 0 0 0 0 0 0 0 0 0 0 0 0 0 0 0 0 0 
0 0 0 0 0 0 0 0 0 0 0 0 0 0 0 0 0 0 0 0 0 0 0 0 0 0 0 0 0 0 0 0 0 83 83 16 12 30 6 60 53 56 54 54 56 63 65 62 58 57 59 54 59 68 67 66 61 56 51 55 58 61 55 61 57 61 62 66 71 69 69 70 71 70 65 62 59 56 57 59 57 62 56 57 54 78 23 13 48 13 52 88 11 0 0 0 0 0 0 0 0 0 0 0 0 0 0 0 0 0 0 0 0 0 0 0 0 0 0 0 0 0 0 0 0 0 0 0 
0 0 0 0 0 0 0 0 0 0 0 0 0 0 0 0 0 0 0 0 0 0 0 0 0 0 0 0 0 0 0 0 12 88 27 0 48 4 41 56 58 54 57 57 61 60 64 62 63 57 58 58 63 67 68 67 61 56 59 59 65 58 58 43 53 59 60 63 67 69 70 71 71 71 68 63 61 54 59 63 61 68 63 60 51 51 46 1 41 22 28 88 73 0 0 0 0 0 0 0 0 0 0 0 0 0 0 0 0 0 0 0 0 0 0 0 0 0 0 0 0 0 0 0 0 0 0 0 
0 0 0 0 0 0 0 0 0 0 0 0 0 0 0 0 0 0 0 0 0 0 0 0 0 0 0 0 0 0 0 0 67 88 11 23 33 13 56 56 56 57 57 57 59 60 65 66 65 61 61 63 66 69 69 70 66 63 67 67 64 58 59 48 42 56 60 61 63 67 71 71 69 71 70 66 59 59 64 66 68 61 59 48 59 58 58 19 13 50 9 53 88 0 0 0 0 0 0 0 0 0 0 0 0 0 0 0 0 0 0 0 0 0 0 0 0 0 0 0 0 0 0 0 0 0 0 0 
0 0 0 0 0 0 0 0 0 0 0 0 0 0 0 0 0 0 0 0 0 0 0 0 0 0 0 0 0 0 0 0 88 45 2 50 11 24 58 59 58 58 57 56 61 59 65 65 68 64 64 68 69 69 68 69 66 70 65 61 59 56 59 44 64 56 57 58 59 62 69 71 70 73 72 69 70 67 68 68 60 56 38 51 63 63 56 35 4 42 14 33 88 55 0 0 0 0 0 0 0 0 0 0 0 0 0 0 0 0 0 0 0 0 0 0 0 0 0 0 0 0 0 0 0 0 0 0 
0 0 0 0 0 0 0 0 0 0 0 0 0 0 0 0 0 0 0 0 0 0 0 0 0 0 0 0 0 0 0 37 88 15 14 47 3 45 51 56 57 60 56 58 57 62 63 67 69 67 68 71 71 69 69 69 66 58 57 61 55 56 54 46 62 60 56 55 61 61 68 74 70 72 73 69 71 70 70 64 60 52 59 62 66 62 55 46 15 15 29 27 81 88 0 0 0 0 0 0 0 0 0 0 0 0 0 0 0 0 0 0 0 0 0 0 0 0 0 0 0 0 0 0 0 0 0 0 
0 0 0 0 0 0 0 0 0 0 0 0 0 0 0 0 0 0 0 0 0 0 0 0 0 0 0 0 0 0 0 88 71 14 38 19 26 51 44 49 58 59 58 61 58 56 61 66 67 69 70 69 71 69 69 67 58 56 54 53 54 25 40 53 61 66 60 57 59 61 71 73 73 73 72 71 70 72 71 67 63 63 66 68 68 65 61 58 36 1 46 25 45 88 33 0 0 0 0 0 0 0 0 0 0 0 0 0 0 0 0 0 0 0 0 0 0 0 0 0 0 0 0 0 0 0 0 0 
0 0 0 0 0 0 0 0 0 0 0 0 0 0 0 0 0 0 0 0 0 0 0 0 0 0 0 0 0 0 22 88 23 20 48 1 48 56 60 49 49 55 56 60 62 58 61 65 68 69 69 71 70 72 70 69 57 55 54 57 54 55 46 55 60 68 68 64 65 72 70 74 77 77 75 72 74 70 70 69 69 71 66 63 61 62 64 56 50 3 39 24 58 88 88 0 0 0 0 0 0 0 0 0 0 0 0 0 0 0 0 0 0 0 0 0 0 0 0 0 0 0 0 0 0 0 0 0 
0 0 0 0 0 0 0 0 0 0 0 0 0 0 0 0 0 0 0 0 0 0 0 0 0 0 0 0 0 0 88 88 39 22 24 12 53 59 58 58 49 54 59 61 64 60 62 65 69 67 71 71 72 71 72 69 66 62 65 61 59 55 50 58 61 67 71 71 72 71 74 76 76 72 77 72 71 72 70 69 67 65 58 54 45 58 57 59 45 13 13 27 56 37 88 19 0 0 0 0 0 0 0 0 0 0 0 0 0 0 0 0 0 0 0 0 0 0 0 0 0 0 0 0 0 0 0 0 
0 0 0 0 0 0 0 0 0 0 0 0 0 0 0 0 0 0 0 0 0 0 0 0 0 0 0 0 0 0 88 28 54 21 2 33 53 57 63 63 60 58 58 63 67 63 64 70 68 69 71 69 72 71 68 69 67 70 67 67 61 48 31 55 60 58 64 71 72 72 75 75 70 70 72 73 72 71 70 70 65 60 57 50 51 46 52 53 53 45 0 28 44 47 88 88 0 0 0 0 0 0 0 0 0 0 0 0 0 0 0 0 0 0 0 0 0 0 0 0 0 0 0 0 0 0 0 0 
0 0 0 0 0 0 0 0 0 0 0 0 0 0 0 0 0 0 0 0 0 0 0 0 0 0 0 0 0 88 88 35 45 12 7 59 55 59 61 61 62 66 66 67 64 67 66 68 68 70 70 71 73 72 70 69 69 67 70 68 61 57 25 43 63 66 67 72 72 75 77 71 73 72 74 75 73 70 70 66 62 60 63 60 60 60 54 48 51 53 24 12 30 66 52 88 0 0 0 0 0 0 0 0 0 0 0 0 0 0 0 0 0 0 0 0 0 0 0 0 0 0 0 0 0 0 0 0 
0 0 0 0 0 0 0 0 0 0 0 0 0 0 0 0 0 0 0 0 0 0 0 0 0 0 0 0 0 88 36 56 37 3 33 59 61 60 62 61 63 62 62 65 68 65 69 67 69 66 71 71 72 74 69 70 71 68 66 67 67 70 68 68 70 69 71 71 73 72 73 69 72 75 72 73 73 71 71 68 66 65 66 65 63 59 59 57 55 45 40 3 25 65 38 88 44 0 0 0 0 0 0 0 0 0 0 0 0 0 0 0 0 0 0 0 0 0 0 0 0 0 0 0 0 0 0 0 
0 0 0 0 0 0 0 0 0 0 0 0 0 0 0 0 0 0 0 0 0 0 0 0 0 0 0 0 51 88 29 57 18 1 46 58 61 62 62 57 61 61 63 64 64 66 63 70 71 69 69 70 75 68 70 71 71 70 69 71 69 68 71 68 71 70 70 72 72 75 70 70 71 72 76 75 70 71 71 69 69 68 71 70 65 62 57 57 56 55 50 8 11 57 48 88 88 0 0 0 0 0 0 0 0 0 0 0 0 0 0 0 0 0 0 0 0 0 0 0 0 0 0 0 0 0 0 0 
0 0 0 0 0 0 0 0 0 0 0 0 0 0 0 0 0 0 0 0 0 0 0 0 0 0 0 0 88 66 46 52 7 5 52 57 60 60 62 61 61 62 62 62 66 63 64 63 65 72 67 71 68 69 43 35 53 73 70 68 69 70 70 72 71 70 71 72 70 65 70 75 76 76 76 70 68 72 67 68 67 69 68 70 68 65 62 56 57 59 51 19 4 48 62 45 88 13 0 0 0 0 0 0 0 0 0 0 0 0 0 0 0 0 0 0 0 0 0 0 0 0 0 0 0 0 0 0 
0 0 0 0 0 0 0 0 0 0 0 0 0 0 0 0 0 0 0 0 0 0 0 0 0 0 0 17 88 29 56 44 3 20 63 57 59 59 60 61 63 64 64 64 65 65 64 64 65 68 70 70 68 66 26 27 26 36 58 72 70 69 72 71 72 70 71 59 34 28 29 58 76 74 75 72 70 66 65 65 67 69 69 67 69 68 63 60 60 61 56 32 0 40 65 42 88 50 0 0 0 0 0 0 0 0 0 0 0 0 0 0 0 0 0 0 0 0 0 0 0 0 0 0 0 0 0 0 
0 0 0 0 0 0 0 0 0 0 0 0 0 0 0 0 0 0 0 0 0 0 0 0 0 0 0 84 88 40 51 40 0 35 60 58 62 61 63 62 65 65 67 65 66 65 63 61 63 67 69 69 71 67 31 26 27 27 26 41 67 56 50 55 62 61 37 24 28 29 24 58 77 74 72 69 72 61 59 64 65 65 66 68 69 68 68 65 60 63 55 48 2 28 70 50 84 88 0 0 0 0 0 0 0 0 0 0 0 0 0 0 0 0 0 0 0 0 0 0 0 0 0 0 0 0 0 0 
0 0 0 0 0 0 0 0 0 0 0 0 0 0 0 0 0 0 0 0 0 0 0 0 0 0 0 88 50 56 49 18 3 42 61 63 64 62 63 64 66 66 64 65 62 61 57 58 64 68 67 70 71 66 59 35 25 27 27 27 55 37 26 24 46 34 29 27 29 26 35 74 63 77 73 69 67 61 53 59 65 62 65 65 63 66 65 67 63 61 58 54 9 20 64 60 55 88 13 0 0 0 0 0 0 0 0 0 0 0 0 0 0 0 0 0 0 0 0 0 0 0 0 0 0 0 0 0 
0 0 0 0 0 0 0 0 0 0 0 0 0 0 0 0 0 0 0 0 0 0 0 0 0 0 31 88 29 54 53 13 6 43 60 56 57 59 62 64 63 66 66 63 62 56 50 61 64 68 69 69 67 64 62 61 45 25 27 30 36 45 25 24 47 26 25 28 33 50 68 68 68 72 70 71 70 60 59 59 57 63 62 61 63 63 65 63 63 65 62 54 14 14 65 59 36 88 47 0 0 0 0 0 0 0 0 0 0 0 0 0 0 0 0 0 0 0 0 0 0 0 0 0 0 0 0 0 
0 0 0 0 0 0 0 0 0 0 0 0 0 0 0 0 0 0 0 0 0 0 0 0 0 0 88 88 43 47 52 15 7 51 48 55 59 60 65 64 65 62 62 63 59 54 60 60 68 66 66 68 66 66 64 65 62 48 26 31 28 49 26 26 45 25 31 28 54 68 67 67 68 70 70 70 70 64 59 51 53 59 61 62 61 60 59 61 61 60 60 57 26 9 68 48 49 88 88 0 0 0 0 0 0 0 0 0 0 0 0 0 0 0 0 0 0 0 0 0 0 0 0 0 0 0 0 0 
0 0 0 0 0 0 0 0 0 0 0 0 0 0 0 0 0 0 0 0 0 0 0 0 0 0 88 52 59 47 47 9 6 57 54 58 62 63 60 59 59 60 59 61 58 55 58 63 68 68 71 67 69 66 64 64 63 60 42 27 25 47 27 25 45 26 29 45 68 65 66 68 68 69 69 71 70 68 60 64 62 54 53 58 59 59 60 59 59 57 63 55 25 4 64 50 62 50 88 0 0 0 0 0 0 0 0 0 0 0 0 0 0 0 0 0 0 0 0 0 0 0 0 0 0 0 0 0 
0 0 0 0 0 0 0 0 0 0 0 0 0 0 0 0 0 0 0 0 0 0 0 0 0 23 88 29 58 56 33 6 15 45 59 54 58 59 62 46 41 49 52 49 55 60 62 62 68 69 69 68 67 67 67 64 64 63 55 25 27 43 28 30 39 27 34 65 69 65 69 67 69 68 70 71 70 69 66 62 60 58 64 56 55 56 56 61 54 54 54 54 31 1 46 61 60 31 88 34 0 0 0 0 0 0 0 0 0 0 0 0 0 0 0 0 0 0 0 0 0 0 0 0 0 0 0 0 
0 0 0 0 0 0 0 0 0 0 0 0 0 0 0 0 0 0 0 0 0 0 0 0 0 69 88 38 50 56 27 13 34 43 51 56 49 26 33 57 63 66 62 58 60 58 57 60 67 70 68 67 67 67 66 65 65 63 63 31 26 38 32 29 38 27 43 67 67 64 68 69 68 69 70 70 70 67 69 63 64 59 50 46 41 42 41 45 42 45 37 50 33 9 32 64 54 48 88 76 0 0 0 0 0 0 0 0 0 0 0 0 0 0 0 0 0 0 0 0 0 0 0 0 0 0 0 0 
0 0 0 0 0 0 0 0 0 0 0 0 0 0 0 0 0 0 0 0 0 0 0 0 0 88 71 59 46 51 16 19 58 45 66 53 58 60 60 58 65 68 65 65 64 57 55 59 71 67 68 69 65 69 69 66 63 62 65 34 27 37 33 34 39 28 49 66 64 67 66 74 67 68 70 75 72 69 66 58 57 58 62 31 49 57 56 54 64 62 55 29 23 9 23 55 51 64 67 88 0 0 0 0 0 0 0 0 0 0 0 0 0 0 0 0 0 0 0 0 0 0 0 0 0 0 0 0 
0 0 0 0 0 0 0 0 0 0 0 0 0 0 0 0 0 0 0 0 0 0 0 0 12 88 41 61 52 33 8 18 44 63 53 61 65 66 67 67 66 63 63 61 59 59 58 63 70 70 69 65 66 66 68 68 66 65 61 29 30 36 39 37 36 29 45 69 65 68 69 69 73 67 69 66 69 69 64 57 55 55 59 61 61 59 61 58 61 61 60 42 20 21 8 47 56 60 48 88 11 0 0 0 0 0 0 0 0 0 0 0 0 0 0 0 0 0 0 0 0 0 0 0 0 0 0 0 
0 0 0 0 0 0 0 0 0 0 0 0 0 0 0 0 0 0 0 0 0 0 0 0 38 88 25 61 53 26 13 43 36 46 57 58 57 62 63 65 63 60 60 57 56 58 61 69 67 69 69 69 66 69 68 67 67 62 55 26 33 32 44 43 30 29 38 67 68 69 70 70 71 69 67 68 67 71 66 61 59 56 60 64 65 65 68 68 67 64 58 57 39 36 13 38 60 56 46 88 47 0 0 0 0 0 0 0 0 0 0 0 0 0 0 0 0 0 0 0 0 0 0 0 0 0 0 0 
0 0 0 0 0 0 0 0 0 0 0 0 0 0 0 0 0 0 0 0 0 0 0 0 77 88 41 63 52 25 11 53 40 44 40 49 49 55 63 64 63 60 47 35 55 58 62 68 68 67 66 64 68 69 69 68 69 65 48 28 32 39 57 55 28 33 30 64 65 70 70 68 69 68 66 68 68 69 69 63 60 58 59 62 64 68 64 60 60 58 60 51 47 24 11 32 59 52 50 88 82 0 0 0 0 0 0 0 0 0 0 0 0 0 0 0 0 0 0 0 0 0 0 0 0 0 0 0 
0 0 0 0 0 0 0 0 0 0 0 0 0 0 0 0 0 0 0 0 0 0 0 0 88 82 59 49 41 33 8 31 35 50 56 55 57 59 63 64 67 62 55 45 44 62 64 70 70 69 67 64 69 69 69 66 66 68 45 30 33 41 71 70 32 30 31 63 69 70 70 70 70 71 68 70 68 68 73 66 61 58 59 63 65 63 58 57 54 55 56 58 62 38 9 32 49 51 60 76 88 0 0 0 0 0 0 0 0 0 0 0 0 0 0 0 0 0 0 0 0 0 0 0 0 0 0 0 
0 0 0 0 0 0 0 0 0 0 0 0 0 0 0 0 0 0 0 0 0 0 0 13 88 44 55 57 26 50 2 19 27 56 60 56 57 58 64 65 63 59 59 56 54 59 64 67 72 67 67 66 69 70 68 68 67 70 43 40 63 37 68 74 27 33 39 49 73 70 70 70 71 70 67 69 70 66 71 68 61 57 57 61 63 66 58 40 59 62 61 57 62 23 3 36 32 60 67 31 88 14 0 0 0 0 0 0 0 0 0 0 0 0 0 0 0 0 0 0 0 0 0 0 0 0 0 0 
0 0 0 0 0 0 0 0 0 0 0 0 0 0 0 0 0 0 0 0 0 0 0 33 88 52 54 55 17 44 0 36 42 53 58 56 58 63 63 66 64 54 55 60 58 61 70 71 69 71 69 68 69 67 69 69 69 69 60 72 62 36 49 63 57 46 52 51 73 70 72 68 67 67 66 69 71 69 71 67 60 54 35 37 63 69 60 59 61 65 63 61 45 26 9 25 31 55 55 69 88 33 0 0 0 0 0 0 0 0 0 0 0 0 0 0 0 0 0 0 0 0 0 0 0 0 0 0 
0 0 0 0 0 0 0 0 0 0 0 0 0 0 0 0 0 0 0 0 0 0 0 42 88 62 54 54 21 28 13 32 37 45 45 43 56 60 62 63 62 56 58 60 65 67 68 70 71 72 69 69 69 67 71 68 70 68 71 67 68 34 45 62 44 64 72 70 72 71 72 70 69 72 67 70 68 73 71 70 61 58 66 37 60 61 68 69 75 61 63 56 54 17 25 9 26 56 57 41 88 55 0 0 0 0 0 0 0 0 0 0 0 0 0 0 0 0 0 0 0 0 0 0 0 0 0 0 
0 0 0 0 0 0 0 0 0 0 0 0 0 0 0 0 0 0 0 0 0 0 0 54 88 42 54 37 34 16 12 65 37 35 45 55 53 54 57 61 60 59 47 60 63 66 70 66 67 71 69 68 68 67 67 70 70 69 64 68 67 69 44 46 44 75 69 68 68 72 70 68 71 73 69 70 66 70 71 70 69 68 61 62 40 57 61 66 66 61 58 47 53 8 29 4 25 53 49 51 88 81 0 0 0 0 0 0 0 0 0 0 0 0 0 0 0 0 0 0 0 0 0 0 0 0 0 0 
0 0 0 0 0 0 0 0 0 0 0 0 0 0 0 0 0 0 0 0 0 0 0 65 88 37 58 29 33 0 19 34 35 47 61 62 60 54 62 55 59 53 52 61 60 64 70 68 71 70 68 71 67 68 68 70 68 66 67 64 71 64 57 56 67 70 68 68 69 69 70 68 69 69 71 66 70 69 72 71 67 62 62 64 42 56 62 68 65 59 54 38 51 19 18 13 23 37 52 49 71 88 11 0 0 0 0 0 0 0 0 0 0 0 0 0 0 0 0 0 0 0 0 0 0 0 0 0 
0 0 0 0 0 0 0 0 0 0 0 0 0 0 0 0 0 0 0 0 0 0 0 77 88 36 61 27 14 1 29 36 46 52 61 61 63 59 56 56 58 40 38 62 62 60 71 70 68 70 69 71 68 69 68 67 68 68 67 63 67 64 63 63 64 70 67 66 69 68 69 69 68 70 70 71 69 69 73 71 63 60 60 57 55 60 63 63 60 55 58 63 60 30 8 12 18 29 53 55 74 88 12 0 0 0 0 0 0 0 0 0 0 0 0 0 0 0 0 0 0 0 0 0 0 0 0 0 
0 0 0 0 0 0 0 0 0 0 0 0 0 0 0 0 0 0 0 0 0 0 0 88 88 43 57 11 2 27 52 57 60 55 56 60 65 63 62 58 46 21 53 62 57 61 68 71 69 69 67 73 68 68 69 69 66 67 64 64 68 66 64 66 65 69 67 66 68 68 68 73 66 69 69 71 71 71 70 70 64 63 63 51 49 56 59 59 55 57 62 59 59 37 4 13 19 19 56 56 69 88 19 0 0 0 0 0 0 0 0 0 0 0 0 0 0 0 0 0 0 0 0 0 0 0 0 0 
0 0 0 0 0 0 0 0 0 0 0 0 0 0 0 0 0 0 0 0 0 0 13 88 88 44 50 4 3 50 57 59 62 62 56 60 63 66 62 59 58 32 60 59 59 62 72 69 71 71 70 68 68 67 67 68 67 70 65 69 69 68 65 62 68 66 67 66 69 67 67 68 65 66 66 69 70 71 71 71 67 65 63 58 31 41 23 39 51 59 64 62 57 40 19 4 17 20 47 58 57 88 30 0 0 0 0 0 0 0 0 0 0 0 0 0 0 0 0 0 0 0 0 0 0 0 0 0 
0 0 0 0 0 0 0 0 0 0 0 0 0 0 0 0 0 0 0 0 0 0 13 88 69 48 44 2 23 59 58 58 64 64 60 60 64 67 63 62 63 26 60 60 64 69 68 71 70 65 68 63 68 67 67 68 70 68 68 67 65 65 61 63 66 69 68 69 68 67 66 67 66 66 68 71 71 70 72 72 66 62 61 48 19 53 66 60 59 62 64 61 58 43 31 9 7 20 41 58 53 88 37 0 0 0 0 0 0 0 0 0 0 0 0 0 0 0 0 0 0 0 0 0 0 0 0 0 
0 0 0 0 0 0 0 0 0 0 0 0 0 0 0 0 0 0 0 0 0 0 19 88 59 56 45 0 45 60 61 57 61 65 64 62 66 68 63 60 61 25 56 59 62 66 69 71 71 68 68 61 63 68 68 68 69 70 67 66 67 66 57 65 61 69 67 68 68 67 65 64 65 65 63 72 70 69 71 70 66 60 62 38 47 69 63 65 65 65 63 63 58 50 58 31 6 19 31 71 58 88 39 0 0 0 0 0 0 0 0 0 0 0 0 0 0 0 0 0 0 0 0 0 0 0 0 0 
0 0 0 0 0 0 0 0 0 0 0 0 0 0 0 0 0 0 0 0 0 0 27 88 59 59 34 0 54 59 63 58 61 61 64 64 67 65 67 61 61 35 53 60 62 66 69 72 70 73 66 63 65 68 66 65 69 68 68 67 66 65 45 64 61 67 67 69 69 69 66 67 68 63 63 66 70 71 71 67 62 61 55 38 73 61 65 69 67 62 63 58 56 59 61 53 0 15 43 58 48 88 42 0 0 0 0 0 0 0 0 0 0 0 0 0 0 0 0 0 0 0 0 0 0 0 0 0 
0 0 0 0 0 0 0 0 0 0 0 0 0 0 0 0 0 0 0 0 0 0 41 88 44 87 17 7 56 60 63 60 59 59 62 62 63 65 65 66 65 57 53 61 61 62 69 73 70 72 64 66 66 67 68 69 69 69 68 64 63 68 29 61 62 68 66 66 66 69 66 69 67 64 63 65 70 70 70 66 59 44 46 55 62 62 66 67 63 57 54 59 61 63 63 60 12 13 28 61 45 88 48 0 0 0 0 0 0 0 0 0 0 0 0 0 0 0 0 0 0 0 0 0 0 0 0 0 
0 0 0 0 0 0 0 0 0 0 0 0 0 0 0 0 0 0 0 0 0 0 50 88 41 83 6 7 57 58 63 63 63 59 61 63 61 65 63 67 65 65 56 53 60 61 65 71 70 74 70 65 69 68 70 70 68 70 69 69 64 59 31 43 66 65 66 68 67 66 68 66 68 65 65 68 72 69 71 64 59 56 54 63 61 64 66 66 63 63 63 66 65 64 64 59 20 7 17 59 45 88 55 0 0 0 0 0 0 0 0 0 0 0 0 0 0 0 0 0 0 0 0 0 0 0 0 0 
0 0 0 0 0 0 0 0 0 0 0 0 0 0 0 0 0 0 0 0 0 0 63 88 42 68 5 6 53 58 61 64 64 63 64 63 65 65 64 66 67 68 65 57 51 61 64 71 68 72 72 68 71 70 69 66 70 66 69 64 67 51 34 34 62 65 65 66 69 65 66 66 67 66 68 70 70 70 70 63 59 58 56 63 64 68 66 68 67 66 68 67 63 61 59 60 17 18 13 59 40 88 62 0 0 0 0 0 0 0 0 0 0 0 0 0 0 0 0 0 0 0 0 0 0 0 0 0 
0 0 0 0 0 0 0 0 0 0 0 0 0 0 0 0 0 0 0 0 0 0 71 88 37 67 4 7 48 58 60 61 63 64 66 67 65 65 66 65 68 68 67 65 61 63 68 70 71 70 69 72 69 66 70 69 66 66 68 66 65 61 36 41 63 67 65 66 66 68 67 66 68 68 69 67 69 69 68 62 59 54 63 64 68 67 68 67 67 67 63 63 63 59 61 59 9 19 15 64 41 88 63 0 0 0 0 0 0 0 0 0 0 0 0 0 0 0 0 0 0 0 0 0 0 0 0 0 
0 0 0 0 0 0 0 0 0 0 0 0 0 0 0 0 0 0 0 0 0 0 79 88 44 65 5 7 47 62 61 61 59 59 61 63 64 66 67 67 67 68 71 69 66 68 70 69 70 71 70 71 71 69 69 68 66 67 65 62 37 43 41 54 47 52 64 64 63 64 66 70 67 70 68 71 68 70 68 66 59 64 65 68 69 67 67 64 64 65 62 60 59 65 61 48 11 21 13 72 34 88 68 0 0 0 0 0 0 0 0 0 0 0 0 0 0 0 0 0 0 0 0 0 0 0 0 0 
0 0 0 0 0 0 0 0 0 0 0 0 0 0 0 0 0 0 0 0 0 13 78 88 56 71 6 4 45 52 52 47 57 56 57 61 62 64 64 67 70 71 72 69 71 71 69 68 73 72 72 71 74 69 69 67 67 66 63 55 37 42 36 47 53 43 57 63 66 65 68 67 70 67 70 70 68 68 68 68 65 67 67 67 66 66 62 62 62 63 61 64 61 62 61 58 16 16 12 46 34 88 71 0 0 0 0 0 0 0 0 0 0 0 0 0 0 0 0 0 0 0 0 0 0 0 0 0 
0 0 0 0 0 0 0 0 0 0 0 0 0 0 0 0 0 0 0 0 0 14 78 88 51 68 9 4 36 52 62 49 51 62 55 54 55 60 61 63 67 68 71 70 73 69 72 69 73 75 75 72 72 70 69 70 65 66 64 42 46 46 42 57 70 44 49 65 65 65 67 68 67 69 71 72 70 67 69 66 69 70 69 65 67 61 64 64 66 64 67 65 65 63 61 56 26 13 19 41 39 70 80 0 0 0 0 0 0 0 0 0 0 0 0 0 0 0 0 0 0 0 0 0 0 0 0 0 
0 0 0 0 0 0 0 0 0 0 0 0 0 0 0 0 0 0 0 0 0 13 83 88 41 64 7 4 26 49 58 61 42 61 60 62 62 59 57 54 59 62 67 72 71 70 72 71 69 71 79 76 71 70 71 70 66 62 55 31 55 55 71 67 77 37 44 62 63 64 65 66 68 69 71 69 69 67 69 66 69 71 68 67 67 68 67 69 68 69 65 70 65 62 60 55 33 6 20 38 43 88 55 0 0 0 0 0 0 0 0 0 0 0 0 0 0 0 0 0 0 0 0 0 0 0 0 0 
0 0 0 0 0 0 0 0 0 0 0 0 0 0 0 0 0 0 0 0 0 18 76 88 32 68 12 5 25 46 60 60 51 39 66 57 62 61 60 56 57 63 64 74 68 68 72 73 60 42 45 70 71 66 65 70 68 56 47 30 46 29 69 39 41 43 39 51 62 68 68 63 68 67 68 70 74 71 70 68 66 70 69 68 68 69 68 66 68 64 63 63 62 64 58 52 31 5 17 40 50 88 48 0 0 0 0 0 0 0 0 0 0 0 0 0 0 0 0 0 0 0 0 0 0 0 0 0 
0 0 0 0 0 0 0 0 0 0 0 0 0 0 0 0 0 0 0 0 0 13 69 88 88 54 14 13 25 39 52 60 61 40 58 58 62 59 59 59 63 63 70 72 71 70 71 40 25 57 77 76 49 65 63 52 37 36 68 65 52 6 68 4 31 42 46 49 53 67 65 58 66 63 58 56 46 63 66 69 65 68 71 68 70 63 66 62 63 57 56 60 60 58 57 47 27 7 18 34 63 88 34 0 0 0 0 0 0 0 0 0 0 0 0 0 0 0 0 0 0 0 0 0 0 0 0 0 
0 0 0 0 0 0 0 0 0 0 0 0 0 0 0 0 0 0 0 0 0 0 73 88 88 55 17 12 24 29 57 61 63 53 51 61 61 58 54 56 62 66 72 72 72 73 51 27 30 48 63 37 41 53 63 63 62 47 43 45 27 27 7 16 43 41 34 57 42 46 58 60 60 51 66 74 51 47 57 73 69 66 70 68 69 63 60 57 51 55 55 58 60 56 60 39 37 5 18 31 71 88 30 0 0 0 0 0 0 0 0 0 0 0 0 0 0 0 0 0 0 0 0 0 0 0 0 0 
0 0 0 0 0 0 0 0 0 0 0 0 0 0 0 0 0 0 0 0 0 0 62 88 88 52 24 9 17 26 62 60 60 61 59 62 61 64 61 63 63 67 72 73 72 70 31 34 36 55 61 54 32 54 65 66 63 54 43 33 36 17 26 26 77 65 80 70 42 66 65 63 64 58 50 56 46 29 47 67 71 66 70 69 64 60 54 55 59 57 61 59 54 55 41 47 51 1 18 32 80 88 19 0 0 0 0 0 0 0 0 0 0 0 0 0 0 0 0 0 0 0 0 0 0 0 0 0 
0 0 0 0 0 0 0 0 0 0 0 0 0 0 0 0 0 0 0 0 0 0 55 88 88 51 26 13 11 31 63 62 61 60 65 66 67 68 64 63 65 68 74 74 73 53 25 31 63 70 83 68 35 57 63 64 65 62 43 29 44 20 30 8 68 46 19 34 56 67 67 63 64 51 52 46 55 47 37 62 70 68 66 72 67 62 59 61 65 62 61 62 55 50 52 57 55 4 13 34 80 88 13 0 0 0 0 0 0 0 0 0 0 0 0 0 0 0 0 0 0 0 0 0 0 0 0 0 
0 0 0 0 0 0 0 0 0 0 0 0 0 0 0 0 0 0 0 0 0 0 42 88 88 51 27 11 14 34 64 60 60 62 65 64 67 69 72 71 73 74 71 73 76 37 26 28 41 71 88 88 32 61 66 67 63 68 44 33 32 40 56 29 49 17 38 44 59 64 63 67 61 58 39 61 62 51 34 54 72 70 68 68 71 67 63 68 67 61 63 62 57 58 63 60 60 15 0 43 79 88 0 0 0 0 0 0 0 0 0 0 0 0 0 0 0 0 0 0 0 0 0 0 0 0 0 0 
0 0 0 0 0 0 0 0 0 0 0 0 0 0 0 0 0 0 0 0 0 0 31 86 88 76 26 11 13 30 64 60 63 63 62 62 64 68 72 69 74 76 69 74 74 28 29 27 29 42 53 43 34 58 67 72 66 70 49 41 28 32 13 32 25 42 46 51 66 63 68 69 67 56 68 86 53 48 38 42 71 70 67 70 71 70 67 66 67 64 64 61 62 61 60 56 60 9 2 45 88 88 11 0 0 0 0 0 0 0 0 0 0 0 0 0 0 0 0 0 0 0 0 0 0 0 0 0 
0 0 0 0 0 0 0 0 0 0 0 0 0 0 0 0 0 0 0 0 0 0 19 78 88 88 31 6 13 42 55 62 63 63 62 64 64 68 73 73 73 75 72 73 64 24 28 29 28 29 30 32 45 61 70 69 70 69 70 37 37 31 26 30 31 29 49 46 66 67 70 68 67 58 40 76 67 47 23 33 65 71 68 72 71 70 69 67 68 67 65 63 66 64 62 56 55 3 5 44 88 88 18 0 0 0 0 0 0 0 0 0 0 0 0 0 0 0 0 0 0 0 0 0 0 0 0 0 
0 0 0 0 0 0 0 0 0 0 0 0 0 0 0 0 0 0 0 0 0 0 0 71 88 88 39 5 9 42 49 61 62 62 63 62 64 65 71 70 73 74 71 73 61 23 28 27 28 29 31 37 52 62 67 69 69 69 62 42 37 30 23 35 29 33 56 45 67 65 69 63 63 63 44 27 25 30 28 29 65 72 69 70 71 70 67 69 68 66 67 67 63 60 59 56 47 4 9 43 88 88 20 0 0 0 0 0 0 0 0 0 0 0 0 0 0 0 0 0 0 0 0 0 0 0 0 0 
0 0 0 0 0 0 0 0 0 0 0 0 0 0 0 0 0 0 0 0 0 0 0 63 88 88 54 13 9 39 44 61 63 59 60 63 63 64 70 70 71 72 74 71 64 25 31 30 26 28 31 42 59 65 68 66 63 62 62 43 42 26 44 42 45 41 57 50 57 63 65 63 61 66 53 37 34 34 34 31 72 72 69 72 68 68 71 67 68 67 69 63 60 61 60 57 38 11 8 52 88 88 22 0 0 0 0 0 0 0 0 0 0 0 0 0 0 0 0 0 0 0 0 0 0 0 0 0 
0 0 0 0 0 0 0 0 0 0 0 0 0 0 0 0 0 0 0 0 0 0 0 45 87 88 82 13 14 16 45 54 60 61 60 61 63 63 70 73 73 72 73 71 72 32 33 30 30 31 36 48 64 66 63 62 53 60 61 47 44 37 58 61 61 53 50 50 43 59 62 63 55 67 65 43 43 43 44 45 75 73 69 73 71 67 66 64 64 65 63 59 59 59 60 61 29 14 7 73 88 80 16 0 0 0 0 0 0 0 0 0 0 0 0 0 0 0 0 0 0 0 0 0 0 0 0 0 
0 0 0 0 0 0 0 0 0 0 0 0 0 0 0 0 0 0 0 0 0 0 0 25 77 88 88 14 18 2 42 44 61 61 62 63 63 65 71 69 71 67 72 71 75 48 41 36 36 41 43 56 66 64 63 62 42 65 63 63 51 44 61 58 75 65 46 53 53 48 63 63 51 67 70 57 52 51 52 59 72 72 67 73 69 63 63 63 62 64 61 57 55 60 59 60 13 21 2 88 88 77 0 0 0 0 0 0 0 0 0 0 0 0 0 0 0 0 0 0 0 0 0 0 0 0 0 0 
0 0 0 0 0 0 0 0 0 0 0 0 0 0 0 0 0 0 0 0 0 0 0 0 68 88 88 35 13 12 31 40 64 63 62 61 64 66 70 71 64 63 64 72 73 72 52 48 47 47 52 63 68 63 65 51 36 63 64 60 58 48 54 64 52 64 47 61 60 47 62 65 59 64 66 65 59 60 56 68 72 72 72 72 63 63 62 62 62 61 61 62 55 60 55 55 0 20 8 88 88 58 0 0 0 0 0 0 0 0 0 0 0 0 0 0 0 0 0 0 0 0 0 0 0 0 0 0 
0 0 0 0 0 0 0 0 0 0 0 0 0 0 0 0 0 0 0 0 0 0 0 0 56 88 88 73 0 27 16 41 62 61 63 63 64 67 68 65 63 54 60 72 71 71 69 57 55 53 57 68 63 66 64 63 67 65 66 64 55 48 41 45 57 40 56 62 62 56 59 59 63 64 68 67 67 64 64 68 74 69 69 67 63 63 61 61 62 60 59 61 58 62 58 34 4 11 37 88 85 46 0 0 0 0 0 0 0 0 0 0 0 0 0 0 0 0 0 0 0 0 0 0 0 0 0 0 
0 0 0 0 0 0 0 0 0 0 0 0 0 0 0 0 0 0 0 0 0 0 0 0 34 88 88 88 0 35 3 48 56 63 63 62 64 64 69 62 61 57 68 75 71 72 69 68 61 57 63 67 66 63 66 66 67 67 68 63 54 46 56 56 57 59 66 63 63 62 62 62 64 66 68 68 64 63 64 69 68 71 71 66 58 58 60 61 60 63 61 59 57 59 63 15 16 1 81 88 78 30 0 0 0 0 0 0 0 0 0 0 0 0 0 0 0 0 0 0 0 0 0 0 0 0 0 0 
0 0 0 0 0 0 0 0 0 0 0 0 0 0 0 0 0 0 0 0 0 0 0 0 14 76 88 88 14 27 6 40 54 63 63 64 62 63 62 61 59 66 67 75 72 74 72 69 64 61 64 65 68 66 67 67 69 65 63 44 45 44 56 53 57 60 63 62 63 64 63 63 66 65 67 63 61 63 66 68 66 69 69 64 62 60 60 56 56 57 58 61 61 57 59 0 30 0 88 87 83 14 0 0 0 0 0 0 0 0 0 0 0 0 0 0 0 0 0 0 0 0 0 0 0 0 0 0 
0 0 0 0 0 0 0 0 0 0 0 0 0 0 0 0 0 0 0 0 0 0 0 0 0 59 88 88 31 12 22 20 64 60 63 63 63 62 60 59 64 68 70 76 73 71 70 68 67 70 69 66 68 68 65 66 64 61 61 49 50 49 57 50 55 63 63 60 61 60 64 66 66 67 63 61 65 60 67 69 70 71 69 65 65 63 61 61 57 50 56 56 63 51 24 9 28 13 88 88 63 0 0 0 0 0 0 0 0 0 0 0 0 0 0 0 0 0 0 0 0 0 0 0 0 0 0 0 
0 0 0 0 0 0 0 0 0 0 0 0 0 0 0 0 0 0 0 0 0 0 0 0 0 42 88 88 88 0 33 7 58 60 63 61 58 57 58 63 64 71 73 75 74 74 69 67 64 65 67 68 68 67 67 65 62 65 64 68 57 48 53 52 59 63 61 63 62 63 66 66 65 65 62 60 60 64 70 67 69 69 70 68 66 67 64 61 59 61 51 51 51 54 0 44 12 36 88 88 56 0 0 0 0 0 0 0 0 0 0 0 0 0 0 0 0 0 0 0 0 0 0 0 0 0 0 0 
0 0 0 0 0 0 0 0 0 0 0 0 0 0 0 0 0 0 0 0 0 0 0 0 0 19 81 88 88 4 33 15 36 60 59 57 57 61 65 67 69 69 70 72 73 72 71 67 65 58 63 66 70 69 68 69 69 67 67 66 47 48 39 52 58 63 60 66 62 64 65 68 67 64 64 61 61 67 68 68 68 69 71 69 66 66 63 63 60 61 58 57 63 32 6 42 0 78 88 85 36 0 0 0 0 0 0 0 0 0 0 0 0 0 0 0 0 0 0 0 0 0 0 0 0 0 0 0 
0 0 0 0 0 0 0 0 0 0 0 0 0 0 0 0 0 0 0 0 0 0 0 0 0 0 62 88 88 44 13 36 8 56 53 60 63 67 69 69 68 68 69 72 72 72 72 68 64 61 54 67 65 68 68 70 68 69 66 64 56 56 31 56 59 59 63 63 63 67 67 63 63 62 61 58 64 68 66 65 67 69 69 69 66 61 61 59 60 60 58 50 73 3 35 33 0 88 88 75 19 0 0 0 0 0 0 0 0 0 0 0 0 0 0 0 0 0 0 0 0 0 0 0 0 0 0 0 
0 0 0 0 0 0 0 0 0 0 0 0 0 0 0 0 0 0 0 0 0 0 0 0 0 0 31 87 88 88 0 27 2 28 38 61 62 63 65 64 65 67 66 64 72 71 70 72 70 63 59 59 66 67 65 68 67 69 64 65 56 62 27 50 41 53 60 63 64 65 64 63 63 63 63 62 63 67 67 65 67 70 68 67 67 64 62 59 55 58 58 62 44 0 43 5 11 88 88 64 0 0 0 0 0 0 0 0 0 0 0 0 0 0 0 0 0 0 0 0 0 0 0 0 0 0 0 0 
0 0 0 0 0 0 0 0 0 0 0 0 0 0 0 0 0 0 0 0 0 0 0 0 0 0 0 66 88 88 9 6 17 5 31 49 63 64 63 64 67 67 64 66 72 72 73 71 71 65 63 62 65 67 68 68 65 69 65 63 63 59 38 61 61 64 62 63 66 63 65 64 67 60 58 60 67 67 65 63 67 69 68 70 68 63 64 63 62 63 58 73 11 20 21 0 45 88 80 46 0 0 0 0 0 0 0 0 0 0 0 0 0 0 0 0 0 0 0 0 0 0 0 0 0 0 0 0 
0 0 0 0 0 0 0 0 0 0 0 0 0 0 0 0 0 0 0 0 0 0 0 0 0 0 0 43 88 88 55 6 8 9 32 50 57 62 63 66 63 66 65 66 70 71 72 71 67 63 60 62 65 69 68 68 68 67 68 65 66 70 33 62 62 64 64 66 66 66 66 65 64 59 52 62 68 65 65 66 65 64 65 65 62 65 64 64 65 64 59 48 0 22 1 0 88 88 78 15 0 0 0 0 0 0 0 0 0 0 0 0 0 0 0 0 0 0 0 0 0 0 0 0 0 0 0 0 
0 0 0 0 0 0 0 0 0 0 0 0 0 0 0 0 0 0 0 0 0 0 0 0 0 0 0 14 70 88 88 7 7 29 1 53 58 58 63 62 66 64 64 66 69 69 71 64 63 62 60 65 67 71 67 67 63 64 66 66 65 67 34 63 63 64 69 66 65 67 64 63 57 57 57 66 67 68 70 64 63 62 63 63 63 63 63 61 60 62 61 23 16 7 1 41 88 88 49 0 0 0 0 0 0 0 0 0 0 0 0 0 0 0 0 0 0 0 0 0 0 0 0 0 0 0 0 0 
0 0 0 0 0 0 0 0 0 0 0 0 0 0 0 0 0 0 0 0 0 0 0 0 0 0 0 0 44 88 88 78 9 18 21 24 74 51 61 68 64 65 64 65 63 63 65 67 62 50 55 63 67 67 64 57 60 59 60 57 51 64 42 62 63 67 65 66 66 64 63 60 60 57 64 66 68 66 65 61 59 63 63 60 60 59 59 63 63 58 61 5 23 8 5 88 88 73 22 0 0 0 0 0 0 0 0 0 0 0 0 0 0 0 0 0 0 0 0 0 0 0 0 0 0 0 0 0 
0 0 0 0 0 0 0 0 0 0 0 0 0 0 0 0 0 0 0 0 0 0 0 0 0 0 0 0 12 71 88 88 20 2 38 0 57 63 64 67 68 63 62 64 63 66 67 69 68 67 63 60 66 64 63 67 65 64 60 44 37 64 42 67 60 63 64 63 64 65 64 62 54 59 64 66 67 65 63 62 60 60 58 57 61 61 60 58 61 60 34 13 8 0 88 88 83 43 0 0 0 0 0 0 0 0 0 0 0 0 0 0 0 0 0 0 0 0 0 0 0 0 0 0 0 0 0 0 
0 0 0 0 0 0 0 0 0 0 0 0 0 0 0 0 0 0 0 0 0 0 0 0 0 0 0 0 0 42 88 88 88 0 13 15 19 66 64 64 63 64 59 59 61 68 70 68 68 69 65 57 65 68 70 70 69 69 64 63 60 65 60 63 59 62 63 63 63 66 67 63 56 60 63 65 65 65 63 60 57 58 58 60 60 61 58 59 55 56 8 18 3 87 88 88 59 12 0 0 0 0 0 0 0 0 0 0 0 0 0 0 0 0 0 0 0 0 0 0 0 0 0 0 0 0 0 0 
0 0 0 0 0 0 0 0 0 0 0 0 0 0 0 0 0 0 0 0 0 0 0 0 0 0 0 0 0 13 64 88 88 71 0 17 8 46 60 60 58 54 63 62 65 66 70 68 67 63 59 57 61 64 63 65 64 65 66 65 68 67 65 63 63 64 66 64 65 65 64 63 52 48 61 65 65 63 60 60 60 54 59 57 60 57 56 52 52 29 15 7 47 88 88 70 27 0 0 0 0 0 0 0 0 0 0 0 0 0 0 0 0 0 0 0 0 0 0 0 0 0 0 0 0 0 0 0 
0 0 0 0 0 0 0 0 0 0 0 0 0 0 0 0 0 0 0 0 0 0 0 0 0 0 0 0 0 0 43 87 88 88 48 33 45 29 30 39 58 65 63 64 64 67 65 67 62 60 64 66 61 60 54 64 60 61 67 64 63 68 69 62 63 62 63 62 63 66 63 59 58 60 61 65 64 63 60 62 57 58 43 59 54 58 53 55 16 32 15 31 88 88 87 41 0 0 0 0 0 0 0 0 0 0 0 0 0 0 0 0 0 0 0 0 0 0 0 0 0 0 0 0 0 0 0 0 
0 0 0 0 0 0 0 0 0 0 0 0 0 0 0 0 0 0 0 0 0 0 0 0 0 0 0 0 0 0 0 63 88 88 88 24 21 12 37 47 64 63 62 64 63 63 65 65 64 67 68 70 67 63 63 63 65 69 65 61 73 66 65 63 62 61 63 65 64 63 61 59 58 61 63 64 64 63 62 61 63 60 41 58 68 64 46 13 23 4 15 88 88 88 59 0 0 0 0 0 0 0 0 0 0 0 0 0 0 0 0 0 0 0 0 0 0 0 0 0 0 0 0 0 0 0 0 0 
0 0 0 0 0 0 0 0 0 0 0 0 0 0 0 0 0 0 0 0 0 0 0 0 0 0 0 0 0 0 0 28 73 88 88 88 7 18 4 35 62 63 61 59 65 64 62 65 67 68 67 67 66 69 67 67 67 63 62 60 59 60 65 62 62 63 63 63 65 64 62 59 62 59 63 66 65 63 62 64 63 57 47 46 59 34 6 25 2 5 49 88 88 76 20 0 0 0 0 0 0 0 0 0 0 0 0 0 0 0 0 0 0 0 0 0 0 0 0 0 0 0 0 0 0 0 0 0 
0 0 0 0 0 0 0 0 0 0 0 0 0 0 0 0 0 0 0 0 0 0 0 0 0 0 0 0 0 0 0 0 52 87 88 88 52 0 31 4 51 63 63 64 63 65 67 66 66 65 64 62 63 63 65 64 68 66 63 61 58 64 61 69 59 61 63 65 62 57 53 59 63 63 62 64 66 59 63 61 61 56 49 40 13 20 40 1 2 25 88 88 88 50 0 0 0 0 0 0 0 0 0 0 0 0 0 0 0 0 0 0 0 0 0 0 0 0 0 0 0 0 0 0 0 0 0 0 
0 0 0 0 0 0 0 0 0 0 0 0 0 0 0 0 0 0 0 0 0 0 0 0 0 0 0 0 0 0 0 0 13 66 88 88 88 12 5 31 5 53 63 64 66 66 68 66 67 65 61 62 62 63 65 65 63 63 65 64 53 88 61 62 62 61 62 66 64 53 57 62 65 64 63 65 64 61 61 59 59 56 41 5 38 47 3 2 22 88 88 88 67 22 0 0 0 0 0 0 0 0 0 0 0 0 0 0 0 0 0 0 0 0 0 0 0 0 0 0 0 0 0 0 0 0 0 0 
0 0 0 0 0 0 0 0 0 0 0 0 0 0 0 0 0 0 0 0 0 0 0 0 0 0 0 0 0 0 0 0 0 33 78 88 88 88 1 7 31 5 41 63 61 65 63 66 62 64 57 63 65 64 62 56 58 59 64 63 50 88 57 61 62 61 62 63 62 53 55 63 64 64 63 62 63 63 60 57 55 43 7 47 47 3 0 11 88 88 88 80 56 0 0 0 0 0 0 0 0 0 0 0 0 0 0 0 0 0 0 0 0 0 0 0 0 0 0 0 0 0 0 0 0 0 0 0 
0 0 0 0 0 0 0 0 0 0 0 0 0 0 0 0 0 0 0 0 0 0 0 0 0 0 0 0 0 0 0 0 0 0 51 80 88 88 88 0 4 37 8 23 61 60 63 62 62 63 49 62 64 60 63 63 60 63 50 74 56 88 59 60 60 62 63 61 61 53 60 62 64 60 58 62 61 62 59 59 42 16 52 42 3 0 33 88 88 88 88 69 12 0 0 0 0 0 0 0 0 0 0 0 0 0 0 0 0 0 0 0 0 0 0 0 0 0 0 0 0 0 0 0 0 0 0 0 
0 0 0 0 0 0 0 0 0 0 0 0 0 0 0 0 0 0 0 0 0 0 0 0 0 0 0 0 0 0 0 0 0 0 0 60 88 88 88 88 0 3 39 30 6 48 59 58 56 50 51 58 64 68 63 59 63 58 82 56 88 62 60 58 62 63 60 60 55 55 62 62 62 61 59 54 59 57 58 32 13 58 28 1 0 47 88 88 88 88 73 39 0 0 0 0 0 0 0 0 0 0 0 0 0 0 0 0 0 0 0 0 0 0 0 0 0 0 0 0 0 0 0 0 0 0 0 0 
0 0 0 0 0 0 0 0 0 0 0 0 0 0 0 0 0 0 0 0 0 0 0 0 0 0 0 0 0 0 0 0 0 0 0 0 62 85 88 88 88 4 4 24 44 11 21 46 33 41 32 31 38 32 70 80 35 34 38 88 88 43 56 61 61 63 63 58 61 62 61 60 61 63 58 51 46 38 13 22 51 19 7 0 86 88 88 88 88 80 54 0 0 0 0 0 0 0 0 0 0 0 0 0 0 0 0 0 0 0 0 0 0 0 0 0 0 0 0 0 0 0 0 0 0 0 0 0 
0 0 0 0 0 0 0 0 0 0 0 0 0 0 0 0 0 0 0 0 0 0 0 0 0 0 0 0 0 0 0 0 0 0 0 0 0 62 72 88 88 88 2 2 8 53 36 19 36 37 47 83 26 37 33 30 31 60 19 7 88 50 63 64 47 55 60 52 59 70 65 65 57 56 61 40 14 25 51 51 8 3 0 88 88 88 88 84 79 61 0 0 0 0 0 0 0 0 0 0 0 0 0 0 0 0 0 0 0 0 0 0 0 0 0 0 0 0 0 0 0 0 0 0 0 0 0 0 
0 0 0 0 0 0 0 0 0 0 0 0 0 0 0 0 0 0 0 0 0 0 0 0 0 0 0 0 0 0 0 0 0 0 0 0 0 0 60 82 62 88 88 55 0 5 22 46 59 60 55 24 26 33 11 12 44 37 49 44 88 79 56 68 70 72 59 69 63 60 62 67 63 58 52 14 36 64 27 1 6 13 88 88 88 66 86 73 51 0 0 0 0 0 0 0 0 0 0 0 0 0 0 0 0 0 0 0 0 0 0 0 0 0 0 0 0 0 0 0 0 0 0 0 0 0 0 0 
0 0 0 0 0 0 0 0 0 0 0 0 0 0 0 0 0 0 0 0 0 0 0 0 0 0 0 0 0 0 0 0 0 0 0 0 0 0 0 25 82 54 88 88 88 0 2 4 25 46 57 66 66 23 18 28 25 24 46 60 25 39 48 58 56 57 60 56 57 58 57 55 51 38 15 53 50 13 3 0 48 88 88 88 78 82 59 26 0 0 0 0 0 0 0 0 0 0 0 0 0 0 0 0 0 0 0 0 0 0 0 0 0 0 0 0 0 0 0 0 0 0 0 0 0 0 0 0 
0 0 0 0 0 0 0 0 0 0 0 0 0 0 0 0 0 0 0 0 0 0 0 0 0 0 0 0 0 0 0 0 0 0 0 0 0 0 0 0 0 59 76 78 88 88 45 0 2 3 25 43 52 67 74 54 40 42 41 56 62 62 34 21 47 57 56 55 57 56 50 33 20 35 52 25 1 2 1 76 88 88 64 78 69 40 0 0 0 0 0 0 0 0 0 0 0 0 0 0 0 0 0 0 0 0 0 0 0 0 0 0 0 0 0 0 0 0 0 0 0 0 0 0 0 0 0 0 
0 0 0 0 0 0 0 0 0 0 0 0 0 0 0 0 0 0 0 0 0 0 0 0 0 0 0 0 0 0 0 0 0 0 0 0 0 0 0 0 0 0 39 75 66 88 88 88 31 0 0 2 15 32 47 54 63 66 66 67 66 62 69 74 40 29 29 26 20 23 34 52 52 30 5 1 0 44 88 88 75 63 81 44 13 0 0 0 0 0 0 0 0 0 0 0 0 0 0 0 0 0 0 0 0 0 0 0 0 0 0 0 0 0 0 0 0 0 0 0 0 0 0 0 0 0 0 0 
0 0 0 0 0 0 0 0 0 0 0 0 0 0 0 0 0 0 0 0 0 0 0 0 0 0 0 0 0 0 0 0 0 0 0 0 0 0 0 0 0 0 0 19 69 64 59 88 88 88 45 9 0 0 4 20 32 50 60 60 63 62 63 64 61 67 67 67 66 54 35 14 0 0 18 73 88 88 79 55 74 55 16 0 0 0 0 0 0 0 0 0 0 0 0 0 0 0 0 0 0 0 0 0 0 0 0 0 0 0 0 0 0 0 0 0 0 0 0 0 0 0 0 0 0 0 0 0 
0 0 0 0 0 0 0 0 0 0 0 0 0 0 0 0 0 0 0 0 0 0 0 0 0 0 0 0 0 0 0 0 0 0 0 0 0 0 0 0 0 0 0 0 0 39 75 64 50 86 88 88 88 50 13 0 0 0 0 9 14 23 24 28 30 27 27 20 12 0 4 28 82 88 88 88 54 46 73 67 31 0 0 0 0 0 0 0 0 0 0 0 0 0 0 0 0 0 0 0 0 0 0 0 0 0 0 0 0 0 0 0 0 0 0 0 0 0 0 0 0 0 0 0 0 0 0 0 
0 0 0 0 0 0 0 0 0 0 0 0 0 0 0 0 0 0 0 0 0 0 0 0 0 0 0 0 0 0 0 0 0 0 0 0 0 0 0 0 0 0 0 0 0 0 0 40 68 67 47 44 78 88 88 88 88 88 70 66 42 25 32 26 26 30 34 50 71 88 88 88 83 45 42 65 71 54 26 0 0 0 0 0 0 0 0 0 0 0 0 0 0 0 0 0 0 0 0 0 0 0 0 0 0 0 0 0 0 0 0 0 0 0 0 0 0 0 0 0 0 0 0 0 0 0 0 0 
0 0 0 0 0 0 0 0 0 0 0 0 0 0 0 0 0 0 0 0 0 0 0 0 0 0 0 0 0 0 0 0 0 0 0 0 0 0 0 0 0 0 0 0 0 0 0 0 0 14 46 70 61 45 37 51 69 88 88 88 88 88 88 88 88 88 88 88 84 52 42 40 61 68 50 22 0 0 0 0 0 0 0 0 0 0 0 0 0 0 0 0 0 0 0 0 0 0 0 0 0 0 0 0 0 0 0 0 0 0 0 0 0 0 0 0 0 0 0 0 0 0 0 0 0 0 0 0 
0 0 0 0 0 0 0 0 0 0 0 0 0 0 0 0 0 0 0 0 0 0 0 0 0 0 0 0 0 0 0 0 0 0 0 0 0 0 0 0 0 0 0 0 0 0 0 0 0 0 0 0 16 39 53 66 70 61 47 42 38 41 42 42 46 44 56 61 59 67 63 50 22 0 0 0 0 0 0 0 0 0 0 0 0 0 0 0 0 0 0 0 0 0 0 0 0 0 0 0 0 0 0 0 0 0 0 0 0 0 0 0 0 0 0 0 0 0 0 0 0 0 0 0 0 0 0 0 
0 0 0 0 0 0 0 0 0 0 0 0 0 0 0 0 0 0 0 0 0 0 0 0 0 0 0 0 0 0 0 0 0 0 0 0 0 0 0 0 0 0 0 0 0 0 0 0 0 0 0 0 0 0 0 0 11 19 38 54 55 47 42 41 37 32 16 11 11 0 0 0 0 0 0 0 0 0 0 0 0 0 0 0 0 0 0 0 0 0 0 0 0 0 0 0 0 0 0 0 0 0 0 0 0 0 0 0 0 0 0 0 0 0 0 0 0 0 0 0 0 0 0 0 0 0 0 0 
0 0 0 0 0 0 0 0 0 0 0 0 0 0 0 0 0 0 0 0 0 0 0 0 0 0 0 0 0 0 0 0 0 0 0 0 0 0 0 0 0 0 0 0 0 0 0 0 0 0 0 0 0 0 0 0 0 0 0 0 0 0 0 0 0 0 0 0 0 0 0 0 0 0 0 0 0 0 0 0 0 0 0 0 0 0 0 0 0 0 0 0 0 0 0 0 0 0 0 0 0 0 0 0 0 0 0 0 0 0 0 0 0 0 0 0 0 0 0 0 0 0 0 0 0 0 0 0 
