P2
128 128
88
0 0 0 0 0 0 0 0 0 0 0 0 0 0 0 0 0 0 0 0 0 0 0 0 0 0 0 0 0 0 0 0 0 0 0 0 0 0 0 0 0 0 0 0 0 0 0 0 0 0 0 0 0 0 0 0 0 0 0 0 0 0 0 0 0 0 0 0 0 0 0 0 0 0 0 0 0 0 0 0 0 0 0 0 0 0 0 0 0 0 0 0 0 0 0 0 0 0 0 0 0 0 0 0 0 0 0 0 0 0 0 0 0 0 0 0 0 0 0 0 0 0 0 0 0 0 0 0 
0 0 0 0 0 0 0 0 0 0 0 0 0 0 0 0 0 0 0 0 0 0 0 0 0 0 0 0 0 0 0 0 0 0 0 0 0 0 0 0 0 0 0 0 0 0 0 0 0 0 0 0 0 0 0 0 0 0 0 0 0 0 0 0 0 0 0 0 0 0 0 0 0 0 0 0 0 0 0 0 0 0 0 0 0 0 0 0 0 0 0 0 0 0 0 0 0 0 0 0 0 0 0 0 0 0 0 0 0 0 0 0 0 0 0 0 0 0 0 0 0 0 0 0 0 0 0 0 
0 0 0 0 0 0 0 0 0 0 0 0 0 0 0 0 0 0 0 0 0 0 0 0 0 0 0 0 0 0 0 0 0 0 0 0 0 0 0 0 0 0 0 0 0 0 0 0 0 0 0 0 0 0 0 0 0 0 0 0 0 0 0 0 0 0 0 0 0 0 0 0 0 0 0 0 0 0 0 0 0 0 0 0 0 0 0 0 0 0 0 0 0 0 0 0 0 0 0 0 0 0 0 0 0 0 0 0 0 0 0 0 0 0 0 0 0 0 0 0 0 0 0 0 0 0 0 0 
0 0 0 0 0 0 0 0 0 0 0 0 0 0 0 0 0 0 0 0 0 0 0 0 0 0 0 0 0 0 0 0 0 0 0 0 0 0 0 0 0 0 0 0 0 0 0 0 0 0 0 0 0 0 0 0 0 0 0 0 0 0 0 0 0 0 0 0 0 0 0 0 0 0 0 0 0 0 0 0 0 0 0 0 0 0 0 0 0 0 0 0 0 0 0 0 0 0 0 0 0 0 0 0 0 0 0 0 0 0 0 0 0 0 0 0 0 0 0 0 0 0 0 0 0 0 0 0 
0 0 0 0 0 0 0 0 0 0 0 0 0 0 0 0 0 0 0 0 0 0 0 0 0 0 0 0 0 0 0 0 0 0 0 0 0 0 0 0 0 0 0 0 0 0 0 0 0 0 0 0 0 0 0 0 0 0 0 0 0 0 0 0 0 0 0 0 0 0 0 0 0 0 0 0 0 0 0 0 0 0 0 0 0 0 0 0 0 0 0 0 0 0 0 0 0 0 0 0 0 0 0 0 0 0 0 0 0 0 0 0 0 0 0 0 0 0 0 0 0 0 0 0 0 0 0 0 
0 0 0 0 0 0 0 0 0 0 0 0 0 0 0 0 0 0 0 0 0 0 0 0 0 0 0 0 0 0 0 0 0 0 0 0 0 0 0 0 0 0 0 0 0 0 0 0 0 0 0 0 0 0 0 0 0 0 0 0 0 0 0 0 0 0 0 0 0 0 0 0 0 0 0 0 0 0 0 0 0 0 0 0 0 0 0 0 0 0 0 0 0 0 0 0 0 0 0 0 0 0 0 0 0 0 0 0 0 0 0 0 0 0 0 0 0 0 0 0 0 0 0 0 0 0 0 0 
0 0 0 0 0 0 0 0 0 0 0 0 0 0 0 0 0 0 0 0 0 0 0 0 0 0 0 0 0 0 0 0 0 0 0 0 0 0 0 0 0 0 0 0 0 0 0 0 0 0 0 0 0 0 0 0 0 0 0 0 0 0 0 0 0 0 0 0 0 0 0 0 0 0 0 0 0 0 0 0 0 0 0 0 0 0 0 0 0 0 0 0 0 0 0 0 0 0 0 0 0 0 0 0 0 0 0 0 0 0 0 0 0 0 0 0 0 0 0 0 0 0 0 0 0 0 0 0 
0 0 0 0 0 0 0 0 0 0 0 0 0 0 0 0 0 0 0 0 0 0 0 0 0 0 0 0 0 0 0 0 0 0 0 0 0 0 0 0 0 0 0 0 0 0 0 0 0 0 0 0 0 0 0 0 0 0 0 0 0 0 0 0 0 0 0 0 0 0 0 0 0 0 0 0 0 0 0 0 0 0 0 0 0 0 0 0 0 0 0 0 0 0 0 0 0 0 0 0 0 0 0 0 0 0 0 0 0 0 0 0 0 0 0 0 0 0 0 0 0 0 0 0 0 0 0 0 
0 0 0 0 0 0 0 0 0 0 0 0 0 0 0 0 0 0 0 0 0 0 0 0 0 0 0 0 0 0 0 0 0 0 0 0 0 0 0 0 0 0 0 0 0 0 0 0 0 0 0 0 0 0 0 0 0 0 0 0 0 0 0 0 0 0 0 0 0 0 0 0 0 0 0 0 0 0 0 0 0 0 0 0 0 0 0 0 0 0 0 0 0 0 0 0 0 0 0 0 0 0 0 0 0 0 0 0 0 0 0 0 0 0 0 0 0 0 0 0 0 0 0 0 0 0 0 0 
0 0 0 0 0 0 0 0 0 0 0 0 0 0 0 0 0 0 0 0 0 0 0 0 0 0 0 0 0 0 0 0 0 0 0 0 0 0 0 0 0 0 0 0 0 0 0 0 0 0 0 0 0 0 0 0 0 0 0 0 0 0 0 0 0 0 0 0 0 0 0 0 0 0 0 0 0 0 0 0 0 0 0 0 0 0 0 0 0 0 0 0 0 0 0 0 0 0 0 0 0 0 0 0 0 0 0 0 0 0 0 0 0 0 0 0 0 0 0 0 0 0 0 0 0 0 0 0 
0 0 0 0 0 0 0 0 0 0 0 0 0 0 0 0 0 0 0 0 0 0 0 0 0 0 0 0 0 0 0 0 0 0 0 0 0 0 0 0 0 0 0 0 0 0 0 0 0 0 0 0 0 0 0 0 0 0 0 0 0 0 0 0 0 0 0 0 0 0 0 0 0 0 0 0 0 0 0 0 0 0 0 0 0 0 0 0 0 0 0 0 0 0 0 0 0 0 0 0 0 0 0 0 0 0 0 0 0 0 0 0 0 0 0 0 0 0 0 0 0 0 0 0 0 0 0 0 
0 0 0 0 0 0 0 0 0 0 0 0 0 0 0 0 0 0 0 0 0 0 0 0 0 0 0 0 0 0 0 0 0 0 0 0 0 0 0 0 0 0 0 0 0 0 0 0 0 0 0 0 0 0 0 0 0 0 0 0 0 0 0 0 0 0 0 0 0 0 0 0 0 0 0 0 0 0 0 0 0 0 0 0 0 0 0 0 0 0 0 0 0 0 0 0 0 0 0 0 0 0 0 0 0 0 0 0 0 0 0 0 0 0 0 0 0 0 0 0 0 0 0 0 0 0 0 0 
0 0 0 0 0 0 0 0 0 0 0 0 0 0 0 0 0 0 0 0 0 0 0 0 0 0 0 0 0 0 0 0 0 0 0 0 0 0 0 0 0 0 0 0 0 0 0 0 0 0 0 0 0 0 0 0 0 0 0 0 0 0 0 0 0 0 0 0 0 0 0 0 0 0 0 0 0 0 0 0 0 0 0 0 0 0 0 0 0 0 0 0 0 0 0 0 0 0 0 0 0 0 0 0 0 0 0 0 0 0 0 0 0 0 0 0 0 0 0 0 0 0 0 0 0 0 0 0 
0 0 0 0 0 0 0 0 0 0 0 0 0 0 0 0 0 0 0 0 0 0 0 0 0 0 0 0 0 0 0 0 0 0 0 0 0 0 0 0 0 0 0 0 0 0 0 0 0 0 0 0 0 0 0 0 0 0 0 0 0 0 0 0 0 0 0 0 0 0 0 0 0 0 0 0 0 0 0 0 0 0 0 0 0 0 0 0 0 0 0 0 0 0 0 0 0 0 0 0 0 0 0 0 0 0 0 0 0 0 0 0 0 0 0 0 0 0 0 0 0 0 0 0 0 0 0 0 
0 0 0 0 0 0 0 0 0 0 0 0 0 0 0 0 0 0 0 0 0 0 0 0 0 0 0 0 0 0 0 0 0 0 0 0 0 0 0 0 0 0 0 0 0 0 0 0 0 0 0 0 0 0 0 0 0 0 0 0 0 0 0 0 0 0 0 0 0 0 0 0 0 0 0 0 0 0 0 0 0 0 0 0 0 0 0 0 0 0 0 0 0 0 0 0 0 0 0 0 0 0 0 0 0 0 0 0 0 0 0 0 0 0 0 0 0 0 0 0 0 0 0 0 0 0 0 0 
0 0 0 0 0 0 0 0 0 0 0 0 0 0 0 0 0 0 0 0 0 0 0 0 0 0 0 0 0 0 0 0 0 0 0 0 0 0 0 0 0 0 0 0 0 0 0 0 0 0 0 0 0 0 0 0 0 0 0 0 0 0 0 0 0 0 0 0 0 0 0 0 0 0 0 0 0 0 0 0 0 0 0 0 0 0 0 0 0 0 0 0 0 0 0 0 0 0 0 0 0 0 0 0 0 0 0 0 0 0 0 0 0 0 0 0 0 0 0 0 0 0 0 0 0 0 0 0 
0 0 0 0 0 0 0 0 0 0 0 0 0 0 0 0 0 0 0 0 0 0 0 0 0 0 0 0 0 0 0 0 0 0 0 0 0 0 0 0 0 0 0 0 0 0 0 0 0 0 0 0 0 0 0 15 30 54 64 79 85 75 77 76 68 55 51 30 13 0 0 0 0 0 0 0 0 0 0 0 0 0 0 0 0 0 0 0 0 0 0 0 0 0 0 0 0 0 0 0 0 0 0 0 0 0 0 0 0 0 0 0 0 0 0 0 0 0 0 0 0 0 0 0 0 0 0 0 
0 0 0 0 0 0 0 0 0 0 0 0 0 0 0 0 0 0 0 0 0 0 0 0 0 0 0 0 0 0 0 0 0 0 0 0 0 0 0 0 0 0 0 0 0 0 0 0 0 0 0 35 88 88 88 88 88 88 88 88 88 88 88 88 88 88 88 88 88 88 88 88 49 13 0 0 0 0 0 0 0 0 0 0 0 0 0 0 0 0 0 0 0 0 0 0 0 0 0 0 0 0 0 0 0 0 0 0 0 0 0 0 0 0 0 0 0 0 0 0 0 0 0 0 0 0 0 0 
0 0 0 0 0 0 0 0 0 0 0 0 0 0 0 0 0 0 0 0 0 0 0 0 0 0 0 0 0 0 0 0 0 0 0 0 0 0 0 0 0 0 0 0 0 0 0 0 30 88 88 88 88 88 74 50 30 28 29 34 31 30 33 34 28 30 28 43 48 85 88 88 88 88 88 52 0 0 0 0 0 0 0 0 0 0 0 0 0 0 0 0 0 0 0 0 0 0 0 0 0 0 0 0 0 0 0 0 0 0 0 0 0 0 0 0 0 0 0 0 0 0 0 0 0 0 0 0 
0 0 0 0 0 0 0 0 0 0 0 0 0 0 0 0 0 0 0 0 0 0 0 0 0 0 0 0 0 0 0 0 0 0 0 0 0 0 0 0 0 0 0 0 0 0 69 88 88 88 68 78 53 31 26 20 16 13 22 30 36 36 49 38 25 23 30 31 28 32 38 32 54 69 88 88 88 64 0 0 0 0 0 0 0 0 0 0 0 0 0 0 0 0 0 0 0 0 0 0 0 0 0 0 0 0 0 0 0 0 0 0 0 0 0 0 0 0 0 0 0 0 0 0 0 0 0 0 
0 0 0 0 0 0 0 0 0 0 0 0 0 0 0 0 0 0 0 0 0 0 0 0 0 0 0 0 0 0 0 0 0 0 0 0 0 0 0 0 0 0 0 0 47 88 88 84 86 45 62 16 24 37 42 43 35 43 41 45 56 64 70 64 78 73 62 61 56 48 43 23 17 26 30 59 75 88 88 81 0 0 0 0 0 0 0 0 0 0 0 0 0 0 0 0 0 0 0 0 0 0 0 0 0 0 0 0 0 0 0 0 0 0 0 0 0 0 0 0 0 0 0 0 0 0 0 0 
0 0 0 0 0 0 0 0 0 0 0 0 0 0 0 0 0 0 0 0 0 0 0 0 0 0 0 0 0 0 0 0 0 0 0 0 0 0 0 0 0 0 0 88 88 88 88 83 43 24 41 53 37 13 3 2 7 7 4 3 6 17 43 54 42 27 15 6 7 18 30 41 47 47 21 18 28 40 87 88 88 26 0 0 0 0 0 0 0 0 0 0 0 0 0 0 0 0 0 0 0 0 0 0 0 0 0 0 0 0 0 0 0 0 0 0 0 0 0 0 0 0 0 0 0 0 0 0 
0 0 0 0 0 0 0 0 0 0 0 0 0 0 0 0 0 0 0 0 0 0 0 0 0 0 0 0 0 0 0 0 0 0 0 0 0 0 0 0 0 0 88 88 88 83 44 25 52 54 29 6 0 7 24 11 31 29 29 31 8 0 5 5 4 0 0 21 22 21 14 6 6 18 47 54 38 20 28 71 88 88 61 0 0 0 0 0 0 0 0 0 0 0 0 0 0 0 0 0 0 0 0 0 0 0 0 0 0 0 0 0 0 0 0 0 0 0 0 0 0 0 0 0 0 0 0 0 
0 0 0 0 0 0 0 0 0 0 0 0 0 0 0 0 0 0 0 0 0 0 0 0 0 0 0 0 0 0 0 0 0 0 0 0 0 0 0 0 0 88 88 72 41 21 46 59 21 0 7 20 31 31 25 31 32 29 26 25 38 60 35 11 18 27 61 40 36 56 57 40 32 27 8 7 40 59 39 16 58 59 88 69 0 0 0 0 0 0 0 0 0 0 0 0 0 0 0 0 0 0 0 0 0 0 0 0 0 0 0 0 0 0 0 0 0 0 0 0 0 0 0 0 0 0 0 0 
0 0 0 0 0 0 0 0 0 0 0 0 0 0 0 0 0 0 0 0 0 0 0 0 0 0 0 0 0 0 0 0 0 0 0 0 0 0 0 0 88 88 56 25 24 63 34 6 13 27 29 27 29 27 25 31 35 33 37 29 25 29 44 48 23 47 36 32 33 51 41 33 28 26 34 20 7 11 40 47 6 39 66 88 79 0 0 0 0 0 0 0 0 0 0 0 0 0 0 0 0 0 0 0 0 0 0 0 0 0 0 0 0 0 0 0 0 0 0 0 0 0 0 0 0 0 0 0 
0 0 0 0 0 0 0 0 0 0 0 0 0 0 0 0 0 0 0 0 0 0 0 0 0 0 0 0 0 0 0 0 0 0 0 0 0 0 0 88 88 46 19 31 70 22 3 20 44 40 46 52 54 53 33 32 31 35 38 38 36 29 30 28 28 42 45 53 54 54 52 52 44 29 26 38 32 22 4 17 49 17 22 74 88 67 0 0 0 0 0 0 0 0 0 0 0 0 0 0 0 0 0 0 0 0 0 0 0 0 0 0 0 0 0 0 0 0 0 0 0 0 0 0 0 0 0 0 
0 0 0 0 0 0 0 0 0 0 0 0 0 0 0 0 0 0 0 0 0 0 0 0 0 0 0 0 0 0 0 0 0 0 0 0 0 0 88 88 44 16 35 68 22 14 56 66 56 52 54 57 59 54 52 35 52 51 46 40 44 37 28 31 44 50 54 54 59 57 57 55 52 50 47 45 38 38 34 14 8 49 20 26 66 88 41 0 0 0 0 0 0 0 0 0 0 0 0 0 0 0 0 0 0 0 0 0 0 0 0 0 0 0 0 0 0 0 0 0 0 0 0 0 0 0 0 0 
0 0 0 0 0 0 0 0 0 0 0 0 0 0 0 0 0 0 0 0 0 0 0 0 0 0 0 0 0 0 0 0 0 0 0 0 0 51 88 50 21 27 68 7 8 33 42 37 31 42 50 56 61 60 51 44 57 56 53 53 50 48 31 50 51 55 56 58 62 60 57 57 55 56 52 53 54 56 52 30 17 5 57 12 29 69 88 15 0 0 0 0 0 0 0 0 0 0 0 0 0 0 0 0 0 0 0 0 0 0 0 0 0 0 0 0 0 0 0 0 0 0 0 0 0 0 0 0 
0 0 0 0 0 0 0 0 0 0 0 0 0 0 0 0 0 0 0 0 0 0 0 0 0 0 0 0 0 0 0 0 0 0 0 0 16 88 64 28 12 65 12 8 40 40 31 28 51 42 57 50 59 61 51 48 57 59 54 54 59 56 42 68 52 57 59 58 63 63 61 62 60 60 58 55 57 59 60 38 37 12 14 55 1 39 88 88 0 0 0 0 0 0 0 0 0 0 0 0 0 0 0 0 0 0 0 0 0 0 0 0 0 0 0 0 0 0 0 0 0 0 0 0 0 0 0 0 
0 0 0 0 0 0 0 0 0 0 0 0 0 0 0 0 0 0 0 0 0 0 0 0 0 0 0 0 0 0 0 0 0 0 0 0 88 88 36 4 67 21 5 42 54 53 50 45 38 48 46 51 59 62 55 48 62 66 61 60 60 56 45 72 54 57 54 59 64 67 64 61 61 60 60 62 60 59 57 39 28 30 2 37 77 3 38 88 76 0 0 0 0 0 0 0 0 0 0 0 0 0 0 0 0 0 0 0 0 0 0 0 0 0 0 0 0 0 0 0 0 0 0 0 0 0 0 0 
0 0 0 0 0 0 0 0 0 0 0 0 0 0 0 0 0 0 0 0 0 0 0 0 0 0 0 0 0 0 0 0 0 0 0 40 88 44 5 52 36 1 32 53 56 59 53 51 52 41 50 52 60 64 54 57 63 65 58 54 56 54 69 41 59 59 55 56 59 64 64 63 61 59 57 60 62 55 57 32 41 38 35 0 42 44 12 44 88 32 0 0 0 0 0 0 0 0 0 0 0 0 0 0 0 0 0 0 0 0 0 0 0 0 0 0 0 0 0 0 0 0 0 0 0 0 0 0 
0 0 0 0 0 0 0 0 0 0 0 0 0 0 0 0 0 0 0 0 0 0 0 0 0 0 0 0 0 0 0 0 0 0 0 88 76 18 31 50 0 29 50 55 58 60 51 51 53 52 46 53 60 63 60 61 66 59 51 49 53 54 64 50 58 59 57 57 62 65 64 63 61 55 56 61 60 56 57 53 54 56 51 30 0 65 20 21 75 88 0 0 0 0 0 0 0 0 0 0 0 0 0 0 0 0 0 0 0 0 0 0 0 0 0 0 0 0 0 0 0 0 0 0 0 0 0 0 
0 0 0 0 0 0 0 0 0 0 0 0 0 0 0 0 0 0 0 0 0 0 0 0 0 0 0 0 0 0 0 0 0 0 57 88 28 9 64 5 19 46 52 53 57 59 48 52 54 55 52 50 60 66 63 64 63 53 49 50 57 59 42 55 57 56 58 58 62 65 67 66 63 57 60 61 57 54 56 56 59 56 59 56 14 13 73 3 32 88 58 0 0 0 0 0 0 0 0 0 0 0 0 0 0 0 0 0 0 0 0 0 0 0 0 0 0 0 0 0 0 0 0 0 0 0 0 0 
0 0 0 0 0 0 0 0 0 0 0 0 0 0 0 0 0 0 0 0 0 0 0 0 0 0 0 0 0 0 0 0 0 0 88 54 9 43 34 3 45 52 54 54 59 61 54 48 60 57 57 49 60 66 64 68 61 55 55 59 55 58 53 58 55 59 59 58 63 64 67 69 64 60 62 61 58 56 58 58 62 60 55 64 59 2 29 48 5 64 88 0 0 0 0 0 0 0 0 0 0 0 0 0 0 0 0 0 0 0 0 0 0 0 0 0 0 0 0 0 0 0 0 0 0 0 0 0 
0 0 0 0 0 0 0 0 0 0 0 0 0 0 0 0 0 0 0 0 0 0 0 0 0 0 0 0 0 0 0 0 0 58 88 25 11 56 7 22 52 53 55 55 58 62 60 54 58 58 58 58 59 66 65 66 63 58 60 60 58 55 63 46 57 59 59 64 67 67 68 68 65 62 64 58 58 57 60 62 63 57 57 52 63 31 0 54 12 23 88 76 0 0 0 0 0 0 0 0 0 0 0 0 0 0 0 0 0 0 0 0 0 0 0 0 0 0 0 0 0 0 0 0 0 0 0 0 
0 0 0 0 0 0 0 0 0 0 0 0 0 0 0 0 0 0 0 0 0 0 0 0 0 0 0 0 0 0 0 0 0 88 52 8 44 31 5 41 56 56 57 58 60 63 61 57 56 61 62 59 63 65 68 65 63 63 62 63 60 55 56 31 58 56 60 62 65 68 68 68 69 61 62 61 57 61 59 63 63 59 56 56 53 54 14 21 55 2 49 88 11 0 0 0 0 0 0 0 0 0 0 0 0 0 0 0 0 0 0 0 0 0 0 0 0 0 0 0 0 0 0 0 0 0 0 0 
0 0 0 0 0 0 0 0 0 0 0 0 0 0 0 0 0 0 0 0 0 0 0 0 0 0 0 0 0 0 0 0 59 88 17 15 68 12 20 47 52 55 58 60 61 60 62 59 57 60 67 65 64 69 64 65 67 62 63 63 57 57 57 49 48 52 59 59 57 59 67 68 68 63 61 63 63 61 62 66 63 56 50 54 57 58 46 0 64 13 18 86 66 0 0 0 0 0 0 0 0 0 0 0 0 0 0 0 0 0 0 0 0 0 0 0 0 0 0 0 0 0 0 0 0 0 0 0 
0 0 0 0 0 0 0 0 0 0 0 0 0 0 0 0 0 0 0 0 0 0 0 0 0 0 0 0 0 0 0 0 88 44 6 53 31 0 47 55 52 52 55 59 61 61 63 62 60 59 66 65 68 66 66 65 66 63 62 61 58 60 62 57 59 56 59 53 55 58 61 71 68 70 64 63 63 63 65 66 60 56 54 57 61 57 55 6 34 43 6 60 88 0 0 0 0 0 0 0 0 0 0 0 0 0 0 0 0 0 0 0 0 0 0 0 0 0 0 0 0 0 0 0 0 0 0 0 
0 0 0 0 0 0 0 0 0 0 0 0 0 0 0 0 0 0 0 0 0 0 0 0 0 0 0 0 0 0 0 36 88 17 13 62 0 31 49 39 53 58 53 57 61 62 64 61 61 63 64 67 67 68 67 68 65 64 62 61 57 54 36 58 60 57 57 58 58 57 63 68 67 70 67 68 70 67 66 69 62 61 62 63 63 55 60 25 4 64 3 25 88 44 0 0 0 0 0 0 0 0 0 0 0 0 0 0 0 0 0 0 0 0 0 0 0 0 0 0 0 0 0 0 0 0 0 0 
0 0 0 0 0 0 0 0 0 0 0 0 0 0 0 0 0 0 0 0 0 0 0 0 0 0 0 0 0 0 0 88 69 13 37 29 8 49 53 55 55 52 53 53 54 61 64 64 62 63 65 68 69 67 66 67 63 59 60 59 58 47 86 52 61 63 60 57 62 63 68 70 70 69 69 69 68 69 68 64 66 64 62 63 63 63 57 51 0 45 36 20 76 88 0 0 0 0 0 0 0 0 0 0 0 0 0 0 0 0 0 0 0 0 0 0 0 0 0 0 0 0 0 0 0 0 0 0 
0 0 0 0 0 0 0 0 0 0 0 0 0 0 0 0 0 0 0 0 0 0 0 0 0 0 0 0 0 0 22 88 32 13 63 1 32 58 52 58 58 55 57 57 53 56 62 67 64 67 66 66 69 66 69 65 59 54 54 57 58 23 64 53 61 66 63 63 61 68 68 69 72 70 69 69 69 68 64 62 61 60 58 59 58 56 57 52 18 13 70 14 41 88 26 0 0 0 0 0 0 0 0 0 0 0 0 0 0 0 0 0 0 0 0 0 0 0 0 0 0 0 0 0 0 0 0 0 
0 0 0 0 0 0 0 0 0 0 0 0 0 0 0 0 0 0 0 0 0 0 0 0 0 0 0 0 0 0 88 85 27 35 40 5 52 52 56 58 56 58 57 58 55 55 60 65 64 67 67 68 68 70 65 65 54 57 56 56 56 49 51 56 59 65 67 62 68 68 69 72 70 71 70 70 68 67 63 60 60 56 54 56 53 49 52 41 56 0 54 13 49 88 88 0 0 0 0 0 0 0 0 0 0 0 0 0 0 0 0 0 0 0 0 0 0 0 0 0 0 0 0 0 0 0 0 0 
0 0 0 0 0 0 0 0 0 0 0 0 0 0 0 0 0 0 0 0 0 0 0 0 0 0 0 0 0 0 88 38 25 51 9 27 52 56 53 58 59 60 61 62 56 56 60 66 66 67 66 67 67 69 69 66 61 60 59 59 61 58 54 58 63 66 67 66 69 70 71 71 70 72 72 72 69 67 63 60 58 62 54 59 56 58 57 57 56 24 12 36 44 43 88 12 0 0 0 0 0 0 0 0 0 0 0 0 0 0 0 0 0 0 0 0 0 0 0 0 0 0 0 0 0 0 0 0 
0 0 0 0 0 0 0 0 0 0 0 0 0 0 0 0 0 0 0 0 0 0 0 0 0 0 0 0 0 63 88 42 23 56 0 44 54 55 53 51 54 59 61 62 63 62 63 69 65 67 67 69 68 70 69 68 65 63 65 63 60 53 47 61 58 61 66 69 72 72 70 70 71 72 73 70 69 67 62 63 58 52 50 58 58 59 60 59 57 58 0 32 26 39 88 71 0 0 0 0 0 0 0 0 0 0 0 0 0 0 0 0 0 0 0 0 0 0 0 0 0 0 0 0 0 0 0 0 
0 0 0 0 0 0 0 0 0 0 0 0 0 0 0 0 0 0 0 0 0 0 0 0 0 0 0 0 0 88 43 62 19 35 8 42 52 55 54 53 52 55 55 59 63 64 66 65 68 67 69 69 69 69 68 66 66 65 66 64 63 50 16 50 57 62 67 67 70 70 71 71 75 70 73 67 69 68 63 60 54 60 55 61 61 61 59 61 59 59 23 13 14 57 64 88 0 0 0 0 0 0 0 0 0 0 0 0 0 0 0 0 0 0 0 0 0 0 0 0 0 0 0 0 0 0 0 0 
0 0 0 0 0 0 0 0 0 0 0 0 0 0 0 0 0 0 0 0 0 0 0 0 0 0 0 0 37 88 32 46 17 5 23 49 57 59 56 55 52 56 58 58 59 65 66 68 67 67 68 67 69 67 68 67 67 66 67 66 62 51 45 60 62 63 66 67 69 69 70 69 71 72 71 71 69 69 66 61 62 63 63 62 61 60 63 61 63 46 56 0 6 56 30 88 45 0 0 0 0 0 0 0 0 0 0 0 0 0 0 0 0 0 0 0 0 0 0 0 0 0 0 0 0 0 0 0 
0 0 0 0 0 0 0 0 0 0 0 0 0 0 0 0 0 0 0 0 0 0 0 0 0 0 0 0 88 71 54 29 9 0 61 57 54 56 54 52 59 58 59 62 65 67 65 66 65 65 70 67 70 71 67 69 67 67 65 63 63 65 56 64 64 65 67 68 67 72 68 71 71 71 71 68 67 68 67 67 65 65 65 64 65 64 65 61 57 56 49 15 2 47 42 88 88 0 0 0 0 0 0 0 0 0 0 0 0 0 0 0 0 0 0 0 0 0 0 0 0 0 0 0 0 0 0 0 
0 0 0 0 0 0 0 0 0 0 0 0 0 0 0 0 0 0 0 0 0 0 0 0 0 0 0 15 88 31 60 14 0 34 57 57 56 56 60 47 54 62 59 63 66 67 66 67 67 67 69 67 70 71 65 56 58 64 68 68 68 66 68 66 66 66 67 69 66 63 67 70 71 69 72 70 70 68 69 66 66 67 65 67 67 64 65 62 59 61 49 32 0 25 60 51 88 13 0 0 0 0 0 0 0 0 0 0 0 0 0 0 0 0 0 0 0 0 0 0 0 0 0 0 0 0 0 0 
0 0 0 0 0 0 0 0 0 0 0 0 0 0 0 0 0 0 0 0 0 0 0 0 0 0 0 79 88 37 48 8 4 57 55 62 60 61 58 62 61 59 59 65 64 66 66 67 67 66 67 68 71 71 48 40 44 52 64 70 65 68 70 66 66 68 62 53 47 42 52 70 72 70 70 66 68 66 66 68 69 66 66 65 66 67 64 64 63 59 50 45 0 17 60 33 88 52 0 0 0 0 0 0 0 0 0 0 0 0 0 0 0 0 0 0 0 0 0 0 0 0 0 0 0 0 0 0 
0 0 0 0 0 0 0 0 0 0 0 0 0 0 0 0 0 0 0 0 0 0 0 0 0 0 0 88 49 62 29 4 13 58 58 62 62 63 66 63 66 67 66 65 67 66 65 65 67 67 68 67 67 71 45 24 25 27 29 39 62 62 52 56 62 57 38 31 30 27 45 71 73 71 70 68 67 64 63 64 70 65 62 63 62 61 63 65 64 59 47 58 3 11 50 37 88 88 0 0 0 0 0 0 0 0 0 0 0 0 0 0 0 0 0 0 0 0 0 0 0 0 0 0 0 0 0 0 
0 0 0 0 0 0 0 0 0 0 0 0 0 0 0 0 0 0 0 0 0 0 0 0 0 0 32 88 31 63 21 8 22 56 62 61 61 61 61 65 62 64 65 65 65 63 63 62 67 65 67 65 69 67 57 28 26 26 26 26 31 48 34 31 47 30 26 31 31 25 51 66 70 70 68 68 66 59 59 61 62 62 61 58 58 57 60 61 58 57 55 56 14 5 44 57 49 88 29 0 0 0 0 0 0 0 0 0 0 0 0 0 0 0 0 0 0 0 0 0 0 0 0 0 0 0 0 0 
0 0 0 0 0 0 0 0 0 0 0 0 0 0 0 0 0 0 0 0 0 0 0 0 0 0 81 88 42 56 20 6 40 57 60 63 63 63 67 65 66 65 66 66 63 62 61 63 67 68 65 67 67 63 63 44 32 28 23 31 26 43 24 25 43 25 27 30 33 37 64 68 67 69 69 68 67 59 59 60 64 61 63 59 58 56 54 50 55 43 47 46 22 2 33 58 34 88 64 0 0 0 0 0 0 0 0 0 0 0 0 0 0 0 0 0 0 0 0 0 0 0 0 0 0 0 0 0 
0 0 0 0 0 0 0 0 0 0 0 0 0 0 0 0 0 0 0 0 0 0 0 0 0 0 88 51 53 50 28 6 47 56 62 61 60 62 62 66 64 65 63 64 61 59 59 65 67 65 66 66 67 65 66 60 46 30 27 29 27 42 25 26 42 24 29 27 46 57 66 66 65 68 67 68 68 58 57 58 63 63 64 63 58 60 59 59 57 51 57 56 32 2 31 54 42 88 88 0 0 0 0 0 0 0 0 0 0 0 0 0 0 0 0 0 0 0 0 0 0 0 0 0 0 0 0 0 
0 0 0 0 0 0 0 0 0 0 0 0 0 0 0 0 0 0 0 0 0 0 0 0 0 24 88 36 56 40 28 1 42 60 56 48 52 59 60 63 65 66 65 64 60 62 63 64 68 68 66 66 66 65 63 63 61 44 29 29 26 45 24 28 39 26 24 37 57 65 64 67 65 68 66 69 66 64 62 54 59 56 60 63 63 64 63 64 61 59 59 58 44 7 22 55 56 52 88 17 0 0 0 0 0 0 0 0 0 0 0 0 0 0 0 0 0 0 0 0 0 0 0 0 0 0 0 0 
0 0 0 0 0 0 0 0 0 0 0 0 0 0 0 0 0 0 0 0 0 0 0 0 0 70 88 41 53 37 21 13 48 60 51 58 35 53 59 61 66 66 67 63 63 65 64 64 68 69 65 67 67 66 67 64 63 55 33 29 25 46 24 28 38 28 27 47 64 66 66 67 69 68 68 71 69 65 60 58 51 54 58 59 60 59 61 61 63 61 62 58 52 8 13 55 58 32 88 44 0 0 0 0 0 0 0 0 0 0 0 0 0 0 0 0 0 0 0 0 0 0 0 0 0 0 0 0 
0 0 0 0 0 0 0 0 0 0 0 0 0 0 0 0 0 0 0 0 0 0 0 0 0 88 71 49 57 27 7 24 88 51 56 57 60 62 60 63 67 66 65 66 66 63 63 63 69 66 66 68 66 68 65 63 62 58 40 27 25 44 23 29 36 30 26 58 67 66 66 70 69 64 63 67 68 64 60 57 59 56 58 46 41 41 60 62 64 60 59 56 49 13 3 53 48 43 88 88 0 0 0 0 0 0 0 0 0 0 0 0 0 0 0 0 0 0 0 0 0 0 0 0 0 0 0 0 
0 0 0 0 0 0 0 0 0 0 0 0 0 0 0 0 0 0 0 0 0 0 0 0 12 88 40 54 56 14 14 46 39 48 58 62 63 63 67 66 67 65 66 66 63 61 62 67 66 68 68 63 65 64 64 66 64 62 40 29 25 47 26 37 33 31 30 62 66 68 67 68 66 67 66 68 69 63 61 57 62 60 62 61 61 64 61 63 62 59 57 36 34 24 4 36 51 59 74 88 0 0 0 0 0 0 0 0 0 0 0 0 0 0 0 0 0 0 0 0 0 0 0 0 0 0 0 0 
0 0 0 0 0 0 0 0 0 0 0 0 0 0 0 0 0 0 0 0 0 0 0 0 40 88 34 56 48 14 2 45 40 48 55 56 59 57 61 63 66 64 63 63 63 60 60 65 68 67 67 67 65 64 67 64 63 64 36 31 27 48 25 39 34 31 29 62 64 65 65 70 68 66 70 68 68 64 61 60 60 64 68 67 69 67 67 63 63 58 58 32 55 22 6 21 55 60 35 88 25 0 0 0 0 0 0 0 0 0 0 0 0 0 0 0 0 0 0 0 0 0 0 0 0 0 0 0 
0 0 0 0 0 0 0 0 0 0 0 0 0 0 0 0 0 0 0 0 0 0 0 0 88 66 42 84 26 23 2 54 52 54 59 58 54 43 52 60 63 66 64 67 62 60 59 67 68 68 67 68 64 65 67 66 64 64 31 33 30 47 27 45 32 31 28 60 64 68 67 68 67 66 68 70 68 69 63 60 58 63 64 67 66 66 63 63 60 60 49 55 59 39 5 16 55 61 38 88 48 0 0 0 0 0 0 0 0 0 0 0 0 0 0 0 0 0 0 0 0 0 0 0 0 0 0 0 
0 0 0 0 0 0 0 0 0 0 0 0 0 0 0 0 0 0 0 0 0 0 0 0 88 87 64 59 20 12 16 56 40 57 59 59 57 61 47 55 66 65 64 62 59 57 58 66 70 69 68 67 66 67 65 66 66 61 31 32 29 56 32 53 35 34 29 52 63 70 71 67 68 66 67 67 72 70 63 60 55 62 63 65 64 60 58 58 57 49 56 57 60 56 6 18 45 50 46 83 88 0 0 0 0 0 0 0 0 0 0 0 0 0 0 0 0 0 0 0 0 0 0 0 0 0 0 0 
0 0 0 0 0 0 0 0 0 0 0 0 0 0 0 0 0 0 0 0 0 0 0 21 88 88 44 52 16 15 35 45 43 59 58 61 63 61 58 61 65 63 62 60 53 53 57 66 68 69 69 66 66 65 66 65 66 55 39 30 56 61 46 66 37 32 31 45 66 70 67 71 69 69 68 67 68 70 65 61 56 60 62 63 66 62 57 38 52 58 57 63 62 39 19 22 31 65 60 88 88 12 0 0 0 0 0 0 0 0 0 0 0 0 0 0 0 0 0 0 0 0 0 0 0 0 0 0 
0 0 0 0 0 0 0 0 0 0 0 0 0 0 0 0 0 0 0 0 0 0 0 27 88 69 55 46 11 15 30 44 52 58 59 63 62 68 67 65 64 60 59 57 60 61 62 68 70 74 68 67 66 64 64 65 70 51 17 41 71 53 56 69 58 72 29 45 66 72 69 68 68 65 66 70 69 69 63 60 52 49 57 59 64 66 62 60 60 60 63 63 59 55 13 33 21 54 50 82 88 27 0 0 0 0 0 0 0 0 0 0 0 0 0 0 0 0 0 0 0 0 0 0 0 0 0 0 
0 0 0 0 0 0 0 0 0 0 0 0 0 0 0 0 0 0 0 0 0 0 0 42 88 36 62 37 25 3 37 44 51 52 57 62 62 63 64 67 63 59 50 60 58 63 67 70 69 69 69 65 68 68 65 68 73 40 61 52 68 25 30 63 51 70 25 48 71 70 66 66 65 68 69 71 65 69 70 61 60 59 57 43 59 62 65 67 68 63 62 61 57 58 9 25 17 53 57 50 88 37 0 0 0 0 0 0 0 0 0 0 0 0 0 0 0 0 0 0 0 0 0 0 0 0 0 0 
0 0 0 0 0 0 0 0 0 0 0 0 0 0 0 0 0 0 0 0 0 0 0 51 88 35 61 21 35 0 40 50 57 57 62 58 61 58 59 64 64 63 41 57 62 60 66 70 68 68 66 67 66 63 67 66 65 67 62 69 65 40 23 22 47 71 65 48 68 69 66 63 65 66 71 66 68 69 70 69 66 63 60 51 48 60 63 66 63 64 61 60 60 58 17 14 28 54 53 34 88 53 0 0 0 0 0 0 0 0 0 0 0 0 0 0 0 0 0 0 0 0 0 0 0 0 0 0 
0 0 0 0 0 0 0 0 0 0 0 0 0 0 0 0 0 0 0 0 0 0 0 66 88 32 63 15 31 1 40 53 56 58 62 64 64 61 57 62 67 60 54 50 60 63 66 73 72 69 68 65 62 63 69 66 66 65 66 69 68 46 27 20 66 65 68 68 68 70 67 63 64 65 69 66 72 69 72 67 62 62 58 57 60 63 64 64 65 63 59 63 59 59 31 7 29 43 53 43 88 74 0 0 0 0 0 0 0 0 0 0 0 0 0 0 0 0 0 0 0 0 0 0 0 0 0 0 
0 0 0 0 0 0 0 0 0 0 0 0 0 0 0 0 0 0 0 0 0 0 0 70 88 35 55 14 19 11 30 57 58 58 58 61 57 46 60 61 63 64 42 51 59 62 66 72 72 71 64 65 64 68 66 66 64 67 66 67 67 51 38 29 66 64 69 68 68 67 68 68 66 64 67 67 69 71 71 62 60 59 51 58 63 68 64 62 59 62 59 65 62 61 46 0 23 30 56 38 88 88 0 0 0 0 0 0 0 0 0 0 0 0 0 0 0 0 0 0 0 0 0 0 0 0 0 0 
0 0 0 0 0 0 0 0 0 0 0 0 0 0 0 0 0 0 0 0 0 0 0 82 88 34 49 14 2 19 34 58 59 56 59 53 55 54 57 59 63 60 52 63 60 62 68 72 73 68 64 63 65 66 66 66 65 66 67 67 68 57 45 40 65 67 67 69 67 68 66 67 63 63 66 68 71 68 68 63 55 50 52 58 59 60 61 57 59 64 61 60 61 60 50 14 13 25 56 42 88 88 12 0 0 0 0 0 0 0 0 0 0 0 0 0 0 0 0 0 0 0 0 0 0 0 0 0 
0 0 0 0 0 0 0 0 0 0 0 0 0 0 0 0 0 0 0 0 0 0 0 88 88 47 34 11 2 33 52 56 59 44 51 63 57 56 58 60 53 45 60 64 61 63 67 71 71 70 63 65 65 68 68 67 68 67 67 65 65 63 42 49 62 65 66 69 67 66 66 66 63 62 62 66 69 73 68 64 61 63 57 54 52 50 57 43 49 53 55 60 58 61 38 31 2 19 54 43 88 88 18 0 0 0 0 0 0 0 0 0 0 0 0 0 0 0 0 0 0 0 0 0 0 0 0 0 
0 0 0 0 0 0 0 0 0 0 0 0 0 0 0 0 0 0 0 0 0 0 0 88 60 58 28 7 1 60 54 33 43 35 44 60 62 64 60 48 22 37 62 63 65 68 68 74 70 61 65 62 64 67 68 69 68 68 66 65 62 65 47 53 64 64 67 65 69 66 63 66 66 62 60 66 69 69 68 65 64 64 59 64 30 32 58 53 31 36 51 58 59 53 30 34 6 15 56 40 88 88 24 0 0 0 0 0 0 0 0 0 0 0 0 0 0 0 0 0 0 0 0 0 0 0 0 0 
0 0 0 0 0 0 0 0 0 0 0 0 0 0 0 0 0 0 0 0 0 0 14 88 71 62 9 3 25 65 50 47 67 66 63 62 63 63 64 63 55 38 60 60 60 66 67 70 75 65 61 60 61 66 70 67 69 71 64 64 65 63 42 59 62 66 66 67 65 68 63 65 63 62 61 64 71 69 70 65 68 59 62 46 33 53 58 60 61 48 35 53 58 51 28 28 2 21 50 50 88 88 25 0 0 0 0 0 0 0 0 0 0 0 0 0 0 0 0 0 0 0 0 0 0 0 0 0 
0 0 0 0 0 0 0 0 0 0 0 0 0 0 0 0 0 0 0 0 0 0 19 88 56 62 1 0 52 59 59 48 58 60 63 63 65 65 64 66 61 58 20 54 59 62 65 69 71 65 59 63 63 68 69 68 68 69 68 62 64 60 32 57 60 65 65 67 68 68 65 64 64 63 63 62 69 69 69 65 59 65 42 39 60 61 61 60 58 54 42 30 36 44 39 23 0 20 32 63 84 88 24 0 0 0 0 0 0 0 0 0 0 0 0 0 0 0 0 0 0 0 0 0 0 0 0 0 
0 0 0 0 0 0 0 0 0 0 0 0 0 0 0 0 0 0 0 0 0 0 35 88 47 53 0 6 61 60 60 54 44 58 63 61 63 63 64 65 64 66 53 40 52 61 62 68 71 66 65 64 67 67 68 68 67 69 67 63 63 64 22 59 60 63 63 64 66 66 66 66 66 61 60 60 68 70 66 61 58 34 50 65 63 63 65 66 61 47 55 58 56 43 41 37 6 18 20 59 71 88 31 0 0 0 0 0 0 0 0 0 0 0 0 0 0 0 0 0 0 0 0 0 0 0 0 0 
0 0 0 0 0 0 0 0 0 0 0 0 0 0 0 0 0 0 0 0 0 0 50 88 41 50 0 16 61 62 62 59 58 50 50 52 58 59 63 67 66 63 62 61 50 60 64 67 72 68 65 65 69 69 73 68 67 67 68 63 63 54 22 51 57 64 64 65 64 66 69 65 67 62 63 63 67 69 64 47 33 52 63 64 63 62 63 63 57 65 60 60 59 57 53 36 13 16 17 59 69 88 41 0 0 0 0 0 0 0 0 0 0 0 0 0 0 0 0 0 0 0 0 0 0 0 0 0 
0 0 0 0 0 0 0 0 0 0 0 0 0 0 0 0 0 0 0 0 0 0 67 88 37 54 0 17 58 62 62 62 61 63 58 52 51 59 62 65 66 65 63 64 61 54 64 63 72 68 67 70 70 68 70 67 67 65 66 62 61 53 33 47 51 63 64 63 63 64 67 67 69 66 63 68 70 69 66 45 52 60 65 63 63 62 63 63 61 62 60 59 61 60 58 43 14 12 14 61 66 88 46 0 0 0 0 0 0 0 0 0 0 0 0 0 0 0 0 0 0 0 0 0 0 0 0 0 
0 0 0 0 0 0 0 0 0 0 0 0 0 0 0 0 0 0 0 0 0 0 74 88 35 57 0 17 59 63 63 63 65 65 63 63 62 63 65 64 65 63 63 63 64 51 62 64 70 69 67 71 73 70 69 66 68 63 63 61 51 79 53 51 43 59 64 60 65 64 65 67 71 69 64 66 71 66 64 56 64 62 63 66 63 63 63 61 62 62 57 67 61 62 60 46 16 13 13 64 60 88 47 0 0 0 0 0 0 0 0 0 0 0 0 0 0 0 0 0 0 0 0 0 0 0 0 0 
0 0 0 0 0 0 0 0 0 0 0 0 0 0 0 0 0 0 0 0 0 11 82 88 44 44 2 20 59 65 63 62 64 62 64 66 64 64 63 63 66 66 63 64 64 63 64 69 69 66 69 71 74 72 70 67 65 67 62 58 60 88 57 70 51 41 64 64 63 64 67 69 69 71 65 66 69 63 60 63 63 63 64 63 65 60 61 60 59 61 60 58 62 62 61 38 14 25 15 68 46 88 51 0 0 0 0 0 0 0 0 0 0 0 0 0 0 0 0 0 0 0 0 0 0 0 0 0 
0 0 0 0 0 0 0 0 0 0 0 0 0 0 0 0 0 0 0 0 0 13 83 88 50 40 0 21 63 59 64 63 64 63 63 63 65 63 66 63 63 67 66 65 66 68 67 68 71 69 72 71 70 75 68 68 65 63 59 53 72 88 31 87 78 42 60 62 63 63 67 69 71 69 74 68 66 67 64 63 64 64 65 62 60 54 50 59 41 46 50 58 63 64 62 42 13 28 11 74 18 88 53 0 0 0 0 0 0 0 0 0 0 0 0 0 0 0 0 0 0 0 0 0 0 0 0 0 
0 0 0 0 0 0 0 0 0 0 0 0 0 0 0 0 0 0 0 0 0 11 80 88 53 44 2 12 60 59 59 63 62 64 63 64 63 66 64 66 65 64 67 67 71 69 68 69 72 69 71 73 69 67 68 65 64 61 60 44 64 71 34 46 88 49 56 58 58 63 62 68 69 72 68 68 67 67 66 66 66 64 64 62 54 46 52 54 57 59 58 61 63 63 61 40 14 21 15 56 69 88 52 0 0 0 0 0 0 0 0 0 0 0 0 0 0 0 0 0 0 0 0 0 0 0 0 0 
0 0 0 0 0 0 0 0 0 0 0 0 0 0 0 0 0 0 0 0 0 12 79 88 35 38 13 0 54 57 61 62 62 63 64 64 64 65 64 64 65 66 67 70 69 70 68 68 68 71 72 55 62 75 68 57 58 62 55 39 42 50 50 42 61 41 50 58 60 60 66 67 62 62 70 67 68 68 65 69 67 64 66 46 59 61 62 63 63 62 61 63 65 63 61 49 23 18 15 48 86 88 43 0 0 0 0 0 0 0 0 0 0 0 0 0 0 0 0 0 0 0 0 0 0 0 0 0 
0 0 0 0 0 0 0 0 0 0 0 0 0 0 0 0 0 0 0 0 0 13 76 88 24 48 17 2 47 48 60 62 61 61 62 66 66 66 66 66 65 67 69 72 68 69 70 71 73 54 25 55 80 78 67 50 52 47 79 52 64 59 62 63 61 57 42 48 60 54 79 73 64 51 46 77 66 67 68 65 68 63 61 61 63 66 62 65 66 63 63 62 64 64 62 53 28 16 15 42 88 88 30 0 0 0 0 0 0 0 0 0 0 0 0 0 0 0 0 0 0 0 0 0 0 0 0 0 
0 0 0 0 0 0 0 0 0 0 0 0 0 0 0 0 0 0 0 0 0 0 78 88 85 43 21 16 29 65 58 63 64 62 63 64 63 66 65 66 66 66 70 71 66 72 69 70 36 25 31 52 52 42 39 49 43 33 78 72 64 59 65 62 64 63 63 63 47 50 62 60 65 63 50 40 71 65 66 66 67 66 66 62 65 66 66 66 63 64 62 63 63 63 60 55 34 14 19 33 88 88 31 0 0 0 0 0 0 0 0 0 0 0 0 0 0 0 0 0 0 0 0 0 0 0 0 0 
0 0 0 0 0 0 0 0 0 0 0 0 0 0 0 0 0 0 0 0 0 0 70 88 88 47 11 28 15 50 60 63 61 58 54 63 61 62 60 61 66 68 70 70 69 70 74 36 26 30 31 35 49 41 51 48 56 59 66 66 61 66 61 65 60 65 64 72 58 52 59 63 49 43 63 28 30 67 65 67 69 66 66 66 68 66 63 65 62 60 60 62 62 61 61 50 37 14 21 31 88 88 15 0 0 0 0 0 0 0 0 0 0 0 0 0 0 0 0 0 0 0 0 0 0 0 0 0 
0 0 0 0 0 0 0 0 0 0 0 0 0 0 0 0 0 0 0 0 0 0 60 88 88 50 6 31 13 31 52 58 60 58 43 60 58 54 61 59 63 66 69 68 70 72 62 24 27 29 31 52 58 52 50 44 57 68 61 57 60 41 49 38 73 64 63 63 66 62 47 63 60 45 34 32 21 49 67 65 64 70 68 67 67 63 62 61 62 63 61 60 62 57 54 52 39 11 20 29 88 86 12 0 0 0 0 0 0 0 0 0 0 0 0 0 0 0 0 0 0 0 0 0 0 0 0 0 
0 0 0 0 0 0 0 0 0 0 0 0 0 0 0 0 0 0 0 0 0 0 56 88 88 47 9 19 13 43 53 62 62 36 40 60 61 59 60 61 63 63 74 66 68 76 35 27 22 31 30 58 65 42 31 46 66 65 64 53 85 13 46 29 70 56 62 68 59 63 51 36 55 48 43 28 26 42 67 66 66 67 71 72 65 61 58 65 60 64 58 59 50 52 59 57 43 5 15 30 88 88 0 0 0 0 0 0 0 0 0 0 0 0 0 0 0 0 0 0 0 0 0 0 0 0 0 0 
0 0 0 0 0 0 0 0 0 0 0 0 0 0 0 0 0 0 0 0 0 0 43 88 88 53 17 12 25 50 61 55 53 58 62 55 59 51 67 68 64 70 75 68 69 78 20 34 18 29 47 72 60 22 29 51 63 69 64 37 74 32 44 88 88 37 52 75 61 57 50 42 22 46 75 35 32 37 60 68 67 70 71 73 63 62 58 63 61 59 57 55 37 59 58 53 42 13 9 38 88 88 12 0 0 0 0 0 0 0 0 0 0 0 0 0 0 0 0 0 0 0 0 0 0 0 0 0 
0 0 0 0 0 0 0 0 0 0 0 0 0 0 0 0 0 0 0 0 0 0 35 88 88 65 22 1 30 57 67 60 61 62 64 60 63 62 64 67 68 71 71 69 73 60 27 26 31 25 36 33 21 31 30 59 58 67 65 33 15 68 41 22 49 24 48 66 62 66 50 42 26 19 80 69 29 31 51 69 64 57 59 73 65 63 58 59 57 57 57 37 44 60 61 58 34 9 5 41 88 88 12 0 0 0 0 0 0 0 0 0 0 0 0 0 0 0 0 0 0 0 0 0 0 0 0 0 
0 0 0 0 0 0 0 0 0 0 0 0 0 0 0 0 0 0 0 0 0 0 28 83 88 88 25 5 13 61 63 65 65 63 63 63 65 66 69 73 71 73 70 72 73 44 29 27 27 26 26 29 32 31 39 63 61 67 65 54 40 43 39 40 34 49 67 61 66 64 65 40 32 29 29 50 30 24 43 63 59 58 67 69 66 63 63 61 66 62 48 42 56 58 62 53 47 4 8 47 88 86 11 0 0 0 0 0 0 0 0 0 0 0 0 0 0 0 0 0 0 0 0 0 0 0 0 0 
0 0 0 0 0 0 0 0 0 0 0 0 0 0 0 0 0 0 0 0 0 0 11 73 88 88 33 3 6 53 60 62 65 68 68 69 69 69 71 70 71 72 70 71 75 31 31 27 26 28 29 31 31 31 44 68 66 68 65 58 57 34 24 35 38 58 62 66 67 67 67 41 33 27 28 25 28 30 34 65 67 66 69 69 68 68 65 65 62 61 60 50 60 58 59 54 39 5 8 60 88 81 12 0 0 0 0 0 0 0 0 0 0 0 0 0 0 0 0 0 0 0 0 0 0 0 0 0 
0 0 0 0 0 0 0 0 0 0 0 0 0 0 0 0 0 0 0 0 0 0 0 65 88 88 39 6 4 45 59 60 62 62 64 66 68 69 69 69 74 72 71 72 71 29 31 27 26 28 29 34 32 33 57 68 69 70 64 61 57 41 37 36 43 63 66 67 66 66 68 53 34 31 27 26 28 27 31 63 70 67 67 69 69 67 68 65 65 64 61 61 59 59 57 44 27 5 11 88 88 79 13 0 0 0 0 0 0 0 0 0 0 0 0 0 0 0 0 0 0 0 0 0 0 0 0 0 
0 0 0 0 0 0 0 0 0 0 0 0 0 0 0 0 0 0 0 0 0 0 0 52 88 88 63 7 2 39 52 60 61 62 60 62 65 63 67 70 73 71 71 68 72 28 30 29 25 27 31 31 35 42 68 67 66 67 63 64 57 47 42 46 54 63 63 67 66 66 65 63 45 37 31 26 28 31 31 64 66 67 70 68 68 69 66 66 62 64 61 61 61 60 52 76 14 7 13 88 88 73 0 0 0 0 0 0 0 0 0 0 0 0 0 0 0 0 0 0 0 0 0 0 0 0 0 0 
0 0 0 0 0 0 0 0 0 0 0 0 0 0 0 0 0 0 0 0 0 0 0 32 82 88 88 11 11 18 47 59 61 63 62 58 62 63 64 68 69 72 73 66 74 28 32 27 27 27 31 31 38 60 66 62 66 61 61 64 49 48 54 36 57 61 60 63 65 63 65 65 53 49 39 25 26 33 31 63 67 67 68 67 65 62 59 61 62 64 61 58 63 59 48 61 13 12 17 88 88 61 0 0 0 0 0 0 0 0 0 0 0 0 0 0 0 0 0 0 0 0 0 0 0 0 0 0 
0 0 0 0 0 0 0 0 0 0 0 0 0 0 0 0 0 0 0 0 0 0 0 16 76 88 88 18 13 6 37 56 58 61 63 60 62 65 66 69 67 65 71 68 75 41 26 31 27 29 30 34 49 69 64 59 58 62 62 62 58 39 49 20 57 60 60 65 62 58 65 67 61 58 48 30 26 32 29 71 65 66 67 66 63 61 60 57 58 59 58 57 53 59 44 52 0 11 49 88 87 48 0 0 0 0 0 0 0 0 0 0 0 0 0 0 0 0 0 0 0 0 0 0 0 0 0 0 
0 0 0 0 0 0 0 0 0 0 0 0 0 0 0 0 0 0 0 0 0 0 0 0 60 88 88 41 15 12 19 47 63 61 60 62 65 66 67 64 62 62 68 73 67 66 30 28 28 30 30 38 65 61 57 49 51 51 54 58 61 37 36 27 63 60 62 62 63 50 61 61 64 60 65 39 31 32 41 70 69 65 68 67 63 63 63 65 59 58 57 59 56 54 47 26 20 2 88 88 79 27 0 0 0 0 0 0 0 0 0 0 0 0 0 0 0 0 0 0 0 0 0 0 0 0 0 0 
0 0 0 0 0 0 0 0 0 0 0 0 0 0 0 0 0 0 0 0 0 0 0 0 49 88 88 80 3 23 18 68 53 57 61 62 69 66 65 61 57 62 68 74 68 70 46 29 29 31 31 60 65 63 56 58 62 55 62 62 61 62 44 38 45 62 62 58 52 47 53 57 63 58 68 55 39 38 61 63 66 66 69 63 63 66 65 63 63 60 59 56 55 38 52 1 37 0 83 88 72 12 0 0 0 0 0 0 0 0 0 0 0 0 0 0 0 0 0 0 0 0 0 0 0 0 0 0 
0 0 0 0 0 0 0 0 0 0 0 0 0 0 0 0 0 0 0 0 0 0 0 0 24 88 88 88 0 39 0 68 53 58 61 67 64 65 61 55 64 63 66 70 68 69 62 35 31 29 34 69 63 58 60 57 63 63 55 58 62 63 52 30 63 65 59 58 61 59 48 43 63 59 61 65 47 55 67 68 66 70 68 61 60 61 61 62 58 59 60 60 56 44 26 9 27 14 88 88 62 0 0 0 0 0 0 0 0 0 0 0 0 0 0 0 0 0 0 0 0 0 0 0 0 0 0 0 
0 0 0 0 0 0 0 0 0 0 0 0 0 0 0 0 0 0 0 0 0 0 0 0 0 72 88 88 2 27 4 26 58 60 64 69 61 62 57 60 63 64 66 70 71 71 71 50 42 33 41 68 62 63 61 52 65 65 65 60 62 62 43 37 60 64 62 63 61 61 53 50 54 62 63 65 52 67 63 69 65 67 67 64 63 61 63 59 60 60 58 58 56 51 1 37 15 44 88 88 47 0 0 0 0 0 0 0 0 0 0 0 0 0 0 0 0 0 0 0 0 0 0 0 0 0 0 0 
0 0 0 0 0 0 0 0 0 0 0 0 0 0 0 0 0 0 0 0 0 0 0 0 0 56 88 88 88 12 23 18 63 62 65 62 61 54 62 62 59 60 63 68 71 70 71 65 51 50 50 65 65 68 63 63 49 64 63 65 65 63 52 51 62 58 59 60 58 65 59 62 56 62 63 62 62 69 69 67 67 70 66 61 59 59 62 62 63 61 55 58 54 29 5 50 0 79 88 81 30 0 0 0 0 0 0 0 0 0 0 0 0 0 0 0 0 0 0 0 0 0 0 0 0 0 0 0 
0 0 0 0 0 0 0 0 0 0 0 0 0 0 0 0 0 0 0 0 0 0 0 0 0 33 88 88 88 0 36 5 64 58 64 63 58 60 60 65 63 63 65 68 71 69 69 67 60 55 55 62 68 65 68 68 66 52 65 62 65 63 49 45 63 59 57 59 63 61 63 62 59 56 63 63 63 69 71 67 68 68 67 61 59 57 60 57 58 55 57 52 30 3 29 36 0 88 88 69 16 0 0 0 0 0 0 0 0 0 0 0 0 0 0 0 0 0 0 0 0 0 0 0 0 0 0 0 
0 0 0 0 0 0 0 0 0 0 0 0 0 0 0 0 0 0 0 0 0 0 0 0 0 0 63 88 88 19 28 16 34 60 60 60 60 60 60 59 61 64 64 70 71 69 70 69 63 61 61 65 65 66 66 66 65 59 57 63 64 62 55 58 63 61 63 62 61 61 63 63 63 56 64 61 63 69 68 68 69 66 66 63 63 60 57 58 57 56 57 49 23 0 54 14 19 88 88 62 0 0 0 0 0 0 0 0 0 0 0 0 0 0 0 0 0 0 0 0 0 0 0 0 0 0 0 0 
0 0 0 0 0 0 0 0 0 0 0 0 0 0 0 0 0 0 0 0 0 0 0 0 0 0 45 88 88 77 3 48 0 51 55 55 57 65 66 63 71 65 67 70 70 70 70 70 69 62 61 63 65 67 67 66 66 57 59 63 63 62 57 49 63 62 62 61 61 62 62 61 59 62 63 62 66 69 65 71 67 67 66 63 63 59 61 63 63 53 58 55 11 18 39 3 57 88 84 41 0 0 0 0 0 0 0 0 0 0 0 0 0 0 0 0 0 0 0 0 0 0 0 0 0 0 0 0 
0 0 0 0 0 0 0 0 0 0 0 0 0 0 0 0 0 0 0 0 0 0 0 0 0 0 21 82 88 88 0 21 23 15 62 56 74 60 60 62 65 64 70 70 70 72 69 70 68 65 62 64 67 66 68 65 64 63 65 66 60 53 59 65 64 62 62 59 62 63 62 61 62 63 61 64 66 66 69 63 67 66 67 64 62 62 61 57 61 54 56 54 1 47 11 0 88 88 74 19 0 0 0 0 0 0 0 0 0 0 0 0 0 0 0 0 0 0 0 0 0 0 0 0 0 0 0 0 
0 0 0 0 0 0 0 0 0 0 0 0 0 0 0 0 0 0 0 0 0 0 0 0 0 0 0 58 88 88 35 3 33 0 43 65 58 62 61 58 66 66 69 70 71 69 71 69 70 64 62 65 67 69 65 67 65 65 67 63 59 48 57 62 63 65 61 64 62 63 62 63 63 63 63 63 65 66 67 67 65 64 62 63 65 60 60 59 61 55 54 39 3 32 2 3 88 85 60 0 0 0 0 0 0 0 0 0 0 0 0 0 0 0 0 0 0 0 0 0 0 0 0 0 0 0 0 0 
0 0 0 0 0 0 0 0 0 0 0 0 0 0 0 0 0 0 0 0 0 0 0 0 0 0 0 38 87 88 88 0 15 31 14 50 65 63 64 63 66 69 68 68 67 68 69 67 65 64 62 65 66 68 66 66 67 65 66 66 63 51 57 63 62 61 62 63 61 63 62 62 62 63 63 65 66 67 66 63 61 66 63 62 63 60 63 58 61 55 53 7 35 8 0 74 88 88 28 0 0 0 0 0 0 0 0 0 0 0 0 0 0 0 0 0 0 0 0 0 0 0 0 0 0 0 0 0 
0 0 0 0 0 0 0 0 0 0 0 0 0 0 0 0 0 0 0 0 0 0 0 0 0 0 0 0 64 88 88 42 0 34 13 32 61 61 63 64 65 67 65 64 62 63 69 68 66 63 62 62 67 67 67 63 62 61 63 63 63 47 54 61 62 63 61 63 59 64 63 64 64 64 63 65 69 65 64 61 62 63 61 61 61 63 61 63 62 57 37 9 29 3 20 88 88 70 0 0 0 0 0 0 0 0 0 0 0 0 0 0 0 0 0 0 0 0 0 0 0 0 0 0 0 0 0 0 
0 0 0 0 0 0 0 0 0 0 0 0 0 0 0 0 0 0 0 0 0 0 0 0 0 0 0 0 39 84 88 88 0 6 41 7 49 60 65 65 62 62 59 62 59 62 67 70 70 66 64 63 64 67 65 66 64 62 53 55 53 42 60 59 58 63 62 61 64 65 64 64 62 62 66 65 68 63 62 62 63 62 59 61 64 63 59 59 57 66 6 42 1 0 88 88 77 28 0 0 0 0 0 0 0 0 0 0 0 0 0 0 0 0 0 0 0 0 0 0 0 0 0 0 0 0 0 0 
0 0 0 0 0 0 0 0 0 0 0 0 0 0 0 0 0 0 0 0 0 0 0 0 0 0 0 0 0 70 88 88 63 0 14 4 30 65 59 56 57 54 57 61 62 62 65 68 68 68 65 63 62 65 65 68 68 65 63 61 67 45 61 61 57 62 63 63 63 65 66 62 59 60 64 66 66 64 63 63 62 61 61 61 63 62 60 63 61 33 13 17 0 88 88 84 51 0 0 0 0 0 0 0 0 0 0 0 0 0 0 0 0 0 0 0 0 0 0 0 0 0 0 0 0 0 0 0 
0 0 0 0 0 0 0 0 0 0 0 0 0 0 0 0 0 0 0 0 0 0 0 0 0 0 0 0 0 40 82 88 88 43 9 25 3 54 56 59 59 59 62 62 58 63 65 67 68 66 65 63 58 62 62 65 66 65 63 65 65 43 62 60 59 63 64 66 60 63 62 63 61 60 63 64 64 63 61 59 60 58 59 59 62 63 63 57 44 4 13 0 62 88 81 68 11 0 0 0 0 0 0 0 0 0 0 0 0 0 0 0 0 0 0 0 0 0 0 0 0 0 0 0 0 0 0 0 
0 0 0 0 0 0 0 0 0 0 0 0 0 0 0 0 0 0 0 0 0 0 0 0 0 0 0 0 0 0 61 88 88 88 19 28 43 29 64 63 62 65 64 62 61 57 63 65 65 68 64 64 64 65 66 63 63 63 64 63 66 41 60 61 58 60 51 64 64 65 63 62 60 63 65 64 65 62 59 62 56 59 59 58 62 63 59 48 20 30 13 19 88 88 87 28 0 0 0 0 0 0 0 0 0 0 0 0 0 0 0 0 0 0 0 0 0 0 0 0 0 0 0 0 0 0 0 0 
0 0 0 0 0 0 0 0 0 0 0 0 0 0 0 0 0 0 0 0 0 0 0 0 0 0 0 0 0 0 19 69 88 88 88 8 34 14 57 60 64 60 61 60 63 60 59 65 67 67 65 66 66 68 63 65 65 64 56 61 65 42 59 63 58 68 66 58 62 62 60 61 60 65 66 66 64 61 60 63 61 56 63 56 58 61 57 3 32 7 5 88 88 86 54 0 0 0 0 0 0 0 0 0 0 0 0 0 0 0 0 0 0 0 0 0 0 0 0 0 0 0 0 0 0 0 0 0 
0 0 0 0 0 0 0 0 0 0 0 0 0 0 0 0 0 0 0 0 0 0 0 0 0 0 0 0 0 0 0 37 86 88 88 56 0 30 11 62 58 60 62 62 61 63 58 63 62 67 64 62 65 64 65 65 63 67 55 63 58 42 62 60 66 70 51 63 62 63 61 60 61 62 64 64 63 61 60 63 63 58 48 50 63 44 7 14 20 0 88 88 88 81 21 0 0 0 0 0 0 0 0 0 0 0 0 0 0 0 0 0 0 0 0 0 0 0 0 0 0 0 0 0 0 0 0 0 
0 0 0 0 0 0 0 0 0 0 0 0 0 0 0 0 0 0 0 0 0 0 0 0 0 0 0 0 0 0 0 0 60 88 88 88 13 12 31 3 55 59 61 63 62 61 57 64 64 65 64 61 63 65 63 63 51 74 60 63 54 48 61 62 63 62 62 61 64 63 62 64 64 63 64 62 64 60 60 61 61 58 56 31 17 9 48 6 0 61 88 88 88 56 0 0 0 0 0 0 0 0 0 0 0 0 0 0 0 0 0 0 0 0 0 0 0 0 0 0 0 0 0 0 0 0 0 0 
0 0 0 0 0 0 0 0 0 0 0 0 0 0 0 0 0 0 0 0 0 0 0 0 0 0 0 0 0 0 0 0 22 73 88 88 88 0 20 36 1 56 62 59 61 62 58 63 66 66 59 60 64 66 63 52 52 75 55 61 42 44 63 62 62 63 59 55 63 61 58 63 62 64 61 60 62 60 59 60 59 55 50 8 35 57 8 2 44 88 88 88 68 22 0 0 0 0 0 0 0 0 0 0 0 0 0 0 0 0 0 0 0 0 0 0 0 0 0 0 0 0 0 0 0 0 0 0 
0 0 0 0 0 0 0 0 0 0 0 0 0 0 0 0 0 0 0 0 0 0 0 0 0 0 0 0 0 0 0 0 0 40 86 88 88 88 0 23 39 8 52 66 56 61 52 63 65 64 63 59 62 63 59 51 61 74 60 54 37 60 63 62 60 63 60 55 61 62 59 63 63 61 57 56 57 60 58 56 59 45 9 47 55 8 1 19 88 88 88 79 47 0 0 0 0 0 0 0 0 0 0 0 0 0 0 0 0 0 0 0 0 0 0 0 0 0 0 0 0 0 0 0 0 0 0 0 
0 0 0 0 0 0 0 0 0 0 0 0 0 0 0 0 0 0 0 0 0 0 0 0 0 0 0 0 0 0 0 0 0 0 56 88 88 88 88 0 20 48 4 30 64 64 60 62 61 64 64 58 62 64 64 62 61 63 53 50 56 61 60 59 60 60 54 64 60 63 63 61 61 62 54 58 59 56 58 58 30 11 54 47 7 2 0 88 88 88 84 62 0 0 0 0 0 0 0 0 0 0 0 0 0 0 0 0 0 0 0 0 0 0 0 0 0 0 0 0 0 0 0 0 0 0 0 0 
0 0 0 0 0 0 0 0 0 0 0 0 0 0 0 0 0 0 0 0 0 0 0 0 0 0 0 0 0 0 0 0 0 0 0 63 83 88 88 81 0 17 52 19 15 51 56 59 61 63 62 58 66 61 61 60 60 63 63 64 88 44 60 61 58 57 52 62 61 63 59 61 61 61 60 56 57 59 46 13 19 63 38 2 0 56 88 88 88 81 72 25 0 0 0 0 0 0 0 0 0 0 0 0 0 0 0 0 0 0 0 0 0 0 0 0 0 0 0 0 0 0 0 0 0 0 0 0 
0 0 0 0 0 0 0 0 0 0 0 0 0 0 0 0 0 0 0 0 0 0 0 0 0 0 0 0 0 0 0 0 0 0 0 0 65 78 88 88 88 0 9 48 40 6 40 60 55 60 57 47 60 67 57 71 51 32 78 72 50 57 58 63 62 51 60 63 63 60 56 55 57 54 58 61 57 37 6 47 66 28 4 0 86 88 88 88 85 79 34 0 0 0 0 0 0 0 0 0 0 0 0 0 0 0 0 0 0 0 0 0 0 0 0 0 0 0 0 0 0 0 0 0 0 0 0 0 
0 0 0 0 0 0 0 0 0 0 0 0 0 0 0 0 0 0 0 0 0 0 0 0 0 0 0 0 0 0 0 0 0 0 0 0 13 63 83 76 88 88 5 1 31 52 23 26 51 63 76 41 9 31 35 19 18 33 88 22 35 46 57 60 53 67 59 57 71 52 51 60 66 63 57 54 18 12 64 60 17 4 4 88 88 88 63 82 70 37 0 0 0 0 0 0 0 0 0 0 0 0 0 0 0 0 0 0 0 0 0 0 0 0 0 0 0 0 0 0 0 0 0 0 0 0 0 0 
0 0 0 0 0 0 0 0 0 0 0 0 0 0 0 0 0 0 0 0 0 0 0 0 0 0 0 0 0 0 0 0 0 0 0 0 0 13 62 85 71 88 88 27 3 15 36 46 30 21 30 13 39 44 30 14 29 83 68 54 68 59 46 61 56 61 55 57 61 45 45 51 39 54 48 13 34 78 36 13 13 2 88 88 88 68 88 64 33 0 0 0 0 0 0 0 0 0 0 0 0 0 0 0 0 0 0 0 0 0 0 0 0 0 0 0 0 0 0 0 0 0 0 0 0 0 0 0 
0 0 0 0 0 0 0 0 0 0 0 0 0 0 0 0 0 0 0 0 0 0 0 0 0 0 0 0 0 0 0 0 0 0 0 0 0 0 0 23 81 57 88 88 88 3 3 15 44 67 69 75 82 61 39 32 27 24 31 68 31 47 59 59 58 59 60 58 58 52 43 52 53 32 13 54 58 14 2 0 54 88 88 77 84 77 40 13 0 0 0 0 0 0 0 0 0 0 0 0 0 0 0 0 0 0 0 0 0 0 0 0 0 0 0 0 0 0 0 0 0 0 0 0 0 0 0 0 
0 0 0 0 0 0 0 0 0 0 0 0 0 0 0 0 0 0 0 0 0 0 0 0 0 0 0 0 0 0 0 0 0 0 0 0 0 0 0 0 13 62 73 80 88 88 36 0 0 14 40 54 58 73 70 77 55 45 46 60 70 50 26 31 56 63 56 57 55 44 29 25 19 37 57 32 4 0 13 88 88 88 53 83 54 13 0 0 0 0 0 0 0 0 0 0 0 0 0 0 0 0 0 0 0 0 0 0 0 0 0 0 0 0 0 0 0 0 0 0 0 0 0 0 0 0 0 0 
0 0 0 0 0 0 0 0 0 0 0 0 0 0 0 0 0 0 0 0 0 0 0 0 0 0 0 0 0 0 0 0 0 0 0 0 0 0 0 0 0 0 43 78 66 88 88 88 39 0 0 8 24 42 53 59 67 70 74 71 73 72 77 65 28 20 25 23 21 31 49 55 59 37 4 0 15 88 88 88 59 66 73 30 0 0 0 0 0 0 0 0 0 0 0 0 0 0 0 0 0 0 0 0 0 0 0 0 0 0 0 0 0 0 0 0 0 0 0 0 0 0 0 0 0 0 0 0 
0 0 0 0 0 0 0 0 0 0 0 0 0 0 0 0 0 0 0 0 0 0 0 0 0 0 0 0 0 0 0 0 0 0 0 0 0 0 0 0 0 0 0 21 73 66 49 88 88 88 73 15 0 0 7 23 35 43 56 56 56 63 63 63 70 69 67 67 61 51 37 18 0 0 28 88 88 88 50 61 77 47 0 0 0 0 0 0 0 0 0 0 0 0 0 0 0 0 0 0 0 0 0 0 0 0 0 0 0 0 0 0 0 0 0 0 0 0 0 0 0 0 0 0 0 0 0 0 
0 0 0 0 0 0 0 0 0 0 0 0 0 0 0 0 0 0 0 0 0 0 0 0 0 0 0 0 0 0 0 0 0 0 0 0 0 0 0 0 0 0 0 0 0 40 70 63 44 56 88 88 88 88 39 16 4 0 0 1 8 13 19 24 27 22 14 12 3 0 11 35 88 88 88 66 41 57 74 50 15 0 0 0 0 0 0 0 0 0 0 0 0 0 0 0 0 0 0 0 0 0 0 0 0 0 0 0 0 0 0 0 0 0 0 0 0 0 0 0 0 0 0 0 0 0 0 0 
0 0 0 0 0 0 0 0 0 0 0 0 0 0 0 0 0 0 0 0 0 0 0 0 0 0 0 0 0 0 0 0 0 0 0 0 0 0 0 0 0 0 0 0 0 0 0 31 58 72 61 41 56 83 88 88 88 88 88 88 88 44 67 47 49 58 75 82 88 88 88 88 58 38 54 70 63 34 0 0 0 0 0 0 0 0 0 0 0 0 0 0 0 0 0 0 0 0 0 0 0 0 0 0 0 0 0 0 0 0 0 0 0 0 0 0 0 0 0 0 0 0 0 0 0 0 0 0 
0 0 0 0 0 0 0 0 0 0 0 0 0 0 0 0 0 0 0 0 0 0 0 0 0 0 0 0 0 0 0 0 0 0 0 0 0 0 0 0 0 0 0 0 0 0 0 0 0 0 22 56 64 60 45 46 53 61 68 88 88 87 85 88 88 79 64 60 56 43 40 44 65 55 34 13 0 0 0 0 0 0 0 0 0 0 0 0 0 0 0 0 0 0 0 0 0 0 0 0 0 0 0 0 0 0 0 0 0 0 0 0 0 0 0 0 0 0 0 0 0 0 0 0 0 0 0 0 
0 0 0 0 0 0 0 0 0 0 0 0 0 0 0 0 0 0 0 0 0 0 0 0 0 0 0 0 0 0 0 0 0 0 0 0 0 0 0 0 0 0 0 0 0 0 0 0 0 0 0 0 0 19 40 55 64 70 69 54 60 65 63 54 58 60 62 64 61 60 47 24 0 0 0 0 0 0 0 0 0 0 0 0 0 0 0 0 0 0 0 0 0 0 0 0 0 0 0 0 0 0 0 0 0 0 0 0 0 0 0 0 0 0 0 0 0 0 0 0 0 0 0 0 0 0 0 0 
0 0 0 0 0 0 0 0 0 0 0 0 0 0 0 0 0 0 0 0 0 0 0 0 0 0 0 0 0 0 0 0 0 0 0 0 0 0 0 0 0 0 0 0 0 0 0 0 0 0 0 0 0 0 0 0 0 0 14 28 22 11 16 15 14 12 0 0 0 0 0 0 0 0 0 0 0 0 0 0 0 0 0 0 0 0 0 0 0 0 0 0 0 0 0 0 0 0 0 0 0 0 0 0 0 0 0 0 0 0 0 0 0 0 0 0 0 0 0 0 0 0 0 0 0 0 0 0 
0 0 0 0 0 0 0 0 0 0 0 0 0 0 0 0 0 0 0 0 0 0 0 0 0 0 0 0 0 0 0 0 0 0 0 0 0 0 0 0 0 0 0 0 0 0 0 0 0 0 0 0 0 0 0 0 0 0 0 0 0 0 0 0 0 0 0 0 0 0 0 0 0 0 0 0 0 0 0 0 0 0 0 0 0 0 0 0 0 0 0 0 0 0 0 0 0 0 0 0 0 0 0 0 0 0 0 0 0 0 0 0 0 0 0 0 0 0 0 0 0 0 0 0 0 0 0 0 
