P2
128 128
88
0 0 0 0 0 0 0 0 0 0 0 0 0 0 0 0 0 0 0 0 0 0 0 0 0 0 0 0 0 0 0 0 0 0 0 0 0 0 0 0 0 0 0 0 0 0 0 0 0 0 0 0 0 0 0 0 0 0 0 0 0 0 0 0 0 0 0 0 0 0 0 0 0 0 0 0 0 0 0 0 0 0 0 0 0 0 0 0 0 0 0 0 0 0 0 0 0 0 0 0 0 0 0 0 0 0 0 0 0 0 0 0 0 0 0 0 0 0 0 0 0 0 0 0 0 0 0 0 
0 0 0 0 0 0 0 0 0 0 0 0 0 0 0 0 0 0 0 0 0 0 0 0 0 0 0 0 0 0 0 0 0 0 0 0 0 0 0 0 0 0 0 0 0 0 0 0 0 0 0 0 0 0 0 0 0 0 0 0 0 0 0 0 0 0 0 0 0 0 0 0 0 0 0 0 0 0 0 0 0 0 0 0 0 0 0 0 0 0 0 0 0 0 0 0 0 0 0 0 0 0 0 0 0 0 0 0 0 0 0 0 0 0 0 0 0 0 0 0 0 0 0 0 0 0 0 0 
0 0 0 0 0 0 0 0 0 0 0 0 0 0 0 0 0 0 0 0 0 0 0 0 0 0 0 0 0 0 0 0 0 0 0 0 0 0 0 0 0 0 0 0 0 0 0 0 0 0 0 0 0 0 0 0 0 0 0 0 0 0 0 0 0 0 0 0 0 0 0 0 0 0 0 0 0 0 0 0 0 0 0 0 0 0 0 0 0 0 0 0 0 0 0 0 0 0 0 0 0 0 0 0 0 0 0 0 0 0 0 0 0 0 0 0 0 0 0 0 0 0 0 0 0 0 0 0 
0 0 0 0 0 0 0 0 0 0 0 0 0 0 0 0 0 0 0 0 0 0 0 0 0 0 0 0 0 0 0 0 0 0 0 0 0 0 0 0 0 0 0 0 0 0 0 0 0 0 0 0 0 0 0 0 0 0 0 0 0 0 0 0 0 0 0 0 0 0 0 0 0 0 0 0 0 0 0 0 0 0 0 0 0 0 0 0 0 0 0 0 0 0 0 0 0 0 0 0 0 0 0 0 0 0 0 0 0 0 0 0 0 0 0 0 0 0 0 0 0 0 0 0 0 0 0 0 
0 0 0 0 0 0 0 0 0 0 0 0 0 0 0 0 0 0 0 0 0 0 0 0 0 0 0 0 0 0 0 0 0 0 0 0 0 0 0 0 0 0 0 0 0 0 0 0 0 0 0 0 0 0 0 0 0 0 0 0 0 0 0 0 0 0 0 0 0 0 0 0 0 0 0 0 0 0 0 0 0 0 0 0 0 0 0 0 0 0 0 0 0 0 0 0 0 0 0 0 0 0 0 0 0 0 0 0 0 0 0 0 0 0 0 0 0 0 0 0 0 0 0 0 0 0 0 0 
0 0 0 0 0 0 0 0 0 0 0 0 0 0 0 0 0 0 0 0 0 0 0 0 0 0 0 0 0 0 0 0 0 0 0 0 0 0 0 0 0 0 0 0 0 0 0 0 0 0 0 0 0 0 0 0 0 0 0 0 0 0 0 0 0 0 0 0 0 0 0 0 0 0 0 0 0 0 0 0 0 0 0 0 0 0 0 0 0 0 0 0 0 0 0 0 0 0 0 0 0 0 0 0 0 0 0 0 0 0 0 0 0 0 0 0 0 0 0 0 0 0 0 0 0 0 0 0 
0 0 0 0 0 0 0 0 0 0 0 0 0 0 0 0 0 0 0 0 0 0 0 0 0 0 0 0 0 0 0 0 0 0 0 0 0 0 0 0 0 0 0 0 0 0 0 0 0 0 0 0 0 0 0 0 0 0 0 0 0 0 0 0 0 0 0 0 0 0 0 0 0 0 0 0 0 0 0 0 0 0 0 0 0 0 0 0 0 0 0 0 0 0 0 0 0 0 0 0 0 0 0 0 0 0 0 0 0 0 0 0 0 0 0 0 0 0 0 0 0 0 0 0 0 0 0 0 
0 0 0 0 0 0 0 0 0 0 0 0 0 0 0 0 0 0 0 0 0 0 0 0 0 0 0 0 0 0 0 0 0 0 0 0 0 0 0 0 0 0 0 0 0 0 0 0 0 0 0 0 0 0 0 0 0 0 0 0 0 0 0 0 0 0 0 0 0 0 0 0 0 0 0 0 0 0 0 0 0 0 0 0 0 0 0 0 0 0 0 0 0 0 0 0 0 0 0 0 0 0 0 0 0 0 0 0 0 0 0 0 0 0 0 0 0 0 0 0 0 0 0 0 0 0 0 0 
0 0 0 0 0 0 0 0 0 0 0 0 0 0 0 0 0 0 0 0 0 0 0 0 0 0 0 0 0 0 0 0 0 0 0 0 0 0 0 0 0 0 0 0 0 0 0 0 0 0 0 0 0 0 0 0 0 0 0 0 0 0 0 0 0 0 0 0 0 0 0 0 0 0 0 0 0 0 0 0 0 0 0 0 0 0 0 0 0 0 0 0 0 0 0 0 0 0 0 0 0 0 0 0 0 0 0 0 0 0 0 0 0 0 0 0 0 0 0 0 0 0 0 0 0 0 0 0 
0 0 0 0 0 0 0 0 0 0 0 0 0 0 0 0 0 0 0 0 0 0 0 0 0 0 0 0 0 0 0 0 0 0 0 0 0 0 0 0 0 0 0 0 0 0 0 0 0 0 0 0 0 0 0 0 0 0 0 0 0 0 0 0 0 0 0 0 0 0 0 0 0 0 0 0 0 0 0 0 0 0 0 0 0 0 0 0 0 0 0 0 0 0 0 0 0 0 0 0 0 0 0 0 0 0 0 0 0 0 0 0 0 0 0 0 0 0 0 0 0 0 0 0 0 0 0 0 
0 0 0 0 0 0 0 0 0 0 0 0 0 0 0 0 0 0 0 0 0 0 0 0 0 0 0 0 0 0 0 0 0 0 0 0 0 0 0 0 0 0 0 0 0 0 0 0 0 0 0 0 0 0 0 0 0 0 0 0 0 0 0 0 0 0 0 0 0 0 0 0 0 0 0 0 0 0 0 0 0 0 0 0 0 0 0 0 0 0 0 0 0 0 0 0 0 0 0 0 0 0 0 0 0 0 0 0 0 0 0 0 0 0 0 0 0 0 0 0 0 0 0 0 0 0 0 0 
0 0 0 0 0 0 0 0 0 0 0 0 0 0 0 0 0 0 0 0 0 0 0 0 0 0 0 0 0 0 0 0 0 0 0 0 0 0 0 0 0 0 0 0 0 0 0 0 0 0 0 0 0 0 0 0 0 0 0 0 0 0 0 0 0 0 0 0 0 0 0 0 0 0 0 0 0 0 0 0 0 0 0 0 0 0 0 0 0 0 0 0 0 0 0 0 0 0 0 0 0 0 0 0 0 0 0 0 0 0 0 0 0 0 0 0 0 0 0 0 0 0 0 0 0 0 0 0 
0 0 0 0 0 0 0 0 0 0 0 0 0 0 0 0 0 0 0 0 0 0 0 0 0 0 0 0 0 0 0 0 0 0 0 0 0 0 0 0 0 0 0 0 0 0 0 0 0 0 0 0 0 0 0 0 0 0 0 0 0 0 0 0 0 0 0 0 0 0 0 0 0 0 0 0 0 0 0 0 0 0 0 0 0 0 0 0 0 0 0 0 0 0 0 0 0 0 0 0 0 0 0 0 0 0 0 0 0 0 0 0 0 0 0 0 0 0 0 0 0 0 0 0 0 0 0 0 
0 0 0 0 0 0 0 0 0 0 0 0 0 0 0 0 0 0 0 0 0 0 0 0 0 0 0 0 0 0 0 0 0 0 0 0 0 0 0 0 0 0 0 0 0 0 0 0 0 0 0 0 0 0 0 0 0 0 0 0 0 0 0 0 0 0 0 0 0 0 0 0 0 0 0 0 0 0 0 0 0 0 0 0 0 0 0 0 0 0 0 0 0 0 0 0 0 0 0 0 0 0 0 0 0 0 0 0 0 0 0 0 0 0 0 0 0 0 0 0 0 0 0 0 0 0 0 0 
0 0 0 0 0 0 0 0 0 0 0 0 0 0 0 0 0 0 0 0 0 0 0 0 0 0 0 0 0 0 0 0 0 0 0 0 0 0 0 0 0 0 0 0 0 0 0 0 0 0 0 0 0 0 0 0 0 0 0 0 0 0 0 0 0 0 0 0 0 0 0 0 0 0 0 0 0 0 0 0 0 0 0 0 0 0 0 0 0 0 0 0 0 0 0 0 0 0 0 0 0 0 0 0 0 0 0 0 0 0 0 0 0 0 0 0 0 0 0 0 0 0 0 0 0 0 0 0 
0 0 0 0 0 0 0 0 0 0 0 0 0 0 0 0 0 0 0 0 0 0 0 0 0 0 0 0 0 0 0 0 0 0 0 0 0 0 0 0 0 0 0 0 0 0 0 0 0 0 0 0 0 0 0 0 0 0 0 0 0 0 0 0 0 0 0 0 0 0 0 0 0 0 0 0 0 0 0 0 0 0 0 0 0 0 0 0 0 0 0 0 0 0 0 0 0 0 0 0 0 0 0 0 0 0 0 0 0 0 0 0 0 0 0 0 0 0 0 0 0 0 0 0 0 0 0 0 
0 0 0 0 0 0 0 0 0 0 0 0 0 0 0 0 0 0 0 0 0 0 0 0 0 0 0 0 0 0 0 0 0 0 0 0 0 0 0 0 0 0 0 0 0 0 0 0 0 0 0 0 0 0 0 0 0 17 23 23 23 22 20 16 20 11 0 0 0 0 0 0 0 0 0 0 0 0 0 0 0 0 0 0 0 0 0 0 0 0 0 0 0 0 0 0 0 0 0 0 0 0 0 0 0 0 0 0 0 0 0 0 0 0 0 0 0 0 0 0 0 0 0 0 0 0 0 0 
0 0 0 0 0 0 0 0 0 0 0 0 0 0 0 0 0 0 0 0 0 0 0 0 0 0 0 0 0 0 0 0 0 0 0 0 0 0 0 0 0 0 0 0 0 0 0 0 0 0 0 0 20 53 88 88 88 88 88 88 88 88 88 88 88 88 88 88 88 81 55 18 0 0 0 0 0 0 0 0 0 0 0 0 0 0 0 0 0 0 0 0 0 0 0 0 0 0 0 0 0 0 0 0 0 0 0 0 0 0 0 0 0 0 0 0 0 0 0 0 0 0 0 0 0 0 0 0 
0 0 0 0 0 0 0 0 0 0 0 0 0 0 0 0 0 0 0 0 0 0 0 0 0 0 0 0 0 0 0 0 0 0 0 0 0 0 0 0 0 0 0 0 0 0 0 0 0 18 67 88 88 88 88 88 88 62 62 55 51 54 61 65 78 88 88 88 88 88 88 88 88 88 33 0 0 0 0 0 0 0 0 0 0 0 0 0 0 0 0 0 0 0 0 0 0 0 0 0 0 0 0 0 0 0 0 0 0 0 0 0 0 0 0 0 0 0 0 0 0 0 0 0 0 0 0 0 
0 0 0 0 0 0 0 0 0 0 0 0 0 0 0 0 0 0 0 0 0 0 0 0 0 0 0 0 0 0 0 0 0 0 0 0 0 0 0 0 0 0 0 0 0 0 0 48 88 88 88 88 88 80 46 42 31 25 16 17 19 27 29 29 29 31 32 37 45 54 73 88 88 88 88 88 60 0 0 0 0 0 0 0 0 0 0 0 0 0 0 0 0 0 0 0 0 0 0 0 0 0 0 0 0 0 0 0 0 0 0 0 0 0 0 0 0 0 0 0 0 0 0 0 0 0 0 0 
0 0 0 0 0 0 0 0 0 0 0 0 0 0 0 0 0 0 0 0 0 0 0 0 0 0 0 0 0 0 0 0 0 0 0 0 0 0 0 0 0 0 0 0 0 43 88 88 88 88 88 60 38 28 18 9 13 12 28 33 40 56 63 58 60 60 42 35 28 30 29 36 43 71 88 88 88 88 60 0 0 0 0 0 0 0 0 0 0 0 0 0 0 0 0 0 0 0 0 0 0 0 0 0 0 0 0 0 0 0 0 0 0 0 0 0 0 0 0 0 0 0 0 0 0 0 0 0 
0 0 0 0 0 0 0 0 0 0 0 0 0 0 0 0 0 0 0 0 0 0 0 0 0 0 0 0 0 0 0 0 0 0 0 0 0 0 0 0 0 0 0 0 88 88 88 88 88 57 48 26 33 35 17 5 17 19 1 2 6 15 39 45 43 39 38 44 53 59 56 40 28 27 27 76 88 88 88 88 25 0 0 0 0 0 0 0 0 0 0 0 0 0 0 0 0 0 0 0 0 0 0 0 0 0 0 0 0 0 0 0 0 0 0 0 0 0 0 0 0 0 0 0 0 0 0 0 
0 0 0 0 0 0 0 0 0 0 0 0 0 0 0 0 0 0 0 0 0 0 0 0 0 0 0 0 0 0 0 0 0 0 0 0 0 0 0 0 0 0 21 88 88 88 88 88 39 30 41 49 27 12 3 59 63 88 88 47 27 13 4 6 4 4 2 2 7 17 30 41 49 54 39 17 35 62 88 88 88 56 0 0 0 0 0 0 0 0 0 0 0 0 0 0 0 0 0 0 0 0 0 0 0 0 0 0 0 0 0 0 0 0 0 0 0 0 0 0 0 0 0 0 0 0 0 0 
0 0 0 0 0 0 0 0 0 0 0 0 0 0 0 0 0 0 0 0 0 0 0 0 0 0 0 0 0 0 0 0 0 0 0 0 0 0 0 0 0 26 88 88 88 88 38 30 46 45 25 12 8 14 49 48 52 37 25 24 20 45 36 13 1 26 23 7 9 12 7 5 13 26 43 53 41 23 36 77 88 88 55 0 0 0 0 0 0 0 0 0 0 0 0 0 0 0 0 0 0 0 0 0 0 0 0 0 0 0 0 0 0 0 0 0 0 0 0 0 0 0 0 0 0 0 0 0 
0 0 0 0 0 0 0 0 0 0 0 0 0 0 0 0 0 0 0 0 0 0 0 0 0 0 0 0 0 0 0 0 0 0 0 0 0 0 0 0 19 88 88 88 79 23 38 60 36 13 5 15 29 45 39 30 31 29 25 29 35 19 24 88 43 19 28 24 54 70 43 25 22 20 16 17 40 49 31 23 42 88 88 87 0 0 0 0 0 0 0 0 0 0 0 0 0 0 0 0 0 0 0 0 0 0 0 0 0 0 0 0 0 0 0 0 0 0 0 0 0 0 0 0 0 0 0 0 
0 0 0 0 0 0 0 0 0 0 0 0 0 0 0 0 0 0 0 0 0 0 0 0 0 0 0 0 0 0 0 0 0 0 0 0 0 0 0 13 88 88 88 37 23 51 52 22 11 25 50 54 37 40 31 27 30 46 51 57 55 45 23 30 37 46 53 57 56 50 50 60 52 31 22 16 13 25 43 42 18 43 86 88 88 0 0 0 0 0 0 0 0 0 0 0 0 0 0 0 0 0 0 0 0 0 0 0 0 0 0 0 0 0 0 0 0 0 0 0 0 0 0 0 0 0 0 0 
0 0 0 0 0 0 0 0 0 0 0 0 0 0 0 0 0 0 0 0 0 0 0 0 0 0 0 0 0 0 0 0 0 0 0 0 0 0 13 88 88 67 21 20 66 56 13 13 28 46 45 33 53 53 48 28 54 55 55 59 56 54 38 31 60 56 58 59 58 58 44 51 57 68 67 45 25 13 8 25 45 22 28 85 88 75 0 0 0 0 0 0 0 0 0 0 0 0 0 0 0 0 0 0 0 0 0 0 0 0 0 0 0 0 0 0 0 0 0 0 0 0 0 0 0 0 0 0 
0 0 0 0 0 0 0 0 0 0 0 0 0 0 0 0 0 0 0 0 0 0 0 0 0 0 0 0 0 0 0 0 0 0 0 0 0 0 87 88 88 19 24 61 32 9 9 27 35 34 48 54 53 57 50 33 61 57 59 60 56 51 57 40 57 60 57 58 61 57 45 53 51 50 52 69 79 46 17 11 16 47 21 24 83 88 63 0 0 0 0 0 0 0 0 0 0 0 0 0 0 0 0 0 0 0 0 0 0 0 0 0 0 0 0 0 0 0 0 0 0 0 0 0 0 0 0 0 
0 0 0 0 0 0 0 0 0 0 0 0 0 0 0 0 0 0 0 0 0 0 0 0 0 0 0 0 0 0 0 0 0 0 0 0 0 54 88 88 22 16 62 23 5 17 28 37 53 52 54 57 58 56 52 34 60 64 63 56 52 41 57 47 57 63 59 63 61 46 44 55 53 54 52 48 50 72 67 24 14 17 52 11 31 80 88 41 0 0 0 0 0 0 0 0 0 0 0 0 0 0 0 0 0 0 0 0 0 0 0 0 0 0 0 0 0 0 0 0 0 0 0 0 0 0 0 0 
0 0 0 0 0 0 0 0 0 0 0 0 0 0 0 0 0 0 0 0 0 0 0 0 0 0 0 0 0 0 0 0 0 0 0 0 22 88 88 28 12 58 25 3 26 33 35 52 52 57 56 58 59 56 50 41 61 66 58 52 51 49 50 41 58 58 63 63 63 57 48 53 51 51 51 48 51 49 40 75 28 11 26 70 6 41 88 88 13 0 0 0 0 0 0 0 0 0 0 0 0 0 0 0 0 0 0 0 0 0 0 0 0 0 0 0 0 0 0 0 0 0 0 0 0 0 0 0 
0 0 0 0 0 0 0 0 0 0 0 0 0 0 0 0 0 0 0 0 0 0 0 0 0 0 0 0 0 0 0 0 0 0 0 0 88 88 40 13 46 28 5 30 43 37 50 53 59 57 58 56 61 58 50 48 60 64 57 54 53 53 39 44 47 58 63 64 66 61 51 51 53 53 51 50 55 50 42 40 57 30 4 23 49 11 52 88 88 0 0 0 0 0 0 0 0 0 0 0 0 0 0 0 0 0 0 0 0 0 0 0 0 0 0 0 0 0 0 0 0 0 0 0 0 0 0 0 
0 0 0 0 0 0 0 0 0 0 0 0 0 0 0 0 0 0 0 0 0 0 0 0 0 0 0 0 0 0 0 0 0 0 0 41 88 67 11 33 33 1 28 48 45 46 51 58 58 54 55 57 58 59 53 55 65 63 59 59 56 55 49 42 44 56 60 66 65 66 61 55 56 58 54 51 52 52 46 50 44 66 49 0 31 37 13 63 88 35 0 0 0 0 0 0 0 0 0 0 0 0 0 0 0 0 0 0 0 0 0 0 0 0 0 0 0 0 0 0 0 0 0 0 0 0 0 0 
0 0 0 0 0 0 0 0 0 0 0 0 0 0 0 0 0 0 0 0 0 0 0 0 0 0 0 0 0 0 0 0 0 0 0 88 88 19 15 50 2 20 49 49 47 52 47 58 58 56 56 59 60 60 57 60 65 62 60 60 59 56 54 42 57 58 63 66 67 67 66 63 61 63 56 53 55 51 55 51 55 52 53 42 3 49 19 26 88 88 0 0 0 0 0 0 0 0 0 0 0 0 0 0 0 0 0 0 0 0 0 0 0 0 0 0 0 0 0 0 0 0 0 0 0 0 0 0 
0 0 0 0 0 0 0 0 0 0 0 0 0 0 0 0 0 0 0 0 0 0 0 0 0 0 0 0 0 0 0 0 0 0 45 88 46 3 51 18 9 50 51 52 53 51 49 57 61 59 53 56 59 60 60 64 63 63 62 60 55 56 55 53 58 63 65 65 65 67 66 68 64 61 56 57 57 56 55 51 56 61 57 46 16 11 55 11 44 88 61 0 0 0 0 0 0 0 0 0 0 0 0 0 0 0 0 0 0 0 0 0 0 0 0 0 0 0 0 0 0 0 0 0 0 0 0 0 
0 0 0 0 0 0 0 0 0 0 0 0 0 0 0 0 0 0 0 0 0 0 0 0 0 0 0 0 0 0 0 0 0 0 88 85 14 22 60 3 34 56 55 57 54 55 50 54 61 60 58 60 62 62 65 64 63 58 58 56 56 52 59 55 57 61 59 60 65 65 67 66 66 62 58 59 57 55 56 45 58 60 56 56 38 1 29 35 13 87 88 0 0 0 0 0 0 0 0 0 0 0 0 0 0 0 0 0 0 0 0 0 0 0 0 0 0 0 0 0 0 0 0 0 0 0 0 0 
0 0 0 0 0 0 0 0 0 0 0 0 0 0 0 0 0 0 0 0 0 0 0 0 0 0 0 0 0 0 0 0 0 53 88 32 5 58 23 11 65 54 62 56 54 52 53 53 56 64 62 63 64 65 67 64 62 56 54 51 54 51 55 52 60 56 57 56 60 66 69 68 67 63 62 58 58 58 55 50 62 61 59 56 49 23 5 55 21 34 88 80 0 0 0 0 0 0 0 0 0 0 0 0 0 0 0 0 0 0 0 0 0 0 0 0 0 0 0 0 0 0 0 0 0 0 0 0 
0 0 0 0 0 0 0 0 0 0 0 0 0 0 0 0 0 0 0 0 0 0 0 0 0 0 0 0 0 0 0 0 0 88 58 8 45 47 0 47 44 53 59 61 59 50 52 57 57 60 65 66 63 66 64 66 60 56 57 54 53 44 59 23 51 56 56 56 60 61 66 70 68 63 60 57 61 59 54 53 62 64 60 58 53 39 7 25 60 4 54 88 13 0 0 0 0 0 0 0 0 0 0 0 0 0 0 0 0 0 0 0 0 0 0 0 0 0 0 0 0 0 0 0 0 0 0 0 
0 0 0 0 0 0 0 0 0 0 0 0 0 0 0 0 0 0 0 0 0 0 0 0 0 0 0 0 0 0 0 0 56 88 17 6 58 6 18 52 52 55 57 62 60 57 50 49 58 59 62 65 65 66 67 66 62 58 58 57 53 57 35 51 53 53 56 55 58 60 64 68 66 64 63 61 62 62 58 61 66 68 65 60 57 49 19 4 57 11 28 83 77 0 0 0 0 0 0 0 0 0 0 0 0 0 0 0 0 0 0 0 0 0 0 0 0 0 0 0 0 0 0 0 0 0 0 0 
0 0 0 0 0 0 0 0 0 0 0 0 0 0 0 0 0 0 0 0 0 0 0 0 0 0 0 0 0 0 0 0 88 58 1 39 33 3 49 55 55 57 61 59 63 62 56 54 51 57 64 67 66 66 66 66 66 62 60 59 58 58 53 56 56 58 55 59 59 60 63 67 69 65 65 63 65 65 70 68 61 62 59 63 59 53 39 0 39 47 4 53 88 0 0 0 0 0 0 0 0 0 0 0 0 0 0 0 0 0 0 0 0 0 0 0 0 0 0 0 0 0 0 0 0 0 0 0 
0 0 0 0 0 0 0 0 0 0 0 0 0 0 0 0 0 0 0 0 0 0 0 0 0 0 0 0 0 0 0 45 88 15 2 65 3 31 55 55 56 58 59 60 61 64 60 56 57 57 60 64 65 66 66 66 65 65 64 63 60 55 61 55 58 56 57 59 62 61 66 67 70 65 63 65 68 68 64 59 59 44 51 56 57 59 62 20 6 69 13 24 88 52 0 0 0 0 0 0 0 0 0 0 0 0 0 0 0 0 0 0 0 0 0 0 0 0 0 0 0 0 0 0 0 0 0 0 
0 0 0 0 0 0 0 0 0 0 0 0 0 0 0 0 0 0 0 0 0 0 0 0 0 0 0 0 0 0 0 88 63 4 41 34 8 57 55 56 56 56 58 60 60 64 66 63 59 61 63 64 64 67 67 65 65 61 61 59 57 53 75 51 60 57 58 58 62 66 68 69 68 67 64 63 67 63 56 47 48 47 45 48 54 58 56 67 0 39 41 12 86 88 0 0 0 0 0 0 0 0 0 0 0 0 0 0 0 0 0 0 0 0 0 0 0 0 0 0 0 0 0 0 0 0 0 0 
0 0 0 0 0 0 0 0 0 0 0 0 0 0 0 0 0 0 0 0 0 0 0 0 0 0 0 0 0 0 27 88 23 9 72 8 34 59 55 57 56 56 57 58 60 62 63 67 63 64 63 63 67 65 69 66 61 58 56 54 60 36 74 54 62 61 58 56 59 69 68 70 68 68 65 67 69 61 59 58 58 56 57 57 55 57 55 64 40 5 70 13 43 88 32 0 0 0 0 0 0 0 0 0 0 0 0 0 0 0 0 0 0 0 0 0 0 0 0 0 0 0 0 0 0 0 0 0 
0 0 0 0 0 0 0 0 0 0 0 0 0 0 0 0 0 0 0 0 0 0 0 0 0 0 0 0 0 0 88 72 16 37 47 2 55 55 56 57 55 57 57 57 59 61 65 65 66 65 65 64 67 68 67 66 59 54 52 50 53 41 54 55 60 66 63 60 62 67 69 70 69 70 68 66 70 64 61 60 63 63 63 62 62 58 55 42 32 11 27 36 21 88 88 0 0 0 0 0 0 0 0 0 0 0 0 0 0 0 0 0 0 0 0 0 0 0 0 0 0 0 0 0 0 0 0 0 
0 0 0 0 0 0 0 0 0 0 0 0 0 0 0 0 0 0 0 0 0 0 0 0 0 0 0 0 0 0 88 41 6 68 16 23 57 57 57 57 58 56 60 60 59 61 63 66 65 68 66 67 69 68 69 66 58 57 53 59 59 55 60 57 59 68 68 65 68 67 70 71 71 68 68 68 67 67 62 63 66 63 62 60 56 55 52 52 49 31 3 44 11 69 88 15 0 0 0 0 0 0 0 0 0 0 0 0 0 0 0 0 0 0 0 0 0 0 0 0 0 0 0 0 0 0 0 0 
0 0 0 0 0 0 0 0 0 0 0 0 0 0 0 0 0 0 0 0 0 0 0 0 0 0 0 0 0 62 88 31 6 60 0 47 57 60 62 60 60 62 59 61 62 62 64 66 67 66 66 67 68 69 67 65 61 60 59 61 63 57 52 56 57 65 68 69 69 69 69 70 70 70 69 68 69 67 65 66 64 62 56 58 54 49 53 63 53 35 5 14 11 47 88 64 0 0 0 0 0 0 0 0 0 0 0 0 0 0 0 0 0 0 0 0 0 0 0 0 0 0 0 0 0 0 0 0 
0 0 0 0 0 0 0 0 0 0 0 0 0 0 0 0 0 0 0 0 0 0 0 0 0 0 0 0 0 88 57 27 28 17 13 55 58 60 59 62 63 64 62 62 62 65 66 67 66 64 67 66 68 69 68 67 64 64 64 65 57 57 16 49 59 62 66 67 67 72 68 71 71 69 70 69 68 68 69 64 62 59 49 46 50 44 60 61 59 44 28 1 13 42 87 88 0 0 0 0 0 0 0 0 0 0 0 0 0 0 0 0 0 0 0 0 0 0 0 0 0 0 0 0 0 0 0 0 
0 0 0 0 0 0 0 0 0 0 0 0 0 0 0 0 0 0 0 0 0 0 0 0 0 0 0 0 38 88 34 11 18 1 46 53 55 47 52 52 55 57 61 64 66 65 63 66 67 67 68 68 68 69 68 67 67 67 66 63 55 45 44 59 59 61 66 68 68 71 72 72 70 71 66 68 67 70 68 65 61 59 63 58 55 59 62 62 59 57 50 7 11 30 57 88 39 0 0 0 0 0 0 0 0 0 0 0 0 0 0 0 0 0 0 0 0 0 0 0 0 0 0 0 0 0 0 0 
0 0 0 0 0 0 0 0 0 0 0 0 0 0 0 0 0 0 0 0 0 0 0 0 0 0 0 0 88 75 41 15 4 27 52 48 45 53 55 55 58 58 60 64 64 67 65 65 66 69 67 67 69 67 69 67 68 65 66 63 58 48 41 64 62 61 63 68 70 68 71 70 71 69 72 69 70 67 71 68 69 66 63 60 60 63 63 64 64 59 59 27 3 22 48 88 88 0 0 0 0 0 0 0 0 0 0 0 0 0 0 0 0 0 0 0 0 0 0 0 0 0 0 0 0 0 0 0 
0 0 0 0 0 0 0 0 0 0 0 0 0 0 0 0 0 0 0 0 0 0 0 0 0 0 0 14 88 34 33 14 2 55 55 50 45 53 58 60 60 61 60 64 67 66 66 68 65 65 70 68 71 70 69 70 68 68 66 64 63 56 57 62 63 63 68 66 69 69 70 73 70 69 69 69 68 69 67 66 67 68 64 61 64 64 65 64 64 63 53 52 0 7 55 61 88 12 0 0 0 0 0 0 0 0 0 0 0 0 0 0 0 0 0 0 0 0 0 0 0 0 0 0 0 0 0 0 
0 0 0 0 0 0 0 0 0 0 0 0 0 0 0 0 0 0 0 0 0 0 0 0 0 0 0 68 88 40 15 13 17 59 56 56 47 50 56 57 60 61 60 66 64 66 67 64 67 64 70 68 70 68 68 57 59 60 65 66 66 67 67 65 67 67 67 66 64 64 69 70 73 72 70 69 68 67 68 67 67 68 69 66 66 65 66 62 58 52 52 56 7 11 45 42 88 51 0 0 0 0 0 0 0 0 0 0 0 0 0 0 0 0 0 0 0 0 0 0 0 0 0 0 0 0 0 0 
0 0 0 0 0 0 0 0 0 0 0 0 0 0 0 0 0 0 0 0 0 0 0 0 0 0 0 88 59 50 13 12 40 57 60 58 62 56 54 57 54 59 60 61 63 66 64 68 66 66 68 69 71 69 64 40 40 47 51 57 63 66 66 68 64 66 57 53 49 52 64 72 69 69 70 69 69 66 67 68 68 67 67 64 64 62 60 58 57 46 59 53 19 13 28 53 88 88 0 0 0 0 0 0 0 0 0 0 0 0 0 0 0 0 0 0 0 0 0 0 0 0 0 0 0 0 0 0 
0 0 0 0 0 0 0 0 0 0 0 0 0 0 0 0 0 0 0 0 0 0 0 0 0 0 29 88 33 41 25 5 52 59 59 63 62 61 59 58 59 57 60 62 63 64 67 66 66 65 69 68 69 67 61 24 32 35 38 45 51 63 58 62 63 52 43 37 36 37 59 74 69 71 70 67 70 69 64 66 68 68 67 62 62 60 59 56 51 52 50 45 31 3 16 64 58 88 22 0 0 0 0 0 0 0 0 0 0 0 0 0 0 0 0 0 0 0 0 0 0 0 0 0 0 0 0 0 
0 0 0 0 0 0 0 0 0 0 0 0 0 0 0 0 0 0 0 0 0 0 0 0 0 0 73 88 36 27 35 8 53 58 54 59 60 63 63 62 61 63 63 64 67 65 64 68 64 67 65 70 68 63 63 26 29 29 30 35 41 58 44 47 56 34 30 31 33 29 57 73 68 71 68 70 67 65 62 64 65 68 67 69 63 61 61 63 58 57 58 59 50 14 9 64 41 88 56 0 0 0 0 0 0 0 0 0 0 0 0 0 0 0 0 0 0 0 0 0 0 0 0 0 0 0 0 0 
0 0 0 0 0 0 0 0 0 0 0 0 0 0 0 0 0 0 0 0 0 0 0 0 0 0 88 78 54 16 31 18 41 46 35 27 62 61 63 65 63 66 65 64 66 67 66 65 66 67 65 68 68 63 62 39 33 30 29 27 25 47 30 34 44 24 24 30 32 31 60 72 64 70 70 68 64 68 64 62 63 66 67 67 67 68 66 66 66 64 61 59 56 31 3 55 43 88 88 11 0 0 0 0 0 0 0 0 0 0 0 0 0 0 0 0 0 0 0 0 0 0 0 0 0 0 0 0 
0 0 0 0 0 0 0 0 0 0 0 0 0 0 0 0 0 0 0 0 0 0 0 0 0 30 88 40 58 21 13 48 88 63 58 59 62 62 61 59 61 65 64 66 65 65 64 68 67 65 67 68 65 66 61 45 37 31 30 26 27 42 24 26 40 23 27 31 32 40 61 71 61 70 64 64 67 63 62 63 63 61 67 65 65 63 63 63 64 59 59 64 55 44 0 42 58 62 88 28 0 0 0 0 0 0 0 0 0 0 0 0 0 0 0 0 0 0 0 0 0 0 0 0 0 0 0 0 
0 0 0 0 0 0 0 0 0 0 0 0 0 0 0 0 0 0 0 0 0 0 0 0 0 68 88 28 49 12 16 40 38 51 58 62 62 62 65 61 61 63 62 66 62 66 69 63 66 67 67 67 66 65 64 52 41 31 26 28 25 38 27 28 34 27 27 30 40 52 66 66 65 67 66 67 68 69 62 65 64 63 64 63 63 63 59 59 56 43 65 55 59 46 13 31 61 49 88 49 0 0 0 0 0 0 0 0 0 0 0 0 0 0 0 0 0 0 0 0 0 0 0 0 0 0 0 0 
0 0 0 0 0 0 0 0 0 0 0 0 0 0 0 0 0 0 0 0 0 0 0 0 0 88 88 37 43 15 6 53 52 48 55 60 58 61 63 62 63 62 63 62 63 65 65 66 68 66 65 64 68 63 64 60 46 32 30 30 26 40 27 29 35 26 28 31 46 59 65 63 69 67 65 67 70 67 67 65 68 66 65 63 62 61 56 58 59 58 46 56 55 27 11 21 60 43 88 77 0 0 0 0 0 0 0 0 0 0 0 0 0 0 0 0 0 0 0 0 0 0 0 0 0 0 0 0 
0 0 0 0 0 0 0 0 0 0 0 0 0 0 0 0 0 0 0 0 0 0 0 0 20 88 57 54 29 11 14 60 59 57 54 51 60 59 58 57 59 63 63 64 65 66 66 68 65 66 63 66 65 65 65 61 53 38 28 30 27 41 26 32 37 26 26 31 52 63 68 67 67 67 68 68 69 67 64 65 65 68 65 65 62 59 59 59 59 58 55 57 57 54 5 13 58 47 88 88 13 0 0 0 0 0 0 0 0 0 0 0 0 0 0 0 0 0 0 0 0 0 0 0 0 0 0 0 
0 0 0 0 0 0 0 0 0 0 0 0 0 0 0 0 0 0 0 0 0 0 0 0 57 88 33 88 19 4 32 63 60 60 58 58 58 52 45 50 58 64 66 66 66 66 66 67 63 66 65 66 66 63 65 63 57 37 28 29 27 38 28 33 34 28 28 32 53 61 65 67 67 70 67 68 67 68 63 63 63 67 67 65 61 60 59 57 58 62 58 60 58 59 17 5 51 57 39 88 29 0 0 0 0 0 0 0 0 0 0 0 0 0 0 0 0 0 0 0 0 0 0 0 0 0 0 0 
0 0 0 0 0 0 0 0 0 0 0 0 0 0 0 0 0 0 0 0 0 0 0 0 71 88 42 55 13 0 47 60 59 59 62 61 60 58 62 28 59 64 67 65 65 63 64 67 65 70 67 64 66 65 66 63 57 35 29 31 29 36 29 34 31 32 28 28 51 64 64 72 64 67 68 67 67 69 65 63 66 68 68 64 63 60 54 56 57 60 61 62 63 60 27 2 36 61 88 88 48 0 0 0 0 0 0 0 0 0 0 0 0 0 0 0 0 0 0 0 0 0 0 0 0 0 0 0 
0 0 0 0 0 0 0 0 0 0 0 0 0 0 0 0 0 0 0 0 0 0 0 0 88 88 26 52 3 3 59 57 58 59 60 62 65 64 59 61 58 67 67 62 63 61 62 68 67 64 67 68 64 67 66 64 62 34 31 31 31 41 27 36 31 31 29 29 60 65 66 67 67 67 64 67 70 68 64 63 64 65 66 67 63 59 57 58 61 61 62 63 62 58 28 3 29 80 50 88 56 0 0 0 0 0 0 0 0 0 0 0 0 0 0 0 0 0 0 0 0 0 0 0 0 0 0 0 
0 0 0 0 0 0 0 0 0 0 0 0 0 0 0 0 0 0 0 0 0 0 0 18 88 88 40 36 0 16 62 59 58 59 58 59 63 64 65 65 68 66 65 61 58 61 61 67 68 66 65 66 67 68 66 64 60 34 30 30 30 44 30 42 31 31 31 31 61 64 69 68 69 64 65 68 66 69 66 59 61 61 63 66 66 63 58 62 62 63 65 63 58 46 18 17 21 56 42 88 88 0 0 0 0 0 0 0 0 0 0 0 0 0 0 0 0 0 0 0 0 0 0 0 0 0 0 0 
0 0 0 0 0 0 0 0 0 0 0 0 0 0 0 0 0 0 0 0 0 0 0 26 88 73 53 26 4 36 60 57 62 59 58 59 63 60 67 68 65 65 64 56 55 60 67 66 69 67 66 65 64 67 67 65 65 16 32 27 43 50 39 52 36 44 29 32 49 66 68 68 69 67 67 69 69 71 68 61 59 59 57 63 65 66 67 65 66 64 64 61 55 46 32 11 21 52 47 88 88 18 0 0 0 0 0 0 0 0 0 0 0 0 0 0 0 0 0 0 0 0 0 0 0 0 0 0 
0 0 0 0 0 0 0 0 0 0 0 0 0 0 0 0 0 0 0 0 0 0 0 34 88 54 59 12 12 24 57 60 58 60 61 60 59 61 64 63 66 65 60 50 56 59 63 68 72 70 69 68 63 66 63 68 29 34 29 36 61 55 47 62 41 58 38 21 39 69 67 65 66 65 67 68 68 70 69 67 64 58 60 62 61 67 67 67 64 63 64 58 54 50 37 9 18 45 48 88 88 31 0 0 0 0 0 0 0 0 0 0 0 0 0 0 0 0 0 0 0 0 0 0 0 0 0 0 
0 0 0 0 0 0 0 0 0 0 0 0 0 0 0 0 0 0 0 0 0 0 0 42 88 42 67 7 2 38 39 46 61 61 61 62 64 62 63 65 68 60 61 45 59 57 60 67 69 66 67 65 66 65 65 62 44 56 34 58 79 53 50 66 48 58 31 47 17 63 67 67 66 66 67 65 69 68 68 65 59 64 60 62 65 67 65 65 65 64 63 56 55 55 49 2 24 34 59 38 88 38 0 0 0 0 0 0 0 0 0 0 0 0 0 0 0 0 0 0 0 0 0 0 0 0 0 0 
0 0 0 0 0 0 0 0 0 0 0 0 0 0 0 0 0 0 0 0 0 0 0 48 88 31 64 2 6 37 52 60 59 62 65 63 63 65 64 64 66 63 57 58 60 56 62 65 71 67 67 66 66 71 68 66 63 52 47 65 72 56 45 62 49 61 43 42 62 56 68 67 65 63 65 64 68 70 66 63 63 62 63 66 66 67 68 68 63 64 63 54 56 61 59 3 20 21 64 58 88 49 0 0 0 0 0 0 0 0 0 0 0 0 0 0 0 0 0 0 0 0 0 0 0 0 0 0 
0 0 0 0 0 0 0 0 0 0 0 0 0 0 0 0 0 0 0 0 0 0 0 61 88 29 54 4 3 50 59 62 61 63 62 57 63 59 62 62 64 63 60 59 59 54 62 68 70 63 64 67 68 67 66 67 65 59 53 67 62 48 42 58 52 65 46 53 63 61 66 66 65 67 63 68 66 70 68 62 60 60 62 62 62 63 64 66 65 65 63 63 59 62 62 25 13 17 68 49 88 64 0 0 0 0 0 0 0 0 0 0 0 0 0 0 0 0 0 0 0 0 0 0 0 0 0 0 
0 0 0 0 0 0 0 0 0 0 0 0 0 0 0 0 0 0 0 0 0 0 0 71 88 35 28 15 8 48 58 61 62 60 54 54 45 40 53 70 59 62 58 59 59 57 61 69 69 62 63 64 68 68 68 68 68 61 58 68 63 46 36 54 52 70 52 57 63 69 66 64 68 63 62 66 67 70 65 59 56 53 55 54 57 63 63 64 64 67 65 66 62 63 59 42 1 15 72 43 88 78 0 0 0 0 0 0 0 0 0 0 0 0 0 0 0 0 0 0 0 0 0 0 0 0 0 0 
0 0 0 0 0 0 0 0 0 0 0 0 0 0 0 0 0 0 0 0 0 0 0 87 88 50 11 19 8 49 60 60 59 54 58 50 42 39 31 25 56 58 56 61 61 58 67 66 69 63 63 64 64 68 67 70 69 63 64 69 56 45 28 54 53 73 57 61 65 69 67 65 67 65 64 63 66 68 67 62 56 57 62 56 59 60 64 64 63 61 63 63 63 66 58 50 0 9 58 48 88 88 0 0 0 0 0 0 0 0 0 0 0 0 0 0 0 0 0 0 0 0 0 0 0 0 0 0 
0 0 0 0 0 0 0 0 0 0 0 0 0 0 0 0 0 0 0 0 0 0 0 88 79 50 1 14 12 70 54 60 63 59 55 56 58 53 40 38 34 31 57 63 63 66 70 68 70 63 60 63 63 69 72 72 67 62 70 66 52 52 14 58 54 71 58 61 63 68 67 68 66 63 64 65 67 67 69 65 63 63 57 58 56 48 60 58 60 59 58 61 59 62 58 51 0 18 46 41 88 88 12 0 0 0 0 0 0 0 0 0 0 0 0 0 0 0 0 0 0 0 0 0 0 0 0 0 
0 0 0 0 0 0 0 0 0 0 0 0 0 0 0 0 0 0 0 0 0 0 18 88 56 50 0 7 26 67 53 55 56 57 57 58 56 52 51 57 62 53 38 64 60 62 68 68 70 68 61 61 63 66 71 69 64 61 71 58 47 52 7 57 52 67 65 61 63 65 66 70 64 62 61 62 66 69 66 65 62 61 54 45 44 41 40 43 53 59 59 65 52 57 54 43 0 25 32 48 88 88 16 0 0 0 0 0 0 0 0 0 0 0 0 0 0 0 0 0 0 0 0 0 0 0 0 0 
0 0 0 0 0 0 0 0 0 0 0 0 0 0 0 0 0 0 0 0 0 0 35 88 63 43 1 1 40 56 54 56 47 59 62 55 58 53 61 65 63 62 49 31 61 63 65 70 70 67 66 62 68 69 68 67 61 67 71 58 48 55 20 60 52 60 68 62 60 62 66 72 64 61 59 59 67 66 68 63 60 54 57 61 59 63 58 78 46 33 33 35 43 54 40 23 13 23 20 61 88 88 23 0 0 0 0 0 0 0 0 0 0 0 0 0 0 0 0 0 0 0 0 0 0 0 0 0 
0 0 0 0 0 0 0 0 0 0 0 0 0 0 0 0 0 0 0 0 0 0 47 88 53 34 5 5 54 56 57 50 49 51 45 48 55 65 62 63 64 64 53 35 35 64 57 69 70 69 64 65 70 68 69 62 59 70 65 52 46 54 35 44 50 56 63 67 56 60 63 71 69 62 60 63 64 68 64 63 54 49 57 63 65 63 62 61 64 74 61 58 56 47 38 22 15 24 11 63 88 88 28 0 0 0 0 0 0 0 0 0 0 0 0 0 0 0 0 0 0 0 0 0 0 0 0 0 
0 0 0 0 0 0 0 0 0 0 0 0 0 0 0 0 0 0 0 0 0 0 63 88 49 27 5 11 60 58 61 61 62 59 61 53 54 63 62 63 63 63 58 45 42 56 61 63 67 70 68 68 70 69 65 61 64 70 56 53 46 62 45 35 50 48 62 69 58 53 58 66 70 64 63 65 68 69 63 59 50 45 58 62 64 59 59 63 58 53 58 60 61 45 38 16 19 19 12 61 88 88 42 0 0 0 0 0 0 0 0 0 0 0 0 0 0 0 0 0 0 0 0 0 0 0 0 0 
0 0 0 0 0 0 0 0 0 0 0 0 0 0 0 0 0 0 0 0 0 13 69 88 43 25 5 15 60 60 62 60 61 62 63 61 61 53 60 61 64 63 57 55 58 58 57 64 68 70 70 73 71 70 58 55 71 65 41 43 55 66 45 33 54 39 57 59 71 49 54 57 68 66 65 67 69 63 62 55 54 45 44 59 59 59 61 56 59 61 57 64 69 52 38 17 23 18 11 61 70 88 41 0 0 0 0 0 0 0 0 0 0 0 0 0 0 0 0 0 0 0 0 0 0 0 0 0 
0 0 0 0 0 0 0 0 0 0 0 0 0 0 0 0 0 0 0 0 0 11 84 88 46 27 5 17 62 60 60 63 63 62 63 62 61 62 55 67 59 64 60 63 64 67 57 61 68 69 71 70 71 60 51 57 68 56 46 40 54 59 32 36 51 42 48 51 70 51 47 50 64 69 69 70 69 63 58 57 61 54 46 49 49 50 60 62 61 64 63 63 54 64 26 23 17 21 11 63 34 88 45 0 0 0 0 0 0 0 0 0 0 0 0 0 0 0 0 0 0 0 0 0 0 0 0 0 
0 0 0 0 0 0 0 0 0 0 0 0 0 0 0 0 0 0 0 0 0 15 88 88 46 24 5 16 62 61 63 63 62 62 64 65 65 63 58 53 63 64 64 64 65 66 64 67 69 73 73 71 62 43 47 67 61 43 43 45 50 47 28 34 45 54 35 50 56 59 38 43 52 68 69 67 67 62 56 64 62 58 58 54 55 57 61 63 60 57 52 54 59 59 49 41 15 26 12 62 88 88 44 0 0 0 0 0 0 0 0 0 0 0 0 0 0 0 0 0 0 0 0 0 0 0 0 0 
0 0 0 0 0 0 0 0 0 0 0 0 0 0 0 0 0 0 0 0 0 22 88 88 45 26 13 13 62 58 63 61 63 62 64 67 64 68 63 59 50 65 62 65 66 68 72 68 71 72 70 62 31 31 51 59 47 45 30 59 50 39 33 35 42 63 39 46 48 61 61 34 36 58 66 68 67 65 63 64 63 64 60 67 52 62 59 60 50 55 52 44 45 63 54 48 16 25 12 57 88 88 39 0 0 0 0 0 0 0 0 0 0 0 0 0 0 0 0 0 0 0 0 0 0 0 0 0 
0 0 0 0 0 0 0 0 0 0 0 0 0 0 0 0 0 0 0 0 0 24 88 88 46 23 18 0 44 60 60 58 59 61 64 64 66 65 66 63 63 59 63 64 65 69 68 70 70 70 65 26 28 41 65 40 48 46 36 58 40 49 56 56 45 57 56 43 41 39 56 58 26 26 59 67 67 68 68 64 65 58 61 57 63 61 60 51 49 61 57 52 43 57 51 55 24 14 12 49 88 88 36 0 0 0 0 0 0 0 0 0 0 0 0 0 0 0 0 0 0 0 0 0 0 0 0 0 
0 0 0 0 0 0 0 0 0 0 0 0 0 0 0 0 0 0 0 0 0 21 88 88 35 27 29 0 42 48 54 59 48 54 60 61 63 66 67 68 63 66 64 64 68 69 70 68 74 61 24 26 29 40 52 38 39 25 61 55 69 70 68 68 69 60 57 40 50 39 42 33 28 30 29 70 67 67 66 66 62 57 52 50 58 59 53 52 62 63 61 57 60 57 58 56 32 9 13 45 88 88 23 0 0 0 0 0 0 0 0 0 0 0 0 0 0 0 0 0 0 0 0 0 0 0 0 0 
0 0 0 0 0 0 0 0 0 0 0 0 0 0 0 0 0 0 0 0 0 20 80 88 40 31 30 13 31 66 55 60 59 59 60 62 63 64 66 67 71 68 67 70 68 72 70 72 58 21 29 27 27 34 40 42 29 40 72 69 68 70 65 66 69 66 68 53 25 44 27 30 26 26 21 44 73 68 68 64 64 61 63 45 53 51 52 59 59 59 58 59 59 58 59 57 41 3 12 39 88 88 15 0 0 0 0 0 0 0 0 0 0 0 0 0 0 0 0 0 0 0 0 0 0 0 0 0 
0 0 0 0 0 0 0 0 0 0 0 0 0 0 0 0 0 0 0 0 0 0 81 88 84 31 20 20 12 57 57 61 63 64 62 64 64 63 66 66 69 71 70 72 70 69 70 69 30 25 28 30 27 33 38 38 24 65 68 68 65 63 65 67 65 67 68 71 46 27 46 31 27 27 29 23 59 69 67 69 65 65 64 63 62 58 62 62 60 61 58 58 58 61 62 57 44 1 11 39 88 81 13 0 0 0 0 0 0 0 0 0 0 0 0 0 0 0 0 0 0 0 0 0 0 0 0 0 
0 0 0 0 0 0 0 0 0 0 0 0 0 0 0 0 0 0 0 0 0 0 71 88 88 38 16 24 11 52 62 63 63 62 63 66 64 64 64 65 66 69 72 70 71 71 73 49 25 28 29 28 31 31 34 28 40 72 65 66 67 67 66 64 65 67 67 63 72 27 30 49 29 27 27 29 37 68 70 67 67 69 67 65 63 63 63 63 64 62 61 58 59 62 63 54 41 3 11 42 88 74 0 0 0 0 0 0 0 0 0 0 0 0 0 0 0 0 0 0 0 0 0 0 0 0 0 0 
0 0 0 0 0 0 0 0 0 0 0 0 0 0 0 0 0 0 0 0 0 0 71 88 88 40 8 21 14 54 57 58 60 56 61 64 64 63 64 63 65 71 71 70 70 72 70 30 31 29 29 29 29 30 29 24 65 61 68 65 64 69 41 63 66 67 66 66 68 50 24 27 30 27 28 26 32 67 67 67 71 70 69 67 68 67 65 64 64 64 63 65 62 64 62 58 33 6 11 47 88 65 0 0 0 0 0 0 0 0 0 0 0 0 0 0 0 0 0 0 0 0 0 0 0 0 0 0 
0 0 0 0 0 0 0 0 0 0 0 0 0 0 0 0 0 0 0 0 0 0 61 88 88 41 3 12 14 60 58 57 36 54 62 59 61 59 59 64 67 72 71 73 76 70 61 27 30 30 31 31 29 28 30 48 70 63 63 69 68 32 68 21 65 67 63 66 63 74 31 29 28 26 26 28 32 64 71 65 67 71 68 70 67 66 63 65 67 63 64 63 64 63 62 60 27 13 8 54 88 67 0 0 0 0 0 0 0 0 0 0 0 0 0 0 0 0 0 0 0 0 0 0 0 0 0 0 
0 0 0 0 0 0 0 0 0 0 0 0 0 0 0 0 0 0 0 0 0 0 47 88 88 49 6 6 23 60 63 44 53 58 58 60 63 62 60 64 70 69 73 72 73 73 45 30 31 30 28 31 29 30 26 59 63 66 65 71 47 45 25 19 50 63 65 68 67 69 46 26 29 25 27 26 30 58 70 65 64 67 67 66 67 62 64 62 65 63 63 63 59 64 59 61 20 14 13 48 88 77 0 0 0 0 0 0 0 0 0 0 0 0 0 0 0 0 0 0 0 0 0 0 0 0 0 0 
0 0 0 0 0 0 0 0 0 0 0 0 0 0 0 0 0 0 0 0 0 0 35 88 88 76 9 3 23 65 61 59 60 62 60 59 61 64 67 71 69 70 72 69 72 71 33 29 29 28 29 30 30 30 33 66 63 65 67 56 48 56 40 46 60 58 62 67 66 62 63 28 29 28 28 26 29 51 69 65 63 65 66 67 65 60 59 58 59 60 62 54 60 59 61 61 12 23 4 86 88 79 0 0 0 0 0 0 0 0 0 0 0 0 0 0 0 0 0 0 0 0 0 0 0 0 0 0 
0 0 0 0 0 0 0 0 0 0 0 0 0 0 0 0 0 0 0 0 0 0 20 87 88 88 14 3 16 65 58 62 64 67 67 66 69 68 68 69 69 71 73 69 73 65 29 28 29 27 26 31 30 31 55 65 65 65 60 65 63 58 51 49 62 64 59 65 66 63 68 34 27 27 26 28 29 44 68 67 65 67 66 68 66 62 58 59 56 54 51 37 57 62 59 59 1 23 8 88 88 79 0 0 0 0 0 0 0 0 0 0 0 0 0 0 0 0 0 0 0 0 0 0 0 0 0 0 
0 0 0 0 0 0 0 0 0 0 0 0 0 0 0 0 0 0 0 0 0 0 0 71 88 88 23 2 7 63 57 59 64 64 69 68 70 69 68 70 69 71 70 72 74 61 28 29 27 27 28 30 32 38 64 64 67 67 69 67 63 60 52 45 61 68 67 67 62 66 65 48 27 25 26 27 29 44 64 68 67 68 67 66 67 65 65 62 61 59 58 31 55 58 52 46 5 27 18 88 88 73 13 0 0 0 0 0 0 0 0 0 0 0 0 0 0 0 0 0 0 0 0 0 0 0 0 0 
0 0 0 0 0 0 0 0 0 0 0 0 0 0 0 0 0 0 0 0 0 0 0 62 88 88 51 1 3 52 57 63 64 65 65 66 65 64 66 65 66 68 71 67 73 59 26 30 27 29 31 32 32 47 63 64 69 74 70 66 63 57 51 39 62 67 67 70 66 64 63 62 25 27 27 24 30 39 65 65 68 68 67 68 67 67 67 65 64 64 60 46 42 59 58 41 13 18 37 88 88 64 0 0 0 0 0 0 0 0 0 0 0 0 0 0 0 0 0 0 0 0 0 0 0 0 0 0 
0 0 0 0 0 0 0 0 0 0 0 0 0 0 0 0 0 0 0 0 0 0 0 48 88 88 63 3 12 23 58 61 61 63 62 62 61 64 59 62 63 67 73 71 72 59 26 27 26 30 30 31 34 63 62 67 73 65 66 69 65 59 48 31 61 63 61 65 68 65 63 68 34 26 26 22 26 44 63 67 67 68 66 62 63 63 62 63 65 67 61 57 38 54 39 7 38 9 60 88 88 50 0 0 0 0 0 0 0 0 0 0 0 0 0 0 0 0 0 0 0 0 0 0 0 0 0 0 
0 0 0 0 0 0 0 0 0 0 0 0 0 0 0 0 0 0 0 0 0 0 0 31 88 88 88 0 21 4 55 58 61 62 59 59 57 56 60 63 66 68 70 70 71 62 26 28 28 31 30 31 56 62 66 68 64 65 66 66 61 55 52 35 59 56 57 65 68 63 63 66 53 27 27 25 27 43 62 69 67 67 63 60 58 56 58 61 61 65 63 63 44 43 41 6 49 0 88 88 88 29 0 0 0 0 0 0 0 0 0 0 0 0 0 0 0 0 0 0 0 0 0 0 0 0 0 0 
0 0 0 0 0 0 0 0 0 0 0 0 0 0 0 0 0 0 0 0 0 0 0 14 82 88 88 14 22 3 32 38 56 57 60 62 58 63 64 66 69 67 70 70 72 67 29 26 28 31 30 43 62 67 65 63 60 60 66 66 60 59 51 18 63 56 61 65 64 62 64 62 66 37 31 27 33 44 67 66 67 63 61 60 59 56 58 43 55 56 63 61 52 40 33 11 40 0 88 88 73 21 0 0 0 0 0 0 0 0 0 0 0 0 0 0 0 0 0 0 0 0 0 0 0 0 0 0 
0 0 0 0 0 0 0 0 0 0 0 0 0 0 0 0 0 0 0 0 0 0 0 0 63 88 88 42 16 13 26 59 60 62 63 64 65 66 68 68 68 68 71 74 71 74 42 26 28 28 29 59 64 63 60 58 57 60 64 63 60 57 36 67 60 61 64 64 64 64 62 63 63 63 48 34 39 54 69 68 68 63 65 62 62 63 60 57 41 59 57 61 46 38 14 20 26 5 88 88 72 0 0 0 0 0 0 0 0 0 0 0 0 0 0 0 0 0 0 0 0 0 0 0 0 0 0 0 
0 0 0 0 0 0 0 0 0 0 0 0 0 0 0 0 0 0 0 0 0 0 0 0 45 88 88 88 0 33 5 59 61 65 68 66 68 67 66 64 65 65 67 72 71 75 53 26 27 32 34 65 63 57 60 56 59 59 58 62 59 58 44 62 61 66 64 65 63 64 62 61 63 63 66 66 46 63 67 70 68 64 63 63 63 63 62 62 52 48 53 45 43 32 9 30 14 67 88 88 57 0 0 0 0 0 0 0 0 0 0 0 0 0 0 0 0 0 0 0 0 0 0 0 0 0 0 0 
0 0 0 0 0 0 0 0 0 0 0 0 0 0 0 0 0 0 0 0 0 0 0 0 21 83 88 88 0 42 0 48 59 61 61 64 63 64 63 64 65 63 65 72 73 70 72 29 29 28 36 66 63 63 62 58 63 63 62 60 54 42 47 60 64 65 62 63 60 62 65 63 61 59 64 70 59 71 70 71 72 69 65 65 62 65 64 60 56 58 61 46 30 25 0 47 0 88 88 87 39 0 0 0 0 0 0 0 0 0 0 0 0 0 0 0 0 0 0 0 0 0 0 0 0 0 0 0 
0 0 0 0 0 0 0 0 0 0 0 0 0 0 0 0 0 0 0 0 0 0 0 0 0 65 88 88 44 24 21 18 53 61 63 58 65 58 63 60 60 63 61 67 72 71 74 41 28 28 34 66 66 63 63 58 59 57 63 61 60 64 50 60 61 60 60 63 57 63 64 63 65 61 64 63 56 65 73 63 70 71 66 63 61 62 63 61 62 53 57 58 38 12 16 41 0 88 88 69 14 0 0 0 0 0 0 0 0 0 0 0 0 0 0 0 0 0 0 0 0 0 0 0 0 0 0 0 
0 0 0 0 0 0 0 0 0 0 0 0 0 0 0 0 0 0 0 0 0 0 0 0 0 45 88 88 88 5 49 0 45 49 59 61 56 60 58 63 55 56 63 66 71 69 70 54 28 29 29 58 68 62 61 62 61 64 64 61 64 61 43 54 63 57 56 62 60 61 64 64 63 61 64 63 61 73 71 70 70 73 67 62 61 60 59 61 58 59 60 57 47 0 47 18 27 88 88 60 0 0 0 0 0 0 0 0 0 0 0 0 0 0 0 0 0 0 0 0 0 0 0 0 0 0 0 0 
0 0 0 0 0 0 0 0 0 0 0 0 0 0 0 0 0 0 0 0 0 0 0 0 0 20 71 88 88 0 48 14 25 66 61 59 59 63 57 57 60 63 65 67 70 71 69 71 36 31 29 45 68 63 65 64 66 64 64 64 63 62 38 36 51 59 60 61 61 64 62 64 63 58 62 65 69 70 66 69 71 68 67 66 62 61 61 61 61 64 60 60 33 9 54 1 81 88 88 45 0 0 0 0 0 0 0 0 0 0 0 0 0 0 0 0 0 0 0 0 0 0 0 0 0 0 0 0 
0 0 0 0 0 0 0 0 0 0 0 0 0 0 0 0 0 0 0 0 0 0 0 0 0 0 65 88 88 39 12 50 0 73 57 64 62 66 66 65 68 64 69 69 69 70 71 71 57 39 37 39 64 67 65 66 64 65 59 55 62 60 42 62 63 62 63 63 63 64 65 64 62 56 66 65 69 67 67 67 67 68 64 64 63 61 63 63 63 62 58 59 8 28 31 0 88 88 76 23 0 0 0 0 0 0 0 0 0 0 0 0 0 0 0 0 0 0 0 0 0 0 0 0 0 0 0 0 
0 0 0 0 0 0 0 0 0 0 0 0 0 0 0 0 0 0 0 0 0 0 0 0 0 0 44 88 88 88 0 37 15 33 62 65 63 65 65 63 65 67 69 69 70 75 68 70 70 57 42 45 66 67 66 64 61 46 53 63 62 61 47 62 62 61 63 62 63 63 62 62 53 62 66 68 68 64 66 68 64 64 61 64 63 63 62 60 58 59 56 50 0 47 8 22 88 88 59 0 0 0 0 0 0 0 0 0 0 0 0 0 0 0 0 0 0 0 0 0 0 0 0 0 0 0 0 0 
0 0 0 0 0 0 0 0 0 0 0 0 0 0 0 0 0 0 0 0 0 0 0 0 0 0 23 82 88 88 7 3 39 4 66 62 65 65 65 65 63 68 67 69 70 68 70 69 68 69 59 61 66 67 63 57 48 61 65 64 66 61 39 57 54 53 50 54 48 53 50 52 60 65 66 70 64 66 68 64 62 61 63 61 62 63 62 60 62 60 62 24 21 22 1 44 88 84 33 0 0 0 0 0 0 0 0 0 0 0 0 0 0 0 0 0 0 0 0 0 0 0 0 0 0 0 0 0 
0 0 0 0 0 0 0 0 0 0 0 0 0 0 0 0 0 0 0 0 0 0 0 0 0 0 0 66 88 88 88 0 25 13 42 63 67 66 64 65 65 65 67 67 67 68 69 67 70 70 64 65 67 65 60 68 67 65 65 65 63 62 51 65 61 60 63 64 61 57 61 64 64 63 66 66 64 68 63 63 62 61 63 62 62 59 61 63 63 57 61 2 39 5 0 88 88 71 0 0 0 0 0 0 0 0 0 0 0 0 0 0 0 0 0 0 0 0 0 0 0 0 0 0 0 0 0 0 
0 0 0 0 0 0 0 0 0 0 0 0 0 0 0 0 0 0 0 0 0 0 0 0 0 0 0 41 86 88 88 19 5 35 7 66 60 62 63 64 65 64 66 66 65 68 69 69 68 71 64 68 66 68 67 65 63 63 61 58 64 50 59 59 63 62 64 64 60 63 66 63 63 66 65 65 64 65 63 61 59 61 60 63 62 61 60 63 60 62 22 18 16 0 75 88 73 46 0 0 0 0 0 0 0 0 0 0 0 0 0 0 0 0 0 0 0 0 0 0 0 0 0 0 0 0 0 0 
0 0 0 0 0 0 0 0 0 0 0 0 0 0 0 0 0 0 0 0 0 0 0 0 0 0 0 0 64 88 88 88 0 13 30 22 60 57 61 64 63 61 65 65 67 66 66 70 68 71 66 65 66 65 67 66 63 63 62 63 60 27 65 60 60 63 56 52 64 66 64 67 66 68 66 66 67 64 62 60 60 56 56 61 63 62 64 62 58 49 0 36 0 21 88 88 73 11 0 0 0 0 0 0 0 0 0 0 0 0 0 0 0 0 0 0 0 0 0 0 0 0 0 0 0 0 0 0 
0 0 0 0 0 0 0 0 0 0 0 0 0 0 0 0 0 0 0 0 0 0 0 0 0 0 0 0 41 82 88 88 73 0 33 14 33 63 62 64 62 62 63 67 65 66 68 69 69 67 70 68 66 65 63 64 65 65 63 63 64 49 61 59 60 51 60 63 63 64 64 63 63 68 63 64 66 64 64 62 61 55 56 58 62 62 61 57 54 4 17 9 0 88 88 78 43 0 0 0 0 0 0 0 0 0 0 0 0 0 0 0 0 0 0 0 0 0 0 0 0 0 0 0 0 0 0 0 
0 0 0 0 0 0 0 0 0 0 0 0 0 0 0 0 0 0 0 0 0 0 0 0 0 0 0 0 0 69 88 88 88 39 0 23 2 66 59 63 63 63 69 65 68 65 68 66 69 67 66 67 64 65 66 62 59 62 60 61 62 48 63 61 63 55 64 61 62 64 61 64 66 64 63 66 66 65 63 63 60 60 54 56 62 63 58 54 15 21 16 0 88 88 81 63 0 0 0 0 0 0 0 0 0 0 0 0 0 0 0 0 0 0 0 0 0 0 0 0 0 0 0 0 0 0 0 0 
0 0 0 0 0 0 0 0 0 0 0 0 0 0 0 0 0 0 0 0 0 0 0 0 0 0 0 0 0 28 78 88 88 88 11 9 25 27 64 67 65 64 67 66 66 65 65 66 68 69 66 63 65 65 58 62 74 43 54 61 58 47 62 63 62 59 54 63 63 63 63 65 66 63 66 63 64 63 62 62 63 59 56 59 63 60 60 29 13 25 8 67 88 88 79 22 0 0 0 0 0 0 0 0 0 0 0 0 0 0 0 0 0 0 0 0 0 0 0 0 0 0 0 0 0 0 0 0 
0 0 0 0 0 0 0 0 0 0 0 0 0 0 0 0 0 0 0 0 0 0 0 0 0 0 0 0 0 0 45 85 88 88 80 23 76 16 58 61 66 64 63 63 62 63 62 63 69 67 65 66 63 65 53 56 66 70 50 61 58 44 60 58 63 65 65 60 63 63 67 63 62 65 64 65 63 61 60 61 62 60 54 56 58 58 39 18 16 16 14 88 88 88 55 0 0 0 0 0 0 0 0 0 0 0 0 0 0 0 0 0 0 0 0 0 0 0 0 0 0 0 0 0 0 0 0 0 
0 0 0 0 0 0 0 0 0 0 0 0 0 0 0 0 0 0 0 0 0 0 0 0 0 0 0 0 0 0 0 62 88 88 88 43 8 41 33 64 63 64 60 59 61 63 62 63 66 66 67 65 65 65 61 56 55 83 57 63 55 54 59 59 65 65 64 63 63 62 62 62 63 65 64 62 62 62 60 61 59 61 57 44 57 37 4 15 8 8 88 88 88 72 31 0 0 0 0 0 0 0 0 0 0 0 0 0 0 0 0 0 0 0 0 0 0 0 0 0 0 0 0 0 0 0 0 0 
0 0 0 0 0 0 0 0 0 0 0 0 0 0 0 0 0 0 0 0 0 0 0 0 0 0 0 0 0 0 0 13 75 88 88 88 6 19 30 22 59 57 49 56 63 62 63 63 63 65 63 58 64 66 66 52 57 68 64 63 53 60 59 63 62 66 62 63 62 62 60 64 63 62 62 62 59 60 60 61 60 61 61 38 16 11 37 5 0 88 88 88 87 53 0 0 0 0 0 0 0 0 0 0 0 0 0 0 0 0 0 0 0 0 0 0 0 0 0 0 0 0 0 0 0 0 0 0 
0 0 0 0 0 0 0 0 0 0 0 0 0 0 0 0 0 0 0 0 0 0 0 0 0 0 0 0 0 0 0 0 34 83 88 88 88 0 24 26 12 33 41 63 63 63 62 64 64 64 63 56 63 65 63 62 63 61 63 63 53 57 66 62 63 61 61 62 63 63 63 64 59 57 60 61 60 59 59 62 59 57 52 13 33 44 6 0 88 88 88 88 64 18 0 0 0 0 0 0 0 0 0 0 0 0 0 0 0 0 0 0 0 0 0 0 0 0 0 0 0 0 0 0 0 0 0 0 
0 0 0 0 0 0 0 0 0 0 0 0 0 0 0 0 0 0 0 0 0 0 0 0 0 0 0 0 0 0 0 0 0 53 80 88 88 75 0 34 40 13 44 62 62 64 64 62 64 64 62 60 62 63 63 63 65 62 62 63 52 62 64 65 59 63 62 61 63 63 63 63 62 58 59 61 59 62 57 56 55 34 13 48 50 8 0 88 88 88 88 70 37 0 0 0 0 0 0 0 0 0 0 0 0 0 0 0 0 0 0 0 0 0 0 0 0 0 0 0 0 0 0 0 0 0 0 0 
0 0 0 0 0 0 0 0 0 0 0 0 0 0 0 0 0 0 0 0 0 0 0 0 0 0 0 0 0 0 0 0 0 0 64 82 88 88 61 1 27 55 8 44 64 61 63 60 61 63 63 59 60 64 63 63 62 60 62 55 51 63 58 58 59 63 64 59 60 63 60 60 62 61 59 58 59 59 62 44 15 28 59 43 5 0 53 88 88 88 78 48 0 0 0 0 0 0 0 0 0 0 0 0 0 0 0 0 0 0 0 0 0 0 0 0 0 0 0 0 0 0 0 0 0 0 0 0 
0 0 0 0 0 0 0 0 0 0 0 0 0 0 0 0 0 0 0 0 0 0 0 0 0 0 0 0 0 0 0 0 0 0 13 72 87 88 88 55 0 23 59 13 31 65 57 63 61 62 64 60 59 63 63 60 61 58 53 73 79 29 54 57 63 60 60 61 62 63 55 58 59 62 59 63 60 57 40 15 53 61 33 4 0 88 88 88 88 85 58 0 0 0 0 0 0 0 0 0 0 0 0 0 0 0 0 0 0 0 0 0 0 0 0 0 0 0 0 0 0 0 0 0 0 0 0 0 
0 0 0 0 0 0 0 0 0 0 0 0 0 0 0 0 0 0 0 0 0 0 0 0 0 0 0 0 0 0 0 0 0 0 0 0 70 77 88 88 78 0 12 53 29 21 58 60 63 58 61 60 66 63 54 45 42 6 64 88 13 71 59 60 61 65 60 59 62 59 60 52 61 63 62 62 57 34 20 62 57 19 4 3 88 88 88 88 88 60 13 0 0 0 0 0 0 0 0 0 0 0 0 0 0 0 0 0 0 0 0 0 0 0 0 0 0 0 0 0 0 0 0 0 0 0 0 0 
0 0 0 0 0 0 0 0 0 0 0 0 0 0 0 0 0 0 0 0 0 0 0 0 0 0 0 0 0 0 0 0 0 0 0 0 13 69 69 88 88 88 5 13 32 48 12 22 57 57 58 46 45 19 59 63 54 40 42 29 43 63 63 54 58 55 56 66 54 64 65 47 59 46 60 46 16 39 63 47 16 0 25 88 88 88 65 88 54 12 0 0 0 0 0 0 0 0 0 0 0 0 0 0 0 0 0 0 0 0 0 0 0 0 0 0 0 0 0 0 0 0 0 0 0 0 0 0 
0 0 0 0 0 0 0 0 0 0 0 0 0 0 0 0 0 0 0 0 0 0 0 0 0 0 0 0 0 0 0 0 0 0 0 0 0 11 52 77 69 88 88 0 4 11 37 35 42 35 31 35 39 39 73 37 39 80 88 56 53 42 59 44 60 54 51 65 52 63 60 66 51 43 30 13 40 59 34 9 0 64 88 88 81 86 82 48 0 0 0 0 0 0 0 0 0 0 0 0 0 0 0 0 0 0 0 0 0 0 0 0 0 0 0 0 0 0 0 0 0 0 0 0 0 0 0 0 
0 0 0 0 0 0 0 0 0 0 0 0 0 0 0 0 0 0 0 0 0 0 0 0 0 0 0 0 0 0 0 0 0 0 0 0 0 0 0 21 80 59 88 88 69 5 2 16 42 57 64 76 59 67 68 42 37 26 32 44 35 30 37 58 58 62 60 60 58 62 59 26 28 33 44 52 46 17 0 7 88 88 88 64 87 64 15 0 0 0 0 0 0 0 0 0 0 0 0 0 0 0 0 0 0 0 0 0 0 0 0 0 0 0 0 0 0 0 0 0 0 0 0 0 0 0 0 0 
0 0 0 0 0 0 0 0 0 0 0 0 0 0 0 0 0 0 0 0 0 0 0 0 0 0 0 0 0 0 0 0 0 0 0 0 0 0 0 0 13 66 64 80 88 88 66 0 2 17 36 44 52 60 61 72 71 60 62 66 69 65 42 28 53 63 62 60 49 29 20 47 53 54 49 26 2 1 72 88 88 64 67 76 30 0 0 0 0 0 0 0 0 0 0 0 0 0 0 0 0 0 0 0 0 0 0 0 0 0 0 0 0 0 0 0 0 0 0 0 0 0 0 0 0 0 0 0 
0 0 0 0 0 0 0 0 0 0 0 0 0 0 0 0 0 0 0 0 0 0 0 0 0 0 0 0 0 0 0 0 0 0 0 0 0 0 0 0 0 0 48 78 56 88 88 88 85 23 0 2 16 33 44 48 46 54 56 56 68 68 70 67 48 29 24 23 32 47 56 48 37 13 0 6 61 88 88 62 63 73 54 0 0 0 0 0 0 0 0 0 0 0 0 0 0 0 0 0 0 0 0 0 0 0 0 0 0 0 0 0 0 0 0 0 0 0 0 0 0 0 0 0 0 0 0 0 
0 0 0 0 0 0 0 0 0 0 0 0 0 0 0 0 0 0 0 0 0 0 0 0 0 0 0 0 0 0 0 0 0 0 0 0 0 0 0 0 0 0 0 20 70 60 49 83 88 88 88 71 27 1 0 1 12 21 31 38 40 47 53 51 53 56 49 46 37 27 7 0 2 32 88 88 88 54 56 74 59 16 0 0 0 0 0 0 0 0 0 0 0 0 0 0 0 0 0 0 0 0 0 0 0 0 0 0 0 0 0 0 0 0 0 0 0 0 0 0 0 0 0 0 0 0 0 0 
0 0 0 0 0 0 0 0 0 0 0 0 0 0 0 0 0 0 0 0 0 0 0 0 0 0 0 0 0 0 0 0 0 0 0 0 0 0 0 0 0 0 0 0 0 31 63 66 53 43 48 88 88 88 88 84 69 40 39 21 14 15 19 18 17 25 19 23 24 46 77 88 88 88 79 49 59 71 52 14 0 0 0 0 0 0 0 0 0 0 0 0 0 0 0 0 0 0 0 0 0 0 0 0 0 0 0 0 0 0 0 0 0 0 0 0 0 0 0 0 0 0 0 0 0 0 0 0 
0 0 0 0 0 0 0 0 0 0 0 0 0 0 0 0 0 0 0 0 0 0 0 0 0 0 0 0 0 0 0 0 0 0 0 0 0 0 0 0 0 0 0 0 0 0 0 15 35 52 65 54 43 44 68 88 88 88 88 88 88 88 88 88 88 88 88 88 88 88 71 48 41 49 59 62 37 0 0 0 0 0 0 0 0 0 0 0 0 0 0 0 0 0 0 0 0 0 0 0 0 0 0 0 0 0 0 0 0 0 0 0 0 0 0 0 0 0 0 0 0 0 0 0 0 0 0 0 
0 0 0 0 0 0 0 0 0 0 0 0 0 0 0 0 0 0 0 0 0 0 0 0 0 0 0 0 0 0 0 0 0 0 0 0 0 0 0 0 0 0 0 0 0 0 0 0 0 0 0 26 51 64 68 53 53 44 46 47 46 43 49 48 45 41 42 41 41 48 57 58 48 32 14 0 0 0 0 0 0 0 0 0 0 0 0 0 0 0 0 0 0 0 0 0 0 0 0 0 0 0 0 0 0 0 0 0 0 0 0 0 0 0 0 0 0 0 0 0 0 0 0 0 0 0 0 0 
0 0 0 0 0 0 0 0 0 0 0 0 0 0 0 0 0 0 0 0 0 0 0 0 0 0 0 0 0 0 0 0 0 0 0 0 0 0 0 0 0 0 0 0 0 0 0 0 0 0 0 0 0 0 16 31 43 56 56 53 59 56 60 58 62 50 46 44 44 24 14 0 0 0 0 0 0 0 0 0 0 0 0 0 0 0 0 0 0 0 0 0 0 0 0 0 0 0 0 0 0 0 0 0 0 0 0 0 0 0 0 0 0 0 0 0 0 0 0 0 0 0 0 0 0 0 0 0 
0 0 0 0 0 0 0 0 0 0 0 0 0 0 0 0 0 0 0 0 0 0 0 0 0 0 0 0 0 0 0 0 0 0 0 0 0 0 0 0 0 0 0 0 0 0 0 0 0 0 0 0 0 0 0 0 0 0 0 0 0 0 0 0 0 0 0 0 0 0 0 0 0 0 0 0 0 0 0 0 0 0 0 0 0 0 0 0 0 0 0 0 0 0 0 0 0 0 0 0 0 0 0 0 0 0 0 0 0 0 0 0 0 0 0 0 0 0 0 0 0 0 0 0 0 0 0 0 
0 0 0 0 0 0 0 0 0 0 0 0 0 0 0 0 0 0 0 0 0 0 0 0 0 0 0 0 0 0 0 0 0 0 0 0 0 0 0 0 0 0 0 0 0 0 0 0 0 0 0 0 0 0 0 0 0 0 0 0 0 0 0 0 0 0 0 0 0 0 0 0 0 0 0 0 0 0 0 0 0 0 0 0 0 0 0 0 0 0 0 0 0 0 0 0 0 0 0 0 0 0 0 0 0 0 0 0 0 0 0 0 0 0 0 0 0 0 0 0 0 0 0 0 0 0 0 0 
