P2
128 128
88
0 0 0 0 0 0 0 0 0 0 0 0 0 0 0 0 0 0 0 0 0 0 0 0 0 0 0 0 0 0 0 0 0 0 0 0 0 0 0 0 0 0 0 0 0 0 0 0 0 0 0 0 0 0 0 0 0 0 0 0 0 0 0 0 0 0 0 0 0 0 0 0 0 0 0 0 0 0 0 0 0 0 0 0 0 0 0 0 0 0 0 0 0 0 0 0 0 0 0 0 0 0 0 0 0 0 0 0 0 0 0 0 0 0 0 0 0 0 0 0 0 0 0 0 0 0 0 0 
0 0 0 0 0 0 0 0 0 0 0 0 0 0 0 0 0 0 0 0 0 0 0 0 0 0 0 0 0 0 0 0 0 0 0 0 0 0 0 0 0 0 0 0 0 0 0 0 0 0 0 0 0 0 0 0 0 0 0 0 0 0 0 0 0 0 0 0 0 0 0 0 0 0 0 0 0 0 0 0 0 0 0 0 0 0 0 0 0 0 0 0 0 0 0 0 0 0 0 0 0 0 0 0 0 0 0 0 0 0 0 0 0 0 0 0 0 0 0 0 0 0 0 0 0 0 0 0 
0 0 0 0 0 0 0 0 0 0 0 0 0 0 0 0 0 0 0 0 0 0 0 0 0 0 0 0 0 0 0 0 0 0 0 0 0 0 0 0 0 0 0 0 0 0 0 0 0 0 0 0 0 0 0 0 0 0 0 0 0 0 0 0 0 0 0 0 0 0 0 0 0 0 0 0 0 0 0 0 0 0 0 0 0 0 0 0 0 0 0 0 0 0 0 0 0 0 0 0 0 0 0 0 0 0 0 0 0 0 0 0 0 0 0 0 0 0 0 0 0 0 0 0 0 0 0 0 
0 0 0 0 0 0 0 0 0 0 0 0 0 0 0 0 0 0 0 0 0 0 0 0 0 0 0 0 0 0 0 0 0 0 0 0 0 0 0 0 0 0 0 0 0 0 0 0 0 0 0 0 0 0 0 0 0 0 0 0 0 0 0 0 0 0 0 0 0 0 0 0 0 0 0 0 0 0 0 0 0 0 0 0 0 0 0 0 0 0 0 0 0 0 0 0 0 0 0 0 0 0 0 0 0 0 0 0 0 0 0 0 0 0 0 0 0 0 0 0 0 0 0 0 0 0 0 0 
0 0 0 0 0 0 0 0 0 0 0 0 0 0 0 0 0 0 0 0 0 0 0 0 0 0 0 0 0 0 0 0 0 0 0 0 0 0 0 0 0 0 0 0 0 0 0 0 0 0 0 0 0 0 0 0 0 0 0 0 0 0 0 0 0 0 0 0 0 0 0 0 0 0 0 0 0 0 0 0 0 0 0 0 0 0 0 0 0 0 0 0 0 0 0 0 0 0 0 0 0 0 0 0 0 0 0 0 0 0 0 0 0 0 0 0 0 0 0 0 0 0 0 0 0 0 0 0 
0 0 0 0 0 0 0 0 0 0 0 0 0 0 0 0 0 0 0 0 0 0 0 0 0 0 0 0 0 0 0 0 0 0 0 0 0 0 0 0 0 0 0 0 0 0 0 0 0 0 0 0 0 0 0 0 0 0 0 0 0 0 0 0 0 0 0 0 0 0 0 0 0 0 0 0 0 0 0 0 0 0 0 0 0 0 0 0 0 0 0 0 0 0 0 0 0 0 0 0 0 0 0 0 0 0 0 0 0 0 0 0 0 0 0 0 0 0 0 0 0 0 0 0 0 0 0 0 
0 0 0 0 0 0 0 0 0 0 0 0 0 0 0 0 0 0 0 0 0 0 0 0 0 0 0 0 0 0 0 0 0 0 0 0 0 0 0 0 0 0 0 0 0 0 0 0 0 0 0 0 0 0 0 0 0 0 0 0 0 0 0 0 0 0 0 0 0 0 0 0 0 0 0 0 0 0 0 0 0 0 0 0 0 0 0 0 0 0 0 0 0 0 0 0 0 0 0 0 0 0 0 0 0 0 0 0 0 0 0 0 0 0 0 0 0 0 0 0 0 0 0 0 0 0 0 0 
0 0 0 0 0 0 0 0 0 0 0 0 0 0 0 0 0 0 0 0 0 0 0 0 0 0 0 0 0 0 0 0 0 0 0 0 0 0 0 0 0 0 0 0 0 0 0 0 0 0 0 0 0 0 0 0 0 0 0 0 0 0 0 0 0 0 0 0 0 0 0 0 0 0 0 0 0 0 0 0 0 0 0 0 0 0 0 0 0 0 0 0 0 0 0 0 0 0 0 0 0 0 0 0 0 0 0 0 0 0 0 0 0 0 0 0 0 0 0 0 0 0 0 0 0 0 0 0 
0 0 0 0 0 0 0 0 0 0 0 0 0 0 0 0 0 0 0 0 0 0 0 0 0 0 0 0 0 0 0 0 0 0 0 0 0 0 0 0 0 0 0 0 0 0 0 0 0 0 0 0 0 0 0 0 0 0 0 0 0 0 0 0 0 0 0 0 0 0 0 0 0 0 0 0 0 0 0 0 0 0 0 0 0 0 0 0 0 0 0 0 0 0 0 0 0 0 0 0 0 0 0 0 0 0 0 0 0 0 0 0 0 0 0 0 0 0 0 0 0 0 0 0 0 0 0 0 
0 0 0 0 0 0 0 0 0 0 0 0 0 0 0 0 0 0 0 0 0 0 0 0 0 0 0 0 0 0 0 0 0 0 0 0 0 0 0 0 0 0 0 0 0 0 0 0 0 0 0 0 0 0 0 0 0 0 0 0 0 0 0 0 0 0 0 0 0 0 0 0 0 0 0 0 0 0 0 0 0 0 0 0 0 0 0 0 0 0 0 0 0 0 0 0 0 0 0 0 0 0 0 0 0 0 0 0 0 0 0 0 0 0 0 0 0 0 0 0 0 0 0 0 0 0 0 0 
0 0 0 0 0 0 0 0 0 0 0 0 0 0 0 0 0 0 0 0 0 0 0 0 0 0 0 0 0 0 0 0 0 0 0 0 0 0 0 0 0 0 0 0 0 0 0 0 0 0 0 0 0 0 0 0 0 0 0 0 0 0 0 0 0 0 0 0 0 0 0 0 0 0 0 0 0 0 0 0 0 0 0 0 0 0 0 0 0 0 0 0 0 0 0 0 0 0 0 0 0 0 0 0 0 0 0 0 0 0 0 0 0 0 0 0 0 0 0 0 0 0 0 0 0 0 0 0 
0 0 0 0 0 0 0 0 0 0 0 0 0 0 0 0 0 0 0 0 0 0 0 0 0 0 0 0 0 0 0 0 0 0 0 0 0 0 0 0 0 0 0 0 0 0 0 0 0 0 0 0 0 0 0 0 0 0 0 0 0 0 0 0 0 0 0 0 0 0 0 0 0 0 0 0 0 0 0 0 0 0 0 0 0 0 0 0 0 0 0 0 0 0 0 0 0 0 0 0 0 0 0 0 0 0 0 0 0 0 0 0 0 0 0 0 0 0 0 0 0 0 0 0 0 0 0 0 
0 0 0 0 0 0 0 0 0 0 0 0 0 0 0 0 0 0 0 0 0 0 0 0 0 0 0 0 0 0 0 0 0 0 0 0 0 0 0 0 0 0 0 0 0 0 0 0 0 0 0 0 0 0 0 0 0 0 0 0 0 0 0 0 0 0 0 0 0 0 0 0 0 0 0 0 0 0 0 0 0 0 0 0 0 0 0 0 0 0 0 0 0 0 0 0 0 0 0 0 0 0 0 0 0 0 0 0 0 0 0 0 0 0 0 0 0 0 0 0 0 0 0 0 0 0 0 0 
0 0 0 0 0 0 0 0 0 0 0 0 0 0 0 0 0 0 0 0 0 0 0 0 0 0 0 0 0 0 0 0 0 0 0 0 0 0 0 0 0 0 0 0 0 0 0 0 0 0 0 0 0 0 0 0 0 0 0 0 0 0 0 0 0 0 0 0 0 0 0 0 0 0 0 0 0 0 0 0 0 0 0 0 0 0 0 0 0 0 0 0 0 0 0 0 0 0 0 0 0 0 0 0 0 0 0 0 0 0 0 0 0 0 0 0 0 0 0 0 0 0 0 0 0 0 0 0 
0 0 0 0 0 0 0 0 0 0 0 0 0 0 0 0 0 0 0 0 0 0 0 0 0 0 0 0 0 0 0 0 0 0 0 0 0 0 0 0 0 0 0 0 0 0 0 0 0 0 0 0 0 0 0 0 0 0 0 0 0 0 0 0 0 0 0 0 0 0 0 0 0 0 0 0 0 0 0 0 0 0 0 0 0 0 0 0 0 0 0 0 0 0 0 0 0 0 0 0 0 0 0 0 0 0 0 0 0 0 0 0 0 0 0 0 0 0 0 0 0 0 0 0 0 0 0 0 
0 0 0 0 0 0 0 0 0 0 0 0 0 0 0 0 0 0 0 0 0 0 0 0 0 0 0 0 0 0 0 0 0 0 0 0 0 0 0 0 0 0 0 0 0 0 0 0 0 0 0 0 0 0 0 0 0 0 0 0 0 0 0 0 0 0 0 0 0 0 0 0 0 0 0 0 0 0 0 0 0 0 0 0 0 0 0 0 0 0 0 0 0 0 0 0 0 0 0 0 0 0 0 0 0 0 0 0 0 0 0 0 0 0 0 0 0 0 0 0 0 0 0 0 0 0 0 0 
0 0 0 0 0 0 0 0 0 0 0 0 0 0 0 0 0 0 0 0 0 0 0 0 0 0 0 0 0 0 0 0 0 0 0 0 0 0 0 0 0 0 0 0 0 0 0 0 0 0 0 0 0 0 0 0 0 0 0 0 0 0 0 0 0 0 0 0 0 0 0 0 0 0 0 0 0 0 0 0 0 0 0 0 0 0 0 0 0 0 0 0 0 0 0 0 0 0 0 0 0 0 0 0 0 0 0 0 0 0 0 0 0 0 0 0 0 0 0 0 0 0 0 0 0 0 0 0 
0 0 0 0 0 0 0 0 0 0 0 0 0 0 0 0 0 0 0 0 0 0 0 0 0 0 0 0 0 0 0 0 0 0 0 0 0 0 0 0 0 0 0 0 0 0 0 0 0 0 0 0 0 0 17 41 54 70 77 88 88 88 80 79 72 69 50 31 17 0 0 0 0 0 0 0 0 0 0 0 0 0 0 0 0 0 0 0 0 0 0 0 0 0 0 0 0 0 0 0 0 0 0 0 0 0 0 0 0 0 0 0 0 0 0 0 0 0 0 0 0 0 0 0 0 0 0 0 
0 0 0 0 0 0 0 0 0 0 0 0 0 0 0 0 0 0 0 0 0 0 0 0 0 0 0 0 0 0 0 0 0 0 0 0 0 0 0 0 0 0 0 0 0 0 0 0 0 0 0 21 55 88 88 88 88 88 88 88 88 88 88 88 88 88 88 88 88 88 88 49 25 0 0 0 0 0 0 0 0 0 0 0 0 0 0 0 0 0 0 0 0 0 0 0 0 0 0 0 0 0 0 0 0 0 0 0 0 0 0 0 0 0 0 0 0 0 0 0 0 0 0 0 0 0 0 0 
0 0 0 0 0 0 0 0 0 0 0 0 0 0 0 0 0 0 0 0 0 0 0 0 0 0 0 0 0 0 0 0 0 0 0 0 0 0 0 0 0 0 0 0 0 0 0 0 13 47 88 88 88 88 88 88 88 73 48 33 38 34 41 45 51 68 86 88 88 88 88 88 88 88 54 16 0 0 0 0 0 0 0 0 0 0 0 0 0 0 0 0 0 0 0 0 0 0 0 0 0 0 0 0 0 0 0 0 0 0 0 0 0 0 0 0 0 0 0 0 0 0 0 0 0 0 0 0 
0 0 0 0 0 0 0 0 0 0 0 0 0 0 0 0 0 0 0 0 0 0 0 0 0 0 0 0 0 0 0 0 0 0 0 0 0 0 0 0 0 0 0 0 0 0 22 64 88 88 88 88 88 77 49 27 23 15 16 23 23 30 29 27 28 25 28 30 35 52 69 88 88 88 88 88 64 14 0 0 0 0 0 0 0 0 0 0 0 0 0 0 0 0 0 0 0 0 0 0 0 0 0 0 0 0 0 0 0 0 0 0 0 0 0 0 0 0 0 0 0 0 0 0 0 0 0 0 
0 0 0 0 0 0 0 0 0 0 0 0 0 0 0 0 0 0 0 0 0 0 0 0 0 0 0 0 0 0 0 0 0 0 0 0 0 0 0 0 0 0 0 0 13 62 88 88 88 88 88 57 32 21 24 21 20 32 24 28 32 44 49 43 50 56 55 49 40 31 27 32 42 81 88 88 88 88 51 0 0 0 0 0 0 0 0 0 0 0 0 0 0 0 0 0 0 0 0 0 0 0 0 0 0 0 0 0 0 0 0 0 0 0 0 0 0 0 0 0 0 0 0 0 0 0 0 0 
0 0 0 0 0 0 0 0 0 0 0 0 0 0 0 0 0 0 0 0 0 0 0 0 0 0 0 0 0 0 0 0 0 0 0 0 0 0 0 0 0 0 0 18 88 88 88 88 88 48 27 30 36 52 39 40 34 24 31 17 15 17 12 9 8 19 38 51 66 70 61 45 27 21 33 82 88 88 88 80 18 0 0 0 0 0 0 0 0 0 0 0 0 0 0 0 0 0 0 0 0 0 0 0 0 0 0 0 0 0 0 0 0 0 0 0 0 0 0 0 0 0 0 0 0 0 0 0 
0 0 0 0 0 0 0 0 0 0 0 0 0 0 0 0 0 0 0 0 0 0 0 0 0 0 0 0 0 0 0 0 0 0 0 0 0 0 0 0 0 0 26 88 88 88 88 84 29 33 50 61 50 36 15 17 9 19 15 22 23 42 44 51 28 12 7 13 24 30 47 52 68 62 38 20 51 85 88 88 88 39 0 0 0 0 0 0 0 0 0 0 0 0 0 0 0 0 0 0 0 0 0 0 0 0 0 0 0 0 0 0 0 0 0 0 0 0 0 0 0 0 0 0 0 0 0 0 
0 0 0 0 0 0 0 0 0 0 0 0 0 0 0 0 0 0 0 0 0 0 0 0 0 0 0 0 0 0 0 0 0 0 0 0 0 0 0 0 0 25 88 88 88 88 45 27 54 60 49 30 21 13 12 8 35 51 22 34 28 31 13 42 8 15 21 26 25 19 21 17 25 39 52 58 31 21 63 88 88 88 55 0 0 0 0 0 0 0 0 0 0 0 0 0 0 0 0 0 0 0 0 0 0 0 0 0 0 0 0 0 0 0 0 0 0 0 0 0 0 0 0 0 0 0 0 0 
0 0 0 0 0 0 0 0 0 0 0 0 0 0 0 0 0 0 0 0 0 0 0 0 0 0 0 0 0 0 0 0 0 0 0 0 0 0 0 0 24 88 88 88 75 27 42 66 61 31 17 9 7 16 29 40 39 29 32 44 63 70 30 33 48 40 41 49 42 29 21 32 27 16 18 37 53 41 29 30 74 88 88 60 0 0 0 0 0 0 0 0 0 0 0 0 0 0 0 0 0 0 0 0 0 0 0 0 0 0 0 0 0 0 0 0 0 0 0 0 0 0 0 0 0 0 0 0 
0 0 0 0 0 0 0 0 0 0 0 0 0 0 0 0 0 0 0 0 0 0 0 0 0 0 0 0 0 0 0 0 0 0 0 0 0 0 0 22 88 88 82 62 21 50 71 46 24 11 13 22 38 40 42 47 57 57 51 45 47 71 51 28 53 54 44 51 51 48 31 31 37 54 42 21 16 43 51 28 19 78 88 88 58 0 0 0 0 0 0 0 0 0 0 0 0 0 0 0 0 0 0 0 0 0 0 0 0 0 0 0 0 0 0 0 0 0 0 0 0 0 0 0 0 0 0 0 
0 0 0 0 0 0 0 0 0 0 0 0 0 0 0 0 0 0 0 0 0 0 0 0 0 0 0 0 0 0 0 0 0 0 0 0 0 0 0 88 88 88 54 24 44 63 34 11 13 19 37 53 47 40 42 57 55 57 55 57 61 54 38 48 55 60 55 55 59 56 31 46 48 48 43 44 37 14 26 40 32 15 66 88 88 56 0 0 0 0 0 0 0 0 0 0 0 0 0 0 0 0 0 0 0 0 0 0 0 0 0 0 0 0 0 0 0 0 0 0 0 0 0 0 0 0 0 0 
0 0 0 0 0 0 0 0 0 0 0 0 0 0 0 0 0 0 0 0 0 0 0 0 0 0 0 0 0 0 0 0 0 0 0 0 0 0 71 88 88 38 24 50 57 24 11 16 32 54 57 45 45 43 46 56 58 63 60 60 59 56 48 55 58 61 61 60 60 57 55 56 56 58 57 51 42 43 21 20 52 48 23 53 88 88 44 0 0 0 0 0 0 0 0 0 0 0 0 0 0 0 0 0 0 0 0 0 0 0 0 0 0 0 0 0 0 0 0 0 0 0 0 0 0 0 0 0 
0 0 0 0 0 0 0 0 0 0 0 0 0 0 0 0 0 0 0 0 0 0 0 0 0 0 0 0 0 0 0 0 0 0 0 0 0 52 88 88 46 14 52 51 15 8 23 43 47 50 44 50 54 49 46 49 59 67 65 61 59 57 48 54 57 64 64 61 62 60 58 60 59 59 59 58 53 44 29 23 22 43 41 17 46 84 88 32 0 0 0 0 0 0 0 0 0 0 0 0 0 0 0 0 0 0 0 0 0 0 0 0 0 0 0 0 0 0 0 0 0 0 0 0 0 0 0 0 
0 0 0 0 0 0 0 0 0 0 0 0 0 0 0 0 0 0 0 0 0 0 0 0 0 0 0 0 0 0 0 0 0 0 0 0 17 88 88 56 16 42 46 13 9 28 45 49 50 48 53 49 54 51 42 51 60 68 63 58 62 60 43 54 56 61 64 63 63 63 61 61 60 62 61 59 57 57 56 31 30 21 45 35 19 88 88 88 13 0 0 0 0 0 0 0 0 0 0 0 0 0 0 0 0 0 0 0 0 0 0 0 0 0 0 0 0 0 0 0 0 0 0 0 0 0 0 0 
0 0 0 0 0 0 0 0 0 0 0 0 0 0 0 0 0 0 0 0 0 0 0 0 0 0 0 0 0 0 0 0 0 0 0 0 70 88 69 13 37 44 13 15 22 56 58 54 51 50 53 51 58 49 42 61 63 66 60 58 60 52 40 49 60 63 64 64 62 61 61 57 61 65 61 63 62 61 52 46 35 23 23 44 26 28 88 88 47 0 0 0 0 0 0 0 0 0 0 0 0 0 0 0 0 0 0 0 0 0 0 0 0 0 0 0 0 0 0 0 0 0 0 0 0 0 0 0 
0 0 0 0 0 0 0 0 0 0 0 0 0 0 0 0 0 0 0 0 0 0 0 0 0 0 0 0 0 0 0 0 0 0 0 24 88 88 23 26 48 8 13 49 76 56 56 59 47 45 51 57 51 53 57 63 67 62 56 55 51 50 43 50 59 62 68 63 62 61 61 58 62 67 64 60 59 55 57 52 42 30 13 19 53 20 37 88 88 19 0 0 0 0 0 0 0 0 0 0 0 0 0 0 0 0 0 0 0 0 0 0 0 0 0 0 0 0 0 0 0 0 0 0 0 0 0 0 
0 0 0 0 0 0 0 0 0 0 0 0 0 0 0 0 0 0 0 0 0 0 0 0 0 0 0 0 0 0 0 0 0 0 0 88 88 40 15 59 17 14 41 36 49 50 59 60 55 45 58 59 57 59 62 66 69 59 58 55 54 36 50 50 58 63 66 68 68 65 62 63 63 69 63 54 54 60 61 59 44 44 32 7 38 49 11 54 88 84 0 0 0 0 0 0 0 0 0 0 0 0 0 0 0 0 0 0 0 0 0 0 0 0 0 0 0 0 0 0 0 0 0 0 0 0 0 0 
0 0 0 0 0 0 0 0 0 0 0 0 0 0 0 0 0 0 0 0 0 0 0 0 0 0 0 0 0 0 0 0 0 0 51 88 65 9 53 40 9 39 48 55 54 53 56 62 60 57 57 59 60 62 67 66 65 57 55 54 56 43 50 44 60 60 58 64 65 68 65 64 68 67 62 57 57 62 62 55 49 50 54 20 13 56 33 17 84 88 28 0 0 0 0 0 0 0 0 0 0 0 0 0 0 0 0 0 0 0 0 0 0 0 0 0 0 0 0 0 0 0 0 0 0 0 0 0 
0 0 0 0 0 0 0 0 0 0 0 0 0 0 0 0 0 0 0 0 0 0 0 0 0 0 0 0 0 0 0 0 0 0 88 88 23 27 59 14 30 48 56 57 57 50 51 58 63 63 60 63 64 65 68 67 63 62 61 57 60 43 63 29 58 55 58 63 67 68 70 67 69 66 61 58 61 63 62 53 55 62 59 41 5 30 64 15 33 88 88 0 0 0 0 0 0 0 0 0 0 0 0 0 0 0 0 0 0 0 0 0 0 0 0 0 0 0 0 0 0 0 0 0 0 0 0 0 
0 0 0 0 0 0 0 0 0 0 0 0 0 0 0 0 0 0 0 0 0 0 0 0 0 0 0 0 0 0 0 0 0 59 88 50 13 53 27 13 23 46 54 60 61 53 51 49 55 60 66 65 65 66 67 65 64 63 61 57 53 30 63 44 61 60 58 66 68 68 68 68 70 64 57 52 61 65 63 55 58 61 58 58 21 3 52 46 11 49 88 37 0 0 0 0 0 0 0 0 0 0 0 0 0 0 0 0 0 0 0 0 0 0 0 0 0 0 0 0 0 0 0 0 0 0 0 0 
0 0 0 0 0 0 0 0 0 0 0 0 0 0 0 0 0 0 0 0 0 0 0 0 0 0 0 0 0 0 0 0 0 88 59 16 30 43 7 31 52 55 55 62 60 57 57 50 51 56 62 65 65 68 66 69 66 59 56 57 48 53 59 58 63 65 66 67 68 70 67 69 71 63 59 58 56 61 62 60 64 69 63 57 51 8 15 53 22 21 88 88 0 0 0 0 0 0 0 0 0 0 0 0 0 0 0 0 0 0 0 0 0 0 0 0 0 0 0 0 0 0 0 0 0 0 0 0 
0 0 0 0 0 0 0 0 0 0 0 0 0 0 0 0 0 0 0 0 0 0 0 0 0 0 0 0 0 0 0 0 66 88 34 8 55 18 20 45 55 53 57 60 63 64 59 58 45 58 60 62 63 65 66 67 67 59 55 50 61 55 69 58 60 62 66 66 68 70 71 67 71 64 59 58 53 58 64 68 64 59 60 57 62 39 1 56 66 5 48 88 41 0 0 0 0 0 0 0 0 0 0 0 0 0 0 0 0 0 0 0 0 0 0 0 0 0 0 0 0 0 0 0 0 0 0 0 
0 0 0 0 0 0 0 0 0 0 0 0 0 0 0 0 0 0 0 0 0 0 0 0 0 0 0 0 0 0 0 0 88 63 7 39 45 13 38 47 55 60 59 57 62 66 63 58 53 54 58 63 63 67 67 66 66 60 56 62 62 54 64 50 58 59 59 64 69 70 70 70 71 66 59 53 58 64 67 61 60 47 54 57 65 71 37 6 70 31 11 81 88 0 0 0 0 0 0 0 0 0 0 0 0 0 0 0 0 0 0 0 0 0 0 0 0 0 0 0 0 0 0 0 0 0 0 0 
0 0 0 0 0 0 0 0 0 0 0 0 0 0 0 0 0 0 0 0 0 0 0 0 0 0 0 0 0 0 0 71 88 25 13 61 15 19 41 55 55 56 58 63 66 66 64 62 57 58 55 60 60 67 69 66 67 63 62 67 63 58 65 55 61 58 55 60 64 70 70 71 69 63 58 53 63 67 60 59 47 58 60 58 59 59 39 6 31 75 6 33 88 25 0 0 0 0 0 0 0 0 0 0 0 0 0 0 0 0 0 0 0 0 0 0 0 0 0 0 0 0 0 0 0 0 0 0 
0 0 0 0 0 0 0 0 0 0 0 0 0 0 0 0 0 0 0 0 0 0 0 0 0 0 0 0 0 0 0 88 46 3 49 41 6 33 54 54 60 62 63 63 64 63 66 63 60 59 59 57 64 67 67 67 67 68 65 63 59 59 72 55 62 60 60 54 60 69 70 69 72 64 57 61 65 61 62 49 63 59 64 66 62 59 54 26 4 63 31 14 88 82 0 0 0 0 0 0 0 0 0 0 0 0 0 0 0 0 0 0 0 0 0 0 0 0 0 0 0 0 0 0 0 0 0 0 
0 0 0 0 0 0 0 0 0 0 0 0 0 0 0 0 0 0 0 0 0 0 0 0 0 0 0 0 0 0 49 88 16 18 65 11 18 47 56 59 60 61 61 61 61 63 68 63 62 62 58 60 65 68 67 69 66 62 60 58 61 34 69 54 59 65 60 60 59 65 69 71 69 65 58 63 61 64 49 58 63 69 65 61 58 59 61 49 9 21 61 2 70 88 11 0 0 0 0 0 0 0 0 0 0 0 0 0 0 0 0 0 0 0 0 0 0 0 0 0 0 0 0 0 0 0 0 0 
0 0 0 0 0 0 0 0 0 0 0 0 0 0 0 0 0 0 0 0 0 0 0 0 0 0 0 0 0 0 88 65 5 56 39 4 35 53 54 61 61 62 60 63 61 61 63 67 64 58 61 63 69 66 70 66 60 59 55 54 56 29 62 56 60 66 64 63 61 67 72 70 72 67 63 63 62 61 61 66 70 65 62 61 63 62 62 57 36 4 51 17 31 88 59 0 0 0 0 0 0 0 0 0 0 0 0 0 0 0 0 0 0 0 0 0 0 0 0 0 0 0 0 0 0 0 0 0 
0 0 0 0 0 0 0 0 0 0 0 0 0 0 0 0 0 0 0 0 0 0 0 0 0 0 0 0 0 26 88 27 14 64 3 25 55 55 61 63 62 62 60 59 62 64 67 68 67 63 64 68 68 68 68 65 57 52 55 58 61 53 48 56 58 66 67 66 63 70 70 72 70 70 64 64 65 65 70 71 63 62 63 65 64 66 60 59 33 16 12 13 20 88 88 0 0 0 0 0 0 0 0 0 0 0 0 0 0 0 0 0 0 0 0 0 0 0 0 0 0 0 0 0 0 0 0 0 
0 0 0 0 0 0 0 0 0 0 0 0 0 0 0 0 0 0 0 0 0 0 0 0 0 0 0 0 0 88 88 9 23 26 4 51 56 63 64 62 62 62 62 63 62 62 66 66 70 67 69 68 67 69 70 65 58 60 61 62 58 59 46 61 59 66 67 66 65 70 69 74 71 72 68 68 72 70 69 64 63 63 65 65 66 60 61 54 52 39 2 8 17 53 88 34 0 0 0 0 0 0 0 0 0 0 0 0 0 0 0 0 0 0 0 0 0 0 0 0 0 0 0 0 0 0 0 0 
0 0 0 0 0 0 0 0 0 0 0 0 0 0 0 0 0 0 0 0 0 0 0 0 0 0 0 0 0 88 50 13 16 0 30 56 57 60 60 63 61 60 63 63 63 64 67 67 66 67 67 68 70 70 71 67 64 64 66 63 61 60 24 60 57 67 69 69 71 72 71 71 70 72 71 70 71 70 67 65 64 64 68 65 66 58 58 59 58 57 27 5 17 27 88 84 0 0 0 0 0 0 0 0 0 0 0 0 0 0 0 0 0 0 0 0 0 0 0 0 0 0 0 0 0 0 0 0 
0 0 0 0 0 0 0 0 0 0 0 0 0 0 0 0 0 0 0 0 0 0 0 0 0 0 0 0 51 88 22 19 11 4 39 53 57 58 57 55 59 61 62 63 65 66 65 69 67 67 69 68 70 69 70 68 66 64 65 63 59 61 49 59 62 64 69 70 69 71 73 71 72 71 71 71 69 68 68 68 66 68 66 63 62 57 59 62 63 60 55 6 15 23 69 88 20 0 0 0 0 0 0 0 0 0 0 0 0 0 0 0 0 0 0 0 0 0 0 0 0 0 0 0 0 0 0 0 
0 0 0 0 0 0 0 0 0 0 0 0 0 0 0 0 0 0 0 0 0 0 0 0 0 0 0 0 88 72 18 20 0 18 35 43 36 28 43 56 57 61 62 65 65 66 68 69 67 67 69 68 71 69 68 69 66 66 67 63 61 47 51 58 62 63 67 68 71 70 71 74 73 73 72 70 70 69 66 66 67 71 67 59 57 59 60 65 67 63 59 32 4 17 46 88 55 0 0 0 0 0 0 0 0 0 0 0 0 0 0 0 0 0 0 0 0 0 0 0 0 0 0 0 0 0 0 0 
0 0 0 0 0 0 0 0 0 0 0 0 0 0 0 0 0 0 0 0 0 0 0 0 0 0 0 24 88 40 13 18 11 34 31 42 42 48 50 61 61 61 63 64 66 65 65 67 67 68 70 70 70 71 69 70 71 69 67 63 63 39 60 61 64 66 68 70 72 72 70 73 73 71 71 69 70 68 66 65 66 67 66 65 61 64 67 67 65 64 59 52 12 9 39 88 88 0 0 0 0 0 0 0 0 0 0 0 0 0 0 0 0 0 0 0 0 0 0 0 0 0 0 0 0 0 0 0 
0 0 0 0 0 0 0 0 0 0 0 0 0 0 0 0 0 0 0 0 0 0 0 0 0 0 0 82 88 36 21 13 29 39 47 53 55 60 63 59 60 61 62 61 63 63 66 68 66 68 71 68 70 70 68 68 67 68 66 63 63 44 63 63 63 65 68 68 72 72 72 74 73 73 71 71 69 70 71 69 69 71 69 68 66 67 64 65 65 64 63 59 28 6 39 59 88 28 0 0 0 0 0 0 0 0 0 0 0 0 0 0 0 0 0 0 0 0 0 0 0 0 0 0 0 0 0 0 
0 0 0 0 0 0 0 0 0 0 0 0 0 0 0 0 0 0 0 0 0 0 0 0 0 0 0 88 61 23 48 2 35 46 54 55 57 53 55 54 55 61 53 51 61 62 67 66 67 67 70 70 73 69 70 63 66 67 65 65 66 61 64 65 66 68 68 70 71 69 73 76 74 72 74 72 70 72 69 69 70 68 70 68 70 66 66 64 62 64 63 61 44 4 25 47 88 68 0 0 0 0 0 0 0 0 0 0 0 0 0 0 0 0 0 0 0 0 0 0 0 0 0 0 0 0 0 0 
0 0 0 0 0 0 0 0 0 0 0 0 0 0 0 0 0 0 0 0 0 0 0 0 0 0 31 88 49 12 55 0 29 33 55 56 60 59 59 59 57 58 59 60 58 63 65 65 67 66 66 70 71 70 67 56 57 63 65 69 68 68 69 69 67 65 65 62 61 63 71 76 74 75 69 70 69 69 71 71 71 70 68 69 69 67 67 65 67 65 64 60 59 14 12 52 88 88 12 0 0 0 0 0 0 0 0 0 0 0 0 0 0 0 0 0 0 0 0 0 0 0 0 0 0 0 0 0 
0 0 0 0 0 0 0 0 0 0 0 0 0 0 0 0 0 0 0 0 0 0 0 0 0 0 88 88 56 13 31 27 60 39 50 57 59 63 62 59 55 57 60 61 61 64 64 67 67 67 70 70 69 70 65 44 46 51 52 58 62 68 66 67 67 63 57 55 51 53 74 75 76 73 71 73 74 70 72 71 68 68 69 69 67 65 65 63 65 62 66 63 61 28 6 58 57 88 36 0 0 0 0 0 0 0 0 0 0 0 0 0 0 0 0 0 0 0 0 0 0 0 0 0 0 0 0 0 
0 0 0 0 0 0 0 0 0 0 0 0 0 0 0 0 0 0 0 0 0 0 0 0 0 11 88 75 51 21 13 46 75 49 52 56 58 58 63 58 58 58 52 59 58 63 65 63 66 67 66 71 72 66 61 32 34 38 44 46 56 63 56 63 62 51 48 41 40 38 69 77 74 73 72 72 72 69 73 70 69 70 69 63 61 61 57 61 39 57 59 59 60 37 1 52 47 88 71 0 0 0 0 0 0 0 0 0 0 0 0 0 0 0 0 0 0 0 0 0 0 0 0 0 0 0 0 0 
0 0 0 0 0 0 0 0 0 0 0 0 0 0 0 0 0 0 0 0 0 0 0 0 0 33 88 49 39 19 11 39 53 51 54 57 55 56 53 61 54 55 58 57 62 63 63 64 66 67 66 69 74 66 59 28 31 32 31 35 44 61 49 57 54 42 33 34 32 27 65 72 71 72 69 70 71 71 71 70 69 70 66 58 56 56 59 62 51 45 52 55 56 49 8 34 41 88 88 21 0 0 0 0 0 0 0 0 0 0 0 0 0 0 0 0 0 0 0 0 0 0 0 0 0 0 0 0 
0 0 0 0 0 0 0 0 0 0 0 0 0 0 0 0 0 0 0 0 0 0 0 0 0 71 88 41 27 14 21 53 58 56 56 52 56 58 54 52 52 58 56 61 60 63 67 68 65 68 65 67 71 56 58 26 33 30 29 27 31 51 37 44 48 30 29 31 32 30 59 63 71 71 71 70 71 69 69 69 69 67 63 62 60 61 61 62 62 62 62 63 62 37 13 19 55 62 88 38 0 0 0 0 0 0 0 0 0 0 0 0 0 0 0 0 0 0 0 0 0 0 0 0 0 0 0 0 
0 0 0 0 0 0 0 0 0 0 0 0 0 0 0 0 0 0 0 0 0 0 0 0 0 88 56 58 13 13 25 57 60 60 53 48 52 56 59 51 55 59 61 61 64 67 68 65 67 67 66 69 67 58 61 31 32 31 29 29 29 42 32 41 35 26 28 31 29 31 60 56 73 70 69 70 71 71 70 71 68 72 64 64 64 64 65 65 62 63 61 63 58 58 6 14 59 52 88 69 0 0 0 0 0 0 0 0 0 0 0 0 0 0 0 0 0 0 0 0 0 0 0 0 0 0 0 0 
0 0 0 0 0 0 0 0 0 0 0 0 0 0 0 0 0 0 0 0 0 0 0 0 27 88 86 69 7 5 35 56 62 62 57 54 52 51 52 55 58 61 59 65 64 68 67 66 66 66 67 69 69 57 63 36 29 29 28 30 27 40 26 45 31 27 31 34 31 34 63 56 77 71 68 70 69 71 71 71 69 70 69 63 68 65 64 63 63 62 65 65 61 60 17 4 56 62 88 86 0 0 0 0 0 0 0 0 0 0 0 0 0 0 0 0 0 0 0 0 0 0 0 0 0 0 0 0 
0 0 0 0 0 0 0 0 0 0 0 0 0 0 0 0 0 0 0 0 0 0 0 0 46 88 62 59 9 3 44 58 58 62 63 58 59 57 59 54 58 61 63 67 66 68 67 67 67 67 66 68 75 59 66 41 29 30 26 33 27 41 25 38 28 29 30 31 34 38 63 58 76 69 69 67 70 68 70 70 70 68 70 69 65 63 65 64 66 66 67 62 61 64 21 2 50 41 88 88 19 0 0 0 0 0 0 0 0 0 0 0 0 0 0 0 0 0 0 0 0 0 0 0 0 0 0 0 
0 0 0 0 0 0 0 0 0 0 0 0 0 0 0 0 0 0 0 0 0 0 0 0 59 88 35 43 17 0 51 58 61 63 63 63 64 62 59 61 61 64 66 68 67 68 67 68 67 65 66 72 71 56 64 46 31 29 30 31 29 39 28 38 30 31 29 30 34 42 59 66 74 71 71 69 69 68 71 70 69 69 69 68 66 64 66 66 65 67 64 63 61 42 25 3 33 61 86 88 27 0 0 0 0 0 0 0 0 0 0 0 0 0 0 0 0 0 0 0 0 0 0 0 0 0 0 0 
0 0 0 0 0 0 0 0 0 0 0 0 0 0 0 0 0 0 0 0 0 0 0 0 88 88 42 25 22 0 52 59 62 62 62 62 61 64 63 64 65 66 67 66 65 66 68 68 67 66 69 69 75 62 63 53 34 31 29 32 30 42 26 38 28 31 31 29 32 48 56 72 69 76 71 67 69 71 72 71 71 68 70 68 66 67 67 67 66 64 62 59 61 56 15 6 22 81 73 88 46 0 0 0 0 0 0 0 0 0 0 0 0 0 0 0 0 0 0 0 0 0 0 0 0 0 0 0 
0 0 0 0 0 0 0 0 0 0 0 0 0 0 0 0 0 0 0 0 0 0 0 13 88 88 55 12 19 9 51 58 60 62 64 61 60 63 62 63 66 65 67 66 63 65 67 68 68 68 67 72 71 67 66 57 31 31 29 32 32 41 27 38 30 32 31 30 31 49 67 69 72 70 70 69 69 66 70 69 67 68 67 68 67 69 69 64 65 61 59 61 61 61 31 7 11 63 56 88 56 0 0 0 0 0 0 0 0 0 0 0 0 0 0 0 0 0 0 0 0 0 0 0 0 0 0 0 
0 0 0 0 0 0 0 0 0 0 0 0 0 0 0 0 0 0 0 0 0 0 0 23 88 84 60 6 13 18 48 56 60 59 61 61 62 63 63 66 65 68 66 64 64 64 66 68 67 69 71 68 69 68 59 63 29 30 30 28 32 39 28 42 29 32 31 29 29 59 73 69 70 69 69 67 68 70 70 70 68 67 67 66 70 68 66 67 63 57 60 61 66 61 50 4 9 63 43 88 72 0 0 0 0 0 0 0 0 0 0 0 0 0 0 0 0 0 0 0 0 0 0 0 0 0 0 0 
0 0 0 0 0 0 0 0 0 0 0 0 0 0 0 0 0 0 0 0 0 0 0 32 88 65 58 1 13 54 52 41 31 44 58 63 64 64 68 64 65 64 66 65 63 65 70 68 66 65 67 65 68 72 62 56 19 31 31 32 34 42 31 47 29 31 32 34 24 69 57 66 70 71 66 69 67 69 71 72 69 67 68 70 70 67 66 60 60 59 59 62 63 61 61 7 6 49 43 88 88 13 0 0 0 0 0 0 0 0 0 0 0 0 0 0 0 0 0 0 0 0 0 0 0 0 0 0 
0 0 0 0 0 0 0 0 0 0 0 0 0 0 0 0 0 0 0 0 0 0 0 38 88 43 46 2 13 57 58 51 59 61 63 64 67 65 66 66 67 66 66 64 64 65 67 69 67 68 68 69 72 70 69 46 33 29 29 30 43 42 41 44 29 31 32 31 29 31 63 68 69 68 67 69 68 69 70 71 72 68 69 70 69 70 67 64 64 65 62 61 63 63 63 16 5 34 47 88 88 25 0 0 0 0 0 0 0 0 0 0 0 0 0 0 0 0 0 0 0 0 0 0 0 0 0 0 
0 0 0 0 0 0 0 0 0 0 0 0 0 0 0 0 0 0 0 0 0 0 0 41 88 40 35 1 20 60 61 59 63 64 65 67 64 64 64 64 64 64 64 63 61 65 65 69 62 68 65 67 73 70 67 40 35 31 28 36 43 40 49 47 30 31 31 30 34 26 64 68 70 68 69 65 64 68 71 68 69 68 68 71 71 69 70 66 68 66 66 65 63 66 64 26 4 26 51 88 88 36 0 0 0 0 0 0 0 0 0 0 0 0 0 0 0 0 0 0 0 0 0 0 0 0 0 0 
0 0 0 0 0 0 0 0 0 0 0 0 0 0 0 0 0 0 0 0 0 0 0 65 88 39 18 3 30 58 62 64 66 63 63 63 63 59 57 58 58 58 59 63 61 53 63 66 64 63 63 67 72 68 66 36 37 32 27 42 45 39 48 49 32 34 30 30 34 30 58 65 67 68 67 69 70 68 68 66 68 68 66 65 69 71 69 69 69 67 67 66 67 64 60 44 5 12 58 88 88 53 0 0 0 0 0 0 0 0 0 0 0 0 0 0 0 0 0 0 0 0 0 0 0 0 0 0 
0 0 0 0 0 0 0 0 0 0 0 0 0 0 0 0 0 0 0 0 0 0 0 76 88 40 8 11 26 59 59 61 64 64 61 57 59 67 72 63 69 65 68 61 61 64 65 68 61 63 63 71 71 64 64 40 32 32 36 48 41 44 45 52 32 39 31 29 31 38 44 69 69 66 69 71 68 69 71 66 63 66 68 68 68 67 69 68 67 66 63 63 67 67 59 55 3 3 58 71 88 60 0 0 0 0 0 0 0 0 0 0 0 0 0 0 0 0 0 0 0 0 0 0 0 0 0 0 
0 0 0 0 0 0 0 0 0 0 0 0 0 0 0 0 0 0 0 0 0 0 0 88 88 46 6 7 29 58 59 63 65 66 63 59 59 59 54 57 61 60 57 51 58 67 68 69 65 66 62 64 68 72 62 37 31 29 41 50 39 45 41 51 38 42 30 27 30 36 55 68 68 63 68 64 65 65 71 64 65 64 67 64 62 63 62 64 62 63 59 60 62 61 58 59 1 6 55 51 88 75 0 0 0 0 0 0 0 0 0 0 0 0 0 0 0 0 0 0 0 0 0 0 0 0 0 0 
0 0 0 0 0 0 0 0 0 0 0 0 0 0 0 0 0 0 0 0 0 0 11 88 54 40 23 13 25 59 57 61 59 62 63 64 61 60 52 61 64 63 60 48 59 64 63 69 68 67 64 63 66 73 52 35 29 30 44 43 32 50 38 56 31 44 36 27 30 32 46 68 67 64 63 64 67 67 72 66 64 61 62 63 62 63 71 60 60 60 63 63 54 54 58 50 4 20 46 46 88 75 0 0 0 0 0 0 0 0 0 0 0 0 0 0 0 0 0 0 0 0 0 0 0 0 0 0 
0 0 0 0 0 0 0 0 0 0 0 0 0 0 0 0 0 0 0 0 0 0 20 88 59 31 29 14 48 59 54 57 56 62 61 61 62 56 55 66 61 66 62 61 54 67 71 68 67 67 67 68 67 69 45 32 31 33 39 41 31 50 35 59 26 38 42 30 28 31 38 62 67 66 65 64 68 69 70 65 60 61 63 63 62 63 61 65 65 65 65 61 57 59 45 36 5 33 32 44 88 87 13 0 0 0 0 0 0 0 0 0 0 0 0 0 0 0 0 0 0 0 0 0 0 0 0 0 
0 0 0 0 0 0 0 0 0 0 0 0 0 0 0 0 0 0 0 0 0 0 42 88 53 23 31 4 42 36 31 28 37 55 52 56 62 65 62 61 66 61 65 62 62 58 64 65 69 68 69 70 72 63 42 29 29 35 36 36 28 60 31 59 31 32 28 32 27 30 31 60 69 65 67 64 67 69 68 64 63 62 65 66 67 67 70 68 68 63 60 59 55 39 42 46 3 45 15 50 88 88 17 0 0 0 0 0 0 0 0 0 0 0 0 0 0 0 0 0 0 0 0 0 0 0 0 0 
0 0 0 0 0 0 0 0 0 0 0 0 0 0 0 0 0 0 0 0 0 0 64 88 45 12 33 0 35 39 43 51 63 42 61 62 64 62 62 63 63 59 57 60 61 62 62 62 68 70 73 70 67 52 32 29 31 31 28 36 25 61 28 59 39 28 29 32 30 28 30 43 68 72 68 68 68 68 64 64 63 67 67 69 69 63 61 63 63 58 62 27 51 57 59 48 0 33 11 58 88 88 28 0 0 0 0 0 0 0 0 0 0 0 0 0 0 0 0 0 0 0 0 0 0 0 0 0 
0 0 0 0 0 0 0 0 0 0 0 0 0 0 0 0 0 0 0 0 0 11 77 88 41 13 27 0 39 46 50 52 45 47 45 52 50 56 60 60 60 60 51 54 48 63 61 65 66 71 68 71 72 41 29 28 30 30 30 29 32 63 34 55 52 27 28 29 31 25 30 27 62 70 65 69 68 68 65 64 66 63 69 66 63 49 56 52 56 60 49 51 63 62 61 46 11 23 11 55 88 88 32 0 0 0 0 0 0 0 0 0 0 0 0 0 0 0 0 0 0 0 0 0 0 0 0 0 
0 0 0 0 0 0 0 0 0 0 0 0 0 0 0 0 0 0 0 0 0 12 88 88 48 8 22 7 50 54 58 58 58 58 61 53 49 72 73 68 58 58 47 46 45 57 56 61 67 70 71 74 62 25 31 29 28 29 28 24 55 53 53 54 64 29 31 29 27 29 29 27 40 72 72 67 68 66 64 68 63 64 66 65 58 59 62 63 64 65 64 64 65 65 50 39 15 21 13 43 88 88 41 0 0 0 0 0 0 0 0 0 0 0 0 0 0 0 0 0 0 0 0 0 0 0 0 0 
0 0 0 0 0 0 0 0 0 0 0 0 0 0 0 0 0 0 0 0 0 19 88 88 45 8 25 11 51 59 59 60 59 61 62 63 62 58 51 44 29 36 50 42 63 59 65 65 71 70 71 79 32 31 28 26 27 31 30 31 73 53 61 59 63 48 31 28 29 29 25 30 26 56 72 73 70 69 64 61 59 63 67 63 61 63 69 68 69 66 69 65 68 63 44 38 20 22 11 47 88 88 35 0 0 0 0 0 0 0 0 0 0 0 0 0 0 0 0 0 0 0 0 0 0 0 0 0 
0 0 0 0 0 0 0 0 0 0 0 0 0 0 0 0 0 0 0 0 0 26 88 88 44 6 32 5 52 59 63 63 64 64 66 66 65 62 63 62 53 53 42 48 62 64 65 71 72 75 76 52 26 26 29 30 31 30 30 66 69 59 65 63 63 66 36 31 26 29 26 28 30 29 73 70 70 66 64 58 58 63 68 66 68 70 70 65 66 65 60 63 66 64 26 29 19 23 11 52 88 88 35 0 0 0 0 0 0 0 0 0 0 0 0 0 0 0 0 0 0 0 0 0 0 0 0 0 
0 0 0 0 0 0 0 0 0 0 0 0 0 0 0 0 0 0 0 0 0 29 88 88 50 7 46 0 51 58 59 60 62 62 67 67 68 67 66 64 61 59 65 53 64 63 67 70 72 73 73 26 33 25 27 32 28 35 46 71 70 63 69 67 66 72 54 37 29 29 28 29 26 26 54 70 69 68 67 64 63 66 68 69 68 66 66 63 65 64 58 30 48 59 23 52 13 33 13 48 88 88 25 0 0 0 0 0 0 0 0 0 0 0 0 0 0 0 0 0 0 0 0 0 0 0 0 0 
0 0 0 0 0 0 0 0 0 0 0 0 0 0 0 0 0 0 0 0 0 27 88 79 50 3 60 0 49 48 61 59 62 61 63 65 62 66 69 67 65 66 62 60 62 66 68 70 70 75 36 26 27 26 29 31 29 37 62 69 67 69 69 67 67 69 71 50 30 30 30 26 28 31 36 73 72 68 67 65 63 66 65 63 63 62 55 63 66 66 61 60 62 61 60 49 12 26 8 46 88 82 14 0 0 0 0 0 0 0 0 0 0 0 0 0 0 0 0 0 0 0 0 0 0 0 0 0 
0 0 0 0 0 0 0 0 0 0 0 0 0 0 0 0 0 0 0 0 0 35 88 88 46 6 66 0 49 63 54 59 55 58 60 60 60 61 66 70 68 69 68 65 68 72 74 71 74 52 28 27 28 26 30 31 33 60 69 69 69 69 67 70 71 64 68 71 51 36 34 30 27 30 27 63 70 71 67 63 65 63 63 63 60 57 61 64 64 66 69 64 64 64 60 57 15 22 13 49 88 72 0 0 0 0 0 0 0 0 0 0 0 0 0 0 0 0 0 0 0 0 0 0 0 0 0 0 
0 0 0 0 0 0 0 0 0 0 0 0 0 0 0 0 0 0 0 0 0 28 88 88 62 13 62 3 27 46 55 55 61 61 60 60 57 61 64 67 70 70 71 72 71 72 70 74 66 35 28 28 27 29 32 32 42 72 69 67 70 68 67 67 69 71 69 67 65 37 31 31 27 28 31 52 70 70 69 69 66 65 64 63 61 54 65 65 64 65 65 66 63 61 61 61 13 21 6 49 88 57 0 0 0 0 0 0 0 0 0 0 0 0 0 0 0 0 0 0 0 0 0 0 0 0 0 0 
0 0 0 0 0 0 0 0 0 0 0 0 0 0 0 0 0 0 0 0 0 23 88 88 74 13 53 6 25 58 59 63 64 63 65 65 64 66 67 68 72 71 71 74 72 71 74 73 52 29 28 26 27 31 31 34 63 70 71 69 69 68 79 65 73 70 68 68 72 51 32 31 28 27 31 50 70 71 70 70 68 69 68 67 64 59 55 62 61 61 61 57 59 60 57 61 13 25 7 56 88 52 0 0 0 0 0 0 0 0 0 0 0 0 0 0 0 0 0 0 0 0 0 0 0 0 0 0 
0 0 0 0 0 0 0 0 0 0 0 0 0 0 0 0 0 0 0 0 0 16 86 88 88 15 42 8 30 61 60 64 67 64 63 65 67 66 66 70 71 69 72 72 73 73 72 67 41 28 28 27 30 33 32 54 70 68 71 71 70 64 11 42 69 71 70 70 68 66 37 31 29 28 32 50 68 72 70 71 73 71 68 70 65 65 60 50 48 52 58 56 50 51 59 60 7 28 3 68 88 57 0 0 0 0 0 0 0 0 0 0 0 0 0 0 0 0 0 0 0 0 0 0 0 0 0 0 
0 0 0 0 0 0 0 0 0 0 0 0 0 0 0 0 0 0 0 0 0 0 73 88 88 20 29 19 23 61 61 64 63 61 61 61 63 67 66 70 70 70 71 69 70 72 73 61 35 27 28 28 30 31 40 68 66 70 71 71 69 85 13 44 65 71 69 68 70 73 50 36 31 31 36 51 68 72 72 72 71 71 69 70 71 68 69 67 66 63 62 59 57 57 56 57 1 30 5 83 88 56 0 0 0 0 0 0 0 0 0 0 0 0 0 0 0 0 0 0 0 0 0 0 0 0 0 0 
0 0 0 0 0 0 0 0 0 0 0 0 0 0 0 0 0 0 0 0 0 0 65 88 88 31 18 29 15 55 57 52 60 65 64 62 65 64 66 73 72 72 73 72 68 72 75 53 31 27 25 31 29 30 52 71 68 69 71 70 63 57 21 57 71 66 64 69 69 69 70 46 38 34 39 50 67 72 70 71 69 71 71 69 70 66 69 73 71 69 66 61 61 61 62 47 2 27 13 88 88 68 0 0 0 0 0 0 0 0 0 0 0 0 0 0 0 0 0 0 0 0 0 0 0 0 0 0 
0 0 0 0 0 0 0 0 0 0 0 0 0 0 0 0 0 0 0 0 0 0 50 88 88 42 9 29 13 62 55 60 59 60 60 61 63 65 70 69 69 69 71 66 70 73 70 46 29 30 26 30 29 38 65 66 71 71 66 62 62 65 37 42 63 65 63 68 68 69 71 54 46 40 41 49 66 70 71 68 72 70 67 67 68 64 66 67 67 65 65 64 61 62 58 55 5 23 9 88 88 74 0 0 0 0 0 0 0 0 0 0 0 0 0 0 0 0 0 0 0 0 0 0 0 0 0 0 
0 0 0 0 0 0 0 0 0 0 0 0 0 0 0 0 0 0 0 0 0 0 38 88 88 74 4 30 2 45 44 61 58 61 60 63 64 69 72 68 70 70 72 71 72 74 66 42 28 28 26 28 33 45 72 66 69 66 63 68 66 62 49 55 66 66 63 66 67 70 70 67 47 46 40 51 65 74 70 69 71 72 68 67 64 59 57 62 63 61 65 64 62 59 58 54 2 20 16 88 88 69 0 0 0 0 0 0 0 0 0 0 0 0 0 0 0 0 0 0 0 0 0 0 0 0 0 0 
0 0 0 0 0 0 0 0 0 0 0 0 0 0 0 0 0 0 0 0 0 0 21 88 88 88 5 26 4 53 52 59 63 60 63 62 66 68 71 70 69 71 69 71 72 74 64 42 30 28 30 36 43 64 66 70 68 69 72 70 63 62 49 65 63 67 67 70 66 68 70 71 56 48 53 51 67 72 72 69 74 69 71 69 66 63 58 59 56 55 56 60 63 64 59 45 4 15 39 88 88 61 0 0 0 0 0 0 0 0 0 0 0 0 0 0 0 0 0 0 0 0 0 0 0 0 0 0 
0 0 0 0 0 0 0 0 0 0 0 0 0 0 0 0 0 0 0 0 0 0 11 74 88 88 14 29 7 44 52 64 65 66 65 70 69 67 65 63 63 64 68 68 73 73 64 42 33 31 35 37 46 71 67 70 68 70 70 68 64 62 42 56 62 69 69 70 70 68 69 69 63 52 51 57 63 72 71 70 69 71 71 70 69 65 64 59 58 54 54 57 60 65 63 25 16 6 69 88 88 62 0 0 0 0 0 0 0 0 0 0 0 0 0 0 0 0 0 0 0 0 0 0 0 0 0 0 
0 0 0 0 0 0 0 0 0 0 0 0 0 0 0 0 0 0 0 0 0 0 0 64 88 88 35 18 21 22 57 63 64 65 64 63 64 62 62 60 61 62 63 69 71 72 63 43 35 34 41 38 65 69 70 68 74 71 73 69 67 62 59 61 61 68 66 66 72 67 70 71 69 56 59 60 65 75 68 67 71 67 67 68 68 71 65 65 62 59 59 54 56 58 60 0 37 0 88 88 88 38 0 0 0 0 0 0 0 0 0 0 0 0 0 0 0 0 0 0 0 0 0 0 0 0 0 0 
0 0 0 0 0 0 0 0 0 0 0 0 0 0 0 0 0 0 0 0 0 0 0 46 88 88 80 9 45 0 51 52 63 69 72 47 36 48 60 61 61 63 67 69 70 72 64 47 42 47 43 58 73 69 66 71 71 66 65 65 64 63 64 62 59 63 61 63 68 65 68 70 70 66 63 65 70 70 68 71 66 62 63 66 65 66 65 68 65 67 61 59 57 52 27 11 40 0 88 88 86 23 0 0 0 0 0 0 0 0 0 0 0 0 0 0 0 0 0 0 0 0 0 0 0 0 0 0 
0 0 0 0 0 0 0 0 0 0 0 0 0 0 0 0 0 0 0 0 0 0 0 32 88 88 88 0 57 3 33 28 54 57 52 60 63 62 61 63 65 66 70 69 71 73 67 55 51 52 56 68 67 66 67 68 67 67 67 61 68 65 51 33 66 60 61 64 69 69 65 67 71 68 65 66 73 71 69 71 63 64 61 62 63 63 63 65 60 63 68 65 60 52 7 43 31 21 88 88 77 13 0 0 0 0 0 0 0 0 0 0 0 0 0 0 0 0 0 0 0 0 0 0 0 0 0 0 
0 0 0 0 0 0 0 0 0 0 0 0 0 0 0 0 0 0 0 0 0 0 0 0 73 88 88 20 37 23 14 59 63 64 63 64 65 66 67 67 68 70 69 74 69 75 77 63 49 56 61 65 64 65 66 68 66 64 63 61 61 60 48 58 60 59 59 63 67 70 67 65 67 68 69 72 72 70 68 72 63 62 56 61 62 62 62 59 60 60 58 63 56 44 0 57 17 87 88 88 62 0 0 0 0 0 0 0 0 0 0 0 0 0 0 0 0 0 0 0 0 0 0 0 0 0 0 0 
0 0 0 0 0 0 0 0 0 0 0 0 0 0 0 0 0 0 0 0 0 0 0 0 51 88 88 63 12 40 16 63 65 67 67 69 66 68 67 68 69 71 72 69 72 74 74 70 62 58 63 65 64 68 66 65 67 63 64 60 58 38 46 62 63 63 65 69 66 70 66 63 66 69 69 74 71 70 70 67 68 63 60 51 56 56 46 42 45 62 73 38 57 24 16 60 0 88 88 88 41 0 0 0 0 0 0 0 0 0 0 0 0 0 0 0 0 0 0 0 0 0 0 0 0 0 0 0 
0 0 0 0 0 0 0 0 0 0 0 0 0 0 0 0 0 0 0 0 0 0 0 0 24 88 88 56 0 51 0 51 63 63 60 62 63 61 63 66 64 65 68 70 72 73 71 71 63 60 63 64 66 66 64 64 64 63 63 57 48 44 51 59 67 70 65 65 60 61 65 63 62 68 69 73 72 69 67 73 69 67 62 61 60 57 61 65 63 60 54 60 43 4 45 43 0 88 88 73 16 0 0 0 0 0 0 0 0 0 0 0 0 0 0 0 0 0 0 0 0 0 0 0 0 0 0 0 
0 0 0 0 0 0 0 0 0 0 0 0 0 0 0 0 0 0 0 0 0 0 0 0 0 76 88 88 4 48 14 19 41 46 56 60 58 59 64 62 65 66 68 72 73 70 71 71 68 61 63 63 67 63 63 61 63 61 61 59 64 67 62 60 64 67 61 66 60 59 67 61 66 68 71 70 72 74 69 62 72 71 67 64 65 49 57 64 64 61 55 58 33 5 50 21 36 88 88 60 0 0 0 0 0 0 0 0 0 0 0 0 0 0 0 0 0 0 0 0 0 0 0 0 0 0 0 0 
0 0 0 0 0 0 0 0 0 0 0 0 0 0 0 0 0 0 0 0 0 0 0 0 0 47 88 88 67 18 53 0 72 54 63 63 63 67 67 67 67 67 71 69 72 71 73 74 65 63 62 64 66 60 61 63 63 61 58 66 66 65 50 61 61 60 60 60 59 63 64 63 64 64 66 71 69 71 69 74 71 71 69 67 66 64 58 54 61 63 61 61 44 6 57 8 88 88 88 45 0 0 0 0 0 0 0 0 0 0 0 0 0 0 0 0 0 0 0 0 0 0 0 0 0 0 0 0 
0 0 0 0 0 0 0 0 0 0 0 0 0 0 0 0 0 0 0 0 0 0 0 0 0 31 88 88 88 0 57 16 13 62 62 65 65 67 65 67 65 68 67 72 69 73 70 70 68 65 62 63 66 67 63 66 66 66 68 65 64 63 51 39 58 66 59 59 64 65 63 60 65 66 68 69 72 68 68 70 69 71 69 67 69 65 63 65 63 63 61 62 25 24 40 0 88 88 79 20 0 0 0 0 0 0 0 0 0 0 0 0 0 0 0 0 0 0 0 0 0 0 0 0 0 0 0 0 
0 0 0 0 0 0 0 0 0 0 0 0 0 0 0 0 0 0 0 0 0 0 0 0 0 0 76 88 88 17 18 49 0 62 63 70 66 68 66 64 65 69 70 70 71 71 70 72 70 68 63 63 68 65 69 70 69 67 66 65 63 64 58 65 65 64 66 66 65 65 64 63 64 65 67 70 69 69 68 70 66 67 68 66 70 68 67 65 61 61 59 56 2 49 11 35 88 88 57 0 0 0 0 0 0 0 0 0 0 0 0 0 0 0 0 0 0 0 0 0 0 0 0 0 0 0 0 0 
0 0 0 0 0 0 0 0 0 0 0 0 0 0 0 0 0 0 0 0 0 0 0 0 0 0 56 88 88 77 0 53 11 43 63 62 63 62 56 62 63 70 68 66 63 68 68 69 67 69 62 61 67 72 67 68 67 69 62 58 66 57 61 66 65 67 66 65 65 66 63 63 63 68 68 67 70 68 69 66 64 64 63 65 65 66 63 60 59 60 58 26 17 39 0 76 88 88 31 0 0 0 0 0 0 0 0 0 0 0 0 0 0 0 0 0 0 0 0 0 0 0 0 0 0 0 0 0 
0 0 0 0 0 0 0 0 0 0 0 0 0 0 0 0 0 0 0 0 0 0 0 0 0 0 41 88 88 88 0 13 54 3 58 63 58 58 60 60 65 67 69 66 64 65 67 65 71 65 66 65 64 68 67 67 63 57 61 67 65 54 57 60 51 57 56 63 67 64 63 64 65 68 67 68 68 68 67 65 64 62 61 63 62 64 62 62 59 57 47 4 47 5 1 88 88 73 0 0 0 0 0 0 0 0 0 0 0 0 0 0 0 0 0 0 0 0 0 0 0 0 0 0 0 0 0 0 
0 0 0 0 0 0 0 0 0 0 0 0 0 0 0 0 0 0 0 0 0 0 0 0 0 0 11 75 88 88 64 0 32 30 23 49 56 65 53 59 63 68 68 64 65 67 64 66 65 67 67 63 66 65 53 63 65 63 65 64 63 53 47 58 64 65 70 68 64 64 63 64 66 67 65 69 68 68 67 63 61 61 59 64 63 62 63 62 63 56 27 18 29 0 70 88 88 48 0 0 0 0 0 0 0 0 0 0 0 0 0 0 0 0 0 0 0 0 0 0 0 0 0 0 0 0 0 0 
0 0 0 0 0 0 0 0 0 0 0 0 0 0 0 0 0 0 0 0 0 0 0 0 0 0 0 54 88 88 88 14 6 52 11 39 60 60 64 54 60 65 68 63 66 68 70 64 67 69 67 71 68 63 51 61 63 62 65 64 64 51 50 65 66 66 66 68 66 67 64 65 68 64 69 64 70 68 65 66 63 61 55 62 59 57 60 62 62 61 5 45 4 20 88 88 81 26 0 0 0 0 0 0 0 0 0 0 0 0 0 0 0 0 0 0 0 0 0 0 0 0 0 0 0 0 0 0 
0 0 0 0 0 0 0 0 0 0 0 0 0 0 0 0 0 0 0 0 0 0 0 0 0 0 0 20 82 88 88 88 0 17 49 4 55 58 63 57 63 66 67 65 63 66 69 69 69 69 67 65 71 63 64 57 54 63 64 61 60 39 62 63 66 66 68 67 66 65 66 65 63 64 66 66 67 63 63 64 63 59 60 50 60 59 61 63 62 28 24 21 0 88 88 85 56 0 0 0 0 0 0 0 0 0 0 0 0 0 0 0 0 0 0 0 0 0 0 0 0 0 0 0 0 0 0 0 
0 0 0 0 0 0 0 0 0 0 0 0 0 0 0 0 0 0 0 0 0 0 0 0 0 0 0 0 64 88 88 88 80 0 35 34 20 61 62 57 62 65 66 64 64 67 68 69 70 67 68 67 70 62 75 39 59 63 60 60 55 48 50 56 63 65 64 65 68 65 64 65 65 64 66 67 67 63 64 61 64 60 58 49 59 62 62 62 44 12 18 2 43 88 87 70 13 0 0 0 0 0 0 0 0 0 0 0 0 0 0 0 0 0 0 0 0 0 0 0 0 0 0 0 0 0 0 0 
0 0 0 0 0 0 0 0 0 0 0 0 0 0 0 0 0 0 0 0 0 0 0 0 0 0 0 0 19 76 88 88 88 47 0 48 16 41 56 55 60 63 66 64 65 65 63 68 70 69 68 68 68 63 75 68 66 65 61 63 58 38 54 63 65 63 64 65 66 65 64 64 62 64 66 67 67 64 62 63 61 63 56 48 59 61 61 38 4 18 4 28 88 88 84 40 0 0 0 0 0 0 0 0 0 0 0 0 0 0 0 0 0 0 0 0 0 0 0 0 0 0 0 0 0 0 0 0 
0 0 0 0 0 0 0 0 0 0 0 0 0 0 0 0 0 0 0 0 0 0 0 0 0 0 0 0 0 44 88 88 88 88 25 7 31 13 54 54 61 63 69 66 65 64 63 62 68 70 70 68 66 68 62 66 64 64 64 65 63 54 57 63 63 64 65 65 67 66 68 65 63 65 65 65 66 63 63 60 59 61 58 46 51 59 34 2 25 13 24 88 88 88 65 0 0 0 0 0 0 0 0 0 0 0 0 0 0 0 0 0 0 0 0 0 0 0 0 0 0 0 0 0 0 0 0 0 
0 0 0 0 0 0 0 0 0 0 0 0 0 0 0 0 0 0 0 0 0 0 0 0 0 0 0 0 0 0 51 88 88 88 88 0 12 4 26 48 60 65 68 67 63 64 63 63 65 69 66 66 67 66 62 66 66 64 62 62 54 60 63 64 65 65 67 64 66 65 67 64 62 62 63 64 66 64 66 59 64 61 57 39 44 34 12 28 15 9 88 88 88 82 42 0 0 0 0 0 0 0 0 0 0 0 0 0 0 0 0 0 0 0 0 0 0 0 0 0 0 0 0 0 0 0 0 0 
0 0 0 0 0 0 0 0 0 0 0 0 0 0 0 0 0 0 0 0 0 0 0 0 0 0 0 0 0 0 0 58 88 88 88 71 7 50 4 41 57 63 67 63 62 59 57 58 69 64 67 69 68 68 63 63 66 68 66 63 60 61 64 62 64 65 64 64 65 63 66 63 65 65 63 63 66 64 63 64 55 61 58 31 37 20 27 19 3 88 88 88 88 64 13 0 0 0 0 0 0 0 0 0 0 0 0 0 0 0 0 0 0 0 0 0 0 0 0 0 0 0 0 0 0 0 0 0 
0 0 0 0 0 0 0 0 0 0 0 0 0 0 0 0 0 0 0 0 0 0 0 0 0 0 0 0 0 0 0 0 68 88 88 88 32 29 50 22 61 62 62 62 53 59 64 66 63 69 66 66 69 66 68 64 66 64 64 65 59 60 63 67 64 65 65 65 66 65 65 65 63 64 64 63 60 60 62 62 62 56 40 35 22 31 22 1 66 88 88 88 76 35 0 0 0 0 0 0 0 0 0 0 0 0 0 0 0 0 0 0 0 0 0 0 0 0 0 0 0 0 0 0 0 0 0 0 
0 0 0 0 0 0 0 0 0 0 0 0 0 0 0 0 0 0 0 0 0 0 0 0 0 0 0 0 0 0 0 0 14 76 82 88 88 5 26 39 22 50 58 46 59 64 63 65 68 66 64 66 66 66 69 67 65 63 64 65 51 59 63 66 65 63 62 63 64 66 65 64 63 62 63 61 60 58 58 61 54 50 30 18 50 21 2 36 88 88 77 82 50 0 0 0 0 0 0 0 0 0 0 0 0 0 0 0 0 0 0 0 0 0 0 0 0 0 0 0 0 0 0 0 0 0 0 0 
0 0 0 0 0 0 0 0 0 0 0 0 0 0 0 0 0 0 0 0 0 0 0 0 0 0 0 0 0 0 0 0 0 26 79 72 88 88 5 20 34 7 31 46 61 63 65 64 66 65 63 63 65 67 66 67 68 63 62 62 46 63 63 63 61 63 63 62 64 67 64 61 57 60 60 61 62 62 61 50 48 22 20 54 39 4 21 88 88 88 82 58 0 0 0 0 0 0 0 0 0 0 0 0 0 0 0 0 0 0 0 0 0 0 0 0 0 0 0 0 0 0 0 0 0 0 0 0 
0 0 0 0 0 0 0 0 0 0 0 0 0 0 0 0 0 0 0 0 0 0 0 0 0 0 0 0 0 0 0 0 0 0 27 88 77 88 88 0 25 48 16 14 63 59 62 61 67 65 63 59 63 64 67 63 62 63 63 43 60 59 63 61 57 63 63 66 65 66 64 62 60 58 57 59 54 57 55 34 18 44 52 38 7 1 88 88 88 87 65 11 0 0 0 0 0 0 0 0 0 0 0 0 0 0 0 0 0 0 0 0 0 0 0 0 0 0 0 0 0 0 0 0 0 0 0 0 
0 0 0 0 0 0 0 0 0 0 0 0 0 0 0 0 0 0 0 0 0 0 0 0 0 0 0 0 0 0 0 0 0 0 0 32 84 79 88 88 0 23 49 29 13 54 60 62 63 68 66 58 64 64 68 64 67 58 58 80 75 67 59 62 65 63 63 67 65 63 62 64 63 54 52 46 46 35 11 44 69 59 36 3 15 88 88 87 82 74 25 0 0 0 0 0 0 0 0 0 0 0 0 0 0 0 0 0 0 0 0 0 0 0 0 0 0 0 0 0 0 0 0 0 0 0 0 0 
0 0 0 0 0 0 0 0 0 0 0 0 0 0 0 0 0 0 0 0 0 0 0 0 0 0 0 0 0 0 0 0 0 0 0 0 41 85 70 88 88 2 20 47 54 15 17 52 63 59 58 58 59 65 60 65 37 6 60 88 55 41 54 56 60 61 62 64 60 52 62 59 63 56 50 36 24 33 61 62 55 20 0 39 88 88 79 79 71 26 0 0 0 0 0 0 0 0 0 0 0 0 0 0 0 0 0 0 0 0 0 0 0 0 0 0 0 0 0 0 0 0 0 0 0 0 0 0 
0 0 0 0 0 0 0 0 0 0 0 0 0 0 0 0 0 0 0 0 0 0 0 0 0 0 0 0 0 0 0 0 0 0 0 0 0 31 84 50 88 88 1 7 32 70 54 25 26 41 66 51 49 49 88 38 15 29 48 88 51 29 59 64 65 69 60 62 66 71 56 62 59 57 25 23 57 63 46 44 11 0 72 88 88 73 83 60 27 0 0 0 0 0 0 0 0 0 0 0 0 0 0 0 0 0 0 0 0 0 0 0 0 0 0 0 0 0 0 0 0 0 0 0 0 0 0 0 
0 0 0 0 0 0 0 0 0 0 0 0 0 0 0 0 0 0 0 0 0 0 0 0 0 0 0 0 0 0 0 0 0 0 0 0 0 0 19 72 53 88 88 38 0 11 45 66 66 58 47 31 36 35 35 49 39 48 88 88 53 74 57 67 57 61 66 69 72 80 72 53 24 26 54 57 55 42 25 2 27 88 88 81 64 76 39 0 0 0 0 0 0 0 0 0 0 0 0 0 0 0 0 0 0 0 0 0 0 0 0 0 0 0 0 0 0 0 0 0 0 0 0 0 0 0 0 0 
0 0 0 0 0 0 0 0 0 0 0 0 0 0 0 0 0 0 0 0 0 0 0 0 0 0 0 0 0 0 0 0 0 0 0 0 0 0 0 0 63 66 78 88 88 34 0 15 38 53 58 65 64 74 76 70 53 43 46 55 62 67 44 49 63 63 61 57 56 36 22 33 57 60 53 46 28 0 17 76 88 88 56 79 67 19 0 0 0 0 0 0 0 0 0 0 0 0 0 0 0 0 0 0 0 0 0 0 0 0 0 0 0 0 0 0 0 0 0 0 0 0 0 0 0 0 0 0 
0 0 0 0 0 0 0 0 0 0 0 0 0 0 0 0 0 0 0 0 0 0 0 0 0 0 0 0 0 0 0 0 0 0 0 0 0 0 0 0 0 34 75 51 88 88 88 46 8 0 22 40 53 55 50 58 59 66 64 69 76 74 80 54 37 34 34 31 24 42 60 56 53 40 22 3 24 88 88 88 61 67 72 40 0 0 0 0 0 0 0 0 0 0 0 0 0 0 0 0 0 0 0 0 0 0 0 0 0 0 0 0 0 0 0 0 0 0 0 0 0 0 0 0 0 0 0 0 
0 0 0 0 0 0 0 0 0 0 0 0 0 0 0 0 0 0 0 0 0 0 0 0 0 0 0 0 0 0 0 0 0 0 0 0 0 0 0 0 0 0 23 68 59 52 88 88 88 88 55 29 12 11 18 28 37 42 49 52 53 58 55 67 62 52 51 48 54 47 34 17 7 13 45 88 88 88 62 58 77 47 0 0 0 0 0 0 0 0 0 0 0 0 0 0 0 0 0 0 0 0 0 0 0 0 0 0 0 0 0 0 0 0 0 0 0 0 0 0 0 0 0 0 0 0 0 0 
0 0 0 0 0 0 0 0 0 0 0 0 0 0 0 0 0 0 0 0 0 0 0 0 0 0 0 0 0 0 0 0 0 0 0 0 0 0 0 0 0 0 0 0 39 68 62 49 60 84 88 88 88 88 67 45 38 32 40 38 33 28 35 30 33 31 31 27 28 26 47 68 88 88 88 74 52 60 67 51 14 0 0 0 0 0 0 0 0 0 0 0 0 0 0 0 0 0 0 0 0 0 0 0 0 0 0 0 0 0 0 0 0 0 0 0 0 0 0 0 0 0 0 0 0 0 0 0 
0 0 0 0 0 0 0 0 0 0 0 0 0 0 0 0 0 0 0 0 0 0 0 0 0 0 0 0 0 0 0 0 0 0 0 0 0 0 0 0 0 0 0 0 0 0 30 57 64 61 57 45 60 88 88 88 88 88 88 88 88 88 88 88 88 88 88 88 88 88 88 76 53 42 45 64 60 43 16 0 0 0 0 0 0 0 0 0 0 0 0 0 0 0 0 0 0 0 0 0 0 0 0 0 0 0 0 0 0 0 0 0 0 0 0 0 0 0 0 0 0 0 0 0 0 0 0 0 
0 0 0 0 0 0 0 0 0 0 0 0 0 0 0 0 0 0 0 0 0 0 0 0 0 0 0 0 0 0 0 0 0 0 0 0 0 0 0 0 0 0 0 0 0 0 0 0 0 17 23 46 61 57 49 47 51 53 53 47 51 57 58 66 58 48 46 47 44 45 52 53 58 56 43 22 0 0 0 0 0 0 0 0 0 0 0 0 0 0 0 0 0 0 0 0 0 0 0 0 0 0 0 0 0 0 0 0 0 0 0 0 0 0 0 0 0 0 0 0 0 0 0 0 0 0 0 0 
0 0 0 0 0 0 0 0 0 0 0 0 0 0 0 0 0 0 0 0 0 0 0 0 0 0 0 0 0 0 0 0 0 0 0 0 0 0 0 0 0 0 0 0 0 0 0 0 0 0 0 0 11 30 45 58 63 61 59 64 61 64 71 61 62 63 62 56 55 45 34 22 0 0 0 0 0 0 0 0 0 0 0 0 0 0 0 0 0 0 0 0 0 0 0 0 0 0 0 0 0 0 0 0 0 0 0 0 0 0 0 0 0 0 0 0 0 0 0 0 0 0 0 0 0 0 0 0 
0 0 0 0 0 0 0 0 0 0 0 0 0 0 0 0 0 0 0 0 0 0 0 0 0 0 0 0 0 0 0 0 0 0 0 0 0 0 0 0 0 0 0 0 0 0 0 0 0 0 0 0 0 0 0 0 0 0 0 0 0 12 0 12 20 0 0 0 0 0 0 0 0 0 0 0 0 0 0 0 0 0 0 0 0 0 0 0 0 0 0 0 0 0 0 0 0 0 0 0 0 0 0 0 0 0 0 0 0 0 0 0 0 0 0 0 0 0 0 0 0 0 0 0 0 0 0 0 
0 0 0 0 0 0 0 0 0 0 0 0 0 0 0 0 0 0 0 0 0 0 0 0 0 0 0 0 0 0 0 0 0 0 0 0 0 0 0 0 0 0 0 0 0 0 0 0 0 0 0 0 0 0 0 0 0 0 0 0 0 0 0 0 0 0 0 0 0 0 0 0 0 0 0 0 0 0 0 0 0 0 0 0 0 0 0 0 0 0 0 0 0 0 0 0 0 0 0 0 0 0 0 0 0 0 0 0 0 0 0 0 0 0 0 0 0 0 0 0 0 0 0 0 0 0 0 0 
0 0 0 0 0 0 0 0 0 0 0 0 0 0 0 0 0 0 0 0 0 0 0 0 0 0 0 0 0 0 0 0 0 0 0 0 0 0 0 0 0 0 0 0 0 0 0 0 0 0 0 0 0 0 0 0 0 0 0 0 0 0 0 0 0 0 0 0 0 0 0 0 0 0 0 0 0 0 0 0 0 0 0 0 0 0 0 0 0 0 0 0 0 0 0 0 0 0 0 0 0 0 0 0 0 0 0 0 0 0 0 0 0 0 0 0 0 0 0 0 0 0 0 0 0 0 0 0 
