P2
128 128
88
0 0 0 0 0 0 0 0 0 0 0 0 0 0 0 0 0 0 0 0 0 0 0 0 0 0 0 0 0 0 0 0 0 0 0 0 0 0 0 0 0 0 0 0 0 0 0 0 0 0 0 0 0 0 0 0 0 0 0 0 0 0 0 0 0 0 0 0 0 0 0 0 0 0 0 0 0 0 0 0 0 0 0 0 0 0 0 0 0 0 0 0 0 0 0 0 0 0 0 0 0 0 0 0 0 0 0 0 0 0 0 0 0 0 0 0 0 0 0 0 0 0 0 0 0 0 0 0 
0 0 0 0 0 0 0 0 0 0 0 0 0 0 0 0 0 0 0 0 0 0 0 0 0 0 0 0 0 0 0 0 0 0 0 0 0 0 0 0 0 0 0 0 0 0 0 0 0 0 0 0 0 0 0 0 0 0 0 0 0 0 0 0 0 0 0 0 0 0 0 0 0 0 0 0 0 0 0 0 0 0 0 0 0 0 0 0 0 0 0 0 0 0 0 0 0 0 0 0 0 0 0 0 0 0 0 0 0 0 0 0 0 0 0 0 0 0 0 0 0 0 0 0 0 0 0 0 
0 0 0 0 0 0 0 0 0 0 0 0 0 0 0 0 0 0 0 0 0 0 0 0 0 0 0 0 0 0 0 0 0 0 0 0 0 0 0 0 0 0 0 0 0 0 0 0 0 0 0 0 0 0 0 0 0 0 0 0 0 0 0 0 0 0 0 0 0 0 0 0 0 0 0 0 0 0 0 0 0 0 0 0 0 0 0 0 0 0 0 0 0 0 0 0 0 0 0 0 0 0 0 0 0 0 0 0 0 0 0 0 0 0 0 0 0 0 0 0 0 0 0 0 0 0 0 0 
0 0 0 0 0 0 0 0 0 0 0 0 0 0 0 0 0 0 0 0 0 0 0 0 0 0 0 0 0 0 0 0 0 0 0 0 0 0 0 0 0 0 0 0 0 0 0 0 0 0 0 0 0 0 0 0 0 0 0 0 0 0 0 0 0 0 0 0 0 0 0 0 0 0 0 0 0 0 0 0 0 0 0 0 0 0 0 0 0 0 0 0 0 0 0 0 0 0 0 0 0 0 0 0 0 0 0 0 0 0 0 0 0 0 0 0 0 0 0 0 0 0 0 0 0 0 0 0 
0 0 0 0 0 0 0 0 0 0 0 0 0 0 0 0 0 0 0 0 0 0 0 0 0 0 0 0 0 0 0 0 0 0 0 0 0 0 0 0 0 0 0 0 0 0 0 0 0 0 0 0 0 0 0 0 0 0 0 0 0 0 0 0 0 0 0 0 0 0 0 0 0 0 0 0 0 0 0 0 0 0 0 0 0 0 0 0 0 0 0 0 0 0 0 0 0 0 0 0 0 0 0 0 0 0 0 0 0 0 0 0 0 0 0 0 0 0 0 0 0 0 0 0 0 0 0 0 
0 0 0 0 0 0 0 0 0 0 0 0 0 0 0 0 0 0 0 0 0 0 0 0 0 0 0 0 0 0 0 0 0 0 0 0 0 0 0 0 0 0 0 0 0 0 0 0 0 0 0 0 0 0 0 0 0 0 0 0 0 0 0 0 0 0 0 0 0 0 0 0 0 0 0 0 0 0 0 0 0 0 0 0 0 0 0 0 0 0 0 0 0 0 0 0 0 0 0 0 0 0 0 0 0 0 0 0 0 0 0 0 0 0 0 0 0 0 0 0 0 0 0 0 0 0 0 0 
0 0 0 0 0 0 0 0 0 0 0 0 0 0 0 0 0 0 0 0 0 0 0 0 0 0 0 0 0 0 0 0 0 0 0 0 0 0 0 0 0 0 0 0 0 0 0 0 0 0 0 0 0 0 0 0 0 0 0 0 0 0 0 0 0 0 0 0 0 0 0 0 0 0 0 0 0 0 0 0 0 0 0 0 0 0 0 0 0 0 0 0 0 0 0 0 0 0 0 0 0 0 0 0 0 0 0 0 0 0 0 0 0 0 0 0 0 0 0 0 0 0 0 0 0 0 0 0 
0 0 0 0 0 0 0 0 0 0 0 0 0 0 0 0 0 0 0 0 0 0 0 0 0 0 0 0 0 0 0 0 0 0 0 0 0 0 0 0 0 0 0 0 0 0 0 0 0 0 0 0 0 0 0 0 0 0 0 0 0 0 0 0 0 0 0 0 0 0 0 0 0 0 0 0 0 0 0 0 0 0 0 0 0 0 0 0 0 0 0 0 0 0 0 0 0 0 0 0 0 0 0 0 0 0 0 0 0 0 0 0 0 0 0 0 0 0 0 0 0 0 0 0 0 0 0 0 
0 0 0 0 0 0 0 0 0 0 0 0 0 0 0 0 0 0 0 0 0 0 0 0 0 0 0 0 0 0 0 0 0 0 0 0 0 0 0 0 0 0 0 0 0 0 0 0 0 0 0 0 0 0 0 0 0 0 0 0 0 0 0 0 0 0 0 0 0 0 0 0 0 0 0 0 0 0 0 0 0 0 0 0 0 0 0 0 0 0 0 0 0 0 0 0 0 0 0 0 0 0 0 0 0 0 0 0 0 0 0 0 0 0 0 0 0 0 0 0 0 0 0 0 0 0 0 0 
0 0 0 0 0 0 0 0 0 0 0 0 0 0 0 0 0 0 0 0 0 0 0 0 0 0 0 0 0 0 0 0 0 0 0 0 0 0 0 0 0 0 0 0 0 0 0 0 0 0 0 0 0 0 0 0 0 0 0 0 0 0 0 0 0 0 0 0 0 0 0 0 0 0 0 0 0 0 0 0 0 0 0 0 0 0 0 0 0 0 0 0 0 0 0 0 0 0 0 0 0 0 0 0 0 0 0 0 0 0 0 0 0 0 0 0 0 0 0 0 0 0 0 0 0 0 0 0 
0 0 0 0 0 0 0 0 0 0 0 0 0 0 0 0 0 0 0 0 0 0 0 0 0 0 0 0 0 0 0 0 0 0 0 0 0 0 0 0 0 0 0 0 0 0 0 0 0 0 0 0 0 0 0 0 0 0 0 0 0 0 0 0 0 0 0 0 0 0 0 0 0 0 0 0 0 0 0 0 0 0 0 0 0 0 0 0 0 0 0 0 0 0 0 0 0 0 0 0 0 0 0 0 0 0 0 0 0 0 0 0 0 0 0 0 0 0 0 0 0 0 0 0 0 0 0 0 
0 0 0 0 0 0 0 0 0 0 0 0 0 0 0 0 0 0 0 0 0 0 0 0 0 0 0 0 0 0 0 0 0 0 0 0 0 0 0 0 0 0 0 0 0 0 0 0 0 0 0 0 0 0 0 0 0 0 0 0 0 0 0 0 0 0 0 0 0 0 0 0 0 0 0 0 0 0 0 0 0 0 0 0 0 0 0 0 0 0 0 0 0 0 0 0 0 0 0 0 0 0 0 0 0 0 0 0 0 0 0 0 0 0 0 0 0 0 0 0 0 0 0 0 0 0 0 0 
0 0 0 0 0 0 0 0 0 0 0 0 0 0 0 0 0 0 0 0 0 0 0 0 0 0 0 0 0 0 0 0 0 0 0 0 0 0 0 0 0 0 0 0 0 0 0 0 0 0 0 0 0 0 0 0 0 0 0 0 0 0 0 0 0 0 0 0 0 0 0 0 0 0 0 0 0 0 0 0 0 0 0 0 0 0 0 0 0 0 0 0 0 0 0 0 0 0 0 0 0 0 0 0 0 0 0 0 0 0 0 0 0 0 0 0 0 0 0 0 0 0 0 0 0 0 0 0 
0 0 0 0 0 0 0 0 0 0 0 0 0 0 0 0 0 0 0 0 0 0 0 0 0 0 0 0 0 0 0 0 0 0 0 0 0 0 0 0 0 0 0 0 0 0 0 0 0 0 0 0 0 0 0 0 0 0 0 0 0 0 0 0 0 0 0 0 0 0 0 0 0 0 0 0 0 0 0 0 0 0 0 0 0 0 0 0 0 0 0 0 0 0 0 0 0 0 0 0 0 0 0 0 0 0 0 0 0 0 0 0 0 0 0 0 0 0 0 0 0 0 0 0 0 0 0 0 
0 0 0 0 0 0 0 0 0 0 0 0 0 0 0 0 0 0 0 0 0 0 0 0 0 0 0 0 0 0 0 0 0 0 0 0 0 0 0 0 0 0 0 0 0 0 0 0 0 0 0 0 0 0 0 0 0 0 0 0 0 0 0 0 0 0 0 0 0 0 0 0 0 0 0 0 0 0 0 0 0 0 0 0 0 0 0 0 0 0 0 0 0 0 0 0 0 0 0 0 0 0 0 0 0 0 0 0 0 0 0 0 0 0 0 0 0 0 0 0 0 0 0 0 0 0 0 0 
0 0 0 0 0 0 0 0 0 0 0 0 0 0 0 0 0 0 0 0 0 0 0 0 0 0 0 0 0 0 0 0 0 0 0 0 0 0 0 0 0 0 0 0 0 0 0 0 0 0 0 0 0 0 0 0 0 0 0 0 0 0 0 0 0 0 0 0 0 0 0 0 0 0 0 0 0 0 0 0 0 0 0 0 0 0 0 0 0 0 0 0 0 0 0 0 0 0 0 0 0 0 0 0 0 0 0 0 0 0 0 0 0 0 0 0 0 0 0 0 0 0 0 0 0 0 0 0 
0 0 0 0 0 0 0 0 0 0 0 0 0 0 0 0 0 0 0 0 0 0 0 0 0 0 0 0 0 0 0 0 0 0 0 0 0 0 0 0 0 0 0 0 0 0 0 0 0 0 0 0 0 0 0 0 0 0 0 0 0 0 0 0 0 0 0 0 0 0 0 0 0 0 0 0 0 0 0 0 0 0 0 0 0 0 0 0 0 0 0 0 0 0 0 0 0 0 0 0 0 0 0 0 0 0 0 0 0 0 0 0 0 0 0 0 0 0 0 0 0 0 0 0 0 0 0 0 
0 0 0 0 0 0 0 0 0 0 0 0 0 0 0 0 0 0 0 0 0 0 0 0 0 0 0 0 0 0 0 0 0 0 0 0 0 0 0 0 0 0 0 0 0 0 0 0 0 0 0 0 0 0 0 0 0 0 0 0 0 0 0 0 0 0 0 0 0 0 0 0 0 0 0 0 0 0 0 0 0 0 0 0 0 0 0 0 0 0 0 0 0 0 0 0 0 0 0 0 0 0 0 0 0 0 0 0 0 0 0 0 0 0 0 0 0 0 0 0 0 0 0 0 0 0 0 0 
0 0 0 0 0 0 0 0 0 0 0 0 0 0 0 0 0 0 0 0 0 0 0 0 0 0 0 0 0 0 0 0 0 0 0 0 0 0 0 0 0 0 0 0 0 0 0 0 0 0 0 0 0 0 14 32 52 66 85 88 88 88 88 88 77 64 54 40 21 0 0 0 0 0 0 0 0 0 0 0 0 0 0 0 0 0 0 0 0 0 0 0 0 0 0 0 0 0 0 0 0 0 0 0 0 0 0 0 0 0 0 0 0 0 0 0 0 0 0 0 0 0 0 0 0 0 0 0 
0 0 0 0 0 0 0 0 0 0 0 0 0 0 0 0 0 0 0 0 0 0 0 0 0 0 0 0 0 0 0 0 0 0 0 0 0 0 0 0 0 0 0 0 0 0 0 0 0 0 0 14 40 72 88 88 88 88 88 88 88 88 88 88 88 88 88 88 88 88 70 48 16 0 0 0 0 0 0 0 0 0 0 0 0 0 0 0 0 0 0 0 0 0 0 0 0 0 0 0 0 0 0 0 0 0 0 0 0 0 0 0 0 0 0 0 0 0 0 0 0 0 0 0 0 0 0 0 
0 0 0 0 0 0 0 0 0 0 0 0 0 0 0 0 0 0 0 0 0 0 0 0 0 0 0 0 0 0 0 0 0 0 0 0 0 0 0 0 0 0 0 0 0 0 0 0 0 31 63 88 88 88 88 88 88 72 52 45 38 37 42 47 63 83 88 88 88 88 88 88 88 74 37 0 0 0 0 0 0 0 0 0 0 0 0 0 0 0 0 0 0 0 0 0 0 0 0 0 0 0 0 0 0 0 0 0 0 0 0 0 0 0 0 0 0 0 0 0 0 0 0 0 0 0 0 0 
0 0 0 0 0 0 0 0 0 0 0 0 0 0 0 0 0 0 0 0 0 0 0 0 0 0 0 0 0 0 0 0 0 0 0 0 0 0 0 0 0 0 0 0 0 0 13 40 86 88 88 88 88 88 66 33 19 21 20 25 29 28 24 26 21 25 23 31 49 72 88 88 88 88 88 88 39 0 0 0 0 0 0 0 0 0 0 0 0 0 0 0 0 0 0 0 0 0 0 0 0 0 0 0 0 0 0 0 0 0 0 0 0 0 0 0 0 0 0 0 0 0 0 0 0 0 0 0 
0 0 0 0 0 0 0 0 0 0 0 0 0 0 0 0 0 0 0 0 0 0 0 0 0 0 0 0 0 0 0 0 0 0 0 0 0 0 0 0 0 0 0 0 0 27 77 88 88 88 88 83 49 24 22 32 42 48 51 51 54 48 37 31 31 49 53 44 36 28 28 45 70 88 88 88 88 81 24 0 0 0 0 0 0 0 0 0 0 0 0 0 0 0 0 0 0 0 0 0 0 0 0 0 0 0 0 0 0 0 0 0 0 0 0 0 0 0 0 0 0 0 0 0 0 0 0 0 
0 0 0 0 0 0 0 0 0 0 0 0 0 0 0 0 0 0 0 0 0 0 0 0 0 0 0 0 0 0 0 0 0 0 0 0 0 0 0 0 0 0 0 0 50 88 88 73 88 78 36 25 34 48 58 54 46 38 31 23 16 13 21 30 23 15 49 57 67 57 55 45 31 38 68 88 88 88 88 45 0 0 0 0 0 0 0 0 0 0 0 0 0 0 0 0 0 0 0 0 0 0 0 0 0 0 0 0 0 0 0 0 0 0 0 0 0 0 0 0 0 0 0 0 0 0 0 0 
0 0 0 0 0 0 0 0 0 0 0 0 0 0 0 0 0 0 0 0 0 0 0 0 0 0 0 0 0 0 0 0 0 0 0 0 0 0 0 0 0 0 0 58 88 88 88 88 32 24 37 57 60 49 40 29 19 13 9 4 17 41 35 42 25 17 6 21 41 62 61 66 56 39 33 36 78 88 88 88 70 13 0 0 0 0 0 0 0 0 0 0 0 0 0 0 0 0 0 0 0 0 0 0 0 0 0 0 0 0 0 0 0 0 0 0 0 0 0 0 0 0 0 0 0 0 0 0 
0 0 0 0 0 0 0 0 0 0 0 0 0 0 0 0 0 0 0 0 0 0 0 0 0 0 0 0 0 0 0 0 0 0 0 0 0 0 0 0 0 0 65 88 88 88 59 23 34 59 67 52 28 22 13 13 11 13 23 38 45 49 25 71 9 45 13 3 9 16 26 40 53 49 60 44 26 46 88 88 88 87 19 0 0 0 0 0 0 0 0 0 0 0 0 0 0 0 0 0 0 0 0 0 0 0 0 0 0 0 0 0 0 0 0 0 0 0 0 0 0 0 0 0 0 0 0 0 
0 0 0 0 0 0 0 0 0 0 0 0 0 0 0 0 0 0 0 0 0 0 0 0 0 0 0 0 0 0 0 0 0 0 0 0 0 0 0 0 0 71 88 88 87 48 24 46 65 53 31 20 13 14 25 26 38 43 50 49 40 31 21 31 45 43 23 31 27 13 11 12 21 34 42 55 50 28 31 77 88 88 88 23 0 0 0 0 0 0 0 0 0 0 0 0 0 0 0 0 0 0 0 0 0 0 0 0 0 0 0 0 0 0 0 0 0 0 0 0 0 0 0 0 0 0 0 0 
0 0 0 0 0 0 0 0 0 0 0 0 0 0 0 0 0 0 0 0 0 0 0 0 0 0 0 0 0 0 0 0 0 0 0 0 0 0 0 0 70 88 88 88 31 26 53 65 39 24 9 24 29 31 33 46 50 50 53 55 55 51 28 36 54 50 47 22 22 36 30 24 19 14 18 26 46 50 41 27 60 88 88 88 28 0 0 0 0 0 0 0 0 0 0 0 0 0 0 0 0 0 0 0 0 0 0 0 0 0 0 0 0 0 0 0 0 0 0 0 0 0 0 0 0 0 0 0 
0 0 0 0 0 0 0 0 0 0 0 0 0 0 0 0 0 0 0 0 0 0 0 0 0 0 0 0 0 0 0 0 0 0 0 0 0 0 0 41 88 88 88 26 25 62 58 27 16 16 37 35 39 48 53 51 56 57 60 60 55 54 41 53 54 59 54 35 43 43 37 38 35 30 26 18 20 30 41 46 23 53 88 88 88 18 0 0 0 0 0 0 0 0 0 0 0 0 0 0 0 0 0 0 0 0 0 0 0 0 0 0 0 0 0 0 0 0 0 0 0 0 0 0 0 0 0 0 
0 0 0 0 0 0 0 0 0 0 0 0 0 0 0 0 0 0 0 0 0 0 0 0 0 0 0 0 0 0 0 0 0 0 0 0 0 0 27 88 88 88 39 26 55 47 31 11 17 21 38 50 46 53 52 53 58 60 64 56 55 48 33 57 58 61 58 51 55 40 39 43 38 46 46 33 23 14 33 49 44 26 47 88 88 88 18 0 0 0 0 0 0 0 0 0 0 0 0 0 0 0 0 0 0 0 0 0 0 0 0 0 0 0 0 0 0 0 0 0 0 0 0 0 0 0 0 0 
0 0 0 0 0 0 0 0 0 0 0 0 0 0 0 0 0 0 0 0 0 0 0 0 0 0 0 0 0 0 0 0 0 0 0 0 0 14 88 88 88 49 23 57 47 19 11 25 24 40 57 52 54 56 53 59 61 62 62 55 54 44 32 54 59 65 59 55 53 55 35 38 50 53 47 43 45 31 17 26 49 42 26 47 88 88 71 0 0 0 0 0 0 0 0 0 0 0 0 0 0 0 0 0 0 0 0 0 0 0 0 0 0 0 0 0 0 0 0 0 0 0 0 0 0 0 0 0 
0 0 0 0 0 0 0 0 0 0 0 0 0 0 0 0 0 0 0 0 0 0 0 0 0 0 0 0 0 0 0 0 0 0 0 0 0 63 88 88 37 21 50 44 19 24 33 24 25 53 58 59 57 58 56 58 59 62 57 57 54 54 47 54 59 63 63 59 62 57 57 46 58 60 54 53 55 50 25 13 30 55 42 20 57 88 88 52 0 0 0 0 0 0 0 0 0 0 0 0 0 0 0 0 0 0 0 0 0 0 0 0 0 0 0 0 0 0 0 0 0 0 0 0 0 0 0 0 
0 0 0 0 0 0 0 0 0 0 0 0 0 0 0 0 0 0 0 0 0 0 0 0 0 0 0 0 0 0 0 0 0 0 0 0 31 88 88 48 16 47 48 14 18 30 31 34 31 51 59 58 64 60 58 59 61 62 60 57 59 56 55 56 59 64 67 66 63 59 55 52 61 62 60 61 57 53 30 23 12 25 52 37 23 72 88 88 25 0 0 0 0 0 0 0 0 0 0 0 0 0 0 0 0 0 0 0 0 0 0 0 0 0 0 0 0 0 0 0 0 0 0 0 0 0 0 0 
0 0 0 0 0 0 0 0 0 0 0 0 0 0 0 0 0 0 0 0 0 0 0 0 0 0 0 0 0 0 0 0 0 0 0 0 80 88 72 16 44 58 22 13 21 33 36 50 53 44 40 53 58 65 65 61 63 64 59 60 57 57 59 54 57 60 67 68 65 60 53 57 61 66 62 61 56 53 38 42 30 11 19 43 29 26 84 88 88 0 0 0 0 0 0 0 0 0 0 0 0 0 0 0 0 0 0 0 0 0 0 0 0 0 0 0 0 0 0 0 0 0 0 0 0 0 0 0 
0 0 0 0 0 0 0 0 0 0 0 0 0 0 0 0 0 0 0 0 0 0 0 0 0 0 0 0 0 0 0 0 0 0 0 47 88 88 23 31 62 29 13 31 49 50 37 51 58 56 54 53 53 61 65 66 63 64 63 62 60 58 59 16 59 60 61 69 64 58 57 59 64 66 63 59 57 46 52 60 39 19 11 24 53 22 36 88 88 40 0 0 0 0 0 0 0 0 0 0 0 0 0 0 0 0 0 0 0 0 0 0 0 0 0 0 0 0 0 0 0 0 0 0 0 0 0 0 
0 0 0 0 0 0 0 0 0 0 0 0 0 0 0 0 0 0 0 0 0 0 0 0 0 0 0 0 0 0 0 0 0 0 17 88 88 44 17 63 47 15 25 48 55 54 55 45 59 61 59 55 49 57 66 64 68 67 64 65 62 57 59 55 59 58 59 69 66 59 60 65 64 62 62 58 57 51 61 55 53 48 24 8 37 46 20 52 88 88 13 0 0 0 0 0 0 0 0 0 0 0 0 0 0 0 0 0 0 0 0 0 0 0 0 0 0 0 0 0 0 0 0 0 0 0 0 0 
0 0 0 0 0 0 0 0 0 0 0 0 0 0 0 0 0 0 0 0 0 0 0 0 0 0 0 0 0 0 0 0 0 0 64 88 68 12 53 60 24 13 35 51 57 59 56 50 57 55 59 58 53 60 66 67 66 67 66 62 60 57 64 58 62 60 60 67 68 62 59 65 63 62 62 54 56 53 56 58 59 54 41 15 21 51 34 19 67 88 52 0 0 0 0 0 0 0 0 0 0 0 0 0 0 0 0 0 0 0 0 0 0 0 0 0 0 0 0 0 0 0 0 0 0 0 0 0 
0 0 0 0 0 0 0 0 0 0 0 0 0 0 0 0 0 0 0 0 0 0 0 0 0 0 0 0 0 0 0 0 0 20 88 88 27 26 67 35 13 23 43 49 57 63 58 57 49 58 55 53 50 62 67 67 66 67 60 59 56 56 50 61 61 66 68 71 68 67 61 61 63 63 60 58 58 58 52 58 60 68 51 27 13 36 63 23 33 88 88 11 0 0 0 0 0 0 0 0 0 0 0 0 0 0 0 0 0 0 0 0 0 0 0 0 0 0 0 0 0 0 0 0 0 0 0 0 
0 0 0 0 0 0 0 0 0 0 0 0 0 0 0 0 0 0 0 0 0 0 0 0 0 0 0 0 0 0 0 0 0 78 88 41 12 57 46 13 9 39 54 54 54 62 57 55 52 58 53 51 51 64 68 67 67 59 60 49 54 52 42 62 60 64 70 68 68 68 64 62 63 65 65 60 61 55 58 62 60 58 67 57 25 17 43 58 17 65 88 59 0 0 0 0 0 0 0 0 0 0 0 0 0 0 0 0 0 0 0 0 0 0 0 0 0 0 0 0 0 0 0 0 0 0 0 0 
0 0 0 0 0 0 0 0 0 0 0 0 0 0 0 0 0 0 0 0 0 0 0 0 0 0 0 0 0 0 0 0 34 88 88 14 30 54 17 13 36 57 54 58 60 64 59 52 54 48 51 56 54 64 70 68 63 52 32 59 57 57 56 60 60 64 63 68 69 68 66 62 69 69 65 63 61 58 57 58 56 52 51 53 34 11 33 62 29 26 88 88 14 0 0 0 0 0 0 0 0 0 0 0 0 0 0 0 0 0 0 0 0 0 0 0 0 0 0 0 0 0 0 0 0 0 0 0 
0 0 0 0 0 0 0 0 0 0 0 0 0 0 0 0 0 0 0 0 0 0 0 0 0 0 0 0 0 0 0 0 88 88 35 8 65 45 5 31 49 58 58 61 59 64 61 55 49 51 55 61 58 64 69 66 65 57 61 59 62 57 62 59 58 61 62 64 68 68 70 70 69 68 67 61 58 54 58 57 54 58 60 58 52 26 14 55 69 16 57 88 60 0 0 0 0 0 0 0 0 0 0 0 0 0 0 0 0 0 0 0 0 0 0 0 0 0 0 0 0 0 0 0 0 0 0 0 
0 0 0 0 0 0 0 0 0 0 0 0 0 0 0 0 0 0 0 0 0 0 0 0 0 0 0 0 0 0 0 38 88 65 7 41 50 6 26 47 48 53 57 52 54 58 65 57 55 52 60 61 63 68 66 68 68 65 65 68 62 59 61 55 60 61 61 62 65 68 69 70 70 70 64 63 58 63 53 56 61 62 65 63 54 36 12 18 59 40 22 88 88 13 0 0 0 0 0 0 0 0 0 0 0 0 0 0 0 0 0 0 0 0 0 0 0 0 0 0 0 0 0 0 0 0 0 0 
0 0 0 0 0 0 0 0 0 0 0 0 0 0 0 0 0 0 0 0 0 0 0 0 0 0 0 0 0 0 0 88 88 21 18 56 19 15 48 52 61 56 52 52 49 59 63 61 59 52 58 60 66 69 68 69 68 67 64 61 60 55 67 40 61 59 57 59 65 69 73 70 70 70 65 62 58 51 56 61 64 67 62 56 51 34 29 13 31 53 24 51 88 45 0 0 0 0 0 0 0 0 0 0 0 0 0 0 0 0 0 0 0 0 0 0 0 0 0 0 0 0 0 0 0 0 0 0 
0 0 0 0 0 0 0 0 0 0 0 0 0 0 0 0 0 0 0 0 0 0 0 0 0 0 0 0 0 0 31 88 48 11 46 38 5 40 50 53 49 51 59 57 58 58 62 63 59 55 53 61 68 68 67 68 66 63 62 63 62 50 83 43 62 66 51 59 65 67 69 68 70 69 67 60 58 61 63 66 70 62 58 58 57 58 52 25 9 41 27 28 88 88 0 0 0 0 0 0 0 0 0 0 0 0 0 0 0 0 0 0 0 0 0 0 0 0 0 0 0 0 0 0 0 0 0 0 
0 0 0 0 0 0 0 0 0 0 0 0 0 0 0 0 0 0 0 0 0 0 0 0 0 0 0 0 0 0 79 88 18 25 50 8 21 52 54 53 55 53 57 62 62 59 61 60 63 60 57 62 68 68 68 70 63 59 58 60 60 47 78 50 61 62 60 60 62 70 68 71 70 69 66 61 60 63 67 71 64 58 52 59 62 62 56 45 8 20 15 13 71 88 30 0 0 0 0 0 0 0 0 0 0 0 0 0 0 0 0 0 0 0 0 0 0 0 0 0 0 0 0 0 0 0 0 0 
0 0 0 0 0 0 0 0 0 0 0 0 0 0 0 0 0 0 0 0 0 0 0 0 0 0 0 0 0 13 88 52 19 24 24 9 48 58 59 55 54 52 58 60 63 66 64 66 63 67 65 69 67 70 71 67 62 59 57 60 59 44 61 57 64 62 60 59 61 68 69 70 70 69 70 67 69 72 68 61 58 53 62 63 64 63 59 50 27 6 7 21 39 88 78 0 0 0 0 0 0 0 0 0 0 0 0 0 0 0 0 0 0 0 0 0 0 0 0 0 0 0 0 0 0 0 0 0 
0 0 0 0 0 0 0 0 0 0 0 0 0 0 0 0 0 0 0 0 0 0 0 0 0 0 0 0 0 58 88 28 12 11 3 41 58 61 61 62 56 55 50 54 61 63 66 66 67 67 69 67 68 69 68 68 61 55 56 58 58 44 44 59 63 67 62 62 61 70 71 70 70 70 67 72 71 64 61 54 58 63 61 65 66 63 59 50 35 18 3 12 29 78 88 19 0 0 0 0 0 0 0 0 0 0 0 0 0 0 0 0 0 0 0 0 0 0 0 0 0 0 0 0 0 0 0 0 
0 0 0 0 0 0 0 0 0 0 0 0 0 0 0 0 0 0 0 0 0 0 0 0 0 0 0 0 0 88 78 17 20 7 16 58 59 60 61 60 59 58 55 58 62 65 68 67 67 69 69 71 67 69 71 66 58 54 58 57 56 47 35 54 59 63 70 68 68 70 72 70 70 69 72 71 68 60 57 63 59 61 60 64 64 63 55 46 56 46 12 9 20 51 88 52 0 0 0 0 0 0 0 0 0 0 0 0 0 0 0 0 0 0 0 0 0 0 0 0 0 0 0 0 0 0 0 0 
0 0 0 0 0 0 0 0 0 0 0 0 0 0 0 0 0 0 0 0 0 0 0 0 0 0 0 0 33 88 31 13 17 3 37 61 58 60 60 61 60 58 61 63 64 68 69 66 67 68 69 66 70 70 70 68 64 56 61 61 61 59 40 46 60 61 67 72 72 72 69 71 70 70 71 70 68 62 63 64 63 59 62 66 63 60 49 53 44 45 34 6 19 24 88 88 0 0 0 0 0 0 0 0 0 0 0 0 0 0 0 0 0 0 0 0 0 0 0 0 0 0 0 0 0 0 0 0 
0 0 0 0 0 0 0 0 0 0 0 0 0 0 0 0 0 0 0 0 0 0 0 0 0 0 0 0 83 88 7 26 7 17 33 53 58 61 64 64 63 65 62 62 65 66 67 66 69 70 69 70 70 70 70 70 64 63 64 63 63 57 51 56 63 64 64 71 70 72 72 72 73 72 72 70 72 73 69 63 62 62 63 64 63 60 56 49 50 50 45 17 25 13 71 88 31 0 0 0 0 0 0 0 0 0 0 0 0 0 0 0 0 0 0 0 0 0 0 0 0 0 0 0 0 0 0 0 
0 0 0 0 0 0 0 0 0 0 0 0 0 0 0 0 0 0 0 0 0 0 0 0 0 0 0 15 88 63 7 60 8 29 39 61 61 62 62 64 63 64 64 66 63 67 68 69 69 69 68 70 71 70 71 67 69 63 68 63 63 59 52 59 62 63 65 69 71 70 72 72 70 74 71 73 68 68 70 67 63 67 67 66 64 63 60 57 56 55 50 43 9 19 49 88 68 0 0 0 0 0 0 0 0 0 0 0 0 0 0 0 0 0 0 0 0 0 0 0 0 0 0 0 0 0 0 0 
0 0 0 0 0 0 0 0 0 0 0 0 0 0 0 0 0 0 0 0 0 0 0 0 0 0 0 49 88 33 18 42 16 30 48 56 59 58 60 60 61 62 63 63 64 65 68 68 67 70 70 70 72 70 71 71 70 69 70 62 62 52 50 61 66 64 66 70 71 73 72 73 75 74 74 72 71 72 69 69 68 68 66 68 68 68 64 62 58 58 59 57 12 13 33 88 88 14 0 0 0 0 0 0 0 0 0 0 0 0 0 0 0 0 0 0 0 0 0 0 0 0 0 0 0 0 0 0 
0 0 0 0 0 0 0 0 0 0 0 0 0 0 0 0 0 0 0 0 0 0 0 0 0 0 0 88 88 15 34 15 31 35 52 43 52 61 62 58 56 62 61 63 62 63 67 68 70 68 67 70 71 72 71 71 70 70 68 63 59 47 51 64 64 66 70 69 74 71 71 74 73 72 72 71 69 67 70 68 65 63 64 65 65 66 69 65 63 62 62 56 31 4 24 83 88 35 0 0 0 0 0 0 0 0 0 0 0 0 0 0 0 0 0 0 0 0 0 0 0 0 0 0 0 0 0 0 
0 0 0 0 0 0 0 0 0 0 0 0 0 0 0 0 0 0 0 0 0 0 0 0 0 0 26 88 73 7 41 13 28 36 52 57 64 59 56 53 53 57 60 61 59 64 61 67 68 70 67 72 74 72 70 70 72 66 70 63 60 49 49 64 64 69 67 70 71 70 73 72 74 71 73 72 73 72 73 67 64 66 66 68 69 63 66 65 62 63 63 58 46 13 14 62 88 70 0 0 0 0 0 0 0 0 0 0 0 0 0 0 0 0 0 0 0 0 0 0 0 0 0 0 0 0 0 0 
0 0 0 0 0 0 0 0 0 0 0 0 0 0 0 0 0 0 0 0 0 0 0 0 0 0 61 88 40 3 30 19 34 15 45 45 52 57 65 59 60 51 52 41 56 57 60 63 69 67 68 71 70 69 71 70 66 69 68 64 61 55 53 62 65 66 69 71 70 72 72 73 72 72 73 70 71 69 70 69 66 64 67 65 63 60 58 60 58 62 57 56 46 14 6 52 88 88 18 0 0 0 0 0 0 0 0 0 0 0 0 0 0 0 0 0 0 0 0 0 0 0 0 0 0 0 0 0 
0 0 0 0 0 0 0 0 0 0 0 0 0 0 0 0 0 0 0 0 0 0 0 0 0 0 88 88 36 9 20 32 48 54 57 58 56 58 56 53 56 42 47 53 57 58 60 63 67 67 69 71 71 70 70 69 61 65 67 65 63 59 57 64 65 65 70 66 67 71 74 74 77 72 73 69 69 70 69 68 70 69 61 63 55 54 54 48 19 50 55 52 53 17 2 39 85 88 46 0 0 0 0 0 0 0 0 0 0 0 0 0 0 0 0 0 0 0 0 0 0 0 0 0 0 0 0 0 
0 0 0 0 0 0 0 0 0 0 0 0 0 0 0 0 0 0 0 0 0 0 0 0 0 31 88 88 21 22 13 46 58 58 59 61 58 59 60 60 58 57 59 60 62 62 63 70 68 69 69 72 71 68 67 62 54 55 59 64 65 66 60 68 67 67 65 61 60 65 66 76 76 73 69 69 72 70 68 68 69 66 61 61 61 60 57 59 43 49 62 57 55 39 7 29 32 88 88 0 0 0 0 0 0 0 0 0 0 0 0 0 0 0 0 0 0 0 0 0 0 0 0 0 0 0 0 0 
0 0 0 0 0 0 0 0 0 0 0 0 0 0 0 0 0 0 0 0 0 0 0 0 0 45 88 88 7 29 2 54 58 59 61 60 60 62 59 63 63 63 60 63 62 63 64 67 68 65 67 72 72 67 69 52 48 50 54 58 62 65 66 66 64 60 55 52 51 57 67 74 78 72 71 70 68 71 67 69 70 69 68 64 64 67 61 61 58 59 61 61 57 47 8 16 68 88 85 21 0 0 0 0 0 0 0 0 0 0 0 0 0 0 0 0 0 0 0 0 0 0 0 0 0 0 0 0 
0 0 0 0 0 0 0 0 0 0 0 0 0 0 0 0 0 0 0 0 0 0 0 0 0 64 88 56 5 35 4 56 61 64 62 60 60 62 62 62 63 63 60 63 64 65 65 68 68 68 68 70 73 69 71 44 41 45 50 54 60 63 63 65 62 55 50 49 43 51 68 75 74 71 72 69 73 71 71 69 68 68 69 69 66 61 61 60 58 62 65 64 59 55 14 7 53 88 88 39 0 0 0 0 0 0 0 0 0 0 0 0 0 0 0 0 0 0 0 0 0 0 0 0 0 0 0 0 
0 0 0 0 0 0 0 0 0 0 0 0 0 0 0 0 0 0 0 0 0 0 0 0 16 88 88 38 7 33 11 53 58 61 63 63 62 65 64 64 63 63 64 64 63 63 65 69 67 68 67 71 73 70 68 36 36 42 45 48 55 62 62 64 56 53 47 43 42 41 60 72 75 72 71 71 74 72 68 68 67 65 63 63 62 62 59 59 64 67 66 62 60 51 8 5 50 82 88 48 0 0 0 0 0 0 0 0 0 0 0 0 0 0 0 0 0 0 0 0 0 0 0 0 0 0 0 0 
0 0 0 0 0 0 0 0 0 0 0 0 0 0 0 0 0 0 0 0 0 0 0 0 32 88 88 31 13 28 14 43 57 61 62 63 64 66 64 68 65 65 68 67 66 65 67 69 69 71 70 72 76 72 63 28 34 36 41 50 54 62 60 62 54 47 41 39 34 38 54 72 73 73 69 71 71 71 67 69 66 63 60 61 59 62 61 65 68 66 58 54 46 41 15 8 42 55 88 74 0 0 0 0 0 0 0 0 0 0 0 0 0 0 0 0 0 0 0 0 0 0 0 0 0 0 0 0 
0 0 0 0 0 0 0 0 0 0 0 0 0 0 0 0 0 0 0 0 0 0 0 0 46 88 87 16 33 13 30 49 50 57 57 63 63 63 63 64 66 66 70 68 67 65 67 68 68 67 68 72 72 71 55 27 31 31 37 45 51 60 56 60 49 42 39 34 31 35 50 79 71 71 71 69 69 70 70 68 66 67 66 65 66 67 66 65 69 62 51 45 66 61 13 13 31 60 88 79 14 0 0 0 0 0 0 0 0 0 0 0 0 0 0 0 0 0 0 0 0 0 0 0 0 0 0 0 
0 0 0 0 0 0 0 0 0 0 0 0 0 0 0 0 0 0 0 0 0 0 0 0 56 88 52 13 43 4 33 56 57 54 59 55 63 57 66 65 65 65 68 67 66 67 67 66 69 68 69 70 73 71 49 29 28 32 35 39 48 56 57 58 46 41 37 32 30 34 48 71 71 72 72 71 69 68 71 67 69 71 69 69 69 64 67 66 63 60 55 66 64 60 31 12 18 56 88 88 23 0 0 0 0 0 0 0 0 0 0 0 0 0 0 0 0 0 0 0 0 0 0 0 0 0 0 0 
0 0 0 0 0 0 0 0 0 0 0 0 0 0 0 0 0 0 0 0 0 0 0 0 79 88 42 11 36 5 51 61 59 53 49 48 50 48 62 66 63 66 66 65 70 67 67 69 69 71 71 71 72 69 43 28 29 30 31 37 42 51 59 60 46 43 36 30 29 32 34 73 70 73 71 70 70 69 69 69 68 70 71 70 67 67 64 63 61 55 64 66 65 59 35 7 6 58 88 88 39 0 0 0 0 0 0 0 0 0 0 0 0 0 0 0 0 0 0 0 0 0 0 0 0 0 0 0 
0 0 0 0 0 0 0 0 0 0 0 0 0 0 0 0 0 0 0 0 0 0 0 17 88 88 34 7 16 21 58 60 61 56 52 54 46 56 63 64 67 67 66 69 67 68 66 67 72 73 71 72 72 77 35 25 31 29 32 36 44 50 59 61 44 38 34 30 30 33 28 68 70 72 70 73 69 69 67 69 67 68 69 68 66 64 63 60 59 64 66 65 61 55 33 6 8 54 79 88 53 0 0 0 0 0 0 0 0 0 0 0 0 0 0 0 0 0 0 0 0 0 0 0 0 0 0 0 
0 0 0 0 0 0 0 0 0 0 0 0 0 0 0 0 0 0 0 0 0 0 0 24 88 85 27 16 5 41 60 61 63 63 63 64 63 63 63 64 65 65 68 66 69 70 67 68 67 68 70 75 73 59 39 27 29 27 31 33 41 48 58 55 43 40 34 31 29 31 27 64 72 71 70 69 69 69 69 70 69 67 69 69 67 63 61 62 66 65 65 63 58 56 32 5 16 42 48 88 64 0 0 0 0 0 0 0 0 0 0 0 0 0 0 0 0 0 0 0 0 0 0 0 0 0 0 0 
0 0 0 0 0 0 0 0 0 0 0 0 0 0 0 0 0 0 0 0 0 0 0 32 88 80 15 19 3 50 60 63 63 65 62 65 67 64 68 64 64 66 67 66 66 68 68 66 67 70 70 70 71 67 37 27 32 31 31 33 40 47 58 55 43 38 33 30 30 32 29 59 69 70 70 68 68 68 66 70 70 69 68 68 66 67 65 66 65 67 65 60 56 54 39 5 16 25 55 88 87 11 0 0 0 0 0 0 0 0 0 0 0 0 0 0 0 0 0 0 0 0 0 0 0 0 0 0 
0 0 0 0 0 0 0 0 0 0 0 0 0 0 0 0 0 0 0 0 0 0 0 41 88 49 13 24 13 51 56 57 61 60 64 65 65 64 66 65 65 64 64 65 66 66 67 69 67 67 69 72 72 67 34 27 30 30 29 31 38 45 56 57 39 39 32 29 30 32 28 57 71 71 69 67 68 69 69 69 68 69 67 66 67 66 68 67 68 66 63 59 61 58 41 12 11 18 47 88 88 27 0 0 0 0 0 0 0 0 0 0 0 0 0 0 0 0 0 0 0 0 0 0 0 0 0 0 
0 0 0 0 0 0 0 0 0 0 0 0 0 0 0 0 0 0 0 0 0 0 0 61 88 38 9 25 23 53 51 51 56 59 63 69 64 65 65 65 65 65 67 67 66 70 67 68 64 64 67 70 68 61 31 28 29 29 29 31 37 45 58 55 42 35 33 29 29 31 28 54 71 70 70 68 65 67 67 70 70 68 70 69 67 68 66 69 69 65 63 61 62 57 50 14 12 9 54 88 88 33 0 0 0 0 0 0 0 0 0 0 0 0 0 0 0 0 0 0 0 0 0 0 0 0 0 0 
0 0 0 0 0 0 0 0 0 0 0 0 0 0 0 0 0 0 0 0 0 0 0 88 88 28 14 15 28 36 40 57 60 63 65 68 68 66 67 65 65 67 65 67 64 65 71 68 67 65 66 68 68 65 29 29 31 29 30 31 35 44 55 55 41 35 32 31 28 30 30 46 73 68 67 66 64 67 68 68 69 67 71 69 68 69 66 65 68 63 62 61 59 58 47 39 9 1 53 88 88 52 0 0 0 0 0 0 0 0 0 0 0 0 0 0 0 0 0 0 0 0 0 0 0 0 0 0 
0 0 0 0 0 0 0 0 0 0 0 0 0 0 0 0 0 0 0 0 0 0 14 88 88 16 30 13 29 38 50 61 63 66 65 68 67 70 67 70 68 69 66 64 65 66 70 68 69 65 68 67 70 57 25 30 32 28 29 32 38 47 58 60 42 37 32 30 30 30 31 33 73 67 66 67 65 66 69 69 68 67 68 66 66 66 65 68 66 64 63 59 55 47 57 39 6 1 50 79 88 61 0 0 0 0 0 0 0 0 0 0 0 0 0 0 0 0 0 0 0 0 0 0 0 0 0 0 
0 0 0 0 0 0 0 0 0 0 0 0 0 0 0 0 0 0 0 0 0 0 21 88 85 13 40 5 33 33 59 59 64 66 66 66 69 68 68 69 68 69 68 67 66 68 67 69 70 69 72 71 71 52 24 32 31 29 30 36 39 51 60 61 50 41 33 30 29 29 32 27 67 70 67 67 66 67 70 70 67 66 67 67 67 70 69 68 67 66 63 63 53 57 57 50 4 5 38 77 88 68 0 0 0 0 0 0 0 0 0 0 0 0 0 0 0 0 0 0 0 0 0 0 0 0 0 0 
0 0 0 0 0 0 0 0 0 0 0 0 0 0 0 0 0 0 0 0 0 0 39 88 54 7 49 6 71 31 44 61 60 61 63 64 64 62 65 67 68 72 70 68 66 69 68 70 70 72 74 76 73 49 27 31 28 28 31 37 46 60 62 63 56 44 38 33 29 29 32 27 66 71 70 65 68 69 68 68 65 68 69 69 67 66 68 69 65 64 62 56 42 52 53 52 13 6 31 34 88 88 11 0 0 0 0 0 0 0 0 0 0 0 0 0 0 0 0 0 0 0 0 0 0 0 0 0 
0 0 0 0 0 0 0 0 0 0 0 0 0 0 0 0 0 0 0 0 0 0 58 88 42 3 52 0 38 58 58 52 55 61 62 63 63 62 63 66 64 66 66 68 72 71 71 73 74 78 76 82 76 43 31 28 30 30 37 41 51 64 60 63 62 50 45 39 33 30 31 29 57 68 72 69 65 67 70 66 67 68 69 69 69 66 64 63 63 61 61 49 34 61 61 58 18 11 27 44 88 88 19 0 0 0 0 0 0 0 0 0 0 0 0 0 0 0 0 0 0 0 0 0 0 0 0 0 
0 0 0 0 0 0 0 0 0 0 0 0 0 0 0 0 0 0 0 0 0 0 81 88 37 3 45 3 54 55 62 60 60 55 51 48 52 50 54 63 62 65 64 67 66 68 69 71 73 79 74 81 71 34 30 28 31 31 42 49 56 66 68 67 67 58 54 43 37 31 30 31 46 76 75 69 70 69 68 69 69 70 70 71 68 63 61 56 52 54 58 46 58 60 64 58 25 13 24 64 88 88 21 0 0 0 0 0 0 0 0 0 0 0 0 0 0 0 0 0 0 0 0 0 0 0 0 0 
0 0 0 0 0 0 0 0 0 0 0 0 0 0 0 0 0 0 0 0 0 15 88 88 47 7 33 14 59 47 59 65 63 61 61 54 50 56 47 45 66 62 64 64 67 64 66 68 72 77 81 76 66 26 31 30 29 37 48 58 67 69 69 69 68 67 58 51 43 36 33 35 38 71 69 70 68 67 71 69 71 70 69 68 66 69 64 63 64 63 62 61 61 68 63 58 20 9 13 56 88 88 24 0 0 0 0 0 0 0 0 0 0 0 0 0 0 0 0 0 0 0 0 0 0 0 0 0 
0 0 0 0 0 0 0 0 0 0 0 0 0 0 0 0 0 0 0 0 0 24 88 88 30 13 25 22 58 46 59 61 66 67 63 63 63 61 66 27 45 74 66 63 64 64 66 67 70 72 72 76 51 28 31 29 38 46 59 65 69 69 71 69 67 67 66 59 53 41 34 34 40 61 76 71 70 70 70 70 68 68 70 69 69 68 68 68 69 70 68 69 67 65 60 54 20 13 13 56 88 88 21 0 0 0 0 0 0 0 0 0 0 0 0 0 0 0 0 0 0 0 0 0 0 0 0 0 
0 0 0 0 0 0 0 0 0 0 0 0 0 0 0 0 0 0 0 0 0 37 88 88 26 18 30 24 58 58 53 61 65 64 68 68 64 66 61 66 46 43 63 66 63 63 63 69 72 75 74 69 36 30 31 44 48 56 66 68 69 69 68 70 67 68 67 64 59 51 40 36 41 55 74 74 73 71 70 68 67 68 70 70 71 71 71 69 68 64 64 63 63 61 62 50 25 13 13 55 88 83 16 0 0 0 0 0 0 0 0 0 0 0 0 0 0 0 0 0 0 0 0 0 0 0 0 0 
0 0 0 0 0 0 0 0 0 0 0 0 0 0 0 0 0 0 0 0 0 44 88 88 28 19 26 18 60 57 51 62 60 62 64 68 69 68 66 63 62 62 52 46 66 63 67 70 72 72 73 57 33 31 36 45 60 72 67 68 68 69 68 71 68 67 68 68 61 53 48 40 43 55 68 72 72 71 70 68 69 70 72 71 69 71 70 69 62 61 57 55 62 60 42 6 19 14 11 52 88 72 11 0 0 0 0 0 0 0 0 0 0 0 0 0 0 0 0 0 0 0 0 0 0 0 0 0 
0 0 0 0 0 0 0 0 0 0 0 0 0 0 0 0 0 0 0 0 0 53 88 88 38 19 32 19 57 60 50 59 61 57 62 63 68 68 70 65 65 65 61 66 68 68 71 71 71 81 64 48 36 34 38 52 57 67 66 70 68 68 69 69 68 68 69 68 61 58 48 43 45 55 69 72 74 72 69 69 73 69 66 69 68 64 70 66 58 50 34 53 51 58 18 56 4 17 13 57 88 61 0 0 0 0 0 0 0 0 0 0 0 0 0 0 0 0 0 0 0 0 0 0 0 0 0 0 
0 0 0 0 0 0 0 0 0 0 0 0 0 0 0 0 0 0 0 0 0 58 88 88 38 9 43 8 60 54 52 61 60 63 65 63 68 66 69 68 72 71 68 69 67 70 74 74 74 74 61 45 35 37 43 57 64 66 72 68 67 66 66 72 68 71 66 69 65 75 58 50 45 53 67 75 68 76 72 71 74 70 71 68 69 64 68 65 63 56 60 63 56 60 52 63 11 21 13 59 88 45 0 0 0 0 0 0 0 0 0 0 0 0 0 0 0 0 0 0 0 0 0 0 0 0 0 0 
0 0 0 0 0 0 0 0 0 0 0 0 0 0 0 0 0 0 0 0 0 58 88 88 43 8 52 7 53 56 52 61 61 62 61 64 63 68 68 69 70 71 70 73 73 73 72 74 75 71 55 42 35 38 50 63 70 72 71 67 65 67 64 64 68 68 64 68 68 71 64 54 50 54 66 69 72 72 73 72 72 72 69 69 69 67 68 66 66 64 63 65 63 63 61 60 24 11 9 66 88 38 0 0 0 0 0 0 0 0 0 0 0 0 0 0 0 0 0 0 0 0 0 0 0 0 0 0 
0 0 0 0 0 0 0 0 0 0 0 0 0 0 0 0 0 0 0 0 0 45 88 88 50 5 61 5 51 55 50 61 58 59 60 62 61 59 63 70 72 72 70 75 71 74 72 74 74 69 51 43 37 45 59 69 71 69 69 68 67 63 66 68 67 67 69 67 70 70 67 60 57 59 67 74 72 71 72 71 72 71 72 70 69 68 69 68 66 65 68 63 63 63 63 59 25 9 7 81 88 33 0 0 0 0 0 0 0 0 0 0 0 0 0 0 0 0 0 0 0 0 0 0 0 0 0 0 
0 0 0 0 0 0 0 0 0 0 0 0 0 0 0 0 0 0 0 0 0 36 88 88 70 0 62 0 50 56 46 56 59 59 59 58 60 55 60 70 70 70 71 72 74 74 75 72 74 64 52 44 45 50 63 70 69 71 68 67 70 61 54 64 65 70 69 68 71 69 70 65 63 65 71 73 71 73 73 71 72 70 69 70 72 68 67 67 61 61 61 61 60 61 63 61 19 13 5 88 88 40 0 0 0 0 0 0 0 0 0 0 0 0 0 0 0 0 0 0 0 0 0 0 0 0 0 0 
0 0 0 0 0 0 0 0 0 0 0 0 0 0 0 0 0 0 0 0 0 22 88 88 82 0 64 6 40 59 53 55 63 63 63 65 63 65 66 68 73 72 72 71 74 75 75 74 72 63 51 43 46 55 69 70 70 70 68 69 63 63 34 63 63 67 68 69 71 71 70 70 69 71 73 73 71 72 71 70 66 72 69 71 68 70 66 66 65 60 65 58 55 64 62 62 12 15 7 88 88 51 0 0 0 0 0 0 0 0 0 0 0 0 0 0 0 0 0 0 0 0 0 0 0 0 0 0 
0 0 0 0 0 0 0 0 0 0 0 0 0 0 0 0 0 0 0 0 0 12 80 88 88 3 50 22 31 61 61 59 63 67 67 69 67 68 72 72 72 71 73 73 71 71 73 73 70 60 53 50 53 65 72 71 69 72 66 64 56 58 30 65 63 68 67 69 72 69 74 72 71 73 74 71 72 72 72 71 68 70 68 66 70 64 64 65 66 67 64 56 61 63 59 61 5 16 12 88 88 54 0 0 0 0 0 0 0 0 0 0 0 0 0 0 0 0 0 0 0 0 0 0 0 0 0 0 
0 0 0 0 0 0 0 0 0 0 0 0 0 0 0 0 0 0 0 0 0 0 71 88 88 9 36 41 14 64 62 65 68 65 65 65 67 71 72 74 72 72 74 73 73 73 74 76 69 62 55 62 61 73 70 72 70 70 67 64 63 63 56 60 64 70 69 67 71 73 69 74 73 73 73 71 73 72 73 70 73 68 71 69 66 64 62 63 64 65 65 63 63 62 59 38 4 19 21 88 88 59 0 0 0 0 0 0 0 0 0 0 0 0 0 0 0 0 0 0 0 0 0 0 0 0 0 0 
0 0 0 0 0 0 0 0 0 0 0 0 0 0 0 0 0 0 0 0 0 0 60 88 88 29 18 55 5 57 60 62 60 61 63 63 63 68 70 69 71 74 71 73 71 72 75 73 69 64 58 56 67 71 71 73 68 71 68 67 65 60 66 50 63 67 71 70 70 72 72 71 72 73 71 72 72 73 75 72 71 71 69 71 62 62 61 63 62 62 64 62 64 61 59 38 5 18 29 88 88 56 0 0 0 0 0 0 0 0 0 0 0 0 0 0 0 0 0 0 0 0 0 0 0 0 0 0 
0 0 0 0 0 0 0 0 0 0 0 0 0 0 0 0 0 0 0 0 0 0 38 88 88 63 7 60 0 43 58 59 56 57 61 62 63 69 72 70 73 71 72 72 73 71 73 74 70 63 63 68 63 71 72 72 72 72 71 70 67 64 60 57 62 67 69 71 71 72 71 74 75 74 73 73 73 76 81 70 72 70 69 68 63 57 60 60 61 62 60 63 64 59 59 29 14 8 84 88 88 49 0 0 0 0 0 0 0 0 0 0 0 0 0 0 0 0 0 0 0 0 0 0 0 0 0 0 
0 0 0 0 0 0 0 0 0 0 0 0 0 0 0 0 0 0 0 0 0 0 20 88 88 88 0 58 13 39 59 59 60 61 63 68 69 68 68 70 65 63 61 68 72 72 73 74 78 70 62 60 64 74 73 72 74 71 70 65 61 62 52 61 64 67 64 64 67 68 74 73 73 71 73 73 72 74 74 72 71 70 70 71 65 58 52 50 54 63 60 59 63 58 58 13 19 0 88 88 87 39 0 0 0 0 0 0 0 0 0 0 0 0 0 0 0 0 0 0 0 0 0 0 0 0 0 0 
0 0 0 0 0 0 0 0 0 0 0 0 0 0 0 0 0 0 0 0 0 0 0 74 88 88 3 38 24 23 64 63 68 69 69 67 65 64 68 62 62 50 58 61 69 73 70 77 74 70 62 59 75 72 72 75 75 73 69 64 63 61 47 63 62 63 62 63 64 72 72 71 73 72 72 69 72 71 70 71 68 59 62 64 69 66 63 58 55 56 53 58 59 55 41 8 34 2 88 88 88 25 0 0 0 0 0 0 0 0 0 0 0 0 0 0 0 0 0 0 0 0 0 0 0 0 0 0 
0 0 0 0 0 0 0 0 0 0 0 0 0 0 0 0 0 0 0 0 0 0 0 60 88 88 40 22 49 6 60 61 63 62 65 63 63 56 58 60 57 60 59 61 68 72 74 76 73 75 72 74 73 73 70 67 65 68 65 68 66 63 49 55 60 58 60 63 64 71 71 73 74 71 73 70 70 70 72 68 64 57 54 60 62 67 69 63 62 58 56 53 58 64 9 19 27 3 88 88 69 0 0 0 0 0 0 0 0 0 0 0 0 0 0 0 0 0 0 0 0 0 0 0 0 0 0 0 
0 0 0 0 0 0 0 0 0 0 0 0 0 0 0 0 0 0 0 0 0 0 0 33 88 88 88 7 66 4 37 56 52 59 59 58 59 59 39 60 61 63 68 65 64 73 74 73 72 75 75 71 68 72 70 62 62 63 68 65 68 63 50 31 62 56 61 65 66 70 68 70 70 73 71 71 74 71 69 72 63 64 59 50 57 62 66 70 63 62 61 56 48 46 8 47 16 77 88 86 57 0 0 0 0 0 0 0 0 0 0 0 0 0 0 0 0 0 0 0 0 0 0 0 0 0 0 0 
0 0 0 0 0 0 0 0 0 0 0 0 0 0 0 0 0 0 0 0 0 0 0 13 79 88 88 0 49 29 15 48 61 64 62 61 63 63 53 63 67 65 65 66 65 71 74 71 73 76 71 72 70 68 68 68 62 59 62 65 66 61 60 65 62 63 63 64 69 72 73 72 70 71 72 70 70 72 71 70 65 62 55 63 46 61 59 65 67 66 63 59 57 14 16 62 0 88 88 88 42 0 0 0 0 0 0 0 0 0 0 0 0 0 0 0 0 0 0 0 0 0 0 0 0 0 0 0 
0 0 0 0 0 0 0 0 0 0 0 0 0 0 0 0 0 0 0 0 0 0 0 0 56 88 88 5 22 58 1 57 63 64 65 65 63 65 66 67 68 65 66 63 69 73 75 76 75 72 72 71 68 67 66 69 64 62 61 61 63 60 60 63 66 65 64 68 68 71 72 70 71 71 73 70 70 70 68 69 66 63 61 55 46 41 58 60 58 63 65 58 57 4 45 48 7 88 88 72 14 0 0 0 0 0 0 0 0 0 0 0 0 0 0 0 0 0 0 0 0 0 0 0 0 0 0 0 
0 0 0 0 0 0 0 0 0 0 0 0 0 0 0 0 0 0 0 0 0 0 0 0 33 88 88 88 8 66 9 37 63 64 64 64 65 66 67 68 65 62 63 66 72 75 76 71 71 70 71 69 67 64 63 63 62 56 57 50 57 58 58 61 66 65 68 65 66 65 62 65 71 72 68 72 72 70 67 68 70 66 63 60 61 45 58 60 55 57 60 61 40 3 65 17 51 88 88 60 0 0 0 0 0 0 0 0 0 0 0 0 0 0 0 0 0 0 0 0 0 0 0 0 0 0 0 0 
0 0 0 0 0 0 0 0 0 0 0 0 0 0 0 0 0 0 0 0 0 0 0 0 13 83 88 88 0 44 29 18 56 60 64 66 64 66 69 69 66 65 66 74 73 72 72 71 69 69 68 68 65 60 65 59 42 42 50 59 60 54 57 61 61 56 61 64 61 61 59 63 68 71 71 71 69 73 71 65 66 72 69 64 60 61 59 59 61 60 53 62 13 25 57 0 88 88 86 41 0 0 0 0 0 0 0 0 0 0 0 0 0 0 0 0 0 0 0 0 0 0 0 0 0 0 0 0 
0 0 0 0 0 0 0 0 0 0 0 0 0 0 0 0 0 0 0 0 0 0 0 0 0 64 88 88 45 14 51 7 55 65 64 67 66 65 67 70 68 69 70 74 71 72 68 70 70 71 68 69 64 55 47 51 61 64 61 59 69 59 36 63 42 55 52 54 55 59 59 66 69 70 69 72 71 68 70 73 65 63 66 70 65 66 64 64 62 60 60 38 14 41 39 0 88 88 75 19 0 0 0 0 0 0 0 0 0 0 0 0 0 0 0 0 0 0 0 0 0 0 0 0 0 0 0 0 
0 0 0 0 0 0 0 0 0 0 0 0 0 0 0 0 0 0 0 0 0 0 0 0 0 31 88 88 88 0 47 17 24 59 65 67 62 64 61 62 66 69 71 72 74 73 69 69 69 69 68 68 65 63 54 63 65 66 69 69 63 65 58 63 63 62 60 62 60 62 63 67 67 69 68 70 71 72 72 66 65 66 65 64 64 64 62 63 60 54 59 38 8 54 12 28 88 88 52 0 0 0 0 0 0 0 0 0 0 0 0 0 0 0 0 0 0 0 0 0 0 0 0 0 0 0 0 0 
0 0 0 0 0 0 0 0 0 0 0 0 0 0 0 0 0 0 0 0 0 0 0 0 0 0 76 88 88 16 13 53 3 56 62 64 61 59 59 62 64 72 73 72 73 70 67 65 65 69 68 70 68 62 52 66 66 68 67 68 63 57 61 67 66 67 64 63 66 63 63 65 68 67 64 66 68 68 68 63 62 62 65 64 61 65 63 63 60 63 55 22 27 38 0 88 88 88 31 0 0 0 0 0 0 0 0 0 0 0 0 0 0 0 0 0 0 0 0 0 0 0 0 0 0 0 0 0 
0 0 0 0 0 0 0 0 0 0 0 0 0 0 0 0 0 0 0 0 0 0 0 0 0 0 63 88 88 88 0 39 31 19 62 63 57 55 45 63 67 70 67 68 67 67 67 66 67 66 67 69 68 66 58 63 69 69 70 64 66 56 56 64 66 66 66 66 64 63 63 67 66 69 64 63 68 70 68 61 53 61 61 65 63 63 59 61 63 58 56 5 42 14 14 88 88 69 0 0 0 0 0 0 0 0 0 0 0 0 0 0 0 0 0 0 0 0 0 0 0 0 0 0 0 0 0 0 
0 0 0 0 0 0 0 0 0 0 0 0 0 0 0 0 0 0 0 0 0 0 0 0 0 0 44 88 88 88 11 6 61 11 28 47 57 59 62 69 69 66 63 61 64 62 67 64 65 66 68 68 70 68 67 66 67 68 68 64 63 55 68 66 63 66 69 68 65 64 67 67 66 67 63 61 64 68 65 62 60 56 60 63 66 63 60 59 56 57 25 24 32 0 79 88 88 50 0 0 0 0 0 0 0 0 0 0 0 0 0 0 0 0 0 0 0 0 0 0 0 0 0 0 0 0 0 0 
0 0 0 0 0 0 0 0 0 0 0 0 0 0 0 0 0 0 0 0 0 0 0 0 0 0 14 79 88 88 88 0 27 57 5 29 56 63 65 67 68 65 62 51 64 61 59 64 61 64 67 67 66 70 68 67 67 68 63 65 64 61 65 61 63 64 67 65 64 66 67 67 67 63 63 63 68 67 69 63 61 59 56 61 67 61 61 62 49 31 13 38 9 18 88 88 77 22 0 0 0 0 0 0 0 0 0 0 0 0 0 0 0 0 0 0 0 0 0 0 0 0 0 0 0 0 0 0 
0 0 0 0 0 0 0 0 0 0 0 0 0 0 0 0 0 0 0 0 0 0 0 0 0 0 0 53 88 88 88 57 5 52 50 7 63 61 63 63 66 66 53 58 63 65 63 63 60 64 69 69 68 68 66 67 67 67 65 65 64 59 59 62 62 65 70 68 66 68 68 67 65 59 61 64 65 68 66 65 62 59 53 61 60 62 61 46 40 22 30 28 0 88 88 81 58 0 0 0 0 0 0 0 0 0 0 0 0 0 0 0 0 0 0 0 0 0 0 0 0 0 0 0 0 0 0 0 
0 0 0 0 0 0 0 0 0 0 0 0 0 0 0 0 0 0 0 0 0 0 0 0 0 0 0 12 78 88 88 88 16 12 58 21 31 63 63 64 67 65 59 57 64 66 65 64 65 63 68 68 69 71 68 68 64 66 65 63 62 42 57 61 63 63 68 66 66 66 66 64 63 55 63 65 70 68 64 63 62 60 57 50 63 57 59 38 29 22 39 0 68 88 82 71 21 0 0 0 0 0 0 0 0 0 0 0 0 0 0 0 0 0 0 0 0 0 0 0 0 0 0 0 0 0 0 0 
0 0 0 0 0 0 0 0 0 0 0 0 0 0 0 0 0 0 0 0 0 0 0 0 0 0 0 0 53 88 88 88 88 0 26 52 6 57 60 66 65 67 57 58 64 66 65 67 64 67 66 68 68 68 66 61 63 64 59 57 43 51 59 56 62 64 65 65 65 62 62 63 56 59 65 65 62 63 63 62 64 64 62 40 36 47 39 32 23 47 1 33 88 88 85 31 0 0 0 0 0 0 0 0 0 0 0 0 0 0 0 0 0 0 0 0 0 0 0 0 0 0 0 0 0 0 0 0 
0 0 0 0 0 0 0 0 0 0 0 0 0 0 0 0 0 0 0 0 0 0 0 0 0 0 0 0 0 72 88 88 88 81 0 41 52 11 66 61 63 65 54 58 64 66 67 66 68 69 71 69 68 66 70 68 68 66 67 66 59 57 64 65 63 63 67 65 62 63 60 57 57 63 65 64 60 63 61 58 61 66 61 59 36 36 29 19 39 8 28 88 88 88 66 0 0 0 0 0 0 0 0 0 0 0 0 0 0 0 0 0 0 0 0 0 0 0 0 0 0 0 0 0 0 0 0 0 
0 0 0 0 0 0 0 0 0 0 0 0 0 0 0 0 0 0 0 0 0 0 0 0 0 0 0 0 0 31 82 88 88 88 79 0 44 31 25 64 62 66 58 59 62 64 65 66 69 69 69 68 69 69 66 70 67 65 60 64 59 59 63 64 63 62 65 63 63 65 65 58 57 65 64 61 63 59 62 59 63 65 62 60 40 21 16 31 8 7 80 88 88 87 43 0 0 0 0 0 0 0 0 0 0 0 0 0 0 0 0 0 0 0 0 0 0 0 0 0 0 0 0 0 0 0 0 0 
0 0 0 0 0 0 0 0 0 0 0 0 0 0 0 0 0 0 0 0 0 0 0 0 0 0 0 0 0 0 38 88 79 88 88 38 5 33 28 32 62 57 56 56 63 63 64 69 70 66 69 69 69 62 67 69 67 64 64 61 42 58 64 66 65 64 63 63 63 64 65 58 55 62 64 66 63 65 64 65 62 65 60 59 37 8 20 13 12 88 88 88 88 70 14 0 0 0 0 0 0 0 0 0 0 0 0 0 0 0 0 0 0 0 0 0 0 0 0 0 0 0 0 0 0 0 0 0 
0 0 0 0 0 0 0 0 0 0 0 0 0 0 0 0 0 0 0 0 0 0 0 0 0 0 0 0 0 0 0 45 88 88 88 88 25 19 30 22 34 63 66 55 61 64 65 66 65 65 63 65 69 64 64 66 66 67 68 64 57 60 65 64 64 65 65 65 66 64 64 60 55 58 64 63 66 65 65 65 63 62 61 37 22 21 23 12 71 88 88 88 81 43 0 0 0 0 0 0 0 0 0 0 0 0 0 0 0 0 0 0 0 0 0 0 0 0 0 0 0 0 0 0 0 0 0 0 
0 0 0 0 0 0 0 0 0 0 0 0 0 0 0 0 0 0 0 0 0 0 0 0 0 0 0 0 0 0 0 0 40 88 88 88 88 13 19 29 21 24 66 49 63 66 66 66 67 66 63 65 65 66 55 63 64 66 66 64 60 61 63 67 65 64 66 66 65 66 63 64 62 62 57 61 63 66 64 62 62 57 39 60 33 34 13 57 88 88 88 79 60 0 0 0 0 0 0 0 0 0 0 0 0 0 0 0 0 0 0 0 0 0 0 0 0 0 0 0 0 0 0 0 0 0 0 0 
0 0 0 0 0 0 0 0 0 0 0 0 0 0 0 0 0 0 0 0 0 0 0 0 0 0 0 0 0 0 0 0 0 32 88 84 88 88 31 56 23 50 51 46 61 62 64 67 68 68 69 65 69 67 65 64 59 63 64 64 53 63 61 62 61 63 65 61 63 66 67 64 63 63 63 63 63 63 59 60 50 60 48 20 27 7 40 88 88 87 88 62 14 0 0 0 0 0 0 0 0 0 0 0 0 0 0 0 0 0 0 0 0 0 0 0 0 0 0 0 0 0 0 0 0 0 0 0 
0 0 0 0 0 0 0 0 0 0 0 0 0 0 0 0 0 0 0 0 0 0 0 0 0 0 0 0 0 0 0 0 0 0 39 88 85 88 72 11 44 43 11 38 42 61 64 63 63 63 65 67 67 67 68 66 65 61 62 57 53 62 63 63 62 64 62 58 64 66 65 63 63 65 64 64 63 62 48 45 57 25 23 34 20 22 88 88 88 86 64 15 0 0 0 0 0 0 0 0 0 0 0 0 0 0 0 0 0 0 0 0 0 0 0 0 0 0 0 0 0 0 0 0 0 0 0 0 
0 0 0 0 0 0 0 0 0 0 0 0 0 0 0 0 0 0 0 0 0 0 0 0 0 0 0 0 0 0 0 0 0 0 0 37 88 80 88 62 15 32 64 12 44 60 61 66 66 59 61 64 64 64 65 68 63 67 58 49 65 63 62 62 61 63 61 61 65 65 60 54 56 62 60 58 59 58 45 25 15 33 38 12 27 88 88 88 88 68 22 0 0 0 0 0 0 0 0 0 0 0 0 0 0 0 0 0 0 0 0 0 0 0 0 0 0 0 0 0 0 0 0 0 0 0 0 0 
0 0 0 0 0 0 0 0 0 0 0 0 0 0 0 0 0 0 0 0 0 0 0 0 0 0 0 0 0 0 0 0 0 0 0 0 39 84 85 88 77 20 13 45 13 26 60 57 59 54 61 66 64 62 59 66 63 25 13 88 88 17 61 57 59 61 61 68 64 66 64 63 62 60 59 55 47 15 11 26 43 23 18 34 88 88 83 78 69 36 0 0 0 0 0 0 0 0 0 0 0 0 0 0 0 0 0 0 0 0 0 0 0 0 0 0 0 0 0 0 0 0 0 0 0 0 0 0 
0 0 0 0 0 0 0 0 0 0 0 0 0 0 0 0 0 0 0 0 0 0 0 0 0 0 0 0 0 0 0 0 0 0 0 0 0 45 81 69 88 73 13 19 63 34 19 31 57 59 61 58 64 65 54 70 83 24 65 79 41 46 60 43 57 55 64 69 51 62 56 59 52 22 29 13 3 35 32 36 15 8 58 88 88 75 75 62 20 0 0 0 0 0 0 0 0 0 0 0 0 0 0 0 0 0 0 0 0 0 0 0 0 0 0 0 0 0 0 0 0 0 0 0 0 0 0 0 
0 0 0 0 0 0 0 0 0 0 0 0 0 0 0 0 0 0 0 0 0 0 0 0 0 0 0 0 0 0 0 0 0 0 0 0 0 0 36 76 61 88 61 24 13 42 48 49 36 44 36 42 59 38 46 58 73 37 88 88 88 54 66 50 60 57 56 62 65 57 50 41 20 13 36 50 43 46 31 7 11 88 88 86 69 76 37 13 0 0 0 0 0 0 0 0 0 0 0 0 0 0 0 0 0 0 0 0 0 0 0 0 0 0 0 0 0 0 0 0 0 0 0 0 0 0 0 0 
0 0 0 0 0 0 0 0 0 0 0 0 0 0 0 0 0 0 0 0 0 0 0 0 0 0 0 0 0 0 0 0 0 0 0 0 0 0 0 29 75 64 88 88 59 8 14 40 43 48 54 51 47 59 59 60 49 43 52 64 47 65 46 49 43 53 53 44 47 35 23 23 37 57 51 41 36 14 17 64 88 88 69 73 66 28 0 0 0 0 0 0 0 0 0 0 0 0 0 0 0 0 0 0 0 0 0 0 0 0 0 0 0 0 0 0 0 0 0 0 0 0 0 0 0 0 0 0 
0 0 0 0 0 0 0 0 0 0 0 0 0 0 0 0 0 0 0 0 0 0 0 0 0 0 0 0 0 0 0 0 0 0 0 0 0 0 0 0 17 64 67 71 88 88 66 13 9 24 40 44 42 50 55 51 62 62 63 68 73 72 81 63 56 47 49 40 36 37 51 51 52 44 27 11 4 43 88 88 86 63 72 50 12 0 0 0 0 0 0 0 0 0 0 0 0 0 0 0 0 0 0 0 0 0 0 0 0 0 0 0 0 0 0 0 0 0 0 0 0 0 0 0 0 0 0 0 
0 0 0 0 0 0 0 0 0 0 0 0 0 0 0 0 0 0 0 0 0 0 0 0 0 0 0 0 0 0 0 0 0 0 0 0 0 0 0 0 0 0 40 70 60 72 88 88 86 45 11 8 16 26 29 36 33 43 45 45 48 49 52 52 53 49 47 47 43 45 35 23 11 11 31 81 88 88 79 55 66 65 23 0 0 0 0 0 0 0 0 0 0 0 0 0 0 0 0 0 0 0 0 0 0 0 0 0 0 0 0 0 0 0 0 0 0 0 0 0 0 0 0 0 0 0 0 0 
0 0 0 0 0 0 0 0 0 0 0 0 0 0 0 0 0 0 0 0 0 0 0 0 0 0 0 0 0 0 0 0 0 0 0 0 0 0 0 0 0 0 0 25 61 68 56 62 88 88 88 88 88 71 65 51 52 52 44 49 46 60 46 48 46 52 42 40 41 37 43 56 88 88 88 76 54 53 61 65 35 0 0 0 0 0 0 0 0 0 0 0 0 0 0 0 0 0 0 0 0 0 0 0 0 0 0 0 0 0 0 0 0 0 0 0 0 0 0 0 0 0 0 0 0 0 0 0 
0 0 0 0 0 0 0 0 0 0 0 0 0 0 0 0 0 0 0 0 0 0 0 0 0 0 0 0 0 0 0 0 0 0 0 0 0 0 0 0 0 0 0 0 0 22 53 68 62 53 51 55 64 88 88 88 88 88 88 88 88 88 88 88 88 88 88 88 88 88 88 88 63 51 48 59 64 58 31 0 0 0 0 0 0 0 0 0 0 0 0 0 0 0 0 0 0 0 0 0 0 0 0 0 0 0 0 0 0 0 0 0 0 0 0 0 0 0 0 0 0 0 0 0 0 0 0 0 
0 0 0 0 0 0 0 0 0 0 0 0 0 0 0 0 0 0 0 0 0 0 0 0 0 0 0 0 0 0 0 0 0 0 0 0 0 0 0 0 0 0 0 0 0 0 0 13 33 49 52 55 58 49 54 62 74 62 52 59 56 58 65 65 60 60 56 54 53 45 50 51 62 54 46 31 20 0 0 0 0 0 0 0 0 0 0 0 0 0 0 0 0 0 0 0 0 0 0 0 0 0 0 0 0 0 0 0 0 0 0 0 0 0 0 0 0 0 0 0 0 0 0 0 0 0 0 0 
0 0 0 0 0 0 0 0 0 0 0 0 0 0 0 0 0 0 0 0 0 0 0 0 0 0 0 0 0 0 0 0 0 0 0 0 0 0 0 0 0 0 0 0 0 0 0 0 0 0 0 0 19 45 57 62 64 67 73 65 65 69 63 65 59 60 63 60 58 57 44 33 16 0 0 0 0 0 0 0 0 0 0 0 0 0 0 0 0 0 0 0 0 0 0 0 0 0 0 0 0 0 0 0 0 0 0 0 0 0 0 0 0 0 0 0 0 0 0 0 0 0 0 0 0 0 0 0 
0 0 0 0 0 0 0 0 0 0 0 0 0 0 0 0 0 0 0 0 0 0 0 0 0 0 0 0 0 0 0 0 0 0 0 0 0 0 0 0 0 0 0 0 0 0 0 0 0 0 0 0 0 0 0 12 22 19 0 12 11 17 21 19 17 20 13 12 0 0 0 0 0 0 0 0 0 0 0 0 0 0 0 0 0 0 0 0 0 0 0 0 0 0 0 0 0 0 0 0 0 0 0 0 0 0 0 0 0 0 0 0 0 0 0 0 0 0 0 0 0 0 0 0 0 0 0 0 
0 0 0 0 0 0 0 0 0 0 0 0 0 0 0 0 0 0 0 0 0 0 0 0 0 0 0 0 0 0 0 0 0 0 0 0 0 0 0 0 0 0 0 0 0 0 0 0 0 0 0 0 0 0 0 0 0 0 0 0 0 0 0 0 0 0 0 0 0 0 0 0 0 0 0 0 0 0 0 0 0 0 0 0 0 0 0 0 0 0 0 0 0 0 0 0 0 0 0 0 0 0 0 0 0 0 0 0 0 0 0 0 0 0 0 0 0 0 0 0 0 0 0 0 0 0 0 0 
0 0 0 0 0 0 0 0 0 0 0 0 0 0 0 0 0 0 0 0 0 0 0 0 0 0 0 0 0 0 0 0 0 0 0 0 0 0 0 0 0 0 0 0 0 0 0 0 0 0 0 0 0 0 0 0 0 0 0 0 0 0 0 0 0 0 0 0 0 0 0 0 0 0 0 0 0 0 0 0 0 0 0 0 0 0 0 0 0 0 0 0 0 0 0 0 0 0 0 0 0 0 0 0 0 0 0 0 0 0 0 0 0 0 0 0 0 0 0 0 0 0 0 0 0 0 0 0 
0 0 0 0 0 0 0 0 0 0 0 0 0 0 0 0 0 0 0 0 0 0 0 0 0 0 0 0 0 0 0 0 0 0 0 0 0 0 0 0 0 0 0 0 0 0 0 0 0 0 0 0 0 0 0 0 0 0 0 0 0 0 0 0 0 0 0 0 0 0 0 0 0 0 0 0 0 0 0 0 0 0 0 0 0 0 0 0 0 0 0 0 0 0 0 0 0 0 0 0 0 0 0 0 0 0 0 0 0 0 0 0 0 0 0 0 0 0 0 0 0 0 0 0 0 0 0 0 
