P2
128 128
88
0 0 0 0 0 0 0 0 0 0 0 0 0 0 0 0 0 0 0 0 0 0 0 0 0 0 0 0 0 0 0 0 0 0 0 0 0 0 0 0 0 0 0 0 0 0 0 0 0 0 0 0 0 0 0 0 0 0 0 0 0 0 0 0 0 0 0 0 0 0 0 0 0 0 0 0 0 0 0 0 0 0 0 0 0 0 0 0 0 0 0 0 0 0 0 0 0 0 0 0 0 0 0 0 0 0 0 0 0 0 0 0 0 0 0 0 0 0 0 0 0 0 0 0 0 0 0 0 
0 0 0 0 0 0 0 0 0 0 0 0 0 0 0 0 0 0 0 0 0 0 0 0 0 0 0 0 0 0 0 0 0 0 0 0 0 0 0 0 0 0 0 0 0 0 0 0 0 0 0 0 0 0 0 0 0 0 0 0 0 0 0 0 0 0 0 0 0 0 0 0 0 0 0 0 0 0 0 0 0 0 0 0 0 0 0 0 0 0 0 0 0 0 0 0 0 0 0 0 0 0 0 0 0 0 0 0 0 0 0 0 0 0 0 0 0 0 0 0 0 0 0 0 0 0 0 0 
0 0 0 0 0 0 0 0 0 0 0 0 0 0 0 0 0 0 0 0 0 0 0 0 0 0 0 0 0 0 0 0 0 0 0 0 0 0 0 0 0 0 0 0 0 0 0 0 0 0 0 0 0 0 0 0 0 0 0 0 0 0 0 0 0 0 0 0 0 0 0 0 0 0 0 0 0 0 0 0 0 0 0 0 0 0 0 0 0 0 0 0 0 0 0 0 0 0 0 0 0 0 0 0 0 0 0 0 0 0 0 0 0 0 0 0 0 0 0 0 0 0 0 0 0 0 0 0 
0 0 0 0 0 0 0 0 0 0 0 0 0 0 0 0 0 0 0 0 0 0 0 0 0 0 0 0 0 0 0 0 0 0 0 0 0 0 0 0 0 0 0 0 0 0 0 0 0 0 0 0 0 0 0 0 0 0 0 0 0 0 0 0 0 0 0 0 0 0 0 0 0 0 0 0 0 0 0 0 0 0 0 0 0 0 0 0 0 0 0 0 0 0 0 0 0 0 0 0 0 0 0 0 0 0 0 0 0 0 0 0 0 0 0 0 0 0 0 0 0 0 0 0 0 0 0 0 
0 0 0 0 0 0 0 0 0 0 0 0 0 0 0 0 0 0 0 0 0 0 0 0 0 0 0 0 0 0 0 0 0 0 0 0 0 0 0 0 0 0 0 0 0 0 0 0 0 0 0 0 0 0 0 0 0 0 0 0 0 0 0 0 0 0 0 0 0 0 0 0 0 0 0 0 0 0 0 0 0 0 0 0 0 0 0 0 0 0 0 0 0 0 0 0 0 0 0 0 0 0 0 0 0 0 0 0 0 0 0 0 0 0 0 0 0 0 0 0 0 0 0 0 0 0 0 0 
0 0 0 0 0 0 0 0 0 0 0 0 0 0 0 0 0 0 0 0 0 0 0 0 0 0 0 0 0 0 0 0 0 0 0 0 0 0 0 0 0 0 0 0 0 0 0 0 0 0 0 0 0 0 0 0 0 0 0 0 0 0 0 0 0 0 0 0 0 0 0 0 0 0 0 0 0 0 0 0 0 0 0 0 0 0 0 0 0 0 0 0 0 0 0 0 0 0 0 0 0 0 0 0 0 0 0 0 0 0 0 0 0 0 0 0 0 0 0 0 0 0 0 0 0 0 0 0 
0 0 0 0 0 0 0 0 0 0 0 0 0 0 0 0 0 0 0 0 0 0 0 0 0 0 0 0 0 0 0 0 0 0 0 0 0 0 0 0 0 0 0 0 0 0 0 0 0 0 0 0 0 0 0 0 0 0 0 0 0 0 0 0 0 0 0 0 0 0 0 0 0 0 0 0 0 0 0 0 0 0 0 0 0 0 0 0 0 0 0 0 0 0 0 0 0 0 0 0 0 0 0 0 0 0 0 0 0 0 0 0 0 0 0 0 0 0 0 0 0 0 0 0 0 0 0 0 
0 0 0 0 0 0 0 0 0 0 0 0 0 0 0 0 0 0 0 0 0 0 0 0 0 0 0 0 0 0 0 0 0 0 0 0 0 0 0 0 0 0 0 0 0 0 0 0 0 0 0 0 0 0 0 0 0 0 0 0 0 0 0 0 0 0 0 0 0 0 0 0 0 0 0 0 0 0 0 0 0 0 0 0 0 0 0 0 0 0 0 0 0 0 0 0 0 0 0 0 0 0 0 0 0 0 0 0 0 0 0 0 0 0 0 0 0 0 0 0 0 0 0 0 0 0 0 0 
0 0 0 0 0 0 0 0 0 0 0 0 0 0 0 0 0 0 0 0 0 0 0 0 0 0 0 0 0 0 0 0 0 0 0 0 0 0 0 0 0 0 0 0 0 0 0 0 0 0 0 0 0 0 0 0 0 0 0 0 0 0 0 0 0 0 0 0 0 0 0 0 0 0 0 0 0 0 0 0 0 0 0 0 0 0 0 0 0 0 0 0 0 0 0 0 0 0 0 0 0 0 0 0 0 0 0 0 0 0 0 0 0 0 0 0 0 0 0 0 0 0 0 0 0 0 0 0 
0 0 0 0 0 0 0 0 0 0 0 0 0 0 0 0 0 0 0 0 0 0 0 0 0 0 0 0 0 0 0 0 0 0 0 0 0 0 0 0 0 0 0 0 0 0 0 0 0 0 0 0 0 0 0 0 0 0 0 0 0 0 0 0 0 0 0 0 0 0 0 0 0 0 0 0 0 0 0 0 0 0 0 0 0 0 0 0 0 0 0 0 0 0 0 0 0 0 0 0 0 0 0 0 0 0 0 0 0 0 0 0 0 0 0 0 0 0 0 0 0 0 0 0 0 0 0 0 
0 0 0 0 0 0 0 0 0 0 0 0 0 0 0 0 0 0 0 0 0 0 0 0 0 0 0 0 0 0 0 0 0 0 0 0 0 0 0 0 0 0 0 0 0 0 0 0 0 0 0 0 0 0 0 0 0 0 0 0 0 0 0 0 0 0 0 0 0 0 0 0 0 0 0 0 0 0 0 0 0 0 0 0 0 0 0 0 0 0 0 0 0 0 0 0 0 0 0 0 0 0 0 0 0 0 0 0 0 0 0 0 0 0 0 0 0 0 0 0 0 0 0 0 0 0 0 0 
0 0 0 0 0 0 0 0 0 0 0 0 0 0 0 0 0 0 0 0 0 0 0 0 0 0 0 0 0 0 0 0 0 0 0 0 0 0 0 0 0 0 0 0 0 0 0 0 0 0 0 0 0 0 0 0 0 0 0 0 0 0 0 0 0 0 0 0 0 0 0 0 0 0 0 0 0 0 0 0 0 0 0 0 0 0 0 0 0 0 0 0 0 0 0 0 0 0 0 0 0 0 0 0 0 0 0 0 0 0 0 0 0 0 0 0 0 0 0 0 0 0 0 0 0 0 0 0 
0 0 0 0 0 0 0 0 0 0 0 0 0 0 0 0 0 0 0 0 0 0 0 0 0 0 0 0 0 0 0 0 0 0 0 0 0 0 0 0 0 0 0 0 0 0 0 0 0 0 0 0 0 0 0 0 0 0 0 0 0 0 0 0 0 0 0 0 0 0 0 0 0 0 0 0 0 0 0 0 0 0 0 0 0 0 0 0 0 0 0 0 0 0 0 0 0 0 0 0 0 0 0 0 0 0 0 0 0 0 0 0 0 0 0 0 0 0 0 0 0 0 0 0 0 0 0 0 
0 0 0 0 0 0 0 0 0 0 0 0 0 0 0 0 0 0 0 0 0 0 0 0 0 0 0 0 0 0 0 0 0 0 0 0 0 0 0 0 0 0 0 0 0 0 0 0 0 0 0 0 0 0 0 0 0 0 0 0 0 0 0 0 0 0 0 0 0 0 0 0 0 0 0 0 0 0 0 0 0 0 0 0 0 0 0 0 0 0 0 0 0 0 0 0 0 0 0 0 0 0 0 0 0 0 0 0 0 0 0 0 0 0 0 0 0 0 0 0 0 0 0 0 0 0 0 0 
0 0 0 0 0 0 0 0 0 0 0 0 0 0 0 0 0 0 0 0 0 0 0 0 0 0 0 0 0 0 0 0 0 0 0 0 0 0 0 0 0 0 0 0 0 0 0 0 0 0 0 0 0 0 0 0 0 0 0 0 0 0 0 0 0 0 0 0 0 0 0 0 0 0 0 0 0 0 0 0 0 0 0 0 0 0 0 0 0 0 0 0 0 0 0 0 0 0 0 0 0 0 0 0 0 0 0 0 0 0 0 0 0 0 0 0 0 0 0 0 0 0 0 0 0 0 0 0 
0 0 0 0 0 0 0 0 0 0 0 0 0 0 0 0 0 0 0 0 0 0 0 0 0 0 0 0 0 0 0 0 0 0 0 0 0 0 0 0 0 0 0 0 0 0 0 0 0 0 0 0 0 0 0 0 0 0 0 0 0 0 0 0 0 0 0 0 0 0 0 0 0 0 0 0 0 0 0 0 0 0 0 0 0 0 0 0 0 0 0 0 0 0 0 0 0 0 0 0 0 0 0 0 0 0 0 0 0 0 0 0 0 0 0 0 0 0 0 0 0 0 0 0 0 0 0 0 
0 0 0 0 0 0 0 0 0 0 0 0 0 0 0 0 0 0 0 0 0 0 0 0 0 0 0 0 0 0 0 0 0 0 0 0 0 0 0 0 0 0 0 0 0 0 0 0 0 0 0 0 0 0 0 0 0 0 0 0 0 0 0 0 0 0 0 0 0 0 0 0 0 0 0 0 0 0 0 0 0 0 0 0 0 0 0 0 0 0 0 0 0 0 0 0 0 0 0 0 0 0 0 0 0 0 0 0 0 0 0 0 0 0 0 0 0 0 0 0 0 0 0 0 0 0 0 0 
0 0 0 0 0 0 0 0 0 0 0 0 0 0 0 0 0 0 0 0 0 0 0 0 0 0 0 0 0 0 0 0 0 0 0 0 0 0 0 0 0 0 0 0 0 0 0 0 0 0 0 0 0 0 0 0 0 0 0 0 0 0 0 0 0 0 0 0 0 0 0 0 0 0 0 0 0 0 0 0 0 0 0 0 0 0 0 0 0 0 0 0 0 0 0 0 0 0 0 0 0 0 0 0 0 0 0 0 0 0 0 0 0 0 0 0 0 0 0 0 0 0 0 0 0 0 0 0 
0 0 0 0 0 0 0 0 0 0 0 0 0 0 0 0 0 0 0 0 0 0 0 0 0 0 0 0 0 0 0 0 0 0 0 0 0 0 0 0 0 0 0 0 0 0 0 0 0 0 0 0 0 0 0 0 0 0 0 0 0 0 0 0 0 0 0 0 0 0 0 0 0 0 0 0 0 0 0 0 0 0 0 0 0 0 0 0 0 0 0 0 0 0 0 0 0 0 0 0 0 0 0 0 0 0 0 0 0 0 0 0 0 0 0 0 0 0 0 0 0 0 0 0 0 0 0 0 
0 0 0 0 0 0 0 0 0 0 0 0 0 0 0 0 0 0 0 0 0 0 0 0 0 0 0 0 0 0 0 0 0 0 0 0 0 0 0 0 0 0 0 0 0 0 0 0 0 0 0 0 0 0 0 24 46 65 85 88 88 88 88 88 73 61 41 24 11 0 0 0 0 0 0 0 0 0 0 0 0 0 0 0 0 0 0 0 0 0 0 0 0 0 0 0 0 0 0 0 0 0 0 0 0 0 0 0 0 0 0 0 0 0 0 0 0 0 0 0 0 0 0 0 0 0 0 0 
0 0 0 0 0 0 0 0 0 0 0 0 0 0 0 0 0 0 0 0 0 0 0 0 0 0 0 0 0 0 0 0 0 0 0 0 0 0 0 0 0 0 0 0 0 0 0 0 0 0 0 13 31 55 81 88 88 88 88 88 88 88 88 88 88 88 88 88 88 67 48 29 0 0 0 0 0 0 0 0 0 0 0 0 0 0 0 0 0 0 0 0 0 0 0 0 0 0 0 0 0 0 0 0 0 0 0 0 0 0 0 0 0 0 0 0 0 0 0 0 0 0 0 0 0 0 0 0 
0 0 0 0 0 0 0 0 0 0 0 0 0 0 0 0 0 0 0 0 0 0 0 0 0 0 0 0 0 0 0 0 0 0 0 0 0 0 0 0 0 0 0 0 0 0 0 0 0 25 52 88 88 88 88 88 88 88 68 58 45 49 49 59 76 88 88 88 88 88 88 88 82 40 17 0 0 0 0 0 0 0 0 0 0 0 0 0 0 0 0 0 0 0 0 0 0 0 0 0 0 0 0 0 0 0 0 0 0 0 0 0 0 0 0 0 0 0 0 0 0 0 0 0 0 0 0 0 
0 0 0 0 0 0 0 0 0 0 0 0 0 0 0 0 0 0 0 0 0 0 0 0 0 0 0 0 0 0 0 0 0 0 0 0 0 0 0 0 0 0 0 0 0 0 0 25 57 87 88 88 88 88 88 46 24 18 16 15 24 23 23 22 21 23 27 40 73 88 88 88 88 88 80 44 15 0 0 0 0 0 0 0 0 0 0 0 0 0 0 0 0 0 0 0 0 0 0 0 0 0 0 0 0 0 0 0 0 0 0 0 0 0 0 0 0 0 0 0 0 0 0 0 0 0 0 0 
0 0 0 0 0 0 0 0 0 0 0 0 0 0 0 0 0 0 0 0 0 0 0 0 0 0 0 0 0 0 0 0 0 0 0 0 0 0 0 0 0 0 0 0 0 15 52 86 88 88 88 88 59 27 17 24 34 42 48 55 58 53 51 46 48 47 39 32 24 27 43 88 88 88 88 88 78 32 0 0 0 0 0 0 0 0 0 0 0 0 0 0 0 0 0 0 0 0 0 0 0 0 0 0 0 0 0 0 0 0 0 0 0 0 0 0 0 0 0 0 0 0 0 0 0 0 0 0 
0 0 0 0 0 0 0 0 0 0 0 0 0 0 0 0 0 0 0 0 0 0 0 0 0 0 0 0 0 0 0 0 0 0 0 0 0 0 0 0 0 0 0 0 21 73 88 88 88 88 61 26 23 33 54 71 66 65 56 47 34 21 25 26 31 46 61 71 64 50 34 24 35 64 88 88 88 88 55 14 0 0 0 0 0 0 0 0 0 0 0 0 0 0 0 0 0 0 0 0 0 0 0 0 0 0 0 0 0 0 0 0 0 0 0 0 0 0 0 0 0 0 0 0 0 0 0 0 
0 0 0 0 0 0 0 0 0 0 0 0 0 0 0 0 0 0 0 0 0 0 0 0 0 0 0 0 0 0 0 0 0 0 0 0 0 0 0 0 0 0 0 31 88 88 88 88 59 30 27 42 61 70 64 63 53 38 19 12 9 23 41 40 23 18 27 37 58 73 73 71 44 24 35 75 88 88 88 74 21 0 0 0 0 0 0 0 0 0 0 0 0 0 0 0 0 0 0 0 0 0 0 0 0 0 0 0 0 0 0 0 0 0 0 0 0 0 0 0 0 0 0 0 0 0 0 0 
0 0 0 0 0 0 0 0 0 0 0 0 0 0 0 0 0 0 0 0 0 0 0 0 0 0 0 0 0 0 0 0 0 0 0 0 0 0 0 0 0 0 37 88 88 88 88 40 23 40 62 68 62 51 41 31 22 15 13 21 31 35 22 40 42 28 11 5 16 30 47 61 78 72 40 28 47 88 88 88 88 30 0 0 0 0 0 0 0 0 0 0 0 0 0 0 0 0 0 0 0 0 0 0 0 0 0 0 0 0 0 0 0 0 0 0 0 0 0 0 0 0 0 0 0 0 0 0 
0 0 0 0 0 0 0 0 0 0 0 0 0 0 0 0 0 0 0 0 0 0 0 0 0 0 0 0 0 0 0 0 0 0 0 0 0 0 0 0 0 37 88 88 88 78 24 26 56 71 65 50 38 22 22 12 13 23 41 44 34 32 12 15 55 37 22 9 8 9 13 19 37 60 70 51 32 36 83 88 88 88 36 0 0 0 0 0 0 0 0 0 0 0 0 0 0 0 0 0 0 0 0 0 0 0 0 0 0 0 0 0 0 0 0 0 0 0 0 0 0 0 0 0 0 0 0 0 
0 0 0 0 0 0 0 0 0 0 0 0 0 0 0 0 0 0 0 0 0 0 0 0 0 0 0 0 0 0 0 0 0 0 0 0 0 0 0 0 30 88 88 88 67 22 35 63 73 57 34 17 9 11 20 14 31 42 47 48 41 34 25 33 43 49 47 37 30 37 14 13 8 23 39 62 56 35 38 57 88 88 88 38 0 0 0 0 0 0 0 0 0 0 0 0 0 0 0 0 0 0 0 0 0 0 0 0 0 0 0 0 0 0 0 0 0 0 0 0 0 0 0 0 0 0 0 0 
0 0 0 0 0 0 0 0 0 0 0 0 0 0 0 0 0 0 0 0 0 0 0 0 0 0 0 0 0 0 0 0 0 0 0 0 0 0 0 13 88 88 88 66 22 35 69 67 43 17 13 13 14 23 31 34 40 45 52 50 46 33 31 49 51 56 55 61 55 47 32 9 19 13 11 30 55 61 41 31 61 87 88 88 31 0 0 0 0 0 0 0 0 0 0 0 0 0 0 0 0 0 0 0 0 0 0 0 0 0 0 0 0 0 0 0 0 0 0 0 0 0 0 0 0 0 0 0 
0 0 0 0 0 0 0 0 0 0 0 0 0 0 0 0 0 0 0 0 0 0 0 0 0 0 0 0 0 0 0 0 0 0 0 0 0 0 13 72 88 88 67 23 45 70 61 46 20 8 16 34 42 37 39 36 44 49 52 55 46 42 24 51 56 58 57 55 56 53 43 5 31 23 15 16 18 37 60 43 25 64 81 88 88 28 0 0 0 0 0 0 0 0 0 0 0 0 0 0 0 0 0 0 0 0 0 0 0 0 0 0 0 0 0 0 0 0 0 0 0 0 0 0 0 0 0 0 
0 0 0 0 0 0 0 0 0 0 0 0 0 0 0 0 0 0 0 0 0 0 0 0 0 0 0 0 0 0 0 0 0 0 0 0 0 0 49 88 88 84 16 32 65 61 31 16 9 18 44 52 52 55 54 41 43 44 53 56 45 43 44 47 57 60 63 59 59 60 41 25 26 36 29 23 12 12 33 58 46 17 65 88 88 88 21 0 0 0 0 0 0 0 0 0 0 0 0 0 0 0 0 0 0 0 0 0 0 0 0 0 0 0 0 0 0 0 0 0 0 0 0 0 0 0 0 0 
0 0 0 0 0 0 0 0 0 0 0 0 0 0 0 0 0 0 0 0 0 0 0 0 0 0 0 0 0 0 0 0 0 0 0 0 0 26 88 88 80 34 35 72 57 31 14 16 19 33 51 58 58 56 53 54 50 53 54 55 58 54 49 56 53 56 62 62 61 55 43 44 46 46 46 44 31 16 16 25 53 46 30 53 88 88 69 13 0 0 0 0 0 0 0 0 0 0 0 0 0 0 0 0 0 0 0 0 0 0 0 0 0 0 0 0 0 0 0 0 0 0 0 0 0 0 0 0 
0 0 0 0 0 0 0 0 0 0 0 0 0 0 0 0 0 0 0 0 0 0 0 0 0 0 0 0 0 0 0 0 0 0 0 0 0 74 88 86 39 31 70 54 27 15 11 38 31 31 47 56 58 62 59 56 57 58 55 56 59 53 54 36 55 56 61 66 58 57 44 44 55 56 56 65 80 79 36 7 26 62 35 26 66 88 88 53 0 0 0 0 0 0 0 0 0 0 0 0 0 0 0 0 0 0 0 0 0 0 0 0 0 0 0 0 0 0 0 0 0 0 0 0 0 0 0 0 
0 0 0 0 0 0 0 0 0 0 0 0 0 0 0 0 0 0 0 0 0 0 0 0 0 0 0 0 0 0 0 0 0 0 0 0 46 88 88 44 21 59 57 30 13 20 22 53 44 51 48 50 56 60 63 61 59 58 58 60 59 54 61 28 60 57 58 66 60 56 48 50 55 57 52 57 53 44 63 46 8 28 54 35 21 72 88 88 32 0 0 0 0 0 0 0 0 0 0 0 0 0 0 0 0 0 0 0 0 0 0 0 0 0 0 0 0 0 0 0 0 0 0 0 0 0 0 0 
0 0 0 0 0 0 0 0 0 0 0 0 0 0 0 0 0 0 0 0 0 0 0 0 0 0 0 0 0 0 0 0 0 0 0 19 88 88 70 17 59 65 33 11 24 34 29 42 46 50 56 44 55 61 62 62 63 61 64 63 60 57 58 57 54 61 61 66 61 57 47 49 60 48 52 54 56 56 40 32 23 16 42 62 27 33 88 88 85 0 0 0 0 0 0 0 0 0 0 0 0 0 0 0 0 0 0 0 0 0 0 0 0 0 0 0 0 0 0 0 0 0 0 0 0 0 0 0 
0 0 0 0 0 0 0 0 0 0 0 0 0 0 0 0 0 0 0 0 0 0 0 0 0 0 0 0 0 0 0 0 0 0 0 70 88 87 24 38 76 49 13 13 41 44 39 39 57 56 54 55 58 62 61 62 61 63 65 63 61 57 62 53 60 62 65 63 62 58 38 55 57 52 56 52 58 58 56 44 36 15 15 52 55 20 43 88 88 44 0 0 0 0 0 0 0 0 0 0 0 0 0 0 0 0 0 0 0 0 0 0 0 0 0 0 0 0 0 0 0 0 0 0 0 0 0 0 
0 0 0 0 0 0 0 0 0 0 0 0 0 0 0 0 0 0 0 0 0 0 0 0 0 0 0 0 0 0 0 0 0 0 26 88 88 37 23 70 54 17 8 38 52 54 43 45 56 55 59 57 58 61 62 63 63 63 65 63 60 56 59 53 60 61 62 66 62 59 46 57 58 59 57 57 62 60 54 57 40 46 15 33 60 39 17 66 88 88 12 0 0 0 0 0 0 0 0 0 0 0 0 0 0 0 0 0 0 0 0 0 0 0 0 0 0 0 0 0 0 0 0 0 0 0 0 0 
0 0 0 0 0 0 0 0 0 0 0 0 0 0 0 0 0 0 0 0 0 0 0 0 0 0 0 0 0 0 0 0 0 0 86 88 61 13 52 62 21 6 39 50 54 56 46 53 55 58 59 58 61 62 62 62 67 63 61 60 57 55 52 49 56 61 60 66 64 59 52 58 61 63 61 62 61 59 57 55 52 29 24 15 47 59 23 23 88 88 55 0 0 0 0 0 0 0 0 0 0 0 0 0 0 0 0 0 0 0 0 0 0 0 0 0 0 0 0 0 0 0 0 0 0 0 0 0 
0 0 0 0 0 0 0 0 0 0 0 0 0 0 0 0 0 0 0 0 0 0 0 0 0 0 0 0 0 0 0 0 0 44 88 88 25 29 65 35 5 29 46 54 57 59 49 53 59 58 58 59 60 63 64 66 67 61 49 44 48 36 45 49 57 58 63 66 66 62 55 60 65 64 62 60 55 60 59 56 52 34 26 11 20 72 70 20 50 88 88 14 0 0 0 0 0 0 0 0 0 0 0 0 0 0 0 0 0 0 0 0 0 0 0 0 0 0 0 0 0 0 0 0 0 0 0 0 
0 0 0 0 0 0 0 0 0 0 0 0 0 0 0 0 0 0 0 0 0 0 0 0 0 0 0 0 0 0 0 0 13 88 88 35 16 67 45 5 19 49 54 53 55 58 53 52 56 57 64 66 63 65 65 66 64 56 58 59 58 52 50 54 59 63 65 66 67 66 67 67 64 61 57 61 62 60 63 55 53 47 50 31 12 34 70 45 15 85 88 55 0 0 0 0 0 0 0 0 0 0 0 0 0 0 0 0 0 0 0 0 0 0 0 0 0 0 0 0 0 0 0 0 0 0 0 0 
0 0 0 0 0 0 0 0 0 0 0 0 0 0 0 0 0 0 0 0 0 0 0 0 0 0 0 0 0 0 0 0 58 88 69 11 51 63 18 16 45 54 53 49 52 57 58 52 48 57 58 62 66 65 65 66 67 63 59 61 58 56 60 59 60 63 66 66 66 66 66 68 61 58 63 62 65 62 57 52 50 55 55 48 16 14 44 73 23 35 88 88 13 0 0 0 0 0 0 0 0 0 0 0 0 0 0 0 0 0 0 0 0 0 0 0 0 0 0 0 0 0 0 0 0 0 0 0 
0 0 0 0 0 0 0 0 0 0 0 0 0 0 0 0 0 0 0 0 0 0 0 0 0 0 0 0 0 0 0 18 88 88 26 24 64 39 13 31 61 57 58 60 53 52 54 57 52 47 55 59 68 65 68 69 67 66 65 62 60 55 64 56 61 63 66 67 66 66 67 66 60 61 63 67 62 59 51 51 58 60 56 57 27 13 13 62 53 18 76 88 47 0 0 0 0 0 0 0 0 0 0 0 0 0 0 0 0 0 0 0 0 0 0 0 0 0 0 0 0 0 0 0 0 0 0 0 
0 0 0 0 0 0 0 0 0 0 0 0 0 0 0 0 0 0 0 0 0 0 0 0 0 0 0 0 0 0 0 63 88 61 14 63 57 16 20 53 53 58 59 61 60 57 57 58 58 59 54 58 64 65 66 67 64 64 60 60 60 50 75 49 58 62 61 63 67 71 68 67 61 61 63 65 64 55 58 58 62 63 58 55 35 28 14 24 64 27 32 88 88 11 0 0 0 0 0 0 0 0 0 0 0 0 0 0 0 0 0 0 0 0 0 0 0 0 0 0 0 0 0 0 0 0 0 0 
0 0 0 0 0 0 0 0 0 0 0 0 0 0 0 0 0 0 0 0 0 0 0 0 0 0 0 0 0 0 16 88 88 25 35 64 32 9 38 54 57 58 59 59 60 61 61 62 61 63 62 63 66 68 65 65 67 63 59 60 62 56 83 40 45 57 59 60 67 67 67 65 63 60 65 64 63 60 63 66 61 57 53 51 52 54 26 9 31 32 13 69 88 39 0 0 0 0 0 0 0 0 0 0 0 0 0 0 0 0 0 0 0 0 0 0 0 0 0 0 0 0 0 0 0 0 0 0 
0 0 0 0 0 0 0 0 0 0 0 0 0 0 0 0 0 0 0 0 0 0 0 0 0 0 0 0 0 0 47 88 61 15 36 37 12 22 47 54 60 60 59 59 61 62 61 63 63 64 64 65 66 67 66 66 67 63 60 60 58 59 65 50 55 48 54 57 63 68 67 67 64 61 63 67 65 65 64 59 55 55 66 56 59 58 61 22 8 15 16 35 88 88 0 0 0 0 0 0 0 0 0 0 0 0 0 0 0 0 0 0 0 0 0 0 0 0 0 0 0 0 0 0 0 0 0 0 
0 0 0 0 0 0 0 0 0 0 0 0 0 0 0 0 0 0 0 0 0 0 0 0 0 0 0 0 0 0 88 88 37 18 16 16 23 37 52 53 56 62 61 59 61 62 61 60 62 61 62 63 66 67 66 68 67 66 63 63 61 57 62 57 60 54 59 58 60 68 66 66 64 62 62 65 68 64 59 52 55 58 56 62 60 59 55 56 19 2 20 19 65 88 30 0 0 0 0 0 0 0 0 0 0 0 0 0 0 0 0 0 0 0 0 0 0 0 0 0 0 0 0 0 0 0 0 0 
0 0 0 0 0 0 0 0 0 0 0 0 0 0 0 0 0 0 0 0 0 0 0 0 0 0 0 0 0 39 88 36 17 16 13 18 42 46 45 55 56 59 60 60 63 61 59 63 61 61 62 64 70 65 67 68 64 62 58 59 61 46 58 57 63 64 59 59 63 68 67 68 64 61 64 68 64 57 58 56 61 62 57 48 56 62 59 54 31 4 11 9 36 88 79 0 0 0 0 0 0 0 0 0 0 0 0 0 0 0 0 0 0 0 0 0 0 0 0 0 0 0 0 0 0 0 0 0 
0 0 0 0 0 0 0 0 0 0 0 0 0 0 0 0 0 0 0 0 0 0 0 0 0 0 0 0 0 88 88 18 20 13 9 40 49 50 49 45 51 55 62 61 65 65 65 64 64 59 62 65 66 67 69 64 63 59 57 56 58 23 57 56 63 63 65 64 67 68 69 68 66 64 64 67 65 58 62 66 63 59 55 54 60 62 59 58 47 19 4 22 6 87 88 23 0 0 0 0 0 0 0 0 0 0 0 0 0 0 0 0 0 0 0 0 0 0 0 0 0 0 0 0 0 0 0 0 
0 0 0 0 0 0 0 0 0 0 0 0 0 0 0 0 0 0 0 0 0 0 0 0 0 0 0 0 30 88 49 25 29 4 25 38 46 51 54 51 44 55 58 60 65 65 65 65 63 63 63 66 68 66 69 68 59 55 50 57 58 53 45 56 60 61 63 68 66 66 68 70 68 66 64 68 65 68 68 63 59 57 55 59 60 61 63 57 59 41 18 29 11 51 88 54 0 0 0 0 0 0 0 0 0 0 0 0 0 0 0 0 0 0 0 0 0 0 0 0 0 0 0 0 0 0 0 0 
0 0 0 0 0 0 0 0 0 0 0 0 0 0 0 0 0 0 0 0 0 0 0 0 0 0 0 0 72 88 14 59 25 15 37 50 56 55 55 58 56 59 59 64 65 66 66 65 63 65 67 66 65 69 67 67 58 58 59 60 60 58 30 50 56 61 63 68 68 71 68 69 70 67 67 70 67 68 65 59 57 60 56 58 60 60 60 61 57 51 25 14 31 14 88 88 0 0 0 0 0 0 0 0 0 0 0 0 0 0 0 0 0 0 0 0 0 0 0 0 0 0 0 0 0 0 0 0 
0 0 0 0 0 0 0 0 0 0 0 0 0 0 0 0 0 0 0 0 0 0 0 0 0 0 0 0 88 84 7 66 14 31 60 54 56 58 57 58 61 62 63 66 67 66 68 64 63 66 64 66 69 68 69 68 63 63 64 66 62 57 39 52 58 60 61 68 68 69 67 71 69 70 67 69 70 68 66 63 61 63 55 57 57 53 62 61 58 57 45 13 26 4 88 88 31 0 0 0 0 0 0 0 0 0 0 0 0 0 0 0 0 0 0 0 0 0 0 0 0 0 0 0 0 0 0 0 
0 0 0 0 0 0 0 0 0 0 0 0 0 0 0 0 0 0 0 0 0 0 0 0 0 0 0 38 88 48 16 62 12 48 41 57 58 59 60 62 62 66 64 63 65 66 67 67 66 67 68 68 70 69 69 69 66 64 66 63 61 59 58 58 62 62 61 64 67 71 71 70 67 67 68 70 66 66 67 60 58 60 55 55 59 59 62 62 62 58 55 28 18 13 49 88 61 0 0 0 0 0 0 0 0 0 0 0 0 0 0 0 0 0 0 0 0 0 0 0 0 0 0 0 0 0 0 0 
0 0 0 0 0 0 0 0 0 0 0 0 0 0 0 0 0 0 0 0 0 0 0 0 0 0 0 74 88 17 33 31 14 15 51 54 60 61 63 64 63 62 63 63 64 65 66 66 65 68 67 69 69 71 69 69 69 67 63 62 61 57 53 59 62 63 62 66 69 69 72 72 68 69 69 69 66 68 66 64 63 59 59 58 63 63 61 65 59 57 56 40 18 16 26 88 88 14 0 0 0 0 0 0 0 0 0 0 0 0 0 0 0 0 0 0 0 0 0 0 0 0 0 0 0 0 0 0 
0 0 0 0 0 0 0 0 0 0 0 0 0 0 0 0 0 0 0 0 0 0 0 0 0 0 17 88 88 1 41 13 22 73 20 57 55 57 57 61 63 60 59 60 63 63 63 65 66 69 69 69 68 69 70 69 71 65 65 63 61 56 60 60 64 63 64 67 72 72 72 70 68 74 70 62 70 67 65 62 61 59 63 63 63 61 63 58 58 55 45 35 12 17 13 88 88 42 0 0 0 0 0 0 0 0 0 0 0 0 0 0 0 0 0 0 0 0 0 0 0 0 0 0 0 0 0 0 
0 0 0 0 0 0 0 0 0 0 0 0 0 0 0 0 0 0 0 0 0 0 0 0 0 0 47 88 54 12 36 13 42 31 45 42 52 54 56 55 56 55 54 60 60 63 63 66 65 68 68 69 67 70 72 69 69 67 64 63 62 54 54 59 65 62 67 69 70 72 74 71 71 68 68 69 65 67 62 63 62 63 63 60 61 63 62 58 42 37 40 36 20 17 13 46 88 71 0 0 0 0 0 0 0 0 0 0 0 0 0 0 0 0 0 0 0 0 0 0 0 0 0 0 0 0 0 0 
0 0 0 0 0 0 0 0 0 0 0 0 0 0 0 0 0 0 0 0 0 0 0 0 0 0 67 88 47 16 22 41 41 56 54 54 49 46 45 53 52 48 57 62 62 63 65 65 66 67 69 69 71 71 70 71 69 67 66 63 63 53 50 61 67 66 66 69 71 73 70 75 74 70 69 68 69 66 63 63 61 63 63 60 59 56 53 29 55 60 57 49 35 22 2 49 77 88 15 0 0 0 0 0 0 0 0 0 0 0 0 0 0 0 0 0 0 0 0 0 0 0 0 0 0 0 0 0 
0 0 0 0 0 0 0 0 0 0 0 0 0 0 0 0 0 0 0 0 0 0 0 0 0 13 88 88 15 29 14 29 56 54 58 60 54 57 56 55 51 44 53 60 61 63 64 66 66 68 69 68 71 73 71 68 71 68 67 64 63 60 52 63 65 65 65 70 70 72 75 72 73 69 70 68 67 65 61 59 62 63 65 62 61 57 38 44 57 57 57 56 47 22 7 37 88 88 36 0 0 0 0 0 0 0 0 0 0 0 0 0 0 0 0 0 0 0 0 0 0 0 0 0 0 0 0 0 
0 0 0 0 0 0 0 0 0 0 0 0 0 0 0 0 0 0 0 0 0 0 0 0 0 23 88 88 3 46 2 40 56 60 62 61 61 58 59 57 59 48 44 54 62 61 61 63 66 67 68 69 72 72 69 70 70 68 65 64 63 61 47 61 64 66 66 68 70 69 72 71 73 71 67 67 69 66 61 62 61 63 61 63 60 57 52 59 56 63 60 59 59 14 19 13 84 88 55 0 0 0 0 0 0 0 0 0 0 0 0 0 0 0 0 0 0 0 0 0 0 0 0 0 0 0 0 0 
0 0 0 0 0 0 0 0 0 0 0 0 0 0 0 0 0 0 0 0 0 0 0 0 0 49 88 69 3 47 3 43 58 58 61 64 64 64 62 63 60 58 62 43 52 58 61 63 66 66 67 71 71 72 70 69 67 68 67 64 63 59 49 63 65 64 66 68 71 71 71 72 69 70 68 68 65 69 62 63 60 63 59 58 57 56 59 62 63 61 58 58 54 14 21 8 61 88 77 0 0 0 0 0 0 0 0 0 0 0 0 0 0 0 0 0 0 0 0 0 0 0 0 0 0 0 0 0 
0 0 0 0 0 0 0 0 0 0 0 0 0 0 0 0 0 0 0 0 0 0 0 0 0 66 88 31 12 45 2 37 59 60 61 60 63 63 64 66 66 63 63 61 60 60 64 68 66 67 66 70 74 70 71 65 66 66 67 64 63 63 50 66 64 64 68 68 66 70 73 69 69 69 68 67 68 66 65 49 42 44 46 57 60 62 63 64 62 59 60 54 46 22 16 8 48 88 88 16 0 0 0 0 0 0 0 0 0 0 0 0 0 0 0 0 0 0 0 0 0 0 0 0 0 0 0 0 
0 0 0 0 0 0 0 0 0 0 0 0 0 0 0 0 0 0 0 0 0 0 0 0 16 88 88 17 29 40 16 50 48 56 62 62 62 61 63 64 65 64 66 66 66 65 67 66 67 67 70 70 69 72 71 62 62 64 67 63 67 59 53 64 64 65 68 67 64 67 71 70 71 74 69 66 68 65 65 63 62 61 63 61 64 63 68 63 60 60 46 57 55 55 7 16 34 88 88 41 0 0 0 0 0 0 0 0 0 0 0 0 0 0 0 0 0 0 0 0 0 0 0 0 0 0 0 0 
0 0 0 0 0 0 0 0 0 0 0 0 0 0 0 0 0 0 0 0 0 0 0 0 29 88 88 6 46 34 13 48 51 55 54 52 50 46 62 64 64 63 65 66 66 64 69 66 67 68 67 71 70 74 70 59 57 63 64 66 63 65 57 63 63 66 67 63 61 65 70 66 69 70 68 67 66 66 67 66 69 66 65 63 63 65 62 63 60 48 45 62 60 48 4 24 29 88 88 54 0 0 0 0 0 0 0 0 0 0 0 0 0 0 0 0 0 0 0 0 0 0 0 0 0 0 0 0 
0 0 0 0 0 0 0 0 0 0 0 0 0 0 0 0 0 0 0 0 0 0 0 0 47 88 65 6 57 13 18 54 58 59 59 63 55 39 61 61 63 63 63 63 64 65 67 68 70 68 70 69 69 75 67 55 58 61 65 64 67 68 61 61 66 67 66 64 58 60 71 73 74 76 70 67 67 68 68 67 66 68 63 66 63 63 61 59 56 36 63 63 59 50 1 34 11 67 88 69 0 0 0 0 0 0 0 0 0 0 0 0 0 0 0 0 0 0 0 0 0 0 0 0 0 0 0 0 
0 0 0 0 0 0 0 0 0 0 0 0 0 0 0 0 0 0 0 0 0 0 0 0 65 88 36 13 53 6 31 58 57 61 60 63 61 54 53 62 64 65 65 63 63 66 68 66 71 68 69 70 71 76 64 54 53 62 63 64 63 64 62 63 61 66 65 63 57 59 68 71 70 69 71 67 67 66 66 67 65 64 63 63 64 62 62 60 51 58 61 61 58 47 3 47 4 53 88 87 16 0 0 0 0 0 0 0 0 0 0 0 0 0 0 0 0 0 0 0 0 0 0 0 0 0 0 0 
0 0 0 0 0 0 0 0 0 0 0 0 0 0 0 0 0 0 0 0 0 0 0 0 88 88 20 24 48 3 49 50 62 62 62 62 63 55 50 51 60 63 63 62 65 68 66 66 67 71 70 73 71 74 63 49 51 59 63 63 63 66 61 66 63 63 62 62 56 54 63 71 70 73 70 68 65 66 67 65 63 64 64 65 63 64 52 56 55 61 62 59 60 60 0 48 8 45 88 88 32 0 0 0 0 0 0 0 0 0 0 0 0 0 0 0 0 0 0 0 0 0 0 0 0 0 0 0 
0 0 0 0 0 0 0 0 0 0 0 0 0 0 0 0 0 0 0 0 0 0 0 24 88 88 6 42 40 9 55 55 55 56 60 63 63 62 63 60 54 58 61 64 67 67 65 64 64 70 71 73 70 74 58 47 48 55 61 63 64 66 64 63 67 63 65 58 56 55 64 68 68 70 68 67 66 65 65 65 65 63 62 58 57 58 55 62 62 63 61 61 55 56 12 29 21 35 61 88 49 0 0 0 0 0 0 0 0 0 0 0 0 0 0 0 0 0 0 0 0 0 0 0 0 0 0 0 
0 0 0 0 0 0 0 0 0 0 0 0 0 0 0 0 0 0 0 0 0 0 0 35 88 62 3 63 27 22 55 58 59 59 61 63 66 64 66 63 64 66 67 63 67 67 64 65 69 66 71 71 72 68 53 43 49 51 60 62 64 65 63 62 62 63 61 59 54 50 60 67 73 70 68 66 65 63 66 69 65 62 64 60 60 60 60 64 62 64 63 59 57 57 31 7 33 21 82 88 64 0 0 0 0 0 0 0 0 0 0 0 0 0 0 0 0 0 0 0 0 0 0 0 0 0 0 0 
0 0 0 0 0 0 0 0 0 0 0 0 0 0 0 0 0 0 0 0 0 0 0 57 88 35 5 79 17 27 50 60 60 63 63 68 67 66 64 65 66 66 67 66 65 67 67 67 65 65 68 75 69 70 50 42 46 53 56 63 62 64 59 62 64 62 61 59 54 51 56 71 69 69 67 64 65 65 65 64 63 66 66 64 63 63 66 65 65 64 63 58 61 59 37 2 34 9 72 88 76 0 0 0 0 0 0 0 0 0 0 0 0 0 0 0 0 0 0 0 0 0 0 0 0 0 0 0 
0 0 0 0 0 0 0 0 0 0 0 0 0 0 0 0 0 0 0 0 0 0 0 85 88 23 18 69 15 15 44 56 60 63 65 65 64 69 65 66 65 67 66 65 69 68 67 67 67 65 71 72 69 68 46 42 46 50 59 62 62 64 62 63 63 64 61 61 53 50 54 66 70 70 66 69 67 66 65 65 63 66 64 63 65 65 64 67 66 62 61 61 60 56 39 14 19 7 54 88 88 18 0 0 0 0 0 0 0 0 0 0 0 0 0 0 0 0 0 0 0 0 0 0 0 0 0 0 
0 0 0 0 0 0 0 0 0 0 0 0 0 0 0 0 0 0 0 0 0 0 0 88 88 6 34 54 9 36 41 60 61 63 63 63 65 64 68 66 68 68 69 68 66 69 65 68 68 66 65 68 71 66 44 42 46 52 58 59 63 66 64 61 66 64 62 59 57 52 54 63 69 68 67 65 66 66 65 66 66 65 66 66 67 66 67 66 63 63 60 60 59 57 57 39 4 3 48 88 88 29 0 0 0 0 0 0 0 0 0 0 0 0 0 0 0 0 0 0 0 0 0 0 0 0 0 0 
0 0 0 0 0 0 0 0 0 0 0 0 0 0 0 0 0 0 0 0 0 0 12 88 88 0 61 29 21 33 53 58 63 59 57 54 58 63 63 66 67 68 69 69 69 69 70 68 72 70 69 69 69 67 46 42 47 54 59 65 66 61 63 60 66 67 63 60 58 55 54 65 72 68 66 67 64 66 66 68 65 66 66 67 64 68 65 63 63 61 56 61 54 60 55 55 0 1 43 88 88 44 0 0 0 0 0 0 0 0 0 0 0 0 0 0 0 0 0 0 0 0 0 0 0 0 0 0 
0 0 0 0 0 0 0 0 0 0 0 0 0 0 0 0 0 0 0 0 0 0 28 88 64 6 62 13 49 39 53 58 60 61 61 63 61 62 63 66 67 69 70 69 68 71 71 66 70 76 78 84 78 66 49 47 48 57 61 65 66 62 68 63 67 63 65 66 64 64 55 63 69 70 69 65 65 66 67 68 67 68 66 68 65 64 66 63 63 62 58 56 57 62 58 61 9 1 39 46 88 49 0 0 0 0 0 0 0 0 0 0 0 0 0 0 0 0 0 0 0 0 0 0 0 0 0 0 
0 0 0 0 0 0 0 0 0 0 0 0 0 0 0 0 0 0 0 0 0 0 55 88 43 13 55 15 19 52 49 57 63 54 55 56 60 62 62 61 65 66 67 67 71 71 73 73 78 72 63 70 81 64 51 49 57 61 66 64 66 64 70 63 65 67 67 65 65 64 62 64 73 70 66 68 68 67 66 67 68 65 69 67 66 66 65 62 61 58 60 63 61 61 61 57 18 3 27 88 88 61 0 0 0 0 0 0 0 0 0 0 0 0 0 0 0 0 0 0 0 0 0 0 0 0 0 0 
0 0 0 0 0 0 0 0 0 0 0 0 0 0 0 0 0 0 0 0 0 0 79 88 22 28 28 31 28 57 56 57 57 62 57 59 48 42 56 60 66 65 66 67 69 70 72 73 80 65 59 69 76 64 62 55 61 64 66 66 66 64 65 61 66 63 66 68 67 65 63 63 70 72 72 67 69 66 64 71 67 68 67 66 65 66 65 64 62 63 63 62 63 62 61 59 21 4 19 88 88 78 0 0 0 0 0 0 0 0 0 0 0 0 0 0 0 0 0 0 0 0 0 0 0 0 0 0 
0 0 0 0 0 0 0 0 0 0 0 0 0 0 0 0 0 0 0 0 0 0 88 88 15 34 13 32 52 55 60 61 62 58 58 60 64 49 45 58 61 63 63 68 67 69 70 71 76 84 82 79 72 67 63 62 63 67 65 70 63 64 65 64 68 64 64 65 68 69 64 67 71 69 69 71 68 69 68 69 70 65 68 67 64 64 63 64 64 65 65 63 61 64 58 58 21 7 11 81 88 70 0 0 0 0 0 0 0 0 0 0 0 0 0 0 0 0 0 0 0 0 0 0 0 0 0 0 
0 0 0 0 0 0 0 0 0 0 0 0 0 0 0 0 0 0 0 0 0 27 88 88 8 40 5 46 55 58 59 62 63 63 62 60 56 57 47 46 60 63 66 66 66 70 72 70 74 73 72 72 70 66 68 65 68 67 66 69 66 67 63 63 63 68 66 67 67 68 69 68 68 69 73 73 69 67 66 69 67 68 69 66 65 65 65 63 63 64 66 64 61 60 57 52 17 11 11 77 88 64 0 0 0 0 0 0 0 0 0 0 0 0 0 0 0 0 0 0 0 0 0 0 0 0 0 0 
0 0 0 0 0 0 0 0 0 0 0 0 0 0 0 0 0 0 0 0 0 40 88 88 4 46 5 48 58 58 63 57 61 62 60 63 64 60 60 61 61 63 65 68 66 69 71 72 72 73 73 71 70 67 71 70 69 68 68 69 69 65 58 68 65 63 68 66 68 68 69 71 72 75 73 71 73 71 72 70 67 69 68 70 67 67 66 67 65 64 65 63 61 60 60 52 9 18 6 83 88 56 0 0 0 0 0 0 0 0 0 0 0 0 0 0 0 0 0 0 0 0 0 0 0 0 0 0 
0 0 0 0 0 0 0 0 0 0 0 0 0 0 0 0 0 0 0 0 0 49 88 88 3 45 3 53 59 63 62 60 60 64 60 61 64 64 63 63 60 64 63 67 68 69 72 72 73 74 74 73 69 68 69 71 70 67 69 66 67 65 59 66 63 63 67 69 68 68 68 72 71 76 71 72 74 74 73 71 69 70 68 67 69 70 67 68 63 62 63 62 61 60 59 58 16 19 4 77 88 36 0 0 0 0 0 0 0 0 0 0 0 0 0 0 0 0 0 0 0 0 0 0 0 0 0 0 
0 0 0 0 0 0 0 0 0 0 0 0 0 0 0 0 0 0 0 0 0 55 88 88 0 44 5 54 59 62 63 63 62 62 64 65 65 63 66 69 64 66 68 67 69 71 69 70 72 71 72 71 70 68 68 71 68 69 68 68 65 65 57 63 65 66 69 69 67 70 71 72 71 72 76 73 72 71 70 69 68 66 67 69 69 66 66 59 59 56 60 56 59 58 43 14 22 12 0 78 88 29 0 0 0 0 0 0 0 0 0 0 0 0 0 0 0 0 0 0 0 0 0 0 0 0 0 0 
0 0 0 0 0 0 0 0 0 0 0 0 0 0 0 0 0 0 0 0 0 62 88 88 2 39 4 45 58 62 68 63 65 67 63 67 66 67 69 71 70 69 71 72 73 68 74 72 73 71 70 73 63 73 70 71 69 65 72 65 63 62 55 63 62 65 67 71 70 68 69 73 67 70 75 75 69 70 68 68 68 71 70 65 68 68 62 65 40 29 59 52 48 55 13 64 4 20 4 88 88 14 0 0 0 0 0 0 0 0 0 0 0 0 0 0 0 0 0 0 0 0 0 0 0 0 0 0 
0 0 0 0 0 0 0 0 0 0 0 0 0 0 0 0 0 0 0 0 0 56 88 88 5 34 7 43 59 63 66 63 65 67 66 67 67 69 71 71 69 72 70 73 71 73 73 70 72 73 74 75 71 70 71 71 69 69 72 65 66 63 56 61 62 64 66 69 70 71 71 71 72 71 74 72 70 71 70 69 69 66 68 63 68 65 61 59 56 58 56 56 55 56 57 55 9 15 0 88 88 21 0 0 0 0 0 0 0 0 0 0 0 0 0 0 0 0 0 0 0 0 0 0 0 0 0 0 
0 0 0 0 0 0 0 0 0 0 0 0 0 0 0 0 0 0 0 0 0 56 88 88 8 36 21 42 59 62 62 62 62 64 66 65 65 67 70 71 68 71 70 70 71 71 71 73 73 73 73 71 71 72 73 73 70 71 67 67 66 61 56 64 61 67 64 66 71 70 71 72 73 71 70 70 69 69 64 68 67 69 69 70 68 69 65 65 64 63 63 63 63 60 56 56 8 16 0 88 88 22 0 0 0 0 0 0 0 0 0 0 0 0 0 0 0 0 0 0 0 0 0 0 0 0 0 0 
0 0 0 0 0 0 0 0 0 0 0 0 0 0 0 0 0 0 0 0 0 51 88 88 22 19 24 23 61 61 59 60 63 63 63 60 63 63 65 68 70 71 71 73 72 71 70 72 76 72 75 74 72 74 72 72 69 70 68 68 69 60 58 57 63 67 62 64 68 67 69 71 71 73 70 70 69 65 64 65 68 69 69 68 67 68 67 68 65 67 64 59 61 62 56 56 4 15 1 88 88 24 0 0 0 0 0 0 0 0 0 0 0 0 0 0 0 0 0 0 0 0 0 0 0 0 0 0 
0 0 0 0 0 0 0 0 0 0 0 0 0 0 0 0 0 0 0 0 0 40 88 88 33 18 54 13 59 59 62 60 60 58 54 55 57 59 63 71 70 69 70 72 73 72 71 70 71 73 74 71 73 70 70 72 70 67 64 63 65 61 58 61 62 64 62 66 65 71 70 72 72 71 68 70 66 66 66 68 67 67 67 69 70 63 61 62 61 61 60 58 58 60 55 51 5 13 5 88 88 38 0 0 0 0 0 0 0 0 0 0 0 0 0 0 0 0 0 0 0 0 0 0 0 0 0 0 
0 0 0 0 0 0 0 0 0 0 0 0 0 0 0 0 0 0 0 0 0 28 88 88 60 6 64 4 52 59 58 45 58 60 61 63 63 62 63 72 70 70 73 73 71 72 71 73 71 72 73 72 72 72 71 71 68 67 66 64 64 65 56 60 62 63 63 63 64 67 71 72 71 69 70 69 68 70 66 67 69 67 68 68 64 61 56 54 58 58 60 56 58 59 55 35 13 13 20 88 88 38 0 0 0 0 0 0 0 0 0 0 0 0 0 0 0 0 0 0 0 0 0 0 0 0 0 0 
0 0 0 0 0 0 0 0 0 0 0 0 0 0 0 0 0 0 0 0 0 14 88 88 88 0 67 22 31 55 61 40 62 63 66 64 65 68 70 69 70 71 75 71 76 75 73 73 72 71 72 74 72 72 71 71 66 66 66 65 63 65 53 66 62 63 61 63 65 64 72 72 72 69 68 71 68 67 69 69 67 72 67 68 66 62 61 56 49 56 57 57 57 54 46 27 22 16 39 88 88 38 0 0 0 0 0 0 0 0 0 0 0 0 0 0 0 0 0 0 0 0 0 0 0 0 0 0 
0 0 0 0 0 0 0 0 0 0 0 0 0 0 0 0 0 0 0 0 0 0 73 88 88 3 49 59 18 53 61 63 63 62 63 64 65 67 71 70 70 71 71 67 65 73 72 72 73 72 73 71 75 73 72 71 67 66 68 66 64 63 50 58 59 65 62 63 64 70 73 72 72 70 68 68 65 67 68 69 69 70 69 67 65 63 60 60 59 53 56 57 59 55 40 13 30 9 59 88 88 33 0 0 0 0 0 0 0 0 0 0 0 0 0 0 0 0 0 0 0 0 0 0 0 0 0 0 
0 0 0 0 0 0 0 0 0 0 0 0 0 0 0 0 0 0 0 0 0 0 51 88 88 27 20 76 6 51 62 63 63 61 62 63 62 66 65 70 68 70 71 69 71 74 70 72 72 73 74 74 74 72 73 72 68 69 65 66 66 62 58 62 63 64 67 68 67 72 71 73 71 70 70 68 67 65 68 69 69 70 67 68 66 62 59 61 59 57 57 55 53 51 36 13 43 0 88 88 83 24 0 0 0 0 0 0 0 0 0 0 0 0 0 0 0 0 0 0 0 0 0 0 0 0 0 0 
0 0 0 0 0 0 0 0 0 0 0 0 0 0 0 0 0 0 0 0 0 0 28 88 88 63 9 84 22 36 57 60 60 57 59 61 61 63 64 67 70 70 67 68 71 71 72 70 72 73 71 74 74 74 74 72 68 65 64 61 64 62 57 63 65 66 65 64 66 68 70 71 70 71 68 68 65 65 68 70 69 68 67 71 68 63 63 61 62 62 57 53 54 53 23 30 35 13 88 88 83 14 0 0 0 0 0 0 0 0 0 0 0 0 0 0 0 0 0 0 0 0 0 0 0 0 0 0 
0 0 0 0 0 0 0 0 0 0 0 0 0 0 0 0 0 0 0 0 0 0 0 82 88 88 0 67 41 18 47 53 57 62 61 59 60 62 65 69 67 66 64 66 70 74 69 65 71 73 72 73 72 71 72 73 70 66 67 62 61 58 48 66 60 62 59 58 61 67 69 71 71 69 68 65 65 67 70 70 68 59 63 63 64 69 64 64 63 61 59 58 58 58 5 45 21 27 88 88 59 0 0 0 0 0 0 0 0 0 0 0 0 0 0 0 0 0 0 0 0 0 0 0 0 0 0 0 
0 0 0 0 0 0 0 0 0 0 0 0 0 0 0 0 0 0 0 0 0 0 0 54 88 88 16 29 69 14 41 54 61 63 63 61 63 65 69 67 64 57 59 65 68 72 71 69 75 71 74 74 71 72 68 65 67 69 62 63 60 64 39 34 53 60 61 63 62 67 69 71 72 67 66 66 65 68 68 68 63 56 43 50 60 61 63 63 63 60 62 59 62 25 17 69 3 85 88 88 48 0 0 0 0 0 0 0 0 0 0 0 0 0 0 0 0 0 0 0 0 0 0 0 0 0 0 0 
0 0 0 0 0 0 0 0 0 0 0 0 0 0 0 0 0 0 0 0 0 0 0 23 84 88 75 13 79 30 16 62 55 57 63 65 66 67 64 64 56 54 61 64 66 71 75 71 70 74 72 71 68 67 61 62 64 68 70 67 65 63 54 63 64 63 64 63 69 69 70 71 70 68 67 63 65 70 70 68 62 52 48 46 52 60 60 60 60 63 61 57 57 7 39 56 0 68 88 88 25 0 0 0 0 0 0 0 0 0 0 0 0 0 0 0 0 0 0 0 0 0 0 0 0 0 0 0 
0 0 0 0 0 0 0 0 0 0 0 0 0 0 0 0 0 0 0 0 0 0 0 0 73 88 31 0 53 60 6 45 59 62 64 65 64 62 53 48 54 62 63 62 65 70 74 68 69 70 66 69 71 66 63 63 59 63 70 69 65 60 53 63 65 67 67 67 68 71 70 69 70 68 65 63 65 67 69 68 63 60 56 59 56 57 56 57 57 55 62 58 48 3 54 33 17 88 88 74 0 0 0 0 0 0 0 0 0 0 0 0 0 0 0 0 0 0 0 0 0 0 0 0 0 0 0 0 
0 0 0 0 0 0 0 0 0 0 0 0 0 0 0 0 0 0 0 0 0 0 0 0 47 88 88 20 20 71 9 22 55 59 63 56 61 60 44 54 63 63 57 57 63 70 75 73 73 68 65 69 67 65 68 60 61 64 65 68 64 64 59 62 67 64 66 65 66 70 69 68 69 68 66 67 64 64 68 68 67 63 59 63 62 59 55 58 55 55 57 54 27 22 70 11 58 88 88 58 0 0 0 0 0 0 0 0 0 0 0 0 0 0 0 0 0 0 0 0 0 0 0 0 0 0 0 0 
0 0 0 0 0 0 0 0 0 0 0 0 0 0 0 0 0 0 0 0 0 0 0 0 16 86 88 88 0 66 40 15 47 59 59 60 60 47 57 61 62 55 49 55 67 73 74 67 67 66 65 67 68 65 66 63 48 40 67 64 62 62 59 62 63 63 63 63 63 63 65 69 69 66 69 66 63 64 65 69 71 68 64 63 63 59 62 62 59 52 53 50 13 39 54 0 88 88 88 32 0 0 0 0 0 0 0 0 0 0 0 0 0 0 0 0 0 0 0 0 0 0 0 0 0 0 0 0 
0 0 0 0 0 0 0 0 0 0 0 0 0 0 0 0 0 0 0 0 0 0 0 0 0 66 88 88 0 31 59 13 44 52 57 59 55 56 63 60 63 49 59 64 70 72 69 63 64 63 65 68 67 64 66 65 46 43 59 63 62 54 62 61 59 58 61 63 62 65 67 68 67 67 68 67 64 66 61 65 67 66 67 66 64 63 63 60 61 60 47 25 9 65 21 17 88 88 72 11 0 0 0 0 0 0 0 0 0 0 0 0 0 0 0 0 0 0 0 0 0 0 0 0 0 0 0 0 
0 0 0 0 0 0 0 0 0 0 0 0 0 0 0 0 0 0 0 0 0 0 0 0 0 47 88 88 49 9 71 14 33 52 56 55 52 60 62 64 57 56 63 69 70 70 64 63 64 65 64 66 67 67 64 67 56 48 54 60 64 51 34 60 58 56 54 54 57 61 62 69 67 63 65 67 68 66 63 66 65 69 67 69 65 64 62 61 63 59 49 21 27 53 5 70 88 88 50 0 0 0 0 0 0 0 0 0 0 0 0 0 0 0 0 0 0 0 0 0 0 0 0 0 0 0 0 0 
0 0 0 0 0 0 0 0 0 0 0 0 0 0 0 0 0 0 0 0 0 0 0 0 0 15 88 88 88 0 38 49 15 45 49 59 61 60 65 64 61 63 68 72 72 68 64 58 66 65 66 64 68 67 63 63 63 57 59 60 58 61 49 58 64 55 58 62 59 60 63 65 63 63 65 66 67 67 64 63 65 63 62 62 61 58 57 60 58 52 39 15 45 31 0 88 88 80 22 0 0 0 0 0 0 0 0 0 0 0 0 0 0 0 0 0 0 0 0 0 0 0 0 0 0 0 0 0 
0 0 0 0 0 0 0 0 0 0 0 0 0 0 0 0 0 0 0 0 0 0 0 0 0 0 66 88 88 39 6 61 21 23 65 65 48 63 63 64 65 69 71 73 72 67 59 59 63 65 64 66 66 67 53 58 60 58 64 67 63 63 45 63 63 63 58 63 61 54 59 64 63 63 59 65 67 67 67 65 63 63 61 58 58 58 57 55 51 46 27 22 51 5 31 88 88 63 0 0 0 0 0 0 0 0 0 0 0 0 0 0 0 0 0 0 0 0 0 0 0 0 0 0 0 0 0 0 
0 0 0 0 0 0 0 0 0 0 0 0 0 0 0 0 0 0 0 0 0 0 0 0 0 0 43 88 88 88 0 32 61 14 30 44 51 63 60 64 68 69 67 72 70 65 59 62 63 64 65 67 66 61 49 46 61 62 66 66 66 59 65 56 63 64 63 62 59 51 63 66 64 62 60 61 63 67 65 63 58 60 57 58 58 61 56 56 58 34 16 43 34 0 88 88 88 38 0 0 0 0 0 0 0 0 0 0 0 0 0 0 0 0 0 0 0 0 0 0 0 0 0 0 0 0 0 0 
0 0 0 0 0 0 0 0 0 0 0 0 0 0 0 0 0 0 0 0 0 0 0 0 0 0 19 87 88 88 61 5 58 37 16 35 61 61 66 68 65 61 64 67 68 65 61 63 63 66 64 67 68 65 51 51 66 66 66 67 63 54 68 64 64 63 62 61 56 57 63 65 63 63 60 59 65 67 64 62 64 60 60 56 61 53 52 55 45 17 23 46 6 32 88 88 75 20 0 0 0 0 0 0 0 0 0 0 0 0 0 0 0 0 0 0 0 0 0 0 0 0 0 0 0 0 0 0 
0 0 0 0 0 0 0 0 0 0 0 0 0 0 0 0 0 0 0 0 0 0 0 0 0 0 0 61 88 88 88 8 12 60 15 25 63 59 68 65 63 56 60 67 65 64 64 61 60 63 67 68 67 64 65 68 65 66 64 65 63 50 60 59 63 64 62 61 51 64 63 66 66 63 59 58 58 67 63 59 61 60 57 61 60 56 57 53 18 23 55 22 0 88 88 88 53 0 0 0 0 0 0 0 0 0 0 0 0 0 0 0 0 0 0 0 0 0 0 0 0 0 0 0 0 0 0 0 
0 0 0 0 0 0 0 0 0 0 0 0 0 0 0 0 0 0 0 0 0 0 0 0 0 0 0 24 86 88 88 88 0 44 53 7 49 65 61 62 55 40 63 65 65 63 63 62 61 67 67 69 66 67 63 65 65 65 62 61 60 46 63 65 63 64 60 56 64 64 66 64 64 59 56 58 62 63 66 60 60 62 57 58 54 55 59 25 21 45 42 0 75 88 86 60 0 0 0 0 0 0 0 0 0 0 0 0 0 0 0 0 0 0 0 0 0 0 0 0 0 0 0 0 0 0 0 0 
0 0 0 0 0 0 0 0 0 0 0 0 0 0 0 0 0 0 0 0 0 0 0 0 0 0 0 0 61 88 88 88 56 0 49 40 12 53 62 53 47 51 61 61 63 62 60 57 64 63 65 67 66 67 66 65 70 63 63 61 51 55 62 63 65 63 63 63 64 63 66 64 60 58 59 63 63 63 62 58 58 59 59 54 53 54 51 15 41 52 5 48 88 88 79 20 0 0 0 0 0 0 0 0 0 0 0 0 0 0 0 0 0 0 0 0 0 0 0 0 0 0 0 0 0 0 0 0 
0 0 0 0 0 0 0 0 0 0 0 0 0 0 0 0 0 0 0 0 0 0 0 0 0 0 0 0 25 88 88 88 88 31 6 63 33 23 43 41 50 42 56 61 63 59 58 61 61 64 65 68 67 66 64 68 64 64 64 65 61 47 61 63 64 67 64 65 63 63 63 65 52 58 62 61 63 63 63 61 59 62 61 51 39 54 11 33 48 16 0 88 88 88 47 0 0 0 0 0 0 0 0 0 0 0 0 0 0 0 0 0 0 0 0 0 0 0 0 0 0 0 0 0 0 0 0 0 
0 0 0 0 0 0 0 0 0 0 0 0 0 0 0 0 0 0 0 0 0 0 0 0 0 0 0 0 0 55 88 88 88 88 0 16 68 27 27 51 41 39 53 61 60 60 63 63 62 65 65 66 67 67 68 69 66 66 63 62 49 58 61 65 63 66 66 63 61 58 63 63 51 59 62 59 61 61 61 62 61 58 61 37 49 17 14 44 21 27 88 88 88 86 22 0 0 0 0 0 0 0 0 0 0 0 0 0 0 0 0 0 0 0 0 0 0 0 0 0 0 0 0 0 0 0 0 0 
0 0 0 0 0 0 0 0 0 0 0 0 0 0 0 0 0 0 0 0 0 0 0 0 0 0 0 0 0 0 68 88 88 88 88 6 27 70 32 22 47 40 56 63 66 63 64 67 62 64 65 67 64 63 64 67 66 66 60 61 45 62 59 63 65 63 61 62 57 55 61 55 61 52 56 59 58 58 61 58 58 57 50 45 28 22 22 29 0 88 88 88 88 69 0 0 0 0 0 0 0 0 0 0 0 0 0 0 0 0 0 0 0 0 0 0 0 0 0 0 0 0 0 0 0 0 0 0 
0 0 0 0 0 0 0 0 0 0 0 0 0 0 0 0 0 0 0 0 0 0 0 0 0 0 0 0 0 0 18 77 88 88 88 88 0 32 63 35 12 64 60 65 63 65 64 66 67 66 64 66 66 62 63 64 65 62 65 63 54 63 63 66 61 53 57 56 60 62 61 52 54 54 57 55 56 50 56 59 48 56 40 49 24 16 19 3 84 88 88 82 82 34 0 0 0 0 0 0 0 0 0 0 0 0 0 0 0 0 0 0 0 0 0 0 0 0 0 0 0 0 0 0 0 0 0 0 
0 0 0 0 0 0 0 0 0 0 0 0 0 0 0 0 0 0 0 0 0 0 0 0 0 0 0 0 0 0 0 18 72 88 86 88 88 0 39 64 50 21 61 61 62 62 63 64 63 64 65 61 63 61 61 63 67 66 63 63 58 65 64 66 59 60 63 63 63 63 63 44 44 53 58 61 58 63 57 60 51 55 52 34 36 12 20 88 88 88 78 88 55 0 0 0 0 0 0 0 0 0 0 0 0 0 0 0 0 0 0 0 0 0 0 0 0 0 0 0 0 0 0 0 0 0 0 0 
0 0 0 0 0 0 0 0 0 0 0 0 0 0 0 0 0 0 0 0 0 0 0 0 0 0 0 0 0 0 0 0 16 69 88 88 88 84 9 38 56 39 19 57 62 62 64 63 60 62 62 57 57 62 62 62 65 67 64 58 59 62 60 62 60 58 62 65 63 63 62 60 57 55 50 59 61 63 61 71 82 50 43 39 31 6 87 88 88 84 88 66 17 0 0 0 0 0 0 0 0 0 0 0 0 0 0 0 0 0 0 0 0 0 0 0 0 0 0 0 0 0 0 0 0 0 0 0 
0 0 0 0 0 0 0 0 0 0 0 0 0 0 0 0 0 0 0 0 0 0 0 0 0 0 0 0 0 0 0 0 0 11 66 88 83 88 88 5 9 48 48 26 59 59 63 64 64 63 63 62 62 64 60 57 62 62 63 62 54 58 58 57 60 59 66 62 63 63 65 65 63 62 58 51 60 59 56 41 52 35 34 28 8 61 88 88 84 88 63 23 0 0 0 0 0 0 0 0 0 0 0 0 0 0 0 0 0 0 0 0 0 0 0 0 0 0 0 0 0 0 0 0 0 0 0 0 
0 0 0 0 0 0 0 0 0 0 0 0 0 0 0 0 0 0 0 0 0 0 0 0 0 0 0 0 0 0 0 0 0 0 0 66 85 88 88 88 24 36 30 28 9 45 54 64 62 63 65 65 66 65 63 63 59 61 56 44 66 57 57 67 60 65 58 61 63 64 64 62 63 62 60 52 55 58 44 36 22 31 24 11 77 88 88 78 80 54 15 0 0 0 0 0 0 0 0 0 0 0 0 0 0 0 0 0 0 0 0 0 0 0 0 0 0 0 0 0 0 0 0 0 0 0 0 0 
0 0 0 0 0 0 0 0 0 0 0 0 0 0 0 0 0 0 0 0 0 0 0 0 0 0 0 0 0 0 0 0 0 0 0 0 66 80 79 88 88 41 29 46 54 22 38 49 57 56 57 61 66 64 61 61 62 45 8 88 88 56 58 65 66 59 58 61 67 65 62 55 52 70 54 53 56 48 23 16 16 18 14 87 88 88 78 78 57 14 0 0 0 0 0 0 0 0 0 0 0 0 0 0 0 0 0 0 0 0 0 0 0 0 0 0 0 0 0 0 0 0 0 0 0 0 0 0 
0 0 0 0 0 0 0 0 0 0 0 0 0 0 0 0 0 0 0 0 0 0 0 0 0 0 0 0 0 0 0 0 0 0 0 0 16 63 76 66 88 88 27 30 30 29 30 44 39 53 57 53 58 60 59 65 69 19 45 82 86 57 25 66 60 57 64 66 60 64 63 66 71 62 42 37 27 20 26 25 28 34 88 88 79 83 74 42 14 0 0 0 0 0 0 0 0 0 0 0 0 0 0 0 0 0 0 0 0 0 0 0 0 0 0 0 0 0 0 0 0 0 0 0 0 0 0 0 
0 0 0 0 0 0 0 0 0 0 0 0 0 0 0 0 0 0 0 0 0 0 0 0 0 0 0 0 0 0 0 0 0 0 0 0 0 0 49 79 63 88 88 68 16 39 34 40 21 31 38 41 44 49 36 48 50 43 61 83 88 86 50 56 48 53 63 55 58 58 32 31 17 24 21 21 39 21 28 15 64 88 88 71 74 67 19 0 0 0 0 0 0 0 0 0 0 0 0 0 0 0 0 0 0 0 0 0 0 0 0 0 0 0 0 0 0 0 0 0 0 0 0 0 0 0 0 0 
0 0 0 0 0 0 0 0 0 0 0 0 0 0 0 0 0 0 0 0 0 0 0 0 0 0 0 0 0 0 0 0 0 0 0 0 0 0 0 35 75 68 85 88 88 78 33 19 32 43 48 44 47 50 55 66 59 59 59 81 77 49 59 52 45 40 47 41 41 37 31 36 41 46 44 26 14 23 33 81 88 88 65 73 54 12 0 0 0 0 0 0 0 0 0 0 0 0 0 0 0 0 0 0 0 0 0 0 0 0 0 0 0 0 0 0 0 0 0 0 0 0 0 0 0 0 0 0 
0 0 0 0 0 0 0 0 0 0 0 0 0 0 0 0 0 0 0 0 0 0 0 0 0 0 0 0 0 0 0 0 0 0 0 0 0 0 0 0 19 54 76 64 88 88 88 51 30 24 34 43 43 55 57 53 65 70 66 70 73 68 72 72 65 61 52 55 51 55 46 41 40 39 17 29 37 67 88 88 78 68 68 38 0 0 0 0 0 0 0 0 0 0 0 0 0 0 0 0 0 0 0 0 0 0 0 0 0 0 0 0 0 0 0 0 0 0 0 0 0 0 0 0 0 0 0 0 
0 0 0 0 0 0 0 0 0 0 0 0 0 0 0 0 0 0 0 0 0 0 0 0 0 0 0 0 0 0 0 0 0 0 0 0 0 0 0 0 0 0 42 68 64 76 88 88 88 62 36 29 21 26 28 32 40 38 47 46 47 45 45 53 50 46 46 47 40 34 32 29 21 27 52 85 88 88 62 61 63 54 22 0 0 0 0 0 0 0 0 0 0 0 0 0 0 0 0 0 0 0 0 0 0 0 0 0 0 0 0 0 0 0 0 0 0 0 0 0 0 0 0 0 0 0 0 0 
0 0 0 0 0 0 0 0 0 0 0 0 0 0 0 0 0 0 0 0 0 0 0 0 0 0 0 0 0 0 0 0 0 0 0 0 0 0 0 0 0 0 0 18 59 72 58 58 78 79 70 70 88 87 64 57 55 63 67 70 69 64 59 54 57 50 36 43 42 45 57 60 86 88 88 82 62 59 64 51 28 0 0 0 0 0 0 0 0 0 0 0 0 0 0 0 0 0 0 0 0 0 0 0 0 0 0 0 0 0 0 0 0 0 0 0 0 0 0 0 0 0 0 0 0 0 0 0 
0 0 0 0 0 0 0 0 0 0 0 0 0 0 0 0 0 0 0 0 0 0 0 0 0 0 0 0 0 0 0 0 0 0 0 0 0 0 0 0 0 0 0 0 0 21 50 65 57 57 56 62 65 77 88 88 88 88 88 88 88 88 88 88 88 88 88 88 88 88 88 79 70 56 55 54 60 41 17 0 0 0 0 0 0 0 0 0 0 0 0 0 0 0 0 0 0 0 0 0 0 0 0 0 0 0 0 0 0 0 0 0 0 0 0 0 0 0 0 0 0 0 0 0 0 0 0 0 
0 0 0 0 0 0 0 0 0 0 0 0 0 0 0 0 0 0 0 0 0 0 0 0 0 0 0 0 0 0 0 0 0 0 0 0 0 0 0 0 0 0 0 0 0 0 0 13 29 37 42 46 52 56 53 58 64 58 56 59 54 56 60 55 54 56 51 53 51 52 52 53 55 54 41 25 0 0 0 0 0 0 0 0 0 0 0 0 0 0 0 0 0 0 0 0 0 0 0 0 0 0 0 0 0 0 0 0 0 0 0 0 0 0 0 0 0 0 0 0 0 0 0 0 0 0 0 0 
0 0 0 0 0 0 0 0 0 0 0 0 0 0 0 0 0 0 0 0 0 0 0 0 0 0 0 0 0 0 0 0 0 0 0 0 0 0 0 0 0 0 0 0 0 0 0 0 0 0 0 0 13 28 46 54 64 65 65 67 62 64 63 61 63 54 52 49 50 46 41 30 19 0 0 0 0 0 0 0 0 0 0 0 0 0 0 0 0 0 0 0 0 0 0 0 0 0 0 0 0 0 0 0 0 0 0 0 0 0 0 0 0 0 0 0 0 0 0 0 0 0 0 0 0 0 0 0 
0 0 0 0 0 0 0 0 0 0 0 0 0 0 0 0 0 0 0 0 0 0 0 0 0 0 0 0 0 0 0 0 0 0 0 0 0 0 0 0 0 0 0 0 0 0 0 0 0 0 0 0 0 0 0 11 17 16 13 15 12 11 12 14 0 0 0 0 0 0 0 0 0 0 0 0 0 0 0 0 0 0 0 0 0 0 0 0 0 0 0 0 0 0 0 0 0 0 0 0 0 0 0 0 0 0 0 0 0 0 0 0 0 0 0 0 0 0 0 0 0 0 0 0 0 0 0 0 
0 0 0 0 0 0 0 0 0 0 0 0 0 0 0 0 0 0 0 0 0 0 0 0 0 0 0 0 0 0 0 0 0 0 0 0 0 0 0 0 0 0 0 0 0 0 0 0 0 0 0 0 0 0 0 0 0 0 0 0 0 0 0 0 0 0 0 0 0 0 0 0 0 0 0 0 0 0 0 0 0 0 0 0 0 0 0 0 0 0 0 0 0 0 0 0 0 0 0 0 0 0 0 0 0 0 0 0 0 0 0 0 0 0 0 0 0 0 0 0 0 0 0 0 0 0 0 0 
0 0 0 0 0 0 0 0 0 0 0 0 0 0 0 0 0 0 0 0 0 0 0 0 0 0 0 0 0 0 0 0 0 0 0 0 0 0 0 0 0 0 0 0 0 0 0 0 0 0 0 0 0 0 0 0 0 0 0 0 0 0 0 0 0 0 0 0 0 0 0 0 0 0 0 0 0 0 0 0 0 0 0 0 0 0 0 0 0 0 0 0 0 0 0 0 0 0 0 0 0 0 0 0 0 0 0 0 0 0 0 0 0 0 0 0 0 0 0 0 0 0 0 0 0 0 0 0 
0 0 0 0 0 0 0 0 0 0 0 0 0 0 0 0 0 0 0 0 0 0 0 0 0 0 0 0 0 0 0 0 0 0 0 0 0 0 0 0 0 0 0 0 0 0 0 0 0 0 0 0 0 0 0 0 0 0 0 0 0 0 0 0 0 0 0 0 0 0 0 0 0 0 0 0 0 0 0 0 0 0 0 0 0 0 0 0 0 0 0 0 0 0 0 0 0 0 0 0 0 0 0 0 0 0 0 0 0 0 0 0 0 0 0 0 0 0 0 0 0 0 0 0 0 0 0 0 
0 0 0 0 0 0 0 0 0 0 0 0 0 0 0 0 0 0 0 0 0 0 0 0 0 0 0 0 0 0 0 0 0 0 0 0 0 0 0 0 0 0 0 0 0 0 0 0 0 0 0 0 0 0 0 0 0 0 0 0 0 0 0 0 0 0 0 0 0 0 0 0 0 0 0 0 0 0 0 0 0 0 0 0 0 0 0 0 0 0 0 0 0 0 0 0 0 0 0 0 0 0 0 0 0 0 0 0 0 0 0 0 0 0 0 0 0 0 0 0 0 0 0 0 0 0 0 0 
