P2
128 128
88
0 0 0 0 0 0 0 0 0 0 0 0 0 0 0 0 0 0 0 0 0 0 0 0 0 0 0 0 0 0 0 0 0 0 0 0 0 0 0 0 0 0 0 0 0 0 0 0 0 0 0 0 0 0 0 0 0 0 0 0 0 0 0 0 0 0 0 0 0 0 0 0 0 0 0 0 0 0 0 0 0 0 0 0 0 0 0 0 0 0 0 0 0 0 0 0 0 0 0 0 0 0 0 0 0 0 0 0 0 0 0 0 0 0 0 0 0 0 0 0 0 0 0 0 0 0 0 0 
0 0 0 0 0 0 0 0 0 0 0 0 0 0 0 0 0 0 0 0 0 0 0 0 0 0 0 0 0 0 0 0 0 0 0 0 0 0 0 0 0 0 0 0 0 0 0 0 0 0 0 0 0 0 0 0 0 0 0 0 0 0 0 0 0 0 0 0 0 0 0 0 0 0 0 0 0 0 0 0 0 0 0 0 0 0 0 0 0 0 0 0 0 0 0 0 0 0 0 0 0 0 0 0 0 0 0 0 0 0 0 0 0 0 0 0 0 0 0 0 0 0 0 0 0 0 0 0 
0 0 0 0 0 0 0 0 0 0 0 0 0 0 0 0 0 0 0 0 0 0 0 0 0 0 0 0 0 0 0 0 0 0 0 0 0 0 0 0 0 0 0 0 0 0 0 0 0 0 0 0 0 0 0 0 0 0 0 0 0 0 0 0 0 0 0 0 0 0 0 0 0 0 0 0 0 0 0 0 0 0 0 0 0 0 0 0 0 0 0 0 0 0 0 0 0 0 0 0 0 0 0 0 0 0 0 0 0 0 0 0 0 0 0 0 0 0 0 0 0 0 0 0 0 0 0 0 
0 0 0 0 0 0 0 0 0 0 0 0 0 0 0 0 0 0 0 0 0 0 0 0 0 0 0 0 0 0 0 0 0 0 0 0 0 0 0 0 0 0 0 0 0 0 0 0 0 0 0 0 0 0 0 0 0 0 0 0 0 0 0 0 0 0 0 0 0 0 0 0 0 0 0 0 0 0 0 0 0 0 0 0 0 0 0 0 0 0 0 0 0 0 0 0 0 0 0 0 0 0 0 0 0 0 0 0 0 0 0 0 0 0 0 0 0 0 0 0 0 0 0 0 0 0 0 0 
0 0 0 0 0 0 0 0 0 0 0 0 0 0 0 0 0 0 0 0 0 0 0 0 0 0 0 0 0 0 0 0 0 0 0 0 0 0 0 0 0 0 0 0 0 0 0 0 0 0 0 0 0 0 0 0 0 0 0 0 0 0 0 0 0 0 0 0 0 0 0 0 0 0 0 0 0 0 0 0 0 0 0 0 0 0 0 0 0 0 0 0 0 0 0 0 0 0 0 0 0 0 0 0 0 0 0 0 0 0 0 0 0 0 0 0 0 0 0 0 0 0 0 0 0 0 0 0 
0 0 0 0 0 0 0 0 0 0 0 0 0 0 0 0 0 0 0 0 0 0 0 0 0 0 0 0 0 0 0 0 0 0 0 0 0 0 0 0 0 0 0 0 0 0 0 0 0 0 0 0 0 0 0 0 0 0 0 0 0 0 0 0 0 0 0 0 0 0 0 0 0 0 0 0 0 0 0 0 0 0 0 0 0 0 0 0 0 0 0 0 0 0 0 0 0 0 0 0 0 0 0 0 0 0 0 0 0 0 0 0 0 0 0 0 0 0 0 0 0 0 0 0 0 0 0 0 
0 0 0 0 0 0 0 0 0 0 0 0 0 0 0 0 0 0 0 0 0 0 0 0 0 0 0 0 0 0 0 0 0 0 0 0 0 0 0 0 0 0 0 0 0 0 0 0 0 0 0 0 0 0 0 0 0 0 0 0 0 0 0 0 0 0 0 0 0 0 0 0 0 0 0 0 0 0 0 0 0 0 0 0 0 0 0 0 0 0 0 0 0 0 0 0 0 0 0 0 0 0 0 0 0 0 0 0 0 0 0 0 0 0 0 0 0 0 0 0 0 0 0 0 0 0 0 0 
0 0 0 0 0 0 0 0 0 0 0 0 0 0 0 0 0 0 0 0 0 0 0 0 0 0 0 0 0 0 0 0 0 0 0 0 0 0 0 0 0 0 0 0 0 0 0 0 0 0 0 0 0 0 0 0 0 0 0 0 0 0 0 0 0 0 0 0 0 0 0 0 0 0 0 0 0 0 0 0 0 0 0 0 0 0 0 0 0 0 0 0 0 0 0 0 0 0 0 0 0 0 0 0 0 0 0 0 0 0 0 0 0 0 0 0 0 0 0 0 0 0 0 0 0 0 0 0 
0 0 0 0 0 0 0 0 0 0 0 0 0 0 0 0 0 0 0 0 0 0 0 0 0 0 0 0 0 0 0 0 0 0 0 0 0 0 0 0 0 0 0 0 0 0 0 0 0 0 0 0 0 0 0 0 0 0 0 0 0 0 0 0 0 0 0 0 0 0 0 0 0 0 0 0 0 0 0 0 0 0 0 0 0 0 0 0 0 0 0 0 0 0 0 0 0 0 0 0 0 0 0 0 0 0 0 0 0 0 0 0 0 0 0 0 0 0 0 0 0 0 0 0 0 0 0 0 
0 0 0 0 0 0 0 0 0 0 0 0 0 0 0 0 0 0 0 0 0 0 0 0 0 0 0 0 0 0 0 0 0 0 0 0 0 0 0 0 0 0 0 0 0 0 0 0 0 0 0 0 0 0 0 0 0 0 0 0 0 0 0 0 0 0 0 0 0 0 0 0 0 0 0 0 0 0 0 0 0 0 0 0 0 0 0 0 0 0 0 0 0 0 0 0 0 0 0 0 0 0 0 0 0 0 0 0 0 0 0 0 0 0 0 0 0 0 0 0 0 0 0 0 0 0 0 0 
0 0 0 0 0 0 0 0 0 0 0 0 0 0 0 0 0 0 0 0 0 0 0 0 0 0 0 0 0 0 0 0 0 0 0 0 0 0 0 0 0 0 0 0 0 0 0 0 0 0 0 0 0 0 0 0 0 0 0 0 0 0 0 0 0 0 0 0 0 0 0 0 0 0 0 0 0 0 0 0 0 0 0 0 0 0 0 0 0 0 0 0 0 0 0 0 0 0 0 0 0 0 0 0 0 0 0 0 0 0 0 0 0 0 0 0 0 0 0 0 0 0 0 0 0 0 0 0 
0 0 0 0 0 0 0 0 0 0 0 0 0 0 0 0 0 0 0 0 0 0 0 0 0 0 0 0 0 0 0 0 0 0 0 0 0 0 0 0 0 0 0 0 0 0 0 0 0 0 0 0 0 0 0 0 0 0 0 0 0 0 0 0 0 0 0 0 0 0 0 0 0 0 0 0 0 0 0 0 0 0 0 0 0 0 0 0 0 0 0 0 0 0 0 0 0 0 0 0 0 0 0 0 0 0 0 0 0 0 0 0 0 0 0 0 0 0 0 0 0 0 0 0 0 0 0 0 
0 0 0 0 0 0 0 0 0 0 0 0 0 0 0 0 0 0 0 0 0 0 0 0 0 0 0 0 0 0 0 0 0 0 0 0 0 0 0 0 0 0 0 0 0 0 0 0 0 0 0 0 0 0 0 0 0 0 0 0 0 0 0 0 0 0 0 0 0 0 0 0 0 0 0 0 0 0 0 0 0 0 0 0 0 0 0 0 0 0 0 0 0 0 0 0 0 0 0 0 0 0 0 0 0 0 0 0 0 0 0 0 0 0 0 0 0 0 0 0 0 0 0 0 0 0 0 0 
0 0 0 0 0 0 0 0 0 0 0 0 0 0 0 0 0 0 0 0 0 0 0 0 0 0 0 0 0 0 0 0 0 0 0 0 0 0 0 0 0 0 0 0 0 0 0 0 0 0 0 0 0 0 0 0 0 0 0 0 0 0 0 0 0 0 0 0 0 0 0 0 0 0 0 0 0 0 0 0 0 0 0 0 0 0 0 0 0 0 0 0 0 0 0 0 0 0 0 0 0 0 0 0 0 0 0 0 0 0 0 0 0 0 0 0 0 0 0 0 0 0 0 0 0 0 0 0 
0 0 0 0 0 0 0 0 0 0 0 0 0 0 0 0 0 0 0 0 0 0 0 0 0 0 0 0 0 0 0 0 0 0 0 0 0 0 0 0 0 0 0 0 0 0 0 0 0 0 0 0 0 0 0 0 0 0 0 0 0 0 0 0 0 0 0 0 0 0 0 0 0 0 0 0 0 0 0 0 0 0 0 0 0 0 0 0 0 0 0 0 0 0 0 0 0 0 0 0 0 0 0 0 0 0 0 0 0 0 0 0 0 0 0 0 0 0 0 0 0 0 0 0 0 0 0 0 
0 0 0 0 0 0 0 0 0 0 0 0 0 0 0 0 0 0 0 0 0 0 0 0 0 0 0 0 0 0 0 0 0 0 0 0 0 0 0 0 0 0 0 0 0 0 0 0 0 0 0 0 0 0 0 0 0 0 0 0 0 0 0 0 0 0 0 0 0 0 0 0 0 0 0 0 0 0 0 0 0 0 0 0 0 0 0 0 0 0 0 0 0 0 0 0 0 0 0 0 0 0 0 0 0 0 0 0 0 0 0 0 0 0 0 0 0 0 0 0 0 0 0 0 0 0 0 0 
0 0 0 0 0 0 0 0 0 0 0 0 0 0 0 0 0 0 0 0 0 0 0 0 0 0 0 0 0 0 0 0 0 0 0 0 0 0 0 0 0 0 0 0 0 0 0 0 0 0 0 0 0 0 0 0 0 0 0 0 0 0 0 0 0 0 0 0 0 0 0 0 0 0 0 0 0 0 0 0 0 0 0 0 0 0 0 0 0 0 0 0 0 0 0 0 0 0 0 0 0 0 0 0 0 0 0 0 0 0 0 0 0 0 0 0 0 0 0 0 0 0 0 0 0 0 0 0 
0 0 0 0 0 0 0 0 0 0 0 0 0 0 0 0 0 0 0 0 0 0 0 0 0 0 0 0 0 0 0 0 0 0 0 0 0 0 0 0 0 0 0 0 0 0 0 0 0 0 0 0 0 0 0 0 0 0 0 0 0 0 0 0 0 0 0 0 0 0 0 0 0 0 0 0 0 0 0 0 0 0 0 0 0 0 0 0 0 0 0 0 0 0 0 0 0 0 0 0 0 0 0 0 0 0 0 0 0 0 0 0 0 0 0 0 0 0 0 0 0 0 0 0 0 0 0 0 
0 0 0 0 0 0 0 0 0 0 0 0 0 0 0 0 0 0 0 0 0 0 0 0 0 0 0 0 0 0 0 0 0 0 0 0 0 0 0 0 0 0 0 0 0 0 0 0 0 0 0 0 0 0 0 0 0 0 0 0 0 0 0 0 0 0 0 0 0 0 0 0 0 0 0 0 0 0 0 0 0 0 0 0 0 0 0 0 0 0 0 0 0 0 0 0 0 0 0 0 0 0 0 0 0 0 0 0 0 0 0 0 0 0 0 0 0 0 0 0 0 0 0 0 0 0 0 0 
0 0 0 0 0 0 0 0 0 0 0 0 0 0 0 0 0 0 0 0 0 0 0 0 0 0 0 0 0 0 0 0 0 0 0 0 0 0 0 0 0 0 0 0 0 0 0 0 0 0 0 0 0 0 0 0 0 0 0 0 0 0 0 0 0 0 0 0 0 0 0 0 0 0 0 0 0 0 0 0 0 0 0 0 0 0 0 0 0 0 0 0 0 0 0 0 0 0 0 0 0 0 0 0 0 0 0 0 0 0 0 0 0 0 0 0 0 0 0 0 0 0 0 0 0 0 0 0 
0 0 0 0 0 0 0 0 0 0 0 0 0 0 0 0 0 0 0 0 0 0 0 0 0 0 0 0 0 0 0 0 0 0 0 0 0 0 0 0 0 0 0 0 0 0 0 0 0 0 0 0 0 0 0 0 32 42 52 67 70 76 68 59 49 37 19 0 0 0 0 0 0 0 0 0 0 0 0 0 0 0 0 0 0 0 0 0 0 0 0 0 0 0 0 0 0 0 0 0 0 0 0 0 0 0 0 0 0 0 0 0 0 0 0 0 0 0 0 0 0 0 0 0 0 0 0 0 
0 0 0 0 0 0 0 0 0 0 0 0 0 0 0 0 0 0 0 0 0 0 0 0 0 0 0 0 0 0 0 0 0 0 0 0 0 0 0 0 0 0 0 0 0 0 0 0 0 0 0 0 13 31 55 84 88 88 88 88 88 88 88 88 88 88 88 83 57 37 20 0 0 0 0 0 0 0 0 0 0 0 0 0 0 0 0 0 0 0 0 0 0 0 0 0 0 0 0 0 0 0 0 0 0 0 0 0 0 0 0 0 0 0 0 0 0 0 0 0 0 0 0 0 0 0 0 0 
0 0 0 0 0 0 0 0 0 0 0 0 0 0 0 0 0 0 0 0 0 0 0 0 0 0 0 0 0 0 0 0 0 0 0 0 0 0 0 0 0 0 0 0 0 0 0 0 0 0 22 49 78 88 88 88 88 88 88 88 88 88 88 88 88 88 88 88 88 88 83 59 31 11 0 0 0 0 0 0 0 0 0 0 0 0 0 0 0 0 0 0 0 0 0 0 0 0 0 0 0 0 0 0 0 0 0 0 0 0 0 0 0 0 0 0 0 0 0 0 0 0 0 0 0 0 0 0 
0 0 0 0 0 0 0 0 0 0 0 0 0 0 0 0 0 0 0 0 0 0 0 0 0 0 0 0 0 0 0 0 0 0 0 0 0 0 0 0 0 0 0 0 0 0 0 0 15 48 83 88 88 88 88 88 71 46 40 27 25 24 25 25 32 43 64 88 88 88 88 88 88 67 31 13 0 0 0 0 0 0 0 0 0 0 0 0 0 0 0 0 0 0 0 0 0 0 0 0 0 0 0 0 0 0 0 0 0 0 0 0 0 0 0 0 0 0 0 0 0 0 0 0 0 0 0 0 
0 0 0 0 0 0 0 0 0 0 0 0 0 0 0 0 0 0 0 0 0 0 0 0 0 0 0 0 0 0 0 0 0 0 0 0 0 0 0 0 0 0 0 0 0 0 21 50 77 88 88 88 88 79 39 21 19 22 26 29 39 42 32 37 31 24 23 26 40 64 88 88 88 88 88 63 33 0 0 0 0 0 0 0 0 0 0 0 0 0 0 0 0 0 0 0 0 0 0 0 0 0 0 0 0 0 0 0 0 0 0 0 0 0 0 0 0 0 0 0 0 0 0 0 0 0 0 0 
0 0 0 0 0 0 0 0 0 0 0 0 0 0 0 0 0 0 0 0 0 0 0 0 0 0 0 0 0 0 0 0 0 0 0 0 0 0 0 0 0 0 0 0 0 37 72 88 88 88 88 66 42 21 26 38 49 59 60 58 53 51 38 35 47 54 50 37 33 31 30 53 88 88 88 88 88 53 14 0 0 0 0 0 0 0 0 0 0 0 0 0 0 0 0 0 0 0 0 0 0 0 0 0 0 0 0 0 0 0 0 0 0 0 0 0 0 0 0 0 0 0 0 0 0 0 0 0 
0 0 0 0 0 0 0 0 0 0 0 0 0 0 0 0 0 0 0 0 0 0 0 0 0 0 0 0 0 0 0 0 0 0 0 0 0 0 0 0 0 0 0 0 43 88 88 88 88 64 36 24 33 47 65 64 65 65 51 33 27 16 23 23 20 33 52 61 63 56 47 37 30 54 88 88 88 88 76 28 0 0 0 0 0 0 0 0 0 0 0 0 0 0 0 0 0 0 0 0 0 0 0 0 0 0 0 0 0 0 0 0 0 0 0 0 0 0 0 0 0 0 0 0 0 0 0 0 
0 0 0 0 0 0 0 0 0 0 0 0 0 0 0 0 0 0 0 0 0 0 0 0 0 0 0 0 0 0 0 0 0 0 0 0 0 0 0 0 0 0 0 51 88 88 88 88 59 24 31 52 63 65 66 64 49 34 20 11 12 42 41 38 39 11 16 30 47 57 60 59 42 35 31 65 88 88 88 84 33 0 0 0 0 0 0 0 0 0 0 0 0 0 0 0 0 0 0 0 0 0 0 0 0 0 0 0 0 0 0 0 0 0 0 0 0 0 0 0 0 0 0 0 0 0 0 0 
0 0 0 0 0 0 0 0 0 0 0 0 0 0 0 0 0 0 0 0 0 0 0 0 0 0 0 0 0 0 0 0 0 0 0 0 0 0 0 0 0 0 46 88 88 88 87 38 25 49 61 61 59 51 43 37 20 12 13 19 24 42 34 8 63 41 17 11 15 30 38 54 65 59 42 25 46 78 88 88 74 35 0 0 0 0 0 0 0 0 0 0 0 0 0 0 0 0 0 0 0 0 0 0 0 0 0 0 0 0 0 0 0 0 0 0 0 0 0 0 0 0 0 0 0 0 0 0 
0 0 0 0 0 0 0 0 0 0 0 0 0 0 0 0 0 0 0 0 0 0 0 0 0 0 0 0 0 0 0 0 0 0 0 0 0 0 0 0 0 45 88 88 88 73 31 32 60 67 58 44 28 23 16 14 15 19 23 28 26 33 19 16 32 53 39 32 19 13 16 20 34 53 68 59 26 37 69 88 88 86 39 0 0 0 0 0 0 0 0 0 0 0 0 0 0 0 0 0 0 0 0 0 0 0 0 0 0 0 0 0 0 0 0 0 0 0 0 0 0 0 0 0 0 0 0 0 
0 0 0 0 0 0 0 0 0 0 0 0 0 0 0 0 0 0 0 0 0 0 0 0 0 0 0 0 0 0 0 0 0 0 0 0 0 0 0 0 32 88 88 88 60 25 36 58 66 54 29 15 11 12 22 19 27 29 27 37 37 41 28 44 40 51 52 52 45 24 17 11 13 24 39 54 56 35 33 62 88 88 88 31 0 0 0 0 0 0 0 0 0 0 0 0 0 0 0 0 0 0 0 0 0 0 0 0 0 0 0 0 0 0 0 0 0 0 0 0 0 0 0 0 0 0 0 0 
0 0 0 0 0 0 0 0 0 0 0 0 0 0 0 0 0 0 0 0 0 0 0 0 0 0 0 0 0 0 0 0 0 0 0 0 0 0 0 21 85 88 88 58 24 40 65 63 55 27 13 11 20 30 31 36 49 49 49 48 44 42 39 19 40 53 57 56 50 45 32 21 0 15 16 38 55 51 38 29 75 88 88 80 32 0 0 0 0 0 0 0 0 0 0 0 0 0 0 0 0 0 0 0 0 0 0 0 0 0 0 0 0 0 0 0 0 0 0 0 0 0 0 0 0 0 0 0 
0 0 0 0 0 0 0 0 0 0 0 0 0 0 0 0 0 0 0 0 0 0 0 0 0 0 0 0 0 0 0 0 0 0 0 0 0 0 0 66 88 88 65 21 38 59 67 58 31 8 11 34 40 48 45 51 52 53 53 52 53 56 44 36 52 57 57 61 50 42 42 34 25 26 14 20 27 47 55 42 28 69 88 88 74 23 0 0 0 0 0 0 0 0 0 0 0 0 0 0 0 0 0 0 0 0 0 0 0 0 0 0 0 0 0 0 0 0 0 0 0 0 0 0 0 0 0 0 
0 0 0 0 0 0 0 0 0 0 0 0 0 0 0 0 0 0 0 0 0 0 0 0 0 0 0 0 0 0 0 0 0 0 0 0 0 0 39 88 88 88 19 35 63 70 50 27 13 11 32 49 49 48 50 55 56 56 56 54 55 53 55 40 60 53 61 61 56 48 42 27 31 43 47 28 16 25 49 60 39 31 83 88 88 64 17 0 0 0 0 0 0 0 0 0 0 0 0 0 0 0 0 0 0 0 0 0 0 0 0 0 0 0 0 0 0 0 0 0 0 0 0 0 0 0 0 0 
0 0 0 0 0 0 0 0 0 0 0 0 0 0 0 0 0 0 0 0 0 0 0 0 0 0 0 0 0 0 0 0 0 0 0 0 0 27 84 88 88 23 33 59 59 46 23 11 11 34 51 52 51 51 49 53 53 55 55 58 57 54 55 56 55 59 62 64 56 57 34 33 34 42 39 35 21 16 29 50 57 35 33 84 88 88 53 0 0 0 0 0 0 0 0 0 0 0 0 0 0 0 0 0 0 0 0 0 0 0 0 0 0 0 0 0 0 0 0 0 0 0 0 0 0 0 0 0 
0 0 0 0 0 0 0 0 0 0 0 0 0 0 0 0 0 0 0 0 0 0 0 0 0 0 0 0 0 0 0 0 0 0 0 0 0 61 88 88 40 18 59 61 44 21 13 25 34 50 50 56 52 51 47 51 46 52 53 58 60 55 55 58 53 57 58 65 62 55 32 28 44 51 54 50 31 16 12 25 49 55 32 34 88 88 88 34 0 0 0 0 0 0 0 0 0 0 0 0 0 0 0 0 0 0 0 0 0 0 0 0 0 0 0 0 0 0 0 0 0 0 0 0 0 0 0 0 
0 0 0 0 0 0 0 0 0 0 0 0 0 0 0 0 0 0 0 0 0 0 0 0 0 0 0 0 0 0 0 0 0 0 0 0 40 88 88 57 21 46 60 44 23 14 11 37 35 42 53 51 53 46 48 46 53 55 57 58 58 57 53 56 53 56 56 65 62 56 36 42 53 57 58 51 47 39 25 14 29 50 49 26 68 88 88 88 22 0 0 0 0 0 0 0 0 0 0 0 0 0 0 0 0 0 0 0 0 0 0 0 0 0 0 0 0 0 0 0 0 0 0 0 0 0 0 0 
0 0 0 0 0 0 0 0 0 0 0 0 0 0 0 0 0 0 0 0 0 0 0 0 0 0 0 0 0 0 0 0 0 0 0 19 88 88 86 21 40 63 42 20 12 18 32 44 44 49 50 49 49 42 48 53 57 60 63 62 58 55 54 52 56 59 60 66 60 57 40 55 59 61 62 58 50 46 36 19 14 32 61 47 24 73 88 88 60 0 0 0 0 0 0 0 0 0 0 0 0 0 0 0 0 0 0 0 0 0 0 0 0 0 0 0 0 0 0 0 0 0 0 0 0 0 0 0 
0 0 0 0 0 0 0 0 0 0 0 0 0 0 0 0 0 0 0 0 0 0 0 0 0 0 0 0 0 0 0 0 0 0 0 54 88 80 30 27 57 47 18 11 21 24 35 47 57 52 51 50 51 53 52 58 58 63 63 62 56 57 48 58 58 60 63 66 62 55 46 58 62 65 59 56 50 43 38 34 18 16 35 57 40 30 88 88 88 38 0 0 0 0 0 0 0 0 0 0 0 0 0 0 0 0 0 0 0 0 0 0 0 0 0 0 0 0 0 0 0 0 0 0 0 0 0 0 
0 0 0 0 0 0 0 0 0 0 0 0 0 0 0 0 0 0 0 0 0 0 0 0 0 0 0 0 0 0 0 0 0 0 37 88 88 63 14 50 60 24 8 16 31 27 35 56 57 59 55 53 56 59 60 64 64 61 63 60 53 46 40 54 58 62 63 67 64 55 56 60 64 58 56 49 46 56 56 51 34 13 25 70 63 31 37 88 88 79 13 0 0 0 0 0 0 0 0 0 0 0 0 0 0 0 0 0 0 0 0 0 0 0 0 0 0 0 0 0 0 0 0 0 0 0 0 0 
0 0 0 0 0 0 0 0 0 0 0 0 0 0 0 0 0 0 0 0 0 0 0 0 0 0 0 0 0 0 0 0 0 11 79 88 81 11 33 55 29 13 26 45 50 52 44 49 57 56 62 64 61 64 66 65 65 64 60 57 58 55 44 47 61 61 64 66 66 63 63 66 58 53 53 53 58 57 59 55 45 21 9 31 56 59 25 38 88 88 44 0 0 0 0 0 0 0 0 0 0 0 0 0 0 0 0 0 0 0 0 0 0 0 0 0 0 0 0 0 0 0 0 0 0 0 0 0 
0 0 0 0 0 0 0 0 0 0 0 0 0 0 0 0 0 0 0 0 0 0 0 0 0 0 0 0 0 0 0 0 0 45 88 88 23 22 63 48 12 23 48 55 53 53 53 53 47 49 55 60 64 63 63 66 66 65 61 58 57 50 54 52 56 59 64 65 67 66 64 67 58 56 54 56 61 63 59 56 52 31 12 11 39 64 48 21 71 88 88 11 0 0 0 0 0 0 0 0 0 0 0 0 0 0 0 0 0 0 0 0 0 0 0 0 0 0 0 0 0 0 0 0 0 0 0 0 
0 0 0 0 0 0 0 0 0 0 0 0 0 0 0 0 0 0 0 0 0 0 0 0 0 0 0 0 0 0 0 0 15 88 88 49 16 49 57 18 17 35 51 56 56 61 59 55 55 54 53 61 63 64 64 66 63 62 60 58 55 52 56 54 60 63 67 65 64 68 66 65 59 57 54 58 62 61 59 57 54 55 41 16 13 43 60 32 30 88 88 44 0 0 0 0 0 0 0 0 0 0 0 0 0 0 0 0 0 0 0 0 0 0 0 0 0 0 0 0 0 0 0 0 0 0 0 0 
0 0 0 0 0 0 0 0 0 0 0 0 0 0 0 0 0 0 0 0 0 0 0 0 0 0 0 0 0 0 0 0 45 88 88 25 38 67 30 8 28 49 49 55 57 60 61 66 63 63 61 62 64 64 65 64 63 58 57 58 57 43 55 55 58 63 64 66 68 66 65 66 57 50 55 58 60 62 58 57 59 58 52 30 4 14 44 52 29 63 88 78 14 0 0 0 0 0 0 0 0 0 0 0 0 0 0 0 0 0 0 0 0 0 0 0 0 0 0 0 0 0 0 0 0 0 0 0 
0 0 0 0 0 0 0 0 0 0 0 0 0 0 0 0 0 0 0 0 0 0 0 0 0 0 0 0 0 0 0 14 88 88 51 22 60 51 13 23 50 56 51 51 56 55 59 63 60 60 59 63 66 64 66 64 61 55 57 58 58 55 64 57 61 63 63 67 67 64 65 67 60 48 57 58 57 60 62 63 59 55 57 62 60 15 13 34 46 28 88 88 37 0 0 0 0 0 0 0 0 0 0 0 0 0 0 0 0 0 0 0 0 0 0 0 0 0 0 0 0 0 0 0 0 0 0 0 
0 0 0 0 0 0 0 0 0 0 0 0 0 0 0 0 0 0 0 0 0 0 0 0 0 0 0 0 0 0 0 47 88 88 19 26 64 26 12 44 58 56 54 53 56 49 53 57 56 57 55 56 60 65 67 66 65 58 58 58 58 56 67 56 59 58 58 62 65 68 67 67 59 55 52 59 57 58 58 58 55 55 55 51 41 19 15 18 42 19 72 88 75 0 0 0 0 0 0 0 0 0 0 0 0 0 0 0 0 0 0 0 0 0 0 0 0 0 0 0 0 0 0 0 0 0 0 0 
0 0 0 0 0 0 0 0 0 0 0 0 0 0 0 0 0 0 0 0 0 0 0 0 0 0 0 0 0 0 12 83 88 48 19 24 48 13 22 47 58 60 60 59 58 57 52 53 54 56 57 58 62 64 69 65 67 67 64 66 63 56 59 42 57 55 59 57 65 67 65 67 60 55 54 61 62 58 55 54 52 57 57 58 52 25 22 9 11 16 37 88 88 31 0 0 0 0 0 0 0 0 0 0 0 0 0 0 0 0 0 0 0 0 0 0 0 0 0 0 0 0 0 0 0 0 0 0 
0 0 0 0 0 0 0 0 0 0 0 0 0 0 0 0 0 0 0 0 0 0 0 0 0 0 0 0 0 0 45 88 84 13 24 31 18 9 32 48 60 58 62 62 61 56 56 53 55 58 60 62 67 66 64 67 68 63 63 61 59 52 54 40 41 42 58 56 62 68 68 66 62 57 56 60 65 59 55 57 60 64 62 56 53 43 33 16 6 18 25 63 88 78 0 0 0 0 0 0 0 0 0 0 0 0 0 0 0 0 0 0 0 0 0 0 0 0 0 0 0 0 0 0 0 0 0 0 
0 0 0 0 0 0 0 0 0 0 0 0 0 0 0 0 0 0 0 0 0 0 0 0 0 0 0 0 0 13 88 88 23 18 18 20 8 26 42 46 52 59 61 62 64 60 61 56 56 58 61 64 67 65 67 67 66 63 58 61 59 39 59 50 61 61 55 57 62 67 64 67 65 56 56 63 64 61 57 63 66 62 60 54 57 55 44 32 11 6 15 18 88 88 31 0 0 0 0 0 0 0 0 0 0 0 0 0 0 0 0 0 0 0 0 0 0 0 0 0 0 0 0 0 0 0 0 0 
0 0 0 0 0 0 0 0 0 0 0 0 0 0 0 0 0 0 0 0 0 0 0 0 0 0 0 0 0 44 88 61 14 27 7 7 23 50 57 55 52 60 62 65 64 62 59 59 50 61 59 66 65 65 66 66 64 60 57 56 50 39 63 55 63 63 60 61 67 68 67 67 65 60 57 61 64 68 66 68 63 61 54 52 56 55 53 47 28 9 25 22 47 88 64 0 0 0 0 0 0 0 0 0 0 0 0 0 0 0 0 0 0 0 0 0 0 0 0 0 0 0 0 0 0 0 0 0 
0 0 0 0 0 0 0 0 0 0 0 0 0 0 0 0 0 0 0 0 0 0 0 0 0 0 0 0 13 88 88 19 34 33 8 27 38 47 54 59 61 61 62 63 65 62 61 57 54 54 61 65 65 65 66 67 62 60 55 56 50 42 54 58 61 62 63 69 66 68 68 67 65 63 60 62 67 66 67 62 62 57 52 54 55 54 57 50 43 26 19 36 15 88 88 24 0 0 0 0 0 0 0 0 0 0 0 0 0 0 0 0 0 0 0 0 0 0 0 0 0 0 0 0 0 0 0 0 
0 0 0 0 0 0 0 0 0 0 0 0 0 0 0 0 0 0 0 0 0 0 0 0 0 0 0 0 31 88 67 13 51 16 45 41 53 52 51 58 59 60 61 61 67 66 64 62 56 56 57 64 65 65 66 66 61 56 55 58 60 39 46 58 63 64 66 70 70 68 68 69 65 64 65 70 69 66 67 63 61 60 61 58 54 48 51 49 47 43 13 37 14 63 88 66 0 0 0 0 0 0 0 0 0 0 0 0 0 0 0 0 0 0 0 0 0 0 0 0 0 0 0 0 0 0 0 0 
0 0 0 0 0 0 0 0 0 0 0 0 0 0 0 0 0 0 0 0 0 0 0 0 0 0 0 0 65 88 26 28 49 11 31 30 55 55 59 58 61 62 61 60 64 64 64 65 64 61 62 63 63 67 66 68 63 58 57 55 53 51 39 54 60 60 62 66 69 68 68 70 67 65 70 69 67 66 66 67 65 65 63 61 59 58 50 44 49 47 24 24 23 23 88 88 13 0 0 0 0 0 0 0 0 0 0 0 0 0 0 0 0 0 0 0 0 0 0 0 0 0 0 0 0 0 0 0 
0 0 0 0 0 0 0 0 0 0 0 0 0 0 0 0 0 0 0 0 0 0 0 0 0 0 0 21 88 88 7 44 31 15 35 46 56 58 62 63 62 62 61 59 62 65 65 66 64 66 64 63 66 67 69 66 61 59 59 58 59 54 39 45 61 59 60 63 67 70 69 70 69 68 66 68 66 65 68 66 66 63 63 58 57 54 56 57 50 49 36 14 31 25 88 88 39 0 0 0 0 0 0 0 0 0 0 0 0 0 0 0 0 0 0 0 0 0 0 0 0 0 0 0 0 0 0 0 
0 0 0 0 0 0 0 0 0 0 0 0 0 0 0 0 0 0 0 0 0 0 0 0 0 0 0 50 88 43 9 54 12 24 46 50 57 55 60 62 62 62 63 58 58 60 63 67 65 67 67 62 66 68 70 71 66 62 58 61 62 50 44 43 60 59 60 59 68 68 69 68 71 67 67 68 63 65 64 63 63 59 62 56 58 60 60 59 53 44 22 17 40 9 60 88 83 0 0 0 0 0 0 0 0 0 0 0 0 0 0 0 0 0 0 0 0 0 0 0 0 0 0 0 0 0 0 0 
0 0 0 0 0 0 0 0 0 0 0 0 0 0 0 0 0 0 0 0 0 0 0 0 0 0 0 79 88 34 19 32 13 32 30 45 49 55 56 59 61 58 61 62 61 59 58 61 66 65 67 65 63 71 70 71 66 64 60 62 62 55 55 52 63 63 60 59 65 69 69 67 67 66 68 66 64 63 64 63 57 57 47 44 52 59 56 53 57 38 25 15 33 20 72 88 88 15 0 0 0 0 0 0 0 0 0 0 0 0 0 0 0 0 0 0 0 0 0 0 0 0 0 0 0 0 0 0 
0 0 0 0 0 0 0 0 0 0 0 0 0 0 0 0 0 0 0 0 0 0 0 0 0 0 24 88 88 13 34 23 29 37 41 50 57 48 51 57 59 58 61 59 62 58 58 60 66 67 67 69 67 68 70 71 69 66 62 63 62 58 59 60 63 64 63 61 66 71 70 68 68 68 67 67 66 65 65 62 61 55 51 55 60 58 53 52 44 58 46 26 15 32 13 88 88 39 0 0 0 0 0 0 0 0 0 0 0 0 0 0 0 0 0 0 0 0 0 0 0 0 0 0 0 0 0 0 
0 0 0 0 0 0 0 0 0 0 0 0 0 0 0 0 0 0 0 0 0 0 0 0 0 0 38 88 88 7 49 11 41 54 54 55 55 51 52 50 52 60 55 55 64 59 61 59 63 68 68 67 68 67 70 71 69 67 64 64 64 57 60 58 66 63 63 65 67 67 72 71 69 69 68 66 68 68 63 64 62 60 50 56 58 57 51 57 58 57 57 44 25 25 4 88 88 63 0 0 0 0 0 0 0 0 0 0 0 0 0 0 0 0 0 0 0 0 0 0 0 0 0 0 0 0 0 0 
0 0 0 0 0 0 0 0 0 0 0 0 0 0 0 0 0 0 0 0 0 0 0 0 0 0 61 88 52 8 52 8 47 57 59 56 57 58 55 53 53 33 52 56 58 58 60 59 64 64 69 68 69 69 70 70 70 70 67 65 64 58 64 59 66 65 65 68 67 73 71 73 68 68 68 68 69 68 64 64 62 59 59 48 55 47 54 60 60 63 60 50 25 31 13 63 88 85 0 0 0 0 0 0 0 0 0 0 0 0 0 0 0 0 0 0 0 0 0 0 0 0 0 0 0 0 0 0 
0 0 0 0 0 0 0 0 0 0 0 0 0 0 0 0 0 0 0 0 0 0 0 0 0 13 85 88 14 22 40 8 54 59 62 61 63 61 59 61 59 59 56 48 45 60 61 61 65 69 67 68 69 68 69 69 71 68 64 62 61 57 55 60 66 65 66 67 69 72 71 72 70 68 68 70 67 67 63 60 60 61 64 52 45 52 65 61 63 60 54 51 24 23 24 27 88 88 24 0 0 0 0 0 0 0 0 0 0 0 0 0 0 0 0 0 0 0 0 0 0 0 0 0 0 0 0 0 
0 0 0 0 0 0 0 0 0 0 0 0 0 0 0 0 0 0 0 0 0 0 0 0 0 27 88 88 3 39 33 17 52 56 60 59 60 60 63 63 66 61 61 60 61 61 63 67 66 69 68 69 69 69 72 71 69 68 67 62 60 57 56 60 67 65 68 68 69 69 70 71 70 70 68 69 68 68 61 54 43 53 55 57 61 62 63 62 59 58 45 28 23 17 32 8 88 88 45 0 0 0 0 0 0 0 0 0 0 0 0 0 0 0 0 0 0 0 0 0 0 0 0 0 0 0 0 0 
0 0 0 0 0 0 0 0 0 0 0 0 0 0 0 0 0 0 0 0 0 0 0 0 0 50 88 82 5 57 21 19 53 56 59 56 61 60 61 63 61 63 64 67 63 67 65 66 68 68 69 69 69 74 70 70 71 67 65 64 61 59 59 59 66 64 66 67 68 69 72 72 71 70 68 67 64 67 63 58 62 60 63 64 65 64 60 59 54 55 46 55 34 8 35 4 88 88 65 0 0 0 0 0 0 0 0 0 0 0 0 0 0 0 0 0 0 0 0 0 0 0 0 0 0 0 0 0 
0 0 0 0 0 0 0 0 0 0 0 0 0 0 0 0 0 0 0 0 0 0 0 0 0 70 88 33 8 61 7 23 37 40 49 56 32 59 61 59 63 63 62 65 67 67 67 67 68 69 68 71 74 69 72 69 69 65 69 64 66 60 51 62 65 65 66 69 69 70 70 71 72 70 67 68 68 67 68 65 68 65 65 67 63 62 56 46 50 59 61 58 50 18 27 11 57 88 85 13 0 0 0 0 0 0 0 0 0 0 0 0 0 0 0 0 0 0 0 0 0 0 0 0 0 0 0 0 
0 0 0 0 0 0 0 0 0 0 0 0 0 0 0 0 0 0 0 0 0 0 0 0 21 88 88 9 24 54 4 32 49 57 57 58 58 55 62 61 61 62 62 65 66 68 68 70 69 67 68 65 70 73 71 71 70 71 68 65 58 59 47 61 67 65 67 70 68 70 71 72 72 70 68 69 66 69 65 66 66 65 63 64 63 58 55 52 49 58 61 57 48 22 20 24 29 88 88 30 0 0 0 0 0 0 0 0 0 0 0 0 0 0 0 0 0 0 0 0 0 0 0 0 0 0 0 0 
0 0 0 0 0 0 0 0 0 0 0 0 0 0 0 0 0 0 0 0 0 0 0 0 36 88 85 4 44 43 2 48 50 55 58 61 60 54 52 59 60 63 59 63 66 66 66 68 69 65 67 67 68 74 73 68 70 70 69 65 61 56 47 63 64 67 67 70 71 71 74 72 71 70 68 67 67 69 68 68 67 65 63 64 63 57 59 59 62 60 61 55 65 23 20 40 13 88 88 49 0 0 0 0 0 0 0 0 0 0 0 0 0 0 0 0 0 0 0 0 0 0 0 0 0 0 0 0 
0 0 0 0 0 0 0 0 0 0 0 0 0 0 0 0 0 0 0 0 0 0 0 0 59 88 60 6 57 18 13 57 59 59 58 58 61 60 62 60 58 54 60 64 64 65 63 67 69 70 67 68 70 72 70 70 70 68 66 64 63 61 62 60 67 65 67 68 69 70 70 73 72 70 69 67 69 66 68 65 66 64 60 56 55 61 61 60 62 65 59 57 52 31 13 45 8 88 88 59 0 0 0 0 0 0 0 0 0 0 0 0 0 0 0 0 0 0 0 0 0 0 0 0 0 0 0 0 
0 0 0 0 0 0 0 0 0 0 0 0 0 0 0 0 0 0 0 0 0 0 0 0 74 88 20 12 67 8 26 58 59 60 60 59 63 62 63 62 60 57 39 38 56 66 66 67 67 70 71 73 73 73 72 69 67 70 67 66 64 60 66 59 66 66 66 70 67 69 70 70 72 70 68 69 65 66 67 68 63 62 46 56 61 59 63 61 61 63 62 57 51 35 5 55 4 47 88 88 13 0 0 0 0 0 0 0 0 0 0 0 0 0 0 0 0 0 0 0 0 0 0 0 0 0 0 0 
0 0 0 0 0 0 0 0 0 0 0 0 0 0 0 0 0 0 0 0 0 0 0 14 88 88 8 34 61 4 35 59 62 64 63 63 63 64 61 63 62 62 62 58 52 65 66 65 67 70 69 71 72 69 66 69 68 69 69 68 66 63 66 59 65 67 66 68 70 69 69 72 71 71 69 67 67 67 66 64 63 56 60 62 62 58 65 64 60 61 63 59 52 34 7 37 19 32 88 88 28 0 0 0 0 0 0 0 0 0 0 0 0 0 0 0 0 0 0 0 0 0 0 0 0 0 0 0 
0 0 0 0 0 0 0 0 0 0 0 0 0 0 0 0 0 0 0 0 0 0 0 25 88 61 7 58 55 5 54 59 61 59 63 63 65 63 65 63 62 62 63 60 57 65 67 67 68 69 69 73 70 70 71 70 68 69 67 66 67 60 70 60 68 66 67 66 67 70 66 69 71 69 70 68 65 66 65 65 64 62 59 63 56 62 65 63 61 61 63 59 55 39 13 23 29 20 88 88 45 0 0 0 0 0 0 0 0 0 0 0 0 0 0 0 0 0 0 0 0 0 0 0 0 0 0 0 
0 0 0 0 0 0 0 0 0 0 0 0 0 0 0 0 0 0 0 0 0 0 0 44 88 52 3 69 48 5 57 59 57 56 56 59 62 63 65 66 64 62 65 62 60 65 65 66 64 65 67 69 72 70 67 67 68 67 71 68 67 63 70 59 67 66 68 66 66 69 68 69 68 71 67 67 68 67 66 63 59 62 62 61 58 66 64 61 62 58 63 63 57 55 24 12 34 9 88 88 54 0 0 0 0 0 0 0 0 0 0 0 0 0 0 0 0 0 0 0 0 0 0 0 0 0 0 0 
0 0 0 0 0 0 0 0 0 0 0 0 0 0 0 0 0 0 0 0 0 0 0 54 88 30 20 76 40 12 48 57 56 49 54 56 61 63 63 67 65 63 65 63 63 63 65 65 68 66 66 68 71 72 70 70 67 68 69 66 69 60 70 60 68 68 66 66 65 67 69 69 73 70 69 67 63 67 65 64 60 60 61 59 63 65 65 62 57 59 61 65 55 50 26 11 19 5 88 88 73 0 0 0 0 0 0 0 0 0 0 0 0 0 0 0 0 0 0 0 0 0 0 0 0 0 0 0 
0 0 0 0 0 0 0 0 0 0 0 0 0 0 0 0 0 0 0 0 0 0 0 73 88 9 41 79 26 22 32 49 51 52 56 58 61 63 60 66 68 66 66 66 65 67 67 66 66 67 68 71 69 70 71 69 69 68 70 69 68 61 72 61 66 68 68 68 68 67 69 71 71 71 69 67 68 64 65 63 58 60 61 64 64 65 62 59 60 62 64 64 56 48 39 20 12 3 66 88 82 19 0 0 0 0 0 0 0 0 0 0 0 0 0 0 0 0 0 0 0 0 0 0 0 0 0 0 
0 0 0 0 0 0 0 0 0 0 0 0 0 0 0 0 0 0 0 0 0 0 12 88 88 2 61 67 12 24 21 38 55 59 56 63 61 60 62 65 67 67 66 65 68 66 67 70 70 70 68 69 72 71 68 68 68 70 69 66 66 62 65 66 63 66 68 71 70 70 68 70 72 76 73 66 66 66 63 63 64 64 63 64 65 63 61 62 63 66 66 63 59 57 55 30 8 1 26 88 88 25 0 0 0 0 0 0 0 0 0 0 0 0 0 0 0 0 0 0 0 0 0 0 0 0 0 0 
0 0 0 0 0 0 0 0 0 0 0 0 0 0 0 0 0 0 0 0 0 0 20 88 56 0 72 50 13 47 26 41 54 52 54 60 58 64 66 62 67 68 67 70 67 68 69 66 69 73 72 77 70 71 68 67 70 69 70 68 65 63 57 61 63 68 69 67 72 69 70 70 73 72 72 69 70 66 69 67 67 66 67 67 62 61 59 61 64 64 64 63 63 61 57 44 5 4 31 88 88 38 0 0 0 0 0 0 0 0 0 0 0 0 0 0 0 0 0 0 0 0 0 0 0 0 0 0 
0 0 0 0 0 0 0 0 0 0 0 0 0 0 0 0 0 0 0 0 0 0 39 88 48 11 81 31 13 39 55 54 57 60 59 62 61 60 60 63 63 66 68 67 68 69 70 69 68 72 75 72 72 69 72 68 68 70 69 68 67 62 59 62 66 69 69 68 68 66 69 69 71 71 70 68 69 67 67 67 66 72 71 68 63 61 59 58 62 62 63 63 63 63 57 52 6 11 19 88 88 43 0 0 0 0 0 0 0 0 0 0 0 0 0 0 0 0 0 0 0 0 0 0 0 0 0 0 
0 0 0 0 0 0 0 0 0 0 0 0 0 0 0 0 0 0 0 0 0 0 74 88 31 28 57 21 25 37 54 56 59 59 59 61 61 64 66 64 64 66 68 68 68 69 70 69 70 72 73 73 70 72 68 68 68 69 70 68 66 62 55 63 67 67 68 67 66 67 66 71 70 71 69 70 68 66 69 72 71 72 67 63 61 57 43 46 57 60 58 57 59 62 57 56 8 15 9 88 88 45 0 0 0 0 0 0 0 0 0 0 0 0 0 0 0 0 0 0 0 0 0 0 0 0 0 0 
0 0 0 0 0 0 0 0 0 0 0 0 0 0 0 0 0 0 0 0 0 14 88 88 17 36 42 13 31 33 41 59 56 56 57 48 51 59 61 66 63 66 67 67 69 71 71 69 70 71 70 72 74 73 71 65 67 71 70 70 64 63 56 62 66 69 67 66 65 65 65 67 70 71 69 72 68 67 69 69 74 71 67 65 58 59 63 59 59 57 55 53 56 58 58 55 21 14 3 88 88 32 0 0 0 0 0 0 0 0 0 0 0 0 0 0 0 0 0 0 0 0 0 0 0 0 0 0 
0 0 0 0 0 0 0 0 0 0 0 0 0 0 0 0 0 0 0 0 0 23 88 88 8 39 28 26 22 32 41 35 52 53 47 60 56 62 63 66 66 66 67 70 70 70 70 71 70 71 73 73 69 69 69 69 68 72 71 65 64 63 57 62 62 63 70 68 68 66 68 67 72 71 70 71 71 70 71 70 70 73 73 66 66 65 63 65 61 60 60 59 58 58 58 54 25 14 2 88 88 26 0 0 0 0 0 0 0 0 0 0 0 0 0 0 0 0 0 0 0 0 0 0 0 0 0 0 
0 0 0 0 0 0 0 0 0 0 0 0 0 0 0 0 0 0 0 0 0 38 88 88 13 46 27 44 38 58 58 49 42 61 56 62 64 63 65 65 65 68 70 70 69 69 69 70 72 71 71 72 73 71 72 71 73 71 69 68 66 62 55 62 60 64 68 70 70 67 67 70 70 72 73 71 71 70 70 71 70 65 65 69 71 71 69 69 68 67 69 65 62 60 57 49 15 24 2 88 88 18 0 0 0 0 0 0 0 0 0 0 0 0 0 0 0 0 0 0 0 0 0 0 0 0 0 0 
0 0 0 0 0 0 0 0 0 0 0 0 0 0 0 0 0 0 0 0 0 44 88 88 7 50 21 34 50 58 59 60 56 59 63 65 64 67 64 69 68 68 69 68 70 71 69 72 68 72 71 72 69 72 72 74 71 72 72 70 64 63 56 63 63 65 71 71 74 73 70 71 72 70 72 74 69 69 63 63 64 62 63 65 67 66 68 69 64 64 63 64 63 61 55 52 15 30 0 88 88 14 0 0 0 0 0 0 0 0 0 0 0 0 0 0 0 0 0 0 0 0 0 0 0 0 0 0 
0 0 0 0 0 0 0 0 0 0 0 0 0 0 0 0 0 0 0 0 0 49 88 88 8 45 28 28 59 60 64 63 67 66 69 65 65 66 64 66 69 68 69 67 67 69 69 70 72 69 75 71 71 72 74 72 73 71 66 63 63 63 57 61 64 69 70 69 67 72 71 71 72 73 72 71 68 67 67 63 63 61 55 63 63 66 67 63 59 54 59 59 58 61 32 23 11 31 0 88 88 11 0 0 0 0 0 0 0 0 0 0 0 0 0 0 0 0 0 0 0 0 0 0 0 0 0 0 
0 0 0 0 0 0 0 0 0 0 0 0 0 0 0 0 0 0 0 0 0 50 88 88 9 37 36 22 57 63 61 62 58 62 58 63 67 62 65 68 67 69 67 65 67 66 65 69 74 72 72 72 72 72 74 75 69 68 64 61 60 63 56 62 63 64 66 63 68 69 69 73 71 72 69 69 71 66 64 65 66 62 63 63 63 65 63 55 54 34 53 56 48 30 50 13 21 26 0 88 88 12 0 0 0 0 0 0 0 0 0 0 0 0 0 0 0 0 0 0 0 0 0 0 0 0 0 0 
0 0 0 0 0 0 0 0 0 0 0 0 0 0 0 0 0 0 0 0 0 52 88 88 17 35 43 22 58 58 58 60 56 55 57 61 62 61 69 66 67 64 65 63 66 66 64 69 68 73 70 70 71 75 77 72 72 69 62 62 62 63 54 62 63 63 63 63 71 68 70 73 71 71 72 70 69 65 65 63 64 67 66 67 64 68 58 56 60 39 57 51 55 31 63 13 20 31 9 88 85 15 0 0 0 0 0 0 0 0 0 0 0 0 0 0 0 0 0 0 0 0 0 0 0 0 0 0 
0 0 0 0 0 0 0 0 0 0 0 0 0 0 0 0 0 0 0 0 0 43 88 88 21 17 55 22 38 48 52 50 59 62 64 63 64 68 68 70 68 67 66 66 66 65 68 66 69 69 71 72 74 71 71 73 70 70 67 66 66 62 58 62 63 63 63 63 70 70 72 71 72 69 64 63 60 63 63 54 63 68 66 68 68 66 63 61 61 63 61 61 60 57 50 29 20 30 13 88 88 13 0 0 0 0 0 0 0 0 0 0 0 0 0 0 0 0 0 0 0 0 0 0 0 0 0 0 
0 0 0 0 0 0 0 0 0 0 0 0 0 0 0 0 0 0 0 0 0 42 88 88 40 8 66 24 38 57 63 61 65 66 64 66 64 65 67 70 71 64 64 66 63 71 69 66 64 67 71 73 74 76 71 73 67 65 66 65 63 64 53 61 58 59 59 65 68 65 70 71 73 65 63 61 63 62 59 50 59 63 69 67 66 68 65 65 63 62 63 62 61 56 56 22 33 23 21 88 88 24 0 0 0 0 0 0 0 0 0 0 0 0 0 0 0 0 0 0 0 0 0 0 0 0 0 0 
0 0 0 0 0 0 0 0 0 0 0 0 0 0 0 0 0 0 0 0 0 33 88 88 49 0 66 38 30 57 59 63 59 60 59 60 58 63 67 71 68 69 69 71 71 70 69 68 68 66 68 71 73 73 72 63 60 62 62 62 63 64 52 66 62 60 62 64 65 62 69 72 70 68 63 64 69 65 63 64 62 62 68 69 65 68 62 63 60 62 62 61 61 57 41 23 50 17 42 88 88 24 0 0 0 0 0 0 0 0 0 0 0 0 0 0 0 0 0 0 0 0 0 0 0 0 0 0 
0 0 0 0 0 0 0 0 0 0 0 0 0 0 0 0 0 0 0 0 0 18 85 88 88 0 54 54 20 50 63 45 50 57 53 55 60 61 69 71 70 70 72 69 68 69 67 65 66 65 68 72 72 71 71 64 64 63 61 63 63 59 48 63 63 62 61 58 60 60 68 72 70 67 64 61 65 66 67 67 67 64 67 66 68 63 64 59 60 62 62 60 54 57 32 28 57 8 72 88 88 21 0 0 0 0 0 0 0 0 0 0 0 0 0 0 0 0 0 0 0 0 0 0 0 0 0 0 
0 0 0 0 0 0 0 0 0 0 0 0 0 0 0 0 0 0 0 0 0 0 75 88 88 8 28 77 20 28 39 35 55 54 61 63 65 69 68 71 73 72 71 67 65 66 65 66 67 69 70 73 71 72 71 68 63 63 61 61 61 63 48 58 57 59 59 62 62 64 68 69 69 66 66 62 64 59 66 65 70 66 71 70 67 62 60 53 58 57 60 59 56 44 17 39 56 0 88 88 88 15 0 0 0 0 0 0 0 0 0 0 0 0 0 0 0 0 0 0 0 0 0 0 0 0 0 0 
0 0 0 0 0 0 0 0 0 0 0 0 0 0 0 0 0 0 0 0 0 0 53 88 88 50 14 73 34 27 53 63 60 63 63 68 67 64 65 66 69 70 67 67 68 68 66 66 70 70 71 71 72 76 71 71 67 64 63 64 66 64 51 60 61 61 61 61 66 69 70 71 69 67 69 68 60 64 59 64 67 68 68 67 67 60 56 56 57 60 59 55 47 30 21 62 39 13 88 88 69 0 0 0 0 0 0 0 0 0 0 0 0 0 0 0 0 0 0 0 0 0 0 0 0 0 0 0 
0 0 0 0 0 0 0 0 0 0 0 0 0 0 0 0 0 0 0 0 0 0 21 83 88 88 0 62 51 12 54 58 65 64 65 63 63 59 62 62 68 70 70 70 72 72 69 71 71 70 72 73 71 73 73 71 66 65 63 63 63 63 62 62 65 69 68 69 69 71 70 69 67 69 66 63 63 61 57 60 65 69 68 68 63 62 52 57 57 58 54 57 63 21 36 68 17 51 88 88 52 0 0 0 0 0 0 0 0 0 0 0 0 0 0 0 0 0 0 0 0 0 0 0 0 0 0 0 
0 0 0 0 0 0 0 0 0 0 0 0 0 0 0 0 0 0 0 0 0 0 0 67 88 88 13 32 78 18 33 63 62 59 61 60 56 56 60 67 68 70 69 70 73 70 71 69 70 72 72 69 74 69 72 71 73 66 66 63 62 63 57 63 64 62 62 64 66 68 72 68 70 63 63 64 57 60 63 65 67 69 68 65 65 62 58 63 61 60 60 47 45 23 38 62 0 88 88 88 40 0 0 0 0 0 0 0 0 0 0 0 0 0 0 0 0 0 0 0 0 0 0 0 0 0 0 0 
0 0 0 0 0 0 0 0 0 0 0 0 0 0 0 0 0 0 0 0 0 0 0 26 87 88 40 12 77 44 15 51 58 59 55 56 57 63 65 69 68 65 70 69 74 71 65 68 72 72 68 72 71 72 71 71 70 69 68 65 65 63 49 53 41 53 58 59 64 70 69 69 67 63 56 53 62 63 67 68 68 65 65 64 63 62 62 62 60 63 62 55 36 11 55 43 3 88 88 80 23 0 0 0 0 0 0 0 0 0 0 0 0 0 0 0 0 0 0 0 0 0 0 0 0 0 0 0 
0 0 0 0 0 0 0 0 0 0 0 0 0 0 0 0 0 0 0 0 0 0 0 0 70 88 88 0 57 66 13 56 31 56 59 63 63 68 68 63 63 63 68 70 65 65 67 71 71 69 68 67 69 71 69 66 67 71 69 68 65 62 47 57 58 47 58 63 65 69 69 67 68 66 63 59 63 67 68 70 60 59 59 63 63 65 63 63 61 61 59 57 25 27 67 16 13 88 88 66 0 0 0 0 0 0 0 0 0 0 0 0 0 0 0 0 0 0 0 0 0 0 0 0 0 0 0 0 
0 0 0 0 0 0 0 0 0 0 0 0 0 0 0 0 0 0 0 0 0 0 0 0 47 88 88 26 23 77 31 11 44 61 63 66 67 63 60 59 62 67 71 65 68 66 66 70 71 67 62 66 68 68 69 64 65 66 69 66 62 60 54 63 65 60 63 63 69 70 70 69 69 68 64 56 60 64 67 68 63 42 57 59 58 57 59 59 60 55 63 47 17 44 57 0 88 88 88 59 0 0 0 0 0 0 0 0 0 0 0 0 0 0 0 0 0 0 0 0 0 0 0 0 0 0 0 0 
0 0 0 0 0 0 0 0 0 0 0 0 0 0 0 0 0 0 0 0 0 0 0 0 19 80 88 63 1 65 63 11 45 60 61 62 60 58 59 59 63 70 67 65 68 68 66 69 71 65 63 61 68 70 70 63 61 62 65 68 66 61 56 64 65 65 61 63 64 68 70 68 68 68 65 54 60 62 68 69 61 58 41 57 56 54 55 59 58 52 70 19 24 63 37 0 88 88 85 44 0 0 0 0 0 0 0 0 0 0 0 0 0 0 0 0 0 0 0 0 0 0 0 0 0 0 0 0 
0 0 0 0 0 0 0 0 0 0 0 0 0 0 0 0 0 0 0 0 0 0 0 0 0 62 88 88 0 37 80 20 27 56 62 58 57 53 60 66 67 67 65 63 66 68 69 66 67 66 63 60 65 68 70 64 63 43 67 68 64 63 58 63 66 64 64 63 65 68 70 70 66 70 65 63 60 60 62 69 63 63 42 49 48 54 59 61 57 52 39 16 39 61 6 36 88 88 73 15 0 0 0 0 0 0 0 0 0 0 0 0 0 0 0 0 0 0 0 0 0 0 0 0 0 0 0 0 
0 0 0 0 0 0 0 0 0 0 0 0 0 0 0 0 0 0 0 0 0 0 0 0 0 30 88 88 53 9 65 54 13 31 34 46 54 61 61 63 64 63 55 58 65 70 65 66 66 66 63 62 64 66 70 69 65 57 61 65 64 64 59 61 66 65 65 66 68 66 68 66 68 69 68 64 60 53 59 67 69 62 60 61 61 62 64 64 62 57 33 18 60 41 0 88 88 88 60 0 0 0 0 0 0 0 0 0 0 0 0 0 0 0 0 0 0 0 0 0 0 0 0 0 0 0 0 0 
0 0 0 0 0 0 0 0 0 0 0 0 0 0 0 0 0 0 0 0 0 0 0 0 0 0 84 88 88 0 40 63 26 18 33 44 55 61 61 61 59 55 54 60 67 69 67 65 63 67 62 62 65 69 66 66 66 62 59 63 66 62 56 62 63 64 65 65 67 67 66 66 60 64 67 68 66 60 61 64 71 67 65 65 68 65 60 60 58 54 25 30 63 14 9 88 88 77 29 0 0 0 0 0 0 0 0 0 0 0 0 0 0 0 0 0 0 0 0 0 0 0 0 0 0 0 0 0 
0 0 0 0 0 0 0 0 0 0 0 0 0 0 0 0 0 0 0 0 0 0 0 0 0 0 56 88 88 50 9 65 42 15 30 44 61 60 60 57 51 59 58 60 67 72 64 63 68 63 63 62 66 66 64 63 65 65 57 58 60 59 51 60 63 62 63 67 67 66 68 63 61 58 66 67 63 58 60 64 62 64 69 68 66 62 60 60 55 32 18 47 46 0 76 88 88 65 0 0 0 0 0 0 0 0 0 0 0 0 0 0 0 0 0 0 0 0 0 0 0 0 0 0 0 0 0 0 
0 0 0 0 0 0 0 0 0 0 0 0 0 0 0 0 0 0 0 0 0 0 0 0 0 0 28 88 88 88 0 34 58 18 18 42 60 61 58 48 58 59 64 58 70 67 64 62 63 63 61 64 67 66 62 61 63 62 52 54 63 48 43 59 60 61 63 65 63 61 65 64 60 53 62 68 65 54 56 60 60 63 62 63 65 60 58 50 45 14 34 59 16 13 88 88 88 41 0 0 0 0 0 0 0 0 0 0 0 0 0 0 0 0 0 0 0 0 0 0 0 0 0 0 0 0 0 0 
0 0 0 0 0 0 0 0 0 0 0 0 0 0 0 0 0 0 0 0 0 0 0 0 0 0 0 82 88 88 53 6 53 50 13 50 59 62 62 58 60 66 67 66 69 67 62 58 64 63 62 64 67 66 62 47 47 51 61 63 60 54 49 62 57 62 63 64 60 60 63 68 60 56 62 65 66 65 57 52 60 60 65 59 63 62 57 40 21 25 48 38 0 75 88 88 75 12 0 0 0 0 0 0 0 0 0 0 0 0 0 0 0 0 0 0 0 0 0 0 0 0 0 0 0 0 0 0 
0 0 0 0 0 0 0 0 0 0 0 0 0 0 0 0 0 0 0 0 0 0 0 0 0 0 0 54 88 88 88 0 22 57 30 23 59 63 65 67 68 66 67 67 67 62 54 58 57 63 60 66 67 63 59 27 57 65 64 66 63 59 44 63 62 62 63 62 59 61 63 66 62 54 61 64 67 63 65 59 63 64 67 63 62 60 57 29 20 43 54 13 23 88 85 85 44 0 0 0 0 0 0 0 0 0 0 0 0 0 0 0 0 0 0 0 0 0 0 0 0 0 0 0 0 0 0 0 
0 0 0 0 0 0 0 0 0 0 0 0 0 0 0 0 0 0 0 0 0 0 0 0 0 0 0 22 88 88 88 88 0 38 50 17 36 61 62 64 64 64 64 72 65 59 46 61 63 61 63 65 66 64 58 62 63 69 66 66 64 58 52 66 63 59 58 61 54 60 63 65 60 51 59 62 65 65 64 63 64 66 63 62 58 59 43 19 38 54 25 1 88 88 86 55 0 0 0 0 0 0 0 0 0 0 0 0 0 0 0 0 0 0 0 0 0 0 0 0 0 0 0 0 0 0 0 0 
0 0 0 0 0 0 0 0 0 0 0 0 0 0 0 0 0 0 0 0 0 0 0 0 0 0 0 0 64 88 88 88 40 6 50 41 16 41 60 60 63 58 62 69 64 60 43 63 61 64 67 67 66 64 62 62 63 63 67 65 63 56 62 64 61 59 51 37 60 62 65 63 63 55 58 59 63 64 63 63 64 62 62 60 59 47 23 23 51 39 3 70 88 88 69 11 0 0 0 0 0 0 0 0 0 0 0 0 0 0 0 0 0 0 0 0 0 0 0 0 0 0 0 0 0 0 0 0 
0 0 0 0 0 0 0 0 0 0 0 0 0 0 0 0 0 0 0 0 0 0 0 0 0 0 0 0 35 88 88 88 88 8 13 53 36 18 43 53 47 50 63 67 66 60 56 63 64 65 66 67 65 63 66 63 65 63 67 63 55 43 65 64 63 58 54 57 62 64 64 63 63 60 51 57 62 61 66 65 61 60 53 48 48 26 21 44 45 3 28 71 88 88 41 0 0 0 0 0 0 0 0 0 0 0 0 0 0 0 0 0 0 0 0 0 0 0 0 0 0 0 0 0 0 0 0 0 
0 0 0 0 0 0 0 0 0 0 0 0 0 0 0 0 0 0 0 0 0 0 0 0 0 0 0 0 0 68 88 88 88 88 7 19 45 36 24 26 36 48 61 61 63 61 54 61 61 63 60 61 64 65 66 63 65 64 62 58 55 49 62 64 67 63 62 63 66 66 65 64 63 60 42 58 61 60 63 67 60 60 52 52 31 22 48 45 16 33 88 88 88 75 14 0 0 0 0 0 0 0 0 0 0 0 0 0 0 0 0 0 0 0 0 0 0 0 0 0 0 0 0 0 0 0 0 0 
0 0 0 0 0 0 0 0 0 0 0 0 0 0 0 0 0 0 0 0 0 0 0 0 0 0 0 0 0 29 83 88 88 88 86 0 25 55 37 25 27 33 54 58 62 60 51 42 61 64 63 61 61 64 64 65 67 67 64 63 57 48 64 67 65 64 65 65 65 63 67 64 61 62 50 58 58 59 61 63 61 57 47 31 31 26 31 19 7 88 88 88 88 54 0 0 0 0 0 0 0 0 0 0 0 0 0 0 0 0 0 0 0 0 0 0 0 0 0 0 0 0 0 0 0 0 0 0 
0 0 0 0 0 0 0 0 0 0 0 0 0 0 0 0 0 0 0 0 0 0 0 0 0 0 0 0 0 0 39 81 88 88 88 88 4 31 48 43 30 28 45 55 52 52 57 59 61 64 64 60 64 61 65 67 65 63 65 64 57 55 63 68 65 65 65 65 60 57 62 62 60 52 45 44 55 60 60 59 56 48 34 25 25 23 7 25 88 88 88 81 81 34 0 0 0 0 0 0 0 0 0 0 0 0 0 0 0 0 0 0 0 0 0 0 0 0 0 0 0 0 0 0 0 0 0 0 
0 0 0 0 0 0 0 0 0 0 0 0 0 0 0 0 0 0 0 0 0 0 0 0 0 0 0 0 0 0 0 33 82 88 88 88 88 12 31 48 45 34 48 55 74 68 65 64 63 63 65 63 62 64 64 64 63 63 65 63 56 61 63 64 64 50 58 57 56 59 61 62 59 38 31 32 42 52 59 59 49 28 29 29 25 23 54 88 88 88 80 84 58 0 0 0 0 0 0 0 0 0 0 0 0 0 0 0 0 0 0 0 0 0 0 0 0 0 0 0 0 0 0 0 0 0 0 0 
0 0 0 0 0 0 0 0 0 0 0 0 0 0 0 0 0 0 0 0 0 0 0 0 0 0 0 0 0 0 0 0 29 75 87 85 88 88 14 27 59 52 40 35 51 55 63 62 61 65 64 64 62 62 65 62 63 63 64 63 53 62 62 66 61 50 51 53 58 55 52 44 27 29 49 52 57 60 59 48 31 29 30 27 21 51 88 88 84 88 87 65 15 0 0 0 0 0 0 0 0 0 0 0 0 0 0 0 0 0 0 0 0 0 0 0 0 0 0 0 0 0 0 0 0 0 0 0 
0 0 0 0 0 0 0 0 0 0 0 0 0 0 0 0 0 0 0 0 0 0 0 0 0 0 0 0 0 0 0 0 0 26 71 87 88 88 88 25 23 48 38 40 44 40 53 58 63 61 63 62 56 61 62 61 63 63 62 54 47 56 60 61 59 56 63 63 62 61 59 53 66 38 30 35 56 69 57 49 40 22 25 29 42 88 88 88 88 85 65 24 0 0 0 0 0 0 0 0 0 0 0 0 0 0 0 0 0 0 0 0 0 0 0 0 0 0 0 0 0 0 0 0 0 0 0 0 
0 0 0 0 0 0 0 0 0 0 0 0 0 0 0 0 0 0 0 0 0 0 0 0 0 0 0 0 0 0 0 0 0 0 20 62 87 80 88 88 31 12 42 59 41 45 34 37 43 58 57 61 58 61 54 56 58 60 55 42 71 45 56 70 51 62 63 62 63 65 63 61 62 88 41 40 35 40 43 34 26 30 23 44 88 88 79 82 77 51 15 0 0 0 0 0 0 0 0 0 0 0 0 0 0 0 0 0 0 0 0 0 0 0 0 0 0 0 0 0 0 0 0 0 0 0 0 0 
0 0 0 0 0 0 0 0 0 0 0 0 0 0 0 0 0 0 0 0 0 0 0 0 0 0 0 0 0 0 0 0 0 0 0 11 58 86 79 88 88 54 14 18 38 37 32 32 24 39 55 59 69 58 64 61 61 47 51 71 81 65 42 68 54 63 59 57 59 61 63 61 48 66 32 21 44 28 31 29 21 30 65 88 88 85 88 65 41 0 0 0 0 0 0 0 0 0 0 0 0 0 0 0 0 0 0 0 0 0 0 0 0 0 0 0 0 0 0 0 0 0 0 0 0 0 0 0 
0 0 0 0 0 0 0 0 0 0 0 0 0 0 0 0 0 0 0 0 0 0 0 0 0 0 0 0 0 0 0 0 0 0 0 0 0 49 85 79 88 88 88 35 20 12 44 20 50 61 68 66 67 66 59 65 78 41 58 82 68 74 31 79 64 57 63 64 58 55 48 50 41 42 41 37 27 34 26 23 48 59 88 88 82 78 57 23 0 0 0 0 0 0 0 0 0 0 0 0 0 0 0 0 0 0 0 0 0 0 0 0 0 0 0 0 0 0 0 0 0 0 0 0 0 0 0 0 
0 0 0 0 0 0 0 0 0 0 0 0 0 0 0 0 0 0 0 0 0 0 0 0 0 0 0 0 0 0 0 0 0 0 0 0 0 0 38 75 76 86 88 88 40 30 23 28 12 19 33 48 45 42 40 45 50 36 66 58 52 74 32 47 44 34 51 49 41 45 42 31 37 40 30 21 27 29 31 58 88 88 88 77 73 46 0 0 0 0 0 0 0 0 0 0 0 0 0 0 0 0 0 0 0 0 0 0 0 0 0 0 0 0 0 0 0 0 0 0 0 0 0 0 0 0 0 0 
0 0 0 0 0 0 0 0 0 0 0 0 0 0 0 0 0 0 0 0 0 0 0 0 0 0 0 0 0 0 0 0 0 0 0 0 0 0 0 32 68 87 73 88 88 88 88 46 36 22 30 41 42 47 43 50 65 61 53 59 67 67 57 58 60 47 49 48 41 19 20 14 28 34 32 35 35 47 72 88 88 80 69 71 34 0 0 0 0 0 0 0 0 0 0 0 0 0 0 0 0 0 0 0 0 0 0 0 0 0 0 0 0 0 0 0 0 0 0 0 0 0 0 0 0 0 0 0 
0 0 0 0 0 0 0 0 0 0 0 0 0 0 0 0 0 0 0 0 0 0 0 0 0 0 0 0 0 0 0 0 0 0 0 0 0 0 0 0 17 45 78 67 84 88 88 88 81 58 33 29 30 33 36 43 46 52 56 52 53 52 55 52 56 53 51 42 40 34 35 35 37 38 55 63 83 84 88 72 75 67 53 27 0 0 0 0 0 0 0 0 0 0 0 0 0 0 0 0 0 0 0 0 0 0 0 0 0 0 0 0 0 0 0 0 0 0 0 0 0 0 0 0 0 0 0 0 
0 0 0 0 0 0 0 0 0 0 0 0 0 0 0 0 0 0 0 0 0 0 0 0 0 0 0 0 0 0 0 0 0 0 0 0 0 0 0 0 0 0 26 59 67 67 76 88 88 88 84 53 53 49 38 46 35 37 39 43 34 38 42 37 38 35 37 40 41 43 48 56 65 83 87 88 82 71 58 67 60 35 13 0 0 0 0 0 0 0 0 0 0 0 0 0 0 0 0 0 0 0 0 0 0 0 0 0 0 0 0 0 0 0 0 0 0 0 0 0 0 0 0 0 0 0 0 0 
0 0 0 0 0 0 0 0 0 0 0 0 0 0 0 0 0 0 0 0 0 0 0 0 0 0 0 0 0 0 0 0 0 0 0 0 0 0 0 0 0 0 0 12 42 61 73 65 66 65 66 73 75 88 88 88 88 88 82 88 86 86 82 82 81 73 72 84 76 81 80 77 85 74 73 66 63 63 58 35 12 0 0 0 0 0 0 0 0 0 0 0 0 0 0 0 0 0 0 0 0 0 0 0 0 0 0 0 0 0 0 0 0 0 0 0 0 0 0 0 0 0 0 0 0 0 0 0 
0 0 0 0 0 0 0 0 0 0 0 0 0 0 0 0 0 0 0 0 0 0 0 0 0 0 0 0 0 0 0 0 0 0 0 0 0 0 0 0 0 0 0 0 0 20 33 53 62 61 63 63 60 65 73 88 88 88 88 88 88 88 88 88 88 86 88 78 77 68 69 63 62 61 62 60 53 31 0 0 0 0 0 0 0 0 0 0 0 0 0 0 0 0 0 0 0 0 0 0 0 0 0 0 0 0 0 0 0 0 0 0 0 0 0 0 0 0 0 0 0 0 0 0 0 0 0 0 
0 0 0 0 0 0 0 0 0 0 0 0 0 0 0 0 0 0 0 0 0 0 0 0 0 0 0 0 0 0 0 0 0 0 0 0 0 0 0 0 0 0 0 0 0 0 0 0 19 23 29 39 55 60 65 66 59 68 59 57 61 63 63 60 58 60 56 61 58 53 57 58 55 45 36 21 0 0 0 0 0 0 0 0 0 0 0 0 0 0 0 0 0 0 0 0 0 0 0 0 0 0 0 0 0 0 0 0 0 0 0 0 0 0 0 0 0 0 0 0 0 0 0 0 0 0 0 0 
0 0 0 0 0 0 0 0 0 0 0 0 0 0 0 0 0 0 0 0 0 0 0 0 0 0 0 0 0 0 0 0 0 0 0 0 0 0 0 0 0 0 0 0 0 0 0 0 0 0 0 0 0 16 31 53 64 68 67 69 64 61 67 63 59 47 47 39 39 27 28 21 14 0 0 0 0 0 0 0 0 0 0 0 0 0 0 0 0 0 0 0 0 0 0 0 0 0 0 0 0 0 0 0 0 0 0 0 0 0 0 0 0 0 0 0 0 0 0 0 0 0 0 0 0 0 0 0 
0 0 0 0 0 0 0 0 0 0 0 0 0 0 0 0 0 0 0 0 0 0 0 0 0 0 0 0 0 0 0 0 0 0 0 0 0 0 0 0 0 0 0 0 0 0 0 0 0 0 0 0 0 0 0 0 13 14 15 13 13 0 11 13 0 0 0 0 0 0 0 0 0 0 0 0 0 0 0 0 0 0 0 0 0 0 0 0 0 0 0 0 0 0 0 0 0 0 0 0 0 0 0 0 0 0 0 0 0 0 0 0 0 0 0 0 0 0 0 0 0 0 0 0 0 0 0 0 
0 0 0 0 0 0 0 0 0 0 0 0 0 0 0 0 0 0 0 0 0 0 0 0 0 0 0 0 0 0 0 0 0 0 0 0 0 0 0 0 0 0 0 0 0 0 0 0 0 0 0 0 0 0 0 0 0 0 0 0 0 0 0 0 0 0 0 0 0 0 0 0 0 0 0 0 0 0 0 0 0 0 0 0 0 0 0 0 0 0 0 0 0 0 0 0 0 0 0 0 0 0 0 0 0 0 0 0 0 0 0 0 0 0 0 0 0 0 0 0 0 0 0 0 0 0 0 0 
0 0 0 0 0 0 0 0 0 0 0 0 0 0 0 0 0 0 0 0 0 0 0 0 0 0 0 0 0 0 0 0 0 0 0 0 0 0 0 0 0 0 0 0 0 0 0 0 0 0 0 0 0 0 0 0 0 0 0 0 0 0 0 0 0 0 0 0 0 0 0 0 0 0 0 0 0 0 0 0 0 0 0 0 0 0 0 0 0 0 0 0 0 0 0 0 0 0 0 0 0 0 0 0 0 0 0 0 0 0 0 0 0 0 0 0 0 0 0 0 0 0 0 0 0 0 0 0 
0 0 0 0 0 0 0 0 0 0 0 0 0 0 0 0 0 0 0 0 0 0 0 0 0 0 0 0 0 0 0 0 0 0 0 0 0 0 0 0 0 0 0 0 0 0 0 0 0 0 0 0 0 0 0 0 0 0 0 0 0 0 0 0 0 0 0 0 0 0 0 0 0 0 0 0 0 0 0 0 0 0 0 0 0 0 0 0 0 0 0 0 0 0 0 0 0 0 0 0 0 0 0 0 0 0 0 0 0 0 0 0 0 0 0 0 0 0 0 0 0 0 0 0 0 0 0 0 
0 0 0 0 0 0 0 0 0 0 0 0 0 0 0 0 0 0 0 0 0 0 0 0 0 0 0 0 0 0 0 0 0 0 0 0 0 0 0 0 0 0 0 0 0 0 0 0 0 0 0 0 0 0 0 0 0 0 0 0 0 0 0 0 0 0 0 0 0 0 0 0 0 0 0 0 0 0 0 0 0 0 0 0 0 0 0 0 0 0 0 0 0 0 0 0 0 0 0 0 0 0 0 0 0 0 0 0 0 0 0 0 0 0 0 0 0 0 0 0 0 0 0 0 0 0 0 0 
0 0 0 0 0 0 0 0 0 0 0 0 0 0 0 0 0 0 0 0 0 0 0 0 0 0 0 0 0 0 0 0 0 0 0 0 0 0 0 0 0 0 0 0 0 0 0 0 0 0 0 0 0 0 0 0 0 0 0 0 0 0 0 0 0 0 0 0 0 0 0 0 0 0 0 0 0 0 0 0 0 0 0 0 0 0 0 0 0 0 0 0 0 0 0 0 0 0 0 0 0 0 0 0 0 0 0 0 0 0 0 0 0 0 0 0 0 0 0 0 0 0 0 0 0 0 0 0 
