P2
128 128
88
0 0 0 0 0 0 0 0 0 0 0 0 0 0 0 0 0 0 0 0 0 0 0 0 0 0 0 0 0 0 0 0 0 0 0 0 0 0 0 0 0 0 0 0 0 0 0 0 0 0 0 0 0 0 0 0 0 0 0 0 0 0 0 0 0 0 0 0 0 0 0 0 0 0 0 0 0 0 0 0 0 0 0 0 0 0 0 0 0 0 0 0 0 0 0 0 0 0 0 0 0 0 0 0 0 0 0 0 0 0 0 0 0 0 0 0 0 0 0 0 0 0 0 0 0 0 0 0 
0 0 0 0 0 0 0 0 0 0 0 0 0 0 0 0 0 0 0 0 0 0 0 0 0 0 0 0 0 0 0 0 0 0 0 0 0 0 0 0 0 0 0 0 0 0 0 0 0 0 0 0 0 0 0 0 0 0 0 0 0 0 0 0 0 0 0 0 0 0 0 0 0 0 0 0 0 0 0 0 0 0 0 0 0 0 0 0 0 0 0 0 0 0 0 0 0 0 0 0 0 0 0 0 0 0 0 0 0 0 0 0 0 0 0 0 0 0 0 0 0 0 0 0 0 0 0 0 
0 0 0 0 0 0 0 0 0 0 0 0 0 0 0 0 0 0 0 0 0 0 0 0 0 0 0 0 0 0 0 0 0 0 0 0 0 0 0 0 0 0 0 0 0 0 0 0 0 0 0 0 0 0 0 0 0 0 0 0 0 0 0 0 0 0 0 0 0 0 0 0 0 0 0 0 0 0 0 0 0 0 0 0 0 0 0 0 0 0 0 0 0 0 0 0 0 0 0 0 0 0 0 0 0 0 0 0 0 0 0 0 0 0 0 0 0 0 0 0 0 0 0 0 0 0 0 0 
0 0 0 0 0 0 0 0 0 0 0 0 0 0 0 0 0 0 0 0 0 0 0 0 0 0 0 0 0 0 0 0 0 0 0 0 0 0 0 0 0 0 0 0 0 0 0 0 0 0 0 0 0 0 0 0 0 0 0 0 0 0 0 0 0 0 0 0 0 0 0 0 0 0 0 0 0 0 0 0 0 0 0 0 0 0 0 0 0 0 0 0 0 0 0 0 0 0 0 0 0 0 0 0 0 0 0 0 0 0 0 0 0 0 0 0 0 0 0 0 0 0 0 0 0 0 0 0 
0 0 0 0 0 0 0 0 0 0 0 0 0 0 0 0 0 0 0 0 0 0 0 0 0 0 0 0 0 0 0 0 0 0 0 0 0 0 0 0 0 0 0 0 0 0 0 0 0 0 0 0 0 0 0 0 0 0 0 0 0 0 0 0 0 0 0 0 0 0 0 0 0 0 0 0 0 0 0 0 0 0 0 0 0 0 0 0 0 0 0 0 0 0 0 0 0 0 0 0 0 0 0 0 0 0 0 0 0 0 0 0 0 0 0 0 0 0 0 0 0 0 0 0 0 0 0 0 
0 0 0 0 0 0 0 0 0 0 0 0 0 0 0 0 0 0 0 0 0 0 0 0 0 0 0 0 0 0 0 0 0 0 0 0 0 0 0 0 0 0 0 0 0 0 0 0 0 0 0 0 0 0 0 0 0 0 0 0 0 0 0 0 0 0 0 0 0 0 0 0 0 0 0 0 0 0 0 0 0 0 0 0 0 0 0 0 0 0 0 0 0 0 0 0 0 0 0 0 0 0 0 0 0 0 0 0 0 0 0 0 0 0 0 0 0 0 0 0 0 0 0 0 0 0 0 0 
0 0 0 0 0 0 0 0 0 0 0 0 0 0 0 0 0 0 0 0 0 0 0 0 0 0 0 0 0 0 0 0 0 0 0 0 0 0 0 0 0 0 0 0 0 0 0 0 0 0 0 0 0 0 0 0 0 0 0 0 0 0 0 0 0 0 0 0 0 0 0 0 0 0 0 0 0 0 0 0 0 0 0 0 0 0 0 0 0 0 0 0 0 0 0 0 0 0 0 0 0 0 0 0 0 0 0 0 0 0 0 0 0 0 0 0 0 0 0 0 0 0 0 0 0 0 0 0 
0 0 0 0 0 0 0 0 0 0 0 0 0 0 0 0 0 0 0 0 0 0 0 0 0 0 0 0 0 0 0 0 0 0 0 0 0 0 0 0 0 0 0 0 0 0 0 0 0 0 0 0 0 0 0 0 0 0 0 0 0 0 0 0 0 0 0 0 0 0 0 0 0 0 0 0 0 0 0 0 0 0 0 0 0 0 0 0 0 0 0 0 0 0 0 0 0 0 0 0 0 0 0 0 0 0 0 0 0 0 0 0 0 0 0 0 0 0 0 0 0 0 0 0 0 0 0 0 
0 0 0 0 0 0 0 0 0 0 0 0 0 0 0 0 0 0 0 0 0 0 0 0 0 0 0 0 0 0 0 0 0 0 0 0 0 0 0 0 0 0 0 0 0 0 0 0 0 0 0 0 0 0 0 0 0 0 0 0 0 0 0 0 0 0 0 0 0 0 0 0 0 0 0 0 0 0 0 0 0 0 0 0 0 0 0 0 0 0 0 0 0 0 0 0 0 0 0 0 0 0 0 0 0 0 0 0 0 0 0 0 0 0 0 0 0 0 0 0 0 0 0 0 0 0 0 0 
0 0 0 0 0 0 0 0 0 0 0 0 0 0 0 0 0 0 0 0 0 0 0 0 0 0 0 0 0 0 0 0 0 0 0 0 0 0 0 0 0 0 0 0 0 0 0 0 0 0 0 0 0 0 0 0 0 0 0 0 0 0 0 0 0 0 0 0 0 0 0 0 0 0 0 0 0 0 0 0 0 0 0 0 0 0 0 0 0 0 0 0 0 0 0 0 0 0 0 0 0 0 0 0 0 0 0 0 0 0 0 0 0 0 0 0 0 0 0 0 0 0 0 0 0 0 0 0 
0 0 0 0 0 0 0 0 0 0 0 0 0 0 0 0 0 0 0 0 0 0 0 0 0 0 0 0 0 0 0 0 0 0 0 0 0 0 0 0 0 0 0 0 0 0 0 0 0 0 0 0 0 0 0 0 0 0 0 0 0 0 0 0 0 0 0 0 0 0 0 0 0 0 0 0 0 0 0 0 0 0 0 0 0 0 0 0 0 0 0 0 0 0 0 0 0 0 0 0 0 0 0 0 0 0 0 0 0 0 0 0 0 0 0 0 0 0 0 0 0 0 0 0 0 0 0 0 
0 0 0 0 0 0 0 0 0 0 0 0 0 0 0 0 0 0 0 0 0 0 0 0 0 0 0 0 0 0 0 0 0 0 0 0 0 0 0 0 0 0 0 0 0 0 0 0 0 0 0 0 0 0 0 0 0 0 0 0 0 0 0 0 0 0 0 0 0 0 0 0 0 0 0 0 0 0 0 0 0 0 0 0 0 0 0 0 0 0 0 0 0 0 0 0 0 0 0 0 0 0 0 0 0 0 0 0 0 0 0 0 0 0 0 0 0 0 0 0 0 0 0 0 0 0 0 0 
0 0 0 0 0 0 0 0 0 0 0 0 0 0 0 0 0 0 0 0 0 0 0 0 0 0 0 0 0 0 0 0 0 0 0 0 0 0 0 0 0 0 0 0 0 0 0 0 0 0 0 0 0 0 0 0 0 0 0 0 0 0 0 0 0 0 0 0 0 0 0 0 0 0 0 0 0 0 0 0 0 0 0 0 0 0 0 0 0 0 0 0 0 0 0 0 0 0 0 0 0 0 0 0 0 0 0 0 0 0 0 0 0 0 0 0 0 0 0 0 0 0 0 0 0 0 0 0 
0 0 0 0 0 0 0 0 0 0 0 0 0 0 0 0 0 0 0 0 0 0 0 0 0 0 0 0 0 0 0 0 0 0 0 0 0 0 0 0 0 0 0 0 0 0 0 0 0 0 0 0 0 0 0 0 0 0 0 0 0 0 0 0 0 0 0 0 0 0 0 0 0 0 0 0 0 0 0 0 0 0 0 0 0 0 0 0 0 0 0 0 0 0 0 0 0 0 0 0 0 0 0 0 0 0 0 0 0 0 0 0 0 0 0 0 0 0 0 0 0 0 0 0 0 0 0 0 
0 0 0 0 0 0 0 0 0 0 0 0 0 0 0 0 0 0 0 0 0 0 0 0 0 0 0 0 0 0 0 0 0 0 0 0 0 0 0 0 0 0 0 0 0 0 0 0 0 0 0 0 0 0 0 0 0 0 0 0 0 0 0 0 0 0 0 0 0 0 0 0 0 0 0 0 0 0 0 0 0 0 0 0 0 0 0 0 0 0 0 0 0 0 0 0 0 0 0 0 0 0 0 0 0 0 0 0 0 0 0 0 0 0 0 0 0 0 0 0 0 0 0 0 0 0 0 0 
0 0 0 0 0 0 0 0 0 0 0 0 0 0 0 0 0 0 0 0 0 0 0 0 0 0 0 0 0 0 0 0 0 0 0 0 0 0 0 0 0 0 0 0 0 0 0 0 0 0 0 0 0 0 0 0 0 0 0 0 0 0 0 0 0 0 0 0 0 0 0 0 0 0 0 0 0 0 0 0 0 0 0 0 0 0 0 0 0 0 0 0 0 0 0 0 0 0 0 0 0 0 0 0 0 0 0 0 0 0 0 0 0 0 0 0 0 0 0 0 0 0 0 0 0 0 0 0 
0 0 0 0 0 0 0 0 0 0 0 0 0 0 0 0 0 0 0 0 0 0 0 0 0 0 0 0 0 0 0 0 0 0 0 0 0 0 0 0 0 0 0 0 0 0 0 0 0 0 0 0 0 0 0 0 0 0 0 0 0 0 0 0 0 0 0 0 0 0 0 0 0 0 0 0 0 0 0 0 0 0 0 0 0 0 0 0 0 0 0 0 0 0 0 0 0 0 0 0 0 0 0 0 0 0 0 0 0 0 0 0 0 0 0 0 0 0 0 0 0 0 0 0 0 0 0 0 
0 0 0 0 0 0 0 0 0 0 0 0 0 0 0 0 0 0 0 0 0 0 0 0 0 0 0 0 0 0 0 0 0 0 0 0 0 0 0 0 0 0 0 0 0 0 0 0 0 0 0 0 0 0 0 0 0 0 0 0 0 0 0 0 0 0 0 0 0 0 0 0 0 0 0 0 0 0 0 0 0 0 0 0 0 0 0 0 0 0 0 0 0 0 0 0 0 0 0 0 0 0 0 0 0 0 0 0 0 0 0 0 0 0 0 0 0 0 0 0 0 0 0 0 0 0 0 0 
0 0 0 0 0 0 0 0 0 0 0 0 0 0 0 0 0 0 0 0 0 0 0 0 0 0 0 0 0 0 0 0 0 0 0 0 0 0 0 0 0 0 0 0 0 0 0 0 0 0 0 0 0 0 0 0 0 0 0 0 0 0 0 0 0 0 0 0 0 0 0 0 0 0 0 0 0 0 0 0 0 0 0 0 0 0 0 0 0 0 0 0 0 0 0 0 0 0 0 0 0 0 0 0 0 0 0 0 0 0 0 0 0 0 0 0 0 0 0 0 0 0 0 0 0 0 0 0 
0 0 0 0 0 0 0 0 0 0 0 0 0 0 0 0 0 0 0 0 0 0 0 0 0 0 0 0 0 0 0 0 0 0 0 0 0 0 0 0 0 0 0 0 0 0 0 0 0 0 0 0 0 0 0 0 0 0 0 0 0 0 0 0 0 0 0 0 0 0 0 0 0 0 0 0 0 0 0 0 0 0 0 0 0 0 0 0 0 0 0 0 0 0 0 0 0 0 0 0 0 0 0 0 0 0 0 0 0 0 0 0 0 0 0 0 0 0 0 0 0 0 0 0 0 0 0 0 
0 0 0 0 0 0 0 0 0 0 0 0 0 0 0 0 0 0 0 0 0 0 0 0 0 0 0 0 0 0 0 0 0 0 0 0 0 0 0 0 0 0 0 0 0 0 0 0 0 0 0 0 0 0 0 0 0 0 0 0 0 0 0 0 0 0 0 0 0 0 0 0 0 0 0 0 0 0 0 0 0 0 0 0 0 0 0 0 0 0 0 0 0 0 0 0 0 0 0 0 0 0 0 0 0 0 0 0 0 0 0 0 0 0 0 0 0 0 0 0 0 0 0 0 0 0 0 0 
0 0 0 0 0 0 0 0 0 0 0 0 0 0 0 0 0 0 0 0 0 0 0 0 0 0 0 0 0 0 0 0 0 0 0 0 0 0 0 0 0 0 0 0 0 0 0 0 0 0 0 0 0 0 0 0 12 24 34 40 41 40 33 28 22 16 0 0 0 0 0 0 0 0 0 0 0 0 0 0 0 0 0 0 0 0 0 0 0 0 0 0 0 0 0 0 0 0 0 0 0 0 0 0 0 0 0 0 0 0 0 0 0 0 0 0 0 0 0 0 0 0 0 0 0 0 0 0 
0 0 0 0 0 0 0 0 0 0 0 0 0 0 0 0 0 0 0 0 0 0 0 0 0 0 0 0 0 0 0 0 0 0 0 0 0 0 0 0 0 0 0 0 0 0 0 0 0 0 0 0 0 13 26 45 71 88 88 88 88 88 88 88 88 74 56 46 27 13 0 0 0 0 0 0 0 0 0 0 0 0 0 0 0 0 0 0 0 0 0 0 0 0 0 0 0 0 0 0 0 0 0 0 0 0 0 0 0 0 0 0 0 0 0 0 0 0 0 0 0 0 0 0 0 0 0 0 
0 0 0 0 0 0 0 0 0 0 0 0 0 0 0 0 0 0 0 0 0 0 0 0 0 0 0 0 0 0 0 0 0 0 0 0 0 0 0 0 0 0 0 0 0 0 0 0 0 0 0 19 42 64 88 88 88 88 88 88 88 88 88 88 88 88 88 88 88 70 40 19 0 0 0 0 0 0 0 0 0 0 0 0 0 0 0 0 0 0 0 0 0 0 0 0 0 0 0 0 0 0 0 0 0 0 0 0 0 0 0 0 0 0 0 0 0 0 0 0 0 0 0 0 0 0 0 0 
0 0 0 0 0 0 0 0 0 0 0 0 0 0 0 0 0 0 0 0 0 0 0 0 0 0 0 0 0 0 0 0 0 0 0 0 0 0 0 0 0 0 0 0 0 0 0 0 0 20 36 72 88 88 88 88 88 88 80 76 75 73 67 70 88 88 88 88 88 88 88 80 48 26 0 0 0 0 0 0 0 0 0 0 0 0 0 0 0 0 0 0 0 0 0 0 0 0 0 0 0 0 0 0 0 0 0 0 0 0 0 0 0 0 0 0 0 0 0 0 0 0 0 0 0 0 0 0 
0 0 0 0 0 0 0 0 0 0 0 0 0 0 0 0 0 0 0 0 0 0 0 0 0 0 0 0 0 0 0 0 0 0 0 0 0 0 0 0 0 0 0 0 0 0 0 16 35 51 88 88 88 88 88 69 44 38 30 25 25 24 23 24 26 31 44 62 88 88 88 88 88 88 59 28 0 0 0 0 0 0 0 0 0 0 0 0 0 0 0 0 0 0 0 0 0 0 0 0 0 0 0 0 0 0 0 0 0 0 0 0 0 0 0 0 0 0 0 0 0 0 0 0 0 0 0 0 
0 0 0 0 0 0 0 0 0 0 0 0 0 0 0 0 0 0 0 0 0 0 0 0 0 0 0 0 0 0 0 0 0 0 0 0 0 0 0 0 0 0 0 0 0 0 34 66 81 88 88 88 88 54 33 23 27 27 36 46 48 47 36 38 38 39 31 25 25 50 81 88 88 88 88 84 43 13 0 0 0 0 0 0 0 0 0 0 0 0 0 0 0 0 0 0 0 0 0 0 0 0 0 0 0 0 0 0 0 0 0 0 0 0 0 0 0 0 0 0 0 0 0 0 0 0 0 0 
0 0 0 0 0 0 0 0 0 0 0 0 0 0 0 0 0 0 0 0 0 0 0 0 0 0 0 0 0 0 0 0 0 0 0 0 0 0 0 0 0 0 0 0 14 39 70 88 88 88 88 60 32 25 32 48 57 65 67 63 59 43 36 35 49 55 56 54 42 34 28 44 75 88 88 88 88 60 24 0 0 0 0 0 0 0 0 0 0 0 0 0 0 0 0 0 0 0 0 0 0 0 0 0 0 0 0 0 0 0 0 0 0 0 0 0 0 0 0 0 0 0 0 0 0 0 0 0 
0 0 0 0 0 0 0 0 0 0 0 0 0 0 0 0 0 0 0 0 0 0 0 0 0 0 0 0 0 0 0 0 0 0 0 0 0 0 0 0 0 0 0 15 47 88 88 88 88 77 37 29 45 50 62 61 71 66 50 29 31 17 32 20 23 34 48 59 66 65 54 40 35 51 88 88 88 88 72 26 0 0 0 0 0 0 0 0 0 0 0 0 0 0 0 0 0 0 0 0 0 0 0 0 0 0 0 0 0 0 0 0 0 0 0 0 0 0 0 0 0 0 0 0 0 0 0 0 
0 0 0 0 0 0 0 0 0 0 0 0 0 0 0 0 0 0 0 0 0 0 0 0 0 0 0 0 0 0 0 0 0 0 0 0 0 0 0 0 0 0 13 53 88 88 88 80 50 31 43 56 70 71 74 66 57 33 19 12 35 58 33 13 41 24 21 30 48 69 72 65 47 41 36 65 88 88 88 74 29 0 0 0 0 0 0 0 0 0 0 0 0 0 0 0 0 0 0 0 0 0 0 0 0 0 0 0 0 0 0 0 0 0 0 0 0 0 0 0 0 0 0 0 0 0 0 0 
0 0 0 0 0 0 0 0 0 0 0 0 0 0 0 0 0 0 0 0 0 0 0 0 0 0 0 0 0 0 0 0 0 0 0 0 0 0 0 0 0 13 52 88 88 88 60 41 35 50 65 72 65 57 47 36 22 19 20 32 37 58 16 23 55 28 24 16 20 37 53 67 72 60 40 30 53 88 88 88 80 26 0 0 0 0 0 0 0 0 0 0 0 0 0 0 0 0 0 0 0 0 0 0 0 0 0 0 0 0 0 0 0 0 0 0 0 0 0 0 0 0 0 0 0 0 0 0 
0 0 0 0 0 0 0 0 0 0 0 0 0 0 0 0 0 0 0 0 0 0 0 0 0 0 0 0 0 0 0 0 0 0 0 0 0 0 0 0 0 51 88 88 88 62 32 37 56 74 70 54 47 36 25 18 19 18 46 31 36 39 33 19 43 35 47 32 18 14 25 46 55 67 66 47 35 37 88 88 88 76 24 0 0 0 0 0 0 0 0 0 0 0 0 0 0 0 0 0 0 0 0 0 0 0 0 0 0 0 0 0 0 0 0 0 0 0 0 0 0 0 0 0 0 0 0 0 
0 0 0 0 0 0 0 0 0 0 0 0 0 0 0 0 0 0 0 0 0 0 0 0 0 0 0 0 0 0 0 0 0 0 0 0 0 0 0 0 37 85 88 88 71 29 38 65 73 60 42 34 20 16 13 26 33 44 35 34 31 31 35 20 38 52 57 56 36 23 20 18 27 40 59 70 53 33 48 88 88 88 66 21 0 0 0 0 0 0 0 0 0 0 0 0 0 0 0 0 0 0 0 0 0 0 0 0 0 0 0 0 0 0 0 0 0 0 0 0 0 0 0 0 0 0 0 0 
0 0 0 0 0 0 0 0 0 0 0 0 0 0 0 0 0 0 0 0 0 0 0 0 0 0 0 0 0 0 0 0 0 0 0 0 0 0 0 22 85 88 88 71 31 37 65 67 61 44 24 16 15 18 24 34 33 50 40 43 46 36 39 31 68 60 59 58 57 36 23 17 13 22 43 60 72 64 34 35 88 88 88 57 13 0 0 0 0 0 0 0 0 0 0 0 0 0 0 0 0 0 0 0 0 0 0 0 0 0 0 0 0 0 0 0 0 0 0 0 0 0 0 0 0 0 0 0 
0 0 0 0 0 0 0 0 0 0 0 0 0 0 0 0 0 0 0 0 0 0 0 0 0 0 0 0 0 0 0 0 0 0 0 0 0 0 0 60 88 88 77 30 37 58 71 64 43 17 14 17 23 36 48 54 52 55 49 56 55 58 47 43 46 56 59 59 60 60 30 28 22 19 20 34 54 68 57 34 43 88 88 88 46 11 0 0 0 0 0 0 0 0 0 0 0 0 0 0 0 0 0 0 0 0 0 0 0 0 0 0 0 0 0 0 0 0 0 0 0 0 0 0 0 0 0 0 
0 0 0 0 0 0 0 0 0 0 0 0 0 0 0 0 0 0 0 0 0 0 0 0 0 0 0 0 0 0 0 0 0 0 0 0 0 0 39 88 88 88 35 33 54 68 65 37 16 16 23 31 43 55 52 56 55 55 56 58 59 60 53 55 57 57 62 63 59 60 55 60 55 31 29 19 31 53 70 54 32 47 88 88 87 35 0 0 0 0 0 0 0 0 0 0 0 0 0 0 0 0 0 0 0 0 0 0 0 0 0 0 0 0 0 0 0 0 0 0 0 0 0 0 0 0 0 0 
0 0 0 0 0 0 0 0 0 0 0 0 0 0 0 0 0 0 0 0 0 0 0 0 0 0 0 0 0 0 0 0 0 0 0 0 0 15 77 88 88 44 28 66 83 66 36 15 13 19 38 47 53 53 55 57 53 55 57 60 63 56 54 59 59 61 64 65 60 60 47 40 41 56 38 23 19 34 53 58 48 29 58 88 88 77 28 0 0 0 0 0 0 0 0 0 0 0 0 0 0 0 0 0 0 0 0 0 0 0 0 0 0 0 0 0 0 0 0 0 0 0 0 0 0 0 0 0 
0 0 0 0 0 0 0 0 0 0 0 0 0 0 0 0 0 0 0 0 0 0 0 0 0 0 0 0 0 0 0 0 0 0 0 0 0 60 88 88 52 26 56 67 63 39 19 22 34 50 50 56 58 57 58 57 50 50 59 63 58 57 58 58 62 65 73 65 61 55 50 57 56 52 63 34 17 22 31 48 57 39 30 75 88 88 66 19 0 0 0 0 0 0 0 0 0 0 0 0 0 0 0 0 0 0 0 0 0 0 0 0 0 0 0 0 0 0 0 0 0 0 0 0 0 0 0 0 
0 0 0 0 0 0 0 0 0 0 0 0 0 0 0 0 0 0 0 0 0 0 0 0 0 0 0 0 0 0 0 0 0 0 0 0 32 88 88 55 25 48 64 57 39 18 15 38 47 51 56 58 61 58 59 55 50 46 59 63 58 57 61 59 63 63 68 67 61 48 57 57 62 57 51 62 23 17 16 28 52 56 34 31 82 88 88 56 11 0 0 0 0 0 0 0 0 0 0 0 0 0 0 0 0 0 0 0 0 0 0 0 0 0 0 0 0 0 0 0 0 0 0 0 0 0 0 0 
0 0 0 0 0 0 0 0 0 0 0 0 0 0 0 0 0 0 0 0 0 0 0 0 0 0 0 0 0 0 0 0 0 0 0 14 74 88 88 18 38 62 58 39 17 11 23 49 57 59 60 60 61 59 57 56 51 54 64 63 58 52 48 58 64 63 63 68 63 57 57 64 55 58 52 52 46 33 24 17 38 70 63 37 37 88 88 88 37 0 0 0 0 0 0 0 0 0 0 0 0 0 0 0 0 0 0 0 0 0 0 0 0 0 0 0 0 0 0 0 0 0 0 0 0 0 0 0 
0 0 0 0 0 0 0 0 0 0 0 0 0 0 0 0 0 0 0 0 0 0 0 0 0 0 0 0 0 0 0 0 0 0 0 47 88 88 35 25 50 67 39 20 17 31 29 48 58 59 61 62 63 62 55 60 63 68 62 63 56 60 49 59 63 66 62 63 65 64 66 63 59 56 61 51 55 54 42 21 15 42 64 59 26 31 88 88 79 16 0 0 0 0 0 0 0 0 0 0 0 0 0 0 0 0 0 0 0 0 0 0 0 0 0 0 0 0 0 0 0 0 0 0 0 0 0 0 
0 0 0 0 0 0 0 0 0 0 0 0 0 0 0 0 0 0 0 0 0 0 0 0 0 0 0 0 0 0 0 0 0 0 29 88 88 58 19 44 61 45 19 19 38 50 56 53 52 57 61 64 61 55 50 63 67 63 61 60 58 56 58 56 59 63 64 62 63 65 65 67 63 62 59 56 54 65 48 42 18 18 37 57 50 25 66 88 88 55 0 0 0 0 0 0 0 0 0 0 0 0 0 0 0 0 0 0 0 0 0 0 0 0 0 0 0 0 0 0 0 0 0 0 0 0 0 0 
0 0 0 0 0 0 0 0 0 0 0 0 0 0 0 0 0 0 0 0 0 0 0 0 0 0 0 0 0 0 0 0 0 0 67 88 76 21 32 62 52 22 14 31 48 57 59 57 57 58 60 61 59 54 59 64 65 58 58 59 60 67 59 53 61 67 67 64 62 63 65 65 63 63 58 58 56 57 64 58 39 19 19 46 57 38 33 75 88 88 24 0 0 0 0 0 0 0 0 0 0 0 0 0 0 0 0 0 0 0 0 0 0 0 0 0 0 0 0 0 0 0 0 0 0 0 0 0 
0 0 0 0 0 0 0 0 0 0 0 0 0 0 0 0 0 0 0 0 0 0 0 0 0 0 0 0 0 0 0 0 0 33 88 88 23 26 53 50 25 19 29 42 53 59 61 63 64 62 63 63 58 55 61 66 62 59 55 57 52 59 63 56 60 65 70 66 64 61 62 65 63 63 60 60 55 56 58 54 57 41 15 22 44 57 28 42 88 88 59 0 0 0 0 0 0 0 0 0 0 0 0 0 0 0 0 0 0 0 0 0 0 0 0 0 0 0 0 0 0 0 0 0 0 0 0 0 
0 0 0 0 0 0 0 0 0 0 0 0 0 0 0 0 0 0 0 0 0 0 0 0 0 0 0 0 0 0 0 0 0 78 88 64 21 51 59 36 17 26 50 39 46 56 53 58 57 59 58 58 59 59 62 70 62 60 59 59 54 37 63 55 63 63 68 68 68 64 65 66 63 61 62 56 56 53 50 53 59 56 38 21 22 45 20 17 65 88 88 20 0 0 0 0 0 0 0 0 0 0 0 0 0 0 0 0 0 0 0 0 0 0 0 0 0 0 0 0 0 0 0 0 0 0 0 0 
0 0 0 0 0 0 0 0 0 0 0 0 0 0 0 0 0 0 0 0 0 0 0 0 0 0 0 0 0 0 0 0 36 88 88 24 41 59 47 15 25 48 53 56 54 49 63 56 56 54 52 53 54 60 64 67 64 65 63 59 59 45 61 55 62 59 59 67 68 70 67 66 64 63 59 54 58 57 57 56 57 55 47 24 12 19 18 27 28 88 88 47 0 0 0 0 0 0 0 0 0 0 0 0 0 0 0 0 0 0 0 0 0 0 0 0 0 0 0 0 0 0 0 0 0 0 0 0 
0 0 0 0 0 0 0 0 0 0 0 0 0 0 0 0 0 0 0 0 0 0 0 0 0 0 0 0 0 0 0 0 77 88 65 11 44 51 18 15 45 54 55 57 57 53 51 58 58 58 57 55 57 60 67 65 67 67 60 58 59 46 50 40 59 61 59 63 69 68 68 68 64 60 52 55 60 61 59 60 58 58 57 45 20 6 13 15 20 53 88 87 18 0 0 0 0 0 0 0 0 0 0 0 0 0 0 0 0 0 0 0 0 0 0 0 0 0 0 0 0 0 0 0 0 0 0 0 
0 0 0 0 0 0 0 0 0 0 0 0 0 0 0 0 0 0 0 0 0 0 0 0 0 0 0 0 0 0 0 37 88 88 35 11 25 26 3 39 54 55 59 61 58 58 55 57 62 65 61 62 63 66 65 69 68 65 60 62 62 37 50 49 57 61 61 63 67 68 67 68 65 61 56 55 64 63 63 63 63 60 59 46 39 13 9 20 17 43 56 88 45 0 0 0 0 0 0 0 0 0 0 0 0 0 0 0 0 0 0 0 0 0 0 0 0 0 0 0 0 0 0 0 0 0 0 0 
0 0 0 0 0 0 0 0 0 0 0 0 0 0 0 0 0 0 0 0 0 0 0 0 0 0 0 0 0 0 0 82 88 42 21 16 12 2 33 54 56 60 63 64 57 55 59 56 57 63 65 65 65 66 68 68 67 66 63 59 60 61 53 59 63 63 64 67 68 68 68 69 66 60 55 60 61 65 64 65 62 61 50 50 51 34 7 15 31 20 53 88 88 20 0 0 0 0 0 0 0 0 0 0 0 0 0 0 0 0 0 0 0 0 0 0 0 0 0 0 0 0 0 0 0 0 0 0 
0 0 0 0 0 0 0 0 0 0 0 0 0 0 0 0 0 0 0 0 0 0 0 0 0 0 0 0 0 0 40 88 88 16 21 11 3 24 53 57 60 62 64 64 63 58 58 53 57 61 62 65 67 63 68 66 68 67 65 64 62 63 36 57 58 63 66 66 66 68 67 63 62 60 59 58 61 68 68 65 62 60 61 59 57 54 35 13 23 21 54 64 88 52 0 0 0 0 0 0 0 0 0 0 0 0 0 0 0 0 0 0 0 0 0 0 0 0 0 0 0 0 0 0 0 0 0 0 
0 0 0 0 0 0 0 0 0 0 0 0 0 0 0 0 0 0 0 0 0 0 0 0 0 0 0 0 0 11 86 88 28 18 17 8 18 48 55 61 63 61 54 59 63 64 59 57 54 54 59 60 63 68 65 69 70 65 63 60 63 61 56 57 57 62 65 68 69 69 68 61 59 59 62 63 70 70 68 67 65 66 62 63 60 59 54 25 16 37 26 74 88 88 20 0 0 0 0 0 0 0 0 0 0 0 0 0 0 0 0 0 0 0 0 0 0 0 0 0 0 0 0 0 0 0 0 0 
0 0 0 0 0 0 0 0 0 0 0 0 0 0 0 0 0 0 0 0 0 0 0 0 0 0 0 0 0 42 88 85 26 26 24 22 41 50 58 60 59 53 43 59 63 65 65 60 58 58 43 58 59 67 66 69 66 63 61 60 62 46 68 56 63 66 66 66 69 69 68 64 62 64 67 68 65 65 64 65 68 65 66 63 63 59 59 41 18 28 44 30 88 88 56 0 0 0 0 0 0 0 0 0 0 0 0 0 0 0 0 0 0 0 0 0 0 0 0 0 0 0 0 0 0 0 0 0 
0 0 0 0 0 0 0 0 0 0 0 0 0 0 0 0 0 0 0 0 0 0 0 0 0 0 0 0 0 80 88 47 28 44 27 19 33 52 57 59 56 38 55 58 64 65 66 66 63 59 55 57 64 66 67 69 69 63 60 64 62 48 61 56 61 64 62 67 70 69 69 64 68 68 69 65 63 61 61 66 66 66 67 66 63 60 61 47 28 14 42 27 79 88 88 23 0 0 0 0 0 0 0 0 0 0 0 0 0 0 0 0 0 0 0 0 0 0 0 0 0 0 0 0 0 0 0 0 
0 0 0 0 0 0 0 0 0 0 0 0 0 0 0 0 0 0 0 0 0 0 0 0 0 0 0 0 33 88 88 21 45 35 12 56 73 55 56 61 46 40 52 59 61 66 67 65 65 59 59 60 65 68 65 67 53 61 65 63 61 63 54 61 60 61 65 69 68 68 67 68 68 70 64 64 63 60 60 61 63 64 63 63 63 62 61 57 74 25 33 46 17 88 88 52 0 0 0 0 0 0 0 0 0 0 0 0 0 0 0 0 0 0 0 0 0 0 0 0 0 0 0 0 0 0 0 0 
0 0 0 0 0 0 0 0 0 0 0 0 0 0 0 0 0 0 0 0 0 0 0 0 0 0 0 0 72 85 31 25 51 25 37 88 53 48 46 52 59 48 53 55 62 65 66 66 63 62 60 62 65 66 67 66 60 65 63 61 63 61 34 55 57 61 66 68 72 69 70 68 68 70 69 71 65 62 60 65 67 66 64 63 61 63 59 36 31 29 15 54 15 34 88 82 11 0 0 0 0 0 0 0 0 0 0 0 0 0 0 0 0 0 0 0 0 0 0 0 0 0 0 0 0 0 0 0 
0 0 0 0 0 0 0 0 0 0 0 0 0 0 0 0 0 0 0 0 0 0 0 0 0 0 0 17 88 88 33 35 34 19 44 53 52 46 47 48 51 36 61 56 58 61 64 68 67 65 60 63 64 66 65 69 70 65 61 59 63 50 54 56 60 63 64 65 71 70 71 70 67 73 67 68 63 61 64 65 67 65 62 63 63 62 55 47 70 36 8 49 22 69 88 88 30 0 0 0 0 0 0 0 0 0 0 0 0 0 0 0 0 0 0 0 0 0 0 0 0 0 0 0 0 0 0 0 
0 0 0 0 0 0 0 0 0 0 0 0 0 0 0 0 0 0 0 0 0 0 0 0 0 0 0 43 88 88 12 43 20 26 41 55 60 54 52 50 51 59 48 48 48 59 61 64 67 68 64 65 65 69 67 69 67 61 58 57 62 49 53 45 60 62 63 62 68 70 71 69 69 68 68 65 63 61 67 68 69 67 66 64 60 61 58 43 41 37 20 29 35 20 88 88 46 0 0 0 0 0 0 0 0 0 0 0 0 0 0 0 0 0 0 0 0 0 0 0 0 0 0 0 0 0 0 0 
0 0 0 0 0 0 0 0 0 0 0 0 0 0 0 0 0 0 0 0 0 0 0 0 0 0 0 70 88 60 19 48 34 52 56 57 57 57 60 56 56 56 55 60 55 60 56 61 68 68 69 68 68 69 67 71 65 62 59 59 63 59 55 44 57 57 59 60 65 68 67 70 71 68 69 63 62 67 69 67 68 66 64 61 59 54 55 60 60 58 34 21 42 13 85 88 71 0 0 0 0 0 0 0 0 0 0 0 0 0 0 0 0 0 0 0 0 0 0 0 0 0 0 0 0 0 0 0 
0 0 0 0 0 0 0 0 0 0 0 0 0 0 0 0 0 0 0 0 0 0 0 0 0 0 18 88 88 35 32 45 15 45 55 58 61 61 62 64 62 61 60 62 61 59 60 63 68 69 67 69 67 66 70 68 68 66 65 64 66 60 63 55 59 62 60 57 65 70 72 71 69 67 66 66 66 69 68 70 63 61 60 61 56 60 61 62 62 60 48 21 36 18 48 88 86 22 0 0 0 0 0 0 0 0 0 0 0 0 0 0 0 0 0 0 0 0 0 0 0 0 0 0 0 0 0 0 
0 0 0 0 0 0 0 0 0 0 0 0 0 0 0 0 0 0 0 0 0 0 0 0 0 0 38 88 88 13 47 44 15 52 58 60 63 62 62 63 63 63 64 63 66 65 65 68 73 69 67 68 69 70 68 68 66 65 65 66 63 60 65 56 52 62 61 59 68 71 71 69 70 69 69 69 69 69 68 64 59 61 58 56 62 62 67 65 63 62 52 21 35 36 20 88 88 41 0 0 0 0 0 0 0 0 0 0 0 0 0 0 0 0 0 0 0 0 0 0 0 0 0 0 0 0 0 0 
0 0 0 0 0 0 0 0 0 0 0 0 0 0 0 0 0 0 0 0 0 0 0 0 0 0 58 88 67 11 57 30 19 54 58 59 59 63 62 63 63 64 64 66 65 67 68 70 69 68 64 68 69 69 68 71 69 66 65 64 62 51 68 58 56 62 61 63 70 71 70 72 70 69 69 71 70 70 64 63 45 61 60 62 67 70 66 63 62 62 35 20 30 47 8 88 88 55 0 0 0 0 0 0 0 0 0 0 0 0 0 0 0 0 0 0 0 0 0 0 0 0 0 0 0 0 0 0 
0 0 0 0 0 0 0 0 0 0 0 0 0 0 0 0 0 0 0 0 0 0 0 0 0 11 88 88 31 23 64 17 27 45 53 45 53 58 61 61 64 63 64 65 66 66 69 68 71 67 64 69 68 71 67 70 71 66 64 63 63 50 70 59 58 64 60 64 70 69 70 68 70 68 70 69 68 66 67 64 62 63 66 69 64 65 65 63 54 39 40 22 23 49 9 63 88 78 0 0 0 0 0 0 0 0 0 0 0 0 0 0 0 0 0 0 0 0 0 0 0 0 0 0 0 0 0 0 
0 0 0 0 0 0 0 0 0 0 0 0 0 0 0 0 0 0 0 0 0 0 0 0 0 29 88 88 9 45 56 13 30 41 49 52 45 52 62 59 63 63 63 63 66 64 67 68 67 67 64 68 70 71 71 71 70 67 68 67 60 59 68 58 62 58 61 63 68 69 72 69 70 70 67 69 69 69 68 68 67 70 68 61 61 64 38 37 49 56 52 36 16 50 20 29 88 88 26 0 0 0 0 0 0 0 0 0 0 0 0 0 0 0 0 0 0 0 0 0 0 0 0 0 0 0 0 0 
0 0 0 0 0 0 0 0 0 0 0 0 0 0 0 0 0 0 0 0 0 0 0 0 0 56 88 74 13 60 30 7 48 58 57 61 59 51 61 63 61 63 65 63 65 63 65 68 69 68 66 65 68 72 71 69 72 71 71 69 63 60 73 61 65 64 61 64 68 69 67 72 69 72 69 69 67 67 68 67 68 68 68 63 63 60 38 48 58 62 56 53 16 40 38 9 88 88 48 0 0 0 0 0 0 0 0 0 0 0 0 0 0 0 0 0 0 0 0 0 0 0 0 0 0 0 0 0 
0 0 0 0 0 0 0 0 0 0 0 0 0 0 0 0 0 0 0 0 0 0 0 0 0 85 88 45 16 62 13 21 54 59 61 62 59 56 59 58 63 64 63 63 66 65 65 64 65 65 65 67 70 74 69 71 70 69 68 63 63 57 71 58 66 68 63 67 67 70 70 69 67 68 67 66 66 67 66 65 68 66 66 64 65 66 46 57 62 63 59 50 30 30 50 5 87 88 74 0 0 0 0 0 0 0 0 0 0 0 0 0 0 0 0 0 0 0 0 0 0 0 0 0 0 0 0 0 
0 0 0 0 0 0 0 0 0 0 0 0 0 0 0 0 0 0 0 0 0 0 0 0 24 88 88 13 40 53 6 38 56 60 63 62 62 53 61 63 58 62 64 64 64 66 63 66 64 65 67 68 71 70 69 71 66 65 63 62 63 41 65 56 66 68 70 70 70 70 70 70 70 67 65 68 65 68 65 65 66 65 65 66 63 61 58 60 65 64 60 55 25 17 64 11 46 88 88 20 0 0 0 0 0 0 0 0 0 0 0 0 0 0 0 0 0 0 0 0 0 0 0 0 0 0 0 0 
0 0 0 0 0 0 0 0 0 0 0 0 0 0 0 0 0 0 0 0 0 0 0 0 42 88 88 4 58 35 11 36 52 56 58 63 65 60 56 59 60 58 60 63 63 64 68 66 66 68 68 68 72 72 68 70 62 63 63 61 59 50 74 57 67 65 63 63 67 72 68 70 70 66 67 67 66 66 66 66 65 66 63 64 65 63 62 63 62 54 62 57 34 9 57 26 34 88 88 34 0 0 0 0 0 0 0 0 0 0 0 0 0 0 0 0 0 0 0 0 0 0 0 0 0 0 0 0 
0 0 0 0 0 0 0 0 0 0 0 0 0 0 0 0 0 0 0 0 0 0 0 0 63 88 66 8 65 23 18 52 57 57 57 59 62 64 61 52 59 60 64 64 65 65 68 68 68 69 66 69 71 67 69 69 63 64 66 65 64 60 70 60 65 68 59 60 65 69 68 71 71 69 67 68 70 69 67 66 67 64 66 65 68 58 64 62 52 45 58 57 46 6 36 42 9 88 88 56 0 0 0 0 0 0 0 0 0 0 0 0 0 0 0 0 0 0 0 0 0 0 0 0 0 0 0 0 
0 0 0 0 0 0 0 0 0 0 0 0 0 0 0 0 0 0 0 0 0 0 0 0 81 88 27 24 76 19 27 54 60 62 60 59 60 63 63 63 51 61 61 62 61 66 64 63 68 68 69 71 72 72 71 67 63 64 67 66 66 59 67 59 66 66 63 61 64 71 67 68 70 68 69 69 69 66 69 66 64 66 64 64 54 61 63 58 60 48 49 55 41 14 26 60 3 88 88 73 0 0 0 0 0 0 0 0 0 0 0 0 0 0 0 0 0 0 0 0 0 0 0 0 0 0 0 0 
0 0 0 0 0 0 0 0 0 0 0 0 0 0 0 0 0 0 0 0 0 0 0 13 88 88 14 45 74 21 37 57 63 65 63 63 61 56 63 66 63 57 54 53 64 65 66 69 66 68 68 67 67 69 67 70 61 63 65 67 67 60 63 62 67 59 61 61 66 67 67 69 70 70 70 68 68 66 67 66 66 65 65 59 50 66 63 63 66 58 59 59 57 31 13 63 13 56 88 84 14 0 0 0 0 0 0 0 0 0 0 0 0 0 0 0 0 0 0 0 0 0 0 0 0 0 0 0 
0 0 0 0 0 0 0 0 0 0 0 0 0 0 0 0 0 0 0 0 0 0 0 20 88 88 5 64 75 18 46 57 63 64 63 62 61 62 61 64 67 64 64 56 27 60 68 65 69 67 67 67 68 71 68 66 65 62 63 66 66 61 61 64 62 67 58 63 62 67 69 67 70 68 72 68 70 65 66 67 64 60 53 56 59 64 65 63 63 57 55 63 58 40 13 51 23 36 88 88 31 0 0 0 0 0 0 0 0 0 0 0 0 0 0 0 0 0 0 0 0 0 0 0 0 0 0 0 
0 0 0 0 0 0 0 0 0 0 0 0 0 0 0 0 0 0 0 0 0 0 0 33 88 66 13 76 77 15 44 63 59 58 63 63 63 58 58 62 66 66 65 64 63 63 65 66 67 68 68 68 68 69 69 64 61 65 65 65 70 59 59 63 66 64 59 61 60 60 70 68 69 70 68 68 67 67 65 51 41 55 63 65 66 64 65 63 62 67 62 63 61 41 18 38 31 13 88 88 47 0 0 0 0 0 0 0 0 0 0 0 0 0 0 0 0 0 0 0 0 0 0 0 0 0 0 0 
0 0 0 0 0 0 0 0 0 0 0 0 0 0 0 0 0 0 0 0 0 0 0 48 88 39 29 77 56 13 30 47 50 55 61 65 67 64 63 59 63 67 65 67 67 65 67 68 69 68 68 68 69 68 70 65 68 64 65 67 67 62 57 63 63 65 63 64 63 66 67 71 73 73 70 69 65 67 64 62 64 66 66 65 68 64 59 60 63 56 62 60 54 29 29 25 36 9 49 88 67 0 0 0 0 0 0 0 0 0 0 0 0 0 0 0 0 0 0 0 0 0 0 0 0 0 0 0 
0 0 0 0 0 0 0 0 0 0 0 0 0 0 0 0 0 0 0 0 0 0 0 77 88 14 43 84 49 26 26 34 54 61 61 68 68 66 66 63 62 66 69 68 68 66 69 68 69 70 70 72 69 70 69 63 61 58 68 70 65 63 54 63 63 68 69 68 66 66 63 68 69 72 67 69 68 66 69 68 64 64 68 71 66 64 60 60 60 62 60 60 56 53 38 25 28 4 88 88 78 0 0 0 0 0 0 0 0 0 0 0 0 0 0 0 0 0 0 0 0 0 0 0 0 0 0 0 
0 0 0 0 0 0 0 0 0 0 0 0 0 0 0 0 0 0 0 0 0 0 0 88 88 4 56 81 28 28 61 56 55 62 66 67 69 66 65 66 62 63 67 67 68 69 68 69 67 68 70 72 72 69 70 63 62 53 66 68 63 62 56 66 69 66 65 64 60 64 63 74 69 71 68 69 68 71 69 66 68 69 68 67 67 65 63 59 57 40 44 54 55 62 47 36 27 2 72 88 85 0 0 0 0 0 0 0 0 0 0 0 0 0 0 0 0 0 0 0 0 0 0 0 0 0 0 0 
0 0 0 0 0 0 0 0 0 0 0 0 0 0 0 0 0 0 0 0 0 0 31 88 88 5 72 73 14 47 59 63 60 61 65 69 66 65 65 61 63 62 66 70 68 69 70 68 69 69 72 71 71 70 71 62 57 52 65 66 69 63 55 62 62 64 64 62 61 63 65 71 69 71 71 70 67 68 70 69 73 67 63 63 62 63 54 51 56 60 56 56 52 52 45 45 34 7 47 88 82 0 0 0 0 0 0 0 0 0 0 0 0 0 0 0 0 0 0 0 0 0 0 0 0 0 0 0 
0 0 0 0 0 0 0 0 0 0 0 0 0 0 0 0 0 0 0 0 0 0 59 88 88 12 74 51 14 48 59 63 65 64 66 69 67 65 64 64 65 65 65 70 69 68 70 69 69 68 69 72 72 71 63 64 47 68 66 67 66 63 59 61 65 63 63 59 61 61 64 67 70 70 73 68 69 70 70 71 69 66 64 62 56 44 47 59 60 60 62 60 59 54 36 43 40 13 35 88 81 0 0 0 0 0 0 0 0 0 0 0 0 0 0 0 0 0 0 0 0 0 0 0 0 0 0 0 
0 0 0 0 0 0 0 0 0 0 0 0 0 0 0 0 0 0 0 0 0 0 72 88 76 11 76 32 26 52 57 62 62 67 66 66 66 68 71 70 70 67 67 70 73 72 72 71 69 70 72 69 71 72 65 53 54 64 68 65 65 62 59 64 66 67 63 64 60 60 59 64 71 69 71 70 70 68 71 72 66 68 69 66 63 64 60 66 65 65 66 64 61 63 44 38 44 15 27 88 72 0 0 0 0 0 0 0 0 0 0 0 0 0 0 0 0 0 0 0 0 0 0 0 0 0 0 0 
0 0 0 0 0 0 0 0 0 0 0 0 0 0 0 0 0 0 0 0 0 11 78 88 68 18 60 30 24 59 59 64 61 64 68 66 63 67 68 68 69 70 70 68 65 69 68 71 71 72 69 72 71 70 63 59 67 67 67 66 64 63 53 65 63 64 69 68 65 64 61 62 67 72 70 70 72 70 70 74 67 62 65 67 69 72 69 66 70 68 64 62 61 59 52 42 46 21 22 88 68 0 0 0 0 0 0 0 0 0 0 0 0 0 0 0 0 0 0 0 0 0 0 0 0 0 0 0 
0 0 0 0 0 0 0 0 0 0 0 0 0 0 0 0 0 0 0 0 0 12 87 88 80 18 54 35 24 62 62 64 65 65 65 64 64 62 63 65 69 70 65 63 61 67 69 70 70 70 70 72 71 68 66 67 69 69 70 71 63 62 54 65 63 66 72 69 73 67 66 63 68 71 72 70 72 71 67 70 67 62 60 64 64 63 64 65 70 67 62 61 62 57 51 37 42 30 21 88 57 0 0 0 0 0 0 0 0 0 0 0 0 0 0 0 0 0 0 0 0 0 0 0 0 0 0 0 
0 0 0 0 0 0 0 0 0 0 0 0 0 0 0 0 0 0 0 0 0 15 82 88 56 20 51 31 17 56 59 66 65 65 63 59 60 59 55 61 71 69 65 60 64 69 71 73 71 71 70 71 72 69 68 69 71 72 68 66 68 62 59 63 64 66 63 62 63 69 67 65 69 73 74 70 71 64 59 64 65 64 55 52 59 60 65 70 63 60 63 57 58 52 46 31 46 30 23 88 57 0 0 0 0 0 0 0 0 0 0 0 0 0 0 0 0 0 0 0 0 0 0 0 0 0 0 0 
0 0 0 0 0 0 0 0 0 0 0 0 0 0 0 0 0 0 0 0 0 16 88 88 80 11 68 20 37 40 61 57 63 60 59 58 60 60 62 63 67 70 64 60 61 66 63 66 71 69 74 72 73 71 70 73 71 63 63 61 62 62 59 62 66 62 61 64 61 65 67 69 72 71 71 71 70 65 58 55 62 62 61 57 61 67 65 63 63 62 61 54 44 39 28 36 56 22 31 88 58 0 0 0 0 0 0 0 0 0 0 0 0 0 0 0 0 0 0 0 0 0 0 0 0 0 0 0 
0 0 0 0 0 0 0 0 0 0 0 0 0 0 0 0 0 0 0 0 0 15 82 88 87 5 71 37 27 45 57 52 55 51 53 54 59 65 67 68 68 66 64 47 59 59 55 64 67 71 67 71 71 74 71 72 70 62 59 60 62 67 57 63 60 63 62 63 65 69 68 71 71 69 74 70 71 70 63 58 53 65 56 56 63 68 65 63 59 41 45 38 56 30 28 31 53 15 41 88 67 0 0 0 0 0 0 0 0 0 0 0 0 0 0 0 0 0 0 0 0 0 0 0 0 0 0 0 
0 0 0 0 0 0 0 0 0 0 0 0 0 0 0 0 0 0 0 0 0 11 86 88 88 6 62 59 33 41 44 54 56 63 60 66 65 69 68 66 66 62 55 53 61 58 56 59 63 64 72 69 73 71 73 75 73 64 62 61 62 63 57 62 61 61 66 69 69 69 68 70 72 72 68 69 66 64 67 63 63 62 60 60 67 69 68 65 62 46 43 48 28 33 26 30 56 4 76 88 72 0 0 0 0 0 0 0 0 0 0 0 0 0 0 0 0 0 0 0 0 0 0 0 0 0 0 0 
0 0 0 0 0 0 0 0 0 0 0 0 0 0 0 0 0 0 0 0 0 0 69 88 88 7 53 69 30 43 57 61 65 65 69 69 70 66 64 65 65 59 64 60 63 64 63 60 59 66 61 70 72 71 74 72 69 72 74 70 66 62 60 65 63 66 67 68 71 71 72 73 70 65 63 62 53 64 62 58 61 60 69 67 71 70 69 65 59 49 46 39 43 37 32 34 60 0 88 88 77 0 0 0 0 0 0 0 0 0 0 0 0 0 0 0 0 0 0 0 0 0 0 0 0 0 0 0 
0 0 0 0 0 0 0 0 0 0 0 0 0 0 0 0 0 0 0 0 0 0 68 88 88 31 38 82 36 36 62 63 64 65 63 65 68 70 67 63 58 61 66 70 66 66 64 64 54 51 57 68 70 75 72 67 63 63 63 62 64 65 54 64 65 66 66 66 64 70 72 71 70 64 59 46 58 58 49 48 36 62 63 70 69 66 65 67 61 58 53 56 49 45 20 56 57 0 88 88 73 0 0 0 0 0 0 0 0 0 0 0 0 0 0 0 0 0 0 0 0 0 0 0 0 0 0 0 
0 0 0 0 0 0 0 0 0 0 0 0 0 0 0 0 0 0 0 0 0 0 57 88 88 52 19 87 58 30 56 61 57 61 60 62 63 68 73 68 66 68 72 71 70 66 64 60 64 66 64 72 69 74 70 63 63 60 63 62 63 63 56 64 66 63 61 62 62 66 70 72 69 68 64 59 61 62 65 62 57 54 62 69 68 64 62 66 65 64 61 61 60 34 36 71 33 13 88 88 69 0 0 0 0 0 0 0 0 0 0 0 0 0 0 0 0 0 0 0 0 0 0 0 0 0 0 0 
0 0 0 0 0 0 0 0 0 0 0 0 0 0 0 0 0 0 0 0 0 0 37 67 88 88 3 79 70 31 31 17 55 54 56 60 66 71 71 72 71 72 68 64 63 63 63 60 63 70 70 71 71 72 71 67 63 66 61 64 61 65 54 65 62 59 60 62 63 71 70 71 70 70 65 61 58 64 68 65 65 61 62 70 67 64 63 61 67 66 64 58 53 23 50 81 13 49 88 88 52 0 0 0 0 0 0 0 0 0 0 0 0 0 0 0 0 0 0 0 0 0 0 0 0 0 0 0 
0 0 0 0 0 0 0 0 0 0 0 0 0 0 0 0 0 0 0 0 0 0 15 74 88 83 17 55 83 41 33 55 61 60 66 71 69 63 65 64 74 72 68 62 61 61 63 62 64 69 71 70 71 73 73 71 70 67 65 68 67 65 44 49 61 62 60 61 65 72 70 74 69 67 68 63 58 60 63 66 68 71 67 70 69 65 61 59 64 64 60 59 40 31 68 69 0 88 88 88 38 0 0 0 0 0 0 0 0 0 0 0 0 0 0 0 0 0 0 0 0 0 0 0 0 0 0 0 
0 0 0 0 0 0 0 0 0 0 0 0 0 0 0 0 0 0 0 0 0 0 0 53 88 88 28 24 88 36 30 61 63 69 63 62 61 57 60 62 65 72 69 67 65 66 66 68 66 66 73 71 72 71 75 72 71 72 73 66 65 63 50 62 61 67 65 61 63 64 74 69 70 70 70 67 63 58 64 59 63 68 69 68 64 63 60 63 62 57 58 52 23 36 84 34 4 88 88 83 20 0 0 0 0 0 0 0 0 0 0 0 0 0 0 0 0 0 0 0 0 0 0 0 0 0 0 0 
0 0 0 0 0 0 0 0 0 0 0 0 0 0 0 0 0 0 0 0 0 0 0 20 82 88 74 12 75 54 17 55 61 59 60 56 51 63 59 60 64 71 70 70 71 72 73 71 67 71 71 69 72 70 74 73 74 71 70 66 65 59 47 64 64 65 66 63 60 66 67 69 71 66 61 65 63 51 50 57 61 71 70 64 61 58 58 61 56 63 76 44 24 51 76 14 45 88 88 71 13 0 0 0 0 0 0 0 0 0 0 0 0 0 0 0 0 0 0 0 0 0 0 0 0 0 0 0 
0 0 0 0 0 0 0 0 0 0 0 0 0 0 0 0 0 0 0 0 0 0 0 0 69 88 88 0 54 72 30 31 58 58 59 61 61 63 66 63 66 73 72 71 70 70 70 67 72 72 70 73 72 69 72 72 71 73 68 63 64 63 37 64 61 62 65 62 64 64 69 71 69 63 63 46 60 63 62 68 67 71 70 63 58 56 50 55 53 48 73 42 26 61 58 0 88 88 88 56 0 0 0 0 0 0 0 0 0 0 0 0 0 0 0 0 0 0 0 0 0 0 0 0 0 0 0 0 
0 0 0 0 0 0 0 0 0 0 0 0 0 0 0 0 0 0 0 0 0 0 0 0 32 88 88 63 20 81 42 26 51 62 63 63 66 70 68 67 73 70 75 70 66 62 66 71 71 70 69 68 69 69 70 71 73 72 70 64 63 62 36 47 60 61 63 63 65 69 69 71 68 68 63 64 59 66 68 69 69 63 69 70 63 63 63 63 60 60 52 34 35 73 42 12 88 88 88 48 0 0 0 0 0 0 0 0 0 0 0 0 0 0 0 0 0 0 0 0 0 0 0 0 0 0 0 0 
0 0 0 0 0 0 0 0 0 0 0 0 0 0 0 0 0 0 0 0 0 0 0 0 0 80 88 88 7 68 67 16 39 62 65 65 68 67 66 67 70 69 64 64 65 57 63 71 70 70 67 68 63 65 69 71 69 70 70 68 66 62 45 47 48 56 62 64 64 70 70 68 69 70 66 63 57 65 66 69 64 51 62 69 67 66 67 66 61 60 50 32 56 65 12 3 88 88 87 27 0 0 0 0 0 0 0 0 0 0 0 0 0 0 0 0 0 0 0 0 0 0 0 0 0 0 0 0 
0 0 0 0 0 0 0 0 0 0 0 0 0 0 0 0 0 0 0 0 0 0 0 0 0 57 88 88 31 36 86 39 20 64 62 63 62 66 65 68 69 67 66 63 55 62 65 68 71 67 62 60 67 68 66 69 70 68 69 66 61 57 39 50 42 61 64 63 69 68 69 70 69 66 64 58 59 62 70 67 62 46 64 61 60 63 62 60 59 60 23 33 64 49 0 88 88 88 73 11 0 0 0 0 0 0 0 0 0 0 0 0 0 0 0 0 0 0 0 0 0 0 0 0 0 0 0 0 
0 0 0 0 0 0 0 0 0 0 0 0 0 0 0 0 0 0 0 0 0 0 0 0 0 21 88 88 88 3 64 63 17 31 58 63 63 63 67 69 66 68 66 64 63 60 63 68 69 68 63 61 66 70 68 69 65 57 70 69 62 53 43 51 60 59 61 66 67 70 68 69 68 65 61 59 59 62 68 69 65 59 47 59 55 49 55 59 56 28 20 56 68 22 24 88 88 88 59 0 0 0 0 0 0 0 0 0 0 0 0 0 0 0 0 0 0 0 0 0 0 0 0 0 0 0 0 0 
0 0 0 0 0 0 0 0 0 0 0 0 0 0 0 0 0 0 0 0 0 0 0 0 0 0 69 88 88 13 37 79 49 15 46 63 64 68 67 63 62 64 69 66 65 56 62 66 65 69 65 61 61 69 68 70 69 53 67 69 65 64 46 60 62 61 62 63 70 69 69 68 69 67 65 63 62 58 63 69 68 65 38 48 55 62 61 55 48 27 36 67 54 0 83 88 88 84 30 0 0 0 0 0 0 0 0 0 0 0 0 0 0 0 0 0 0 0 0 0 0 0 0 0 0 0 0 0 
0 0 0 0 0 0 0 0 0 0 0 0 0 0 0 0 0 0 0 0 0 0 0 0 0 0 38 88 88 88 3 64 66 21 32 63 63 66 64 62 64 64 68 66 67 65 54 65 64 66 65 59 60 70 69 69 70 62 57 66 68 63 48 64 65 56 60 63 70 65 64 61 63 68 67 69 63 52 61 68 69 61 61 63 62 63 60 64 38 22 50 67 27 31 88 88 88 63 0 0 0 0 0 0 0 0 0 0 0 0 0 0 0 0 0 0 0 0 0 0 0 0 0 0 0 0 0 0 
0 0 0 0 0 0 0 0 0 0 0 0 0 0 0 0 0 0 0 0 0 0 0 0 0 0 17 88 88 88 19 28 73 50 13 55 61 64 62 60 63 65 64 66 68 67 61 59 62 63 64 63 65 70 62 64 69 66 52 65 67 61 54 64 65 63 65 70 68 67 65 62 61 63 68 67 66 50 59 66 67 66 65 69 68 59 59 44 29 36 59 51 2 80 88 88 88 33 0 0 0 0 0 0 0 0 0 0 0 0 0 0 0 0 0 0 0 0 0 0 0 0 0 0 0 0 0 0 
0 0 0 0 0 0 0 0 0 0 0 0 0 0 0 0 0 0 0 0 0 0 0 0 0 0 0 70 88 88 88 0 51 65 21 30 64 62 62 59 64 59 61 57 68 69 64 56 63 63 61 64 68 67 63 63 69 67 55 61 63 64 54 63 63 63 69 69 66 66 66 63 55 59 63 69 65 51 63 65 62 60 64 62 61 61 52 18 25 55 59 20 33 88 88 88 66 0 0 0 0 0 0 0 0 0 0 0 0 0 0 0 0 0 0 0 0 0 0 0 0 0 0 0 0 0 0 0 
0 0 0 0 0 0 0 0 0 0 0 0 0 0 0 0 0 0 0 0 0 0 0 0 0 0 0 38 88 88 88 28 19 64 45 16 39 51 51 55 56 51 48 56 64 71 67 64 63 62 63 64 67 66 61 65 66 65 55 56 64 51 57 63 65 65 67 65 63 66 67 67 64 47 60 66 65 53 60 63 53 54 58 61 60 58 37 19 48 58 39 8 87 88 84 82 31 0 0 0 0 0 0 0 0 0 0 0 0 0 0 0 0 0 0 0 0 0 0 0 0 0 0 0 0 0 0 0 
0 0 0 0 0 0 0 0 0 0 0 0 0 0 0 0 0 0 0 0 0 0 0 0 0 0 0 0 85 88 88 88 1 39 62 22 23 48 57 63 63 62 62 53 64 68 68 65 65 61 60 65 70 69 50 52 58 63 46 57 59 49 60 61 65 70 67 58 55 64 66 65 66 54 62 63 64 63 56 51 56 58 59 59 53 40 24 32 58 49 13 57 88 88 88 46 0 0 0 0 0 0 0 0 0 0 0 0 0 0 0 0 0 0 0 0 0 0 0 0 0 0 0 0 0 0 0 0 
0 0 0 0 0 0 0 0 0 0 0 0 0 0 0 0 0 0 0 0 0 0 0 0 0 0 0 0 55 88 88 88 70 5 49 56 24 23 49 61 65 68 68 66 65 68 65 65 64 52 50 66 67 65 63 54 38 50 61 63 65 55 51 63 67 68 63 58 45 58 66 68 63 56 56 62 67 62 60 47 62 64 58 56 46 28 32 50 59 20 32 88 88 88 68 11 0 0 0 0 0 0 0 0 0 0 0 0 0 0 0 0 0 0 0 0 0 0 0 0 0 0 0 0 0 0 0 0 
0 0 0 0 0 0 0 0 0 0 0 0 0 0 0 0 0 0 0 0 0 0 0 0 0 0 0 0 31 88 88 88 88 23 13 52 45 24 23 49 62 63 63 67 66 64 63 59 63 52 63 63 68 66 63 64 60 51 67 69 65 59 45 63 63 62 63 43 60 57 55 66 65 60 51 63 68 63 57 62 64 59 58 44 29 32 46 57 33 6 88 78 88 88 32 0 0 0 0 0 0 0 0 0 0 0 0 0 0 0 0 0 0 0 0 0 0 0 0 0 0 0 0 0 0 0 0 0 
0 0 0 0 0 0 0 0 0 0 0 0 0 0 0 0 0 0 0 0 0 0 0 0 0 0 0 0 0 68 88 88 88 88 33 18 48 53 31 26 41 53 61 61 64 63 63 57 56 63 65 66 68 67 69 67 64 64 64 69 65 60 44 60 62 54 57 52 63 65 59 63 64 62 52 61 67 62 62 65 60 55 32 16 29 46 50 41 8 63 88 88 88 73 0 0 0 0 0 0 0 0 0 0 0 0 0 0 0 0 0 0 0 0 0 0 0 0 0 0 0 0 0 0 0 0 0 0 
0 0 0 0 0 0 0 0 0 0 0 0 0 0 0 0 0 0 0 0 0 0 0 0 0 0 0 0 0 28 88 88 88 88 87 36 24 50 61 32 21 36 47 55 61 63 61 54 59 64 64 65 66 66 67 65 67 67 67 67 65 51 52 57 56 67 38 61 61 66 63 62 63 63 50 61 64 62 65 61 54 29 23 32 44 57 38 13 63 88 88 88 88 40 0 0 0 0 0 0 0 0 0 0 0 0 0 0 0 0 0 0 0 0 0 0 0 0 0 0 0 0 0 0 0 0 0 0 
0 0 0 0 0 0 0 0 0 0 0 0 0 0 0 0 0 0 0 0 0 0 0 0 0 0 0 0 0 0 39 87 88 88 88 88 35 27 55 65 51 32 36 45 53 59 60 49 50 65 64 64 60 63 62 66 67 68 69 68 63 53 61 62 61 55 60 61 63 64 63 63 63 63 47 59 58 60 58 46 35 24 39 44 53 39 12 45 88 88 88 88 71 12 0 0 0 0 0 0 0 0 0 0 0 0 0 0 0 0 0 0 0 0 0 0 0 0 0 0 0 0 0 0 0 0 0 0 
0 0 0 0 0 0 0 0 0 0 0 0 0 0 0 0 0 0 0 0 0 0 0 0 0 0 0 0 0 0 0 32 80 86 85 88 88 44 21 48 56 55 42 40 42 42 53 50 40 58 62 61 57 53 58 67 68 65 64 64 63 54 61 64 65 64 64 67 64 69 66 59 64 60 51 38 55 49 40 32 31 41 54 48 28 14 86 88 88 88 83 84 48 0 0 0 0 0 0 0 0 0 0 0 0 0 0 0 0 0 0 0 0 0 0 0 0 0 0 0 0 0 0 0 0 0 0 0 
0 0 0 0 0 0 0 0 0 0 0 0 0 0 0 0 0 0 0 0 0 0 0 0 0 0 0 0 0 0 0 0 26 79 88 81 88 88 60 33 41 48 49 45 47 47 62 65 66 69 64 60 61 56 64 66 68 66 63 70 59 63 55 72 66 65 66 63 63 63 88 88 66 52 57 32 39 36 36 32 43 43 44 14 24 88 88 88 86 84 88 60 0 0 0 0 0 0 0 0 0 0 0 0 0 0 0 0 0 0 0 0 0 0 0 0 0 0 0 0 0 0 0 0 0 0 0 0 
0 0 0 0 0 0 0 0 0 0 0 0 0 0 0 0 0 0 0 0 0 0 0 0 0 0 0 0 0 0 0 0 0 21 70 88 79 88 88 63 30 34 55 57 63 46 54 46 53 48 53 58 72 58 64 64 67 66 57 63 65 61 66 80 58 63 58 54 56 59 56 88 85 80 70 59 42 36 35 35 16 13 6 54 88 88 88 76 88 83 60 20 0 0 0 0 0 0 0 0 0 0 0 0 0 0 0 0 0 0 0 0 0 0 0 0 0 0 0 0 0 0 0 0 0 0 0 0 
0 0 0 0 0 0 0 0 0 0 0 0 0 0 0 0 0 0 0 0 0 0 0 0 0 0 0 0 0 0 0 0 0 0 0 55 88 77 88 88 87 42 29 45 49 56 46 47 52 39 41 54 57 71 57 62 67 58 58 59 78 61 64 78 51 46 61 65 56 60 39 34 73 31 26 35 39 30 34 30 16 32 88 88 88 88 88 88 66 42 11 0 0 0 0 0 0 0 0 0 0 0 0 0 0 0 0 0 0 0 0 0 0 0 0 0 0 0 0 0 0 0 0 0 0 0 0 0 
0 0 0 0 0 0 0 0 0 0 0 0 0 0 0 0 0 0 0 0 0 0 0 0 0 0 0 0 0 0 0 0 0 0 0 0 44 86 83 81 88 88 70 30 34 46 56 49 47 35 41 43 37 68 52 66 55 86 82 66 71 71 74 88 50 58 58 57 46 44 40 40 59 52 35 43 17 32 27 39 45 88 88 88 88 82 83 49 22 0 0 0 0 0 0 0 0 0 0 0 0 0 0 0 0 0 0 0 0 0 0 0 0 0 0 0 0 0 0 0 0 0 0 0 0 0 0 0 
0 0 0 0 0 0 0 0 0 0 0 0 0 0 0 0 0 0 0 0 0 0 0 0 0 0 0 0 0 0 0 0 0 0 0 0 0 36 80 87 79 88 88 88 58 38 38 42 26 23 27 28 38 54 70 77 88 83 48 88 85 88 88 81 53 56 63 66 50 60 40 42 34 26 17 18 31 26 36 61 88 88 88 79 82 71 40 13 0 0 0 0 0 0 0 0 0 0 0 0 0 0 0 0 0 0 0 0 0 0 0 0 0 0 0 0 0 0 0 0 0 0 0 0 0 0 0 0 
0 0 0 0 0 0 0 0 0 0 0 0 0 0 0 0 0 0 0 0 0 0 0 0 0 0 0 0 0 0 0 0 0 0 0 0 0 0 23 63 88 76 88 88 88 78 62 41 33 37 44 43 59 63 38 35 39 57 41 44 88 88 27 56 46 41 38 34 36 41 31 33 40 20 26 31 59 68 74 88 88 83 73 76 59 25 0 0 0 0 0 0 0 0 0 0 0 0 0 0 0 0 0 0 0 0 0 0 0 0 0 0 0 0 0 0 0 0 0 0 0 0 0 0 0 0 0 0 
0 0 0 0 0 0 0 0 0 0 0 0 0 0 0 0 0 0 0 0 0 0 0 0 0 0 0 0 0 0 0 0 0 0 0 0 0 0 0 0 49 82 79 78 88 88 88 70 67 57 39 35 23 23 38 42 42 40 44 51 22 29 55 48 51 55 48 42 35 24 29 30 35 49 61 88 88 88 88 84 72 72 65 45 16 0 0 0 0 0 0 0 0 0 0 0 0 0 0 0 0 0 0 0 0 0 0 0 0 0 0 0 0 0 0 0 0 0 0 0 0 0 0 0 0 0 0 0 
0 0 0 0 0 0 0 0 0 0 0 0 0 0 0 0 0 0 0 0 0 0 0 0 0 0 0 0 0 0 0 0 0 0 0 0 0 0 0 0 0 31 58 73 72 87 88 88 88 88 77 70 61 56 61 47 46 43 46 36 36 41 44 39 39 41 39 37 33 58 62 56 64 88 88 88 88 75 68 67 66 53 27 0 0 0 0 0 0 0 0 0 0 0 0 0 0 0 0 0 0 0 0 0 0 0 0 0 0 0 0 0 0 0 0 0 0 0 0 0 0 0 0 0 0 0 0 0 
0 0 0 0 0 0 0 0 0 0 0 0 0 0 0 0 0 0 0 0 0 0 0 0 0 0 0 0 0 0 0 0 0 0 0 0 0 0 0 0 0 0 0 32 61 75 71 74 85 88 88 88 88 88 88 87 88 78 84 83 79 75 73 68 70 66 75 74 82 88 88 88 88 81 82 75 71 69 71 59 29 11 0 0 0 0 0 0 0 0 0 0 0 0 0 0 0 0 0 0 0 0 0 0 0 0 0 0 0 0 0 0 0 0 0 0 0 0 0 0 0 0 0 0 0 0 0 0 
0 0 0 0 0 0 0 0 0 0 0 0 0 0 0 0 0 0 0 0 0 0 0 0 0 0 0 0 0 0 0 0 0 0 0 0 0 0 0 0 0 0 0 0 15 41 64 73 68 67 64 67 74 72 88 88 88 88 88 88 88 88 88 88 88 88 88 88 88 84 79 73 61 72 67 62 60 51 32 16 0 0 0 0 0 0 0 0 0 0 0 0 0 0 0 0 0 0 0 0 0 0 0 0 0 0 0 0 0 0 0 0 0 0 0 0 0 0 0 0 0 0 0 0 0 0 0 0 
0 0 0 0 0 0 0 0 0 0 0 0 0 0 0 0 0 0 0 0 0 0 0 0 0 0 0 0 0 0 0 0 0 0 0 0 0 0 0 0 0 0 0 0 0 0 17 37 50 59 65 64 65 70 70 73 81 84 85 83 84 78 75 74 74 68 68 69 66 67 63 59 63 53 47 39 28 11 0 0 0 0 0 0 0 0 0 0 0 0 0 0 0 0 0 0 0 0 0 0 0 0 0 0 0 0 0 0 0 0 0 0 0 0 0 0 0 0 0 0 0 0 0 0 0 0 0 0 
0 0 0 0 0 0 0 0 0 0 0 0 0 0 0 0 0 0 0 0 0 0 0 0 0 0 0 0 0 0 0 0 0 0 0 0 0 0 0 0 0 0 0 0 0 0 0 0 0 11 14 22 31 44 61 73 68 66 67 69 64 63 65 60 66 62 63 59 54 49 40 31 26 17 11 0 0 0 0 0 0 0 0 0 0 0 0 0 0 0 0 0 0 0 0 0 0 0 0 0 0 0 0 0 0 0 0 0 0 0 0 0 0 0 0 0 0 0 0 0 0 0 0 0 0 0 0 0 
0 0 0 0 0 0 0 0 0 0 0 0 0 0 0 0 0 0 0 0 0 0 0 0 0 0 0 0 0 0 0 0 0 0 0 0 0 0 0 0 0 0 0 0 0 0 0 0 0 0 0 0 0 0 17 35 45 56 58 55 50 46 46 47 36 29 25 21 17 0 0 0 0 0 0 0 0 0 0 0 0 0 0 0 0 0 0 0 0 0 0 0 0 0 0 0 0 0 0 0 0 0 0 0 0 0 0 0 0 0 0 0 0 0 0 0 0 0 0 0 0 0 0 0 0 0 0 0 
0 0 0 0 0 0 0 0 0 0 0 0 0 0 0 0 0 0 0 0 0 0 0 0 0 0 0 0 0 0 0 0 0 0 0 0 0 0 0 0 0 0 0 0 0 0 0 0 0 0 0 0 0 0 0 0 0 0 0 0 0 0 0 0 0 0 0 0 0 0 0 0 0 0 0 0 0 0 0 0 0 0 0 0 0 0 0 0 0 0 0 0 0 0 0 0 0 0 0 0 0 0 0 0 0 0 0 0 0 0 0 0 0 0 0 0 0 0 0 0 0 0 0 0 0 0 0 0 
0 0 0 0 0 0 0 0 0 0 0 0 0 0 0 0 0 0 0 0 0 0 0 0 0 0 0 0 0 0 0 0 0 0 0 0 0 0 0 0 0 0 0 0 0 0 0 0 0 0 0 0 0 0 0 0 0 0 0 0 0 0 0 0 0 0 0 0 0 0 0 0 0 0 0 0 0 0 0 0 0 0 0 0 0 0 0 0 0 0 0 0 0 0 0 0 0 0 0 0 0 0 0 0 0 0 0 0 0 0 0 0 0 0 0 0 0 0 0 0 0 0 0 0 0 0 0 0 
0 0 0 0 0 0 0 0 0 0 0 0 0 0 0 0 0 0 0 0 0 0 0 0 0 0 0 0 0 0 0 0 0 0 0 0 0 0 0 0 0 0 0 0 0 0 0 0 0 0 0 0 0 0 0 0 0 0 0 0 0 0 0 0 0 0 0 0 0 0 0 0 0 0 0 0 0 0 0 0 0 0 0 0 0 0 0 0 0 0 0 0 0 0 0 0 0 0 0 0 0 0 0 0 0 0 0 0 0 0 0 0 0 0 0 0 0 0 0 0 0 0 0 0 0 0 0 0 
0 0 0 0 0 0 0 0 0 0 0 0 0 0 0 0 0 0 0 0 0 0 0 0 0 0 0 0 0 0 0 0 0 0 0 0 0 0 0 0 0 0 0 0 0 0 0 0 0 0 0 0 0 0 0 0 0 0 0 0 0 0 0 0 0 0 0 0 0 0 0 0 0 0 0 0 0 0 0 0 0 0 0 0 0 0 0 0 0 0 0 0 0 0 0 0 0 0 0 0 0 0 0 0 0 0 0 0 0 0 0 0 0 0 0 0 0 0 0 0 0 0 0 0 0 0 0 0 
0 0 0 0 0 0 0 0 0 0 0 0 0 0 0 0 0 0 0 0 0 0 0 0 0 0 0 0 0 0 0 0 0 0 0 0 0 0 0 0 0 0 0 0 0 0 0 0 0 0 0 0 0 0 0 0 0 0 0 0 0 0 0 0 0 0 0 0 0 0 0 0 0 0 0 0 0 0 0 0 0 0 0 0 0 0 0 0 0 0 0 0 0 0 0 0 0 0 0 0 0 0 0 0 0 0 0 0 0 0 0 0 0 0 0 0 0 0 0 0 0 0 0 0 0 0 0 0 
0 0 0 0 0 0 0 0 0 0 0 0 0 0 0 0 0 0 0 0 0 0 0 0 0 0 0 0 0 0 0 0 0 0 0 0 0 0 0 0 0 0 0 0 0 0 0 0 0 0 0 0 0 0 0 0 0 0 0 0 0 0 0 0 0 0 0 0 0 0 0 0 0 0 0 0 0 0 0 0 0 0 0 0 0 0 0 0 0 0 0 0 0 0 0 0 0 0 0 0 0 0 0 0 0 0 0 0 0 0 0 0 0 0 0 0 0 0 0 0 0 0 0 0 0 0 0 0 
0 0 0 0 0 0 0 0 0 0 0 0 0 0 0 0 0 0 0 0 0 0 0 0 0 0 0 0 0 0 0 0 0 0 0 0 0 0 0 0 0 0 0 0 0 0 0 0 0 0 0 0 0 0 0 0 0 0 0 0 0 0 0 0 0 0 0 0 0 0 0 0 0 0 0 0 0 0 0 0 0 0 0 0 0 0 0 0 0 0 0 0 0 0 0 0 0 0 0 0 0 0 0 0 0 0 0 0 0 0 0 0 0 0 0 0 0 0 0 0 0 0 0 0 0 0 0 0 
