P2
128 128
88
0 0 0 0 0 0 0 0 0 0 0 0 0 0 0 0 0 0 0 0 0 0 0 0 0 0 0 0 0 0 0 0 0 0 0 0 0 0 0 0 0 0 0 0 0 0 0 0 0 0 0 0 0 0 0 0 0 0 0 0 0 0 0 0 0 0 0 0 0 0 0 0 0 0 0 0 0 0 0 0 0 0 0 0 0 0 0 0 0 0 0 0 0 0 0 0 0 0 0 0 0 0 0 0 0 0 0 0 0 0 0 0 0 0 0 0 0 0 0 0 0 0 0 0 0 0 0 0 
0 0 0 0 0 0 0 0 0 0 0 0 0 0 0 0 0 0 0 0 0 0 0 0 0 0 0 0 0 0 0 0 0 0 0 0 0 0 0 0 0 0 0 0 0 0 0 0 0 0 0 0 0 0 0 0 0 0 0 0 0 0 0 0 0 0 0 0 0 0 0 0 0 0 0 0 0 0 0 0 0 0 0 0 0 0 0 0 0 0 0 0 0 0 0 0 0 0 0 0 0 0 0 0 0 0 0 0 0 0 0 0 0 0 0 0 0 0 0 0 0 0 0 0 0 0 0 0 
0 0 0 0 0 0 0 0 0 0 0 0 0 0 0 0 0 0 0 0 0 0 0 0 0 0 0 0 0 0 0 0 0 0 0 0 0 0 0 0 0 0 0 0 0 0 0 0 0 0 0 0 0 0 0 0 0 0 0 0 0 0 0 0 0 0 0 0 0 0 0 0 0 0 0 0 0 0 0 0 0 0 0 0 0 0 0 0 0 0 0 0 0 0 0 0 0 0 0 0 0 0 0 0 0 0 0 0 0 0 0 0 0 0 0 0 0 0 0 0 0 0 0 0 0 0 0 0 
0 0 0 0 0 0 0 0 0 0 0 0 0 0 0 0 0 0 0 0 0 0 0 0 0 0 0 0 0 0 0 0 0 0 0 0 0 0 0 0 0 0 0 0 0 0 0 0 0 0 0 0 0 0 0 0 0 0 0 0 0 0 0 0 0 0 0 0 0 0 0 0 0 0 0 0 0 0 0 0 0 0 0 0 0 0 0 0 0 0 0 0 0 0 0 0 0 0 0 0 0 0 0 0 0 0 0 0 0 0 0 0 0 0 0 0 0 0 0 0 0 0 0 0 0 0 0 0 
0 0 0 0 0 0 0 0 0 0 0 0 0 0 0 0 0 0 0 0 0 0 0 0 0 0 0 0 0 0 0 0 0 0 0 0 0 0 0 0 0 0 0 0 0 0 0 0 0 0 0 0 0 0 0 0 0 0 0 0 0 0 0 0 0 0 0 0 0 0 0 0 0 0 0 0 0 0 0 0 0 0 0 0 0 0 0 0 0 0 0 0 0 0 0 0 0 0 0 0 0 0 0 0 0 0 0 0 0 0 0 0 0 0 0 0 0 0 0 0 0 0 0 0 0 0 0 0 
0 0 0 0 0 0 0 0 0 0 0 0 0 0 0 0 0 0 0 0 0 0 0 0 0 0 0 0 0 0 0 0 0 0 0 0 0 0 0 0 0 0 0 0 0 0 0 0 0 0 0 0 0 0 0 0 0 0 0 0 0 0 0 0 0 0 0 0 0 0 0 0 0 0 0 0 0 0 0 0 0 0 0 0 0 0 0 0 0 0 0 0 0 0 0 0 0 0 0 0 0 0 0 0 0 0 0 0 0 0 0 0 0 0 0 0 0 0 0 0 0 0 0 0 0 0 0 0 
0 0 0 0 0 0 0 0 0 0 0 0 0 0 0 0 0 0 0 0 0 0 0 0 0 0 0 0 0 0 0 0 0 0 0 0 0 0 0 0 0 0 0 0 0 0 0 0 0 0 0 0 0 0 0 0 0 0 0 0 0 0 0 0 0 0 0 0 0 0 0 0 0 0 0 0 0 0 0 0 0 0 0 0 0 0 0 0 0 0 0 0 0 0 0 0 0 0 0 0 0 0 0 0 0 0 0 0 0 0 0 0 0 0 0 0 0 0 0 0 0 0 0 0 0 0 0 0 
0 0 0 0 0 0 0 0 0 0 0 0 0 0 0 0 0 0 0 0 0 0 0 0 0 0 0 0 0 0 0 0 0 0 0 0 0 0 0 0 0 0 0 0 0 0 0 0 0 0 0 0 0 0 0 0 0 0 0 0 0 0 0 0 0 0 0 0 0 0 0 0 0 0 0 0 0 0 0 0 0 0 0 0 0 0 0 0 0 0 0 0 0 0 0 0 0 0 0 0 0 0 0 0 0 0 0 0 0 0 0 0 0 0 0 0 0 0 0 0 0 0 0 0 0 0 0 0 
0 0 0 0 0 0 0 0 0 0 0 0 0 0 0 0 0 0 0 0 0 0 0 0 0 0 0 0 0 0 0 0 0 0 0 0 0 0 0 0 0 0 0 0 0 0 0 0 0 0 0 0 0 0 0 0 0 0 0 0 0 0 0 0 0 0 0 0 0 0 0 0 0 0 0 0 0 0 0 0 0 0 0 0 0 0 0 0 0 0 0 0 0 0 0 0 0 0 0 0 0 0 0 0 0 0 0 0 0 0 0 0 0 0 0 0 0 0 0 0 0 0 0 0 0 0 0 0 
0 0 0 0 0 0 0 0 0 0 0 0 0 0 0 0 0 0 0 0 0 0 0 0 0 0 0 0 0 0 0 0 0 0 0 0 0 0 0 0 0 0 0 0 0 0 0 0 0 0 0 0 0 0 0 0 0 0 0 0 0 0 0 0 0 0 0 0 0 0 0 0 0 0 0 0 0 0 0 0 0 0 0 0 0 0 0 0 0 0 0 0 0 0 0 0 0 0 0 0 0 0 0 0 0 0 0 0 0 0 0 0 0 0 0 0 0 0 0 0 0 0 0 0 0 0 0 0 
0 0 0 0 0 0 0 0 0 0 0 0 0 0 0 0 0 0 0 0 0 0 0 0 0 0 0 0 0 0 0 0 0 0 0 0 0 0 0 0 0 0 0 0 0 0 0 0 0 0 0 0 0 0 0 0 0 0 0 0 0 0 0 0 0 0 0 0 0 0 0 0 0 0 0 0 0 0 0 0 0 0 0 0 0 0 0 0 0 0 0 0 0 0 0 0 0 0 0 0 0 0 0 0 0 0 0 0 0 0 0 0 0 0 0 0 0 0 0 0 0 0 0 0 0 0 0 0 
0 0 0 0 0 0 0 0 0 0 0 0 0 0 0 0 0 0 0 0 0 0 0 0 0 0 0 0 0 0 0 0 0 0 0 0 0 0 0 0 0 0 0 0 0 0 0 0 0 0 0 0 0 0 0 0 0 0 0 0 0 0 0 0 0 0 0 0 0 0 0 0 0 0 0 0 0 0 0 0 0 0 0 0 0 0 0 0 0 0 0 0 0 0 0 0 0 0 0 0 0 0 0 0 0 0 0 0 0 0 0 0 0 0 0 0 0 0 0 0 0 0 0 0 0 0 0 0 
0 0 0 0 0 0 0 0 0 0 0 0 0 0 0 0 0 0 0 0 0 0 0 0 0 0 0 0 0 0 0 0 0 0 0 0 0 0 0 0 0 0 0 0 0 0 0 0 0 0 0 0 0 0 0 0 0 0 0 0 0 0 0 0 0 0 0 0 0 0 0 0 0 0 0 0 0 0 0 0 0 0 0 0 0 0 0 0 0 0 0 0 0 0 0 0 0 0 0 0 0 0 0 0 0 0 0 0 0 0 0 0 0 0 0 0 0 0 0 0 0 0 0 0 0 0 0 0 
0 0 0 0 0 0 0 0 0 0 0 0 0 0 0 0 0 0 0 0 0 0 0 0 0 0 0 0 0 0 0 0 0 0 0 0 0 0 0 0 0 0 0 0 0 0 0 0 0 0 0 0 0 0 0 0 0 0 0 0 0 0 0 0 0 0 0 0 0 0 0 0 0 0 0 0 0 0 0 0 0 0 0 0 0 0 0 0 0 0 0 0 0 0 0 0 0 0 0 0 0 0 0 0 0 0 0 0 0 0 0 0 0 0 0 0 0 0 0 0 0 0 0 0 0 0 0 0 
0 0 0 0 0 0 0 0 0 0 0 0 0 0 0 0 0 0 0 0 0 0 0 0 0 0 0 0 0 0 0 0 0 0 0 0 0 0 0 0 0 0 0 0 0 0 0 0 0 0 0 0 0 0 0 0 0 0 0 0 0 0 0 0 0 0 0 0 0 0 0 0 0 0 0 0 0 0 0 0 0 0 0 0 0 0 0 0 0 0 0 0 0 0 0 0 0 0 0 0 0 0 0 0 0 0 0 0 0 0 0 0 0 0 0 0 0 0 0 0 0 0 0 0 0 0 0 0 
0 0 0 0 0 0 0 0 0 0 0 0 0 0 0 0 0 0 0 0 0 0 0 0 0 0 0 0 0 0 0 0 0 0 0 0 0 0 0 0 0 0 0 0 0 0 0 0 0 0 0 0 0 0 0 0 0 0 0 0 0 0 0 0 0 0 0 0 0 0 0 0 0 0 0 0 0 0 0 0 0 0 0 0 0 0 0 0 0 0 0 0 0 0 0 0 0 0 0 0 0 0 0 0 0 0 0 0 0 0 0 0 0 0 0 0 0 0 0 0 0 0 0 0 0 0 0 0 
0 0 0 0 0 0 0 0 0 0 0 0 0 0 0 0 0 0 0 0 0 0 0 0 0 0 0 0 0 0 0 0 0 0 0 0 0 0 0 0 0 0 0 0 0 0 0 0 0 0 0 0 0 0 0 0 0 0 0 0 0 0 0 0 0 0 0 0 0 0 0 0 0 0 0 0 0 0 0 0 0 0 0 0 0 0 0 0 0 0 0 0 0 0 0 0 0 0 0 0 0 0 0 0 0 0 0 0 0 0 0 0 0 0 0 0 0 0 0 0 0 0 0 0 0 0 0 0 
0 0 0 0 0 0 0 0 0 0 0 0 0 0 0 0 0 0 0 0 0 0 0 0 0 0 0 0 0 0 0 0 0 0 0 0 0 0 0 0 0 0 0 0 0 0 0 0 0 0 0 0 0 0 0 0 0 0 0 0 0 0 0 0 0 0 0 0 0 0 0 0 0 0 0 0 0 0 0 0 0 0 0 0 0 0 0 0 0 0 0 0 0 0 0 0 0 0 0 0 0 0 0 0 0 0 0 0 0 0 0 0 0 0 0 0 0 0 0 0 0 0 0 0 0 0 0 0 
0 0 0 0 0 0 0 0 0 0 0 0 0 0 0 0 0 0 0 0 0 0 0 0 0 0 0 0 0 0 0 0 0 0 0 0 0 0 0 0 0 0 0 0 0 0 0 0 0 0 0 0 0 0 0 0 0 0 0 0 0 0 0 0 0 0 0 0 0 0 0 0 0 0 0 0 0 0 0 0 0 0 0 0 0 0 0 0 0 0 0 0 0 0 0 0 0 0 0 0 0 0 0 0 0 0 0 0 0 0 0 0 0 0 0 0 0 0 0 0 0 0 0 0 0 0 0 0 
0 0 0 0 0 0 0 0 0 0 0 0 0 0 0 0 0 0 0 0 0 0 0 0 0 0 0 0 0 0 0 0 0 0 0 0 0 0 0 0 0 0 0 0 0 0 0 0 0 0 0 0 0 0 0 0 0 0 0 0 0 0 0 0 0 0 0 0 0 0 0 0 0 0 0 0 0 0 0 0 0 0 0 0 0 0 0 0 0 0 0 0 0 0 0 0 0 0 0 0 0 0 0 0 0 0 0 0 0 0 0 0 0 0 0 0 0 0 0 0 0 0 0 0 0 0 0 0 
0 0 0 0 0 0 0 0 0 0 0 0 0 0 0 0 0 0 0 0 0 0 0 0 0 0 0 0 0 0 0 0 0 0 0 0 0 0 0 0 0 0 0 0 0 0 0 0 0 0 0 0 0 0 0 0 0 0 0 0 0 0 0 0 0 0 0 0 0 0 0 0 0 0 0 0 0 0 0 0 0 0 0 0 0 0 0 0 0 0 0 0 0 0 0 0 0 0 0 0 0 0 0 0 0 0 0 0 0 0 0 0 0 0 0 0 0 0 0 0 0 0 0 0 0 0 0 0 
0 0 0 0 0 0 0 0 0 0 0 0 0 0 0 0 0 0 0 0 0 0 0 0 0 0 0 0 0 0 0 0 0 0 0 0 0 0 0 0 0 0 0 0 0 0 0 0 0 0 0 0 0 0 0 0 0 0 0 0 0 0 0 0 0 0 0 0 0 0 0 0 0 0 0 0 0 0 0 0 0 0 0 0 0 0 0 0 0 0 0 0 0 0 0 0 0 0 0 0 0 0 0 0 0 0 0 0 0 0 0 0 0 0 0 0 0 0 0 0 0 0 0 0 0 0 0 0 
0 0 0 0 0 0 0 0 0 0 0 0 0 0 0 0 0 0 0 0 0 0 0 0 0 0 0 0 0 0 0 0 0 0 0 0 0 0 0 0 0 0 0 0 0 0 0 0 0 0 0 0 0 0 0 0 0 0 0 0 0 0 0 0 0 0 0 0 0 0 0 0 0 0 0 0 0 0 0 0 0 0 0 0 0 0 0 0 0 0 0 0 0 0 0 0 0 0 0 0 0 0 0 0 0 0 0 0 0 0 0 0 0 0 0 0 0 0 0 0 0 0 0 0 0 0 0 0 
0 0 0 0 0 0 0 0 0 0 0 0 0 0 0 0 0 0 0 0 0 0 0 0 0 0 0 0 0 0 0 0 0 0 0 0 0 0 0 0 0 0 0 0 0 0 0 0 0 0 0 0 0 0 0 12 24 39 55 52 51 52 46 40 33 27 16 13 0 0 0 0 0 0 0 0 0 0 0 0 0 0 0 0 0 0 0 0 0 0 0 0 0 0 0 0 0 0 0 0 0 0 0 0 0 0 0 0 0 0 0 0 0 0 0 0 0 0 0 0 0 0 0 0 0 0 0 0 
0 0 0 0 0 0 0 0 0 0 0 0 0 0 0 0 0 0 0 0 0 0 0 0 0 0 0 0 0 0 0 0 0 0 0 0 0 0 0 0 0 0 0 0 0 0 0 0 0 0 0 0 0 21 37 59 79 88 88 88 88 88 88 88 88 79 71 52 38 25 0 0 0 0 0 0 0 0 0 0 0 0 0 0 0 0 0 0 0 0 0 0 0 0 0 0 0 0 0 0 0 0 0 0 0 0 0 0 0 0 0 0 0 0 0 0 0 0 0 0 0 0 0 0 0 0 0 0 
0 0 0 0 0 0 0 0 0 0 0 0 0 0 0 0 0 0 0 0 0 0 0 0 0 0 0 0 0 0 0 0 0 0 0 0 0 0 0 0 0 0 0 0 0 0 0 0 0 0 0 26 47 77 88 88 88 88 88 88 88 88 88 88 88 88 88 88 88 65 48 29 12 0 0 0 0 0 0 0 0 0 0 0 0 0 0 0 0 0 0 0 0 0 0 0 0 0 0 0 0 0 0 0 0 0 0 0 0 0 0 0 0 0 0 0 0 0 0 0 0 0 0 0 0 0 0 0 
0 0 0 0 0 0 0 0 0 0 0 0 0 0 0 0 0 0 0 0 0 0 0 0 0 0 0 0 0 0 0 0 0 0 0 0 0 0 0 0 0 0 0 0 0 0 0 0 0 17 38 68 88 88 88 88 88 88 88 88 79 76 74 88 88 88 88 88 88 88 88 80 54 26 13 0 0 0 0 0 0 0 0 0 0 0 0 0 0 0 0 0 0 0 0 0 0 0 0 0 0 0 0 0 0 0 0 0 0 0 0 0 0 0 0 0 0 0 0 0 0 0 0 0 0 0 0 0 
0 0 0 0 0 0 0 0 0 0 0 0 0 0 0 0 0 0 0 0 0 0 0 0 0 0 0 0 0 0 0 0 0 0 0 0 0 0 0 0 0 0 0 0 0 0 0 11 29 61 88 88 88 88 73 75 59 45 38 25 31 26 29 26 34 45 54 76 88 88 88 88 88 75 45 19 0 0 0 0 0 0 0 0 0 0 0 0 0 0 0 0 0 0 0 0 0 0 0 0 0 0 0 0 0 0 0 0 0 0 0 0 0 0 0 0 0 0 0 0 0 0 0 0 0 0 0 0 
0 0 0 0 0 0 0 0 0 0 0 0 0 0 0 0 0 0 0 0 0 0 0 0 0 0 0 0 0 0 0 0 0 0 0 0 0 0 0 0 0 0 0 0 0 0 20 46 75 88 88 88 88 78 70 33 24 26 27 31 34 36 34 31 31 28 29 29 43 64 88 88 88 88 88 59 31 0 0 0 0 0 0 0 0 0 0 0 0 0 0 0 0 0 0 0 0 0 0 0 0 0 0 0 0 0 0 0 0 0 0 0 0 0 0 0 0 0 0 0 0 0 0 0 0 0 0 0 
0 0 0 0 0 0 0 0 0 0 0 0 0 0 0 0 0 0 0 0 0 0 0 0 0 0 0 0 0 0 0 0 0 0 0 0 0 0 0 0 0 0 0 0 0 26 53 88 88 88 88 78 46 30 24 28 40 49 54 51 50 41 38 35 41 53 45 43 35 34 46 71 88 88 88 88 72 37 12 0 0 0 0 0 0 0 0 0 0 0 0 0 0 0 0 0 0 0 0 0 0 0 0 0 0 0 0 0 0 0 0 0 0 0 0 0 0 0 0 0 0 0 0 0 0 0 0 0 
0 0 0 0 0 0 0 0 0 0 0 0 0 0 0 0 0 0 0 0 0 0 0 0 0 0 0 0 0 0 0 0 0 0 0 0 0 0 0 0 0 0 0 0 28 60 88 88 88 88 45 33 32 42 46 54 60 55 50 37 35 31 23 27 33 36 45 51 59 52 39 33 53 84 88 88 88 87 42 12 0 0 0 0 0 0 0 0 0 0 0 0 0 0 0 0 0 0 0 0 0 0 0 0 0 0 0 0 0 0 0 0 0 0 0 0 0 0 0 0 0 0 0 0 0 0 0 0 
0 0 0 0 0 0 0 0 0 0 0 0 0 0 0 0 0 0 0 0 0 0 0 0 0 0 0 0 0 0 0 0 0 0 0 0 0 0 0 0 0 0 0 35 67 88 88 88 88 48 36 38 53 64 64 64 53 48 30 17 31 40 22 13 37 23 25 40 52 67 64 46 40 39 62 88 88 88 88 48 13 0 0 0 0 0 0 0 0 0 0 0 0 0 0 0 0 0 0 0 0 0 0 0 0 0 0 0 0 0 0 0 0 0 0 0 0 0 0 0 0 0 0 0 0 0 0 0 
0 0 0 0 0 0 0 0 0 0 0 0 0 0 0 0 0 0 0 0 0 0 0 0 0 0 0 0 0 0 0 0 0 0 0 0 0 0 0 0 0 0 33 64 88 88 88 69 44 32 49 64 66 60 58 41 28 15 14 22 29 50 13 8 39 39 24 19 27 50 68 64 53 42 35 52 88 88 88 84 49 15 0 0 0 0 0 0 0 0 0 0 0 0 0 0 0 0 0 0 0 0 0 0 0 0 0 0 0 0 0 0 0 0 0 0 0 0 0 0 0 0 0 0 0 0 0 0 
0 0 0 0 0 0 0 0 0 0 0 0 0 0 0 0 0 0 0 0 0 0 0 0 0 0 0 0 0 0 0 0 0 0 0 0 0 0 0 0 0 25 69 88 88 88 67 36 34 55 61 74 58 45 28 16 15 18 28 37 37 42 12 8 44 52 38 29 19 24 42 61 69 63 47 38 47 78 88 88 87 42 0 0 0 0 0 0 0 0 0 0 0 0 0 0 0 0 0 0 0 0 0 0 0 0 0 0 0 0 0 0 0 0 0 0 0 0 0 0 0 0 0 0 0 0 0 0 
0 0 0 0 0 0 0 0 0 0 0 0 0 0 0 0 0 0 0 0 0 0 0 0 0 0 0 0 0 0 0 0 0 0 0 0 0 0 0 0 21 61 88 88 88 63 32 36 59 67 65 52 36 26 17 20 29 37 47 47 45 43 27 19 41 51 44 39 36 33 27 39 46 62 63 54 40 44 81 88 88 88 40 0 0 0 0 0 0 0 0 0 0 0 0 0 0 0 0 0 0 0 0 0 0 0 0 0 0 0 0 0 0 0 0 0 0 0 0 0 0 0 0 0 0 0 0 0 
0 0 0 0 0 0 0 0 0 0 0 0 0 0 0 0 0 0 0 0 0 0 0 0 0 0 0 0 0 0 0 0 0 0 0 0 0 0 0 15 49 88 88 88 54 30 39 59 71 65 48 32 24 21 23 35 48 50 53 54 51 49 38 39 54 54 55 54 43 25 23 25 22 32 52 60 52 34 36 75 88 88 75 27 0 0 0 0 0 0 0 0 0 0 0 0 0 0 0 0 0 0 0 0 0 0 0 0 0 0 0 0 0 0 0 0 0 0 0 0 0 0 0 0 0 0 0 0 
0 0 0 0 0 0 0 0 0 0 0 0 0 0 0 0 0 0 0 0 0 0 0 0 0 0 0 0 0 0 0 0 0 0 0 0 0 0 0 41 88 88 88 64 38 45 62 69 58 39 27 18 20 24 31 52 53 55 55 57 56 51 40 45 53 57 57 59 53 39 29 20 19 16 34 50 61 48 32 48 83 88 88 68 21 0 0 0 0 0 0 0 0 0 0 0 0 0 0 0 0 0 0 0 0 0 0 0 0 0 0 0 0 0 0 0 0 0 0 0 0 0 0 0 0 0 0 0 
0 0 0 0 0 0 0 0 0 0 0 0 0 0 0 0 0 0 0 0 0 0 0 0 0 0 0 0 0 0 0 0 0 0 0 0 0 0 21 78 88 88 77 37 36 56 69 53 32 22 20 21 31 35 38 53 56 49 56 59 55 51 42 44 51 55 58 61 56 52 47 46 34 21 19 32 54 63 48 33 52 87 88 88 59 13 0 0 0 0 0 0 0 0 0 0 0 0 0 0 0 0 0 0 0 0 0 0 0 0 0 0 0 0 0 0 0 0 0 0 0 0 0 0 0 0 0 0 
0 0 0 0 0 0 0 0 0 0 0 0 0 0 0 0 0 0 0 0 0 0 0 0 0 0 0 0 0 0 0 0 0 0 0 0 0 13 68 88 88 78 41 35 57 63 56 31 16 18 28 34 43 45 40 53 58 54 62 55 55 52 46 58 58 54 55 60 57 54 55 54 51 33 14 18 29 54 49 41 34 55 88 88 88 48 0 0 0 0 0 0 0 0 0 0 0 0 0 0 0 0 0 0 0 0 0 0 0 0 0 0 0 0 0 0 0 0 0 0 0 0 0 0 0 0 0 0 
0 0 0 0 0 0 0 0 0 0 0 0 0 0 0 0 0 0 0 0 0 0 0 0 0 0 0 0 0 0 0 0 0 0 0 0 0 39 88 88 88 38 34 50 63 55 33 18 24 29 39 49 51 44 48 56 59 62 60 55 51 46 45 59 61 57 51 58 62 56 59 60 56 48 33 16 16 29 59 63 47 32 56 88 88 88 40 0 0 0 0 0 0 0 0 0 0 0 0 0 0 0 0 0 0 0 0 0 0 0 0 0 0 0 0 0 0 0 0 0 0 0 0 0 0 0 0 0 
0 0 0 0 0 0 0 0 0 0 0 0 0 0 0 0 0 0 0 0 0 0 0 0 0 0 0 0 0 0 0 0 0 0 0 0 19 81 88 88 46 30 55 67 55 35 18 20 39 51 51 52 50 48 47 57 61 64 57 56 54 55 60 59 63 60 55 50 58 60 60 59 56 56 47 36 19 21 35 47 58 44 31 73 88 88 79 26 0 0 0 0 0 0 0 0 0 0 0 0 0 0 0 0 0 0 0 0 0 0 0 0 0 0 0 0 0 0 0 0 0 0 0 0 0 0 0 0 
0 0 0 0 0 0 0 0 0 0 0 0 0 0 0 0 0 0 0 0 0 0 0 0 0 0 0 0 0 0 0 0 0 0 0 0 58 88 88 81 30 46 63 54 36 18 21 38 51 55 54 51 46 47 52 58 66 62 57 53 56 56 61 58 62 64 56 51 51 58 58 56 58 57 53 50 33 20 21 31 54 60 36 28 72 88 88 61 12 0 0 0 0 0 0 0 0 0 0 0 0 0 0 0 0 0 0 0 0 0 0 0 0 0 0 0 0 0 0 0 0 0 0 0 0 0 0 0 
0 0 0 0 0 0 0 0 0 0 0 0 0 0 0 0 0 0 0 0 0 0 0 0 0 0 0 0 0 0 0 0 0 0 0 35 88 88 81 37 32 56 51 37 17 22 38 52 55 52 52 53 49 44 59 61 64 63 58 61 58 60 57 59 61 64 64 56 55 57 51 52 55 50 50 51 51 34 25 17 35 54 48 30 33 88 88 88 41 0 0 0 0 0 0 0 0 0 0 0 0 0 0 0 0 0 0 0 0 0 0 0 0 0 0 0 0 0 0 0 0 0 0 0 0 0 0 0 
0 0 0 0 0 0 0 0 0 0 0 0 0 0 0 0 0 0 0 0 0 0 0 0 0 0 0 0 0 0 0 0 0 0 15 79 88 87 31 27 47 51 41 18 12 35 42 50 53 56 51 49 52 55 59 65 64 62 60 59 60 55 56 54 59 63 67 65 58 56 57 54 51 56 53 60 56 46 38 28 22 37 55 49 29 39 88 88 88 21 0 0 0 0 0 0 0 0 0 0 0 0 0 0 0 0 0 0 0 0 0 0 0 0 0 0 0 0 0 0 0 0 0 0 0 0 0 0 
0 0 0 0 0 0 0 0 0 0 0 0 0 0 0 0 0 0 0 0 0 0 0 0 0 0 0 0 0 0 0 0 0 0 45 88 88 51 28 41 57 40 16 20 31 43 46 56 56 51 50 53 56 58 63 66 65 66 62 63 58 56 62 53 57 60 65 66 68 60 60 57 59 58 59 62 58 56 17 25 21 19 37 57 37 18 67 88 88 54 0 0 0 0 0 0 0 0 0 0 0 0 0 0 0 0 0 0 0 0 0 0 0 0 0 0 0 0 0 0 0 0 0 0 0 0 0 0 
0 0 0 0 0 0 0 0 0 0 0 0 0 0 0 0 0 0 0 0 0 0 0 0 0 0 0 0 0 0 0 0 0 19 88 88 82 24 33 50 39 18 18 40 28 51 57 54 60 56 58 57 61 61 62 61 66 62 67 63 61 54 54 50 63 58 59 66 67 69 65 62 58 61 64 62 52 48 30 54 31 18 25 38 22 13 9 88 88 88 22 0 0 0 0 0 0 0 0 0 0 0 0 0 0 0 0 0 0 0 0 0 0 0 0 0 0 0 0 0 0 0 0 0 0 0 0 0 
0 0 0 0 0 0 0 0 0 0 0 0 0 0 0 0 0 0 0 0 0 0 0 0 0 0 0 0 0 0 0 0 0 54 88 88 33 24 35 39 12 18 42 56 36 56 57 59 63 60 61 60 60 63 63 66 66 65 62 60 58 51 42 46 60 61 61 69 65 66 64 66 67 67 63 57 54 48 58 56 48 31 20 21 16 21 30 63 88 88 58 0 0 0 0 0 0 0 0 0 0 0 0 0 0 0 0 0 0 0 0 0 0 0 0 0 0 0 0 0 0 0 0 0 0 0 0 0 
0 0 0 0 0 0 0 0 0 0 0 0 0 0 0 0 0 0 0 0 0 0 0 0 0 0 0 0 0 0 0 0 20 88 88 58 15 22 23 14 16 45 53 56 50 51 58 58 64 65 63 63 64 65 67 68 63 64 60 61 54 31 56 58 60 65 67 67 69 62 63 67 65 59 56 58 52 58 59 59 56 37 20 13 12 7 23 15 74 88 80 25 0 0 0 0 0 0 0 0 0 0 0 0 0 0 0 0 0 0 0 0 0 0 0 0 0 0 0 0 0 0 0 0 0 0 0 0 
0 0 0 0 0 0 0 0 0 0 0 0 0 0 0 0 0 0 0 0 0 0 0 0 0 0 0 0 0 0 0 0 56 88 88 37 8 11 14 11 42 56 56 59 59 53 53 57 59 62 66 64 65 65 66 66 65 65 60 58 56 38 63 57 63 66 67 68 69 66 68 64 59 57 54 50 57 58 61 60 52 45 26 12 8 13 27 33 29 88 88 49 0 0 0 0 0 0 0 0 0 0 0 0 0 0 0 0 0 0 0 0 0 0 0 0 0 0 0 0 0 0 0 0 0 0 0 0 
0 0 0 0 0 0 0 0 0 0 0 0 0 0 0 0 0 0 0 0 0 0 0 0 0 0 0 0 0 0 0 23 88 88 64 18 21 13 15 37 53 55 58 57 61 59 59 49 55 61 57 60 68 64 64 67 65 63 63 57 58 36 60 57 57 59 61 67 66 67 67 56 53 48 57 62 59 65 66 59 56 55 54 40 23 13 17 46 36 61 88 84 21 0 0 0 0 0 0 0 0 0 0 0 0 0 0 0 0 0 0 0 0 0 0 0 0 0 0 0 0 0 0 0 0 0 0 0 
0 0 0 0 0 0 0 0 0 0 0 0 0 0 0 0 0 0 0 0 0 0 0 0 0 0 0 0 0 0 0 63 88 88 21 16 16 21 34 48 52 55 51 44 54 60 55 53 41 47 57 57 63 68 66 65 64 57 57 58 53 60 52 49 60 56 58 61 69 67 62 58 48 61 61 65 66 62 63 64 62 60 56 55 49 32 18 34 32 46 88 88 47 0 0 0 0 0 0 0 0 0 0 0 0 0 0 0 0 0 0 0 0 0 0 0 0 0 0 0 0 0 0 0 0 0 0 0 
0 0 0 0 0 0 0 0 0 0 0 0 0 0 0 0 0 0 0 0 0 0 0 0 0 0 0 0 0 0 23 88 88 38 24 34 27 37 42 42 43 40 42 61 60 61 62 59 54 49 56 62 62 69 65 64 65 56 56 52 52 28 53 50 57 60 59 60 68 67 63 57 58 60 65 63 57 56 58 58 63 63 60 59 57 49 26 20 38 32 86 88 79 22 0 0 0 0 0 0 0 0 0 0 0 0 0 0 0 0 0 0 0 0 0 0 0 0 0 0 0 0 0 0 0 0 0 0 
0 0 0 0 0 0 0 0 0 0 0 0 0 0 0 0 0 0 0 0 0 0 0 0 0 0 0 0 0 0 52 88 88 32 36 37 21 52 71 40 38 38 62 56 63 63 62 60 51 53 58 60 68 64 66 60 66 63 58 60 61 47 53 55 58 60 63 63 69 67 60 51 48 60 57 55 56 64 52 48 56 55 57 55 54 55 38 18 29 33 55 88 88 55 0 0 0 0 0 0 0 0 0 0 0 0 0 0 0 0 0 0 0 0 0 0 0 0 0 0 0 0 0 0 0 0 0 0 
0 0 0 0 0 0 0 0 0 0 0 0 0 0 0 0 0 0 0 0 0 0 0 0 0 0 0 0 0 16 83 88 76 25 44 30 62 79 50 58 26 43 60 62 64 65 63 58 50 43 61 58 64 64 66 68 64 62 63 62 60 57 58 57 59 60 63 68 68 66 67 59 57 55 57 54 60 60 61 55 43 47 42 53 50 52 43 23 17 40 32 88 88 88 29 0 0 0 0 0 0 0 0 0 0 0 0 0 0 0 0 0 0 0 0 0 0 0 0 0 0 0 0 0 0 0 0 0 
0 0 0 0 0 0 0 0 0 0 0 0 0 0 0 0 0 0 0 0 0 0 0 0 0 0 0 0 0 45 88 83 27 35 37 25 59 59 38 37 41 42 61 59 63 65 62 60 58 59 52 60 59 62 65 65 64 64 66 67 62 59 56 57 61 63 65 70 65 63 70 68 66 63 64 65 67 63 59 52 61 58 57 57 59 58 58 45 17 30 40 33 76 88 69 0 0 0 0 0 0 0 0 0 0 0 0 0 0 0 0 0 0 0 0 0 0 0 0 0 0 0 0 0 0 0 0 0 
0 0 0 0 0 0 0 0 0 0 0 0 0 0 0 0 0 0 0 0 0 0 0 0 0 0 0 0 11 63 88 86 22 40 21 23 37 45 60 55 54 47 46 56 59 62 68 67 65 60 61 58 54 61 65 66 67 65 57 59 61 56 56 57 59 64 67 66 69 66 69 69 70 68 67 66 63 60 58 57 62 64 63 63 63 62 56 47 28 29 40 44 88 88 82 24 0 0 0 0 0 0 0 0 0 0 0 0 0 0 0 0 0 0 0 0 0 0 0 0 0 0 0 0 0 0 0 0 
0 0 0 0 0 0 0 0 0 0 0 0 0 0 0 0 0 0 0 0 0 0 0 0 0 0 0 0 31 86 88 56 32 34 24 39 52 54 57 58 58 57 59 48 39 61 62 67 65 67 63 59 61 60 65 65 66 59 56 57 60 47 50 58 61 62 65 69 68 66 70 69 66 65 63 63 62 55 58 62 65 68 63 63 61 56 62 51 43 17 38 33 54 88 88 43 0 0 0 0 0 0 0 0 0 0 0 0 0 0 0 0 0 0 0 0 0 0 0 0 0 0 0 0 0 0 0 0 
0 0 0 0 0 0 0 0 0 0 0 0 0 0 0 0 0 0 0 0 0 0 0 0 0 0 0 0 59 88 88 38 37 44 34 52 56 60 63 62 62 61 59 58 56 51 59 65 66 66 67 64 63 62 64 64 65 58 57 47 49 37 54 47 56 63 61 65 70 68 69 68 66 61 56 56 53 58 63 66 65 60 59 58 59 52 42 33 49 14 25 42 37 88 88 65 0 0 0 0 0 0 0 0 0 0 0 0 0 0 0 0 0 0 0 0 0 0 0 0 0 0 0 0 0 0 0 0 
0 0 0 0 0 0 0 0 0 0 0 0 0 0 0 0 0 0 0 0 0 0 0 0 0 0 0 18 78 88 81 33 51 28 34 55 59 60 63 64 64 65 64 63 60 61 63 67 66 65 63 61 61 65 65 64 64 59 51 58 60 46 56 60 61 58 62 64 69 68 68 67 65 62 62 60 61 64 67 63 60 56 51 52 49 53 56 57 51 50 26 36 28 80 88 86 21 0 0 0 0 0 0 0 0 0 0 0 0 0 0 0 0 0 0 0 0 0 0 0 0 0 0 0 0 0 0 0 
0 0 0 0 0 0 0 0 0 0 0 0 0 0 0 0 0 0 0 0 0 0 0 0 0 0 0 33 88 88 55 35 49 24 34 56 59 62 65 64 64 63 64 65 65 67 66 66 66 61 61 60 63 66 67 66 66 60 49 63 60 52 62 55 56 60 63 66 68 68 67 68 65 65 65 66 67 66 65 61 58 52 57 56 58 59 60 60 55 49 32 39 35 52 88 88 42 0 0 0 0 0 0 0 0 0 0 0 0 0 0 0 0 0 0 0 0 0 0 0 0 0 0 0 0 0 0 0 
0 0 0 0 0 0 0 0 0 0 0 0 0 0 0 0 0 0 0 0 0 0 0 0 0 0 0 56 88 88 40 47 48 23 35 57 59 59 63 64 61 62 63 64 65 65 66 68 64 60 60 63 67 68 65 68 64 60 51 63 61 57 64 57 58 63 64 68 68 68 69 68 66 64 65 68 69 65 63 59 59 61 60 60 63 63 62 61 55 52 16 40 45 30 88 88 63 0 0 0 0 0 0 0 0 0 0 0 0 0 0 0 0 0 0 0 0 0 0 0 0 0 0 0 0 0 0 0 
0 0 0 0 0 0 0 0 0 0 0 0 0 0 0 0 0 0 0 0 0 0 0 0 0 0 19 80 88 80 33 52 42 17 28 36 42 59 64 60 61 50 56 56 62 64 65 68 63 60 62 63 68 67 66 68 66 58 54 63 64 56 65 59 56 63 63 69 68 69 67 67 67 63 63 67 67 66 65 68 66 67 68 65 54 49 55 61 56 48 16 32 52 22 77 88 76 14 0 0 0 0 0 0 0 0 0 0 0 0 0 0 0 0 0 0 0 0 0 0 0 0 0 0 0 0 0 0 
0 0 0 0 0 0 0 0 0 0 0 0 0 0 0 0 0 0 0 0 0 0 0 0 0 0 37 88 88 59 33 59 34 18 37 51 41 63 59 63 60 59 59 60 49 61 63 66 66 61 58 60 66 66 66 69 65 56 47 63 61 59 52 44 44 55 63 61 66 66 69 67 68 61 62 64 67 66 66 67 67 62 65 60 53 51 57 62 57 45 16 30 62 24 48 88 88 33 0 0 0 0 0 0 0 0 0 0 0 0 0 0 0 0 0 0 0 0 0 0 0 0 0 0 0 0 0 0 
0 0 0 0 0 0 0 0 0 0 0 0 0 0 0 0 0 0 0 0 0 0 0 0 0 0 65 88 88 39 45 50 20 28 48 50 35 58 60 62 62 61 65 62 62 49 61 64 63 63 56 61 64 70 68 69 68 65 54 62 64 59 61 53 59 39 50 60 63 68 66 68 69 60 60 62 67 64 61 62 63 60 60 61 61 66 62 56 55 48 21 19 48 34 32 88 88 56 0 0 0 0 0 0 0 0 0 0 0 0 0 0 0 0 0 0 0 0 0 0 0 0 0 0 0 0 0 0 
0 0 0 0 0 0 0 0 0 0 0 0 0 0 0 0 0 0 0 0 0 0 0 0 0 19 88 88 79 29 57 37 20 35 57 58 43 37 60 62 59 64 67 67 62 61 52 58 64 62 61 57 64 65 68 66 68 67 63 65 66 58 61 58 61 62 51 58 63 66 67 64 68 61 59 62 61 64 55 52 54 56 59 55 60 63 64 56 56 37 25 18 42 48 18 88 88 78 15 0 0 0 0 0 0 0 0 0 0 0 0 0 0 0 0 0 0 0 0 0 0 0 0 0 0 0 0 0 
0 0 0 0 0 0 0 0 0 0 0 0 0 0 0 0 0 0 0 0 0 0 0 0 0 41 88 88 56 33 58 32 26 46 58 63 63 44 60 62 62 65 67 65 66 63 62 56 50 57 58 64 64 69 70 72 67 66 63 63 62 61 61 59 61 62 59 58 65 67 67 66 68 62 56 57 60 52 63 63 60 62 60 62 63 63 60 51 52 41 50 16 30 58 15 53 88 88 37 0 0 0 0 0 0 0 0 0 0 0 0 0 0 0 0 0 0 0 0 0 0 0 0 0 0 0 0 0 
0 0 0 0 0 0 0 0 0 0 0 0 0 0 0 0 0 0 0 0 0 0 0 0 0 62 88 88 41 44 59 26 21 33 61 58 62 62 56 59 65 65 64 63 67 66 67 63 63 61 68 67 68 68 69 69 66 63 61 58 61 48 61 60 60 59 57 51 63 67 68 68 64 60 56 61 60 62 63 64 64 65 65 61 64 60 60 45 51 33 32 18 25 57 31 24 88 88 53 0 0 0 0 0 0 0 0 0 0 0 0 0 0 0 0 0 0 0 0 0 0 0 0 0 0 0 0 0 
0 0 0 0 0 0 0 0 0 0 0 0 0 0 0 0 0 0 0 0 0 0 0 0 13 76 88 88 34 50 51 23 23 33 39 63 63 62 59 59 62 63 62 64 66 63 68 67 68 66 69 66 69 68 69 69 63 59 57 59 44 59 56 60 60 57 47 68 62 67 68 66 68 58 63 65 67 66 67 64 64 63 65 63 60 61 44 50 61 58 33 24 18 51 44 17 88 88 69 0 0 0 0 0 0 0 0 0 0 0 0 0 0 0 0 0 0 0 0 0 0 0 0 0 0 0 0 0 
0 0 0 0 0 0 0 0 0 0 0 0 0 0 0 0 0 0 0 0 0 0 0 0 23 88 88 76 32 58 43 22 38 43 35 58 62 63 64 57 55 58 55 63 63 64 64 66 68 69 68 71 69 69 68 68 65 60 61 51 58 61 52 61 57 63 60 72 63 67 67 66 68 64 65 67 69 65 64 63 63 63 62 60 65 57 53 63 62 59 52 27 15 38 58 13 65 88 88 19 0 0 0 0 0 0 0 0 0 0 0 0 0 0 0 0 0 0 0 0 0 0 0 0 0 0 0 0 
0 0 0 0 0 0 0 0 0 0 0 0 0 0 0 0 0 0 0 0 0 0 0 0 35 88 88 41 35 71 37 23 49 55 49 55 57 63 67 65 63 62 60 58 60 66 63 65 66 67 68 66 65 68 67 68 67 61 62 50 63 59 55 62 69 61 60 64 68 65 66 66 67 68 66 67 66 65 63 64 61 55 61 60 59 56 64 63 64 60 59 36 19 32 57 23 60 88 88 33 0 0 0 0 0 0 0 0 0 0 0 0 0 0 0 0 0 0 0 0 0 0 0 0 0 0 0 0 
0 0 0 0 0 0 0 0 0 0 0 0 0 0 0 0 0 0 0 0 0 0 0 0 47 88 88 29 53 74 37 31 56 60 60 57 57 62 65 66 64 65 64 57 38 61 66 65 68 67 66 64 67 66 68 67 66 63 58 54 63 62 54 62 60 60 62 64 67 68 65 67 65 67 67 68 65 64 63 62 41 59 62 64 61 64 65 64 63 61 58 39 26 31 48 31 29 88 88 58 0 0 0 0 0 0 0 0 0 0 0 0 0 0 0 0 0 0 0 0 0 0 0 0 0 0 0 0 
0 0 0 0 0 0 0 0 0 0 0 0 0 0 0 0 0 0 0 0 0 0 0 0 57 88 88 31 64 68 29 38 58 63 63 59 54 56 60 65 67 63 63 63 62 63 65 66 65 66 65 68 63 67 68 64 66 62 51 61 63 62 52 59 61 50 61 63 64 66 67 65 66 67 66 66 66 63 65 40 65 63 63 63 63 65 66 66 62 62 64 47 28 25 48 43 17 73 88 79 12 0 0 0 0 0 0 0 0 0 0 0 0 0 0 0 0 0 0 0 0 0 0 0 0 0 0 0 
0 0 0 0 0 0 0 0 0 0 0 0 0 0 0 0 0 0 0 0 0 0 0 0 73 88 77 29 81 60 24 42 62 63 64 62 59 52 54 60 65 66 65 60 63 64 65 65 64 65 65 67 66 66 67 64 63 52 59 63 63 57 57 58 61 47 44 62 57 63 65 67 67 64 66 66 65 66 61 62 64 63 60 63 64 65 62 61 59 60 57 39 34 27 40 43 16 58 88 86 24 0 0 0 0 0 0 0 0 0 0 0 0 0 0 0 0 0 0 0 0 0 0 0 0 0 0 0 
0 0 0 0 0 0 0 0 0 0 0 0 0 0 0 0 0 0 0 0 0 0 0 14 88 88 70 42 83 46 27 15 52 59 62 66 64 67 47 55 61 66 65 64 64 65 64 67 65 67 66 64 66 67 69 64 63 59 58 60 63 57 56 55 63 61 55 60 60 66 66 69 65 67 66 67 66 67 67 65 64 65 63 62 62 67 68 66 65 63 60 48 23 31 48 43 19 74 88 88 29 0 0 0 0 0 0 0 0 0 0 0 0 0 0 0 0 0 0 0 0 0 0 0 0 0 0 0 
0 0 0 0 0 0 0 0 0 0 0 0 0 0 0 0 0 0 0 0 0 0 0 39 88 88 60 49 79 38 30 29 35 60 63 68 64 61 44 47 63 66 66 66 65 65 65 66 67 68 68 65 69 67 68 68 65 59 62 62 62 59 56 55 61 55 61 57 58 64 66 66 65 70 66 66 64 66 65 64 65 63 64 63 66 65 63 62 61 60 51 36 27 38 50 52 22 47 88 87 31 0 0 0 0 0 0 0 0 0 0 0 0 0 0 0 0 0 0 0 0 0 0 0 0 0 0 0 
0 0 0 0 0 0 0 0 0 0 0 0 0 0 0 0 0 0 0 0 0 0 0 65 88 88 28 60 71 40 38 46 57 59 66 64 60 56 60 49 63 63 66 67 69 69 68 68 67 69 68 70 68 69 70 71 66 65 62 61 64 63 48 54 55 57 62 61 63 65 68 70 66 66 68 64 65 64 63 68 63 66 66 65 64 61 58 56 56 53 53 50 42 35 51 62 27 31 88 85 26 0 0 0 0 0 0 0 0 0 0 0 0 0 0 0 0 0 0 0 0 0 0 0 0 0 0 0 
0 0 0 0 0 0 0 0 0 0 0 0 0 0 0 0 0 0 0 0 0 0 0 72 88 88 46 61 60 37 44 56 63 64 66 61 58 60 60 52 57 61 62 66 70 73 68 67 68 68 67 69 72 69 68 63 65 64 61 61 63 64 48 58 65 58 63 64 64 66 67 69 70 69 67 67 64 65 64 65 63 64 63 63 58 43 41 49 53 58 59 59 49 41 52 70 33 34 88 88 23 0 0 0 0 0 0 0 0 0 0 0 0 0 0 0 0 0 0 0 0 0 0 0 0 0 0 0 
0 0 0 0 0 0 0 0 0 0 0 0 0 0 0 0 0 0 0 0 0 0 19 82 88 88 39 65 58 31 47 62 63 67 66 59 59 65 69 64 59 57 60 64 65 67 71 68 68 67 70 66 69 71 66 63 57 61 57 60 63 61 53 59 61 51 63 59 59 62 63 67 69 68 67 67 65 66 64 67 65 63 62 58 60 56 58 61 62 63 64 57 53 41 53 68 42 20 88 88 21 0 0 0 0 0 0 0 0 0 0 0 0 0 0 0 0 0 0 0 0 0 0 0 0 0 0 0 
0 0 0 0 0 0 0 0 0 0 0 0 0 0 0 0 0 0 0 0 0 0 27 79 88 88 42 66 56 37 50 60 65 65 64 62 54 62 68 67 64 65 65 65 63 63 68 70 69 71 64 71 70 68 62 51 43 59 61 56 63 61 56 61 60 54 52 50 51 50 61 64 69 72 68 68 69 67 66 69 64 61 59 55 57 58 59 63 63 63 63 61 48 38 49 68 41 21 88 83 24 0 0 0 0 0 0 0 0 0 0 0 0 0 0 0 0 0 0 0 0 0 0 0 0 0 0 0 
0 0 0 0 0 0 0 0 0 0 0 0 0 0 0 0 0 0 0 0 0 0 22 81 88 88 29 63 54 34 50 60 61 61 55 56 49 60 64 69 71 68 63 64 61 62 70 69 69 69 68 68 68 67 44 61 62 61 60 60 63 61 53 62 60 61 59 61 62 60 60 57 68 68 68 67 65 68 69 70 68 62 57 54 58 56 54 56 58 65 64 55 53 38 50 64 40 26 88 88 12 0 0 0 0 0 0 0 0 0 0 0 0 0 0 0 0 0 0 0 0 0 0 0 0 0 0 0 
0 0 0 0 0 0 0 0 0 0 0 0 0 0 0 0 0 0 0 0 0 0 24 85 88 88 29 54 44 38 50 69 52 63 41 57 60 51 57 63 69 64 59 59 62 66 71 71 71 69 68 68 72 63 58 65 67 65 65 66 63 59 51 57 60 54 59 59 57 52 52 59 68 68 71 69 68 69 66 67 67 68 66 60 55 50 47 62 63 64 61 56 47 34 53 69 38 32 88 87 0 0 0 0 0 0 0 0 0 0 0 0 0 0 0 0 0 0 0 0 0 0 0 0 0 0 0 0 
0 0 0 0 0 0 0 0 0 0 0 0 0 0 0 0 0 0 0 0 0 0 29 83 88 88 35 52 57 36 75 58 55 50 58 60 62 62 56 60 68 64 54 61 64 71 69 70 71 70 69 68 69 66 56 65 66 62 62 61 61 61 50 55 55 59 63 58 56 68 62 64 69 68 68 69 70 67 60 60 62 61 61 59 55 52 59 63 63 63 58 60 42 40 55 65 37 40 88 81 12 0 0 0 0 0 0 0 0 0 0 0 0 0 0 0 0 0 0 0 0 0 0 0 0 0 0 0 
0 0 0 0 0 0 0 0 0 0 0 0 0 0 0 0 0 0 0 0 0 0 28 86 88 88 33 54 53 46 44 52 59 61 63 64 64 64 63 63 70 64 57 60 67 66 64 66 70 69 70 67 71 69 64 67 67 62 53 61 61 62 52 48 63 62 63 63 63 61 58 67 71 67 69 69 67 68 64 57 47 50 52 48 46 60 63 66 65 63 58 57 39 37 57 58 26 42 88 87 14 0 0 0 0 0 0 0 0 0 0 0 0 0 0 0 0 0 0 0 0 0 0 0 0 0 0 0 
0 0 0 0 0 0 0 0 0 0 0 0 0 0 0 0 0 0 0 0 0 0 24 77 88 88 42 53 57 39 46 62 61 65 67 65 63 63 64 68 62 63 38 57 63 62 60 68 70 62 67 70 71 71 67 70 71 64 64 63 63 61 61 59 61 62 65 69 69 67 69 69 68 70 70 68 67 65 68 63 41 53 63 62 61 63 65 66 65 63 57 56 21 37 55 61 23 67 88 88 22 0 0 0 0 0 0 0 0 0 0 0 0 0 0 0 0 0 0 0 0 0 0 0 0 0 0 0 
0 0 0 0 0 0 0 0 0 0 0 0 0 0 0 0 0 0 0 0 0 0 12 78 88 88 41 48 61 27 42 63 62 64 69 67 62 61 61 63 61 55 62 61 57 53 64 67 65 63 63 70 69 74 69 70 71 72 70 71 68 60 56 60 60 61 64 68 72 69 69 70 69 68 64 68 64 63 67 64 55 54 64 67 67 71 65 63 60 56 60 8 24 36 50 54 25 88 88 84 26 0 0 0 0 0 0 0 0 0 0 0 0 0 0 0 0 0 0 0 0 0 0 0 0 0 0 0 
0 0 0 0 0 0 0 0 0 0 0 0 0 0 0 0 0 0 0 0 0 0 0 58 88 88 80 35 73 39 45 52 56 56 60 65 70 65 60 56 56 65 63 62 61 63 62 63 68 59 54 67 69 70 70 71 64 64 62 64 63 62 55 62 64 63 65 66 66 69 72 70 69 65 61 61 66 64 63 62 59 42 65 68 68 63 59 61 54 45 3 46 23 37 52 49 22 88 88 88 24 0 0 0 0 0 0 0 0 0 0 0 0 0 0 0 0 0 0 0 0 0 0 0 0 0 0 0 
0 0 0 0 0 0 0 0 0 0 0 0 0 0 0 0 0 0 0 0 0 0 0 51 88 88 82 29 77 55 31 44 56 63 60 60 69 68 69 67 64 66 71 65 67 63 55 62 59 58 53 68 69 71 71 67 66 61 63 58 60 61 49 61 63 64 63 64 64 69 69 70 71 61 58 57 62 60 61 59 53 24 63 63 64 60 51 54 54 36 57 37 31 52 81 36 42 88 88 81 24 0 0 0 0 0 0 0 0 0 0 0 0 0 0 0 0 0 0 0 0 0 0 0 0 0 0 0 
0 0 0 0 0 0 0 0 0 0 0 0 0 0 0 0 0 0 0 0 0 0 0 31 79 88 88 29 74 63 26 44 65 61 64 65 68 66 64 69 72 70 68 65 64 61 51 65 63 65 68 71 69 70 72 71 62 63 60 63 59 59 46 62 62 62 62 59 66 68 71 71 68 65 52 58 56 61 58 60 56 65 61 63 64 61 57 46 55 57 53 40 41 56 65 24 63 88 88 71 15 0 0 0 0 0 0 0 0 0 0 0 0 0 0 0 0 0 0 0 0 0 0 0 0 0 0 0 
0 0 0 0 0 0 0 0 0 0 0 0 0 0 0 0 0 0 0 0 0 0 0 16 75 88 88 53 54 74 38 26 62 63 68 69 67 63 59 63 73 69 61 57 57 54 51 60 64 65 70 68 68 70 73 70 65 65 63 62 62 63 53 56 60 59 57 59 64 69 69 68 69 66 66 63 61 55 59 62 63 63 64 67 67 62 61 53 51 86 47 38 49 65 56 17 88 88 88 60 0 0 0 0 0 0 0 0 0 0 0 0 0 0 0 0 0 0 0 0 0 0 0 0 0 0 0 0 
0 0 0 0 0 0 0 0 0 0 0 0 0 0 0 0 0 0 0 0 0 0 0 0 59 88 88 72 32 74 39 38 42 63 62 63 62 60 60 63 67 70 54 62 65 64 62 54 46 57 65 68 70 70 71 72 68 65 66 66 67 63 49 54 59 58 61 64 64 67 72 67 67 66 65 67 63 59 59 62 65 66 65 70 65 60 62 59 41 88 45 30 52 70 41 26 88 88 87 49 0 0 0 0 0 0 0 0 0 0 0 0 0 0 0 0 0 0 0 0 0 0 0 0 0 0 0 0 
0 0 0 0 0 0 0 0 0 0 0 0 0 0 0 0 0 0 0 0 0 0 0 0 33 88 88 88 18 68 51 28 48 51 61 62 60 54 56 61 68 67 66 67 70 68 68 62 67 63 63 68 68 70 73 71 69 67 68 67 67 63 46 58 62 58 64 63 62 59 68 68 68 67 68 66 63 58 44 62 59 66 67 67 63 61 58 60 35 67 60 30 65 64 24 59 88 88 88 35 0 0 0 0 0 0 0 0 0 0 0 0 0 0 0 0 0 0 0 0 0 0 0 0 0 0 0 0 
0 0 0 0 0 0 0 0 0 0 0 0 0 0 0 0 0 0 0 0 0 0 0 0 17 84 88 88 33 48 73 35 34 42 48 41 48 50 58 64 68 69 68 72 69 69 70 71 68 68 66 67 70 71 69 70 72 73 71 63 63 65 46 58 59 63 63 61 60 63 68 67 70 65 59 61 59 59 43 56 53 64 69 65 60 55 54 48 36 31 31 42 64 51 25 88 88 88 84 21 0 0 0 0 0 0 0 0 0 0 0 0 0 0 0 0 0 0 0 0 0 0 0 0 0 0 0 0 
0 0 0 0 0 0 0 0 0 0 0 0 0 0 0 0 0 0 0 0 0 0 0 0 0 63 88 88 34 25 71 59 25 55 63 60 55 57 61 63 72 68 70 70 61 60 63 65 67 65 66 69 69 67 67 69 70 72 66 66 63 61 37 53 55 60 60 58 63 65 69 65 68 69 61 55 51 63 62 64 65 69 67 65 59 60 57 53 43 40 32 52 61 36 34 88 88 84 61 0 0 0 0 0 0 0 0 0 0 0 0 0 0 0 0 0 0 0 0 0 0 0 0 0 0 0 0 0 
0 0 0 0 0 0 0 0 0 0 0 0 0 0 0 0 0 0 0 0 0 0 0 0 0 46 88 88 88 9 53 69 36 33 55 60 64 61 63 67 72 70 70 67 63 60 64 63 65 64 65 69 68 64 62 65 67 69 64 64 64 59 39 57 61 58 60 63 67 70 66 64 64 67 69 63 51 59 66 68 63 60 63 68 63 62 61 57 50 28 38 66 53 11 79 88 88 80 45 0 0 0 0 0 0 0 0 0 0 0 0 0 0 0 0 0 0 0 0 0 0 0 0 0 0 0 0 0 
0 0 0 0 0 0 0 0 0 0 0 0 0 0 0 0 0 0 0 0 0 0 0 0 0 15 86 88 88 73 25 66 52 27 47 60 66 64 65 69 66 63 64 68 61 61 65 64 68 67 68 65 63 59 62 67 66 71 67 66 65 62 29 36 57 61 61 66 65 69 66 64 64 63 65 63 49 57 69 61 57 52 61 63 62 63 60 58 40 32 56 62 30 39 88 88 88 77 31 0 0 0 0 0 0 0 0 0 0 0 0 0 0 0 0 0 0 0 0 0 0 0 0 0 0 0 0 0 
0 0 0 0 0 0 0 0 0 0 0 0 0 0 0 0 0 0 0 0 0 0 0 0 0 0 56 88 88 88 25 44 66 31 34 53 63 66 69 65 66 58 57 60 58 62 68 70 69 66 62 62 63 63 68 68 68 68 69 68 62 64 34 50 59 64 63 69 68 66 63 62 65 62 60 62 49 63 68 56 39 47 60 61 61 57 58 48 31 40 53 51 16 24 88 88 88 71 14 0 0 0 0 0 0 0 0 0 0 0 0 0 0 0 0 0 0 0 0 0 0 0 0 0 0 0 0 0 
0 0 0 0 0 0 0 0 0 0 0 0 0 0 0 0 0 0 0 0 0 0 0 0 0 0 21 88 88 88 50 26 62 48 28 49 63 63 66 65 62 60 55 49 57 63 66 69 69 63 56 62 62 64 70 68 66 66 70 70 67 65 31 54 60 64 65 67 66 64 64 66 64 59 54 55 55 63 67 61 59 50 50 55 57 58 54 30 32 45 63 35 12 88 88 88 85 49 0 0 0 0 0 0 0 0 0 0 0 0 0 0 0 0 0 0 0 0 0 0 0 0 0 0 0 0 0 0 
0 0 0 0 0 0 0 0 0 0 0 0 0 0 0 0 0 0 0 0 0 0 0 0 0 0 0 77 88 88 86 24 39 60 31 27 54 63 63 64 63 58 57 63 54 58 62 67 67 61 56 61 65 67 68 68 67 65 65 69 65 65 36 52 60 61 65 67 65 62 63 64 67 62 62 58 58 60 63 65 62 54 41 57 56 52 44 31 37 54 47 19 76 88 88 88 75 22 0 0 0 0 0 0 0 0 0 0 0 0 0 0 0 0 0 0 0 0 0 0 0 0 0 0 0 0 0 0 
0 0 0 0 0 0 0 0 0 0 0 0 0 0 0 0 0 0 0 0 0 0 0 0 0 0 0 50 88 88 88 57 21 54 47 24 38 61 65 61 61 62 64 67 65 52 61 65 63 63 59 63 65 67 63 65 66 65 61 67 67 63 41 56 58 63 62 67 63 55 61 60 63 65 67 63 53 50 59 65 66 58 54 59 61 55 28 31 46 57 32 32 88 88 88 82 52 0 0 0 0 0 0 0 0 0 0 0 0 0 0 0 0 0 0 0 0 0 0 0 0 0 0 0 0 0 0 0 
0 0 0 0 0 0 0 0 0 0 0 0 0 0 0 0 0 0 0 0 0 0 0 0 0 0 0 23 83 88 88 88 33 32 54 38 23 53 62 61 58 60 64 66 65 62 53 62 60 57 61 64 68 66 53 63 66 68 63 66 65 63 41 61 62 60 67 69 65 60 57 59 56 62 66 62 60 51 60 65 64 60 63 61 53 35 28 43 57 40 21 71 88 88 87 66 14 0 0 0 0 0 0 0 0 0 0 0 0 0 0 0 0 0 0 0 0 0 0 0 0 0 0 0 0 0 0 0 
0 0 0 0 0 0 0 0 0 0 0 0 0 0 0 0 0 0 0 0 0 0 0 0 0 0 0 0 63 88 88 88 82 20 43 46 30 29 32 37 41 60 60 62 66 67 58 52 47 60 64 66 67 64 43 64 65 64 65 64 64 63 41 60 63 64 67 66 66 64 63 58 51 53 60 65 61 51 63 62 59 57 58 52 42 29 35 56 47 28 19 88 88 88 80 35 0 0 0 0 0 0 0 0 0 0 0 0 0 0 0 0 0 0 0 0 0 0 0 0 0 0 0 0 0 0 0 0 
0 0 0 0 0 0 0 0 0 0 0 0 0 0 0 0 0 0 0 0 0 0 0 0 0 0 0 0 34 88 88 88 88 73 28 42 49 27 27 37 46 49 53 55 59 67 64 56 59 65 65 63 63 63 57 65 66 64 57 64 61 59 42 65 64 62 63 62 62 65 64 64 62 51 59 66 63 47 56 61 54 47 53 32 26 29 49 48 32 27 88 88 88 88 54 0 0 0 0 0 0 0 0 0 0 0 0 0 0 0 0 0 0 0 0 0 0 0 0 0 0 0 0 0 0 0 0 0 
0 0 0 0 0 0 0 0 0 0 0 0 0 0 0 0 0 0 0 0 0 0 0 0 0 0 0 0 12 83 88 88 88 88 52 31 49 44 27 30 40 49 50 59 63 68 65 62 56 62 66 67 68 65 47 48 60 63 51 53 62 46 44 63 63 62 63 59 50 61 63 67 61 55 58 61 63 63 42 32 32 30 24 26 41 50 54 31 20 78 88 88 88 74 30 0 0 0 0 0 0 0 0 0 0 0 0 0 0 0 0 0 0 0 0 0 0 0 0 0 0 0 0 0 0 0 0 0 
0 0 0 0 0 0 0 0 0 0 0 0 0 0 0 0 0 0 0 0 0 0 0 0 0 0 0 0 0 60 88 88 88 88 88 57 33 50 47 37 24 31 47 61 63 63 65 62 54 56 62 67 69 63 63 60 60 45 41 46 58 41 52 59 61 62 61 60 39 55 63 66 63 59 51 59 60 56 33 31 30 28 37 43 47 52 37 32 64 88 88 88 86 61 0 0 0 0 0 0 0 0 0 0 0 0 0 0 0 0 0 0 0 0 0 0 0 0 0 0 0 0 0 0 0 0 0 0 
0 0 0 0 0 0 0 0 0 0 0 0 0 0 0 0 0 0 0 0 0 0 0 0 0 0 0 0 0 25 76 88 88 88 88 88 34 40 48 55 46 34 27 36 53 58 63 60 44 60 63 67 64 68 67 66 62 63 62 66 56 51 36 56 61 63 60 53 42 52 59 60 62 61 48 58 59 50 34 34 33 41 45 47 50 33 21 43 88 88 88 88 77 31 0 0 0 0 0 0 0 0 0 0 0 0 0 0 0 0 0 0 0 0 0 0 0 0 0 0 0 0 0 0 0 0 0 0 
0 0 0 0 0 0 0 0 0 0 0 0 0 0 0 0 0 0 0 0 0 0 0 0 0 0 0 0 0 0 28 72 88 88 88 88 88 64 43 43 48 52 36 32 28 44 55 46 53 54 61 62 64 66 66 65 68 69 68 66 62 54 33 28 62 80 73 54 39 49 53 59 61 59 47 44 39 30 32 35 36 43 54 43 35 39 67 88 88 88 88 87 60 0 0 0 0 0 0 0 0 0 0 0 0 0 0 0 0 0 0 0 0 0 0 0 0 0 0 0 0 0 0 0 0 0 0 0 
0 0 0 0 0 0 0 0 0 0 0 0 0 0 0 0 0 0 0 0 0 0 0 0 0 0 0 0 0 0 0 25 70 88 84 88 88 88 80 51 43 46 59 52 35 30 35 54 32 52 61 58 85 60 63 63 63 66 67 64 56 55 50 36 70 38 56 88 88 49 39 39 45 43 30 32 32 31 34 41 48 52 54 36 41 75 88 88 88 88 83 72 23 0 0 0 0 0 0 0 0 0 0 0 0 0 0 0 0 0 0 0 0 0 0 0 0 0 0 0 0 0 0 0 0 0 0 0 
0 0 0 0 0 0 0 0 0 0 0 0 0 0 0 0 0 0 0 0 0 0 0 0 0 0 0 0 0 0 0 0 16 63 88 88 88 88 88 88 58 48 39 56 63 53 43 38 28 30 38 52 84 53 52 53 63 66 63 67 60 72 58 64 56 46 44 53 67 86 53 38 36 36 31 31 38 42 49 49 46 39 36 46 81 88 88 88 84 87 80 50 0 0 0 0 0 0 0 0 0 0 0 0 0 0 0 0 0 0 0 0 0 0 0 0 0 0 0 0 0 0 0 0 0 0 0 0 
0 0 0 0 0 0 0 0 0 0 0 0 0 0 0 0 0 0 0 0 0 0 0 0 0 0 0 0 0 0 0 0 0 14 63 88 86 88 88 88 88 61 47 43 49 57 53 53 53 42 33 44 56 42 38 51 63 65 60 70 63 81 62 76 60 61 44 42 44 43 58 49 39 36 39 48 52 49 50 44 39 39 33 88 88 88 84 87 85 76 52 0 0 0 0 0 0 0 0 0 0 0 0 0 0 0 0 0 0 0 0 0 0 0 0 0 0 0 0 0 0 0 0 0 0 0 0 0 
0 0 0 0 0 0 0 0 0 0 0 0 0 0 0 0 0 0 0 0 0 0 0 0 0 0 0 0 0 0 0 0 0 0 0 55 88 83 85 88 88 88 82 49 46 44 49 54 57 60 46 38 37 26 36 41 49 60 67 88 86 88 71 88 39 50 40 35 31 35 43 43 32 21 40 51 52 40 38 30 39 63 88 88 88 87 88 84 55 34 0 0 0 0 0 0 0 0 0 0 0 0 0 0 0 0 0 0 0 0 0 0 0 0 0 0 0 0 0 0 0 0 0 0 0 0 0 0 
0 0 0 0 0 0 0 0 0 0 0 0 0 0 0 0 0 0 0 0 0 0 0 0 0 0 0 0 0 0 0 0 0 0 0 0 41 72 88 81 87 88 88 88 75 42 36 41 46 47 54 51 45 39 29 38 40 45 82 88 88 88 88 88 43 20 39 26 36 36 34 29 23 44 24 32 33 26 38 68 88 88 88 86 85 86 68 37 11 0 0 0 0 0 0 0 0 0 0 0 0 0 0 0 0 0 0 0 0 0 0 0 0 0 0 0 0 0 0 0 0 0 0 0 0 0 0 0 
0 0 0 0 0 0 0 0 0 0 0 0 0 0 0 0 0 0 0 0 0 0 0 0 0 0 0 0 0 0 0 0 0 0 0 0 0 27 56 78 88 88 88 88 88 88 73 54 42 34 39 41 47 34 25 31 38 49 63 88 88 88 88 57 53 45 33 29 21 18 31 26 41 24 30 32 45 60 88 88 88 88 82 86 75 45 19 0 0 0 0 0 0 0 0 0 0 0 0 0 0 0 0 0 0 0 0 0 0 0 0 0 0 0 0 0 0 0 0 0 0 0 0 0 0 0 0 0 
0 0 0 0 0 0 0 0 0 0 0 0 0 0 0 0 0 0 0 0 0 0 0 0 0 0 0 0 0 0 0 0 0 0 0 0 0 0 0 39 71 85 81 88 88 88 88 88 74 61 39 37 31 34 32 43 41 36 23 46 88 88 43 23 18 18 27 21 31 41 19 49 40 57 67 84 88 88 88 84 82 81 78 58 31 0 0 0 0 0 0 0 0 0 0 0 0 0 0 0 0 0 0 0 0 0 0 0 0 0 0 0 0 0 0 0 0 0 0 0 0 0 0 0 0 0 0 0 
0 0 0 0 0 0 0 0 0 0 0 0 0 0 0 0 0 0 0 0 0 0 0 0 0 0 0 0 0 0 0 0 0 0 0 0 0 0 0 0 26 59 79 80 77 88 88 88 88 88 88 81 73 67 58 36 42 56 47 38 34 34 40 45 44 39 61 47 72 54 67 71 83 88 88 88 88 86 67 76 80 58 36 12 0 0 0 0 0 0 0 0 0 0 0 0 0 0 0 0 0 0 0 0 0 0 0 0 0 0 0 0 0 0 0 0 0 0 0 0 0 0 0 0 0 0 0 0 
0 0 0 0 0 0 0 0 0 0 0 0 0 0 0 0 0 0 0 0 0 0 0 0 0 0 0 0 0 0 0 0 0 0 0 0 0 0 0 0 0 15 35 58 77 72 79 86 88 88 88 87 88 88 88 88 88 88 81 86 87 75 76 68 68 88 88 88 88 87 88 88 88 88 87 84 73 68 77 64 42 23 0 0 0 0 0 0 0 0 0 0 0 0 0 0 0 0 0 0 0 0 0 0 0 0 0 0 0 0 0 0 0 0 0 0 0 0 0 0 0 0 0 0 0 0 0 0 
0 0 0 0 0 0 0 0 0 0 0 0 0 0 0 0 0 0 0 0 0 0 0 0 0 0 0 0 0 0 0 0 0 0 0 0 0 0 0 0 0 0 0 16 37 66 76 71 78 70 83 88 88 88 88 88 88 88 88 88 80 88 88 82 88 88 88 88 88 88 88 80 76 72 73 71 70 63 45 26 0 0 0 0 0 0 0 0 0 0 0 0 0 0 0 0 0 0 0 0 0 0 0 0 0 0 0 0 0 0 0 0 0 0 0 0 0 0 0 0 0 0 0 0 0 0 0 0 
0 0 0 0 0 0 0 0 0 0 0 0 0 0 0 0 0 0 0 0 0 0 0 0 0 0 0 0 0 0 0 0 0 0 0 0 0 0 0 0 0 0 0 0 0 14 36 54 67 72 69 68 63 71 78 87 88 88 88 88 88 88 88 88 88 86 81 81 74 75 69 73 69 74 59 50 34 21 11 0 0 0 0 0 0 0 0 0 0 0 0 0 0 0 0 0 0 0 0 0 0 0 0 0 0 0 0 0 0 0 0 0 0 0 0 0 0 0 0 0 0 0 0 0 0 0 0 0 
0 0 0 0 0 0 0 0 0 0 0 0 0 0 0 0 0 0 0 0 0 0 0 0 0 0 0 0 0 0 0 0 0 0 0 0 0 0 0 0 0 0 0 0 0 0 0 14 26 36 45 51 62 66 73 69 73 74 76 83 69 74 72 69 67 71 68 72 65 60 60 60 49 40 22 11 0 0 0 0 0 0 0 0 0 0 0 0 0 0 0 0 0 0 0 0 0 0 0 0 0 0 0 0 0 0 0 0 0 0 0 0 0 0 0 0 0 0 0 0 0 0 0 0 0 0 0 0 
0 0 0 0 0 0 0 0 0 0 0 0 0 0 0 0 0 0 0 0 0 0 0 0 0 0 0 0 0 0 0 0 0 0 0 0 0 0 0 0 0 0 0 0 0 0 0 0 0 0 0 0 14 24 43 56 63 69 65 67 63 60 53 50 53 48 47 42 33 28 19 13 0 0 0 0 0 0 0 0 0 0 0 0 0 0 0 0 0 0 0 0 0 0 0 0 0 0 0 0 0 0 0 0 0 0 0 0 0 0 0 0 0 0 0 0 0 0 0 0 0 0 0 0 0 0 0 0 
0 0 0 0 0 0 0 0 0 0 0 0 0 0 0 0 0 0 0 0 0 0 0 0 0 0 0 0 0 0 0 0 0 0 0 0 0 0 0 0 0 0 0 0 0 0 0 0 0 0 0 0 0 0 0 16 21 28 31 31 23 19 17 11 11 13 0 0 0 0 0 0 0 0 0 0 0 0 0 0 0 0 0 0 0 0 0 0 0 0 0 0 0 0 0 0 0 0 0 0 0 0 0 0 0 0 0 0 0 0 0 0 0 0 0 0 0 0 0 0 0 0 0 0 0 0 0 0 
0 0 0 0 0 0 0 0 0 0 0 0 0 0 0 0 0 0 0 0 0 0 0 0 0 0 0 0 0 0 0 0 0 0 0 0 0 0 0 0 0 0 0 0 0 0 0 0 0 0 0 0 0 0 0 0 0 0 0 0 0 0 0 0 0 0 0 0 0 0 0 0 0 0 0 0 0 0 0 0 0 0 0 0 0 0 0 0 0 0 0 0 0 0 0 0 0 0 0 0 0 0 0 0 0 0 0 0 0 0 0 0 0 0 0 0 0 0 0 0 0 0 0 0 0 0 0 0 
0 0 0 0 0 0 0 0 0 0 0 0 0 0 0 0 0 0 0 0 0 0 0 0 0 0 0 0 0 0 0 0 0 0 0 0 0 0 0 0 0 0 0 0 0 0 0 0 0 0 0 0 0 0 0 0 0 0 0 0 0 0 0 0 0 0 0 0 0 0 0 0 0 0 0 0 0 0 0 0 0 0 0 0 0 0 0 0 0 0 0 0 0 0 0 0 0 0 0 0 0 0 0 0 0 0 0 0 0 0 0 0 0 0 0 0 0 0 0 0 0 0 0 0 0 0 0 0 
0 0 0 0 0 0 0 0 0 0 0 0 0 0 0 0 0 0 0 0 0 0 0 0 0 0 0 0 0 0 0 0 0 0 0 0 0 0 0 0 0 0 0 0 0 0 0 0 0 0 0 0 0 0 0 0 0 0 0 0 0 0 0 0 0 0 0 0 0 0 0 0 0 0 0 0 0 0 0 0 0 0 0 0 0 0 0 0 0 0 0 0 0 0 0 0 0 0 0 0 0 0 0 0 0 0 0 0 0 0 0 0 0 0 0 0 0 0 0 0 0 0 0 0 0 0 0 0 
0 0 0 0 0 0 0 0 0 0 0 0 0 0 0 0 0 0 0 0 0 0 0 0 0 0 0 0 0 0 0 0 0 0 0 0 0 0 0 0 0 0 0 0 0 0 0 0 0 0 0 0 0 0 0 0 0 0 0 0 0 0 0 0 0 0 0 0 0 0 0 0 0 0 0 0 0 0 0 0 0 0 0 0 0 0 0 0 0 0 0 0 0 0 0 0 0 0 0 0 0 0 0 0 0 0 0 0 0 0 0 0 0 0 0 0 0 0 0 0 0 0 0 0 0 0 0 0 
0 0 0 0 0 0 0 0 0 0 0 0 0 0 0 0 0 0 0 0 0 0 0 0 0 0 0 0 0 0 0 0 0 0 0 0 0 0 0 0 0 0 0 0 0 0 0 0 0 0 0 0 0 0 0 0 0 0 0 0 0 0 0 0 0 0 0 0 0 0 0 0 0 0 0 0 0 0 0 0 0 0 0 0 0 0 0 0 0 0 0 0 0 0 0 0 0 0 0 0 0 0 0 0 0 0 0 0 0 0 0 0 0 0 0 0 0 0 0 0 0 0 0 0 0 0 0 0 
0 0 0 0 0 0 0 0 0 0 0 0 0 0 0 0 0 0 0 0 0 0 0 0 0 0 0 0 0 0 0 0 0 0 0 0 0 0 0 0 0 0 0 0 0 0 0 0 0 0 0 0 0 0 0 0 0 0 0 0 0 0 0 0 0 0 0 0 0 0 0 0 0 0 0 0 0 0 0 0 0 0 0 0 0 0 0 0 0 0 0 0 0 0 0 0 0 0 0 0 0 0 0 0 0 0 0 0 0 0 0 0 0 0 0 0 0 0 0 0 0 0 0 0 0 0 0 0 
0 0 0 0 0 0 0 0 0 0 0 0 0 0 0 0 0 0 0 0 0 0 0 0 0 0 0 0 0 0 0 0 0 0 0 0 0 0 0 0 0 0 0 0 0 0 0 0 0 0 0 0 0 0 0 0 0 0 0 0 0 0 0 0 0 0 0 0 0 0 0 0 0 0 0 0 0 0 0 0 0 0 0 0 0 0 0 0 0 0 0 0 0 0 0 0 0 0 0 0 0 0 0 0 0 0 0 0 0 0 0 0 0 0 0 0 0 0 0 0 0 0 0 0 0 0 0 0 
0 0 0 0 0 0 0 0 0 0 0 0 0 0 0 0 0 0 0 0 0 0 0 0 0 0 0 0 0 0 0 0 0 0 0 0 0 0 0 0 0 0 0 0 0 0 0 0 0 0 0 0 0 0 0 0 0 0 0 0 0 0 0 0 0 0 0 0 0 0 0 0 0 0 0 0 0 0 0 0 0 0 0 0 0 0 0 0 0 0 0 0 0 0 0 0 0 0 0 0 0 0 0 0 0 0 0 0 0 0 0 0 0 0 0 0 0 0 0 0 0 0 0 0 0 0 0 0 
