P2
128 128
88
0 0 0 0 0 0 0 0 0 0 0 0 0 0 0 0 0 0 0 0 0 0 0 0 0 0 0 0 0 0 0 0 0 0 0 0 0 0 0 0 0 0 0 0 0 0 0 0 0 0 0 0 0 0 0 0 0 0 0 0 0 0 0 0 0 0 0 0 0 0 0 0 0 0 0 0 0 0 0 0 0 0 0 0 0 0 0 0 0 0 0 0 0 0 0 0 0 0 0 0 0 0 0 0 0 0 0 0 0 0 0 0 0 0 0 0 0 0 0 0 0 0 0 0 0 0 0 0 
0 0 0 0 0 0 0 0 0 0 0 0 0 0 0 0 0 0 0 0 0 0 0 0 0 0 0 0 0 0 0 0 0 0 0 0 0 0 0 0 0 0 0 0 0 0 0 0 0 0 0 0 0 0 0 0 0 0 0 0 0 0 0 0 0 0 0 0 0 0 0 0 0 0 0 0 0 0 0 0 0 0 0 0 0 0 0 0 0 0 0 0 0 0 0 0 0 0 0 0 0 0 0 0 0 0 0 0 0 0 0 0 0 0 0 0 0 0 0 0 0 0 0 0 0 0 0 0 
0 0 0 0 0 0 0 0 0 0 0 0 0 0 0 0 0 0 0 0 0 0 0 0 0 0 0 0 0 0 0 0 0 0 0 0 0 0 0 0 0 0 0 0 0 0 0 0 0 0 0 0 0 0 0 0 0 0 0 0 0 0 0 0 0 0 0 0 0 0 0 0 0 0 0 0 0 0 0 0 0 0 0 0 0 0 0 0 0 0 0 0 0 0 0 0 0 0 0 0 0 0 0 0 0 0 0 0 0 0 0 0 0 0 0 0 0 0 0 0 0 0 0 0 0 0 0 0 
0 0 0 0 0 0 0 0 0 0 0 0 0 0 0 0 0 0 0 0 0 0 0 0 0 0 0 0 0 0 0 0 0 0 0 0 0 0 0 0 0 0 0 0 0 0 0 0 0 0 0 0 0 0 0 0 0 0 0 0 0 0 0 0 0 0 0 0 0 0 0 0 0 0 0 0 0 0 0 0 0 0 0 0 0 0 0 0 0 0 0 0 0 0 0 0 0 0 0 0 0 0 0 0 0 0 0 0 0 0 0 0 0 0 0 0 0 0 0 0 0 0 0 0 0 0 0 0 
0 0 0 0 0 0 0 0 0 0 0 0 0 0 0 0 0 0 0 0 0 0 0 0 0 0 0 0 0 0 0 0 0 0 0 0 0 0 0 0 0 0 0 0 0 0 0 0 0 0 0 0 0 0 0 0 0 0 0 0 0 0 0 0 0 0 0 0 0 0 0 0 0 0 0 0 0 0 0 0 0 0 0 0 0 0 0 0 0 0 0 0 0 0 0 0 0 0 0 0 0 0 0 0 0 0 0 0 0 0 0 0 0 0 0 0 0 0 0 0 0 0 0 0 0 0 0 0 
0 0 0 0 0 0 0 0 0 0 0 0 0 0 0 0 0 0 0 0 0 0 0 0 0 0 0 0 0 0 0 0 0 0 0 0 0 0 0 0 0 0 0 0 0 0 0 0 0 0 0 0 0 0 0 0 0 0 0 0 0 0 0 0 0 0 0 0 0 0 0 0 0 0 0 0 0 0 0 0 0 0 0 0 0 0 0 0 0 0 0 0 0 0 0 0 0 0 0 0 0 0 0 0 0 0 0 0 0 0 0 0 0 0 0 0 0 0 0 0 0 0 0 0 0 0 0 0 
0 0 0 0 0 0 0 0 0 0 0 0 0 0 0 0 0 0 0 0 0 0 0 0 0 0 0 0 0 0 0 0 0 0 0 0 0 0 0 0 0 0 0 0 0 0 0 0 0 0 0 0 0 0 0 0 0 0 0 0 0 0 0 0 0 0 0 0 0 0 0 0 0 0 0 0 0 0 0 0 0 0 0 0 0 0 0 0 0 0 0 0 0 0 0 0 0 0 0 0 0 0 0 0 0 0 0 0 0 0 0 0 0 0 0 0 0 0 0 0 0 0 0 0 0 0 0 0 
0 0 0 0 0 0 0 0 0 0 0 0 0 0 0 0 0 0 0 0 0 0 0 0 0 0 0 0 0 0 0 0 0 0 0 0 0 0 0 0 0 0 0 0 0 0 0 0 0 0 0 0 0 0 0 0 0 0 0 0 0 0 0 0 0 0 0 0 0 0 0 0 0 0 0 0 0 0 0 0 0 0 0 0 0 0 0 0 0 0 0 0 0 0 0 0 0 0 0 0 0 0 0 0 0 0 0 0 0 0 0 0 0 0 0 0 0 0 0 0 0 0 0 0 0 0 0 0 
0 0 0 0 0 0 0 0 0 0 0 0 0 0 0 0 0 0 0 0 0 0 0 0 0 0 0 0 0 0 0 0 0 0 0 0 0 0 0 0 0 0 0 0 0 0 0 0 0 0 0 0 0 0 0 0 0 0 0 0 0 0 0 0 0 0 0 0 0 0 0 0 0 0 0 0 0 0 0 0 0 0 0 0 0 0 0 0 0 0 0 0 0 0 0 0 0 0 0 0 0 0 0 0 0 0 0 0 0 0 0 0 0 0 0 0 0 0 0 0 0 0 0 0 0 0 0 0 
0 0 0 0 0 0 0 0 0 0 0 0 0 0 0 0 0 0 0 0 0 0 0 0 0 0 0 0 0 0 0 0 0 0 0 0 0 0 0 0 0 0 0 0 0 0 0 0 0 0 0 0 0 0 0 0 0 0 0 0 0 0 0 0 0 0 0 0 0 0 0 0 0 0 0 0 0 0 0 0 0 0 0 0 0 0 0 0 0 0 0 0 0 0 0 0 0 0 0 0 0 0 0 0 0 0 0 0 0 0 0 0 0 0 0 0 0 0 0 0 0 0 0 0 0 0 0 0 
0 0 0 0 0 0 0 0 0 0 0 0 0 0 0 0 0 0 0 0 0 0 0 0 0 0 0 0 0 0 0 0 0 0 0 0 0 0 0 0 0 0 0 0 0 0 0 0 0 0 0 0 0 0 0 0 0 0 0 0 0 0 0 0 0 0 0 0 0 0 0 0 0 0 0 0 0 0 0 0 0 0 0 0 0 0 0 0 0 0 0 0 0 0 0 0 0 0 0 0 0 0 0 0 0 0 0 0 0 0 0 0 0 0 0 0 0 0 0 0 0 0 0 0 0 0 0 0 
0 0 0 0 0 0 0 0 0 0 0 0 0 0 0 0 0 0 0 0 0 0 0 0 0 0 0 0 0 0 0 0 0 0 0 0 0 0 0 0 0 0 0 0 0 0 0 0 0 0 0 0 0 0 0 0 0 0 0 0 0 0 0 0 0 0 0 0 0 0 0 0 0 0 0 0 0 0 0 0 0 0 0 0 0 0 0 0 0 0 0 0 0 0 0 0 0 0 0 0 0 0 0 0 0 0 0 0 0 0 0 0 0 0 0 0 0 0 0 0 0 0 0 0 0 0 0 0 
0 0 0 0 0 0 0 0 0 0 0 0 0 0 0 0 0 0 0 0 0 0 0 0 0 0 0 0 0 0 0 0 0 0 0 0 0 0 0 0 0 0 0 0 0 0 0 0 0 0 0 0 0 0 0 0 0 0 0 0 0 0 0 0 0 0 0 0 0 0 0 0 0 0 0 0 0 0 0 0 0 0 0 0 0 0 0 0 0 0 0 0 0 0 0 0 0 0 0 0 0 0 0 0 0 0 0 0 0 0 0 0 0 0 0 0 0 0 0 0 0 0 0 0 0 0 0 0 
0 0 0 0 0 0 0 0 0 0 0 0 0 0 0 0 0 0 0 0 0 0 0 0 0 0 0 0 0 0 0 0 0 0 0 0 0 0 0 0 0 0 0 0 0 0 0 0 0 0 0 0 0 0 0 0 0 0 0 0 0 0 0 0 0 0 0 0 0 0 0 0 0 0 0 0 0 0 0 0 0 0 0 0 0 0 0 0 0 0 0 0 0 0 0 0 0 0 0 0 0 0 0 0 0 0 0 0 0 0 0 0 0 0 0 0 0 0 0 0 0 0 0 0 0 0 0 0 
0 0 0 0 0 0 0 0 0 0 0 0 0 0 0 0 0 0 0 0 0 0 0 0 0 0 0 0 0 0 0 0 0 0 0 0 0 0 0 0 0 0 0 0 0 0 0 0 0 0 0 0 0 0 0 0 0 0 0 0 0 0 0 0 0 0 0 0 0 0 0 0 0 0 0 0 0 0 0 0 0 0 0 0 0 0 0 0 0 0 0 0 0 0 0 0 0 0 0 0 0 0 0 0 0 0 0 0 0 0 0 0 0 0 0 0 0 0 0 0 0 0 0 0 0 0 0 0 
0 0 0 0 0 0 0 0 0 0 0 0 0 0 0 0 0 0 0 0 0 0 0 0 0 0 0 0 0 0 0 0 0 0 0 0 0 0 0 0 0 0 0 0 0 0 0 0 0 0 0 0 0 0 0 0 0 0 0 0 0 0 0 0 0 0 0 0 0 0 0 0 0 0 0 0 0 0 0 0 0 0 0 0 0 0 0 0 0 0 0 0 0 0 0 0 0 0 0 0 0 0 0 0 0 0 0 0 0 0 0 0 0 0 0 0 0 0 0 0 0 0 0 0 0 0 0 0 
0 0 0 0 0 0 0 0 0 0 0 0 0 0 0 0 0 0 0 0 0 0 0 0 0 0 0 0 0 0 0 0 0 0 0 0 0 0 0 0 0 0 0 0 0 0 0 0 0 0 0 0 0 0 0 0 0 0 0 0 0 0 0 0 0 0 0 0 0 0 0 0 0 0 0 0 0 0 0 0 0 0 0 0 0 0 0 0 0 0 0 0 0 0 0 0 0 0 0 0 0 0 0 0 0 0 0 0 0 0 0 0 0 0 0 0 0 0 0 0 0 0 0 0 0 0 0 0 
0 0 0 0 0 0 0 0 0 0 0 0 0 0 0 0 0 0 0 0 0 0 0 0 0 0 0 0 0 0 0 0 0 0 0 0 0 0 0 0 0 0 0 0 0 0 0 0 0 0 0 0 0 0 0 0 0 0 0 0 0 0 0 0 0 0 0 0 0 0 0 0 0 0 0 0 0 0 0 0 0 0 0 0 0 0 0 0 0 0 0 0 0 0 0 0 0 0 0 0 0 0 0 0 0 0 0 0 0 0 0 0 0 0 0 0 0 0 0 0 0 0 0 0 0 0 0 0 
0 0 0 0 0 0 0 0 0 0 0 0 0 0 0 0 0 0 0 0 0 0 0 0 0 0 0 0 0 0 0 0 0 0 0 0 0 0 0 0 0 0 0 0 0 0 0 0 0 0 0 0 0 0 0 0 0 0 0 0 0 0 0 0 0 0 0 0 0 0 0 0 0 0 0 0 0 0 0 0 0 0 0 0 0 0 0 0 0 0 0 0 0 0 0 0 0 0 0 0 0 0 0 0 0 0 0 0 0 0 0 0 0 0 0 0 0 0 0 0 0 0 0 0 0 0 0 0 
0 0 0 0 0 0 0 0 0 0 0 0 0 0 0 0 0 0 0 0 0 0 0 0 0 0 0 0 0 0 0 0 0 0 0 0 0 0 0 0 0 0 0 0 0 0 0 0 0 0 0 0 0 0 0 0 0 0 0 0 0 0 0 0 0 0 0 0 0 0 0 0 0 0 0 0 0 0 0 0 0 0 0 0 0 0 0 0 0 0 0 0 0 0 0 0 0 0 0 0 0 0 0 0 0 0 0 0 0 0 0 0 0 0 0 0 0 0 0 0 0 0 0 0 0 0 0 0 
0 0 0 0 0 0 0 0 0 0 0 0 0 0 0 0 0 0 0 0 0 0 0 0 0 0 0 0 0 0 0 0 0 0 0 0 0 0 0 0 0 0 0 0 0 0 0 0 0 0 0 0 0 0 0 0 0 0 0 0 0 0 0 0 0 0 0 0 0 0 0 0 0 0 0 0 0 0 0 0 0 0 0 0 0 0 0 0 0 0 0 0 0 0 0 0 0 0 0 0 0 0 0 0 0 0 0 0 0 0 0 0 0 0 0 0 0 0 0 0 0 0 0 0 0 0 0 0 
0 0 0 0 0 0 0 0 0 0 0 0 0 0 0 0 0 0 0 0 0 0 0 0 0 0 0 0 0 0 0 0 0 0 0 0 0 0 0 0 0 0 0 0 0 0 0 0 0 0 0 0 0 0 0 0 0 0 0 0 0 0 0 0 0 0 0 0 0 0 0 0 0 0 0 0 0 0 0 0 0 0 0 0 0 0 0 0 0 0 0 0 0 0 0 0 0 0 0 0 0 0 0 0 0 0 0 0 0 0 0 0 0 0 0 0 0 0 0 0 0 0 0 0 0 0 0 0 
0 0 0 0 0 0 0 0 0 0 0 0 0 0 0 0 0 0 0 0 0 0 0 0 0 0 0 0 0 0 0 0 0 0 0 0 0 0 0 0 0 0 0 0 0 0 0 0 0 0 0 0 0 0 0 0 0 0 0 0 0 0 0 0 0 0 0 0 0 0 0 0 0 0 0 0 0 0 0 0 0 0 0 0 0 0 0 0 0 0 0 0 0 0 0 0 0 0 0 0 0 0 0 0 0 0 0 0 0 0 0 0 0 0 0 0 0 0 0 0 0 0 0 0 0 0 0 0 
0 0 0 0 0 0 0 0 0 0 0 0 0 0 0 0 0 0 0 0 0 0 0 0 0 0 0 0 0 0 0 0 0 0 0 0 0 0 0 0 0 0 0 0 0 0 0 0 0 0 0 0 0 0 0 0 0 0 0 0 0 0 0 0 0 0 0 0 0 0 0 0 0 0 0 0 0 0 0 0 0 0 0 0 0 0 0 0 0 0 0 0 0 0 0 0 0 0 0 0 0 0 0 0 0 0 0 0 0 0 0 0 0 0 0 0 0 0 0 0 0 0 0 0 0 0 0 0 
0 0 0 0 0 0 0 0 0 0 0 0 0 0 0 0 0 0 0 0 0 0 0 0 0 0 0 0 0 0 0 0 0 0 0 0 0 0 0 0 0 0 0 0 0 0 0 0 0 0 0 0 0 0 0 0 0 0 12 13 13 11 13 0 0 0 0 0 0 0 0 0 0 0 0 0 0 0 0 0 0 0 0 0 0 0 0 0 0 0 0 0 0 0 0 0 0 0 0 0 0 0 0 0 0 0 0 0 0 0 0 0 0 0 0 0 0 0 0 0 0 0 0 0 0 0 0 0 
0 0 0 0 0 0 0 0 0 0 0 0 0 0 0 0 0 0 0 0 0 0 0 0 0 0 0 0 0 0 0 0 0 0 0 0 0 0 0 0 0 0 0 0 0 0 0 0 0 0 0 0 0 0 0 17 28 39 46 51 54 48 53 46 34 28 20 12 0 0 0 0 0 0 0 0 0 0 0 0 0 0 0 0 0 0 0 0 0 0 0 0 0 0 0 0 0 0 0 0 0 0 0 0 0 0 0 0 0 0 0 0 0 0 0 0 0 0 0 0 0 0 0 0 0 0 0 0 
0 0 0 0 0 0 0 0 0 0 0 0 0 0 0 0 0 0 0 0 0 0 0 0 0 0 0 0 0 0 0 0 0 0 0 0 0 0 0 0 0 0 0 0 0 0 0 0 0 0 0 0 13 27 44 58 69 88 88 88 88 88 88 88 86 82 64 52 33 20 0 0 0 0 0 0 0 0 0 0 0 0 0 0 0 0 0 0 0 0 0 0 0 0 0 0 0 0 0 0 0 0 0 0 0 0 0 0 0 0 0 0 0 0 0 0 0 0 0 0 0 0 0 0 0 0 0 0 
0 0 0 0 0 0 0 0 0 0 0 0 0 0 0 0 0 0 0 0 0 0 0 0 0 0 0 0 0 0 0 0 0 0 0 0 0 0 0 0 0 0 0 0 0 0 0 0 0 0 0 21 46 70 77 88 88 88 88 88 88 88 88 88 88 88 88 88 82 66 46 22 0 0 0 0 0 0 0 0 0 0 0 0 0 0 0 0 0 0 0 0 0 0 0 0 0 0 0 0 0 0 0 0 0 0 0 0 0 0 0 0 0 0 0 0 0 0 0 0 0 0 0 0 0 0 0 0 
0 0 0 0 0 0 0 0 0 0 0 0 0 0 0 0 0 0 0 0 0 0 0 0 0 0 0 0 0 0 0 0 0 0 0 0 0 0 0 0 0 0 0 0 0 0 0 0 0 17 35 60 84 88 88 88 88 88 88 88 80 88 88 88 88 88 88 88 88 88 84 65 36 17 0 0 0 0 0 0 0 0 0 0 0 0 0 0 0 0 0 0 0 0 0 0 0 0 0 0 0 0 0 0 0 0 0 0 0 0 0 0 0 0 0 0 0 0 0 0 0 0 0 0 0 0 0 0 
0 0 0 0 0 0 0 0 0 0 0 0 0 0 0 0 0 0 0 0 0 0 0 0 0 0 0 0 0 0 0 0 0 0 0 0 0 0 0 0 0 0 0 0 0 0 0 0 27 59 86 88 88 88 88 88 75 61 61 43 41 38 39 45 51 65 77 88 88 88 88 88 77 49 21 0 0 0 0 0 0 0 0 0 0 0 0 0 0 0 0 0 0 0 0 0 0 0 0 0 0 0 0 0 0 0 0 0 0 0 0 0 0 0 0 0 0 0 0 0 0 0 0 0 0 0 0 0 
0 0 0 0 0 0 0 0 0 0 0 0 0 0 0 0 0 0 0 0 0 0 0 0 0 0 0 0 0 0 0 0 0 0 0 0 0 0 0 0 0 0 0 0 0 0 12 35 61 88 88 88 88 88 64 49 31 26 24 26 28 32 26 29 25 28 34 46 68 88 88 88 88 88 63 30 12 0 0 0 0 0 0 0 0 0 0 0 0 0 0 0 0 0 0 0 0 0 0 0 0 0 0 0 0 0 0 0 0 0 0 0 0 0 0 0 0 0 0 0 0 0 0 0 0 0 0 0 
0 0 0 0 0 0 0 0 0 0 0 0 0 0 0 0 0 0 0 0 0 0 0 0 0 0 0 0 0 0 0 0 0 0 0 0 0 0 0 0 0 0 0 0 0 16 43 66 88 88 88 88 69 41 28 28 30 36 41 40 43 35 28 34 37 36 31 31 33 47 71 88 88 88 88 69 37 16 0 0 0 0 0 0 0 0 0 0 0 0 0 0 0 0 0 0 0 0 0 0 0 0 0 0 0 0 0 0 0 0 0 0 0 0 0 0 0 0 0 0 0 0 0 0 0 0 0 0 
0 0 0 0 0 0 0 0 0 0 0 0 0 0 0 0 0 0 0 0 0 0 0 0 0 0 0 0 0 0 0 0 0 0 0 0 0 0 0 0 0 0 0 0 16 44 81 88 88 88 88 57 34 31 34 45 56 52 51 49 37 32 29 26 34 49 52 48 40 36 39 55 88 88 88 88 86 44 19 0 0 0 0 0 0 0 0 0 0 0 0 0 0 0 0 0 0 0 0 0 0 0 0 0 0 0 0 0 0 0 0 0 0 0 0 0 0 0 0 0 0 0 0 0 0 0 0 0 
0 0 0 0 0 0 0 0 0 0 0 0 0 0 0 0 0 0 0 0 0 0 0 0 0 0 0 0 0 0 0 0 0 0 0 0 0 0 0 0 0 0 0 18 47 82 88 88 88 76 42 36 38 47 57 60 59 55 44 36 33 36 13 15 27 39 45 49 63 53 44 44 49 73 88 88 88 86 51 23 0 0 0 0 0 0 0 0 0 0 0 0 0 0 0 0 0 0 0 0 0 0 0 0 0 0 0 0 0 0 0 0 0 0 0 0 0 0 0 0 0 0 0 0 0 0 0 0 
0 0 0 0 0 0 0 0 0 0 0 0 0 0 0 0 0 0 0 0 0 0 0 0 0 0 0 0 0 0 0 0 0 0 0 0 0 0 0 0 0 0 18 46 88 88 88 88 73 40 34 48 61 66 68 63 38 26 22 17 22 45 1 3 41 23 27 40 54 64 61 51 39 46 69 88 88 88 88 61 26 0 0 0 0 0 0 0 0 0 0 0 0 0 0 0 0 0 0 0 0 0 0 0 0 0 0 0 0 0 0 0 0 0 0 0 0 0 0 0 0 0 0 0 0 0 0 0 
0 0 0 0 0 0 0 0 0 0 0 0 0 0 0 0 0 0 0 0 0 0 0 0 0 0 0 0 0 0 0 0 0 0 0 0 0 0 0 0 0 11 46 82 88 88 88 60 35 41 55 68 70 67 66 34 28 17 20 23 30 51 7 12 43 17 20 24 35 54 63 56 50 41 40 59 88 88 88 88 56 19 0 0 0 0 0 0 0 0 0 0 0 0 0 0 0 0 0 0 0 0 0 0 0 0 0 0 0 0 0 0 0 0 0 0 0 0 0 0 0 0 0 0 0 0 0 0 
0 0 0 0 0 0 0 0 0 0 0 0 0 0 0 0 0 0 0 0 0 0 0 0 0 0 0 0 0 0 0 0 0 0 0 0 0 0 0 0 9 40 78 88 88 88 57 38 36 56 67 68 69 62 39 18 20 26 31 42 41 24 18 17 53 25 28 21 24 35 51 55 54 56 42 39 58 82 88 88 83 47 15 0 0 0 0 0 0 0 0 0 0 0 0 0 0 0 0 0 0 0 0 0 0 0 0 0 0 0 0 0 0 0 0 0 0 0 0 0 0 0 0 0 0 0 0 0 
0 0 0 0 0 0 0 0 0 0 0 0 0 0 0 0 0 0 0 0 0 0 0 0 0 0 0 0 0 0 0 0 0 0 0 0 0 0 0 0 27 68 88 88 88 59 39 36 52 72 72 59 50 33 22 20 32 47 50 49 50 30 31 37 48 30 37 31 24 25 28 37 55 54 53 40 40 63 82 88 88 78 43 9 0 0 0 0 0 0 0 0 0 0 0 0 0 0 0 0 0 0 0 0 0 0 0 0 0 0 0 0 0 0 0 0 0 0 0 0 0 0 0 0 0 0 0 0 
0 0 0 0 0 0 0 0 0 0 0 0 0 0 0 0 0 0 0 0 0 0 0 0 0 0 0 0 0 0 0 0 0 0 0 0 0 0 0 16 59 88 88 88 62 35 43 56 62 60 55 45 32 21 17 33 45 50 55 55 54 32 34 46 48 40 33 41 36 30 24 30 36 48 48 49 37 44 59 88 88 88 75 38 0 0 0 0 0 0 0 0 0 0 0 0 0 0 0 0 0 0 0 0 0 0 0 0 0 0 0 0 0 0 0 0 0 0 0 0 0 0 0 0 0 0 0 0 
0 0 0 0 0 0 0 0 0 0 0 0 0 0 0 0 0 0 0 0 0 0 0 0 0 0 0 0 0 0 0 0 0 0 0 0 0 0 12 49 88 88 88 68 32 40 57 67 57 41 35 25 23 14 36 47 52 60 58 56 55 36 46 53 55 54 52 40 41 36 34 23 22 30 50 63 63 40 38 63 88 88 88 74 31 0 0 0 0 0 0 0 0 0 0 0 0 0 0 0 0 0 0 0 0 0 0 0 0 0 0 0 0 0 0 0 0 0 0 0 0 0 0 0 0 0 0 0 
0 0 0 0 0 0 0 0 0 0 0 0 0 0 0 0 0 0 0 0 0 0 0 0 0 0 0 0 0 0 0 0 0 0 0 0 0 0 37 83 88 88 75 43 33 56 64 56 38 32 23 18 22 34 50 55 58 58 58 58 58 36 45 53 58 58 56 46 45 40 29 30 25 25 34 46 48 57 38 34 56 88 88 88 66 23 0 0 0 0 0 0 0 0 0 0 0 0 0 0 0 0 0 0 0 0 0 0 0 0 0 0 0 0 0 0 0 0 0 0 0 0 0 0 0 0 0 0 
0 0 0 0 0 0 0 0 0 0 0 0 0 0 0 0 0 0 0 0 0 0 0 0 0 0 0 0 0 0 0 0 0 0 0 0 0 23 76 88 88 84 43 34 61 63 55 35 24 19 18 32 32 54 54 57 59 59 60 58 56 53 45 55 57 62 57 57 54 56 53 37 26 16 19 30 39 45 52 39 36 66 88 88 88 58 15 0 0 0 0 0 0 0 0 0 0 0 0 0 0 0 0 0 0 0 0 0 0 0 0 0 0 0 0 0 0 0 0 0 0 0 0 0 0 0 0 0 
0 0 0 0 0 0 0 0 0 0 0 0 0 0 0 0 0 0 0 0 0 0 0 0 0 0 0 0 0 0 0 0 0 0 0 0 14 53 88 88 88 55 32 49 58 53 37 21 14 20 27 50 43 57 57 60 60 59 60 60 57 59 40 55 56 60 63 59 57 56 53 53 35 23 17 17 25 42 55 50 36 32 62 88 88 88 47 0 0 0 0 0 0 0 0 0 0 0 0 0 0 0 0 0 0 0 0 0 0 0 0 0 0 0 0 0 0 0 0 0 0 0 0 0 0 0 0 0 
0 0 0 0 0 0 0 0 0 0 0 0 0 0 0 0 0 0 0 0 0 0 0 0 0 0 0 0 0 0 0 0 0 0 0 0 41 88 88 88 60 27 42 55 46 28 17 14 25 42 49 54 54 58 59 60 57 57 57 59 58 58 44 56 57 61 63 61 58 56 58 53 51 36 29 24 20 28 41 61 57 35 35 59 88 88 86 31 0 0 0 0 0 0 0 0 0 0 0 0 0 0 0 0 0 0 0 0 0 0 0 0 0 0 0 0 0 0 0 0 0 0 0 0 0 0 0 0 
0 0 0 0 0 0 0 0 0 0 0 0 0 0 0 0 0 0 0 0 0 0 0 0 0 0 0 0 0 0 0 0 0 0 0 20 81 88 88 64 28 35 44 45 32 14 19 35 47 53 57 57 60 60 58 56 55 58 58 60 57 56 57 57 59 61 62 60 63 61 58 57 50 53 46 42 27 19 26 43 55 52 30 35 69 88 88 72 17 0 0 0 0 0 0 0 0 0 0 0 0 0 0 0 0 0 0 0 0 0 0 0 0 0 0 0 0 0 0 0 0 0 0 0 0 0 0 0 
0 0 0 0 0 0 0 0 0 0 0 0 0 0 0 0 0 0 0 0 0 0 0 0 0 0 0 0 0 0 0 0 0 0 0 56 88 88 84 33 25 39 32 19 17 17 39 48 54 55 57 59 57 56 55 55 56 56 62 62 59 54 58 56 59 60 63 60 62 63 59 55 53 58 54 52 40 19 17 28 35 51 43 28 22 63 88 88 45 0 0 0 0 0 0 0 0 0 0 0 0 0 0 0 0 0 0 0 0 0 0 0 0 0 0 0 0 0 0 0 0 0 0 0 0 0 0 0 
0 0 0 0 0 0 0 0 0 0 0 0 0 0 0 0 0 0 0 0 0 0 0 0 0 0 0 0 0 0 0 0 0 0 35 88 88 88 36 20 27 18 12 15 14 41 52 57 57 56 54 54 54 57 56 57 61 63 62 61 56 57 56 56 62 64 64 66 64 61 57 58 59 61 59 50 50 7 24 19 16 37 36 15 25 72 88 88 79 21 0 0 0 0 0 0 0 0 0 0 0 0 0 0 0 0 0 0 0 0 0 0 0 0 0 0 0 0 0 0 0 0 0 0 0 0 0 0 
0 0 0 0 0 0 0 0 0 0 0 0 0 0 0 0 0 0 0 0 0 0 0 0 0 0 0 0 0 0 0 0 0 11 65 88 88 72 19 9 12 9 13 23 11 55 56 59 61 56 58 56 56 58 61 63 63 63 62 59 60 56 43 58 60 65 65 63 65 63 61 61 60 61 55 58 27 27 32 23 13 19 12 14 11 20 58 88 88 46 0 0 0 0 0 0 0 0 0 0 0 0 0 0 0 0 0 0 0 0 0 0 0 0 0 0 0 0 0 0 0 0 0 0 0 0 0 0 
0 0 0 0 0 0 0 0 0 0 0 0 0 0 0 0 0 0 0 0 0 0 0 0 0 0 0 0 0 0 0 0 0 36 88 88 88 33 14 13 4 17 24 25 25 52 53 60 61 61 61 57 57 60 64 63 64 61 61 57 63 30 45 58 56 58 63 66 65 63 63 61 60 59 55 44 32 54 48 36 18 13 8 13 13 14 31 75 88 82 20 0 0 0 0 0 0 0 0 0 0 0 0 0 0 0 0 0 0 0 0 0 0 0 0 0 0 0 0 0 0 0 0 0 0 0 0 0 
0 0 0 0 0 0 0 0 0 0 0 0 0 0 0 0 0 0 0 0 0 0 0 0 0 0 0 0 0 0 0 0 13 70 88 88 65 15 11 11 13 23 39 22 31 45 56 61 61 61 62 65 64 64 63 62 61 55 56 54 55 46 65 61 54 56 62 64 64 62 64 60 60 51 50 55 55 57 56 48 34 16 11 7 12 14 24 65 88 88 45 0 0 0 0 0 0 0 0 0 0 0 0 0 0 0 0 0 0 0 0 0 0 0 0 0 0 0 0 0 0 0 0 0 0 0 0 0 
0 0 0 0 0 0 0 0 0 0 0 0 0 0 0 0 0 0 0 0 0 0 0 0 0 0 0 0 0 0 0 0 39 88 88 69 19 16 15 14 30 33 29 25 32 40 47 49 53 59 59 61 64 66 64 63 61 56 53 53 61 46 57 55 59 58 61 62 63 63 63 59 53 58 58 54 52 55 58 54 48 38 28 19 23 27 31 39 88 88 71 12 0 0 0 0 0 0 0 0 0 0 0 0 0 0 0 0 0 0 0 0 0 0 0 0 0 0 0 0 0 0 0 0 0 0 0 0 
0 0 0 0 0 0 0 0 0 0 0 0 0 0 0 0 0 0 0 0 0 0 0 0 0 0 0 0 0 0 0 13 73 88 73 63 23 33 32 22 29 32 43 50 52 46 47 50 55 59 62 63 61 61 63 59 66 61 59 58 59 46 60 55 59 62 61 63 61 65 59 58 45 40 52 54 52 55 49 47 52 42 39 26 30 42 46 37 59 88 88 41 0 0 0 0 0 0 0 0 0 0 0 0 0 0 0 0 0 0 0 0 0 0 0 0 0 0 0 0 0 0 0 0 0 0 0 0 
0 0 0 0 0 0 0 0 0 0 0 0 0 0 0 0 0 0 0 0 0 0 0 0 0 0 0 0 0 0 0 34 88 88 41 31 29 49 44 62 63 38 48 55 57 60 50 44 55 57 57 60 63 65 65 65 66 65 62 61 58 53 60 57 61 65 64 62 60 64 58 54 56 59 56 54 57 59 57 45 49 37 38 38 29 31 38 34 31 88 88 70 17 0 0 0 0 0 0 0 0 0 0 0 0 0 0 0 0 0 0 0 0 0 0 0 0 0 0 0 0 0 0 0 0 0 0 0 
0 0 0 0 0 0 0 0 0 0 0 0 0 0 0 0 0 0 0 0 0 0 0 0 0 0 0 0 0 0 0 58 88 88 43 28 34 38 42 59 61 28 49 55 60 58 55 48 44 51 57 56 57 63 63 64 66 63 58 65 60 56 60 56 61 63 64 62 60 66 62 61 59 62 60 60 63 61 57 57 52 47 49 52 32 22 35 41 43 88 88 88 48 0 0 0 0 0 0 0 0 0 0 0 0 0 0 0 0 0 0 0 0 0 0 0 0 0 0 0 0 0 0 0 0 0 0 0 
0 0 0 0 0 0 0 0 0 0 0 0 0 0 0 0 0 0 0 0 0 0 0 0 0 0 0 0 0 0 20 80 88 69 44 27 28 43 56 52 48 41 54 57 63 62 58 55 59 57 45 41 49 57 65 66 63 63 66 60 59 57 58 57 63 64 63 63 58 63 65 66 65 65 64 64 62 59 57 48 48 55 54 53 45 29 29 32 34 51 88 88 77 24 0 0 0 0 0 0 0 0 0 0 0 0 0 0 0 0 0 0 0 0 0 0 0 0 0 0 0 0 0 0 0 0 0 0 
0 0 0 0 0 0 0 0 0 0 0 0 0 0 0 0 0 0 0 0 0 0 0 0 0 0 0 0 0 0 34 77 85 54 34 29 28 39 41 44 42 40 38 56 58 62 63 63 59 59 56 53 44 56 64 65 65 68 63 61 59 58 56 58 58 59 62 62 64 62 66 64 64 62 63 60 57 56 47 53 57 59 60 57 55 38 22 27 38 31 55 88 88 47 0 0 0 0 0 0 0 0 0 0 0 0 0 0 0 0 0 0 0 0 0 0 0 0 0 0 0 0 0 0 0 0 0 0 
0 0 0 0 0 0 0 0 0 0 0 0 0 0 0 0 0 0 0 0 0 0 0 0 0 0 0 0 0 0 53 88 88 59 28 32 41 48 47 54 57 55 56 42 51 60 64 65 63 62 62 56 48 58 61 66 66 65 59 57 57 52 37 52 57 57 63 66 63 62 67 66 65 61 58 57 54 57 61 58 62 60 60 54 56 50 40 25 39 34 85 88 88 72 15 0 0 0 0 0 0 0 0 0 0 0 0 0 0 0 0 0 0 0 0 0 0 0 0 0 0 0 0 0 0 0 0 0 
0 0 0 0 0 0 0 0 0 0 0 0 0 0 0 0 0 0 0 0 0 0 0 0 0 0 0 0 0 20 76 88 87 37 36 38 29 42 52 58 60 60 57 60 34 52 58 65 64 61 59 60 52 59 64 66 66 64 60 57 52 29 31 54 54 57 63 67 65 65 64 63 60 58 50 55 61 59 60 65 63 58 56 52 40 35 38 13 29 29 52 88 88 88 30 0 0 0 0 0 0 0 0 0 0 0 0 0 0 0 0 0 0 0 0 0 0 0 0 0 0 0 0 0 0 0 0 0 
0 0 0 0 0 0 0 0 0 0 0 0 0 0 0 0 0 0 0 0 0 0 0 0 0 0 0 0 0 39 88 88 70 40 45 32 28 41 56 60 61 64 62 61 57 57 63 63 61 57 55 59 57 61 65 63 68 66 61 57 59 51 40 60 57 61 63 67 66 67 67 64 58 53 59 58 59 64 64 61 57 54 35 49 39 37 41 42 39 35 50 66 88 88 51 0 0 0 0 0 0 0 0 0 0 0 0 0 0 0 0 0 0 0 0 0 0 0 0 0 0 0 0 0 0 0 0 0 
0 0 0 0 0 0 0 0 0 0 0 0 0 0 0 0 0 0 0 0 0 0 0 0 0 0 0 0 11 59 88 88 52 49 46 26 32 49 56 59 59 59 62 63 64 64 64 63 58 57 58 57 61 64 65 66 67 65 65 62 59 51 57 58 61 61 64 63 65 64 63 66 59 56 59 63 63 66 62 57 47 51 56 57 57 53 51 39 28 36 44 59 88 88 69 21 0 0 0 0 0 0 0 0 0 0 0 0 0 0 0 0 0 0 0 0 0 0 0 0 0 0 0 0 0 0 0 0 
0 0 0 0 0 0 0 0 0 0 0 0 0 0 0 0 0 0 0 0 0 0 0 0 0 0 0 0 24 77 88 88 46 62 41 26 33 50 54 53 56 62 58 61 62 64 66 61 57 53 61 61 66 65 65 65 65 67 63 63 60 57 65 55 61 62 63 63 67 68 67 66 60 55 56 63 62 64 63 55 55 58 57 61 60 58 52 40 26 33 41 52 88 88 88 33 0 0 0 0 0 0 0 0 0 0 0 0 0 0 0 0 0 0 0 0 0 0 0 0 0 0 0 0 0 0 0 0 
0 0 0 0 0 0 0 0 0 0 0 0 0 0 0 0 0 0 0 0 0 0 0 0 0 0 0 0 45 88 88 68 49 64 40 21 35 47 50 47 45 35 49 60 60 60 64 62 58 58 59 63 66 64 65 66 66 66 63 62 61 57 63 59 63 66 64 66 67 67 68 65 59 55 56 61 64 64 64 64 64 66 64 64 62 57 55 42 31 25 51 43 72 88 88 55 0 0 0 0 0 0 0 0 0 0 0 0 0 0 0 0 0 0 0 0 0 0 0 0 0 0 0 0 0 0 0 0 
0 0 0 0 0 0 0 0 0 0 0 0 0 0 0 0 0 0 0 0 0 0 0 0 0 0 0 15 67 88 88 52 60 64 31 21 25 47 44 41 53 59 57 50 54 60 60 62 60 58 59 60 64 63 65 65 67 65 62 61 63 48 61 58 63 62 62 64 65 66 66 70 61 58 57 58 62 63 63 61 60 59 60 60 60 61 57 49 27 25 53 45 59 88 88 78 19 0 0 0 0 0 0 0 0 0 0 0 0 0 0 0 0 0 0 0 0 0 0 0 0 0 0 0 0 0 0 0 
0 0 0 0 0 0 0 0 0 0 0 0 0 0 0 0 0 0 0 0 0 0 0 0 0 0 0 31 85 88 88 47 67 58 31 24 43 56 46 60 60 60 58 59 57 54 61 58 58 54 52 60 60 64 65 66 65 63 52 50 59 46 48 60 60 59 63 64 64 68 66 64 65 60 54 59 60 61 58 62 58 55 53 51 60 59 58 53 31 25 43 45 42 86 88 88 39 0 0 0 0 0 0 0 0 0 0 0 0 0 0 0 0 0 0 0 0 0 0 0 0 0 0 0 0 0 0 0 
0 0 0 0 0 0 0 0 0 0 0 0 0 0 0 0 0 0 0 0 0 0 0 0 0 0 13 54 88 88 74 50 72 50 24 25 31 29 48 58 59 62 64 63 62 59 55 60 58 60 60 57 56 62 65 65 66 59 57 56 47 39 46 51 58 62 54 62 67 66 65 66 65 62 60 60 63 56 60 60 56 57 59 54 41 56 58 55 40 19 33 57 40 65 88 88 60 0 0 0 0 0 0 0 0 0 0 0 0 0 0 0 0 0 0 0 0 0 0 0 0 0 0 0 0 0 0 0 
0 0 0 0 0 0 0 0 0 0 0 0 0 0 0 0 0 0 0 0 0 0 0 0 0 0 17 72 88 88 62 57 67 36 21 32 39 38 51 59 63 61 62 63 63 62 60 58 58 62 61 60 59 63 65 67 65 64 60 60 50 60 43 60 61 60 59 59 64 66 64 66 65 61 59 59 58 58 61 61 60 59 61 62 51 44 43 47 43 22 27 55 41 53 83 88 80 23 0 0 0 0 0 0 0 0 0 0 0 0 0 0 0 0 0 0 0 0 0 0 0 0 0 0 0 0 0 0 
0 0 0 0 0 0 0 0 0 0 0 0 0 0 0 0 0 0 0 0 0 0 0 0 0 0 35 86 88 88 57 67 63 36 28 53 59 57 43 57 61 62 63 62 63 65 63 58 60 63 65 66 65 66 69 68 64 60 62 53 57 63 49 62 61 64 60 63 65 66 64 63 62 61 59 59 61 63 61 64 63 63 64 59 52 37 46 48 48 21 23 43 49 29 88 88 88 37 0 0 0 0 0 0 0 0 0 0 0 0 0 0 0 0 0 0 0 0 0 0 0 0 0 0 0 0 0 0 
0 0 0 0 0 0 0 0 0 0 0 0 0 0 0 0 0 0 0 0 0 0 0 0 0 0 53 88 88 71 53 65 57 29 33 50 62 61 58 57 54 50 62 61 61 62 66 65 65 65 66 67 66 65 68 66 63 61 59 59 57 63 51 60 63 61 63 63 65 66 66 63 59 57 56 61 62 62 64 63 63 63 59 59 59 57 59 60 53 39 18 40 48 38 64 88 88 63 0 0 0 0 0 0 0 0 0 0 0 0 0 0 0 0 0 0 0 0 0 0 0 0 0 0 0 0 0 0 
0 0 0 0 0 0 0 0 0 0 0 0 0 0 0 0 0 0 0 0 0 0 0 0 0 16 65 88 88 60 57 79 49 23 30 56 60 62 60 59 60 49 31 61 63 63 64 63 63 66 65 64 67 66 66 67 64 59 59 61 61 60 41 59 62 61 63 64 64 66 64 65 62 61 61 62 62 66 64 63 62 61 60 60 58 61 62 61 54 36 17 27 46 40 56 88 88 77 19 0 0 0 0 0 0 0 0 0 0 0 0 0 0 0 0 0 0 0 0 0 0 0 0 0 0 0 0 0 
0 0 0 0 0 0 0 0 0 0 0 0 0 0 0 0 0 0 0 0 0 0 0 0 0 24 86 88 80 60 62 71 38 24 26 55 59 63 63 64 59 60 56 48 62 64 62 64 63 61 64 64 62 65 64 67 66 63 63 62 63 59 54 61 61 63 65 64 65 65 66 66 65 66 66 63 65 63 63 63 63 47 47 62 61 60 63 62 49 43 29 24 52 40 48 88 88 88 29 0 0 0 0 0 0 0 0 0 0 0 0 0 0 0 0 0 0 0 0 0 0 0 0 0 0 0 0 0 
0 0 0 0 0 0 0 0 0 0 0 0 0 0 0 0 0 0 0 0 0 0 0 0 0 34 87 88 73 56 73 57 31 26 31 56 61 64 63 62 63 49 48 59 63 63 64 64 63 64 64 63 63 63 63 63 65 66 65 64 63 61 59 63 64 63 63 64 67 66 66 64 64 62 64 63 63 64 63 61 46 63 60 62 62 61 63 62 62 48 36 27 46 49 39 81 88 88 47 0 0 0 0 0 0 0 0 0 0 0 0 0 0 0 0 0 0 0 0 0 0 0 0 0 0 0 0 0 
0 0 0 0 0 0 0 0 0 0 0 0 0 0 0 0 0 0 0 0 0 0 0 0 0 46 88 88 59 54 76 62 32 33 42 57 62 62 62 63 61 51 61 61 62 62 63 62 63 60 62 63 63 62 68 65 65 63 62 63 60 60 55 63 63 63 65 63 64 65 65 63 66 63 64 63 63 63 63 57 63 58 61 58 58 63 63 63 62 56 42 30 46 56 42 77 88 88 68 13 0 0 0 0 0 0 0 0 0 0 0 0 0 0 0 0 0 0 0 0 0 0 0 0 0 0 0 0 
0 0 0 0 0 0 0 0 0 0 0 0 0 0 0 0 0 0 0 0 0 0 0 0 0 66 88 88 58 63 76 46 40 48 50 52 54 60 62 62 63 60 63 62 63 65 63 64 57 60 58 64 64 64 64 65 66 65 63 64 61 63 51 62 62 63 62 64 65 64 65 64 65 63 64 62 63 62 63 62 61 63 62 55 53 62 62 63 60 54 40 24 41 66 31 21 85 88 78 23 0 0 0 0 0 0 0 0 0 0 0 0 0 0 0 0 0 0 0 0 0 0 0 0 0 0 0 0 
0 0 0 0 0 0 0 0 0 0 0 0 0 0 0 0 0 0 0 0 0 0 0 0 21 85 88 88 54 73 73 41 27 35 50 52 58 57 58 64 63 63 59 63 62 64 63 56 65 63 63 62 64 65 63 68 63 64 63 64 61 62 50 58 64 65 61 62 62 66 66 67 62 63 62 63 62 63 63 62 63 62 63 55 63 60 65 58 60 57 46 29 40 63 48 40 88 88 76 20 0 0 0 0 0 0 0 0 0 0 0 0 0 0 0 0 0 0 0 0 0 0 0 0 0 0 0 0 
0 0 0 0 0 0 0 0 0 0 0 0 0 0 0 0 0 0 0 0 0 0 0 0 33 88 88 88 60 75 63 34 28 54 54 56 58 52 59 63 66 63 59 62 63 61 63 64 63 62 65 65 65 64 67 65 68 63 64 63 64 63 41 53 62 60 60 63 64 65 67 64 62 66 59 60 63 63 61 63 63 63 62 62 61 63 62 62 63 59 50 28 43 60 46 44 88 88 77 20 0 0 0 0 0 0 0 0 0 0 0 0 0 0 0 0 0 0 0 0 0 0 0 0 0 0 0 0 
0 0 0 0 0 0 0 0 0 0 0 0 0 0 0 0 0 0 0 0 0 0 0 0 46 88 88 88 49 76 58 33 21 46 59 56 50 47 59 63 65 65 64 62 62 65 63 62 62 64 63 64 65 66 66 67 66 66 63 62 64 65 34 63 62 63 64 63 65 67 66 67 64 63 63 62 58 64 60 63 63 58 56 64 63 64 63 61 61 59 42 26 47 62 54 48 88 88 80 18 0 0 0 0 0 0 0 0 0 0 0 0 0 0 0 0 0 0 0 0 0 0 0 0 0 0 0 0 
0 0 0 0 0 0 0 0 0 0 0 0 0 0 0 0 0 0 0 0 0 0 0 9 56 88 88 82 52 71 56 31 40 45 59 55 35 42 58 58 65 65 68 66 67 63 63 66 64 64 66 63 66 67 65 67 67 64 64 63 61 63 49 63 63 63 63 64 65 67 65 66 64 63 65 65 61 56 62 62 58 62 65 64 63 60 61 58 54 56 42 36 41 68 52 44 84 88 82 21 0 0 0 0 0 0 0 0 0 0 0 0 0 0 0 0 0 0 0 0 0 0 0 0 0 0 0 0 
0 0 0 0 0 0 0 0 0 0 0 0 0 0 0 0 0 0 0 0 0 0 0 11 65 88 88 40 46 76 56 37 38 48 55 45 36 52 60 46 56 63 62 62 63 64 65 65 65 64 64 63 67 66 68 66 63 65 63 64 61 63 53 63 63 62 64 63 65 64 67 64 65 63 66 62 63 63 63 58 61 64 63 64 63 57 60 57 61 42 44 40 44 66 56 54 82 88 82 19 0 0 0 0 0 0 0 0 0 0 0 0 0 0 0 0 0 0 0 0 0 0 0 0 0 0 0 0 
0 0 0 0 0 0 0 0 0 0 0 0 0 0 0 0 0 0 0 0 0 0 0 13 67 88 88 88 55 76 48 38 42 45 46 40 44 58 62 49 48 58 62 63 63 64 67 60 59 62 64 66 65 68 65 63 63 63 63 62 62 60 52 61 60 63 62 63 64 66 66 67 68 65 64 67 64 63 62 62 61 66 63 62 59 52 57 54 54 52 55 42 42 69 52 47 63 88 82 22 0 0 0 0 0 0 0 0 0 0 0 0 0 0 0 0 0 0 0 0 0 0 0 0 0 0 0 0 
0 0 0 0 0 0 0 0 0 0 0 0 0 0 0 0 0 0 0 0 0 0 0 15 66 88 88 71 49 73 46 33 45 55 42 33 42 57 64 61 61 59 65 61 65 68 65 63 65 64 63 66 66 66 58 54 64 56 62 64 62 61 52 62 61 62 62 62 61 61 61 66 69 68 64 65 63 63 65 64 67 64 64 64 61 58 55 56 54 46 53 50 50 63 50 53 80 88 82 22 0 0 0 0 0 0 0 0 0 0 0 0 0 0 0 0 0 0 0 0 0 0 0 0 0 0 0 0 
0 0 0 0 0 0 0 0 0 0 0 0 0 0 0 0 0 0 0 0 0 0 0 13 72 88 88 61 48 73 58 67 74 50 51 49 25 52 61 64 62 58 58 62 62 65 63 64 67 66 68 65 69 67 64 58 55 61 55 62 56 51 46 59 61 59 59 59 59 62 59 67 66 67 68 68 66 68 66 64 64 64 65 64 63 61 50 51 53 50 53 46 52 69 51 51 88 88 82 24 0 0 0 0 0 0 0 0 0 0 0 0 0 0 0 0 0 0 0 0 0 0 0 0 0 0 0 0 
0 0 0 0 0 0 0 0 0 0 0 0 0 0 0 0 0 0 0 0 0 0 0 19 69 88 88 67 48 73 54 41 45 60 60 62 50 44 59 61 61 57 61 63 66 66 65 65 68 69 65 69 67 69 56 63 56 59 51 60 58 53 40 48 39 57 60 59 62 56 61 66 69 66 66 64 63 65 66 67 64 63 64 63 62 56 51 49 53 55 51 50 60 78 49 43 88 88 83 23 0 0 0 0 0 0 0 0 0 0 0 0 0 0 0 0 0 0 0 0 0 0 0 0 0 0 0 0 
0 0 0 0 0 0 0 0 0 0 0 0 0 0 0 0 0 0 0 0 0 0 0 20 71 88 88 80 43 76 66 46 53 58 63 60 62 30 56 60 61 59 61 67 66 67 64 67 69 67 69 68 68 66 56 58 64 60 61 59 59 58 44 31 59 61 60 61 62 59 62 68 67 64 63 64 61 59 66 65 63 59 57 58 54 41 32 53 57 56 51 48 63 68 48 53 88 88 85 25 0 0 0 0 0 0 0 0 0 0 0 0 0 0 0 0 0 0 0 0 0 0 0 0 0 0 0 0 
0 0 0 0 0 0 0 0 0 0 0 0 0 0 0 0 0 0 0 0 0 0 0 13 77 88 88 81 42 80 68 44 52 58 65 63 59 48 39 60 55 56 61 65 64 63 66 68 61 59 63 66 69 69 59 51 65 63 63 62 63 62 45 35 61 62 64 67 67 68 65 68 64 64 64 66 63 56 63 63 63 48 54 57 55 54 46 58 60 60 48 42 53 64 42 63 88 88 76 28 0 0 0 0 0 0 0 0 0 0 0 0 0 0 0 0 0 0 0 0 0 0 0 0 0 0 0 0 
0 0 0 0 0 0 0 0 0 0 0 0 0 0 0 0 0 0 0 0 0 0 0 0 57 88 88 88 41 74 66 44 51 57 60 63 63 63 54 59 44 40 58 63 63 63 67 64 60 62 61 66 70 67 63 63 65 64 62 63 65 58 45 33 56 58 60 63 69 69 67 67 66 62 66 67 63 56 63 62 60 53 55 58 58 61 63 61 59 55 46 39 66 60 39 66 88 88 86 24 0 0 0 0 0 0 0 0 0 0 0 0 0 0 0 0 0 0 0 0 0 0 0 0 0 0 0 0 
0 0 0 0 0 0 0 0 0 0 0 0 0 0 0 0 0 0 0 0 0 0 0 0 47 83 88 88 39 66 60 37 51 56 57 61 67 64 62 60 62 57 56 56 61 64 65 65 53 59 62 68 71 70 68 67 64 67 64 65 65 62 36 49 59 63 58 60 68 67 70 63 64 67 64 64 62 60 62 66 61 49 55 59 60 60 60 58 54 50 32 39 56 57 46 85 88 88 79 24 0 0 0 0 0 0 0 0 0 0 0 0 0 0 0 0 0 0 0 0 0 0 0 0 0 0 0 0 
0 0 0 0 0 0 0 0 0 0 0 0 0 0 0 0 0 0 0 0 0 0 0 0 30 88 88 88 42 60 61 45 48 56 54 63 64 68 69 64 65 63 57 58 56 62 63 61 42 53 65 67 71 70 69 70 68 66 66 64 63 59 46 58 58 59 62 63 69 69 64 64 66 67 63 58 59 59 63 63 64 33 37 53 56 60 49 42 43 20 25 40 55 50 50 88 88 88 72 19 0 0 0 0 0 0 0 0 0 0 0 0 0 0 0 0 0 0 0 0 0 0 0 0 0 0 0 0 
0 0 0 0 0 0 0 0 0 0 0 0 0 0 0 0 0 0 0 0 0 0 0 0 21 73 88 88 50 48 68 43 45 54 62 63 63 61 61 62 68 70 65 60 58 57 51 56 62 63 67 67 65 71 70 69 68 64 64 65 61 53 42 58 60 62 58 63 67 68 67 66 67 63 55 52 54 58 58 56 50 52 62 60 59 49 32 37 23 52 33 43 61 43 63 88 88 88 59 11 0 0 0 0 0 0 0 0 0 0 0 0 0 0 0 0 0 0 0 0 0 0 0 0 0 0 0 0 
0 0 0 0 0 0 0 0 0 0 0 0 0 0 0 0 0 0 0 0 0 0 0 0 13 71 88 88 84 43 72 45 44 48 59 63 59 53 46 61 66 69 63 63 51 38 63 63 68 67 67 68 70 70 70 68 64 62 62 61 60 63 53 60 62 62 62 67 65 67 68 67 66 63 63 59 59 55 53 54 46 60 60 63 57 49 46 24 22 51 38 47 62 39 72 88 88 85 53 0 0 0 0 0 0 0 0 0 0 0 0 0 0 0 0 0 0 0 0 0 0 0 0 0 0 0 0 0 
0 0 0 0 0 0 0 0 0 0 0 0 0 0 0 0 0 0 0 0 0 0 0 0 0 47 88 88 88 39 63 58 37 43 58 57 59 47 61 62 70 61 56 59 56 62 58 63 63 63 64 68 68 63 72 68 63 63 55 58 60 56 48 58 63 61 63 69 70 67 69 64 68 66 64 63 62 60 55 62 64 60 61 63 58 61 60 57 30 36 42 58 54 39 88 88 88 84 40 0 0 0 0 0 0 0 0 0 0 0 0 0 0 0 0 0 0 0 0 0 0 0 0 0 0 0 0 0 
0 0 0 0 0 0 0 0 0 0 0 0 0 0 0 0 0 0 0 0 0 0 0 0 0 37 88 88 88 44 46 66 52 36 45 72 58 53 61 65 68 62 53 63 65 62 60 58 61 54 62 67 69 69 70 68 67 61 61 60 61 63 53 57 58 63 67 62 62 66 68 65 65 63 63 62 64 63 57 64 58 63 59 61 64 63 58 57 32 37 53 68 41 64 88 88 88 77 29 0 0 0 0 0 0 0 0 0 0 0 0 0 0 0 0 0 0 0 0 0 0 0 0 0 0 0 0 0 
0 0 0 0 0 0 0 0 0 0 0 0 0 0 0 0 0 0 0 0 0 0 0 0 0 22 85 88 88 71 36 70 61 30 40 72 37 64 63 66 64 59 57 65 67 65 65 64 59 56 51 66 67 70 69 67 69 71 66 63 61 59 45 59 63 63 66 59 60 66 65 64 64 64 62 64 63 63 56 56 58 62 64 62 63 59 58 43 31 46 66 60 41 77 88 88 86 63 14 0 0 0 0 0 0 0 0 0 0 0 0 0 0 0 0 0 0 0 0 0 0 0 0 0 0 0 0 0 
0 0 0 0 0 0 0 0 0 0 0 0 0 0 0 0 0 0 0 0 0 0 0 0 0 0 72 88 88 88 34 57 69 56 42 29 38 61 63 68 66 63 61 67 65 66 64 64 62 53 52 68 67 69 64 67 68 70 66 66 63 60 58 60 63 65 60 58 61 65 64 61 61 63 63 59 60 58 50 54 57 64 65 62 59 57 47 31 40 50 69 38 53 88 88 88 83 41 0 0 0 0 0 0 0 0 0 0 0 0 0 0 0 0 0 0 0 0 0 0 0 0 0 0 0 0 0 0 
0 0 0 0 0 0 0 0 0 0 0 0 0 0 0 0 0 0 0 0 0 0 0 0 0 0 52 88 88 74 50 37 67 56 38 33 43 53 62 63 66 65 66 70 63 52 63 61 60 56 63 64 71 63 60 61 67 66 62 60 62 58 51 61 65 59 58 61 66 68 67 57 60 64 63 57 47 60 62 61 65 65 61 59 58 51 40 34 36 58 55 32 63 88 88 88 66 27 0 0 0 0 0 0 0 0 0 0 0 0 0 0 0 0 0 0 0 0 0 0 0 0 0 0 0 0 0 0 
0 0 0 0 0 0 0 0 0 0 0 0 0 0 0 0 0 0 0 0 0 0 0 0 0 0 30 85 88 88 87 24 58 64 45 29 35 48 63 59 67 67 69 66 61 49 55 45 60 63 66 66 68 61 59 57 63 69 61 62 63 56 40 56 58 58 58 59 69 63 66 63 56 61 63 59 49 58 67 63 62 63 60 52 48 42 38 35 48 62 50 36 88 88 88 88 62 14 0 0 0 0 0 0 0 0 0 0 0 0 0 0 0 0 0 0 0 0 0 0 0 0 0 0 0 0 0 0 
0 0 0 0 0 0 0 0 0 0 0 0 0 0 0 0 0 0 0 0 0 0 0 0 0 0 0 70 88 88 88 61 30 60 55 34 31 37 57 62 64 63 63 65 61 49 60 65 64 69 70 66 62 60 60 61 63 66 65 64 63 64 22 51 50 58 60 64 66 66 60 53 51 62 59 60 48 65 60 55 59 61 62 57 48 42 32 44 62 58 38 56 54 88 88 81 49 0 0 0 0 0 0 0 0 0 0 0 0 0 0 0 0 0 0 0 0 0 0 0 0 0 0 0 0 0 0 0 
0 0 0 0 0 0 0 0 0 0 0 0 0 0 0 0 0 0 0 0 0 0 0 0 0 0 0 42 87 88 88 88 29 36 60 46 31 41 37 55 63 66 60 61 63 51 62 66 68 64 66 64 56 61 61 64 59 62 68 66 64 64 48 63 59 60 66 72 67 63 58 54 53 49 58 53 55 62 57 37 53 57 59 58 46 37 35 50 58 39 50 87 88 88 88 69 27 0 0 0 0 0 0 0 0 0 0 0 0 0 0 0 0 0 0 0 0 0 0 0 0 0 0 0 0 0 0 0 
0 0 0 0 0 0 0 0 0 0 0 0 0 0 0 0 0 0 0 0 0 0 0 0 0 0 0 23 82 88 88 88 88 29 45 51 37 39 46 46 66 63 60 61 56 51 61 65 62 60 62 56 54 60 65 63 62 59 63 69 63 62 44 62 66 65 64 65 63 61 55 56 58 60 52 50 58 62 53 40 51 55 54 50 37 35 47 57 51 39 51 88 88 81 79 57 12 0 0 0 0 0 0 0 0 0 0 0 0 0 0 0 0 0 0 0 0 0 0 0 0 0 0 0 0 0 0 0 
0 0 0 0 0 0 0 0 0 0 0 0 0 0 0 0 0 0 0 0 0 0 0 0 0 0 0 0 63 88 88 88 88 58 30 55 41 33 38 48 57 63 57 54 52 47 63 64 63 51 53 55 62 63 65 64 63 56 59 64 64 61 42 63 61 63 61 65 64 57 56 61 61 59 56 51 53 59 54 50 65 53 34 35 38 41 57 48 38 45 83 88 88 88 71 32 0 0 0 0 0 0 0 0 0 0 0 0 0 0 0 0 0 0 0 0 0 0 0 0 0 0 0 0 0 0 0 0 
0 0 0 0 0 0 0 0 0 0 0 0 0 0 0 0 0 0 0 0 0 0 0 0 0 0 0 0 31 86 88 88 88 88 43 36 54 44 35 35 39 42 41 47 43 42 62 60 62 50 62 63 65 64 63 65 65 63 57 64 65 59 44 61 62 50 56 64 65 57 52 49 55 57 62 56 46 56 57 61 46 32 36 31 39 46 51 46 48 66 88 88 88 84 48 9 0 0 0 0 0 0 0 0 0 0 0 0 0 0 0 0 0 0 0 0 0 0 0 0 0 0 0 0 0 0 0 0 
0 0 0 0 0 0 0 0 0 0 0 0 0 0 0 0 0 0 0 0 0 0 0 0 0 0 0 0 0 63 88 88 88 88 88 35 46 47 45 29 32 33 46 59 54 46 43 46 52 65 66 66 65 61 49 61 66 64 55 61 66 61 46 57 73 53 56 63 63 61 51 36 42 53 60 60 44 43 53 49 41 35 40 43 52 51 51 39 62 88 88 88 85 72 28 0 0 0 0 0 0 0 0 0 0 0 0 0 0 0 0 0 0 0 0 0 0 0 0 0 0 0 0 0 0 0 0 0 
0 0 0 0 0 0 0 0 0 0 0 0 0 0 0 0 0 0 0 0 0 0 0 0 0 0 0 0 0 43 88 88 88 88 88 88 54 38 46 49 36 32 56 57 60 66 57 48 62 63 66 59 57 53 41 68 63 65 62 62 66 59 48 55 88 52 59 62 65 60 58 52 39 37 50 53 44 31 35 37 34 41 52 59 53 45 36 62 88 88 88 88 88 46 0 0 0 0 0 0 0 0 0 0 0 0 0 0 0 0 0 0 0 0 0 0 0 0 0 0 0 0 0 0 0 0 0 0 
0 0 0 0 0 0 0 0 0 0 0 0 0 0 0 0 0 0 0 0 0 0 0 0 0 0 0 0 0 20 77 88 88 88 88 88 79 48 44 46 43 34 23 31 38 48 52 55 64 65 62 62 60 61 34 53 63 65 64 64 62 58 40 55 88 76 54 62 62 61 61 67 88 69 51 47 38 37 36 40 48 55 54 51 45 47 67 88 88 88 88 88 70 22 0 0 0 0 0 0 0 0 0 0 0 0 0 0 0 0 0 0 0 0 0 0 0 0 0 0 0 0 0 0 0 0 0 0 
0 0 0 0 0 0 0 0 0 0 0 0 0 0 0 0 0 0 0 0 0 0 0 0 0 0 0 0 0 0 43 86 88 88 88 88 88 88 71 54 52 50 38 38 33 37 37 28 50 59 63 70 65 66 73 61 63 61 61 61 59 48 44 56 88 88 56 60 58 61 62 56 45 36 38 34 33 40 48 58 60 57 54 46 35 67 88 88 88 88 87 85 42 0 0 0 0 0 0 0 0 0 0 0 0 0 0 0 0 0 0 0 0 0 0 0 0 0 0 0 0 0 0 0 0 0 0 0 
0 0 0 0 0 0 0 0 0 0 0 0 0 0 0 0 0 0 0 0 0 0 0 0 0 0 0 0 0 0 11 43 86 87 88 88 88 88 88 78 64 49 50 42 38 40 37 37 30 58 60 55 64 85 65 63 61 56 44 62 42 49 51 26 87 88 58 58 54 52 54 46 37 34 34 37 42 45 56 53 64 51 53 36 64 88 88 88 88 84 88 65 21 0 0 0 0 0 0 0 0 0 0 0 0 0 0 0 0 0 0 0 0 0 0 0 0 0 0 0 0 0 0 0 0 0 0 0 
0 0 0 0 0 0 0 0 0 0 0 0 0 0 0 0 0 0 0 0 0 0 0 0 0 0 0 0 0 0 0 0 37 84 80 88 88 88 88 88 84 62 47 44 49 44 46 40 38 35 36 51 73 55 60 61 62 68 68 66 63 58 67 30 82 85 74 43 34 39 37 36 33 35 46 51 57 55 54 55 51 59 66 88 88 88 88 88 88 84 75 38 0 0 0 0 0 0 0 0 0 0 0 0 0 0 0 0 0 0 0 0 0 0 0 0 0 0 0 0 0 0 0 0 0 0 0 0 
0 0 0 0 0 0 0 0 0 0 0 0 0 0 0 0 0 0 0 0 0 0 0 0 0 0 0 0 0 0 0 0 0 38 69 82 84 88 88 88 88 88 73 49 46 49 53 51 44 42 42 33 54 45 47 52 57 58 61 72 54 84 88 49 78 42 50 44 33 25 34 43 48 55 54 64 59 54 49 50 60 74 88 88 88 88 86 80 78 81 49 0 0 0 0 0 0 0 0 0 0 0 0 0 0 0 0 0 0 0 0 0 0 0 0 0 0 0 0 0 0 0 0 0 0 0 0 0 
0 0 0 0 0 0 0 0 0 0 0 0 0 0 0 0 0 0 0 0 0 0 0 0 0 0 0 0 0 0 0 0 0 0 31 60 77 83 85 88 88 88 88 80 59 53 49 53 54 53 55 46 37 44 45 40 41 45 53 88 59 88 88 88 73 37 33 40 45 48 49 55 63 61 56 55 52 48 53 61 83 88 88 88 84 78 85 88 74 50 15 0 0 0 0 0 0 0 0 0 0 0 0 0 0 0 0 0 0 0 0 0 0 0 0 0 0 0 0 0 0 0 0 0 0 0 0 0 
0 0 0 0 0 0 0 0 0 0 0 0 0 0 0 0 0 0 0 0 0 0 0 0 0 0 0 0 0 0 0 0 0 0 0 24 40 67 86 87 87 88 88 88 88 77 63 44 43 52 53 59 52 44 44 45 39 34 40 65 78 88 88 88 34 43 42 40 47 50 56 57 55 45 52 54 55 71 77 88 88 88 88 88 88 84 81 57 35 9 0 0 0 0 0 0 0 0 0 0 0 0 0 0 0 0 0 0 0 0 0 0 0 0 0 0 0 0 0 0 0 0 0 0 0 0 0 0 
0 0 0 0 0 0 0 0 0 0 0 0 0 0 0 0 0 0 0 0 0 0 0 0 0 0 0 0 0 0 0 0 0 0 0 0 11 27 53 75 87 88 88 88 88 88 85 72 64 51 40 48 50 50 45 42 37 38 36 44 73 88 88 59 32 39 33 38 35 40 41 38 34 37 52 67 73 76 88 88 88 88 80 72 86 69 41 16 0 0 0 0 0 0 0 0 0 0 0 0 0 0 0 0 0 0 0 0 0 0 0 0 0 0 0 0 0 0 0 0 0 0 0 0 0 0 0 0 
0 0 0 0 0 0 0 0 0 0 0 0 0 0 0 0 0 0 0 0 0 0 0 0 0 0 0 0 0 0 0 0 0 0 0 0 0 0 15 44 76 87 85 88 88 88 88 88 88 85 75 58 50 45 44 41 42 37 27 29 53 88 67 30 43 31 33 34 43 44 40 50 72 80 82 78 88 88 88 88 82 76 79 71 42 19 0 0 0 0 0 0 0 0 0 0 0 0 0 0 0 0 0 0 0 0 0 0 0 0 0 0 0 0 0 0 0 0 0 0 0 0 0 0 0 0 0 0 
0 0 0 0 0 0 0 0 0 0 0 0 0 0 0 0 0 0 0 0 0 0 0 0 0 0 0 0 0 0 0 0 0 0 0 0 0 0 0 9 30 63 81 82 79 88 88 88 88 88 88 88 75 78 64 68 69 41 42 35 49 62 71 70 65 69 68 79 73 84 87 88 88 88 88 88 88 85 77 76 78 75 51 21 0 0 0 0 0 0 0 0 0 0 0 0 0 0 0 0 0 0 0 0 0 0 0 0 0 0 0 0 0 0 0 0 0 0 0 0 0 0 0 0 0 0 0 0 
0 0 0 0 0 0 0 0 0 0 0 0 0 0 0 0 0 0 0 0 0 0 0 0 0 0 0 0 0 0 0 0 0 0 0 0 0 0 0 0 0 22 43 64 81 78 82 82 88 88 88 88 88 88 88 88 88 88 88 88 88 88 88 88 88 88 88 88 88 88 88 88 88 88 80 84 75 71 73 65 50 27 0 0 0 0 0 0 0 0 0 0 0 0 0 0 0 0 0 0 0 0 0 0 0 0 0 0 0 0 0 0 0 0 0 0 0 0 0 0 0 0 0 0 0 0 0 0 
0 0 0 0 0 0 0 0 0 0 0 0 0 0 0 0 0 0 0 0 0 0 0 0 0 0 0 0 0 0 0 0 0 0 0 0 0 0 0 0 0 0 0 23 43 66 76 77 78 82 87 81 83 88 88 88 88 88 88 88 88 88 88 88 88 88 88 88 88 88 88 78 83 77 82 75 72 62 43 24 11 0 0 0 0 0 0 0 0 0 0 0 0 0 0 0 0 0 0 0 0 0 0 0 0 0 0 0 0 0 0 0 0 0 0 0 0 0 0 0 0 0 0 0 0 0 0 0 
0 0 0 0 0 0 0 0 0 0 0 0 0 0 0 0 0 0 0 0 0 0 0 0 0 0 0 0 0 0 0 0 0 0 0 0 0 0 0 0 0 0 0 0 9 20 42 66 68 71 70 78 76 79 87 88 88 85 85 87 83 79 80 83 83 85 78 80 77 73 73 77 70 72 63 48 34 18 13 0 0 0 0 0 0 0 0 0 0 0 0 0 0 0 0 0 0 0 0 0 0 0 0 0 0 0 0 0 0 0 0 0 0 0 0 0 0 0 0 0 0 0 0 0 0 0 0 0 
0 0 0 0 0 0 0 0 0 0 0 0 0 0 0 0 0 0 0 0 0 0 0 0 0 0 0 0 0 0 0 0 0 0 0 0 0 0 0 0 0 0 0 0 0 0 0 18 37 48 48 55 71 77 75 75 79 78 83 79 77 77 73 71 75 76 79 72 71 70 60 57 54 42 26 11 0 0 0 0 0 0 0 0 0 0 0 0 0 0 0 0 0 0 0 0 0 0 0 0 0 0 0 0 0 0 0 0 0 0 0 0 0 0 0 0 0 0 0 0 0 0 0 0 0 0 0 0 
0 0 0 0 0 0 0 0 0 0 0 0 0 0 0 0 0 0 0 0 0 0 0 0 0 0 0 0 0 0 0 0 0 0 0 0 0 0 0 0 0 0 0 0 0 0 0 0 0 13 17 16 21 39 50 63 67 68 59 55 53 53 45 45 51 57 51 46 35 26 26 23 15 0 0 0 0 0 0 0 0 0 0 0 0 0 0 0 0 0 0 0 0 0 0 0 0 0 0 0 0 0 0 0 0 0 0 0 0 0 0 0 0 0 0 0 0 0 0 0 0 0 0 0 0 0 0 0 
0 0 0 0 0 0 0 0 0 0 0 0 0 0 0 0 0 0 0 0 0 0 0 0 0 0 0 0 0 0 0 0 0 0 0 0 0 0 0 0 0 0 0 0 0 0 0 0 0 0 0 0 0 0 11 17 25 27 26 20 18 15 16 13 16 15 12 11 0 0 0 0 0 0 0 0 0 0 0 0 0 0 0 0 0 0 0 0 0 0 0 0 0 0 0 0 0 0 0 0 0 0 0 0 0 0 0 0 0 0 0 0 0 0 0 0 0 0 0 0 0 0 0 0 0 0 0 0 
0 0 0 0 0 0 0 0 0 0 0 0 0 0 0 0 0 0 0 0 0 0 0 0 0 0 0 0 0 0 0 0 0 0 0 0 0 0 0 0 0 0 0 0 0 0 0 0 0 0 0 0 0 0 0 0 0 0 0 0 0 0 0 0 0 0 0 0 0 0 0 0 0 0 0 0 0 0 0 0 0 0 0 0 0 0 0 0 0 0 0 0 0 0 0 0 0 0 0 0 0 0 0 0 0 0 0 0 0 0 0 0 0 0 0 0 0 0 0 0 0 0 0 0 0 0 0 0 
0 0 0 0 0 0 0 0 0 0 0 0 0 0 0 0 0 0 0 0 0 0 0 0 0 0 0 0 0 0 0 0 0 0 0 0 0 0 0 0 0 0 0 0 0 0 0 0 0 0 0 0 0 0 0 0 0 0 0 0 0 0 0 0 0 0 0 0 0 0 0 0 0 0 0 0 0 0 0 0 0 0 0 0 0 0 0 0 0 0 0 0 0 0 0 0 0 0 0 0 0 0 0 0 0 0 0 0 0 0 0 0 0 0 0 0 0 0 0 0 0 0 0 0 0 0 0 0 
0 0 0 0 0 0 0 0 0 0 0 0 0 0 0 0 0 0 0 0 0 0 0 0 0 0 0 0 0 0 0 0 0 0 0 0 0 0 0 0 0 0 0 0 0 0 0 0 0 0 0 0 0 0 0 0 0 0 0 0 0 0 0 0 0 0 0 0 0 0 0 0 0 0 0 0 0 0 0 0 0 0 0 0 0 0 0 0 0 0 0 0 0 0 0 0 0 0 0 0 0 0 0 0 0 0 0 0 0 0 0 0 0 0 0 0 0 0 0 0 0 0 0 0 0 0 0 0 
0 0 0 0 0 0 0 0 0 0 0 0 0 0 0 0 0 0 0 0 0 0 0 0 0 0 0 0 0 0 0 0 0 0 0 0 0 0 0 0 0 0 0 0 0 0 0 0 0 0 0 0 0 0 0 0 0 0 0 0 0 0 0 0 0 0 0 0 0 0 0 0 0 0 0 0 0 0 0 0 0 0 0 0 0 0 0 0 0 0 0 0 0 0 0 0 0 0 0 0 0 0 0 0 0 0 0 0 0 0 0 0 0 0 0 0 0 0 0 0 0 0 0 0 0 0 0 0 
0 0 0 0 0 0 0 0 0 0 0 0 0 0 0 0 0 0 0 0 0 0 0 0 0 0 0 0 0 0 0 0 0 0 0 0 0 0 0 0 0 0 0 0 0 0 0 0 0 0 0 0 0 0 0 0 0 0 0 0 0 0 0 0 0 0 0 0 0 0 0 0 0 0 0 0 0 0 0 0 0 0 0 0 0 0 0 0 0 0 0 0 0 0 0 0 0 0 0 0 0 0 0 0 0 0 0 0 0 0 0 0 0 0 0 0 0 0 0 0 0 0 0 0 0 0 0 0 
0 0 0 0 0 0 0 0 0 0 0 0 0 0 0 0 0 0 0 0 0 0 0 0 0 0 0 0 0 0 0 0 0 0 0 0 0 0 0 0 0 0 0 0 0 0 0 0 0 0 0 0 0 0 0 0 0 0 0 0 0 0 0 0 0 0 0 0 0 0 0 0 0 0 0 0 0 0 0 0 0 0 0 0 0 0 0 0 0 0 0 0 0 0 0 0 0 0 0 0 0 0 0 0 0 0 0 0 0 0 0 0 0 0 0 0 0 0 0 0 0 0 0 0 0 0 0 0 
0 0 0 0 0 0 0 0 0 0 0 0 0 0 0 0 0 0 0 0 0 0 0 0 0 0 0 0 0 0 0 0 0 0 0 0 0 0 0 0 0 0 0 0 0 0 0 0 0 0 0 0 0 0 0 0 0 0 0 0 0 0 0 0 0 0 0 0 0 0 0 0 0 0 0 0 0 0 0 0 0 0 0 0 0 0 0 0 0 0 0 0 0 0 0 0 0 0 0 0 0 0 0 0 0 0 0 0 0 0 0 0 0 0 0 0 0 0 0 0 0 0 0 0 0 0 0 0 
0 0 0 0 0 0 0 0 0 0 0 0 0 0 0 0 0 0 0 0 0 0 0 0 0 0 0 0 0 0 0 0 0 0 0 0 0 0 0 0 0 0 0 0 0 0 0 0 0 0 0 0 0 0 0 0 0 0 0 0 0 0 0 0 0 0 0 0 0 0 0 0 0 0 0 0 0 0 0 0 0 0 0 0 0 0 0 0 0 0 0 0 0 0 0 0 0 0 0 0 0 0 0 0 0 0 0 0 0 0 0 0 0 0 0 0 0 0 0 0 0 0 0 0 0 0 0 0 
0 0 0 0 0 0 0 0 0 0 0 0 0 0 0 0 0 0 0 0 0 0 0 0 0 0 0 0 0 0 0 0 0 0 0 0 0 0 0 0 0 0 0 0 0 0 0 0 0 0 0 0 0 0 0 0 0 0 0 0 0 0 0 0 0 0 0 0 0 0 0 0 0 0 0 0 0 0 0 0 0 0 0 0 0 0 0 0 0 0 0 0 0 0 0 0 0 0 0 0 0 0 0 0 0 0 0 0 0 0 0 0 0 0 0 0 0 0 0 0 0 0 0 0 0 0 0 0 
0 0 0 0 0 0 0 0 0 0 0 0 0 0 0 0 0 0 0 0 0 0 0 0 0 0 0 0 0 0 0 0 0 0 0 0 0 0 0 0 0 0 0 0 0 0 0 0 0 0 0 0 0 0 0 0 0 0 0 0 0 0 0 0 0 0 0 0 0 0 0 0 0 0 0 0 0 0 0 0 0 0 0 0 0 0 0 0 0 0 0 0 0 0 0 0 0 0 0 0 0 0 0 0 0 0 0 0 0 0 0 0 0 0 0 0 0 0 0 0 0 0 0 0 0 0 0 0 
